<svg width="300" height="270" viewBox="0 0 300 270" fill="none" xmlns="http://www.w3.org/2000/svg">
<g clip-path="url(#clip0)">
<path d="M287.559 107.027C287.559 153.867 257.472 193.676 215.57 208.186C198.703 213.993 180.658 215.521 163.055 212.633C161.385 212.36 159.726 212.047 158.079 211.693C155.848 211.219 153.643 210.674 151.464 210.058C106.477 197.396 73.5039 156.062 73.5039 107.027C73.5039 47.9174 121.421 0 180.531 0C239.641 0 287.559 47.9174 287.559 107.027Z" fill="#E6E6E6"/>
<path d="M113.496 140.062C113.308 140.162 113.167 140.334 113.105 140.538C113.043 140.743 113.065 140.964 113.165 141.152L153.404 216.521C153.505 216.71 153.677 216.851 153.881 216.913C154.086 216.975 154.306 216.953 154.495 216.853L211.377 186.483C211.566 186.383 211.707 186.211 211.769 186.007C211.831 185.802 211.809 185.581 211.709 185.393L171.469 110.024C171.369 109.835 171.197 109.695 170.993 109.632C170.788 109.57 170.567 109.592 170.379 109.692L113.496 140.062Z" fill="#3F3D56"/>
<path d="M118.782 142.263L155.605 211.232L206.088 184.28L169.265 115.31L118.782 142.263ZM115.583 143.971L115.59 143.967L115.582 143.971L115.583 143.971Z" fill="white"/>
<path d="M131.51 149.845C130.726 150.264 130.559 151.486 131.138 152.569C131.716 153.653 132.824 154.194 133.609 153.775L170.582 134.035C171.367 133.616 171.534 132.394 170.955 131.311C170.377 130.227 169.268 129.686 168.484 130.105L131.51 149.845Z" fill="#404DEF"/>
<path d="M136.065 158.379C135.281 158.798 135.114 160.02 135.692 161.103C136.271 162.187 137.379 162.728 138.163 162.309L175.137 142.569C175.921 142.15 176.088 140.928 175.51 139.845C174.931 138.761 173.823 138.22 173.039 138.639L136.065 158.379Z" fill="#404DEF"/>
<path d="M140.624 166.911C139.839 167.329 139.672 168.552 140.251 169.635C140.829 170.718 141.938 171.26 142.722 170.841L179.696 151.101C180.48 150.682 180.647 149.46 180.068 148.376C179.49 147.293 178.381 146.752 177.597 147.17L140.624 166.911Z" fill="#404DEF"/>
<path d="M145.178 175.442C144.394 175.861 144.227 177.084 144.805 178.167C145.384 179.25 146.492 179.792 147.277 179.373L184.25 159.633C185.035 159.214 185.202 157.992 184.623 156.908C184.045 155.825 182.936 155.284 182.152 155.702L145.178 175.442Z" fill="#404DEF"/>
<path d="M149.733 183.974C148.949 184.393 148.782 185.615 149.36 186.699C149.939 187.782 151.047 188.324 151.831 187.905L188.805 168.165C189.589 167.746 189.756 166.524 189.178 165.44C188.599 164.357 187.491 163.816 186.707 164.234L149.733 183.974Z" fill="#404DEF"/>
<path d="M156.914 107.498L190.416 109.544L199.799 81.5635L170.414 75.3547L156.914 107.498Z" fill="#2F2E41"/>
<path d="M181.075 100.424C188.475 100.424 194.474 94.4249 194.474 87.0248C194.474 79.6247 188.475 73.6257 181.075 73.6257C173.675 73.6257 167.676 79.6247 167.676 87.0248C167.676 94.4249 173.675 100.424 181.075 100.424Z" fill="#FFB8B8"/>
<path d="M215.482 207.143L215.569 208.186C198.702 213.993 180.657 215.521 163.054 212.633L158.078 211.693L162.813 201.192L165.918 194.308L164.8 170.493L164.681 168.029L164.535 164.885L166.557 164.873L180.933 164.786L194.633 164.7L196.722 164.688C209.822 180.801 220.632 193.897 215.482 207.143Z" fill="#2F2E41"/>
<path d="M196.525 164.491L164.536 168.046L163.351 145.929C159.597 136.354 162.075 127.808 169.866 120.139L171.45 113.869C171.866 112.223 172.725 110.723 173.934 109.531C175.143 108.34 176.656 107.503 178.307 107.111C183.543 104.108 189.475 102.676 196.13 102.882C198.788 103.919 201.042 105.785 202.559 108.202C204.075 110.619 204.774 113.459 204.552 116.304C203.176 133.685 200.705 149.955 196.525 164.491Z" fill="#404DEF"/>
<path d="M170.939 71.1937C170.939 71.1937 164.011 73.722 163.833 82.914C163.823 84.4608 164.03 86.0014 164.447 87.491C164.896 89.1804 165.256 92.8459 162.235 97.7321C160.261 100.904 158.477 104.189 156.891 107.571V107.571L164.692 108.324L165.982 95.3921C166.607 89.1223 168.152 82.9788 170.567 77.1592L170.618 77.0377C170.618 77.0377 174.197 83.258 180.999 83.0664L178.501 80.7056C178.501 80.7056 187.021 83.9139 191.653 84.558C192.182 84.6317 192.681 84.8481 193.095 85.1841C193.51 85.5201 193.825 85.9629 194.007 86.4648C194.189 86.9667 194.23 87.5087 194.127 88.0324C194.023 88.5561 193.779 89.0416 193.42 89.4367C193.393 89.4665 193.365 89.4963 193.337 89.5263C190.504 92.5236 184.865 99.4898 188.417 104.738C191.968 109.987 189.094 111.527 189.094 111.527L194.357 108.461L196.745 106.935L196.799 108.878L209.391 107.065C209.391 107.065 212.778 106.483 205.258 98.4291C205.258 98.4291 203.243 95.2759 204.007 92.4857C204.639 90.3638 204.758 88.1219 204.353 85.945C202.464 76.8827 195.548 58.9548 170.939 71.1937Z" fill="#2F2E41"/>
<path d="M180.53 269.013C207.14 269.013 228.712 267.776 228.712 266.249C228.712 264.722 207.14 263.484 180.53 263.484C153.919 263.484 132.348 264.722 132.348 266.249C132.348 267.776 153.919 269.013 180.53 269.013Z" fill="#E6E6E6"/>
<path d="M0.293175 127.38C0.192019 127.407 0.105731 127.473 0.0532466 127.563C0.000762565 127.654 -0.0136326 127.762 0.0132265 127.863L10.7911 168.315C10.8181 168.416 10.8842 168.502 10.9748 168.555C11.0654 168.607 11.1731 168.622 11.2743 168.595L41.8041 160.461C41.9052 160.433 41.9915 160.367 42.044 160.277C42.0965 160.186 42.1109 160.078 42.084 159.977L31.3062 119.525C31.2792 119.424 31.2131 119.338 31.1225 119.285C31.0318 119.233 30.9241 119.219 30.8229 119.245L0.293175 127.38Z" fill="#F2F2F2"/>
<path d="M7.79407 134.06C7.37313 134.172 7.15693 134.737 7.31185 135.318C7.46677 135.9 7.93518 136.282 8.35612 136.169L28.2004 130.882C28.6214 130.77 28.8376 130.206 28.6827 129.624C28.5277 129.043 28.0593 128.661 27.6384 128.773L7.79407 134.06Z" fill="white"/>
<path d="M9.01673 138.64C8.59579 138.752 8.37959 139.317 8.53451 139.898C8.68943 140.48 9.15784 140.862 9.57877 140.75L29.4231 135.463C29.844 135.35 30.0602 134.786 29.9053 134.204C29.7504 133.623 29.282 133.241 28.861 133.353L9.01673 138.64Z" fill="white"/>
<path d="M10.2355 143.219C9.81454 143.331 9.59834 143.895 9.75326 144.477C9.90817 145.058 10.3766 145.44 10.7975 145.328L30.6419 140.041C31.0628 139.929 31.279 139.364 31.1241 138.783C30.9691 138.201 30.5008 137.819 30.0798 137.931L10.2355 143.219Z" fill="white"/>
<path d="M11.4542 147.799C11.0333 147.911 10.8171 148.476 10.972 149.057C11.1269 149.639 11.5953 150.021 12.0163 149.908L31.8606 144.621C32.2815 144.509 32.4977 143.945 32.3428 143.363C32.1879 142.782 31.7195 142.4 31.2985 142.512L11.4542 147.799Z" fill="white"/>
<path d="M12.6769 152.377C12.2559 152.489 12.0397 153.054 12.1947 153.635C12.3496 154.217 12.818 154.599 13.2389 154.487L33.0833 149.2C33.5042 149.087 33.7204 148.523 33.5655 147.942C33.4106 147.36 32.9421 146.978 32.5212 147.09L12.6769 152.377Z" fill="white"/>
<path d="M13.8956 156.958C13.4747 157.07 13.2585 157.634 13.4134 158.216C13.5683 158.797 14.0367 159.179 14.4577 159.067L34.302 153.78C34.7229 153.668 34.9391 153.103 34.7842 152.522C34.6293 151.941 34.1609 151.558 33.7399 151.671L13.8956 156.958Z" fill="white"/>
<path d="M78.3125 269.909C78.3125 269.96 78.4895 270.001 78.7074 270.001H120.571C120.788 270.001 120.965 269.96 120.965 269.909V262.588C120.965 262.538 120.788 262.497 120.571 262.497H78.7074C78.4895 262.497 78.3125 262.538 78.3125 262.588V269.909Z" fill="#F2F2F2"/>
<path d="M86.6992 268.628C86.6992 268.729 87.189 268.811 87.7908 268.811C88.3925 268.811 88.8823 268.729 88.8823 268.628V263.87C88.8823 263.769 88.3925 263.687 87.7908 263.687C87.189 263.687 86.6992 263.769 86.6992 263.87V268.628Z" fill="white"/>
<path d="M91.4414 268.628C91.4414 268.729 91.9312 268.811 92.533 268.811C93.1347 268.811 93.6245 268.729 93.6245 268.628V263.87C93.6245 263.769 93.1347 263.687 92.533 263.687C91.9312 263.687 91.4414 263.769 91.4414 263.87V268.628Z" fill="white"/>
<path d="M96.1797 268.628C96.1797 268.729 96.6695 268.811 97.2712 268.811C97.873 268.811 98.3628 268.729 98.3628 268.628V263.87C98.3628 263.769 97.873 263.687 97.2712 263.687C96.6695 263.687 96.1797 263.769 96.1797 263.87V268.628Z" fill="white"/>
<path d="M100.918 268.628C100.918 268.729 101.408 268.811 102.01 268.811C102.611 268.811 103.101 268.729 103.101 268.628V263.87C103.101 263.769 102.611 263.687 102.01 263.687C101.408 263.687 100.918 263.769 100.918 263.87V268.628Z" fill="white"/>
<path d="M105.656 268.628C105.656 268.729 106.146 268.811 106.748 268.811C107.35 268.811 107.839 268.729 107.839 268.628V263.87C107.839 263.769 107.35 263.687 106.748 263.687C106.146 263.687 105.656 263.769 105.656 263.87V268.628Z" fill="white"/>
<path d="M110.398 268.628C110.398 268.729 110.888 268.811 111.49 268.811C112.092 268.811 112.582 268.729 112.582 268.628V263.87C112.582 263.769 112.092 263.687 111.49 263.687C110.888 263.687 110.398 263.769 110.398 263.87V268.628Z" fill="white"/>
<path d="M1.41191 98.1885C1.31959 98.2379 1.25065 98.3219 1.2202 98.4221C1.18976 98.5223 1.20031 98.6305 1.24953 98.7229L20.966 135.652C21.0154 135.745 21.0994 135.813 21.1996 135.844C21.2998 135.874 21.408 135.864 21.5004 135.815L49.3716 120.934C49.4639 120.885 49.5329 120.801 49.5633 120.701C49.5938 120.6 49.5832 120.492 49.534 120.4L29.8175 83.4705C29.7681 83.3782 29.6841 83.3092 29.5839 83.2788C29.4837 83.2484 29.3755 83.2589 29.2831 83.3081L1.41191 98.1885Z" fill="#E6E6E6"/>
<path d="M4.00528 99.2669L22.0479 133.06L46.7836 119.854L28.741 86.0605L4.00528 99.2669ZM2.43789 100.104L2.44136 100.102L2.4375 100.104L2.43789 100.104Z" fill="white"/>
<path d="M10.2421 102.982C9.85784 103.188 9.77602 103.787 10.0594 104.317C10.3428 104.848 10.886 105.113 11.2703 104.908L29.3866 95.2361C29.7709 95.0309 29.8527 94.432 29.5693 93.9011C29.2858 93.3703 28.7427 93.1051 28.3584 93.3103L10.2421 102.982Z" fill="#404DEF"/>
<path d="M12.4726 107.163C12.0883 107.368 12.0065 107.967 12.2899 108.498C12.5733 109.029 13.1165 109.294 13.5008 109.089L31.617 99.4166C32.0013 99.2114 32.0831 98.6125 31.7997 98.0817C31.5163 97.5509 30.9731 97.2856 30.5889 97.4908L12.4726 107.163Z" fill="#404DEF"/>
<path d="M14.703 111.344C14.3188 111.549 14.237 112.148 14.5204 112.679C14.8038 113.209 15.347 113.475 15.7312 113.27L33.8475 103.597C34.2318 103.392 34.3136 102.793 34.0302 102.262C33.7468 101.732 33.2036 101.466 32.8194 101.671L14.703 111.344Z" fill="#404DEF"/>
<path d="M16.9374 115.524C16.5532 115.729 16.4713 116.328 16.7547 116.859C17.0382 117.39 17.5813 117.655 17.9656 117.45L36.0819 107.778C36.4662 107.573 36.548 106.974 36.2646 106.443C35.9812 105.912 35.438 105.647 35.0537 105.852L16.9374 115.524Z" fill="#404DEF"/>
<path d="M19.1679 119.705C18.7836 119.91 18.7018 120.509 18.9852 121.04C19.2686 121.571 19.8118 121.836 20.1961 121.631L38.3124 111.958C38.6966 111.753 38.7785 111.154 38.4951 110.623C38.2117 110.093 37.6684 109.827 37.2842 110.033L19.1679 119.705Z" fill="#404DEF"/>
<path d="M21.4023 123.885C21.018 124.09 20.9362 124.689 21.2196 125.22C21.503 125.751 22.0462 126.016 22.4305 125.811L40.5467 116.139C40.931 115.934 41.0128 115.335 40.7294 114.804C40.446 114.273 39.9028 114.008 39.5186 114.213L21.4023 123.885Z" fill="#404DEF"/>
<path d="M272.241 192.56C272.151 192.506 272.043 192.491 271.942 192.517C271.841 192.543 271.754 192.609 271.7 192.699L250.402 228.739C250.349 228.829 250.334 228.937 250.36 229.038C250.386 229.14 250.451 229.227 250.542 229.28L277.742 245.354C277.832 245.407 277.94 245.422 278.041 245.396C278.143 245.37 278.229 245.305 278.283 245.215L299.581 209.174C299.634 209.084 299.649 208.977 299.623 208.875C299.597 208.774 299.532 208.687 299.442 208.633L272.241 192.56Z" fill="#E6E6E6"/>
<path d="M272.665 195.335L253.176 228.315L277.316 242.581L296.805 209.6L272.665 195.335ZM271.135 194.431L271.139 194.433L271.135 194.431L271.135 194.431Z" fill="white"/>
<path d="M272.734 202.595C272.359 202.373 271.804 202.614 271.498 203.132C271.192 203.65 271.248 204.252 271.623 204.474L289.303 214.922C289.678 215.144 290.232 214.902 290.539 214.384C290.845 213.866 290.789 213.264 290.414 213.043L272.734 202.595Z" fill="#404DEF"/>
<path d="M270.324 206.674C269.949 206.452 269.394 206.694 269.088 207.212C268.782 207.73 268.838 208.332 269.213 208.553L286.893 219.001C287.268 219.223 287.822 218.982 288.128 218.464C288.435 217.946 288.379 217.344 288.004 217.122L270.324 206.674Z" fill="#404DEF"/>
<path d="M267.913 210.753C267.538 210.532 266.984 210.773 266.678 211.291C266.372 211.809 266.428 212.411 266.803 212.633L284.483 223.081C284.858 223.303 285.412 223.061 285.718 222.543C286.024 222.025 285.969 221.423 285.594 221.202L267.913 210.753Z" fill="#404DEF"/>
<path d="M265.503 214.833C265.128 214.611 264.574 214.853 264.268 215.371C263.962 215.889 264.018 216.491 264.393 216.712L282.073 227.16C282.448 227.382 283.002 227.141 283.308 226.622C283.614 226.104 283.559 225.503 283.184 225.281L265.503 214.833Z" fill="#404DEF"/>
<path d="M263.089 218.914C262.714 218.693 262.16 218.934 261.854 219.452C261.548 219.97 261.603 220.572 261.978 220.794L279.659 231.242C280.034 231.464 280.588 231.222 280.894 230.704C281.2 230.186 281.144 229.584 280.769 229.362L263.089 218.914Z" fill="#404DEF"/>
<path d="M260.679 222.994C260.304 222.772 259.75 223.014 259.444 223.532C259.138 224.05 259.193 224.652 259.568 224.874L277.249 235.322C277.624 235.543 278.178 235.302 278.484 234.784C278.79 234.266 278.734 233.664 278.359 233.442L260.679 222.994Z" fill="#404DEF"/>
<path d="M174.014 126.972L173.603 129.515L169.275 156.197L166.557 164.873L165.602 167.926L164.8 170.493L155.057 201.614L152.384 207.895C150.917 208.437 149.656 209.425 148.778 210.719C147.9 212.013 147.449 213.549 147.487 215.112C147.524 216.676 148.05 218.188 148.99 219.438C149.929 220.688 151.236 221.613 152.728 222.084C154.219 222.555 155.82 222.548 157.307 222.064C158.794 221.58 160.093 220.644 161.022 219.385C161.95 218.127 162.463 216.61 162.487 215.047C162.511 213.483 162.046 211.951 161.157 210.664L180.226 166.303L180.933 164.787L183.097 160.146L187.185 129.306L187.442 127.366L174.014 126.972Z" fill="#FFB8B8"/>
<path d="M189.811 130.131C183.604 127.901 177.65 127.664 172.039 130.131L173.871 114.257C173.803 112.274 174.517 110.345 175.857 108.883C177.198 107.421 179.059 106.544 181.039 106.439C183.045 106.334 185.01 107.029 186.502 108.372C187.995 109.716 188.893 111.597 188.998 113.602L188.999 113.628L189.811 130.131Z" fill="#404DEF"/>
</g>
<defs>
<clipPath id="clip0">
<rect width="299.636" height="270" fill="white"/>
</clipPath>
</defs>
</svg>
