<svg width="237" height="198" viewBox="0 0 237 198" fill="none" xmlns="http://www.w3.org/2000/svg">
<g clip-path="url(#clip0)">
<path d="M111.777 188.247C111.472 188.254 111.176 188.358 110.934 188.545C110.215 186.638 109.102 185.412 107.851 185.412C106.601 185.412 105.488 186.638 104.769 188.545C104.526 188.358 104.231 188.254 103.925 188.247C102.504 188.247 101.353 190.659 101.353 193.634H114.35C114.35 190.659 113.198 188.247 111.777 188.247Z" fill="#404DEF"/>
<path d="M79.7277 188.247C79.422 188.254 79.1263 188.358 78.8841 188.545C78.165 186.638 77.052 185.412 75.8015 185.412C74.551 185.412 73.4379 186.638 72.7189 188.545C72.4767 188.358 72.181 188.254 71.8753 188.247C70.4546 188.247 69.303 190.659 69.303 193.634H82.3C82.3 190.659 81.1483 188.247 79.7277 188.247Z" fill="#404DEF"/>
<path d="M204.332 188.247C204.027 188.254 203.731 188.358 203.489 188.545C202.77 186.638 201.657 185.412 200.406 185.412C199.156 185.412 198.043 186.638 197.324 188.545C197.081 188.358 196.786 188.254 196.48 188.247C195.059 188.247 193.908 190.659 193.908 193.634H206.905C206.905 190.659 205.753 188.247 204.332 188.247Z" fill="#404DEF"/>
<path d="M233.035 193.111H59.0076V193.713H233.035V193.111Z" fill="#3F3D56"/>
<path d="M111.354 193.635H92.9658V193.334C92.9658 189.031 94.644 185.66 96.7862 185.66C97.1385 185.662 97.4848 185.752 97.7939 185.922C98.8677 183.284 100.447 181.779 102.16 181.779C103.873 181.779 105.453 183.284 106.526 185.922C106.835 185.752 107.182 185.662 107.534 185.66C109.676 185.66 111.354 189.031 111.354 193.334V193.635ZM93.568 193.033H110.752C110.678 189.332 109.234 186.261 107.534 186.261C107.179 186.27 106.836 186.393 106.555 186.612L106.238 186.843L106.099 186.475C105.118 183.873 103.683 182.381 102.16 182.381C100.638 182.381 99.2019 183.873 98.2209 186.475L98.0824 186.843L97.7652 186.612C97.4845 186.393 97.1414 186.27 96.7862 186.261C95.0859 186.261 93.6425 189.332 93.568 193.033Z" fill="#3F3D56"/>
<path d="M218.586 193.635H200.198V193.334C200.198 189.031 201.876 185.66 204.018 185.66C204.371 185.662 204.717 185.752 205.026 185.922C206.1 183.284 207.679 181.779 209.392 181.779C211.105 181.779 212.684 183.284 213.758 185.922C214.067 185.752 214.414 185.662 214.766 185.66C216.908 185.66 218.586 189.031 218.586 193.334V193.635ZM200.8 193.033H217.984C217.91 189.332 216.466 186.261 214.766 186.261C214.411 186.27 214.068 186.393 213.787 186.612L213.47 186.843L213.331 186.475C212.35 183.873 210.914 182.381 209.392 182.381C207.87 182.381 206.434 183.873 205.453 186.475L205.314 186.843L204.997 186.612C204.716 186.393 204.373 186.27 204.018 186.261C202.318 186.261 200.874 189.332 200.8 193.033Z" fill="#3F3D56"/>
<path d="M81.701 193.635H63.3125V193.334C63.3125 189.031 64.9906 185.66 67.1328 185.66C67.4852 185.662 67.8314 185.752 68.1405 185.922C69.2143 183.284 70.7935 181.779 72.5067 181.779C74.2199 181.779 75.7992 183.284 76.873 185.922C77.1821 185.752 77.5283 185.662 77.8807 185.66C80.0229 185.66 81.701 189.031 81.701 193.334V193.635ZM63.9146 193.033H81.0989C81.0243 189.332 79.5809 186.261 77.8807 186.261C77.5254 186.27 77.1824 186.393 76.9017 186.612L76.5844 186.843L76.4459 186.475C75.465 183.873 74.0292 182.381 72.5067 182.381C70.9842 182.381 69.5485 183.873 68.5676 186.475L68.4291 186.843L68.1119 186.612C67.8312 186.393 67.4881 186.27 67.1328 186.261C65.4326 186.261 63.9892 189.332 63.9146 193.033Z" fill="#3F3D56"/>
<path d="M149.415 85.3092C149.472 85.2196 149.325 85.0245 149.087 84.8734C148.849 84.7222 148.611 84.6722 148.554 84.7617C148.498 84.8513 148.645 85.0464 148.882 85.1975C149.12 85.3487 149.359 85.3987 149.415 85.3092Z" fill="#3F3D56"/>
<path d="M148.581 83.6445C148.707 83.4439 148.908 83.302 149.139 83.25C149.369 83.1979 149.611 83.2401 149.811 83.3671L161.114 90.552C161.314 90.679 161.455 90.8805 161.507 91.1122C161.559 91.3439 161.517 91.5867 161.39 91.7873V91.7873L148.581 83.6445Z" fill="#404DEF"/>
<path d="M147.512 84.0234L147.867 83.4598C147.954 83.3227 148.091 83.2257 148.249 83.1901C148.406 83.1546 148.572 83.1834 148.708 83.2702L161.578 91.4507C161.739 91.5536 161.854 91.7166 161.896 91.9042C161.938 92.0917 161.904 92.2882 161.801 92.4506L161.506 92.919L147.512 84.0234Z" fill="#3F3D56"/>
<path d="M149.428 84.3327L149.292 84.5488L150.153 85.0963L150.289 84.8801L149.428 84.3327Z" fill="#D0CDE1"/>
<path d="M150.612 85.0866L150.476 85.3027L151.337 85.8501L151.473 85.634L150.612 85.0866Z" fill="#D0CDE1"/>
<path d="M167.669 58.8319C172.106 58.8319 175.703 55.2214 175.703 50.7675C175.703 46.3137 172.106 42.7031 167.669 42.7031C163.233 42.7031 159.636 46.3137 159.636 50.7675C159.636 55.2214 163.233 58.8319 167.669 58.8319Z" fill="#FFB8B8"/>
<path d="M168.159 56.472C168.159 56.472 172.078 62.6678 171.098 64.438C170.119 66.2083 167.082 71.0272 167.082 71.0272C167.082 71.0272 180.602 60.9959 178.838 58.8323C178.838 58.8323 174.821 55.3902 174.625 53.2266L168.159 56.472Z" fill="#FFB8B8"/>
<path d="M174.429 174.875L174.821 181.071L181.092 179.989L180.7 173.99L174.429 174.875Z" fill="#FFB8B8"/>
<path d="M146.507 178.322L145.332 182.256L152.288 183.534L153.268 179.896L146.507 178.322Z" fill="#FFB8B8"/>
<path d="M175.066 91.4328L175.703 95.8092C175.703 95.8092 183.737 111.84 175.017 119.707L163.261 148.818C163.261 148.818 161.987 163.963 158.264 169.274L154.835 181.37L144.646 178.715L152.876 152.457C152.876 152.457 152.778 141.442 153.953 138.983L159.146 115.577L160.077 90.5477C160.077 90.5477 173.793 89.5642 175.066 91.4328Z" fill="#2F2E41"/>
<path d="M173.548 118.719L177.956 148.616C177.956 148.616 180.308 160.123 180.504 164.548C180.7 168.974 181.483 174.678 181.483 174.678L173.548 175.956L165.71 137.405L173.548 118.719Z" fill="#2F2E41"/>
<path d="M182.267 176.844L175.997 177.237C175.997 177.237 173.663 174.582 173.801 175.959C173.94 177.335 172.47 183.138 172.47 183.138L167.571 188.252C167.571 188.252 157.872 188.252 159.342 192.972C160.811 197.693 172.274 193.759 172.274 193.759L176.683 192.284V194.251C176.683 194.251 184.227 195.333 184.423 193.366C184.619 191.399 184.423 188.94 184.129 188.743C183.835 188.547 182.267 176.844 182.267 176.844Z" fill="#2F2E41"/>
<path d="M153.289 181.696C153.289 181.696 148.807 181.336 148.179 180.796C147.552 180.256 146.566 178.007 145.221 179.447C143.877 180.886 139.036 185.565 139.036 185.565L134.375 187.815C134.375 187.815 128.28 186.195 126.218 189.974C124.156 193.753 136.347 197.713 139.484 196.453L143.429 195.643L143.249 197.533C143.249 197.533 148.807 198.792 149.614 197.173C150.42 195.553 151.048 193.664 150.689 193.124C150.331 192.584 153.289 181.696 153.289 181.696Z" fill="#2F2E41"/>
<path d="M186.382 68.8634L179.442 84.2772L176.428 90.9687L175.311 93.45L159.146 93.2533L160.811 81.9435C158.46 75.846 164.044 73.3874 164.044 73.3874L168.747 68.3569V69.1585C168.747 69.1585 173.352 63.6511 175.409 60.504C177.466 57.3569 180.308 58.5371 180.308 58.5371C185.206 58.0453 186.382 68.8634 186.382 68.8634Z" fill="#FDC34A"/>
<path opacity="0.2" d="M179.442 84.2769L176.428 90.9683C175.46 89.1509 174.723 87.0925 174.723 85.877C174.723 82.5332 178.054 84.3034 178.054 84.3034C178.054 84.3034 175.36 69.5023 175.36 65.0767C175.36 62.1372 177.802 75.1828 179.442 84.2769Z" fill="black"/>
<path d="M176.781 85.3849L162.183 85.0898C162.183 85.0898 151.504 85.975 153.071 90.3022C154.639 94.6294 163.163 90.3022 163.163 90.3022L180.21 92.9575L176.781 85.3849Z" fill="#FFB8B8"/>
<path d="M179.524 59.3238C179.524 59.3238 174.429 59.7171 174.429 64.1427C174.429 68.5683 179.034 84.3037 179.034 84.3037C179.034 84.3037 175.703 82.5335 175.703 85.8772C175.703 89.221 181.287 98.9573 181.875 92.4664C181.875 92.4664 190.301 96.597 189.811 88.8276C189.321 81.0583 184.031 64.6344 184.031 64.6344C184.031 64.6344 183.443 59.0287 179.524 59.3238Z" fill="#FDC34A"/>
<path d="M167.937 49.891C167.374 49.3445 167.384 48.4227 166.931 47.7821C166.219 46.776 164.737 46.8434 163.519 47.0171C162.705 47.0974 161.905 47.2841 161.139 47.5724C160.803 47.7112 160.503 47.9264 160.264 48.2012C160.025 48.4759 159.853 48.8026 159.761 49.1555C159.666 49.5519 159.456 48.4274 159.242 46.9709C159.023 45.4849 159.279 43.9674 159.974 42.637C160.669 41.3067 161.767 40.2322 163.11 39.5684C163.126 39.5605 163.142 39.5528 163.157 39.5451C164.534 38.8735 165.976 38.2804 167.498 38.1138C169.02 37.9471 170.643 38.2489 171.837 39.211C172.382 39.6507 172.826 40.2153 173.411 40.6007C174.438 41.278 175.739 41.3108 176.96 41.4536C178.35 41.5743 179.698 41.9896 180.917 42.6721C182.141 43.3674 183.043 44.5192 183.428 45.8778C183.814 47.4586 183.183 49.3273 181.635 50.0133C181.365 50.1275 181.125 50.3041 180.935 50.5288C179.664 52.0889 181.716 52.9426 182.014 54.3006C182.262 55.4338 181.177 56.4598 180.064 56.7718C179.016 57.0332 177.91 56.9206 176.936 56.4534C175.962 55.9862 175.18 55.1935 174.724 54.211C174.342 53.3221 174.255 52.3387 174.151 51.3763C174.033 50.2746 171.154 48.2792 173.097 49.7802C173.474 50.0637 173.771 50.4408 173.959 50.8746C174.55 52.2951 173.323 53.1015 172.665 54.1157C172.307 54.6862 172.115 55.346 172.112 56.0203C172.108 56.6946 172.293 57.3564 172.645 57.9307C171.803 57.4573 171.152 56.7037 170.804 55.8C170.456 54.8962 170.434 53.8989 170.74 52.9802C170.917 52.4982 171.184 52.0526 171.345 51.565C171.595 50.8041 171.374 49.3253 170.255 49.6251C169.456 49.8391 168.774 50.7046 167.937 49.891Z" fill="#2F2E41"/>
<path d="M233.406 153.464C235.391 153.464 237 151.849 237 149.856C237 147.863 235.391 146.248 233.406 146.248C231.421 146.248 229.811 147.863 229.811 149.856C229.811 151.849 231.421 153.464 233.406 153.464Z" fill="#D0CDE1"/>
<path d="M224.42 167.595C227.728 167.595 230.41 164.903 230.41 161.582C230.41 158.261 227.728 155.568 224.42 155.568C221.111 155.568 218.429 158.261 218.429 161.582C218.429 164.903 221.111 167.595 224.42 167.595Z" fill="#404DEF"/>
<path d="M226.337 165.191H225.738V193.154H226.337V165.191Z" fill="#3F3D56"/>
<path d="M226.217 165.792C224.973 165.792 223.757 165.422 222.722 164.728C221.688 164.035 220.882 163.048 220.406 161.895C219.929 160.741 219.805 159.471 220.048 158.246C220.29 157.022 220.889 155.897 221.769 155.013C222.649 154.13 223.77 153.529 224.99 153.285C226.21 153.042 227.475 153.167 228.624 153.645C229.773 154.123 230.756 154.932 231.447 155.97C232.138 157.009 232.507 158.229 232.507 159.478C232.505 161.152 231.842 162.757 230.663 163.941C229.483 165.125 227.885 165.791 226.217 165.792ZM226.217 153.765C225.091 153.765 223.991 154.1 223.055 154.728C222.119 155.356 221.39 156.248 220.959 157.292C220.528 158.336 220.416 159.485 220.635 160.593C220.855 161.701 221.397 162.719 222.193 163.518C222.989 164.317 224.003 164.861 225.107 165.081C226.211 165.302 227.355 165.189 228.395 164.756C229.435 164.324 230.324 163.592 230.949 162.652C231.574 161.713 231.908 160.608 231.908 159.478C231.906 157.964 231.306 156.512 230.239 155.441C229.172 154.37 227.726 153.767 226.217 153.765V153.765Z" fill="#3F3D56"/>
<path d="M231.309 154.968C230.539 154.968 229.786 154.739 229.146 154.309C228.505 153.88 228.006 153.269 227.711 152.555C227.417 151.841 227.34 151.055 227.49 150.297C227.64 149.538 228.011 148.842 228.556 148.295C229.1 147.749 229.794 147.376 230.549 147.225C231.305 147.075 232.088 147.152 232.799 147.448C233.511 147.744 234.119 148.245 234.547 148.888C234.974 149.53 235.203 150.286 235.203 151.059C235.202 152.095 234.791 153.089 234.061 153.822C233.331 154.555 232.341 154.967 231.309 154.968ZM231.309 147.752C230.657 147.752 230.02 147.946 229.478 148.309C228.937 148.673 228.514 149.189 228.265 149.793C228.016 150.398 227.95 151.063 228.077 151.704C228.205 152.346 228.518 152.935 228.979 153.398C229.44 153.86 230.027 154.175 230.666 154.303C231.305 154.431 231.968 154.365 232.57 154.115C233.172 153.865 233.686 153.441 234.048 152.897C234.411 152.353 234.604 151.713 234.604 151.059C234.603 150.182 234.255 149.342 233.638 148.722C233.02 148.102 232.182 147.753 231.309 147.752V147.752Z" fill="#3F3D56"/>
<path d="M131.779 89.9651L121.005 79.378H72.116V49.0098H136.216V79.378H131.675L131.779 89.9651ZM72.715 78.7767H121.249L131.166 88.521L131.07 78.7767H135.617V49.6111H72.715V78.7767Z" fill="#404DEF"/>
<path d="M15.7475 40.9552L15.8515 30.3682H11.3113V0H75.4109V30.3682H26.5223L15.7475 40.9552ZM11.9103 29.7669H16.4564L16.3609 39.5111L26.2779 29.7669H74.8118V0.601351H11.9103V29.7669Z" fill="#404DEF"/>
<path d="M61.3329 9.62109H22.9929V10.2224H61.3329V9.62109Z" fill="#404DEF"/>
<path d="M86.8285 71.2927L81.501 65.9449C80.784 65.2253 80.3729 64.2547 80.3542 63.2371C80.3354 62.2196 80.7104 61.2343 81.4004 60.4886C82.0903 59.7429 83.0414 59.2948 84.0537 59.2385C85.066 59.1821 86.0607 59.522 86.8285 60.1867C87.5963 59.5221 88.5909 59.1823 89.6031 59.2386C90.6154 59.2949 91.5665 59.7431 92.2564 60.4887C92.9463 61.2344 93.3214 62.2196 93.3027 63.2371C93.284 64.2546 92.873 65.2252 92.1561 65.9449L86.8285 71.2927ZM84.2706 59.8355C83.6144 59.8351 82.9728 60.0301 82.427 60.3959C81.8812 60.7616 81.4558 61.2817 81.2046 61.8903C80.9534 62.4989 80.8878 63.1686 81.0159 63.8147C81.1441 64.4607 81.4603 65.0541 81.9245 65.5197L86.8285 70.4424L91.7325 65.5197C92.3543 64.895 92.7035 64.048 92.7033 63.1649C92.7032 62.2818 92.3536 61.4349 91.7315 60.8105C91.1095 60.186 90.2658 59.8351 89.3861 59.8349C88.5064 59.8348 87.6626 60.1853 87.0402 60.8095L86.8285 61.022L86.6167 60.8095C86.3088 60.5 85.9431 60.2547 85.5404 60.0876C85.1378 59.9204 84.7063 59.8347 84.2706 59.8355V59.8355Z" fill="#404DEF"/>
<path d="M105.399 62.5449C105.318 62.4632 105.222 62.3984 105.115 62.3542C105.009 62.3099 104.895 62.2872 104.78 62.2871C104.665 62.2871 104.551 62.3098 104.445 62.3539C104.339 62.3981 104.242 62.4628 104.161 62.5444C104.08 62.6261 104.015 62.723 103.971 62.8296C103.927 62.9363 103.905 63.0506 103.905 63.166C103.905 63.2815 103.928 63.3957 103.972 63.5024C104.016 63.609 104.08 63.7058 104.162 63.7874L105.399 65.0299L106.637 63.7874C106.719 63.7058 106.783 63.609 106.827 63.5024C106.871 63.3957 106.894 63.2815 106.894 63.166C106.894 63.0506 106.871 62.9363 106.827 62.8296C106.783 62.723 106.719 62.6261 106.638 62.5444C106.556 62.4628 106.46 62.3981 106.354 62.3539C106.247 62.3098 106.133 62.2871 106.018 62.2871C105.903 62.2872 105.79 62.3099 105.683 62.3542C105.577 62.3984 105.481 62.4632 105.399 62.5449V62.5449Z" fill="#404DEF"/>
<path d="M100.307 62.5449C100.226 62.4632 100.13 62.3984 100.023 62.3542C99.9172 62.3099 99.8033 62.2872 99.6883 62.2871C99.5733 62.2871 99.4594 62.3098 99.3532 62.3539C99.2469 62.3981 99.1504 62.4628 99.0691 62.5444C98.9878 62.6261 98.9233 62.723 98.8793 62.8296C98.8353 62.9363 98.8127 63.0506 98.8127 63.166C98.8128 63.2815 98.8355 63.3957 98.8795 63.5024C98.9236 63.609 98.9882 63.7058 99.0696 63.7874L100.307 65.0299L101.545 63.7874C101.626 63.7058 101.691 63.609 101.735 63.5024C101.779 63.3957 101.802 63.2815 101.802 63.166C101.802 63.0506 101.779 62.9363 101.735 62.8296C101.691 62.723 101.627 62.6261 101.546 62.5444C101.464 62.4628 101.368 62.3981 101.261 62.3539C101.155 62.3098 101.041 62.2871 100.926 62.2871C100.811 62.2872 100.698 62.3099 100.591 62.3542C100.485 62.3984 100.389 62.4632 100.307 62.5449Z" fill="#404DEF"/>
<path d="M102.968 71.8606C101.664 71.8606 100.39 71.4726 99.3066 70.7458C98.2229 70.0189 97.3783 68.9858 96.8795 67.7771C96.3808 66.5684 96.2503 65.2384 96.5045 63.9552C96.7588 62.6721 97.3864 61.4934 98.308 60.5683C99.2296 59.6432 100.404 59.0132 101.682 58.758C102.96 58.5027 104.285 58.6337 105.489 59.1344C106.693 59.6351 107.723 60.4829 108.447 61.5707C109.171 62.6585 109.557 63.9374 109.557 65.2457C109.555 66.9995 108.86 68.6808 107.625 69.9209C106.39 71.161 104.715 71.8586 102.968 71.8606V71.8606ZM102.968 59.2322C101.783 59.2322 100.625 59.5849 99.6394 60.2457C98.6543 60.9064 97.8864 61.8456 97.433 62.9445C96.9796 64.0433 96.861 65.2524 97.0921 66.4189C97.3233 67.5854 97.8938 68.6569 98.7316 69.4979C99.5694 70.3389 100.637 70.9117 101.799 71.1437C102.961 71.3757 104.165 71.2566 105.26 70.8015C106.355 70.3463 107.29 69.5756 107.949 68.5867C108.607 67.5977 108.958 66.4351 108.958 65.2457C108.956 63.6514 108.325 62.1229 107.202 60.9955C106.079 59.8682 104.556 59.234 102.968 59.2322V59.2322Z" fill="#404DEF"/>
<path d="M119.142 71.8606C117.839 71.8606 116.565 71.4726 115.481 70.7458C114.397 70.0189 113.553 68.9858 113.054 67.7771C112.555 66.5684 112.425 65.2384 112.679 63.9552C112.933 62.6721 113.561 61.4934 114.483 60.5683C115.404 59.6432 116.578 59.0132 117.857 58.758C119.135 58.5027 120.46 58.6337 121.664 59.1344C122.868 59.6351 123.897 60.4829 124.621 61.5707C125.345 62.6585 125.732 63.9374 125.732 65.2457C125.73 66.9995 125.035 68.6808 123.8 69.9209C122.564 71.161 120.889 71.8586 119.142 71.8606V71.8606ZM119.142 59.2322C117.957 59.2322 116.799 59.5849 115.814 60.2457C114.829 60.9064 114.061 61.8456 113.608 62.9445C113.154 64.0433 113.036 65.2524 113.267 66.4189C113.498 67.5854 114.068 68.6569 114.906 69.4979C115.744 70.3389 116.811 70.9117 117.973 71.1437C119.136 71.3757 120.34 71.2566 121.435 70.8015C122.529 70.3463 123.465 69.5756 124.123 68.5867C124.781 67.5977 125.133 66.4351 125.133 65.2457C125.131 63.6514 124.499 62.1229 123.376 60.9955C122.253 59.8682 120.73 59.234 119.142 59.2322V59.2322Z" fill="#404DEF"/>
<path d="M121.838 64.6454C122.665 64.6454 123.336 63.9723 123.336 63.1421C123.336 62.3118 122.665 61.6387 121.838 61.6387C121.011 61.6387 120.34 62.3118 120.34 63.1421C120.34 63.9723 121.011 64.6454 121.838 64.6454Z" fill="#404DEF"/>
<path d="M116.746 64.6454C117.573 64.6454 118.244 63.9723 118.244 63.1421C118.244 62.3118 117.573 61.6387 116.746 61.6387C115.919 61.6387 115.248 62.3118 115.248 63.1421C115.248 63.9723 115.919 64.6454 116.746 64.6454Z" fill="#404DEF"/>
<path d="M117.275 66.4485C116.664 70.6924 121.514 71.5533 121.028 66.4483C121.057 66.4449 117.471 66.4511 117.275 66.4485Z" fill="#404DEF"/>
<path d="M100.66 67.3301C102.029 69.1784 104.397 69.3444 105.663 67.3301H100.66Z" fill="#404DEF"/>
<path d="M61.4039 14.209H23.064V14.8103H61.4039V14.209Z" fill="#404DEF"/>
<path d="M61.4039 18.4199H23.064V19.0213H61.4039V18.4199Z" fill="#404DEF"/>
<path d="M32.0498 40.6699H0V41.2713H32.0498V40.6699Z" fill="#3F3D56"/>
<path d="M146.471 89.6797H114.421V90.281H146.471V89.6797Z" fill="#3F3D56"/>
</g>
<defs>
<clipPath id="clip0">
<rect width="237" height="198" fill="white"/>
</clipPath>
</defs>
</svg>
