<svg width="241" height="217" viewBox="0 0 241 217" fill="none" xmlns="http://www.w3.org/2000/svg">
<g clip-path="url(#clip0)">
<path d="M231.285 86.0182C231.285 123.663 207.087 155.658 173.384 167.32C159.818 171.987 145.304 173.215 131.146 170.894C129.802 170.675 128.468 170.423 127.144 170.138C125.349 169.757 123.575 169.319 121.823 168.824C85.6395 158.648 59.1189 125.428 59.1189 86.0182C59.1189 38.5114 97.6594 0 145.202 0C192.745 0 231.285 38.5114 231.285 86.0182Z" fill="#E6E6E6"/>
<path d="M91.2851 112.568C91.1336 112.649 91.0204 112.787 90.9704 112.951C90.9204 113.116 90.9378 113.293 91.0186 113.445L123.384 174.019C123.465 174.171 123.603 174.284 123.767 174.334C123.931 174.384 124.109 174.366 124.261 174.285L170.012 149.877C170.163 149.796 170.277 149.659 170.327 149.494C170.376 149.33 170.359 149.153 170.278 149.001L137.913 88.4265C137.832 88.275 137.694 88.1619 137.53 88.112C137.365 88.0621 137.188 88.0794 137.036 88.1601L91.2851 112.568Z" fill="#3F3D56"/>
<path d="M95.5376 114.338L125.155 169.769L165.759 148.107L136.142 92.6758L95.5376 114.338ZM92.9648 115.71L92.9705 115.708L92.9641 115.711L92.9648 115.71Z" fill="white"/>
<path d="M105.775 120.43C105.145 120.767 105.01 121.749 105.476 122.62C105.941 123.491 106.832 123.926 107.463 123.589L137.201 107.724C137.832 107.387 137.967 106.405 137.501 105.534C137.036 104.664 136.144 104.228 135.514 104.565L105.775 120.43Z" fill="#404DEF"/>
<path d="M109.44 127.29C108.809 127.626 108.674 128.609 109.14 129.479C109.605 130.35 110.497 130.785 111.127 130.448L140.865 114.583C141.496 114.247 141.631 113.264 141.165 112.394C140.7 111.523 139.808 111.088 139.178 111.424L109.44 127.29Z" fill="#404DEF"/>
<path d="M113.103 134.147C112.473 134.484 112.338 135.466 112.803 136.337C113.269 137.207 114.16 137.642 114.791 137.306L144.529 121.441C145.16 121.104 145.294 120.122 144.829 119.251C144.364 118.38 143.472 117.945 142.841 118.282L113.103 134.147Z" fill="#404DEF"/>
<path d="M116.767 141.004C116.137 141.341 116.002 142.323 116.468 143.194C116.933 144.065 117.824 144.5 118.455 144.163L148.193 128.298C148.824 127.962 148.958 126.979 148.493 126.108C148.028 125.238 147.136 124.803 146.506 125.139L116.767 141.004Z" fill="#404DEF"/>
<path d="M120.431 147.862C119.8 148.198 119.666 149.181 120.131 150.051C120.597 150.922 121.488 151.357 122.119 151.021L151.857 135.156C152.488 134.819 152.622 133.837 152.157 132.966C151.692 132.095 150.8 131.66 150.169 131.997L120.431 147.862Z" fill="#404DEF"/>
<path d="M126.206 86.3962L153.152 88.0404L160.699 65.5525L137.064 60.5625L126.206 86.3962Z" fill="#2F2E41"/>
<path d="M145.64 80.7116C151.592 80.7116 156.417 75.8902 156.417 69.9427C156.417 63.9952 151.592 59.1738 145.64 59.1738C139.688 59.1738 134.863 63.9952 134.863 69.9427C134.863 75.8902 139.688 80.7116 145.64 80.7116Z" fill="#FFB8B8"/>
<path d="M173.314 166.481L173.384 167.319C159.818 171.987 145.304 173.215 131.146 170.893L127.144 170.138L130.952 161.698L133.449 156.165L132.55 137.025L132.455 135.045L132.337 132.518L133.963 132.509L145.526 132.439L156.545 132.369L158.226 132.359C168.762 145.31 177.456 155.835 173.314 166.481Z" fill="#2F2E41"/>
<path d="M158.067 132.201L132.337 135.058L131.384 117.283C128.365 109.588 130.358 102.719 136.625 96.5552L137.899 91.5161C138.233 90.1934 138.924 88.9877 139.896 88.0301C140.869 87.0724 142.085 86.3995 143.413 86.0845C147.625 83.6709 152.396 82.5204 157.749 82.6855C159.887 83.5196 161.699 85.0187 162.919 86.9612C164.139 88.9038 164.701 91.1868 164.523 93.4732C163.416 107.442 161.428 120.519 158.067 132.201Z" fill="#404DEF"/>
<path d="M137.487 57.2189C137.487 57.2189 131.915 59.2509 131.772 66.6386C131.764 67.8817 131.93 69.1199 132.265 70.3171C132.626 71.6749 132.916 74.6208 130.486 78.5479C128.899 81.0969 127.463 83.7375 126.188 86.4559V86.4559L132.462 87.0609L133.5 76.6673C134.003 71.6282 135.245 66.6907 137.188 62.0134L137.228 61.9158C137.228 61.9158 140.107 66.9151 145.578 66.7611L143.569 64.8637C143.569 64.8637 150.421 67.4422 154.147 67.9599C154.573 68.0191 154.974 68.193 155.307 68.4631C155.641 68.7331 155.895 69.089 156.041 69.4924C156.187 69.8958 156.22 70.3314 156.137 70.7523C156.054 71.1731 155.857 71.5634 155.569 71.8809C155.547 71.9048 155.524 71.9288 155.502 71.9529C153.223 74.3618 148.688 79.9606 151.544 84.179C154.401 88.3973 152.089 89.6348 152.089 89.6348L156.322 87.1709L158.243 85.9444L158.287 87.5063L168.414 86.0489C168.414 86.0489 171.138 85.5814 165.089 79.1081C165.089 79.1081 163.469 76.5738 164.083 74.3314C164.592 72.626 164.688 70.8242 164.362 69.0746C162.843 61.7912 157.28 47.3825 137.487 57.2189Z" fill="#2F2E41"/>
<path d="M145.202 216.207C166.605 216.207 183.955 215.213 183.955 213.986C183.955 212.758 166.605 211.764 145.202 211.764C123.799 211.764 106.448 212.758 106.448 213.986C106.448 215.213 123.799 216.207 145.202 216.207Z" fill="#E6E6E6"/>
<path d="M0.235803 102.376C0.154443 102.398 0.0850403 102.451 0.0428268 102.524C0.000613338 102.597 -0.0109648 102.683 0.0106382 102.765L8.67935 135.276C8.70112 135.357 8.75427 135.427 8.82714 135.469C8.90002 135.511 8.98667 135.523 9.06807 135.501L33.6234 128.963C33.7048 128.942 33.7742 128.889 33.8164 128.816C33.8586 128.743 33.8702 128.656 33.8486 128.575L25.1799 96.0637C25.1581 95.9824 25.105 95.9131 25.0321 95.8709C24.9592 95.8287 24.8726 95.8172 24.7912 95.8388L0.235803 102.376Z" fill="#F2F2F2"/>
<path d="M6.26973 107.744C5.93116 107.834 5.75727 108.287 5.88187 108.755C6.00648 109.222 6.38322 109.529 6.72179 109.439L22.6828 105.19C23.0213 105.099 23.1952 104.646 23.0706 104.178C22.946 103.711 22.5693 103.404 22.2307 103.494L6.26973 107.744Z" fill="white"/>
<path d="M7.25117 111.425C6.91261 111.515 6.73872 111.969 6.86332 112.436C6.98792 112.904 7.36467 113.211 7.70323 113.121L23.6642 108.871C24.0028 108.781 24.1767 108.327 24.0521 107.86C23.9275 107.393 23.5507 107.086 23.2121 107.176L7.25117 111.425Z" fill="white"/>
<path d="M8.23262 115.105C7.89405 115.195 7.72016 115.649 7.84476 116.116C7.96937 116.583 8.34611 116.89 8.68468 116.8L24.6457 112.551C24.9842 112.461 25.1581 112.007 25.0335 111.54C24.9089 111.073 24.5322 110.765 24.1936 110.856L8.23262 115.105Z" fill="white"/>
<path d="M9.21382 118.787C8.87526 118.877 8.70136 119.33 8.82597 119.798C8.95057 120.265 9.32732 120.572 9.66588 120.482L25.6269 116.233C25.9654 116.142 26.1393 115.689 26.0147 115.221C25.8901 114.754 25.5134 114.447 25.1748 114.537L9.21382 118.787Z" fill="white"/>
<path d="M10.1953 122.466C9.8567 122.556 9.68281 123.01 9.80741 123.477C9.93202 123.945 10.3088 124.252 10.6473 124.162L26.6083 119.912C26.9469 119.822 27.1208 119.368 26.9962 118.901C26.8716 118.434 26.4948 118.127 26.1562 118.217L10.1953 122.466Z" fill="white"/>
<path d="M11.1767 126.148C10.8381 126.238 10.6643 126.692 10.7889 127.159C10.9135 127.626 11.2902 127.933 11.6288 127.843L27.5898 123.594C27.9283 123.504 28.1022 123.05 27.9776 122.583C27.853 122.115 27.4763 121.808 27.1377 121.899L11.1767 126.148Z" fill="white"/>
<path d="M62.9888 216.928C62.9888 216.969 63.1312 217.002 63.3064 217.002H96.9773C97.1526 217.002 97.295 216.968 97.295 216.928V211.044C97.295 211.004 97.1526 210.971 96.9773 210.971H63.3064C63.1312 210.971 62.9888 211.004 62.9888 211.044V216.928Z" fill="#F2F2F2"/>
<path d="M69.7346 215.897C69.7346 215.978 70.1286 216.044 70.6126 216.044C71.0966 216.044 71.4905 215.978 71.4905 215.897V212.073C71.4905 211.992 71.0966 211.926 70.6126 211.926C70.1286 211.926 69.7346 211.992 69.7346 212.073V215.897Z" fill="white"/>
<path d="M73.5464 215.897C73.5464 215.978 73.9403 216.044 74.4243 216.044C74.9083 216.044 75.3023 215.978 75.3023 215.897V212.073C75.3023 211.992 74.9083 211.926 74.4243 211.926C73.9403 211.926 73.5464 211.992 73.5464 212.073V215.897Z" fill="white"/>
<path d="M77.3582 215.897C77.3582 215.978 77.7521 216.044 78.2361 216.044C78.7201 216.044 79.1141 215.978 79.1141 215.897V212.073C79.1141 211.992 78.7201 211.926 78.2361 211.926C77.7521 211.926 77.3582 211.992 77.3582 212.073V215.897Z" fill="white"/>
<path d="M81.1699 215.897C81.1699 215.978 81.5639 216.044 82.0479 216.044C82.5319 216.044 82.9258 215.978 82.9258 215.897V212.073C82.9258 211.992 82.5319 211.926 82.0479 211.926C81.5639 211.926 81.1699 211.992 81.1699 212.073V215.897Z" fill="white"/>
<path d="M84.9817 215.897C84.9817 215.978 85.3756 216.044 85.8596 216.044C86.3436 216.044 86.7376 215.978 86.7376 215.897V212.073C86.7376 211.992 86.3436 211.926 85.8596 211.926C85.3756 211.926 84.9817 211.992 84.9817 212.073V215.897Z" fill="white"/>
<path d="M88.7935 215.897C88.7935 215.978 89.1874 216.044 89.6714 216.044C90.1554 216.044 90.5494 215.978 90.5494 215.897V212.073C90.5494 211.992 90.1554 211.926 89.6714 211.926C89.1874 211.926 88.7935 211.992 88.7935 212.073V215.897Z" fill="white"/>
<path d="M1.13668 78.9147C1.06243 78.9544 1.00697 79.0219 0.982485 79.1024C0.958 79.183 0.966484 79.2699 1.00608 79.3442L16.8642 109.024C16.904 109.099 16.9716 109.154 17.0521 109.178C17.1327 109.203 17.2197 109.194 17.2941 109.155L39.7112 97.1955C39.7854 97.1558 39.8409 97.0883 39.8653 97.0078C39.8898 96.9272 39.8814 96.8403 39.8418 96.766L23.9836 67.0858C23.9438 67.0116 23.8763 66.9562 23.7957 66.9317C23.7151 66.9072 23.6281 66.9157 23.5538 66.9553L1.13668 78.9147Z" fill="#E6E6E6"/>
<path d="M3.22021 79.782L17.7321 106.942L37.6272 96.3282L23.1154 69.168L3.22021 79.782ZM1.95954 80.4545L1.96233 80.4531L1.95923 80.4546L1.95954 80.4545Z" fill="white"/>
<path d="M8.23656 82.7669C7.92749 82.9318 7.86168 83.4132 8.08963 83.8398C8.31757 84.2664 8.75447 84.4796 9.06354 84.3147L23.6347 76.5411C23.9437 76.3762 24.0095 75.8948 23.7816 75.4682C23.5536 75.0416 23.1167 74.8284 22.8077 74.9933L8.23656 82.7669Z" fill="#404DEF"/>
<path d="M10.032 86.1282C9.7229 86.2931 9.65709 86.7745 9.88504 87.2011C10.113 87.6277 10.5499 87.8409 10.8589 87.676L25.4301 79.9024C25.7391 79.7375 25.8049 79.2561 25.577 78.8295C25.349 78.4029 24.9121 78.1897 24.6031 78.3546L10.032 86.1282Z" fill="#404DEF"/>
<path d="M11.8271 89.4876C11.5181 89.6525 11.4523 90.1339 11.6802 90.5605C11.9082 90.9871 12.345 91.2003 12.6541 91.0354L27.2252 83.2618C27.5343 83.0969 27.6001 82.6155 27.3722 82.1889C27.1442 81.7623 26.7073 81.5491 26.3983 81.714L11.8271 89.4876Z" fill="#404DEF"/>
<path d="M13.6223 92.847C13.3132 93.0119 13.2474 93.4932 13.4754 93.9199C13.7033 94.3465 14.1402 94.5597 14.4493 94.3948L29.0204 86.6211C29.3295 86.4562 29.3953 85.9749 29.1673 85.5483C28.9394 85.1216 28.5025 84.9085 28.1934 85.0734L13.6223 92.847Z" fill="#404DEF"/>
<path d="M15.4177 96.2063C15.1086 96.3712 15.0428 96.8526 15.2708 97.2792C15.4987 97.7059 15.9356 97.919 16.2447 97.7541L30.8158 89.9805C31.1249 89.8156 31.1907 89.3343 30.9627 88.9076C30.7348 88.481 30.2979 88.2678 29.9888 88.4327L15.4177 96.2063Z" fill="#404DEF"/>
<path d="M17.2129 99.5677C16.9038 99.7326 16.838 100.214 17.0659 100.641C17.2939 101.067 17.7308 101.28 18.0399 101.115L32.611 93.3418C32.9201 93.1769 32.9859 92.6956 32.7579 92.269C32.53 91.8423 32.0931 91.6292 31.784 91.7941L17.2129 99.5677Z" fill="#404DEF"/>
<path d="M218.966 154.761C218.894 154.718 218.807 154.706 218.726 154.727C218.644 154.748 218.574 154.8 218.531 154.873L201.401 183.838C201.358 183.911 201.346 183.997 201.367 184.079C201.388 184.16 201.441 184.23 201.513 184.273L223.391 197.192C223.463 197.235 223.55 197.247 223.631 197.226C223.713 197.205 223.783 197.153 223.826 197.08L240.956 168.114C240.999 168.042 241.011 167.955 240.99 167.874C240.969 167.792 240.916 167.722 240.844 167.679L218.966 154.761Z" fill="#E6E6E6"/>
<path d="M219.308 156.992L203.633 183.499L223.049 194.964L238.725 168.458L219.308 156.992ZM218.078 156.266L218.081 156.267L218.078 156.266L218.078 156.266Z" fill="white"/>
<path d="M219.363 162.826C219.062 162.648 218.616 162.842 218.37 163.258C218.123 163.675 218.168 164.158 218.47 164.336L232.69 172.734C232.992 172.912 233.438 172.718 233.684 172.301C233.93 171.885 233.885 171.401 233.584 171.223L219.363 162.826Z" fill="#404DEF"/>
<path d="M217.424 166.105C217.122 165.927 216.677 166.121 216.43 166.538C216.184 166.954 216.229 167.438 216.531 167.616L230.751 176.013C231.053 176.191 231.498 175.997 231.745 175.581C231.991 175.164 231.946 174.68 231.644 174.502L217.424 166.105Z" fill="#404DEF"/>
<path d="M215.485 169.383C215.183 169.204 214.737 169.399 214.491 169.815C214.245 170.231 214.29 170.715 214.591 170.893L228.812 179.29C229.113 179.468 229.559 179.274 229.805 178.858C230.051 178.442 230.007 177.958 229.705 177.78L215.485 169.383Z" fill="#404DEF"/>
<path d="M213.545 172.662C213.244 172.484 212.798 172.678 212.552 173.094C212.305 173.511 212.35 173.994 212.652 174.172L226.872 182.569C227.174 182.748 227.62 182.554 227.866 182.137C228.112 181.721 228.067 181.237 227.766 181.059L213.545 172.662Z" fill="#404DEF"/>
<path d="M211.606 175.943C211.304 175.765 210.859 175.959 210.613 176.375C210.366 176.792 210.411 177.276 210.713 177.454L224.933 185.851C225.235 186.029 225.681 185.835 225.927 185.418C226.173 185.002 226.128 184.518 225.827 184.34L211.606 175.943Z" fill="#404DEF"/>
<path d="M209.667 179.22C209.365 179.042 208.92 179.236 208.673 179.653C208.427 180.069 208.472 180.553 208.774 180.731L222.994 189.128C223.296 189.306 223.741 189.112 223.988 188.696C224.234 188.279 224.189 187.796 223.887 187.618L209.667 179.22Z" fill="#404DEF"/>
<path d="M139.961 102.047L139.63 104.091L136.149 125.535L133.963 132.509L133.195 134.962L132.55 137.025L124.713 162.037L122.563 167.085C121.384 167.521 120.37 168.315 119.664 169.355C118.957 170.395 118.594 171.629 118.625 172.886C118.655 174.142 119.078 175.358 119.834 176.363C120.589 177.367 121.64 178.111 122.84 178.489C124.039 178.868 125.327 178.862 126.523 178.473C127.719 178.084 128.764 177.332 129.511 176.32C130.258 175.309 130.67 174.09 130.689 172.833C130.709 171.576 130.335 170.345 129.619 169.311L144.957 133.658L145.526 132.439L147.267 128.709L150.554 103.923L150.761 102.364L139.961 102.047Z" fill="#FFB8B8"/>
<path d="M152.667 104.587C147.674 102.794 142.886 102.604 138.372 104.587L139.845 91.8283C139.791 90.2351 140.365 88.6843 141.443 87.5094C142.522 86.3345 144.018 85.6293 145.611 85.5455C147.224 85.4607 148.805 86.0196 150.005 87.0992C151.206 88.1788 151.928 89.6907 152.013 91.3023L152.014 91.3232L152.667 104.587Z" fill="#404DEF"/>
</g>
<defs>
<clipPath id="clip0">
<rect width="241" height="217" fill="white"/>
</clipPath>
</defs>
</svg>
