<svg width="225" height="202" viewBox="0 0 225 202" fill="none" xmlns="http://www.w3.org/2000/svg">
<g clip-path="url(#clip0)">
<path d="M215.298 80.0723C215.298 115.115 192.772 144.898 161.399 155.754C148.771 160.099 135.26 161.242 122.081 159.081C120.83 158.877 119.588 158.643 118.355 158.378C116.684 158.023 115.033 157.615 113.402 157.154C79.7198 147.682 55.0325 116.758 55.0325 80.0723C55.0325 35.8493 90.9088 0 135.165 0C179.421 0 215.298 35.8493 215.298 80.0723Z" fill="#E6E6E6"/>
<path d="M84.9751 104.787C84.834 104.862 84.7286 104.991 84.6821 105.144C84.6356 105.297 84.6517 105.462 84.7269 105.603L114.855 161.99C114.93 162.131 115.059 162.236 115.212 162.283C115.365 162.329 115.53 162.313 115.671 162.238L158.26 139.517C158.401 139.442 158.506 139.314 158.553 139.161C158.599 139.008 158.583 138.842 158.508 138.701L128.38 82.3141C128.305 82.1731 128.176 82.0678 128.023 82.0213C127.87 81.9748 127.705 81.9909 127.564 82.0661L84.9751 104.787Z" fill="#3F3D56"/>
<path d="M88.9337 106.434L116.504 158.033L154.301 137.869L126.731 86.2693L88.9337 106.434ZM86.5387 107.712L86.544 107.709L86.5381 107.712L86.5387 107.712Z" fill="white"/>
<path d="M98.4638 112.106C97.8766 112.419 97.7516 113.334 98.1847 114.144C98.6178 114.955 99.4478 115.36 100.035 115.047L127.718 100.278C128.305 99.9649 128.43 99.0504 127.997 98.2399C127.564 97.4294 126.734 97.0244 126.146 97.3377L98.4638 112.106Z" fill="#404DEF"/>
<path d="M101.874 118.491C101.287 118.804 101.162 119.719 101.595 120.529C102.028 121.34 102.858 121.745 103.446 121.431L131.128 106.663C131.715 106.35 131.84 105.435 131.407 104.625C130.974 103.814 130.144 103.409 129.557 103.722L101.874 118.491Z" fill="#404DEF"/>
<path d="M105.285 124.874C104.698 125.187 104.573 126.102 105.006 126.912C105.439 127.723 106.269 128.128 106.856 127.814L134.539 113.046C135.126 112.733 135.251 111.818 134.818 111.008C134.385 110.197 133.555 109.792 132.968 110.105L105.285 124.874Z" fill="#404DEF"/>
<path d="M108.696 131.257C108.109 131.57 107.984 132.485 108.417 133.295C108.85 134.106 109.68 134.511 110.267 134.198L137.949 119.429C138.537 119.116 138.662 118.201 138.229 117.391C137.796 116.58 136.966 116.175 136.378 116.489L108.696 131.257Z" fill="#404DEF"/>
<path d="M112.106 137.64C111.519 137.953 111.394 138.868 111.827 139.678C112.26 140.489 113.09 140.894 113.678 140.581L141.36 125.812C141.947 125.499 142.072 124.584 141.639 123.774C141.206 122.963 140.376 122.558 139.789 122.872L112.106 137.64Z" fill="#404DEF"/>
<path d="M117.482 80.4243L142.566 81.9549L149.591 61.0214L127.59 56.3763L117.482 80.4243Z" fill="#2F2E41"/>
<path d="M135.573 75.1321C141.113 75.1321 145.605 70.644 145.605 65.1077C145.605 59.5713 141.113 55.0832 135.573 55.0832C130.032 55.0832 125.541 59.5713 125.541 65.1077C125.541 70.644 130.032 75.1321 135.573 75.1321Z" fill="#FFB8B8"/>
<path d="M161.334 154.974L161.399 155.754C148.77 160.099 135.26 161.242 122.08 159.081L118.355 158.378L121.9 150.521L124.224 145.371L123.387 127.554L123.299 125.71L123.189 123.358L124.703 123.35L135.466 123.285L145.724 123.22L147.288 123.211C157.096 135.266 165.19 145.064 161.334 154.974Z" fill="#2F2E41"/>
<path d="M147.14 123.064L123.189 125.723L122.302 109.177C119.491 102.013 121.347 95.6192 127.181 89.8814L128.366 85.1906C128.678 83.9594 129.321 82.837 130.226 81.9455C131.131 81.0541 132.264 80.4277 133.5 80.1345C137.421 77.8877 141.862 76.8168 146.845 76.9704C148.835 77.7469 150.522 79.1423 151.658 80.9506C152.793 82.7589 153.316 84.8841 153.15 87.0124C152.12 100.016 150.27 112.188 147.14 123.064Z" fill="#404DEF"/>
<path d="M127.983 53.2636C127.983 53.2636 122.796 55.1551 122.663 62.0321C122.656 63.1893 122.81 64.3419 123.122 65.4564C123.459 66.7203 123.728 69.4626 121.466 73.1182C119.989 75.491 118.652 77.9491 117.465 80.4796L123.306 81.0427L124.271 71.3676C124.74 66.6769 125.897 62.0806 127.705 57.7266L127.743 57.6358C127.743 57.6358 130.422 62.2895 135.515 62.1462L133.645 60.3799C133.645 60.3799 140.024 62.7802 143.492 63.2621C143.888 63.3172 144.261 63.4791 144.572 63.7305C144.882 63.9819 145.118 64.3132 145.254 64.6887C145.391 65.0642 145.422 65.4696 145.344 65.8614C145.267 66.2532 145.084 66.6165 144.815 66.9121C144.795 66.9343 144.774 66.9567 144.753 66.9791C142.631 69.2215 138.41 74.4333 141.069 78.36C143.728 82.2868 141.576 83.4387 141.576 83.4387L145.516 81.1451L147.304 80.0034L147.345 81.4574L156.772 80.1007C156.772 80.1007 159.308 79.6655 153.678 73.6397C153.678 73.6397 152.169 71.2806 152.741 69.1932C153.215 67.6057 153.304 65.9284 153.001 64.2997C151.586 57.5198 146.408 44.1071 127.983 53.2636Z" fill="#2F2E41"/>
<path d="M135.165 201.262C155.088 201.262 171.239 200.336 171.239 199.193C171.239 198.051 155.088 197.125 135.165 197.125C115.241 197.125 99.0903 198.051 99.0903 199.193C99.0903 200.336 115.241 201.262 135.165 201.262Z" fill="#E6E6E6"/>
<path d="M0.219626 95.2986C0.143889 95.3189 0.079284 95.3683 0.0399885 95.4361C0.000693012 95.5039 -0.0100848 95.5845 0.0100249 95.6602L8.07952 125.924C8.09978 126 8.14926 126.064 8.21709 126.104C8.28493 126.143 8.36559 126.154 8.44137 126.134L31.2994 120.048C31.3751 120.028 31.4397 119.978 31.479 119.911C31.5183 119.843 31.5291 119.762 31.509 119.686L23.4395 89.4225C23.4192 89.3468 23.3697 89.2822 23.3019 89.243C23.2341 89.2037 23.1534 89.1929 23.0776 89.213L0.219626 95.2986Z" fill="#F2F2F2"/>
<path d="M5.83644 100.297C5.52128 100.381 5.35941 100.803 5.4754 101.238C5.59139 101.673 5.94209 101.959 6.25726 101.875L21.115 97.9193C21.4301 97.8354 21.592 97.4131 21.476 96.9781C21.36 96.5431 21.0093 96.2572 20.6941 96.3411L5.83644 100.297Z" fill="white"/>
<path d="M6.74977 103.723C6.43461 103.807 6.27274 104.23 6.38873 104.665C6.50472 105.1 6.85543 105.385 7.17059 105.302L22.0283 101.346C22.3434 101.262 22.5053 100.84 22.3893 100.405C22.2733 99.9696 21.9226 99.6838 21.6075 99.7677L6.74977 103.723Z" fill="white"/>
<path d="M7.66335 107.149C7.34819 107.233 7.18632 107.655 7.3023 108.09C7.41829 108.525 7.769 108.811 8.08416 108.727L22.9419 104.771C23.257 104.688 23.4189 104.265 23.3029 103.83C23.1869 103.395 22.8362 103.109 22.5211 103.193L7.66335 107.149Z" fill="white"/>
<path d="M8.57704 110.575C8.26188 110.659 8.10001 111.082 8.216 111.517C8.33199 111.952 8.6827 112.238 8.99786 112.154L23.8555 108.198C24.1707 108.114 24.3326 107.692 24.2166 107.257C24.1006 106.822 23.7499 106.536 23.4347 106.62L8.57704 110.575Z" fill="white"/>
<path d="M9.49062 114.001C9.17545 114.085 9.01359 114.507 9.12958 114.942C9.24557 115.377 9.59627 115.663 9.91143 115.579L24.7691 111.624C25.0843 111.54 25.2462 111.117 25.1302 110.682C25.0142 110.247 24.6635 109.961 24.3483 110.045L9.49062 114.001Z" fill="white"/>
<path d="M10.4039 117.428C10.0888 117.512 9.92692 117.934 10.0429 118.369C10.1589 118.804 10.5096 119.09 10.8248 119.006L25.6825 115.05C25.9976 114.966 26.1595 114.544 26.0435 114.109C25.9275 113.674 25.5768 113.388 25.2616 113.472L10.4039 117.428Z" fill="white"/>
<path d="M58.6348 201.932C58.6348 201.97 58.7673 202.001 58.9305 202.001H90.2739C90.437 202.001 90.5696 201.97 90.5696 201.932V196.455C90.5696 196.417 90.437 196.387 90.2739 196.387H58.9305C58.7673 196.387 58.6348 196.417 58.6348 196.455V201.932Z" fill="#F2F2F2"/>
<path d="M64.9143 200.974C64.9143 201.049 65.281 201.111 65.7316 201.111C66.1821 201.111 66.5488 201.049 66.5488 200.974V197.414C66.5488 197.338 66.1821 197.277 65.7316 197.277C65.281 197.277 64.9143 197.338 64.9143 197.414V200.974Z" fill="white"/>
<path d="M68.4624 200.974C68.4624 201.049 68.8291 201.111 69.2797 201.111C69.7302 201.111 70.0969 201.049 70.0969 200.974V197.414C70.0969 197.338 69.7302 197.277 69.2797 197.277C68.8291 197.277 68.4624 197.338 68.4624 197.414V200.974Z" fill="white"/>
<path d="M72.0107 200.974C72.0107 201.049 72.3775 201.111 72.828 201.111C73.2785 201.111 73.6453 201.049 73.6453 200.974V197.414C73.6453 197.338 73.2785 197.277 72.828 197.277C72.3775 197.277 72.0107 197.338 72.0107 197.414V200.974Z" fill="white"/>
<path d="M75.5591 200.974C75.5591 201.049 75.9258 201.111 76.3763 201.111C76.8269 201.111 77.1936 201.049 77.1936 200.974V197.414C77.1936 197.338 76.8269 197.277 76.3763 197.277C75.9258 197.277 75.5591 197.338 75.5591 197.414V200.974Z" fill="white"/>
<path d="M79.1074 200.974C79.1074 201.049 79.4741 201.111 79.9247 201.111C80.3752 201.111 80.7419 201.049 80.7419 200.974V197.414C80.7419 197.338 80.3752 197.277 79.9247 197.277C79.4741 197.277 79.1074 197.338 79.1074 197.414V200.974Z" fill="white"/>
<path d="M82.6558 200.974C82.6558 201.049 83.0225 201.111 83.473 201.111C83.9235 201.111 84.2903 201.049 84.2903 200.974V197.414C84.2903 197.338 83.9235 197.277 83.473 197.277C83.0225 197.277 82.6558 197.338 82.6558 197.414V200.974Z" fill="white"/>
<path d="M1.05806 73.4593C0.988935 73.4963 0.937312 73.5591 0.914519 73.6341C0.891726 73.709 0.899624 73.79 0.936479 73.8591L15.6985 101.488C15.7355 101.557 15.7984 101.608 15.8734 101.631C15.9484 101.654 16.0294 101.646 16.0986 101.609L36.9661 90.4765C37.0352 90.4395 37.0868 90.3767 37.1096 90.3017C37.1324 90.2268 37.1245 90.1458 37.0877 90.0767L22.3257 62.4481C22.2887 62.379 22.2258 62.3274 22.1508 62.3046C22.0758 62.2819 21.9948 62.2898 21.9256 62.3266L1.05806 73.4593Z" fill="#E6E6E6"/>
<path d="M2.99767 74.2663L16.5064 99.5489L35.0263 89.6688L21.5176 64.386L2.99767 74.2663ZM1.82414 74.8923L1.82674 74.891L1.82385 74.8925L1.82414 74.8923Z" fill="white"/>
<path d="M7.66734 77.0464C7.37963 77.1999 7.31837 77.648 7.53056 78.0451C7.74275 78.4422 8.14944 78.6407 8.43715 78.4872L22.001 71.2509C22.2888 71.0974 22.35 70.6493 22.1378 70.2522C21.9256 69.855 21.5189 69.6566 21.2312 69.8101L7.66734 77.0464Z" fill="#404DEF"/>
<path d="M9.33848 80.1739C9.05077 80.3274 8.98951 80.7755 9.2017 81.1726C9.41389 81.5697 9.82058 81.7682 10.1083 81.6147L23.6722 74.3784C23.9599 74.2249 24.0211 73.7768 23.809 73.3797C23.5968 72.9825 23.1901 72.7841 22.9024 72.9376L9.33848 80.1739Z" fill="#404DEF"/>
<path d="M11.0097 83.3015C10.722 83.455 10.6608 83.903 10.873 84.3002C11.0852 84.6973 11.4919 84.8957 11.7796 84.7422L25.3435 77.506C25.6312 77.3525 25.6924 76.9044 25.4802 76.5072C25.268 76.1101 24.8614 75.9117 24.5736 76.0652L11.0097 83.3015Z" fill="#404DEF"/>
<path d="M12.6808 86.4294C12.3931 86.5829 12.3318 87.031 12.544 87.4281C12.7562 87.8252 13.1629 88.0237 13.4506 87.8702L27.0145 80.6339C27.3022 80.4804 27.3634 80.0323 27.1512 79.6352C26.939 79.238 26.5324 79.0396 26.2446 79.1931L12.6808 86.4294Z" fill="#404DEF"/>
<path d="M14.3519 89.5569C14.0642 89.7104 14.0029 90.1585 14.2151 90.5556C14.4273 90.9528 14.834 91.1512 15.1217 90.9977L28.6856 83.7615C28.9733 83.608 29.0346 83.1599 28.8224 82.7627C28.6102 82.3656 28.2035 82.1672 27.9158 82.3207L14.3519 89.5569Z" fill="#404DEF"/>
<path d="M16.0232 92.6844C15.7355 92.8379 15.6742 93.286 15.8864 93.6831C16.0986 94.0803 16.5053 94.2787 16.793 94.1252L30.3569 86.889C30.6446 86.7355 30.7059 86.2874 30.4937 85.8902C30.2815 85.4931 29.8748 85.2947 29.5871 85.4482L16.0232 92.6844Z" fill="#404DEF"/>
<path d="M203.831 144.063C203.763 144.023 203.683 144.012 203.607 144.031C203.531 144.051 203.466 144.1 203.426 144.167L187.48 171.131C187.44 171.198 187.429 171.279 187.448 171.355C187.468 171.43 187.516 171.495 187.584 171.535L207.949 183.561C208.017 183.601 208.097 183.612 208.173 183.593C208.249 183.573 208.314 183.524 208.354 183.457L224.3 156.493C224.34 156.426 224.351 156.345 224.332 156.269C224.312 156.194 224.263 156.129 224.196 156.089L203.831 144.063Z" fill="#E6E6E6"/>
<path d="M204.149 146.14L189.557 170.814L207.631 181.487L222.223 156.812L204.149 146.14ZM203.003 145.463L203.006 145.465L203.003 145.463L203.003 145.463Z" fill="white"/>
<path d="M204.2 151.571C203.919 151.405 203.504 151.586 203.275 151.973C203.046 152.361 203.087 152.811 203.368 152.977L216.606 160.794C216.886 160.959 217.301 160.779 217.531 160.391C217.76 160.004 217.718 159.553 217.437 159.388L204.2 151.571Z" fill="#404DEF"/>
<path d="M202.395 154.623C202.114 154.457 201.699 154.638 201.47 155.025C201.24 155.413 201.282 155.863 201.563 156.029L214.8 163.846C215.081 164.011 215.496 163.831 215.725 163.443C215.955 163.056 215.913 162.605 215.632 162.439L202.395 154.623Z" fill="#404DEF"/>
<path d="M200.589 157.675C200.309 157.509 199.894 157.69 199.665 158.077C199.435 158.465 199.477 158.915 199.758 159.081L212.995 166.898C213.276 167.064 213.691 166.883 213.92 166.495C214.149 166.108 214.108 165.657 213.827 165.492L200.589 157.675Z" fill="#404DEF"/>
<path d="M198.784 160.727C198.503 160.561 198.088 160.742 197.859 161.129C197.63 161.517 197.672 161.967 197.952 162.133L211.19 169.95C211.471 170.115 211.886 169.935 212.115 169.547C212.344 169.16 212.302 168.709 212.021 168.543L198.784 160.727Z" fill="#404DEF"/>
<path d="M196.979 163.781C196.698 163.615 196.283 163.796 196.054 164.183C195.825 164.571 195.867 165.021 196.148 165.187L209.385 173.004C209.666 173.169 210.081 172.989 210.31 172.601C210.539 172.213 210.497 171.763 210.217 171.597L196.979 163.781Z" fill="#404DEF"/>
<path d="M195.174 166.833C194.893 166.667 194.478 166.847 194.249 167.235C194.02 167.623 194.061 168.073 194.342 168.239L207.579 176.055C207.86 176.221 208.275 176.041 208.504 175.653C208.734 175.265 208.692 174.815 208.411 174.649L195.174 166.833Z" fill="#404DEF"/>
<path d="M130.286 94.9933L129.979 96.8961L126.738 116.858L124.703 123.35L123.988 125.633L123.388 127.554L116.093 150.837L114.091 155.536C112.993 155.942 112.049 156.68 111.392 157.648C110.735 158.617 110.396 159.766 110.425 160.936C110.453 162.105 110.847 163.237 111.55 164.172C112.254 165.107 113.232 165.799 114.349 166.152C115.465 166.504 116.664 166.499 117.778 166.137C118.891 165.775 119.863 165.074 120.559 164.133C121.254 163.191 121.638 162.056 121.656 160.886C121.674 159.717 121.326 158.57 120.66 157.608L134.937 124.419L135.467 123.285L137.087 119.813L140.147 96.7395L140.34 95.2888L130.286 94.9933Z" fill="#FFB8B8"/>
<path d="M142.114 97.3575C137.467 95.6888 133.009 95.5114 128.808 97.3575L130.179 85.481C130.129 83.9979 130.663 82.5543 131.666 81.4606C132.67 80.3669 134.063 79.7105 135.546 79.6325C137.048 79.5536 138.519 80.0738 139.636 81.0788C140.754 82.0838 141.426 83.4912 141.505 84.9914L141.506 85.0109L142.114 97.3575Z" fill="#404DEF"/>
</g>
<defs>
<clipPath id="clip0">
<rect width="224.341" height="202" fill="white"/>
</clipPath>
</defs>
</svg>
