<svg width="212" height="202" viewBox="0 0 212 202" fill="none" xmlns="http://www.w3.org/2000/svg">
<g clip-path="url(#clip0)">
<g opacity="0.5">
<path opacity="0.5" d="M31.9247 63.5509C49.2286 63.5509 63.2561 49.6953 63.2561 32.6036C63.2561 15.5118 49.2286 1.65625 31.9247 1.65625C14.6208 1.65625 0.593262 15.5118 0.593262 32.6036C0.593262 49.6953 14.6208 63.5509 31.9247 63.5509Z" fill="url(#paint0_linear)"/>
</g>
<path d="M31.924 62.7287C48.862 62.7287 62.593 49.166 62.593 32.4356C62.593 15.7052 48.862 2.14258 31.924 2.14258C14.9859 2.14258 1.25488 15.7052 1.25488 32.4356C1.25488 49.166 14.9859 62.7287 31.924 62.7287Z" fill="#F5F5F5"/>
<path d="M32.0106 62.8128C38.0038 62.8226 43.8672 61.0896 48.8699 57.8299C47.7398 51.7307 43.4385 51.3809 43.4385 51.3809H19.7257C19.7257 51.3809 15.6703 51.7093 14.3997 57.3225C19.5553 60.9045 25.7072 62.8224 32.0106 62.8128V62.8128Z" fill="#404DEF"/>
<path d="M31.6887 45.1968C39.1976 45.1968 45.2848 39.1842 45.2848 31.7674C45.2848 24.3505 39.1976 18.3379 31.6887 18.3379C24.1797 18.3379 18.0925 24.3505 18.0925 31.7674C18.0925 39.1842 24.1797 45.1968 31.6887 45.1968Z" fill="#333333"/>
<path opacity="0.1" d="M26.9116 43.9473H36.3984V51.4431C36.3984 52.6853 35.8988 53.8767 35.0095 54.7551C34.1202 55.6335 32.914 56.127 31.6564 56.127C30.3987 56.127 29.1925 55.6335 28.3032 54.7551C27.4139 53.8767 26.9143 52.6853 26.9143 51.4431V43.9473H26.9116Z" fill="black"/>
<path d="M27.8173 43.5996H35.4927C35.7329 43.5996 35.9632 43.6939 36.1331 43.8616C36.3029 44.0294 36.3984 44.2569 36.3984 44.4942V51.0954C36.3984 52.3377 35.8988 53.529 35.0094 54.4074C34.1201 55.2858 32.914 55.7793 31.6563 55.7793C30.3987 55.7793 29.1925 55.2858 28.3032 54.4074C27.4139 53.529 26.9143 52.3377 26.9143 51.0954V44.4942C26.9143 44.2574 27.0094 44.0303 27.1786 43.8626C27.3479 43.6949 27.5776 43.6003 27.8173 43.5996Z" fill="#BE7C5E"/>
<path opacity="0.1" d="M26.9307 47.4856C29.988 48.6143 33.3536 48.6237 36.4174 47.5123V46.3613H26.9307V47.4856Z" fill="black"/>
<path d="M31.6887 48.1128C39.1976 48.1128 45.2848 42.1003 45.2848 34.6834C45.2848 27.2665 39.1976 21.2539 31.6887 21.2539C24.1797 21.2539 18.0925 27.2665 18.0925 34.6834C18.0925 42.1003 24.1797 48.1128 31.6887 48.1128Z" fill="#BE7C5E"/>
<path d="M23.451 29.1456C23.6105 28.5662 23.8106 27.9279 24.3378 27.6262C24.7541 27.3858 25.2705 27.4232 25.7517 27.4473C29.5097 27.6502 33.2352 26.8037 36.8904 25.9198C38.9802 25.4151 41.216 24.8009 42.5678 23.1372C43.9196 21.4736 42.1569 16.2449 40.0995 15.6281C38.7477 15.2195 37.1797 15.9806 35.8982 15.3824C35.3277 15.1153 34.9087 14.616 34.4166 14.2261C33.4082 13.425 32.1132 13.1019 30.8587 12.7974C29.3934 12.4396 27.8091 12.0898 26.4168 12.6639C25.3354 13.1072 24.546 14.0445 23.5213 14.6C21.5721 15.6681 19.1956 15.1714 16.9625 15.1661C16.2082 15.1661 15.3079 15.3156 15.0078 15.9992C14.8051 16.4639 14.9673 16.9926 14.9889 17.4973C15.0538 19.0996 13.7155 20.3467 12.5936 21.503C11.4716 22.6592 10.4118 24.3095 11.1201 25.7462C11.3905 26.2937 11.8852 26.7076 12.1664 27.2497C12.6503 28.1896 12.407 29.3246 12.5828 30.3633C12.7587 31.1516 13.0569 31.9082 13.4668 32.6065C14.2995 34.2087 18.4819 42.8341 20.4041 40.6417C21.3341 39.5736 21.4855 36.4866 21.8613 35.098C22.3804 33.1023 22.9103 31.1182 23.451 29.1456Z" fill="#333333"/>
<path d="M22.0155 36.5374C22.7143 36.5374 23.2808 35.4889 23.2808 34.1955C23.2808 32.902 22.7143 31.8535 22.0155 31.8535C21.3167 31.8535 20.7502 32.902 20.7502 34.1955C20.7502 35.4889 21.3167 36.5374 22.0155 36.5374Z" fill="#BE7C5E"/>
<g opacity="0.5">
<path opacity="0.5" d="M104.476 130.906C121.78 130.906 135.808 117.051 135.808 99.959C135.808 82.8673 121.78 69.0117 104.476 69.0117C87.1726 69.0117 73.145 82.8673 73.145 99.959C73.145 117.051 87.1726 130.906 104.476 130.906Z" fill="url(#paint1_linear)"/>
</g>
<path d="M104.536 130.053C121.474 130.053 135.205 116.49 135.205 99.7598C135.205 83.0295 121.474 69.4668 104.536 69.4668C87.598 69.4668 73.8669 83.0295 73.8669 99.7598C73.8669 116.49 87.598 130.053 104.536 130.053Z" fill="#F5F5F5"/>
<path d="M104.563 130.174C110.553 130.182 116.412 128.449 121.412 125.191C120.282 119.092 115.98 118.742 115.98 118.742H92.2754C92.2754 118.742 88.2201 119.071 86.9495 124.684C92.1059 128.266 98.2588 130.184 104.563 130.174V130.174Z" fill="#404DEF"/>
<path d="M104.238 113.746C112.415 113.746 119.043 107.199 119.043 99.1231C119.043 91.047 112.415 84.5 104.238 84.5C96.0621 84.5 89.4338 91.047 89.4338 99.1231C89.4338 107.199 96.0621 113.746 104.238 113.746Z" fill="#F55F44"/>
<path opacity="0.1" d="M99.4614 111.303H108.948V118.799C108.948 120.041 108.449 121.232 107.559 122.111C106.67 122.989 105.464 123.482 104.206 123.482C102.948 123.482 101.742 122.989 100.853 122.111C99.9637 121.232 99.4641 120.041 99.4641 118.799V111.303H99.4614Z" fill="black"/>
<path d="M100.367 110.955H108.042C108.161 110.955 108.279 110.978 108.389 111.023C108.499 111.068 108.599 111.134 108.683 111.217C108.767 111.3 108.834 111.399 108.879 111.507C108.925 111.616 108.948 111.732 108.948 111.85V118.451C108.948 119.066 108.825 119.675 108.587 120.243C108.349 120.812 108 121.328 107.559 121.763C107.119 122.198 106.596 122.543 106.021 122.778C105.445 123.014 104.829 123.135 104.206 123.135V123.135C103.583 123.135 102.967 123.014 102.391 122.778C101.816 122.543 101.293 122.198 100.853 121.763C100.413 121.328 100.063 120.812 99.8251 120.243C99.5868 119.675 99.4641 119.066 99.4641 118.451V111.85C99.4641 111.612 99.5595 111.385 99.7294 111.217C99.8992 111.049 100.13 110.955 100.37 110.955H100.367Z" fill="#FDA57D"/>
<path opacity="0.1" d="M99.4802 114.841C102.538 115.97 105.903 115.979 108.967 114.868V113.717H99.4802V114.841Z" fill="black"/>
<path d="M104.239 115.468C111.748 115.468 117.835 109.456 117.835 102.039C117.835 94.6219 111.748 88.6094 104.239 88.6094C96.7298 88.6094 90.6426 94.6219 90.6426 102.039C90.6426 109.456 96.7298 115.468 104.239 115.468Z" fill="#FDA57D"/>
<path d="M104.22 89.6535C107.242 89.6535 109.692 87.2337 109.692 84.2486C109.692 81.2636 107.242 78.8438 104.22 78.8438C101.197 78.8438 98.7476 81.2636 98.7476 84.2486C98.7476 87.2337 101.197 89.6535 104.22 89.6535Z" fill="#F55F44"/>
<path d="M104.219 82.4749C106.204 82.4749 107.813 80.886 107.813 78.9259C107.813 76.9659 106.204 75.377 104.219 75.377C102.235 75.377 100.626 76.9659 100.626 78.9259C100.626 80.886 102.235 82.4749 104.219 82.4749Z" fill="#F55F44"/>
<path d="M101.846 87.2118C100.562 86.643 99.5493 85.6076 99.0182 84.3206C98.487 83.0336 98.4782 81.594 98.9935 80.3008C98.9557 80.3756 98.9178 80.453 98.8827 80.5304C98.5885 81.1781 98.4264 81.8767 98.4056 82.5863C98.3848 83.2959 98.5057 84.0026 98.7614 84.6661C99.0171 85.3295 99.4026 85.9367 99.8958 86.453C100.389 86.9693 100.98 87.3846 101.636 87.6751C102.292 87.9656 102.999 88.1258 103.718 88.1463C104.436 88.1669 105.152 88.0475 105.823 87.7949C106.495 87.5423 107.11 87.1616 107.632 86.6744C108.155 86.1871 108.575 85.603 108.87 84.9553C108.905 84.8779 108.937 84.8004 108.97 84.7203C108.334 85.9608 107.24 86.9118 105.913 87.3758C104.586 87.8398 103.13 87.7811 101.846 87.2118Z" fill="#F55F44"/>
<path opacity="0.1" d="M94.5571 89.8243C94.5571 89.8243 100.286 101.307 116.456 94.631L112.693 88.8015L106.023 86.4355L94.5571 89.8243Z" fill="black"/>
<path d="M94.5571 89.6544C94.5571 89.6544 100.286 101.137 116.456 94.4611L112.693 88.6316L106.023 86.2656L94.5571 89.6544Z" fill="#F55F44"/>
<path d="M98.9722 85.471C102.498 85.1972 106.039 85.1972 109.565 85.471C109.565 85.471 101.741 86.1894 98.9722 85.471Z" fill="#333333"/>
<path d="M105.042 75.1606C104.77 75.1507 104.498 75.1714 104.23 75.222H104.439C105.324 75.25 106.167 75.5999 106.806 76.2045C107.446 76.8092 107.837 77.6259 107.904 78.4979C107.971 79.3699 107.709 80.2355 107.17 80.9287C106.63 81.6218 105.85 82.0935 104.979 82.2532C105.932 82.2617 106.848 81.8962 107.528 81.2371C108.207 80.5781 108.594 79.6795 108.602 78.7389C108.611 77.7984 108.241 76.893 107.573 76.2219C106.906 75.5509 105.996 75.1691 105.044 75.1606H105.042Z" fill="#F55F44"/>
<path d="M90.6398 104.367C91.3386 104.367 91.905 103.319 91.905 102.026C91.905 100.732 91.3386 99.6836 90.6398 99.6836C89.941 99.6836 89.3745 100.732 89.3745 102.026C89.3745 103.319 89.941 104.367 90.6398 104.367Z" fill="#FDA57D"/>
<path d="M117.835 104.367C118.533 104.367 119.1 103.319 119.1 102.026C119.1 100.732 118.533 99.6836 117.835 99.6836C117.136 99.6836 116.569 100.732 116.569 102.026C116.569 103.319 117.136 104.367 117.835 104.367Z" fill="#FDA57D"/>
<path d="M93.7002 89.9918L96.3524 88.6406L96.9499 90.8063L95.325 91.8985L93.7002 89.9918Z" fill="#F55F44"/>
<g opacity="0.5">
<path opacity="0.5" d="M104.447 62.0313C121.751 62.0313 135.778 48.1757 135.778 31.084C135.778 13.9923 121.751 0.136719 104.447 0.136719C87.1428 0.136719 73.1152 13.9923 73.1152 31.084C73.1152 48.1757 87.1428 62.0313 104.447 62.0313Z" fill="url(#paint2_linear)"/>
</g>
<path d="M104.447 61.2092C121.385 61.2092 135.116 47.6465 135.116 30.9161C135.116 14.1857 121.385 0.623047 104.447 0.623047C87.5086 0.623047 73.7776 14.1857 73.7776 30.9161C73.7776 47.6465 87.5086 61.2092 104.447 61.2092Z" fill="#F5F5F5"/>
<path d="M92.4835 31.1855C92.4835 31.1855 89.0068 48.1052 87.1089 47.1679C87.1089 47.1679 105.412 62.7844 121.574 47.1679C121.574 47.1679 118.727 35.2446 114.618 31.1855H92.4835Z" fill="#333333"/>
<path d="M104.533 61.2992C110.526 61.3089 116.39 59.5759 121.393 56.3162C120.263 50.217 115.961 49.8672 115.961 49.8672H92.2457C92.2457 49.8672 88.1903 50.1956 86.9197 55.8088C92.0761 59.3914 98.229 61.3093 104.533 61.2992V61.2992Z" fill="#404DEF"/>
<path d="M104.209 43.6773C111.718 43.6773 117.805 37.6647 117.805 30.2478C117.805 22.8309 111.718 16.8184 104.209 16.8184C96.6998 16.8184 90.6125 22.8309 90.6125 30.2478C90.6125 37.6647 96.6998 43.6773 104.209 43.6773Z" fill="#333333"/>
<path opacity="0.1" d="M99.4316 42.4277H108.918V49.9236C108.918 51.1644 108.42 52.3546 107.532 53.2327C106.645 54.1109 105.441 54.6053 104.184 54.6074C102.927 54.6074 101.721 54.114 100.831 53.2356C99.9421 52.3572 99.4424 51.1658 99.4424 49.9236V42.4277H99.4316Z" fill="black"/>
<path d="M100.337 42.0801H108.013C108.253 42.0801 108.483 42.1743 108.653 42.3421C108.823 42.5099 108.918 42.7374 108.918 42.9747V49.5759C108.918 50.8168 108.42 52.0069 107.532 52.8851C106.645 53.7632 105.441 54.2577 104.184 54.2598C102.927 54.2598 101.721 53.7663 100.831 52.8879C99.942 52.0095 99.4424 50.8181 99.4424 49.5759V42.972C99.4431 42.737 99.5373 42.5118 99.7048 42.3449C99.8722 42.178 100.099 42.0829 100.337 42.0801Z" fill="#BE7C5E"/>
<path opacity="0.1" d="M99.4507 45.966C102.508 47.0947 105.874 47.1042 108.937 45.9927V44.8418H99.4507V45.966Z" fill="black"/>
<path d="M104.209 46.5913C111.718 46.5913 117.805 40.5788 117.805 33.1619C117.805 25.745 111.718 19.7324 104.209 19.7324C96.6998 19.7324 90.6125 25.745 90.6125 33.1619C90.6125 40.5788 96.6998 46.5913 104.209 46.5913Z" fill="#BE7C5E"/>
<path d="M91.2129 28.0601H117.14C117.14 28.0601 114.926 17.7203 105.125 18.3799C95.325 19.0395 91.2129 28.0601 91.2129 28.0601Z" fill="#333333"/>
<path d="M90.8939 34.9319C91.5927 34.9319 92.1592 33.8834 92.1592 32.59C92.1592 31.2966 91.5927 30.248 90.8939 30.248C90.1951 30.248 89.6287 31.2966 89.6287 32.59C89.6287 33.8834 90.1951 34.9319 90.8939 34.9319Z" fill="#BE7C5E"/>
<path d="M117.453 34.9319C118.152 34.9319 118.719 33.8834 118.719 32.59C118.719 31.2966 118.152 30.248 117.453 30.248C116.755 30.248 116.188 31.2966 116.188 32.59C116.188 33.8834 116.755 34.9319 117.453 34.9319Z" fill="#BE7C5E"/>
<path opacity="0.1" d="M91.2129 28.4077H117.14C117.14 28.4077 114.926 18.0679 105.125 18.7275C95.325 19.3871 91.2129 28.4077 91.2129 28.4077Z" fill="black"/>
<g opacity="0.5">
<path opacity="0.5" d="M179.135 61.8946C196.439 61.8946 210.467 48.039 210.467 30.9473C210.467 13.8556 196.439 0 179.135 0C161.831 0 147.804 13.8556 147.804 30.9473C147.804 48.039 161.831 61.8946 179.135 61.8946Z" fill="url(#paint3_linear)"/>
</g>
<path d="M179.194 61.0412C196.133 61.0412 209.864 47.4785 209.864 30.7481C209.864 14.0177 196.133 0.455078 179.194 0.455078C162.256 0.455078 148.525 14.0177 148.525 30.7481C148.525 47.4785 162.256 61.0412 179.194 61.0412Z" fill="#F5F5F5"/>
<path d="M179.222 61.1632C185.215 61.1729 191.078 59.4399 196.081 56.1802C194.948 50.0783 190.649 49.7285 190.649 49.7285H166.937C166.937 49.7285 162.881 50.057 161.611 55.6702C166.766 59.2532 172.918 61.172 179.222 61.1632V61.1632Z" fill="#404DEF"/>
<path d="M178.9 44.7326C187.076 44.7326 193.704 38.1856 193.704 30.1095C193.704 22.0333 187.076 15.4863 178.9 15.4863C170.723 15.4863 164.095 22.0333 164.095 30.1095C164.095 38.1856 170.723 44.7326 178.9 44.7326Z" fill="#72351C"/>
<path opacity="0.1" d="M174.12 42.2891H183.607V49.7849C183.608 50.4006 183.486 51.0106 183.248 51.5798C183.01 52.149 182.661 52.6663 182.221 53.1021C181.78 53.5379 181.257 53.8836 180.681 54.1195C180.105 54.3554 179.488 54.4768 178.865 54.4768V54.4768C177.607 54.4768 176.401 53.9833 175.511 53.1049C174.622 52.2265 174.123 51.0351 174.123 49.7929V42.2891H174.12Z" fill="black"/>
<path d="M175.017 41.9414H182.693C182.933 41.9414 183.163 42.0357 183.333 42.2034C183.503 42.3712 183.599 42.5987 183.599 42.836V49.4372C183.599 50.6795 183.099 51.8708 182.21 52.7492C181.32 53.6276 180.114 54.1211 178.857 54.1211C177.599 54.1211 176.393 53.6276 175.503 52.7492C174.614 51.8708 174.115 50.6795 174.115 49.4372V42.836C174.115 42.5987 174.21 42.3712 174.38 42.2034C174.55 42.0357 174.78 41.9414 175.02 41.9414H175.017Z" fill="#FDA57D"/>
<path opacity="0.1" d="M174.131 45.8254C177.188 46.9541 180.554 46.9636 183.618 45.8521V44.7012H174.131V45.8254Z" fill="black"/>
<path d="M178.9 46.4546C186.409 46.4546 192.496 40.442 192.496 33.0252C192.496 25.6083 186.409 19.5957 178.9 19.5957C171.391 19.5957 165.304 25.6083 165.304 33.0252C165.304 40.442 171.391 46.4546 178.9 46.4546Z" fill="#FDA57D"/>
<path opacity="0.1" d="M169.216 20.8106C169.216 20.8106 174.944 32.2933 191.114 25.6173L187.351 19.7879L180.681 17.4219L169.216 20.8106Z" fill="black"/>
<path d="M169.216 20.6426C169.216 20.6426 174.944 32.1254 191.114 25.4494L187.351 19.6199L180.681 17.2539L169.216 20.6426Z" fill="#72351C"/>
<path d="M169.164 19.8647C169.55 18.6835 170.218 17.6112 171.111 16.7376C173.785 14.126 178.17 13.5759 180.419 10.5957C180.541 10.8066 180.617 11.0405 180.642 11.2823C180.668 11.524 180.641 11.7683 180.565 11.9993C180.488 12.2303 180.364 12.4429 180.199 12.6234C180.034 12.8038 179.833 12.9482 179.608 13.0471C181.771 13.0338 184.261 12.8469 185.477 11.0951C185.779 11.7873 185.875 12.5497 185.755 13.2938C185.634 14.0378 185.303 14.7329 184.799 15.2983C186.708 15.3837 188.746 16.6629 188.87 18.5482C188.952 19.8033 188.157 20.9916 187.11 21.7126C186.064 22.4336 184.804 22.7567 183.561 23.0238C179.933 23.8249 166.796 27.1389 169.164 19.8647Z" fill="#72351C"/>
<path d="M192.496 33.1426H192.136L185.123 39.3139C178.364 36.1895 173.406 39.3139 173.406 39.3139L166.053 33.4016L165.312 33.4924C165.412 37.0172 166.912 40.3616 169.487 42.8035C172.063 45.2453 175.507 46.5887 179.077 46.5435C182.647 46.4982 186.055 45.0681 188.566 42.5617C191.077 40.0554 192.49 36.6741 192.499 33.1479L192.496 33.1426ZM178.881 41.6745C176.237 41.6745 174.093 41.1404 174.093 40.4915C174.093 39.8426 176.237 39.3085 178.881 39.3085C181.525 39.3085 183.669 39.8426 183.669 40.4915C183.669 41.1404 181.525 41.6745 178.878 41.6745H178.881Z" fill="#72351C"/>
<path d="M165.298 35.3538C165.997 35.3538 166.563 34.3053 166.563 33.0119C166.563 31.7184 165.997 30.6699 165.298 30.6699C164.599 30.6699 164.033 31.7184 164.033 33.0119C164.033 34.3053 164.599 35.3538 165.298 35.3538Z" fill="#FDA57D"/>
<path d="M192.493 35.3538C193.192 35.3538 193.759 34.3053 193.759 33.0119C193.759 31.7184 193.192 30.6699 192.493 30.6699C191.795 30.6699 191.228 31.7184 191.228 33.0119C191.228 34.3053 191.795 35.3538 192.493 35.3538Z" fill="#FDA57D"/>
<g opacity="0.5">
<path opacity="0.5" d="M31.6996 128.879C49.0035 128.879 63.031 115.023 63.031 97.9317C63.031 80.84 49.0035 66.9844 31.6996 66.9844C14.3957 66.9844 0.368164 80.84 0.368164 97.9317C0.368164 115.023 14.3957 128.879 31.6996 128.879Z" fill="url(#paint4_linear)"/>
</g>
<path d="M31.7592 128.026C48.6972 128.026 62.4282 114.463 62.4282 97.7325C62.4282 81.0021 48.6972 67.4395 31.7592 67.4395C14.8211 67.4395 1.09009 81.0021 1.09009 97.7325C1.09009 114.463 14.8211 128.026 31.7592 128.026Z" fill="#F5F5F5"/>
<path d="M31.7861 128.147C37.7783 128.156 43.6408 126.423 48.6427 123.164C47.5126 117.065 43.2113 116.715 43.2113 116.715H19.4876C19.4876 116.715 15.4323 117.043 14.1616 122.656C19.3211 126.241 25.4781 128.159 31.7861 128.147V128.147Z" fill="#404DEF"/>
<path d="M31.4616 111.719C39.638 111.719 46.2663 105.172 46.2663 97.0958C46.2663 89.0197 39.638 82.4727 31.4616 82.4727C23.2852 82.4727 16.657 89.0197 16.657 97.0958C16.657 105.172 23.2852 111.719 31.4616 111.719Z" fill="#333333"/>
<path opacity="0.1" d="M26.6846 109.275H36.1713V116.771C36.1713 118.013 35.6717 119.205 34.7824 120.083C33.8931 120.962 32.687 121.455 31.4293 121.455V121.455C30.1716 121.455 28.9655 120.962 28.0762 120.083C27.1869 119.205 26.6873 118.013 26.6873 116.771V109.275H26.6846Z" fill="black"/>
<path d="M27.5903 108.928H35.2656C35.5058 108.928 35.7362 109.023 35.9061 109.19C36.0759 109.358 36.1713 109.586 36.1713 109.823V116.43C36.1713 117.672 35.6717 118.863 34.7824 119.742C33.8931 120.62 32.687 121.114 31.4293 121.114C30.8063 121.114 30.1894 120.993 29.6138 120.758C29.0381 120.523 28.5151 120.178 28.0744 119.743C27.6338 119.308 27.2843 118.791 27.0458 118.223C26.8073 117.654 26.6846 117.045 26.6846 116.43V109.82C26.6846 109.583 26.78 109.356 26.9498 109.188C27.1197 109.02 27.3501 108.926 27.5903 108.926V108.928Z" fill="#FDB797"/>
<path opacity="0.1" d="M26.7036 112.814C29.761 113.943 33.1265 113.952 36.1904 112.841V111.682H26.7036V112.814Z" fill="black"/>
<path d="M31.4616 113.441C38.9706 113.441 45.0578 107.428 45.0578 100.011C45.0578 92.5946 38.9706 86.582 31.4616 86.582C23.9527 86.582 17.8655 92.5946 17.8655 100.011C17.8655 107.428 23.9527 113.441 31.4616 113.441Z" fill="#FDB797"/>
<path opacity="0.1" d="M21.7803 87.795C21.7803 87.795 27.5091 99.2777 43.679 92.6017L39.9157 86.7722L33.246 84.4062L21.7803 87.795Z" fill="black"/>
<path d="M21.7803 87.627C21.7803 87.627 27.5091 99.1098 43.679 92.4338L39.9157 86.6043L33.246 84.2383L21.7803 87.627Z" fill="#333333"/>
<path d="M21.729 86.8451C22.1152 85.664 22.7828 84.5916 23.6755 83.7181C26.3494 81.1064 30.7345 80.5563 32.9839 77.5762C33.1061 77.7871 33.1822 78.021 33.2072 78.2627C33.2323 78.5045 33.2057 78.7487 33.1293 78.9797C33.0529 79.2107 32.9283 79.4233 32.7635 79.6038C32.5988 79.7843 32.3975 79.9287 32.1728 80.0276C34.3357 80.0142 36.8256 79.8273 38.0422 78.0755C38.3433 78.7678 38.4394 79.5302 38.3193 80.2742C38.1991 81.0183 37.8678 81.7133 37.3636 82.2787C39.2723 82.3642 41.3108 83.6433 41.4352 85.5286C41.5163 86.7837 40.7214 87.972 39.6752 88.6931C38.6289 89.4141 37.3663 89.7425 36.1227 90.0149C32.4945 90.8107 19.3607 94.1247 21.729 86.8451Z" fill="#333333"/>
<path d="M17.86 102.342C18.5588 102.342 19.1252 101.294 19.1252 100C19.1252 98.7067 18.5588 97.6582 17.86 97.6582C17.1612 97.6582 16.5947 98.7067 16.5947 100C16.5947 101.294 17.1612 102.342 17.86 102.342Z" fill="#FDB797"/>
<path d="M45.0551 102.342C45.7538 102.342 46.3203 101.294 46.3203 100C46.3203 98.7067 45.7538 97.6582 45.0551 97.6582C44.3563 97.6582 43.7898 98.7067 43.7898 100C43.7898 101.294 44.3563 102.342 45.0551 102.342Z" fill="#FDB797"/>
<g opacity="0.5">
<path opacity="0.5" d="M180.303 132.309C197.607 132.309 211.634 118.453 211.634 101.361C211.634 84.2696 197.607 70.4141 180.303 70.4141C162.999 70.4141 148.971 84.2696 148.971 101.361C148.971 118.453 162.999 132.309 180.303 132.309Z" fill="url(#paint5_linear)"/>
</g>
<path d="M180.303 131.486C197.241 131.486 210.972 117.924 210.972 101.193C210.972 84.4631 197.241 70.9004 180.303 70.9004C163.365 70.9004 149.634 84.4631 149.634 101.193C149.634 117.924 163.365 131.486 180.303 131.486Z" fill="#F5F5F5"/>
<path d="M180.39 131.578C186.383 131.588 192.246 129.855 197.249 126.595C196.119 120.496 191.817 120.146 191.817 120.146H168.102C168.102 120.146 164.047 120.475 162.776 126.088C167.932 129.671 174.085 131.589 180.39 131.578V131.578Z" fill="#404DEF"/>
<path opacity="0.1" d="M175.288 112.707H184.775V120.203C184.775 121.445 184.275 122.636 183.386 123.515C182.496 124.393 181.29 124.887 180.033 124.887V124.887C179.41 124.887 178.793 124.766 178.217 124.531C177.641 124.296 177.118 123.951 176.678 123.516C176.237 123.081 175.888 122.564 175.649 121.996C175.411 121.427 175.288 120.818 175.288 120.203V112.707Z" fill="black"/>
<path d="M176.194 112.359H183.869C184.109 112.359 184.339 112.454 184.509 112.621C184.679 112.789 184.775 113.017 184.775 113.254V119.855C184.775 121.097 184.275 122.289 183.386 123.167C182.496 124.046 181.29 124.539 180.033 124.539V124.539C179.41 124.539 178.793 124.419 178.217 124.183C177.641 123.948 177.118 123.603 176.678 123.168C176.237 122.733 175.888 122.217 175.649 121.648C175.411 121.08 175.288 120.471 175.288 119.855V113.254C175.288 113.017 175.383 112.789 175.553 112.621C175.723 112.454 175.953 112.359 176.194 112.359V112.359Z" fill="#FDB797"/>
<path opacity="0.1" d="M175.307 116.245C178.364 117.374 181.73 117.383 184.794 116.272V115.121H175.307V116.245Z" fill="black"/>
<path d="M180.065 116.875C187.574 116.875 193.661 110.862 193.661 103.445C193.661 96.0282 187.574 90.0156 180.065 90.0156C172.556 90.0156 166.469 96.0282 166.469 103.445C166.469 110.862 172.556 116.875 180.065 116.875Z" fill="#FDB797"/>
<path d="M166.75 105.211C167.449 105.211 168.015 104.163 168.015 102.869C168.015 101.576 167.449 100.527 166.75 100.527C166.051 100.527 165.485 101.576 165.485 102.869C165.485 104.163 166.051 105.211 166.75 105.211Z" fill="#FDB797"/>
<path d="M193.31 105.211C194.008 105.211 194.575 104.163 194.575 102.869C194.575 101.576 194.008 100.527 193.31 100.527C192.611 100.527 192.044 101.576 192.044 102.869C192.044 104.163 192.611 105.211 193.31 105.211Z" fill="#FDB797"/>
<path d="M176.421 103.508H172.957C172.308 103.508 171.781 104.028 171.781 104.669V105.22C171.781 105.861 172.308 106.381 172.957 106.381H176.421C177.07 106.381 177.597 105.861 177.597 105.22V104.669C177.597 104.028 177.07 103.508 176.421 103.508Z" stroke="#333333" stroke-width="2" stroke-miterlimit="10"/>
<path d="M183.712 106.379H187.175C187.825 106.379 188.351 105.859 188.351 105.217V104.667C188.351 104.026 187.825 103.506 187.175 103.506H183.712C183.063 103.506 182.536 104.026 182.536 104.667V105.217C182.536 105.859 183.063 106.379 183.712 106.379Z" stroke="#333333" stroke-width="2" stroke-miterlimit="10"/>
<path d="M177.375 103.785C177.375 103.785 179.219 102.797 182.647 103.785" stroke="#333333" stroke-width="2" stroke-miterlimit="10"/>
<path d="M189.465 93.709L192.802 101.365C192.802 101.365 196.881 96.2859 189.465 93.709Z" fill="#858585"/>
<path d="M188.351 104.944L193.331 100.551" stroke="#333333" stroke-width="2" stroke-linecap="round" stroke-linejoin="round"/>
<path d="M170.67 93.709L167.334 101.365C167.334 101.365 163.254 96.2859 170.67 93.709Z" fill="#858585"/>
<path d="M171.781 104.944L166.734 100.551" stroke="#333333" stroke-width="2" stroke-linecap="round" stroke-linejoin="round"/>
<g opacity="0.5">
<path opacity="0.5" d="M31.9247 198.451C49.2286 198.451 63.2561 184.596 63.2561 167.504C63.2561 150.412 49.2286 136.557 31.9247 136.557C14.6208 136.557 0.593262 150.412 0.593262 167.504C0.593262 184.596 14.6208 198.451 31.9247 198.451Z" fill="url(#paint6_linear)"/>
</g>
<path d="M31.924 197.627C48.862 197.627 62.593 184.064 62.593 167.334C62.593 150.604 48.862 137.041 31.924 137.041C14.9859 137.041 1.25488 150.604 1.25488 167.334C1.25488 184.064 14.9859 197.627 31.924 197.627Z" fill="#F5F5F5"/>
<path d="M48.8889 170.06C48.8889 181.217 41.519 193.637 32.4269 193.637C23.3349 193.637 15.9731 181.217 15.9731 170.06C15.9731 158.903 23.343 153.236 32.4351 153.236C41.5271 153.236 48.8889 158.906 48.8889 170.06Z" fill="#FDD835"/>
<path d="M32.0106 197.723C38.0038 197.733 43.8672 196 48.8699 192.74C47.7398 186.641 43.4385 186.291 43.4385 186.291H19.7257C19.7257 186.291 15.6703 186.619 14.3997 192.233C19.5553 195.815 25.7072 197.733 32.0106 197.723Z" fill="#404DEF"/>
<path opacity="0.1" d="M26.9116 178.848H36.3984V186.343C36.3984 187.586 35.8988 188.777 35.0095 189.655C34.1202 190.534 32.914 191.027 31.6564 191.027C30.3987 191.027 29.1925 190.534 28.3032 189.655C27.4139 188.777 26.9143 187.586 26.9143 186.343V178.848H26.9116Z" fill="black"/>
<path d="M27.8173 178.5H35.4927C35.7329 178.5 35.9632 178.594 36.1331 178.762C36.3029 178.93 36.3984 179.157 36.3984 179.395V185.996C36.3984 187.238 35.8988 188.429 35.0094 189.308C34.1201 190.186 32.914 190.68 31.6563 190.68V190.68C30.3987 190.68 29.1925 190.186 28.3032 189.308C27.4139 188.429 26.9143 187.238 26.9143 185.996V179.395C26.9143 179.158 27.0094 178.931 27.1786 178.763C27.3479 178.595 27.5776 178.501 27.8173 178.5Z" fill="#FDB797"/>
<path opacity="0.1" d="M26.9307 182.386C29.988 183.515 33.3536 183.524 36.4174 182.413V181.262H26.9307V182.386Z" fill="black"/>
<path d="M31.6887 183.013C39.1976 183.013 45.2848 177.001 45.2848 169.584C45.2848 162.167 39.1976 156.154 31.6887 156.154C24.1797 156.154 18.0925 162.167 18.0925 169.584C18.0925 177.001 24.1797 183.013 31.6887 183.013Z" fill="#FDB797"/>
<path d="M18.3739 171.352C19.0727 171.352 19.6392 170.303 19.6392 169.01C19.6392 167.716 19.0727 166.668 18.3739 166.668C17.6751 166.668 17.1086 167.716 17.1086 169.01C17.1086 170.303 17.6751 171.352 18.3739 171.352Z" fill="#FDB797"/>
<path d="M44.9335 171.352C45.6323 171.352 46.1987 170.303 46.1987 169.01C46.1987 167.716 45.6323 166.668 44.9335 166.668C44.2347 166.668 43.6682 167.716 43.6682 169.01C43.6682 170.303 44.2347 171.352 44.9335 171.352Z" fill="#FDB797"/>
<path opacity="0.1" d="M19.6418 162.299C19.6418 162.299 27.328 172.689 44.9552 169.14C44.9552 169.14 46.9234 166.774 42.1327 159.511C37.342 152.247 24.0027 153.43 19.6418 162.299Z" fill="black"/>
<path d="M19.6418 162.133C19.6418 162.133 27.328 172.523 44.9552 168.974C44.9552 168.974 46.9234 166.608 42.1327 159.345C37.342 152.081 24.0027 153.264 19.6418 162.133Z" fill="#FDD835"/>
<g opacity="0.5">
<path opacity="0.5" d="M106.355 202C123.659 202 137.687 188.145 137.687 171.053C137.687 153.961 123.659 140.105 106.355 140.105C89.0515 140.105 75.0239 153.961 75.0239 171.053C75.0239 188.145 89.0515 202 106.355 202Z" fill="url(#paint7_linear)"/>
</g>
<path d="M106.418 201.149C123.356 201.149 137.087 187.586 137.087 170.856C137.087 154.125 123.356 140.562 106.418 140.562C89.4795 140.562 75.7485 154.125 75.7485 170.856C75.7485 187.586 89.4795 201.149 106.418 201.149Z" fill="#F5F5F5"/>
<path d="M123.291 173.841C123.291 183.919 115.961 188.878 106.442 188.878C96.9228 188.878 88.8257 183.919 88.8257 173.841C88.8257 163.763 96.5416 155.594 106.058 155.594C115.575 155.594 123.291 163.755 123.291 173.841Z" fill="#333333"/>
<path d="M106.442 201.268C112.436 201.278 118.301 199.545 123.304 196.285C122.174 190.186 117.873 189.836 117.873 189.836H94.1571C94.1571 189.836 90.1017 190.164 88.8311 195.778C93.9867 199.36 100.139 201.278 106.442 201.268Z" fill="#404DEF"/>
<path opacity="0.1" d="M101.343 182.389H110.83V189.884C110.831 190.501 110.709 191.112 110.47 191.682C110.232 192.252 109.882 192.77 109.44 193.205C108.998 193.641 108.474 193.987 107.897 194.222C107.32 194.457 106.701 194.578 106.077 194.576V194.576C104.819 194.576 103.613 194.083 102.724 193.204C101.835 192.326 101.335 191.135 101.335 189.892V182.389H101.343Z" fill="black"/>
<path d="M102.246 182.05H109.921C110.162 182.05 110.392 182.144 110.562 182.312C110.732 182.479 110.827 182.707 110.827 182.944V189.545C110.827 190.161 110.704 190.771 110.465 191.34C110.227 191.908 109.877 192.425 109.435 192.86C108.994 193.295 108.47 193.64 107.894 193.875C107.318 194.11 106.7 194.23 106.077 194.229V194.229C104.819 194.229 103.613 193.736 102.724 192.857C101.835 191.979 101.335 190.788 101.335 189.545V182.941C101.335 182.704 101.43 182.477 101.6 182.309C101.77 182.141 102 182.047 102.241 182.047L102.246 182.05Z" fill="#FDA57D"/>
<path opacity="0.1" d="M101.362 185.935C104.419 187.064 107.785 187.073 110.849 185.962V184.811H101.362V185.935Z" fill="black"/>
<path d="M106.12 186.56C113.629 186.56 119.716 180.548 119.716 173.131C119.716 165.714 113.629 159.701 106.12 159.701C98.6111 159.701 92.5239 165.714 92.5239 173.131C92.5239 180.548 98.6111 186.56 106.12 186.56Z" fill="#FDA57D"/>
<path opacity="0.1" d="M90.4504 174.01C90.4504 174.01 98.918 172.995 105.32 164.888C105.32 164.888 113.787 174.095 119.687 173.08C119.687 173.08 123.107 169.532 119.687 165.985C116.267 162.439 113.614 157.961 109.083 158.551C104.552 159.141 98.991 159.395 96.5983 161.507C94.2057 163.619 90.4504 174.01 90.4504 174.01Z" fill="black"/>
<path d="M90.4504 173.84C90.4504 173.84 98.918 172.825 105.32 164.718C105.32 164.718 113.787 173.925 119.687 172.911C119.687 172.911 123.107 169.362 119.687 165.815C116.267 162.269 113.614 157.791 109.083 158.381C104.552 158.971 99.0018 159.214 96.6091 161.35C94.2165 163.487 90.4504 173.84 90.4504 173.84Z" fill="#333333"/>
<path d="M92.5187 175.461C93.2175 175.461 93.7839 174.413 93.7839 173.119C93.7839 171.826 93.2175 170.777 92.5187 170.777C91.8199 170.777 91.2534 171.826 91.2534 173.119C91.2534 174.413 91.8199 175.461 92.5187 175.461Z" fill="#FDA57D"/>
<path d="M119.714 175.461C120.413 175.461 120.979 174.413 120.979 173.119C120.979 171.826 120.413 170.777 119.714 170.777C119.015 170.777 118.448 171.826 118.448 173.119C118.448 174.413 119.015 175.461 119.714 175.461Z" fill="#FDA57D"/>
</g>
<defs>
<linearGradient id="paint0_linear" x1="31.9247" y1="63.5509" x2="31.9247" y2="1.65892" gradientUnits="userSpaceOnUse">
<stop stop-color="#808080" stop-opacity="0.25"/>
<stop offset="0.54" stop-color="#808080" stop-opacity="0.12"/>
<stop offset="1" stop-color="#808080" stop-opacity="0.1"/>
</linearGradient>
<linearGradient id="paint1_linear" x1="24203.4" y1="30410.4" x2="24203.4" y2="16065.1" gradientUnits="userSpaceOnUse">
<stop stop-color="#808080" stop-opacity="0.25"/>
<stop offset="0.54" stop-color="#808080" stop-opacity="0.12"/>
<stop offset="1" stop-color="#808080" stop-opacity="0.1"/>
</linearGradient>
<linearGradient id="paint2_linear" x1="24196.4" y1="14377.6" x2="24196.4" y2="31.703" gradientUnits="userSpaceOnUse">
<stop stop-color="#808080" stop-opacity="0.25"/>
<stop offset="0.54" stop-color="#808080" stop-opacity="0.12"/>
<stop offset="1" stop-color="#808080" stop-opacity="0.1"/>
</linearGradient>
<linearGradient id="paint3_linear" x1="41582.4" y1="14345.3" x2="41582.4" y2="0" gradientUnits="userSpaceOnUse">
<stop stop-color="#808080" stop-opacity="0.25"/>
<stop offset="0.54" stop-color="#808080" stop-opacity="0.12"/>
<stop offset="1" stop-color="#808080" stop-opacity="0.1"/>
</linearGradient>
<linearGradient id="paint4_linear" x1="7262.37" y1="29938.6" x2="7262.37" y2="15593.2" gradientUnits="userSpaceOnUse">
<stop stop-color="#808080" stop-opacity="0.25"/>
<stop offset="0.54" stop-color="#808080" stop-opacity="0.12"/>
<stop offset="1" stop-color="#808080" stop-opacity="0.1"/>
</linearGradient>
<linearGradient id="paint5_linear" x1="41854.3" y1="30737.3" x2="41854.3" y2="16392" gradientUnits="userSpaceOnUse">
<stop stop-color="#808080" stop-opacity="0.25"/>
<stop offset="0.54" stop-color="#808080" stop-opacity="0.12"/>
<stop offset="1" stop-color="#808080" stop-opacity="0.1"/>
</linearGradient>
<linearGradient id="paint6_linear" x1="7314.6" y1="46133.6" x2="7314.6" y2="31788.2" gradientUnits="userSpaceOnUse">
<stop stop-color="#808080" stop-opacity="0.25"/>
<stop offset="0.54" stop-color="#808080" stop-opacity="0.12"/>
<stop offset="1" stop-color="#808080" stop-opacity="0.1"/>
</linearGradient>
<linearGradient id="paint7_linear" x1="24640.8" y1="46959.7" x2="24640.8" y2="32614.4" gradientUnits="userSpaceOnUse">
<stop stop-color="#808080" stop-opacity="0.25"/>
<stop offset="0.54" stop-color="#808080" stop-opacity="0.12"/>
<stop offset="1" stop-color="#808080" stop-opacity="0.1"/>
</linearGradient>
<clipPath id="clip0">
<rect width="211.264" height="202" fill="white" transform="translate(0.368164)"/>
</clipPath>
</defs>
</svg>
