<svg width="283" height="270" viewBox="0 0 283 270" fill="none" xmlns="http://www.w3.org/2000/svg">
<g clip-path="url(#clip0)">
<g opacity="0.5">
<path opacity="0.5" d="M42.1794 84.9443C65.3084 84.9443 84.0581 66.4245 84.0581 43.5791C84.0581 20.7337 65.3084 2.21387 42.1794 2.21387C19.0505 2.21387 0.300781 20.7337 0.300781 43.5791C0.300781 66.4245 19.0505 84.9443 42.1794 84.9443Z" fill="url(#paint0_linear)"/>
</g>
<path d="M42.1769 83.8442C64.8169 83.8442 83.1702 65.7159 83.1702 43.3535C83.1702 20.9911 64.8169 2.86279 42.1769 2.86279C19.5369 2.86279 1.18359 20.9911 1.18359 43.3535C1.18359 65.7159 19.5369 83.8442 42.1769 83.8442Z" fill="#F5F5F5"/>
<path d="M42.2933 83.9585C50.3039 83.9715 58.1413 81.6551 64.828 77.2981C63.3175 69.1457 57.5682 68.6781 57.5682 68.6781H25.8728C25.8728 68.6781 20.4523 69.1171 18.7539 76.6199C25.6452 81.4078 33.868 83.9713 42.2933 83.9585V83.9585Z" fill="#404DEF"/>
<path d="M41.8645 60.4112C51.9012 60.4112 60.0376 52.3745 60.0376 42.4609C60.0376 32.5472 51.9012 24.5106 41.8645 24.5106C31.8278 24.5106 23.6914 32.5472 23.6914 42.4609C23.6914 52.3745 31.8278 60.4112 41.8645 60.4112Z" fill="#333333"/>
<path opacity="0.1" d="M35.4805 58.7406H48.1608V68.7598C48.1608 70.4202 47.493 72.0126 46.3043 73.1867C45.1157 74.3608 43.5035 75.0204 41.8224 75.0204C40.1414 75.0204 38.5292 74.3608 37.3405 73.1867C36.1519 72.0126 35.4841 70.4202 35.4841 68.7598V58.7406H35.4805Z" fill="black"/>
<path d="M36.6913 58.2773H46.9505C47.2716 58.2773 47.5795 58.4033 47.8065 58.6276C48.0335 58.8518 48.1611 59.1559 48.1611 59.4731V68.2965C48.1611 69.9569 47.4933 71.5494 46.3046 72.7235C45.1159 73.8976 43.5038 74.5572 41.8227 74.5572C40.1417 74.5572 38.5295 73.8976 37.3408 72.7235C36.1522 71.5494 35.4844 69.9569 35.4844 68.2965V59.4731C35.4844 59.1566 35.6114 58.853 35.8377 58.6288C36.0639 58.4047 36.3709 58.2783 36.6913 58.2773Z" fill="#BE7C5E"/>
<path opacity="0.1" d="M35.5039 63.4707C39.5905 64.9794 44.089 64.992 48.1842 63.5064V61.968H35.5039V63.4707Z" fill="black"/>
<path d="M41.8645 64.3092C51.9012 64.3092 60.0376 56.2726 60.0376 46.359C60.0376 36.4453 51.9012 28.4087 41.8645 28.4087C31.8278 28.4087 23.6914 36.4453 23.6914 46.359C23.6914 56.2726 31.8278 64.3092 41.8645 64.3092Z" fill="#BE7C5E"/>
<path d="M30.8544 38.956C31.0676 38.1815 31.335 37.3284 32.0397 36.9251C32.5962 36.6038 33.2864 36.6538 33.9296 36.6859C38.9526 36.9572 43.9322 35.8257 48.8179 34.6442C51.6112 33.9696 54.5997 33.1487 56.4066 30.925C58.2134 28.7013 55.8573 21.7125 53.1073 20.888C51.3005 20.3418 49.2046 21.3591 47.4917 20.5596C46.7292 20.2026 46.1691 19.5352 45.5114 19.0141C44.1635 17.9432 42.4326 17.5114 40.7558 17.1044C38.7972 16.6262 36.6796 16.1586 34.8186 16.926C33.3731 17.5185 32.3179 18.7713 30.9484 19.5138C28.3429 20.9415 25.1665 20.2776 22.1816 20.2705C21.1734 20.2705 19.9701 20.4703 19.569 21.3841C19.2979 22.0052 19.5147 22.7119 19.5437 23.3865C19.6304 25.5281 17.8416 27.195 16.342 28.7405C14.8423 30.2861 13.4257 32.4919 14.3725 34.4122C14.7339 35.1439 15.3952 35.6972 15.771 36.4218C16.4179 37.6782 16.0926 39.1952 16.3275 40.5836C16.5627 41.6372 16.9613 42.6486 17.5092 43.5819C18.6222 45.7235 24.2125 57.2525 26.7818 54.3221C28.0249 52.8943 28.2273 48.7682 28.7296 46.9121C29.4234 44.2446 30.1317 41.5926 30.8544 38.956Z" fill="#333333"/>
<path d="M28.9334 48.8363C29.8674 48.8363 30.6246 47.4348 30.6246 45.706C30.6246 43.9772 29.8674 42.5757 28.9334 42.5757C27.9994 42.5757 27.2422 43.9772 27.2422 45.706C27.2422 47.4348 27.9994 48.8363 28.9334 48.8363Z" fill="#BE7C5E"/>
<g opacity="0.5">
<path opacity="0.5" d="M139.156 174.973C162.285 174.973 181.035 156.453 181.035 133.608C181.035 110.763 162.285 92.2428 139.156 92.2428C116.027 92.2428 97.2773 110.763 97.2773 133.608C97.2773 156.453 116.027 174.973 139.156 174.973Z" fill="url(#paint1_linear)"/>
</g>
<path d="M139.235 173.834C161.875 173.834 180.229 155.706 180.229 133.343C180.229 110.981 161.875 92.8527 139.235 92.8527C116.596 92.8527 98.2422 110.981 98.2422 133.343C98.2422 155.706 116.596 173.834 139.235 173.834Z" fill="#F5F5F5"/>
<path d="M139.27 173.995C147.275 174.005 155.107 171.689 161.79 167.335C160.279 159.182 154.53 158.715 154.53 158.715H122.845C122.845 158.715 117.425 159.154 115.727 166.657C122.619 171.445 130.843 174.009 139.27 173.995V173.995Z" fill="#404DEF"/>
<path d="M138.835 152.036C149.764 152.036 158.624 143.285 158.624 132.491C158.624 121.696 149.764 112.945 138.835 112.945C127.906 112.945 119.047 121.696 119.047 132.491C119.047 143.285 127.906 152.036 138.835 152.036Z" fill="#F55F44"/>
<path opacity="0.1" d="M132.453 148.771H145.133V158.79C145.133 160.45 144.466 162.043 143.277 163.217C142.088 164.391 140.476 165.05 138.795 165.05C137.114 165.05 135.502 164.391 134.313 163.217C133.125 162.043 132.457 160.45 132.457 158.79V148.771H132.453Z" fill="black"/>
<path d="M133.664 148.306H143.923C144.082 148.306 144.24 148.337 144.386 148.397C144.533 148.457 144.667 148.545 144.779 148.656C144.892 148.768 144.981 148.899 145.042 149.044C145.102 149.189 145.134 149.345 145.134 149.502V158.325C145.134 159.148 144.97 159.962 144.651 160.721C144.333 161.481 143.866 162.171 143.277 162.752C142.689 163.334 141.99 163.795 141.221 164.11C140.452 164.424 139.628 164.586 138.795 164.586V164.586C137.963 164.586 137.139 164.424 136.37 164.11C135.601 163.795 134.902 163.334 134.313 162.752C133.725 162.171 133.258 161.481 132.94 160.721C132.621 159.962 132.457 159.148 132.457 158.325V149.502C132.457 149.185 132.585 148.881 132.812 148.656C133.039 148.432 133.347 148.306 133.668 148.306H133.664Z" fill="#FDA57D"/>
<path opacity="0.1" d="M132.477 153.5C136.563 155.008 141.062 155.021 145.157 153.535V151.997H132.477V153.5Z" fill="black"/>
<path d="M138.837 154.338C148.874 154.338 157.01 146.302 157.01 136.388C157.01 126.474 148.874 118.438 138.837 118.438C128.8 118.438 120.664 126.474 120.664 136.388C120.664 146.302 128.8 154.338 138.837 154.338Z" fill="#FDA57D"/>
<path d="M138.81 119.834C142.85 119.834 146.124 116.6 146.124 112.61C146.124 108.62 142.85 105.385 138.81 105.385C134.771 105.385 131.496 108.62 131.496 112.61C131.496 116.6 134.771 119.834 138.81 119.834Z" fill="#F55F44"/>
<path d="M138.81 110.239C141.463 110.239 143.613 108.115 143.613 105.496C143.613 102.876 141.463 100.752 138.81 100.752C136.158 100.752 134.008 102.876 134.008 105.496C134.008 108.115 136.158 110.239 138.81 110.239Z" fill="#F55F44"/>
<path d="M135.64 116.571C133.924 115.81 132.571 114.426 131.861 112.706C131.151 110.986 131.139 109.062 131.828 107.333C131.777 107.433 131.727 107.537 131.68 107.64C131.287 108.506 131.07 109.44 131.042 110.388C131.014 111.337 131.176 112.281 131.518 113.168C131.859 114.055 132.375 114.866 133.034 115.557C133.693 116.247 134.484 116.802 135.36 117.19C136.237 117.578 137.182 117.792 138.142 117.82C139.103 117.847 140.059 117.688 140.957 117.35C141.855 117.013 142.676 116.504 143.375 115.852C144.074 115.201 144.635 114.42 145.029 113.555C145.076 113.451 145.119 113.348 145.162 113.241C144.313 114.899 142.85 116.17 141.077 116.79C139.304 117.41 137.357 117.332 135.64 116.571Z" fill="#F55F44"/>
<path opacity="0.1" d="M125.895 120.063C125.895 120.063 133.552 135.411 155.165 126.488L150.135 118.696L141.22 115.533L125.895 120.063Z" fill="black"/>
<path d="M125.895 119.835C125.895 119.835 133.552 135.183 155.165 126.26L150.135 118.468L141.22 115.305L125.895 119.835Z" fill="#F55F44"/>
<path d="M131.797 114.244C136.509 113.878 141.243 113.878 145.955 114.244C145.955 114.244 135.497 115.204 131.797 114.244Z" fill="#333333"/>
<path d="M139.912 100.464C139.549 100.45 139.185 100.478 138.828 100.546H139.106C140.289 100.583 141.416 101.051 142.271 101.859C143.126 102.667 143.648 103.759 143.738 104.924C143.828 106.09 143.478 107.247 142.757 108.173C142.035 109.1 140.993 109.73 139.829 109.944C141.102 109.955 142.327 109.467 143.235 108.586C144.143 107.705 144.66 106.504 144.671 105.246C144.683 103.989 144.188 102.779 143.297 101.882C142.405 100.985 141.189 100.475 139.916 100.464H139.912Z" fill="#F55F44"/>
<path d="M120.66 139.501C121.594 139.501 122.351 138.1 122.351 136.371C122.351 134.642 121.594 133.241 120.66 133.241C119.726 133.241 118.969 134.642 118.969 136.371C118.969 138.1 119.726 139.501 120.66 139.501Z" fill="#FDA57D"/>
<path d="M157.011 139.501C157.945 139.501 158.703 138.1 158.703 136.371C158.703 134.642 157.945 133.241 157.011 133.241C156.077 133.241 155.32 134.642 155.32 136.371C155.32 138.1 156.077 139.501 157.011 139.501Z" fill="#FDA57D"/>
<path d="M124.75 120.286L128.295 118.48L129.094 121.375L126.922 122.835L124.75 120.286Z" fill="#F55F44"/>
<g opacity="0.5">
<path opacity="0.5" d="M139.113 82.9123C162.242 82.9123 180.992 64.3925 180.992 41.5471C180.992 18.7017 162.242 0.181885 139.113 0.181885C115.984 0.181885 97.2344 18.7017 97.2344 41.5471C97.2344 64.3925 115.984 82.9123 139.113 82.9123Z" fill="url(#paint2_linear)"/>
</g>
<path d="M139.114 81.8132C161.754 81.8132 180.108 63.6849 180.108 41.3225C180.108 18.9601 161.754 0.831787 139.114 0.831787C116.474 0.831787 98.1211 18.9601 98.1211 41.3225C98.1211 63.6849 116.474 81.8132 139.114 81.8132Z" fill="#F5F5F5"/>
<path d="M123.125 41.683C123.125 41.683 118.478 64.2984 115.941 63.0455C115.941 63.0455 140.406 83.9191 162.008 63.0455C162.008 63.0455 158.203 47.1084 152.71 41.683H123.125Z" fill="#333333"/>
<path d="M139.23 81.9342C147.241 81.9472 155.078 79.6308 161.765 75.2738C160.255 67.1214 154.505 66.6538 154.505 66.6538H122.806C122.806 66.6538 117.386 67.0928 115.688 74.5956C122.58 79.3842 130.804 81.9478 139.23 81.9342V81.9342Z" fill="#404DEF"/>
<path d="M138.798 58.38C148.835 58.38 156.971 50.3434 156.971 40.4298C156.971 30.5161 148.835 22.4795 138.798 22.4795C128.761 22.4795 120.625 30.5161 120.625 40.4298C120.625 50.3434 128.761 58.38 138.798 58.38Z" fill="#333333"/>
<path opacity="0.1" d="M132.41 56.7095H145.09V66.7286C145.09 68.3872 144.424 69.978 143.238 71.1518C142.052 72.3256 140.442 72.9864 138.763 72.9893C137.082 72.9893 135.47 72.3297 134.281 71.1556C133.092 69.9815 132.425 68.3891 132.425 66.7286V56.7095H132.41Z" fill="black"/>
<path d="M133.622 56.2454H143.881C144.202 56.2454 144.51 56.3713 144.737 56.5956C144.964 56.8198 145.092 57.124 145.092 57.4411V66.2645C145.092 67.9231 144.425 69.5139 143.239 70.6877C142.053 71.8615 140.443 72.5223 138.764 72.5252C137.083 72.5252 135.471 71.8656 134.282 70.6915C133.094 69.5174 132.426 67.9249 132.426 66.2645V57.4375C132.427 57.1235 132.553 56.8224 132.776 56.5993C133 56.3763 133.304 56.2491 133.622 56.2454Z" fill="#BE7C5E"/>
<path opacity="0.1" d="M132.438 61.4396C136.524 62.9482 141.023 62.9609 145.118 61.4753V59.9369H132.438V61.4396Z" fill="black"/>
<path d="M138.798 62.2743C148.835 62.2743 156.971 54.2377 156.971 44.324C156.971 34.4104 148.835 26.3738 138.798 26.3738C128.761 26.3738 120.625 34.4104 120.625 44.324C120.625 54.2377 128.761 62.2743 138.798 62.2743Z" fill="#BE7C5E"/>
<path d="M121.426 37.5063H156.081C156.081 37.5063 153.121 23.6858 140.022 24.5674C126.922 25.4491 121.426 37.5063 121.426 37.5063Z" fill="#333333"/>
<path d="M121 46.6911C121.934 46.6911 122.691 45.2896 122.691 43.5607C122.691 41.8319 121.934 40.4304 121 40.4304C120.066 40.4304 119.309 41.8319 119.309 43.5607C119.309 45.2896 120.066 46.6911 121 46.6911Z" fill="#BE7C5E"/>
<path d="M156.5 46.6911C157.434 46.6911 158.191 45.2896 158.191 43.5607C158.191 41.8319 157.434 40.4304 156.5 40.4304C155.566 40.4304 154.809 41.8319 154.809 43.5607C154.809 45.2896 155.566 46.6911 156.5 46.6911Z" fill="#BE7C5E"/>
<path opacity="0.1" d="M121.141 38.3753H155.796C155.796 38.3753 152.836 24.5548 139.737 25.4365C126.637 26.3181 121.141 38.3753 121.141 38.3753Z" fill="black"/>
<g opacity="0.5">
<path opacity="0.5" d="M238.945 82.7304C262.074 82.7304 280.824 64.2106 280.824 41.3652C280.824 18.5198 262.074 0 238.945 0C215.816 0 197.066 18.5198 197.066 41.3652C197.066 64.2106 215.816 82.7304 238.945 82.7304Z" fill="url(#paint3_linear)"/>
</g>
<path d="M239.025 81.5889C261.665 81.5889 280.018 63.4606 280.018 41.0981C280.018 18.7357 261.665 0.607422 239.025 0.607422C216.385 0.607422 198.031 18.7357 198.031 41.0981C198.031 63.4606 216.385 81.5889 239.025 81.5889Z" fill="#F5F5F5"/>
<path d="M239.063 81.7521C247.073 81.7651 254.911 79.4487 261.598 75.0917C260.083 66.9357 254.338 66.4681 254.338 66.4681H222.642C222.642 66.4681 217.222 66.9072 215.523 74.4099C222.414 79.1991 230.637 81.7639 239.063 81.7521V81.7521Z" fill="#404DEF"/>
<path d="M238.632 59.7905C249.561 59.7905 258.421 51.0396 258.421 40.2447C258.421 29.4499 249.561 20.699 238.632 20.699C227.703 20.699 218.844 29.4499 218.844 40.2447C218.844 51.0396 227.703 59.7905 238.632 59.7905Z" fill="#72351C"/>
<path opacity="0.1" d="M232.242 56.5244H244.923V66.5436C244.924 67.3666 244.761 68.1819 244.443 68.9427C244.125 69.7035 243.659 70.395 243.07 70.9774C242.481 71.5599 241.782 72.022 241.012 72.3373C240.243 72.6526 239.417 72.8149 238.584 72.8149V72.8149C236.903 72.8149 235.291 72.1553 234.102 70.9812C232.914 69.8071 232.246 68.2147 232.246 66.5543V56.5244H232.242Z" fill="black"/>
<path d="M233.441 56.0596H243.7C244.022 56.0596 244.329 56.1856 244.556 56.4098C244.784 56.634 244.911 56.9382 244.911 57.2553V66.0787C244.911 67.7392 244.243 69.3316 243.055 70.5057C241.866 71.6798 240.254 72.3394 238.573 72.3394C236.892 72.3394 235.28 71.6798 234.091 70.5057C232.902 69.3316 232.234 67.7392 232.234 66.0787V57.2553C232.234 56.9382 232.362 56.634 232.589 56.4098C232.816 56.1856 233.124 56.0596 233.445 56.0596H233.441Z" fill="#FDA57D"/>
<path opacity="0.1" d="M232.258 61.2529C236.344 62.7616 240.843 62.7742 244.938 61.2886V59.7502H232.258V61.2529Z" fill="black"/>
<path d="M238.63 62.0924C248.667 62.0924 256.803 54.0558 256.803 44.1422C256.803 34.2285 248.667 26.1919 238.63 26.1919C228.593 26.1919 220.457 34.2285 220.457 44.1422C220.457 54.0558 228.593 62.0924 238.63 62.0924Z" fill="#FDA57D"/>
<path opacity="0.1" d="M225.688 27.8161C225.688 27.8161 233.345 43.1643 254.958 34.241L249.928 26.4491L241.013 23.2866L225.688 27.8161Z" fill="black"/>
<path d="M225.688 27.5918C225.688 27.5918 233.345 42.94 254.958 34.0166L249.928 26.2247L241.013 23.0623L225.688 27.5918Z" fill="#72351C"/>
<path d="M225.617 26.5523C226.134 24.9735 227.026 23.5402 228.219 22.3726C231.793 18.8818 237.654 18.1465 240.661 14.1631C240.824 14.445 240.926 14.7576 240.96 15.0808C240.993 15.4039 240.958 15.7304 240.855 16.0391C240.753 16.3479 240.587 16.6321 240.367 16.8733C240.146 17.1146 239.877 17.3075 239.577 17.4398C242.468 17.4219 245.796 17.1721 247.422 14.8306C247.825 15.7558 247.953 16.7749 247.793 17.7694C247.632 18.7639 247.189 19.693 246.515 20.4487C249.066 20.5629 251.791 22.2727 251.957 24.7926C252.066 26.4702 251.003 28.0586 249.605 29.0223C248.206 29.986 246.522 30.4179 244.86 30.7748C240.011 31.8457 222.452 36.2752 225.617 26.5523Z" fill="#72351C"/>
<path d="M256.804 44.2991H256.323L246.95 52.5478C237.915 48.3717 231.288 52.5478 231.288 52.5478L221.459 44.6453L220.469 44.7667C220.603 49.478 222.608 53.9483 226.05 57.2122C229.492 60.476 234.096 62.2716 238.868 62.2112C243.639 62.1507 248.195 60.2391 251.552 56.889C254.908 53.539 256.796 49.0194 256.808 44.3062L256.804 44.2991ZM238.606 55.7031C235.072 55.7031 232.206 54.9893 232.206 54.1219C232.206 53.2546 235.072 52.5407 238.606 52.5407C242.14 52.5407 245.005 53.2546 245.005 54.1219C245.005 54.9893 242.14 55.7031 238.602 55.7031H238.606Z" fill="#72351C"/>
<path d="M220.449 47.2544C221.383 47.2544 222.14 45.8529 222.14 44.1241C222.14 42.3953 221.383 40.9938 220.449 40.9938C219.515 40.9938 218.758 42.3953 218.758 44.1241C218.758 45.8529 219.515 47.2544 220.449 47.2544Z" fill="#FDA57D"/>
<path d="M256.801 47.2544C257.735 47.2544 258.492 45.8529 258.492 44.1241C258.492 42.3953 257.735 40.9938 256.801 40.9938C255.867 40.9938 255.109 42.3953 255.109 44.1241C255.109 45.8529 255.867 47.2544 256.801 47.2544Z" fill="#FDA57D"/>
<g opacity="0.5">
<path opacity="0.5" d="M41.8787 172.264C65.0076 172.264 83.7573 153.744 83.7573 130.899C83.7573 108.053 65.0076 89.5333 41.8787 89.5333C18.7497 89.5333 0 108.053 0 130.899C0 153.744 18.7497 172.264 41.8787 172.264Z" fill="url(#paint4_linear)"/>
</g>
<path d="M41.9582 171.125C64.5981 171.125 82.9515 152.996 82.9515 130.634C82.9515 108.271 64.5981 90.1432 41.9582 90.1432C19.3182 90.1432 0.964844 108.271 0.964844 130.634C0.964844 152.996 19.3182 171.125 41.9582 171.125Z" fill="#F5F5F5"/>
<path d="M41.9949 171.286C50.0044 171.298 57.8403 168.982 64.5261 164.625C63.0156 156.473 57.2662 156.005 57.2662 156.005H25.5564C25.5564 156.005 20.1359 156.444 18.4375 163.947C25.3338 168.739 33.5635 171.302 41.9949 171.286V171.286Z" fill="#404DEF"/>
<path d="M41.5618 149.328C52.4906 149.328 61.3502 140.577 61.3502 129.782C61.3502 118.987 52.4906 110.236 41.5618 110.236C30.633 110.236 21.7734 118.987 21.7734 129.782C21.7734 140.577 30.633 149.328 41.5618 149.328Z" fill="#333333"/>
<path opacity="0.1" d="M35.1758 146.061H47.8561V156.08C47.8561 157.741 47.1883 159.333 45.9996 160.507C44.811 161.681 43.1988 162.341 41.5177 162.341V162.341C39.8367 162.341 38.2245 161.681 37.0359 160.507C35.8472 159.333 35.1794 157.741 35.1794 156.08V146.061H35.1758Z" fill="black"/>
<path d="M36.3864 145.598H46.6455C46.9666 145.598 47.2745 145.724 47.5015 145.948C47.7286 146.173 47.8561 146.477 47.8561 146.794V155.624C47.8561 157.285 47.1883 158.877 45.9996 160.051C44.811 161.225 43.1988 161.885 41.5177 161.885C40.6851 161.885 39.8605 161.724 39.0911 161.409C38.3216 161.095 37.6225 160.634 37.0335 160.053C36.4446 159.471 35.9774 158.781 35.6586 158.021C35.3398 157.261 35.1758 156.447 35.1758 155.624V146.79C35.1758 146.473 35.3033 146.169 35.5304 145.945C35.7574 145.72 36.0653 145.594 36.3864 145.594V145.598Z" fill="#FDB797"/>
<path opacity="0.1" d="M35.1992 150.792C39.2858 152.3 43.7843 152.313 47.8795 150.827V149.278H35.1992V150.792Z" fill="black"/>
<path d="M41.5598 151.63C51.5965 151.63 59.7329 143.593 59.7329 133.679C59.7329 123.766 51.5965 115.729 41.5598 115.729C31.5231 115.729 23.3867 123.766 23.3867 133.679C23.3867 143.593 31.5231 151.63 41.5598 151.63Z" fill="#FDB797"/>
<path opacity="0.1" d="M28.6211 117.35C28.6211 117.35 36.2784 132.698 57.8917 123.775L52.8615 115.983L43.9466 112.821L28.6211 117.35Z" fill="black"/>
<path d="M28.6211 117.125C28.6211 117.125 36.2784 132.473 57.8917 123.55L52.8615 115.758L43.9466 112.596L28.6211 117.125Z" fill="#333333"/>
<path d="M28.5511 116.081C29.0673 114.502 29.9596 113.069 31.1529 111.901C34.7268 108.411 40.5881 107.675 43.5947 103.692C43.7581 103.974 43.8598 104.286 43.8932 104.61C43.9267 104.933 43.8913 105.259 43.7891 105.568C43.6869 105.877 43.5204 106.161 43.3002 106.402C43.08 106.643 42.811 106.836 42.5106 106.969C45.4015 106.951 48.7297 106.701 50.3559 104.359C50.7583 105.285 50.8867 106.304 50.7262 107.298C50.5656 108.293 50.1227 109.222 49.4488 109.978C52.0001 110.092 54.7248 111.801 54.891 114.321C54.9994 115.999 53.937 117.587 52.5385 118.551C51.14 119.515 49.4524 119.954 47.7902 120.318C42.9406 121.382 25.3855 125.811 28.5511 116.081Z" fill="#333333"/>
<path d="M23.3787 136.793C24.3127 136.793 25.0699 135.391 25.0699 133.662C25.0699 131.933 24.3127 130.532 23.3787 130.532C22.4447 130.532 21.6875 131.933 21.6875 133.662C21.6875 135.391 22.4447 136.793 23.3787 136.793Z" fill="#FDB797"/>
<path d="M59.7303 136.793C60.6643 136.793 61.4214 135.391 61.4214 133.662C61.4214 131.933 60.6643 130.532 59.7303 130.532C58.7962 130.532 58.0391 131.933 58.0391 133.662C58.0391 135.391 58.7962 136.793 59.7303 136.793Z" fill="#FDB797"/>
<g opacity="0.5">
<path opacity="0.5" d="M240.508 176.849C263.637 176.849 282.386 158.33 282.386 135.484C282.386 112.639 263.637 94.119 240.508 94.119C217.379 94.119 198.629 112.639 198.629 135.484C198.629 158.33 217.379 176.849 240.508 176.849Z" fill="url(#paint5_linear)"/>
</g>
<path d="M240.505 175.75C263.145 175.75 281.498 157.622 281.498 135.26C281.498 112.897 263.145 94.7689 240.505 94.7689C217.865 94.7689 199.512 112.897 199.512 135.26C199.512 157.622 217.865 175.75 240.505 175.75Z" fill="#F5F5F5"/>
<path d="M240.621 175.871C248.632 175.884 256.469 173.568 263.156 169.211C261.645 161.059 255.896 160.591 255.896 160.591H224.197C224.197 160.591 218.777 161.03 217.078 168.533C223.97 173.321 232.195 175.885 240.621 175.871V175.871Z" fill="#404DEF"/>
<path opacity="0.1" d="M233.805 150.649H246.485V160.668C246.485 162.328 245.817 163.921 244.629 165.095C243.44 166.269 241.828 166.929 240.147 166.929V166.929C239.314 166.929 238.489 166.767 237.72 166.453C236.951 166.139 236.251 165.678 235.662 165.096C235.073 164.515 234.606 163.824 234.288 163.065C233.969 162.305 233.805 161.49 233.805 160.668V150.649Z" fill="black"/>
<path d="M235.015 150.183H245.274C245.595 150.183 245.903 150.309 246.13 150.534C246.357 150.758 246.485 151.062 246.485 151.379V160.203C246.485 161.863 245.817 163.455 244.629 164.63C243.44 165.804 241.828 166.463 240.147 166.463V166.463C239.314 166.464 238.489 166.302 237.72 165.988C236.951 165.673 236.251 165.212 235.662 164.631C235.073 164.049 234.606 163.359 234.288 162.599C233.969 161.839 233.805 161.025 233.805 160.203V151.379C233.805 151.062 233.932 150.758 234.159 150.534C234.386 150.309 234.694 150.183 235.015 150.183V150.183Z" fill="#FDB797"/>
<path opacity="0.1" d="M233.828 155.377C237.915 156.886 242.413 156.898 246.508 155.413V153.874H233.828V155.377Z" fill="black"/>
<path d="M240.189 156.217C250.225 156.217 258.362 148.181 258.362 138.267C258.362 128.354 250.225 120.317 240.189 120.317C230.152 120.317 222.016 128.354 222.016 138.267C222.016 148.181 230.152 156.217 240.189 156.217Z" fill="#FDB797"/>
<path d="M222.39 140.629C223.324 140.629 224.082 139.227 224.082 137.499C224.082 135.77 223.324 134.368 222.39 134.368C221.456 134.368 220.699 135.77 220.699 137.499C220.699 139.227 221.456 140.629 222.39 140.629Z" fill="#FDB797"/>
<path d="M257.89 140.629C258.824 140.629 259.582 139.227 259.582 137.499C259.582 135.77 258.824 134.368 257.89 134.368C256.956 134.368 256.199 135.77 256.199 137.499C256.199 139.227 256.956 140.629 257.89 140.629Z" fill="#FDB797"/>
<path d="M235.318 138.352H230.689C229.821 138.352 229.117 139.047 229.117 139.905V140.64C229.117 141.497 229.821 142.193 230.689 142.193H235.318C236.186 142.193 236.89 141.497 236.89 140.64V139.905C236.89 139.047 236.186 138.352 235.318 138.352Z" stroke="#333333" stroke-width="2" stroke-miterlimit="10"/>
<path d="M245.065 142.189H249.694C250.562 142.189 251.266 141.494 251.266 140.636V139.901C251.266 139.044 250.562 138.348 249.694 138.348H245.065C244.196 138.348 243.493 139.044 243.493 139.901V140.636C243.493 141.494 244.196 142.189 245.065 142.189Z" stroke="#333333" stroke-width="2" stroke-miterlimit="10"/>
<path d="M236.594 138.723C236.594 138.723 239.058 137.403 243.64 138.723" stroke="#333333" stroke-width="2" stroke-miterlimit="10"/>
<path d="M252.754 125.255L257.213 135.488C257.213 135.488 262.666 128.7 252.754 125.255Z" fill="#858585"/>
<path d="M251.266 140.272L257.922 134.401" stroke="#333333" stroke-width="2" stroke-linecap="round" stroke-linejoin="round"/>
<path d="M227.632 125.255L223.172 135.488C223.172 135.488 217.719 128.7 227.632 125.255Z" fill="#858585"/>
<path d="M229.118 140.272L222.371 134.401" stroke="#333333" stroke-width="2" stroke-linecap="round" stroke-linejoin="round"/>
<g opacity="0.5">
<path opacity="0.5" d="M42.1794 265.256C65.3084 265.256 84.0581 246.736 84.0581 223.891C84.0581 201.045 65.3084 182.526 42.1794 182.526C19.0505 182.526 0.300781 201.045 0.300781 223.891C0.300781 246.736 19.0505 265.256 42.1794 265.256Z" fill="url(#paint6_linear)"/>
</g>
<path d="M42.1769 264.156C64.8169 264.156 83.1702 246.028 83.1702 223.665C83.1702 201.303 64.8169 183.175 42.1769 183.175C19.5369 183.175 1.18359 201.303 1.18359 223.665C1.18359 246.028 19.5369 264.156 42.1769 264.156Z" fill="#F5F5F5"/>
<path d="M64.8556 227.308C64.8556 242.22 55.0048 258.821 42.8521 258.821C30.6994 258.821 20.8594 242.22 20.8594 227.308C20.8594 212.395 30.7102 204.821 42.8629 204.821C55.0157 204.821 64.8556 212.398 64.8556 227.308Z" fill="#FDD835"/>
<path d="M42.2933 264.283C50.3039 264.296 58.1413 261.979 64.828 257.622C63.3175 249.47 57.5682 249.002 57.5682 249.002H25.8728C25.8728 249.002 20.4523 249.441 18.7539 256.944C25.6452 261.732 33.868 264.295 42.2933 264.283Z" fill="#404DEF"/>
<path opacity="0.1" d="M35.4805 239.054H48.1608V249.074C48.1608 250.734 47.493 252.326 46.3043 253.501C45.1157 254.675 43.5035 255.334 41.8224 255.334C40.1414 255.334 38.5292 254.675 37.3405 253.501C36.1519 252.326 35.4841 250.734 35.4841 249.074V239.054H35.4805Z" fill="black"/>
<path d="M36.6913 238.589H46.9505C47.2716 238.589 47.5795 238.715 47.8065 238.939C48.0335 239.164 48.1611 239.468 48.1611 239.785V248.608C48.1611 250.269 47.4933 251.861 46.3046 253.035C45.1159 254.209 43.5038 254.869 41.8227 254.869V254.869C40.1417 254.869 38.5295 254.209 37.3408 253.035C36.1522 251.861 35.4844 250.269 35.4844 248.608V239.785C35.4844 239.468 35.6114 239.165 35.8377 238.941C36.0639 238.716 36.3709 238.59 36.6913 238.589Z" fill="#FDB797"/>
<path opacity="0.1" d="M35.5039 243.782C39.5905 245.291 44.089 245.304 48.1842 243.818V242.28H35.5039V243.782Z" fill="black"/>
<path d="M41.8645 244.621C51.9012 244.621 60.0376 236.585 60.0376 226.671C60.0376 216.757 51.9012 208.721 41.8645 208.721C31.8278 208.721 23.6914 216.757 23.6914 226.671C23.6914 236.585 31.8278 244.621 41.8645 244.621Z" fill="#FDB797"/>
<path d="M24.0662 229.035C25.0002 229.035 25.7574 227.634 25.7574 225.905C25.7574 224.176 25.0002 222.775 24.0662 222.775C23.1322 222.775 22.375 224.176 22.375 225.905C22.375 227.634 23.1322 229.035 24.0662 229.035Z" fill="#FDB797"/>
<path d="M59.5662 229.035C60.5002 229.035 61.2574 227.634 61.2574 225.905C61.2574 224.176 60.5002 222.775 59.5662 222.775C58.6322 222.775 57.875 224.176 57.875 225.905C57.875 227.634 58.6322 229.035 59.5662 229.035Z" fill="#FDB797"/>
<path opacity="0.1" d="M25.7617 216.934C25.7617 216.934 36.0353 230.822 59.5964 226.078C59.5964 226.078 62.2271 222.916 55.8237 213.207C49.4203 203.499 31.5905 205.08 25.7617 216.934Z" fill="black"/>
<path d="M25.7617 216.711C25.7617 216.711 36.0353 230.599 59.5964 225.855C59.5964 225.855 62.2271 222.693 55.8237 212.984C49.4203 203.276 31.5905 204.857 25.7617 216.711Z" fill="#FDD835"/>
<g opacity="0.5">
<path opacity="0.5" d="M141.668 269.999C164.797 269.999 183.546 251.48 183.546 228.634C183.546 205.789 164.797 187.269 141.668 187.269C118.539 187.269 99.7891 205.789 99.7891 228.634C99.7891 251.48 118.539 269.999 141.668 269.999Z" fill="url(#paint7_linear)"/>
</g>
<path d="M141.747 268.861C164.387 268.861 182.741 250.733 182.741 228.37C182.741 206.008 164.387 187.88 141.747 187.88C119.107 187.88 100.754 206.008 100.754 228.37C100.754 250.733 119.107 268.861 141.747 268.861Z" fill="#F5F5F5"/>
<path d="M164.301 232.361C164.301 245.832 154.505 252.46 141.781 252.46C129.057 252.46 118.234 245.832 118.234 232.361C118.234 218.891 128.548 207.972 141.268 207.972C153.988 207.972 164.301 218.88 164.301 232.361Z" fill="#333333"/>
<path d="M141.782 269.022C149.793 269.035 157.632 266.719 164.32 262.361C162.809 254.209 157.06 253.741 157.06 253.741H125.361C125.361 253.741 119.941 254.18 118.242 261.683C125.133 266.471 133.356 269.034 141.782 269.022Z" fill="#404DEF"/>
<path opacity="0.1" d="M134.968 243.787H147.648V253.806C147.65 254.63 147.486 255.447 147.167 256.208C146.849 256.97 146.381 257.662 145.79 258.245C145.2 258.828 144.499 259.289 143.728 259.604C142.957 259.918 142.13 260.079 141.295 260.077V260.077C139.614 260.077 138.002 259.418 136.813 258.244C135.625 257.069 134.957 255.477 134.957 253.817V243.787H134.968Z" fill="black"/>
<path d="M136.175 243.334H146.434C146.755 243.334 147.063 243.46 147.29 243.684C147.517 243.908 147.645 244.213 147.645 244.53V253.353C147.645 254.176 147.48 254.991 147.161 255.751C146.842 256.512 146.374 257.202 145.784 257.784C145.195 258.365 144.495 258.826 143.724 259.14C142.954 259.454 142.129 259.615 141.295 259.614V259.614C139.614 259.614 138.002 258.954 136.813 257.78C135.625 256.606 134.957 255.013 134.957 253.353V244.526C134.957 244.209 135.085 243.905 135.312 243.681C135.539 243.456 135.847 243.33 136.168 243.33L136.175 243.334Z" fill="#FDA57D"/>
<path opacity="0.1" d="M134.992 248.527C139.079 250.036 143.577 250.048 147.673 248.563V247.024H134.992V248.527Z" fill="black"/>
<path d="M141.353 249.362C151.389 249.362 159.526 241.326 159.526 231.412C159.526 221.498 151.389 213.462 141.353 213.462C131.316 213.462 123.18 221.498 123.18 231.412C123.18 241.326 131.316 249.362 141.353 249.362Z" fill="#FDA57D"/>
<path opacity="0.1" d="M120.406 232.586C120.406 232.586 131.724 231.23 140.281 220.394C140.281 220.394 151.599 232.701 159.484 231.344C159.484 231.344 164.056 226.601 159.484 221.861C154.913 217.12 151.368 211.135 145.312 211.923C139.255 212.712 131.822 213.051 128.624 215.875C125.426 218.698 120.406 232.586 120.406 232.586Z" fill="black"/>
<path d="M120.406 232.361C120.406 232.361 131.724 231.005 140.281 220.169C140.281 220.169 151.599 232.476 159.484 231.119C159.484 231.119 164.056 226.376 159.484 221.636C154.913 216.895 151.368 210.91 145.312 211.698C139.255 212.487 131.836 212.812 128.638 215.668C125.44 218.523 120.406 232.361 120.406 232.361Z" fill="#333333"/>
<path d="M123.172 234.528C124.106 234.528 124.863 233.127 124.863 231.398C124.863 229.669 124.106 228.268 123.172 228.268C122.238 228.268 121.48 229.669 121.48 231.398C121.48 233.127 122.238 234.528 123.172 234.528Z" fill="#FDA57D"/>
<path d="M159.523 234.528C160.457 234.528 161.214 233.127 161.214 231.398C161.214 229.669 160.457 228.268 159.523 228.268C158.589 228.268 157.832 229.669 157.832 231.398C157.832 233.127 158.589 234.528 159.523 234.528Z" fill="#FDA57D"/>
</g>
<defs>
<linearGradient id="paint0_linear" x1="42.1794" y1="84.9443" x2="42.1794" y2="2.21744" gradientUnits="userSpaceOnUse">
<stop stop-color="#808080" stop-opacity="0.25"/>
<stop offset="0.54" stop-color="#808080" stop-opacity="0.12"/>
<stop offset="1" stop-color="#808080" stop-opacity="0.1"/>
</linearGradient>
<linearGradient id="paint1_linear" x1="32350.5" y1="40647.5" x2="32350.5" y2="21473.1" gradientUnits="userSpaceOnUse">
<stop stop-color="#808080" stop-opacity="0.25"/>
<stop offset="0.54" stop-color="#808080" stop-opacity="0.12"/>
<stop offset="1" stop-color="#808080" stop-opacity="0.1"/>
</linearGradient>
<linearGradient id="paint2_linear" x1="32341.3" y1="19217.6" x2="32341.3" y2="42.3744" gradientUnits="userSpaceOnUse">
<stop stop-color="#808080" stop-opacity="0.25"/>
<stop offset="0.54" stop-color="#808080" stop-opacity="0.12"/>
<stop offset="1" stop-color="#808080" stop-opacity="0.1"/>
</linearGradient>
<linearGradient id="paint3_linear" x1="55579.9" y1="19174.4" x2="55579.9" y2="0" gradientUnits="userSpaceOnUse">
<stop stop-color="#808080" stop-opacity="0.25"/>
<stop offset="0.54" stop-color="#808080" stop-opacity="0.12"/>
<stop offset="1" stop-color="#808080" stop-opacity="0.1"/>
</linearGradient>
<linearGradient id="paint4_linear" x1="9706.64" y1="40016.9" x2="9706.64" y2="20842.5" gradientUnits="userSpaceOnUse">
<stop stop-color="#808080" stop-opacity="0.25"/>
<stop offset="0.54" stop-color="#808080" stop-opacity="0.12"/>
<stop offset="1" stop-color="#808080" stop-opacity="0.1"/>
</linearGradient>
<linearGradient id="paint5_linear" x1="55943.3" y1="41084.5" x2="55943.3" y2="21910.1" gradientUnits="userSpaceOnUse">
<stop stop-color="#808080" stop-opacity="0.25"/>
<stop offset="0.54" stop-color="#808080" stop-opacity="0.12"/>
<stop offset="1" stop-color="#808080" stop-opacity="0.1"/>
</linearGradient>
<linearGradient id="paint6_linear" x1="9776.46" y1="61663.7" x2="9776.46" y2="42489.2" gradientUnits="userSpaceOnUse">
<stop stop-color="#808080" stop-opacity="0.25"/>
<stop offset="0.54" stop-color="#808080" stop-opacity="0.12"/>
<stop offset="1" stop-color="#808080" stop-opacity="0.1"/>
</linearGradient>
<linearGradient id="paint7_linear" x1="32935.2" y1="62767.9" x2="32935.2" y2="43593.4" gradientUnits="userSpaceOnUse">
<stop stop-color="#808080" stop-opacity="0.25"/>
<stop offset="0.54" stop-color="#808080" stop-opacity="0.12"/>
<stop offset="1" stop-color="#808080" stop-opacity="0.1"/>
</linearGradient>
<clipPath id="clip0">
<rect width="282.382" height="270" fill="white"/>
</clipPath>
</defs>
</svg>
