<svg width="243" height="146" viewBox="0 0 243 146" fill="none" xmlns="http://www.w3.org/2000/svg">
<g clip-path="url(#clip0)">
<path d="M165.318 83.3475L167.401 82.9881C167.601 82.9532 167.8 82.9106 167.999 82.8744C164.701 80.8319 162.198 77.7309 160.9 74.0808C159.602 70.4308 159.587 66.4488 160.857 62.7892C162.128 59.1296 164.608 56.0099 167.891 53.9428C171.173 51.8757 175.063 50.9841 178.921 51.4145L176.19 57.8985L182.66 52.2614C182.675 52.2651 182.69 52.2701 182.704 52.2761C184.823 53.0207 186.774 54.1744 188.446 55.6713C190.118 57.1682 191.478 58.9791 192.449 61.0004C193.419 63.0218 193.981 65.2141 194.102 67.4522C194.224 69.6902 193.902 71.9302 193.156 74.0442C193.047 74.3517 192.919 74.6452 192.795 74.9423C194.622 74.0266 196.374 72.9605 197.803 71.5956C200.696 68.8296 202.281 65.0127 204.052 60.3101C207.562 50.9914 210.94 41.5377 214.184 32.0634C210.607 30.1317 207.836 26.9905 206.371 23.2039C204.906 19.4174 204.842 15.2337 206.191 11.4043C206.364 10.9117 206.566 10.4373 206.779 9.97133C206.833 9.85472 206.886 9.73886 206.942 9.62393C207.159 9.17723 207.388 8.73957 207.639 8.31954C207.68 8.25069 207.726 8.18625 207.768 8.11814C207.987 7.76399 208.218 7.42033 208.46 7.08714C208.551 6.96205 208.641 6.8373 208.734 6.71518C209.009 6.35643 209.294 6.00734 209.594 5.67408C209.695 5.56257 209.801 5.45838 209.904 5.34975C210.135 5.10689 210.372 4.87135 210.615 4.64315C210.743 4.52301 210.87 4.40201 211.002 4.28613C211.036 4.2564 211.067 4.22395 211.101 4.19446C211.103 4.19664 211.104 4.19897 211.106 4.20112C214.119 1.58136 217.957 0.0977674 221.952 0.00821127C225.948 -0.0813449 229.849 1.22879 232.977 3.71091L229.423 12.1487L235.82 6.57868C238.058 9.42445 239.327 12.9095 239.441 16.5254C239.555 20.1413 238.507 23.6989 236.452 26.6791C236.458 26.6812 236.464 26.6828 236.47 26.6849C236.4 26.7873 236.321 26.881 236.249 26.9816C236.114 27.1704 235.976 27.3558 235.835 27.5379C235.653 27.7714 235.464 27.9971 235.271 28.2197C235.126 28.3877 234.983 28.5571 234.831 28.7187C234.61 28.9551 234.378 29.179 234.144 29.4016C234.008 29.5314 233.877 29.6678 233.737 29.7929C233.369 30.1206 232.989 30.4316 232.596 30.7258C232.458 30.8288 232.312 30.9197 232.172 31.0184C231.896 31.2121 231.618 31.403 231.332 31.5798C231.154 31.6894 230.971 31.7897 230.79 31.8927C230.527 32.042 230.262 32.1867 229.992 32.3219C229.801 32.4177 229.608 32.5086 229.413 32.5973C229.135 32.7234 228.854 32.8404 228.571 32.9517C228.38 33.0263 228.191 33.1019 227.997 33.1698C227.679 33.2818 227.356 33.379 227.03 33.4722C226.866 33.5192 226.705 33.5731 226.539 33.6152C226.051 33.7393 225.558 33.845 225.059 33.926C224.965 33.9413 224.87 33.947 224.775 33.9607C224.362 34.0208 223.946 34.0692 223.527 34.0988C223.347 34.1115 223.165 34.1133 222.985 34.1203C222.646 34.1335 222.307 34.1402 221.966 34.1329C221.767 34.1287 221.568 34.1184 221.369 34.1072C221.037 34.0885 220.704 34.0596 220.372 34.0207C220.175 33.9979 219.979 33.9754 219.782 33.9457C219.426 33.8917 219.07 33.8212 218.714 33.7439C218.69 33.7388 218.667 33.7358 218.644 33.7306C217.274 37.7277 215.88 41.7162 214.46 45.6961C216.192 44.1424 218.223 42.9581 220.43 42.216C222.637 41.4739 224.973 41.1895 227.294 41.3804C229.615 41.5713 231.873 42.2334 233.928 43.3261C235.983 44.4188 237.793 45.919 239.247 47.7347L233.333 54.2601L241.34 51.0709C243.285 55.1401 243.531 59.8133 242.024 64.0635C241.502 65.557 240.771 66.9691 239.851 68.2578C237.873 71.0498 235.1 73.1842 231.891 74.3842C228.682 75.5843 225.185 75.7945 221.855 74.9877C218.525 74.181 215.514 72.3943 213.214 69.8597C210.914 67.325 209.43 64.1592 208.956 60.7729C208.805 61.1739 208.66 61.5799 208.509 61.9805C206.946 66.1292 205.001 71.2921 201.096 75.0248C198.448 77.5549 195.191 79.1601 192.066 80.5172C190.031 81.4008 187.969 82.2177 185.88 82.9679C183.558 84.3728 180.934 85.2072 178.225 85.4021C174.929 86.3156 171.591 87.0783 168.222 87.6671L166.121 88.0284C164.234 88.3511 162.298 88.6833 160.377 89.0661C160.653 89.148 160.93 89.2261 161.205 89.3227C164.629 90.5249 167.58 92.7819 169.634 95.7675C171.687 98.7532 172.736 102.313 172.628 105.932L159.458 109.966L171.375 111.854C170.285 114.527 168.534 116.881 166.285 118.695C164.036 120.51 161.362 121.726 158.514 122.23C155.666 122.735 152.737 122.511 149.999 121.579C147.262 120.647 144.805 119.038 142.86 116.903C142.981 117.307 143.102 117.711 143.224 118.114C143.466 118.915 143.706 119.712 143.937 120.501C147.073 131.251 145.723 139.708 140.136 144.312L137.104 140.651C142.542 136.169 140.855 126.934 139.366 121.827C139.14 121.053 138.904 120.27 138.666 119.483C136.624 112.713 134.308 105.04 137.307 97.9886C141.826 87.3608 154.852 85.1355 165.318 83.3475Z" fill="#F2F2F2"/>
<path d="M161.458 145.691H69.1842C66.1582 145.691 63.2562 144.492 61.1166 142.357C58.9769 140.222 57.7749 137.326 57.7749 134.307V92.1276C57.7749 91.515 57.9 90.9089 58.1425 90.3462C58.385 89.7835 58.7398 89.276 59.1853 88.8546L108.081 42.61C110.036 40.7611 112.627 39.7305 115.321 39.7305C118.015 39.7305 120.606 40.7611 122.561 42.61L169.18 86.7018C170.345 87.8032 171.272 89.1298 171.906 90.6007C172.54 92.0715 172.867 93.6558 172.867 95.2569V134.307C172.867 135.802 172.572 137.282 171.999 138.664C171.425 140.045 170.585 141.3 169.525 142.357C168.466 143.414 167.208 144.252 165.824 144.824C164.44 145.396 162.956 145.691 161.458 145.691V145.691Z" fill="#3F3D56"/>
<path opacity="0.1" d="M57.7749 92.8203H171.908V138.817C171.908 140.64 171.182 142.389 169.89 143.678C168.598 144.967 166.846 145.691 165.019 145.691H64.6642C62.837 145.691 61.0847 144.967 59.7927 143.678C58.5007 142.389 57.7749 140.64 57.7749 138.817V92.8203V92.8203Z" fill="black"/>
<path d="M151.364 56.5762H79.0383C75.5713 56.5762 72.7607 59.3804 72.7607 62.8396V135.002C72.7607 138.461 75.5713 141.265 79.0383 141.265H151.364C154.831 141.265 157.641 138.461 157.641 135.002V62.8396C157.641 59.3804 154.831 56.5762 151.364 56.5762Z" fill="#404DEF"/>
<path opacity="0.1" d="M157.641 94.7227V141.266H72.7607V94.7227L115.201 115.189L157.641 94.7227Z" fill="black"/>
<path d="M115.201 117.82L60.8216 91.5963C60.4852 91.4341 60.1131 91.3598 59.7401 91.3803C59.367 91.4008 59.0053 91.5155 58.6889 91.7135C58.3724 91.9116 58.1115 92.1866 57.9307 92.5128C57.7499 92.839 57.655 93.2056 57.655 93.5783V138.698C57.655 139.601 57.8332 140.494 58.1794 141.328C58.5257 142.162 59.0331 142.92 59.6729 143.558C60.3126 144.197 61.0721 144.703 61.9079 145.048C62.7437 145.394 63.6396 145.572 64.5443 145.572H165.858C166.763 145.572 167.658 145.394 168.494 145.048C169.33 144.703 170.09 144.197 170.729 143.558C171.369 142.92 171.876 142.162 172.223 141.328C172.569 140.494 172.747 139.601 172.747 138.698V94.3513C172.747 93.8964 172.631 93.449 172.411 93.051C172.19 92.653 171.872 92.3174 171.486 92.0757C171.099 91.834 170.658 91.6941 170.203 91.6691C169.748 91.644 169.294 91.7347 168.883 91.9327L115.201 117.82Z" fill="#3F3D56"/>
<path d="M103.812 64.3516H80.074V67.7008H103.812V64.3516Z" fill="#F2F2F2"/>
<path d="M148.65 76.5527H78.1558V78.4666H148.65V76.5527Z" fill="#F2F2F2"/>
<path d="M148.65 83.0117H78.1558V84.9256H148.65V83.0117Z" fill="#F2F2F2"/>
<path d="M148.65 89.4707H78.1558V91.3846H148.65V89.4707Z" fill="#F2F2F2"/>
<path d="M14.6152 145.572H212.19" stroke="#3F3D56" stroke-miterlimit="10"/>
<path d="M0 116.113C0 130.219 8.86894 141.632 19.8293 141.632Z" fill="#46455B"/>
<path d="M19.8293 141.63C19.8293 127.366 29.7266 115.824 41.9576 115.824Z" fill="#404DEF"/>
<path d="M7.18457 117.391C7.18457 130.789 12.8401 141.631 19.8293 141.631Z" fill="#404DEF"/>
<path d="M19.8293 141.632C19.8293 123.406 31.269 108.658 45.4062 108.658Z" fill="#46455B"/>
<path d="M15.6577 141.813C15.6577 141.813 18.4698 141.727 19.3173 141.124C20.1648 140.522 23.6431 139.803 23.8533 140.769C24.0636 141.735 28.0794 145.572 24.9045 145.597C21.7297 145.623 17.5276 145.104 16.6817 144.59C15.8358 144.076 15.6577 141.813 15.6577 141.813Z" fill="#A8A8A8"/>
<path opacity="0.2" d="M24.9612 145.259C21.7863 145.284 17.5842 144.765 16.7384 144.251C16.0942 143.86 15.8375 142.455 15.7516 141.807C15.6921 141.809 15.6577 141.81 15.6577 141.81C15.6577 141.81 15.8358 144.073 16.6817 144.587C17.5276 145.101 21.7297 145.62 24.9045 145.595C25.821 145.587 26.1376 145.262 26.1202 144.78C25.9929 145.071 25.6433 145.253 24.9612 145.259Z" fill="black"/>
<path d="M172.569 38.9393C172.425 40.2203 171.446 41.2521 171.083 42.4893C170.537 44.3514 171.481 46.3495 172.773 47.7997C173.816 48.9576 175.078 49.8975 176.487 50.565C177.896 51.2325 179.424 51.6143 180.982 51.6884C181.439 51.7285 181.9 51.6784 182.339 51.5408C182.73 51.3837 183.082 51.1435 183.371 50.8368C184.344 49.8622 184.866 48.5118 185.074 47.152C185.283 45.7923 185.202 44.407 185.12 43.0339C185.121 42.7501 185.069 42.4686 184.968 42.2033C184.835 41.9506 184.653 41.7271 184.432 41.5461C183.732 40.905 182.96 40.3459 182.133 39.8795C181.759 39.7122 181.429 39.4604 181.169 39.1439C181.013 38.8727 180.911 38.5734 180.871 38.2632L180.617 36.9716C180.572 36.5993 180.444 36.2418 180.244 35.9246C179.795 35.3206 178.937 35.2384 178.184 35.2089L175.425 35.1009C174.567 35.0673 173.437 34.8218 172.599 34.99C171.817 35.147 172.076 35.8662 172.219 36.5211C172.425 37.3117 172.542 38.1228 172.569 38.9393V38.9393Z" fill="#A0616A"/>
<path opacity="0.1" d="M172.569 38.9393C172.425 40.2203 171.446 41.2521 171.083 42.4893C170.537 44.3514 171.481 46.3495 172.773 47.7997C173.816 48.9576 175.078 49.8975 176.487 50.565C177.896 51.2325 179.424 51.6143 180.982 51.6884C181.439 51.7285 181.9 51.6784 182.339 51.5408C182.73 51.3837 183.082 51.1435 183.371 50.8368C184.344 49.8622 184.866 48.5118 185.074 47.152C185.283 45.7923 185.202 44.407 185.12 43.0339C185.121 42.7501 185.069 42.4686 184.968 42.2033C184.835 41.9506 184.653 41.7271 184.432 41.5461C183.732 40.905 182.96 40.3459 182.133 39.8795C181.759 39.7122 181.429 39.4604 181.169 39.1439C181.013 38.8727 180.911 38.5734 180.871 38.2632L180.617 36.9716C180.572 36.5993 180.444 36.2418 180.244 35.9246C179.795 35.3206 178.937 35.2384 178.184 35.2089L175.425 35.1009C174.567 35.0673 173.437 34.8218 172.599 34.99C171.817 35.147 172.076 35.8662 172.219 36.5211C172.425 37.3117 172.542 38.1228 172.569 38.9393V38.9393Z" fill="black"/>
<path d="M190.118 96.5974C189.727 100.873 189.336 105.148 188.946 109.422C188.64 112.786 188.328 116.164 187.728 119.484C187.52 120.628 187.278 121.767 186.989 122.895C186.188 126.029 185.025 129.091 184.65 132.303C184.639 132.396 184.629 132.49 184.619 132.585C184.577 133.295 184.442 133.997 184.218 134.672C184.031 135.163 183.742 135.61 183.539 136.094C183.134 137.063 183.081 138.135 183.032 139.184C181.608 138.386 180.05 137.854 178.435 137.617C177.655 137.501 176.786 137.418 176.255 136.837C175.667 136.195 175.732 135.212 175.831 134.349C176.141 131.671 176.45 128.994 176.759 126.318C176.86 125.167 177.056 124.026 177.345 122.907C177.452 122.535 177.58 122.169 177.71 121.802C177.89 121.298 178.071 120.794 178.208 120.276C178.404 119.439 178.541 118.589 178.618 117.733C178.936 115.039 179.319 112.351 179.654 109.659L179.672 109.517C180.176 105.436 180.559 101.336 180.448 97.2257C180.432 96.6171 180.407 96.0086 180.367 95.3981C180.312 94.5138 180.231 94.0451 180.965 93.4917C181.776 92.8811 182.844 92.4538 183.772 92.054C184.271 91.8373 189.771 89.8896 189.899 90.3169C190.157 91.2285 190.292 92.1703 190.302 93.1175C190.306 94.28 190.244 95.4418 190.118 96.5974Z" fill="#605D82"/>
<path opacity="0.1" d="M187.728 119.485C187.52 120.629 187.278 121.767 186.989 122.896C186.188 126.029 185.025 129.092 184.65 132.304C184.639 132.396 184.629 132.491 184.619 132.586C182.167 129.092 180.103 125.334 177.71 121.803C177.89 121.299 178.071 120.795 178.208 120.277C178.404 119.44 178.541 118.59 178.618 117.734C178.936 115.04 179.319 112.352 179.654 109.659L179.672 109.518C179.813 110.089 180.013 110.644 180.27 111.174C181.877 114.431 185.695 116.078 187.562 119.195C187.619 119.292 187.674 119.388 187.728 119.485Z" fill="black"/>
<path d="M167.835 90.8429C167.916 93.4555 168.335 96.0446 168.753 98.6249L169.616 103.949C170.089 106.862 170.58 109.836 171.962 112.445C172.996 114.398 174.486 116.063 175.833 117.815C179.146 122.121 181.634 126.998 184.775 131.43C185.688 132.719 186.993 134.112 188.552 133.843C189.574 133.666 190.317 132.817 191.121 132.162C192.069 131.39 193.211 130.824 193.956 129.857C194.702 128.889 194.848 127.28 193.838 126.591C193.472 126.389 193.084 126.231 192.682 126.119C191.116 125.525 190.102 123.999 189.457 122.456C188.812 120.913 188.421 119.254 187.562 117.819C185.695 114.701 181.877 113.055 180.269 109.796C179.369 107.971 179.284 105.868 179.215 103.835L179.039 98.6523C179.02 98.0856 179.005 97.4962 179.236 96.9781C179.851 95.5986 181.707 95.4701 183.21 95.2953C184.916 95.0958 186.568 94.5756 188.08 93.7623C188.945 93.2959 189.791 92.7013 190.254 91.8353C190.677 91.0452 190.735 90.1185 190.785 89.2243L191.305 79.8325C191.35 79.0245 191.39 78.189 191.105 77.4316C190.388 75.5295 187.981 74.908 185.947 74.9988C182.161 75.1676 178.665 76.7926 175.096 77.8899C174.211 78.1682 173.314 78.4018 172.406 78.5899C171.605 78.7503 170.635 78.6838 169.871 78.9408C168.512 79.3979 168.547 82.3629 168.354 83.5928C167.956 85.9882 167.782 88.4153 167.835 90.8429V90.8429Z" fill="#605D82"/>
<path d="M188.037 134.236C188.371 134.572 188.48 135.064 188.567 135.529C189.05 138.109 189.301 140.726 189.317 143.351C189.295 143.595 189.344 143.841 189.458 144.059C189.552 144.189 189.679 144.291 189.827 144.355C190.792 144.814 191.912 144.174 192.716 143.472C194.206 142.169 195.467 140.42 195.552 138.445C195.537 137.936 195.554 137.427 195.606 136.921C195.737 136.177 196.172 135.529 196.555 134.878C197.208 133.77 197.734 132.593 198.125 131.368C198.271 130.908 198.369 130.329 198.007 130.007C197.879 129.907 197.734 129.832 197.578 129.785L193.219 128.17C192.841 128.03 191.901 130.439 191.752 130.702C191.387 131.346 191.024 131.712 190.292 131.861C189.545 132.013 188.656 131.795 187.958 132.167C186.779 132.796 187.37 133.564 188.037 134.236Z" fill="#535070"/>
<path d="M181.312 135.723C181.231 135.562 181.118 135.419 180.98 135.303C180.778 135.175 180.549 135.097 180.311 135.076C179.481 134.936 178.498 134.843 177.925 135.458C177.388 136.035 177.48 136.975 177.031 137.623C176.889 137.828 176.697 137.997 176.573 138.213C176.42 138.545 176.351 138.909 176.373 139.273C176.349 140.277 176.326 141.282 176.396 142.283C176.454 143.123 176.596 144.002 177.122 144.66C177.966 145.715 179.489 145.867 180.84 145.935L181.935 145.991C182.236 146.027 182.542 145.999 182.832 145.909C183.011 145.826 183.172 145.708 183.305 145.562C183.438 145.416 183.54 145.245 183.606 145.059C184.175 143.646 183.273 142.124 182.717 140.705C182.078 139.075 182.193 137.264 181.312 135.723Z" fill="#535070"/>
<path d="M172.252 31.7212C172.239 31.578 172.26 31.4336 172.314 31.3001C172.474 31.0173 172.893 31.0943 173.209 31.1737C174.479 31.4932 175.817 31.204 177.124 31.2786C178.432 31.3533 179.905 32.0055 180.168 33.2857C181.117 32.6144 181.935 31.7756 182.582 30.8108C182.945 30.2689 183.261 29.6482 183.212 28.9984C183.141 28.0611 182.352 27.3601 181.623 26.7656L179.447 24.9936C179.162 24.7318 178.832 24.5226 178.473 24.3757C177.971 24.2045 177.423 24.2861 176.892 24.2864C175.308 24.2874 173.62 23.5683 172.211 24.2907C171.623 24.5924 171.18 25.1095 170.753 25.6137L168.812 27.907C168.665 28.0532 168.559 28.2338 168.501 28.4322C168.446 28.7121 168.59 28.9883 168.64 29.2692C168.732 29.7815 168.511 30.3283 168.681 30.8203C168.963 31.637 169.957 31.7527 170.565 32.2209C170.791 32.3954 171.146 32.9869 171.416 32.9797C171.903 32.9666 172.24 32.0986 172.252 31.7212Z" fill="#3F3D56"/>
<path d="M175.547 38.4836C178.981 38.4836 181.765 35.7061 181.765 32.2799C181.765 28.8537 178.981 26.0762 175.547 26.0762C172.113 26.0762 169.329 28.8537 169.329 32.2799C169.329 35.7061 172.113 38.4836 175.547 38.4836Z" fill="#A0616A"/>
<path d="M177.003 45.8558C176.792 45.2529 176.394 44.7327 175.867 44.3707C175.34 44.0086 174.711 43.8236 174.071 43.8424C173.888 43.8764 173.699 43.8525 173.53 43.7742C173.434 43.701 173.358 43.6059 173.308 43.4969C172.93 42.8185 172.626 42.1016 172.401 41.3585C172.302 41.0301 172.166 40.643 171.833 40.5576C171.695 40.5396 171.555 40.5594 171.428 40.6147C171.3 40.67 171.19 40.7589 171.11 40.8717C170.951 41.099 170.779 41.3157 170.592 41.5204C169.81 42.2181 168.424 41.5822 167.594 42.2222C167.458 42.3268 167.347 42.4607 167.204 42.5558C167.062 42.6414 166.908 42.7071 166.748 42.7511C165.145 43.2732 163.574 43.8872 162.042 44.59C162.594 47.9074 163.16 51.2827 164.454 54.3878C165.07 55.8654 165.767 57.3126 166.261 58.8354C167.353 62.2095 167.402 65.8196 167.414 69.3654C167.422 71.7922 167.41 74.2709 166.623 76.5671C166.412 77.0746 166.263 77.6058 166.179 78.1492C166.132 78.6963 166.291 79.2997 166.736 79.6239C166.993 79.792 167.288 79.8952 167.594 79.9248C168.958 80.1244 170.332 79.7623 171.675 79.4521C175.274 78.6206 178.944 78.1448 182.607 77.6702L188.745 76.875C189.185 76.8452 189.616 76.7342 190.015 76.5476C191.138 75.934 191.245 74.2482 190.547 73.1767C190.213 72.663 189.741 72.2416 189.46 71.697C189.179 71.1524 189.155 70.3908 189.639 70.0136C190.623 69.2463 190.329 67.8227 190.376 66.5776C190.508 63.0962 190.49 59.6134 190.323 56.1292C190.274 55.408 190.262 54.6847 190.288 53.9622C190.397 52.738 190.624 51.5271 190.965 50.3462L192.831 43.019C192.343 42.2508 191.41 41.7634 190.527 41.5421C189.643 41.3208 188.722 41.2557 187.852 40.9866C186.069 40.4353 184.482 39.0364 182.62 39.1667C182.479 39.1693 182.34 39.203 182.214 39.2655C181.794 39.5029 181.86 40.1068 181.834 40.5876C181.774 41.6515 180.99 42.5406 180.124 43.164C179.258 43.7874 178.269 44.2419 177.473 44.9529C177.332 45.0588 177.217 45.1949 177.136 45.3511C177.054 45.5074 177.009 45.6798 177.003 45.8558V45.8558Z" fill="#400186"/>
<path d="M152.366 52.8058C151.954 53.0727 151.516 53.2977 151.058 53.4772C150.611 53.6101 150.187 53.815 149.806 54.0838C149.63 54.2357 149.482 54.4175 149.37 54.6209C149.159 54.9933 149.053 55.4152 149.062 55.8427C149.07 56.2701 149.194 56.6874 149.42 57.0509C149.645 57.4145 149.964 57.711 150.344 57.9094C150.723 58.1079 151.149 58.2011 151.577 58.1792C152.146 58.1157 152.699 57.9512 153.21 57.6937L157.595 55.7976C158.337 55.4767 159.139 55.1006 159.49 54.3733C159.531 54.3055 159.546 54.2253 159.533 54.1472C159.497 54.0647 159.433 53.9977 159.352 53.9583C158.363 53.3173 157.498 52.5035 156.799 51.5558C156.619 51.3121 156.399 50.7366 156.144 50.5905C155.216 50.0571 153.109 52.3247 152.366 52.8058Z" fill="#A0616A"/>
<path d="M199.249 51.25L200.866 53.0928C201.213 53.4884 201.56 53.8845 201.877 54.3049C202.654 55.3733 203.277 56.5449 203.729 57.7856C204.08 58.7058 204.372 59.6859 204.249 60.6629C204.167 61.1638 204.032 61.6544 203.845 62.1262C203.548 63.0336 203.181 63.9164 202.746 64.7663C202.38 65.4121 201.967 66.0299 201.51 66.6149C200.258 68.2702 198.888 69.8335 197.411 71.2924C196.858 71.8384 196.626 72.7211 196.386 73.4591C195.942 74.8203 194.886 75.8804 193.865 76.8857C193.537 77.2315 193.174 77.5429 192.782 77.8152C192.196 78.1922 191.51 78.387 190.812 78.3749C190.507 78.3771 190.204 78.3146 189.925 78.1917C189.226 77.8606 188.871 77.0543 188.798 76.2858C188.733 75.5884 188.85 74.8861 189.138 74.2474C190.066 72.1967 192.448 71.3081 194.132 69.8119C195.12 68.9346 195.875 67.8325 196.62 66.7424C197.126 66.0618 197.548 65.3232 197.878 64.5423C198.254 63.541 198.108 62.3557 198.436 61.3379C198.575 60.9077 198.822 60.5192 198.971 60.0925C199.121 59.6658 199.158 59.1593 198.897 58.79C198.7 58.5553 198.449 58.3718 198.165 58.2553C197.089 57.7105 195.884 57.0094 195.678 55.8233C195.596 55.1655 195.769 54.5013 196.16 53.9658C196.55 53.4374 197.006 52.9607 197.517 52.5472C197.987 52.1321 198.778 51.6651 199.249 51.25Z" fill="#A0616A"/>
<path d="M151.328 55.378C151.043 54.8026 150.686 54.2156 150.11 53.9295C149.831 53.8085 149.529 53.7454 149.225 53.7442C148.921 53.7429 148.619 53.8034 148.339 53.9221C147.78 54.1624 147.257 54.4779 146.784 54.8599L145.391 55.8849C145.075 56.0917 144.795 56.3491 144.563 56.6469C144.343 57.008 144.197 57.4089 144.132 57.8265C143.889 58.7789 143.815 59.7664 143.913 60.7443C144.134 62.3124 145.082 63.6813 146.125 64.8749C146.776 65.6207 147.581 66.3734 148.572 66.4052C149 66.4189 149.476 66.2507 149.654 65.8622C149.716 65.7082 149.748 65.5442 149.751 65.3784C149.858 63.6294 149.231 61.9211 148.499 60.328C148.266 59.9108 148.128 59.4474 148.096 58.9708C148.091 58.8906 148.111 58.8109 148.155 58.7435C148.218 58.6781 148.303 58.637 148.393 58.6276C149.394 58.4301 151.118 59.2059 151.82 58.0969C152.275 57.3781 151.652 56.0299 151.328 55.378Z" fill="#A0616A"/>
<path d="M171.926 29.7701C171.913 29.6268 171.934 29.4824 171.988 29.349C172.148 29.0661 172.567 29.1431 172.882 29.2225C174.152 29.542 175.491 29.2528 176.798 29.3275C178.106 29.4021 179.579 30.0543 179.842 31.3346C180.791 30.6632 181.609 29.8244 182.256 28.8596C182.619 28.3177 182.935 27.6971 182.886 27.0472C182.814 26.1099 182.026 25.4089 181.296 24.8145L179.121 23.0425C178.835 22.7806 178.506 22.5714 178.147 22.4246C177.644 22.2533 177.097 22.3349 176.566 22.3352C174.982 22.3362 173.294 21.6172 171.885 22.3395C171.297 22.6413 170.854 23.1584 170.427 23.6626L168.485 25.9558C168.339 26.102 168.232 26.2826 168.175 26.481C168.12 26.7609 168.264 27.0372 168.314 27.318C168.406 27.8303 168.185 28.3771 168.355 28.8691C168.637 29.6859 169.631 29.8015 170.239 30.2698C170.465 30.4443 170.82 31.0357 171.09 31.0285C171.577 31.0155 171.913 30.1475 171.926 29.7701Z" fill="#3F3D56"/>
<path d="M158.72 46.7718C158.469 46.9333 158.249 47.138 158.069 47.3763C157.841 47.7202 157.795 48.1543 157.599 48.5174C157.18 49.2943 156.2 49.5707 155.589 50.2081C155.491 50.2957 155.424 50.4113 155.395 50.5388C155.392 50.7118 155.451 50.8803 155.56 51.0148L158.508 55.6396C159.49 55.7258 160.432 55.1122 161.414 55.1936C161.78 55.224 162.156 55.3504 162.507 55.2423C162.759 55.1309 162.995 54.9869 163.209 54.8141C163.795 54.4444 164.575 54.4014 165.067 53.9137C165.539 53.4456 165.599 52.7134 165.593 52.0496C165.601 51.4732 165.542 50.8978 165.418 50.3348C164.984 48.5596 163.623 47.1974 162.77 45.6249C162.355 44.8594 162.129 44.4112 161.25 44.9369C160.366 45.4652 159.552 46.1651 158.72 46.7718Z" fill="#400186"/>
<path d="M194.529 44.434C195.083 44.793 195.582 45.2296 196.012 45.7303C196.461 46.3082 196.715 47.0154 197.147 47.6065C197.565 48.1795 198.134 48.6233 198.609 49.1509C199.328 49.9511 199.815 50.9273 200.294 51.8904C199.125 53.4113 197.851 54.8484 196.48 56.1911C196.328 56.3705 196.127 56.5023 195.901 56.5709C195.748 56.5872 195.593 56.5653 195.45 56.5072C195.307 56.449 195.181 56.3565 195.082 56.2379C194.87 56.0156 194.719 55.7416 194.516 55.5108C194.037 55.0176 193.399 54.7095 192.714 54.6409C192.035 54.5755 191.352 54.5661 190.671 54.6129C190.522 54.6295 190.371 54.6041 190.235 54.5397C190.134 54.4702 190.053 54.3766 189.997 54.2674C189.199 52.9121 189.456 51.2104 189.737 49.6637L190.384 46.1146C190.477 45.4368 190.658 44.7738 190.922 44.1421C191.166 43.6201 191.714 42.735 192.387 42.8913C193.065 43.0488 193.958 44.0244 194.529 44.434Z" fill="#400186"/>
<path d="M76.2375 67.7368C81.6669 67.7368 86.0683 63.3374 86.0683 57.9104C86.0683 52.4834 81.6669 48.084 76.2375 48.084C70.8081 48.084 66.4067 52.4834 66.4067 57.9104C66.4067 63.3374 70.8081 67.7368 76.2375 67.7368Z" fill="white"/>
<path d="M76.2375 46.4082C73.9138 46.4082 71.6422 47.0957 69.7101 48.3838C67.778 49.6719 66.2721 51.5027 65.3829 53.6447C64.4936 55.7867 64.2609 58.1437 64.7143 60.4176C65.1676 62.6915 66.2866 64.7803 67.9297 66.4197C69.5729 68.0591 71.6663 69.1756 73.9454 69.6279C76.2245 70.0802 78.5868 69.8481 80.7337 68.9608C82.8805 68.0736 84.7154 66.5711 86.0064 64.6433C87.2974 62.7156 87.9865 60.4492 87.9865 58.1307C87.9774 55.0245 86.7366 52.0481 84.5352 49.8517C82.3338 47.6553 79.3507 46.4173 76.2375 46.4082V46.4082ZM73.8256 64.3808L67.8042 58.373L69.4931 56.6879L73.8312 61.0162L82.9875 51.8806L84.6764 53.5657L73.8256 64.3808L73.8256 64.3808Z" fill="#57B894"/>
</g>
<defs>
<clipPath id="clip0">
<rect width="243" height="146" fill="white"/>
</clipPath>
</defs>
</svg>
