<svg width="231" height="122" viewBox="0 0 231 122" fill="none" xmlns="http://www.w3.org/2000/svg">
<g clip-path="url(#clip0)">
<path d="M202.018 106.893C195.987 106.84 189.966 106.399 183.992 105.572C183.782 105.543 183.573 105.511 183.363 105.482L183.678 49.0445C183.887 48.8788 184.098 48.7157 184.311 48.5577C185.017 48.0308 185.743 47.5369 186.495 47.0836C190.114 44.9046 194.352 43.9071 197.275 44.9067L197.321 44.9246C197.961 45.1404 198.552 45.4804 199.06 45.9252C201.628 48.2044 201.2 52.8126 199.128 56.9946C203.236 53.2437 208.421 50.257 213.049 50.03C217.563 49.8075 220.787 52.1662 223.528 54.7244C223.618 54.8083 223.706 54.8922 223.794 54.9762C223.84 55.0169 223.883 55.0601 223.928 55.1007C226.016 57.0967 228.075 59.4236 227.826 62.7917C227.552 66.4857 224.456 70.5811 220.848 73.4527C217.242 76.3243 213.147 78.2325 209.149 80.1667C205.154 82.1034 201.057 84.1988 197.643 87.3066C202.971 83.0973 209.033 79.7035 214.929 78.4498C220.824 77.1962 226.487 78.2995 229.264 82.0509C230.081 83.1899 230.613 84.5077 230.816 85.8943C230.843 86.0561 230.864 86.2205 230.884 86.3875C231.279 89.8603 230.077 94.0067 227.204 97.5346C224.041 101.42 219.351 104.113 214.899 105.454C210.447 106.794 206.161 106.936 202.018 106.893Z" fill="#F2F2F2"/>
<path d="M183.562 69.9685L183.568 68.8893C183.782 68.5467 183.994 68.2024 184.203 67.8565C184.338 67.6424 184.469 67.4257 184.601 67.209C186.789 63.6293 188.888 60.0272 190.897 56.4028C192.908 52.7816 194.827 49.1422 196.652 45.4846C196.695 45.3877 196.769 45.3086 196.864 45.2611C196.959 45.2136 197.067 45.2007 197.17 45.2246C197.183 45.2286 197.196 45.2346 197.208 45.2426C197.304 45.2936 197.343 45.4077 197.261 45.5741C197.036 46.0227 196.811 46.4739 196.581 46.9225C194.724 50.5901 192.774 54.2419 190.732 57.878C188.691 61.5116 186.559 65.1245 184.337 68.7166C184.292 68.7922 184.243 68.8678 184.197 68.9433C183.985 69.2859 183.773 69.626 183.562 69.9685Z" fill="white"/>
<path d="M183.484 83.8843L183.487 83.2169C183.698 83.0664 183.909 82.9185 184.12 82.768C189.082 79.2317 194.045 75.6961 199.007 72.1613C207.132 66.3726 215.256 60.5857 223.381 54.8004C223.424 54.7661 223.474 54.7406 223.528 54.7254C223.708 54.6759 223.813 54.8079 223.795 54.9772C223.784 55.0485 223.759 55.1169 223.72 55.1777C223.682 55.2385 223.63 55.2903 223.57 55.3298C219.014 58.5752 214.459 61.8198 209.906 65.0637C201.823 70.8222 193.74 76.5799 185.658 82.3368C185.145 82.703 184.629 83.0692 184.116 83.4354C183.905 83.5859 183.694 83.7364 183.484 83.8843Z" fill="white"/>
<path d="M187.362 98.7507C186.236 98.7167 185.129 98.6423 184.031 98.545C183.822 98.5262 183.612 98.5074 183.402 98.4885L183.406 97.7883C183.616 97.8097 183.825 97.8311 184.035 97.8499C185.621 97.9979 187.224 98.1029 188.87 98.1171C193.436 98.1357 197.991 97.6911 202.467 96.7902C207.285 95.8325 212.012 94.4574 216.592 92.6805C221.423 90.8155 226.096 88.567 230.567 85.9565C230.64 85.9073 230.728 85.8854 230.816 85.8947C231.015 85.9235 231.075 86.1892 230.884 86.3879C230.846 86.4271 230.804 86.4609 230.757 86.4882C230.201 86.8112 229.643 87.1283 229.084 87.4395C224.588 89.9538 219.898 92.1058 215.06 93.8752C210.465 95.5606 205.731 96.8425 200.913 97.7066C196.444 98.5159 191.903 98.8658 187.362 98.7507V98.7507Z" fill="white"/>
<path d="M181.798 2.87303e-09H28.2557C27.6709 0.000531444 27.1102 0.232927 26.6966 0.646173C26.2831 1.05942 26.0506 1.61975 26.05 2.20416V106.174C26.0506 106.758 26.2831 107.318 26.6966 107.732C27.1102 108.145 27.6709 108.377 28.2557 108.378H181.798C182.117 108.378 182.432 108.309 182.722 108.175C183.011 108.042 183.268 107.847 183.475 107.604C183.493 107.585 183.509 107.565 183.523 107.544C183.655 107.383 183.762 107.203 183.839 107.01C183.95 106.745 184.007 106.461 184.006 106.174V2.20417C184.006 1.61935 183.773 1.0587 183.359 0.645402C182.945 0.232105 182.383 -2.98191e-05 181.798 2.87303e-09V2.87303e-09ZM183.377 106.174C183.377 106.481 183.286 106.782 183.116 107.038C182.965 107.264 182.76 107.448 182.519 107.574C182.296 107.689 182.049 107.749 181.798 107.748H28.2557C27.8379 107.748 27.4374 107.582 27.142 107.287C26.8465 106.991 26.6803 106.591 26.6798 106.174V2.20417C26.6803 1.78667 26.8465 1.38642 27.142 1.0912C27.4374 0.795984 27.8379 0.629909 28.2557 0.629403H181.798C182.216 0.629349 182.617 0.795162 182.913 1.09043C183.209 1.38569 183.376 1.78626 183.377 2.20417V106.174Z" fill="#3F3D56"/>
<path d="M183.69 8.83398H26.3643V9.46409H183.69V8.83398Z" fill="#3F3D56"/>
<path d="M31.7242 6.61464C32.769 6.61464 33.6159 5.76831 33.6159 4.72431C33.6159 3.68031 32.769 2.83398 31.7242 2.83398C30.6795 2.83398 29.8325 3.68031 29.8325 4.72431C29.8325 5.76831 30.6795 6.61464 31.7242 6.61464Z" fill="#3F3D56"/>
<path d="M37.1627 6.61464C38.2074 6.61464 39.0544 5.76831 39.0544 4.72431C39.0544 3.68031 38.2074 2.83398 37.1627 2.83398C36.1179 2.83398 35.271 3.68031 35.271 4.72431C35.271 5.76831 36.1179 6.61464 37.1627 6.61464Z" fill="#3F3D56"/>
<path d="M42.6014 6.61464C43.6462 6.61464 44.4931 5.76831 44.4931 4.72431C44.4931 3.68031 43.6462 2.83398 42.6014 2.83398C41.5567 2.83398 40.7097 3.68031 40.7097 4.72431C40.7097 5.76831 41.5567 6.61464 42.6014 6.61464Z" fill="#3F3D56"/>
<path d="M144.513 23.4197H65.5914C64.7192 23.4197 63.8828 23.0735 63.2661 22.4572C62.6494 21.841 62.303 21.0052 62.303 20.1337C62.303 19.2622 62.6494 18.4264 63.2661 17.8101C63.8828 17.1939 64.7192 16.8477 65.5914 16.8477H144.513C145.385 16.8477 146.221 17.1939 146.838 17.8101C147.455 18.4264 147.801 19.2622 147.801 20.1337C147.801 21.0052 147.455 21.841 146.838 22.4572C146.221 23.0735 145.385 23.4197 144.513 23.4197ZM65.5914 17.3532C64.8534 17.3532 64.1457 17.6461 63.6239 18.1676C63.102 18.689 62.8089 19.3962 62.8089 20.1337C62.8089 20.8711 63.102 21.5783 63.6239 22.0998C64.1457 22.6212 64.8534 22.9141 65.5914 22.9141H144.513C145.251 22.9141 145.958 22.6212 146.48 22.0998C147.002 21.5783 147.295 20.8711 147.295 20.1337C147.295 19.3962 147.002 18.689 146.48 18.1676C145.958 17.6461 145.251 17.3532 144.513 17.3532H65.5914Z" fill="#3F3D56"/>
<path d="M66.2508 43.515H59.1682C58.6315 43.515 58.1167 43.302 57.7372 42.9227C57.3577 42.5435 57.1445 42.0292 57.1445 41.4929C57.1445 40.9566 57.3577 40.4422 57.7372 40.063C58.1167 39.6838 58.6315 39.4707 59.1682 39.4707H66.2508C66.7875 39.4707 67.3022 39.6838 67.6818 40.063C68.0613 40.4422 68.2745 40.9566 68.2745 41.4929C68.2745 42.0292 68.0613 42.5435 67.6818 42.9227C67.3022 43.302 66.7875 43.515 66.2508 43.515Z" fill="#CCCCCC"/>
<path d="M74.5983 50.3392H59.1682C58.6315 50.3392 58.1167 50.1262 57.7372 49.747C57.3577 49.3677 57.1445 48.8534 57.1445 48.3171C57.1445 47.7808 57.3577 47.2664 57.7372 46.8872C58.1167 46.508 58.6315 46.2949 59.1682 46.2949H74.5983C75.135 46.2949 75.6497 46.508 76.0292 46.8872C76.4087 47.2664 76.6219 47.7808 76.6219 48.3171C76.6219 48.8534 76.4087 49.3677 76.0292 49.747C75.6497 50.1262 75.135 50.3392 74.5983 50.3392Z" fill="#CCCCCC"/>
<path d="M67.5155 73.3412H60.4328C59.8961 73.3412 59.3814 73.1281 59.0019 72.7489C58.6224 72.3697 58.4092 71.8553 58.4092 71.319C58.4092 70.7827 58.6224 70.2684 59.0019 69.8892C59.3814 69.5099 59.8961 69.2969 60.4328 69.2969H67.5155C68.0522 69.2969 68.5669 69.5099 68.9464 69.8892C69.3259 70.2684 69.5391 70.7827 69.5391 71.319C69.5391 71.8553 69.3259 72.3697 68.9464 72.7489C68.5669 73.1281 68.0522 73.3412 67.5155 73.3412Z" fill="#CCCCCC"/>
<path d="M75.8629 80.1654H60.4328C59.8961 80.1654 59.3814 79.9524 59.0019 79.5731C58.6224 79.1939 58.4092 78.6796 58.4092 78.1433C58.4092 77.6069 58.6224 77.0926 59.0019 76.7134C59.3814 76.3341 59.8961 76.1211 60.4328 76.1211H75.8629C76.3996 76.1211 76.9143 76.3341 77.2938 76.7134C77.6733 77.0926 77.8865 77.6069 77.8865 78.1433C77.8865 78.6796 77.6733 79.1939 77.2938 79.5731C76.9143 79.9524 76.3996 80.1654 75.8629 80.1654Z" fill="#CCCCCC"/>
<path d="M114.059 72.5834H106.976C106.44 72.5834 105.925 72.3703 105.545 71.9911C105.166 71.6119 104.953 71.0975 104.953 70.5612C104.953 70.0249 105.166 69.5106 105.545 69.1313C105.925 68.7521 106.44 68.5391 106.976 68.5391H114.059C114.596 68.5391 115.11 68.7521 115.49 69.1313C115.869 69.5106 116.083 70.0249 116.083 70.5612C116.083 71.0975 115.869 71.6119 115.49 71.9911C115.11 72.3703 114.596 72.5834 114.059 72.5834Z" fill="#CCCCCC"/>
<path d="M122.406 79.4076H106.976C106.44 79.4076 105.925 79.1946 105.545 78.8153C105.166 78.4361 104.953 77.9218 104.953 77.3854C104.953 76.8491 105.166 76.3348 105.545 75.9556C105.925 75.5763 106.44 75.3633 106.976 75.3633H122.406C122.943 75.3633 123.458 75.5763 123.837 75.9556C124.217 76.3348 124.43 76.8491 124.43 77.3854C124.43 77.9218 124.217 78.4361 123.837 78.8153C123.458 79.1946 122.943 79.4076 122.406 79.4076Z" fill="#CCCCCC"/>
<path d="M113.3 44.7787H106.217C105.681 44.7787 105.166 44.5657 104.786 44.1864C104.407 43.8072 104.194 43.2928 104.194 42.7565C104.194 42.2202 104.407 41.7059 104.786 41.3267C105.166 40.9474 105.681 40.7344 106.217 40.7344H113.3C113.837 40.7344 114.351 40.9474 114.731 41.3267C115.11 41.7059 115.324 42.2202 115.324 42.7565C115.324 43.2928 115.11 43.8072 114.731 44.1864C114.351 44.5657 113.837 44.7787 113.3 44.7787Z" fill="#CCCCCC"/>
<path d="M121.647 51.6029H106.217C105.681 51.6029 105.166 51.3899 104.786 51.0106C104.407 50.6314 104.194 50.1171 104.194 49.5808C104.194 49.0444 104.407 48.5301 104.786 48.1509C105.166 47.7716 105.681 47.5586 106.217 47.5586H121.647C122.184 47.5586 122.699 47.7716 123.078 48.1509C123.458 48.5301 123.671 49.0444 123.671 49.5808C123.671 50.1171 123.458 50.6314 123.078 51.0106C122.699 51.3899 122.184 51.6029 121.647 51.6029Z" fill="#CCCCCC"/>
<path d="M160.602 43.2611H153.519C152.983 43.2611 152.468 43.0481 152.089 42.6688C151.709 42.2896 151.496 41.7753 151.496 41.239C151.496 40.7026 151.709 40.1883 152.089 39.8091C152.468 39.4299 152.983 39.2168 153.519 39.2168H160.602C161.139 39.2168 161.654 39.4299 162.033 39.8091C162.413 40.1883 162.626 40.7026 162.626 41.239C162.626 41.7753 162.413 42.2896 162.033 42.6688C161.654 43.0481 161.139 43.2611 160.602 43.2611Z" fill="#CCCCCC"/>
<path d="M168.95 50.0873H153.519C152.983 50.0873 152.468 49.8742 152.089 49.495C151.709 49.1158 151.496 48.6014 151.496 48.0651C151.496 47.5288 151.709 47.0145 152.089 46.6353C152.468 46.256 152.983 46.043 153.519 46.043H168.95C169.486 46.043 170.001 46.256 170.38 46.6353C170.76 47.0145 170.973 47.5288 170.973 48.0651C170.973 48.6014 170.76 49.1158 170.38 49.495C170.001 49.8742 169.486 50.0873 168.95 50.0873Z" fill="#CCCCCC"/>
<path d="M46.6718 52.4885C50.8629 52.4885 54.2604 49.0934 54.2604 44.9054C54.2604 40.7173 50.8629 37.3223 46.6718 37.3223C42.4808 37.3223 39.0833 40.7173 39.0833 44.9054C39.0833 49.0934 42.4808 52.4885 46.6718 52.4885Z" fill="#404DEF"/>
<path d="M50.2131 48.317H43.1304C42.9292 48.3168 42.7364 48.2368 42.5941 48.0947C42.4518 47.9525 42.3718 47.7597 42.3716 47.5587V42.2505C42.3718 42.0495 42.4518 41.8567 42.5941 41.7145C42.7364 41.5724 42.9292 41.4924 43.1304 41.4922H45.1243C45.254 41.4917 45.3816 41.5247 45.4948 41.5879C45.608 41.6511 45.703 41.7424 45.7706 41.853L46.3267 42.756H50.2131C50.4143 42.7563 50.6072 42.8362 50.7495 42.9784C50.8917 43.1206 50.9718 43.3133 50.972 43.5144V47.5587C50.9718 47.7597 50.8917 47.9525 50.7495 48.0947C50.6072 48.2368 50.4143 48.3168 50.2131 48.317V48.317ZM43.1304 41.9977C43.0634 41.9978 42.9991 42.0245 42.9517 42.0719C42.9043 42.1192 42.8776 42.1835 42.8775 42.2505V47.5587C42.8776 47.6257 42.9043 47.6899 42.9517 47.7373C42.9991 47.7847 43.0634 47.8114 43.1304 47.8115H50.2131C50.2802 47.8114 50.3445 47.7847 50.3919 47.7373C50.4393 47.6899 50.466 47.6257 50.4661 47.5587V43.5144C50.466 43.4473 50.4393 43.3831 50.3919 43.3357C50.3445 43.2883 50.2802 43.2617 50.2131 43.2616H46.0441L45.3398 42.1179C45.3173 42.0811 45.2856 42.0507 45.2478 42.0296C45.2101 42.0085 45.1675 41.9976 45.1243 41.9977H43.1304Z" fill="white"/>
<path d="M93.215 53.7521C97.4061 53.7521 100.804 50.3571 100.804 46.169C100.804 41.981 97.4061 38.5859 93.215 38.5859C89.024 38.5859 85.6265 41.981 85.6265 46.169C85.6265 50.3571 89.024 53.7521 93.215 53.7521Z" fill="#404DEF"/>
<path d="M96.5033 50.9705H89.9266C89.7254 50.9703 89.5325 50.8903 89.3902 50.7481C89.248 50.606 89.1679 50.4132 89.1677 50.2122V42.1235C89.1679 41.9225 89.248 41.7297 89.3902 41.5876C89.5325 41.4454 89.7254 41.3655 89.9266 41.3652H94.692C94.8649 41.3654 95.0326 41.4244 95.1674 41.5325L96.9786 42.9869C97.0673 43.0577 97.1389 43.1477 97.188 43.25C97.2371 43.3524 97.2625 43.4645 97.2622 43.578V50.2122C97.262 50.4132 97.182 50.606 97.0397 50.7481C96.8974 50.8903 96.7045 50.9703 96.5033 50.9705V50.9705ZM89.9266 41.8708C89.8595 41.8709 89.7952 41.8975 89.7478 41.9449C89.7004 41.9923 89.6737 42.0565 89.6736 42.1235V50.2122C89.6737 50.2792 89.7004 50.3434 89.7478 50.3908C89.7952 50.4382 89.8595 50.4649 89.9266 50.465H96.5033C96.5704 50.4649 96.6347 50.4382 96.6821 50.3908C96.7295 50.3434 96.7562 50.2792 96.7563 50.2122V43.578C96.7564 43.5401 96.7479 43.5028 96.7316 43.4687C96.7152 43.4346 96.6914 43.4046 96.6618 43.381L94.8504 41.9264C94.8055 41.8904 94.7496 41.8708 94.692 41.8708H89.9266Z" fill="white"/>
<path d="M95.2387 44.9059H91.1914C91.1243 44.9059 91.06 44.8793 91.0126 44.8319C90.9651 44.7845 90.9385 44.7202 90.9385 44.6532C90.9385 44.5861 90.9651 44.5218 91.0126 44.4744C91.06 44.427 91.1243 44.4004 91.1914 44.4004H95.2387C95.3058 44.4004 95.3701 44.427 95.4175 44.4744C95.465 44.5218 95.4916 44.5861 95.4916 44.6532C95.4916 44.7202 95.465 44.7845 95.4175 44.8319C95.3701 44.8793 95.3058 44.9059 95.2387 44.9059Z" fill="white"/>
<path d="M95.2387 46.4216H91.1914C91.1243 46.4216 91.06 46.3949 91.0126 46.3475C90.9651 46.3001 90.9385 46.2358 90.9385 46.1688C90.9385 46.1017 90.9651 46.0375 91.0126 45.99C91.06 45.9426 91.1243 45.916 91.1914 45.916H95.2387C95.3058 45.916 95.3701 45.9426 95.4175 45.99C95.465 46.0375 95.4916 46.1017 95.4916 46.1688C95.4916 46.2358 95.465 46.3001 95.4175 46.3475C95.3701 46.3949 95.3058 46.4216 95.2387 46.4216Z" fill="white"/>
<path d="M95.2387 47.9372H91.1914C91.1243 47.9372 91.06 47.9105 91.0126 47.8631C90.9651 47.8157 90.9385 47.7514 90.9385 47.6844C90.9385 47.6174 90.9651 47.5531 91.0126 47.5057C91.06 47.4583 91.1243 47.4316 91.1914 47.4316H95.2387C95.3058 47.4316 95.3701 47.4583 95.4175 47.5057C95.465 47.5531 95.4916 47.6174 95.4916 47.6844C95.4916 47.7514 95.465 47.8157 95.4175 47.8631C95.3701 47.9105 95.3058 47.9372 95.2387 47.9372Z" fill="white"/>
<path d="M140.011 52.2346C144.202 52.2346 147.6 48.8395 147.6 44.6515C147.6 40.4634 144.202 37.0684 140.011 37.0684C135.82 37.0684 132.423 40.4634 132.423 44.6515C132.423 48.8395 135.82 52.2346 140.011 52.2346Z" fill="#404DEF"/>
<path d="M143.552 47.432H136.47C136.269 47.4318 136.076 47.3519 135.933 47.2097C135.791 47.0675 135.711 46.8748 135.711 46.6737V42.6294C135.711 42.4284 135.791 42.2356 135.933 42.0934C136.076 41.9513 136.269 41.8713 136.47 41.8711H143.552C143.754 41.8713 143.947 41.9513 144.089 42.0934C144.231 42.2356 144.311 42.4284 144.311 42.6294V46.6737C144.311 46.8748 144.231 47.0675 144.089 47.2097C143.947 47.3519 143.754 47.4318 143.552 47.432V47.432ZM136.47 42.3766C136.403 42.3767 136.338 42.4034 136.291 42.4507C136.244 42.4981 136.217 42.5624 136.217 42.6294V46.6737C136.217 46.7407 136.244 46.805 136.291 46.8524C136.338 46.8998 136.403 46.9264 136.47 46.9265H143.552C143.62 46.9264 143.684 46.8998 143.731 46.8524C143.779 46.805 143.805 46.7407 143.805 46.6737V42.6294C143.805 42.5624 143.779 42.4981 143.731 42.4507C143.684 42.4034 143.62 42.3767 143.552 42.3766H136.47Z" fill="white"/>
<path d="M140.011 45.3185C139.869 45.3187 139.73 45.2791 139.609 45.2041L135.83 42.8439C135.773 42.8083 135.733 42.7516 135.718 42.6864C135.703 42.6211 135.714 42.5525 135.75 42.4958C135.785 42.439 135.842 42.3986 135.907 42.3835C135.973 42.3684 136.041 42.3798 136.098 42.4151L139.877 44.7754C139.918 44.8003 139.964 44.8135 140.011 44.8135C140.059 44.8135 140.105 44.8003 140.145 44.7754L143.924 42.4151C143.981 42.3798 144.05 42.3684 144.115 42.3835C144.18 42.3986 144.237 42.439 144.273 42.4958C144.308 42.5525 144.32 42.6211 144.305 42.6864C144.29 42.7516 144.249 42.8083 144.193 42.8439L140.414 45.2041C140.293 45.2791 140.153 45.3188 140.011 45.3185V45.3185Z" fill="white"/>
<path d="M46.6718 82.3147C50.8629 82.3147 54.2604 78.9196 54.2604 74.7315C54.2604 70.5435 50.8629 67.1484 46.6718 67.1484C42.4808 67.1484 39.0833 70.5435 39.0833 74.7315C39.0833 78.9196 42.4808 82.3147 46.6718 82.3147Z" fill="#404DEF"/>
<path d="M50.2131 77.5121H43.1304C42.9292 77.5119 42.7364 77.4319 42.5941 77.2898C42.4518 77.1476 42.3718 76.9548 42.3716 76.7538V72.7095C42.3718 72.5084 42.4518 72.3157 42.5941 72.1735C42.7364 72.0314 42.9292 71.9514 43.1304 71.9512H50.2131C50.4143 71.9514 50.6072 72.0314 50.7495 72.1735C50.8917 72.3157 50.9718 72.5084 50.972 72.7095V76.7538C50.9718 76.9548 50.8917 77.1476 50.7495 77.2898C50.6072 77.4319 50.4143 77.5119 50.2131 77.5121ZM43.1304 72.4567C43.0634 72.4568 42.9991 72.4834 42.9516 72.5308C42.9042 72.5782 42.8776 72.6425 42.8775 72.7095V76.7538C42.8776 76.8208 42.9042 76.8851 42.9516 76.9325C42.9991 76.9798 43.0634 77.0065 43.1304 77.0066H50.2131C50.2802 77.0065 50.3445 76.9798 50.3919 76.9325C50.4393 76.8851 50.466 76.8208 50.4661 76.7538V72.7095C50.466 72.6425 50.4393 72.5782 50.3919 72.5308C50.3445 72.4834 50.2802 72.4568 50.2131 72.4567H43.1304Z" fill="white"/>
<path d="M49.0905 77.5128H44.0001C43.9113 77.5128 43.824 77.4895 43.7471 77.4451C43.6702 77.4008 43.6063 77.3369 43.5619 77.2601C43.5175 77.1832 43.4941 77.096 43.4941 77.0073C43.4942 76.9185 43.5176 76.8313 43.562 76.7545L45.0953 74.1004C45.1397 74.0236 45.2036 73.9598 45.2805 73.9154C45.3574 73.871 45.4446 73.8477 45.5334 73.8477C45.6222 73.8477 45.7095 73.871 45.7864 73.9154C45.8633 73.9598 45.9272 74.0236 45.9716 74.1004L46.9619 75.8145L47.5356 74.8215C47.58 74.7446 47.6439 74.6808 47.7208 74.6364C47.7977 74.592 47.885 74.5687 47.9738 74.5687C48.0626 74.5687 48.1498 74.592 48.2267 74.6364C48.3037 74.6808 48.3675 74.7446 48.4119 74.8215L49.5287 76.7545C49.5731 76.8314 49.5965 76.9185 49.5965 77.0073C49.5965 77.096 49.5731 77.1832 49.5287 77.2601C49.4843 77.3369 49.4204 77.4007 49.3435 77.4451C49.2666 77.4895 49.1793 77.5128 49.0905 77.5128H49.0905ZM49.0905 77.0073L47.9737 75.0742L47.181 76.4464C47.1588 76.4849 47.1269 76.5168 47.0884 76.539C47.05 76.5612 47.0063 76.5728 46.9619 76.5728V76.5728C46.9175 76.5728 46.8739 76.5612 46.8354 76.539C46.7969 76.5168 46.765 76.4849 46.7428 76.4464L45.5335 74.3532L44.0001 77.0073H49.0905Z" fill="white"/>
<path d="M49.4541 73.974C49.7336 73.974 49.9601 73.7476 49.9601 73.4684C49.9601 73.1892 49.7336 72.9629 49.4541 72.9629C49.1747 72.9629 48.9482 73.1892 48.9482 73.4684C48.9482 73.7476 49.1747 73.974 49.4541 73.974Z" fill="white"/>
<path d="M93.7209 81.5568C97.912 81.5568 101.31 78.1618 101.31 73.9737C101.31 69.7857 97.912 66.3906 93.7209 66.3906C89.5299 66.3906 86.1323 69.7857 86.1323 73.9737C86.1323 78.1618 89.5299 81.5568 93.7209 81.5568Z" fill="#404DEF"/>
<path d="M93.7209 74.1006C93.2707 74.1006 92.8305 73.9672 92.4561 73.7172C92.0817 73.4673 91.7899 73.112 91.6176 72.6963C91.4453 72.2806 91.4002 71.8232 91.4881 71.3819C91.5759 70.9406 91.7927 70.5352 92.1111 70.2171C92.4295 69.8989 92.8352 69.6823 93.2768 69.5945C93.7184 69.5067 94.1761 69.5518 94.5921 69.7239C95.0081 69.8961 95.3637 70.1877 95.6138 70.5618C95.864 70.9359 95.9975 71.3758 95.9975 71.8257C95.9968 72.4288 95.7567 73.0071 95.33 73.4336C94.9032 73.8601 94.3245 74.1 93.7209 74.1006V74.1006ZM93.7209 70.0563C93.3707 70.0563 93.0284 70.1601 92.7372 70.3545C92.446 70.5489 92.219 70.8253 92.085 71.1486C91.951 71.4719 91.9159 71.8277 91.9843 72.1709C92.0526 72.5141 92.2212 72.8294 92.4689 73.0768C92.7165 73.3243 93.032 73.4928 93.3755 73.5611C93.7189 73.6294 94.075 73.5943 94.3985 73.4604C94.7221 73.3265 94.9986 73.0997 95.1932 72.8087C95.3878 72.5177 95.4916 72.1757 95.4916 71.8257C95.491 71.3566 95.3043 70.9069 94.9724 70.5752C94.6404 70.2435 94.1904 70.0569 93.7209 70.0563Z" fill="white"/>
<path d="M95.7446 78.397H91.6973C91.4626 78.3967 91.2376 78.3034 91.0716 78.1376C90.9057 77.9717 90.8123 77.7469 90.812 77.5123C90.812 76.7414 91.1185 76.002 91.664 75.4569C92.2096 74.9117 92.9495 74.6055 93.721 74.6055C94.4925 74.6055 95.2324 74.9117 95.7779 75.4569C96.3234 76.002 96.6299 76.7414 96.6299 77.5123C96.6296 77.7469 96.5363 77.9717 96.3703 78.1376C96.2043 78.3034 95.9793 78.3967 95.7446 78.397ZM93.721 75.111C93.0839 75.1117 92.4731 75.365 92.0226 75.8151C91.5721 76.2653 91.3186 76.8757 91.3179 77.5123C91.318 77.6128 91.358 77.7092 91.4292 77.7803C91.5003 77.8514 91.5967 77.8914 91.6973 77.8915H95.7446C95.8452 77.8914 95.9416 77.8514 96.0128 77.7803C96.0839 77.7092 96.1239 77.6128 96.124 77.5123C96.1233 76.8757 95.8699 76.2653 95.4194 75.8151C94.9689 75.365 94.3581 75.1117 93.721 75.111V75.111Z" fill="white"/>
<path d="M20.4732 119.105H23.5744L25.0496 107.152L20.4727 107.153L20.4732 119.105Z" fill="#FFB8B8"/>
<path d="M29.5554 121.982L19.809 121.983L19.8088 118.22L25.7896 118.22C26.7883 118.22 27.7461 118.616 28.4524 119.322C29.1586 120.027 29.5554 120.984 29.5554 121.982V121.982L29.5554 121.982Z" fill="#2F2E41"/>
<path d="M8.83742 119.105H11.9386L13.4138 107.152L8.83691 107.153L8.83742 119.105Z" fill="#FFB8B8"/>
<path d="M17.9194 121.982L8.17298 121.983L8.1728 118.22L14.1536 118.22C15.1523 118.22 16.1101 118.616 16.8164 119.322C17.5226 120.027 17.9194 120.984 17.9194 121.982V121.982L17.9194 121.982Z" fill="#2F2E41"/>
<path d="M9.21621 83.5038C9.55032 83.2891 9.83325 83.0037 10.0451 82.6679C10.2569 82.332 10.3924 81.9539 10.4422 81.56C10.4919 81.1662 10.4546 80.7662 10.3329 80.3883C10.2112 80.0104 10.0081 79.6638 9.73786 79.3728L11.7798 50.416L5.89791 50.986L5.73635 79.3435C5.27729 79.8296 5.0126 80.467 4.99245 81.1351C4.9723 81.8031 5.19809 82.4554 5.62703 82.9682C6.05597 83.481 6.65827 83.8188 7.31978 83.9175C7.98129 84.0162 8.65606 83.8691 9.21623 83.5038H9.21621Z" fill="#FFB8B8"/>
<path d="M20.5657 113.084C20.2874 113.083 20.0191 112.981 19.811 112.796C19.6028 112.612 19.4693 112.358 19.4353 112.082L17.6327 97.0159C17.6073 96.8038 17.506 96.608 17.3474 96.4647C17.1889 96.3214 16.9837 96.2403 16.77 96.2363C16.5562 96.2324 16.3482 96.3059 16.1845 96.4432C16.0207 96.5806 15.9122 96.7725 15.879 96.9836L13.6083 111.409C13.5672 111.677 13.431 111.921 13.2246 112.098C13.0183 112.274 12.7554 112.37 12.4838 112.369H8.80336C8.65315 112.369 8.50443 112.34 8.36577 112.282C8.2271 112.224 8.10124 112.14 7.99543 112.033C7.88962 111.926 7.80595 111.8 7.74926 111.661C7.69256 111.522 7.66395 111.373 7.66507 111.223L9.42164 79.2391C9.42229 78.9668 9.52123 78.7039 9.7003 78.4986C9.87937 78.2934 10.1265 78.1596 10.3964 78.1218L24.0542 76.1407C24.2165 76.1172 24.382 76.129 24.5392 76.1753C24.6965 76.2216 24.842 76.3013 24.9656 76.4089C25.0892 76.5166 25.1881 76.6497 25.2555 76.799C25.3229 76.9484 25.3572 77.1106 25.356 77.2744L25.1178 111.792C25.1158 112.083 25.0023 112.362 24.8006 112.572C24.599 112.782 24.3245 112.906 24.0337 112.92L20.6197 113.083C20.6016 113.084 20.5836 113.084 20.5657 113.084Z" fill="#FD4C6F"/>
<path d="M13.4848 80.4476C12.1711 80.4425 10.8681 80.2107 9.63339 79.7623C9.42408 79.6853 9.24228 79.548 9.11093 79.3679C8.97957 79.1877 8.90453 78.9727 8.89527 78.75C8.77744 76.1371 8.08813 62.688 6.0813 54.4843C5.69124 52.875 5.78664 51.1864 6.35547 49.6312C6.9243 48.076 7.9411 46.7239 9.27773 45.7452C9.38568 45.6677 9.49573 45.5916 9.60788 45.5169C10.7685 44.7448 12.1076 44.2823 13.4977 44.1734C14.8877 44.0645 16.2826 44.3129 17.5495 44.8948C18.8582 45.48 19.9954 46.3902 20.8528 47.5386C21.7101 48.687 22.2591 50.0356 22.4475 51.456L25.7201 75.7348C25.7411 75.8866 25.7311 76.041 25.6906 76.1888C25.6501 76.3366 25.58 76.4746 25.4846 76.5945C25.3912 76.7136 25.2746 76.8125 25.1418 76.8852C25.009 76.9579 24.8629 77.0029 24.7122 77.0174C23.5782 77.1304 21.2263 77.5696 18.2164 79.2407C16.7689 80.042 15.1395 80.4576 13.4848 80.4476V80.4476Z" fill="#3F3D56"/>
<path d="M9.48395 60.3221L4.09843 58.8629C3.80725 58.7837 3.55941 58.5923 3.40929 58.3306C3.25917 58.069 3.21903 57.7586 3.29768 57.4675L5.19092 50.4898C5.39369 49.7423 5.86622 49.0964 6.51738 48.6765C7.16854 48.2566 7.95222 48.0925 8.71731 48.2158C9.48239 48.3391 10.1747 48.7411 10.6607 49.3443C11.1468 49.9475 11.3921 50.7091 11.3494 51.4823L10.9184 59.2869C10.9091 59.4561 10.862 59.6211 10.7807 59.7698C10.6994 59.9186 10.5858 60.0472 10.4483 60.1465C10.3108 60.2457 10.1529 60.3129 9.98602 60.3433C9.81917 60.3737 9.64764 60.3664 9.48395 60.3221V60.3221Z" fill="#3F3D56"/>
<path d="M15.4791 41.5982C18.9104 41.5982 21.6919 38.8187 21.6919 35.3899C21.6919 31.9612 18.9104 29.1816 15.4791 29.1816C12.0479 29.1816 9.26636 31.9612 9.26636 35.3899C9.26636 38.8187 12.0479 41.5982 15.4791 41.5982Z" fill="#FFB8B8"/>
<path d="M37.9927 47.5879C37.9617 47.7243 37.9414 47.8629 37.9322 48.0025L27.066 54.2667L24.4248 52.7473L21.6091 56.4307L27.2594 60.455L39.6561 50.6822C40.1617 50.8691 40.7123 50.8979 41.2346 50.7645C41.7569 50.6312 42.2263 50.3421 42.5802 49.9357C42.9341 49.5293 43.1558 49.0249 43.2159 48.4895C43.2759 47.9541 43.1714 47.4132 42.9163 46.9386C42.6612 46.464 42.2675 46.0783 41.7877 45.8327C41.3078 45.5871 40.7645 45.4933 40.23 45.5638C39.6956 45.6343 39.1952 45.8657 38.7956 46.2273C38.3959 46.5889 38.1159 47.0635 37.9927 47.5879V47.5879Z" fill="#FFB8B8"/>
<path d="M26.1655 54.5695L21.4848 57.6049C21.2314 57.7687 20.9234 57.8255 20.6282 57.7627C20.3331 57.6999 20.0749 57.5227 19.9103 57.2699L15.9718 51.2054C15.5499 50.5558 15.3836 49.7731 15.505 49.0083C15.6265 48.2434 16.027 47.5505 16.6293 47.0633C17.2317 46.5761 17.9932 46.3289 18.7671 46.3696C19.541 46.4102 20.2725 46.7357 20.8204 47.2834L26.3508 52.8111C26.4708 52.9309 26.5624 53.076 26.619 53.2358C26.6756 53.3955 26.6957 53.5659 26.678 53.7344C26.6602 53.903 26.605 54.0654 26.5163 54.2099C26.4276 54.3544 26.3078 54.4772 26.1655 54.5695Z" fill="#3F3D56"/>
<path d="M11.0826 40.303C12.2416 41.5367 14.3941 40.8744 14.5451 39.189C14.5569 39.0581 14.5561 38.9264 14.5425 38.7957C14.4646 38.0492 14.0329 37.3714 14.1363 36.5831C14.1597 36.3869 14.2329 36.1999 14.3488 36.0399C15.2724 34.804 17.4405 36.5927 18.3121 35.4739C18.8466 34.7879 18.2183 33.7077 18.6285 32.941C19.1698 31.929 20.7732 32.4282 21.7787 31.874C22.8975 31.2574 22.8306 29.5421 22.0941 28.4988C21.196 27.2265 19.6213 26.5476 18.0663 26.4497C16.5112 26.3519 14.9669 26.772 13.5151 27.3373C11.8656 27.9797 10.2298 28.8675 9.21472 30.3169C7.98025 32.0795 7.86145 34.4491 8.47883 36.5102C8.85439 37.7639 10.1361 39.2955 11.0826 40.303Z" fill="#2F2E41"/>
<path d="M35.6663 122H0.252953C0.185865 122 0.121526 121.973 0.0740879 121.926C0.0266501 121.878 0 121.814 0 121.747C0 121.68 0.0266501 121.616 0.0740879 121.568C0.121526 121.521 0.185865 121.494 0.252953 121.494H35.6663C35.7334 121.494 35.7978 121.521 35.8452 121.568C35.8926 121.616 35.9193 121.68 35.9193 121.747C35.9193 121.814 35.8926 121.878 35.8452 121.926C35.7978 121.973 35.7334 122 35.6663 122Z" fill="#3F3D56"/>
</g>
<defs>
<clipPath id="clip0">
<rect width="231" height="122" fill="white"/>
</clipPath>
</defs>
</svg>
