<svg width="220" height="181" viewBox="0 0 220 181" fill="none" xmlns="http://www.w3.org/2000/svg">
<g clip-path="url(#clip0)">
<path d="M205.862 181V160.611C205.862 160.611 213.797 175.066 205.862 181Z" fill="#F1F1F1"/>
<path d="M206.352 180.997L191.354 167.209C191.354 167.209 207.353 171.131 206.352 180.997Z" fill="#F1F1F1"/>
<path d="M67.1045 6.21026C68.817 6.21026 70.2053 4.82004 70.2053 3.10513C70.2053 1.39021 68.817 0 67.1045 0C65.3919 0 64.0037 1.39021 64.0037 3.10513C64.0037 4.82004 65.3919 6.21026 67.1045 6.21026Z" fill="#F1F1F1"/>
<path d="M59.2238 14.1009C60.9364 14.1009 62.3246 12.7107 62.3246 10.9958C62.3246 9.28084 60.9364 7.89062 59.2238 7.89062C57.5113 7.89062 56.123 9.28084 56.123 10.9958C56.123 12.7107 57.5113 14.1009 59.2238 14.1009Z" fill="#F1F1F1"/>
<path d="M57.2539 154.175C58.9664 154.175 60.3547 152.785 60.3547 151.07C60.3547 149.355 58.9664 147.965 57.2539 147.965C55.5413 147.965 54.1531 149.355 54.1531 151.07C54.1531 152.785 55.5413 154.175 57.2539 154.175Z" fill="#F1F1F1"/>
<path d="M163.259 177.318H159.886L159.693 164.493L163.259 164.291V177.318Z" fill="#9F616A"/>
<path d="M164.122 180.594L153.241 180.594V180.453C153.243 179.328 153.689 178.25 154.483 177.455C155.277 176.66 156.354 176.212 157.477 176.211H164.122V180.594Z" fill="#2F2E41"/>
<path d="M182.565 173.428L179.474 174.777L174.179 163.098L177.367 161.486L182.565 173.428Z" fill="#9F616A"/>
<path d="M174.69 180.44L174.634 180.311C174.411 179.801 174.292 179.251 174.281 178.694C174.271 178.137 174.371 177.584 174.574 177.065C174.777 176.547 175.081 176.073 175.467 175.672C175.853 175.271 176.314 174.95 176.824 174.728L182.915 172.068L184.664 176.086L174.69 180.44Z" fill="#2F2E41"/>
<path d="M169.252 76.0851C173.288 76.0851 176.56 72.8088 176.56 68.7672C176.56 64.7256 173.288 61.4492 169.252 61.4492C165.216 61.4492 161.944 64.7256 161.944 68.7672C161.944 72.8088 165.216 76.0851 169.252 76.0851Z" fill="#9F616A"/>
<path d="M182.333 167.306L172.887 144.2L177.475 122.58L168.772 122.107L163.981 146.295L176.058 170.279L182.333 167.306Z" fill="#2F2E41"/>
<path d="M172.01 118.256L167.557 145.888L166.218 172.373L158.532 172.306L158.247 121.634L172.01 118.256Z" fill="#2F2E41"/>
<path d="M178.119 119.832L177.681 123.835L155.891 124.811L157.366 118.793L178.119 119.832Z" fill="#CBCBCB"/>
<path d="M157.399 127.388C157.191 127.125 157.037 126.824 156.946 126.501C156.855 126.178 156.828 125.84 156.869 125.507C156.909 125.174 157.015 124.852 157.18 124.56C157.345 124.268 157.567 124.012 157.831 123.807C157.942 123.721 158.06 123.644 158.183 123.577L166.73 91.416L171.796 93.6454L161.756 124.724C161.995 125.245 162.051 125.831 161.916 126.388C161.78 126.945 161.461 127.439 161.009 127.791C160.475 128.213 159.797 128.408 159.121 128.332C158.446 128.257 157.827 127.917 157.399 127.388V127.388Z" fill="#9F616A"/>
<path d="M162.801 83.1303L163.809 81.0454C163.809 81.0454 168.772 76.7488 174.007 79.3244L174.814 81.7313L179.083 88.6354L178.119 120.525C178.119 120.525 160.306 119.169 155.891 120.785L157.832 95.5152L162.801 83.1303Z" fill="#FD4C6F"/>
<path d="M163.728 123.601L156.207 121.494L163.163 99.7263L163.792 87.5728C163.829 86.9589 163.993 86.3596 164.276 85.8134C164.558 85.2673 164.951 84.7865 165.431 84.4022C166.008 83.9335 166.677 83.5894 167.393 83.3915C168.11 83.1936 168.86 83.1463 169.596 83.2525C172.054 83.5895 173.861 85.4714 173.894 87.7272L173.894 87.7382L173.893 87.7491L171.478 104.784L170.703 107.557L163.728 123.601Z" fill="#CBCBCB"/>
<path d="M172.564 74.5038L174.228 74.9249L176.749 72.2408C176.749 72.2408 181.383 61.4772 171.141 59.83C160.9 58.1829 163.137 62.3413 161.767 64.949L165.952 66.0385L169.719 69.894C169.719 69.894 172.176 68.0913 172.899 69.7264C173.622 71.3614 172.564 74.5038 172.564 74.5038Z" fill="#2F2E41"/>
<path d="M114.294 136.932H0V22.4785H114.294V136.932Z" fill="white"/>
<path d="M114.294 136.932H0V22.4785H114.294V136.932ZM1.68868 135.24H112.605V24.1695H1.68868V135.24Z" fill="#E5E5E5"/>
<path d="M96.8658 71.6797H23.5657V74.2708H96.8658V71.6797Z" fill="#404DEF"/>
<path d="M96.8658 78.416H23.5657V81.0072H96.8658V78.416Z" fill="#404DEF"/>
<path d="M96.8658 85.1543H23.5657V87.7454H96.8658V85.1543Z" fill="#404DEF"/>
<path d="M19.1164 75.0461C20.049 75.0461 20.8051 74.289 20.8051 73.3551C20.8051 72.4212 20.049 71.6641 19.1164 71.6641C18.1838 71.6641 17.4277 72.4212 17.4277 73.3551C17.4277 74.289 18.1838 75.0461 19.1164 75.0461Z" fill="#404DEF"/>
<path d="M96.8658 42.6504H23.5657V45.2415H96.8658V42.6504Z" fill="#E5E5E5"/>
<path d="M96.8658 49.3867H23.5657V51.9779H96.8658V49.3867Z" fill="#E5E5E5"/>
<path d="M96.8658 56.125H23.5657V58.7161H96.8658V56.125Z" fill="#E5E5E5"/>
<path d="M19.1164 45.7356C20.049 45.7356 20.8051 44.9785 20.8051 44.0445C20.8051 43.1106 20.049 42.3535 19.1164 42.3535C18.1838 42.3535 17.4277 43.1106 17.4277 44.0445C17.4277 44.9785 18.1838 45.7356 19.1164 45.7356Z" fill="#E5E5E5"/>
<path d="M96.8658 100.992H23.5657V103.583H96.8658V100.992Z" fill="#E5E5E5"/>
<path d="M96.8658 107.727H23.5657V110.318H96.8658V107.727Z" fill="#E5E5E5"/>
<path d="M96.8658 114.465H23.5657V117.056H96.8658V114.465Z" fill="#E5E5E5"/>
<path d="M19.1164 104.075C20.049 104.075 20.8051 103.318 20.8051 102.384C20.8051 101.45 20.049 100.693 19.1164 100.693C18.1838 100.693 17.4277 101.45 17.4277 102.384C17.4277 103.318 18.1838 104.075 19.1164 104.075Z" fill="#E5E5E5"/>
<path d="M219.719 180.929H135.566C135.491 180.929 135.42 180.899 135.367 180.846C135.314 180.794 135.285 180.722 135.285 180.647C135.285 180.572 135.314 180.501 135.367 180.448C135.42 180.395 135.491 180.365 135.566 180.365H219.719C219.793 180.365 219.865 180.395 219.918 180.448C219.97 180.501 220 180.572 220 180.647C220 180.722 219.97 180.794 219.918 180.846C219.865 180.899 219.793 180.929 219.719 180.929Z" fill="#CBCBCB"/>
</g>
<defs>
<clipPath id="clip0">
<rect width="220" height="181" fill="white"/>
</clipPath>
</defs>
</svg>
