<svg width="325" height="270" viewBox="0 0 325 270" fill="none" xmlns="http://www.w3.org/2000/svg">
<g clip-path="url(#clip0)">
<path d="M153.008 256.701C152.59 256.71 152.185 256.852 151.853 257.107C150.869 254.506 149.345 252.835 147.634 252.835C145.922 252.835 144.398 254.506 143.414 257.107C143.083 256.852 142.678 256.71 142.259 256.701C140.315 256.701 138.738 259.99 138.738 264.047H156.529C156.529 259.99 154.953 256.701 153.008 256.701Z" fill="#404DEF"/>
<path d="M109.133 256.701C108.715 256.71 108.31 256.852 107.978 257.107C106.994 254.506 105.47 252.835 103.759 252.835C102.047 252.835 100.523 254.506 99.5392 257.107C99.2076 256.852 98.8028 256.71 98.3844 256.701C96.4397 256.701 94.8633 259.99 94.8633 264.047H112.654C112.654 259.99 111.078 256.701 109.133 256.701Z" fill="#404DEF"/>
<path d="M279.699 256.701C279.281 256.71 278.876 256.852 278.545 257.107C277.561 254.506 276.037 252.835 274.325 252.835C272.613 252.835 271.09 254.506 270.106 257.107C269.774 256.852 269.369 256.71 268.951 256.701C267.006 256.701 265.43 259.99 265.43 264.047H283.221C283.221 259.99 281.644 256.701 279.699 256.701Z" fill="#404DEF"/>
<path d="M318.991 263.334H80.7734V264.154H318.991V263.334Z" fill="#3F3D56"/>
<path d="M152.429 264.048H127.258V263.638C127.258 257.771 129.555 253.174 132.487 253.174C132.97 253.177 133.444 253.3 133.867 253.531C135.337 249.933 137.498 247.882 139.843 247.882C142.188 247.882 144.35 249.933 145.82 253.531C146.243 253.3 146.717 253.177 147.199 253.174C150.132 253.174 152.429 257.771 152.429 263.638V264.048ZM128.082 263.228H151.605C151.503 258.182 149.527 253.994 147.199 253.994C146.713 254.006 146.244 254.174 145.859 254.472L145.425 254.787L145.235 254.285C143.893 250.737 141.927 248.702 139.843 248.702C137.759 248.702 135.794 250.737 134.451 254.285L134.262 254.787L133.827 254.472C133.443 254.174 132.974 254.006 132.487 253.994C130.16 253.994 128.184 258.182 128.082 263.228Z" fill="#3F3D56"/>
<path d="M299.21 264.048H274.039V263.638C274.039 257.771 276.336 253.174 279.269 253.174C279.751 253.177 280.225 253.3 280.648 253.531C282.118 249.933 284.28 247.882 286.625 247.882C288.97 247.882 291.131 249.933 292.601 253.531C293.024 253.3 293.498 253.177 293.981 253.174C296.913 253.174 299.21 257.771 299.21 263.638V264.048ZM274.863 263.228H298.386C298.284 258.182 296.308 253.994 293.981 253.994C293.495 254.006 293.025 254.174 292.641 254.472L292.207 254.787L292.017 254.285C290.674 250.737 288.709 248.702 286.625 248.702C284.541 248.702 282.575 250.737 281.233 254.285L281.043 254.787L280.608 254.472C280.224 254.174 279.755 254.006 279.269 253.994C276.941 253.994 274.965 258.182 274.863 263.228Z" fill="#3F3D56"/>
<path d="M111.835 264.048H86.6641V263.638C86.6641 257.771 88.9612 253.174 91.8935 253.174C92.3758 253.177 92.8498 253.3 93.2729 253.531C94.7428 249.933 96.9044 247.882 99.2495 247.882C101.595 247.882 103.756 249.933 105.226 253.531C105.649 253.3 106.123 253.177 106.606 253.174C109.538 253.174 111.835 257.771 111.835 263.638V264.048ZM87.4883 263.228H111.011C110.909 258.182 108.933 253.994 106.606 253.994C106.119 254.006 105.65 254.174 105.266 254.472L104.831 254.787L104.642 254.285C103.299 250.737 101.334 248.702 99.2495 248.702C97.1654 248.702 95.2002 250.737 93.8575 254.285L93.6679 254.787L93.2337 254.472C92.8494 254.174 92.3798 254.006 91.8935 253.994C89.5662 253.994 87.5904 258.182 87.4883 263.228Z" fill="#3F3D56"/>
<path d="M204.526 116.331C204.603 116.209 204.402 115.943 204.076 115.737C203.751 115.531 203.424 115.463 203.347 115.585C203.27 115.707 203.471 115.973 203.796 116.179C204.122 116.385 204.449 116.453 204.526 116.331Z" fill="#3F3D56"/>
<path d="M203.383 114.059C203.556 113.786 203.831 113.592 204.147 113.521C204.463 113.45 204.794 113.508 205.067 113.681L220.539 123.479C220.813 123.652 221.006 123.927 221.077 124.243C221.148 124.559 221.091 124.89 220.918 125.163V125.163L203.383 114.059Z" fill="#404DEF"/>
<path d="M201.922 114.579L202.409 113.81C202.527 113.623 202.715 113.491 202.931 113.443C203.147 113.394 203.373 113.433 203.56 113.552L221.176 124.707C221.397 124.847 221.554 125.07 221.611 125.325C221.669 125.581 221.622 125.849 221.482 126.07L221.077 126.709L201.922 114.579Z" fill="#3F3D56"/>
<path d="M204.542 115L204.355 115.295L205.534 116.042L205.721 115.747L204.542 115Z" fill="#D0CDE1"/>
<path d="M206.163 116.026L205.977 116.321L207.155 117.068L207.342 116.773L206.163 116.026Z" fill="#D0CDE1"/>
<path d="M229.513 80.2267C235.586 80.2267 240.509 75.3032 240.509 69.2298C240.509 63.1564 235.586 58.2329 229.513 58.2329C223.439 58.2329 218.516 63.1564 218.516 69.2298C218.516 75.3032 223.439 80.2267 229.513 80.2267Z" fill="#FFB8B8"/>
<path d="M230.186 77.0069C230.186 77.0069 235.55 85.4557 234.209 87.8697C232.868 90.2836 228.711 96.8549 228.711 96.8549C228.711 96.8549 247.218 83.1759 244.804 80.2255C244.804 80.2255 239.306 75.5317 239.037 72.5813L230.186 77.0069Z" fill="#FFB8B8"/>
<path d="M238.766 238.466L239.302 246.915L247.885 245.44L247.348 237.259L238.766 238.466Z" fill="#FFB8B8"/>
<path d="M200.547 243.167L198.938 248.532L208.459 250.275L209.8 245.313L200.547 243.167Z" fill="#FFB8B8"/>
<path d="M239.641 124.682L240.512 130.65C240.512 130.65 251.509 152.509 239.574 163.238L223.481 202.934C223.481 202.934 221.737 223.587 216.641 230.829L211.947 247.324L198 243.703L209.265 207.896C209.265 207.896 209.131 192.876 210.74 189.523L217.848 157.605L219.122 123.475C219.122 123.475 237.897 122.134 239.641 124.682Z" fill="#2F2E41"/>
<path d="M237.561 161.889L243.596 202.658C243.596 202.658 246.814 218.349 247.082 224.384C247.351 230.419 248.423 238.197 248.423 238.197L237.561 239.94L226.832 187.37L237.561 161.889Z" fill="#2F2E41"/>
<path d="M249.495 241.149L240.912 241.686C240.912 241.686 237.717 238.065 237.906 239.942C238.096 241.82 236.084 249.732 236.084 249.732L229.379 256.706C229.379 256.706 216.102 256.706 218.114 263.143C220.125 269.58 235.816 264.216 235.816 264.216L241.851 262.204V264.886C241.851 264.886 252.177 266.361 252.446 263.679C252.714 260.997 252.446 257.644 252.043 257.376C251.641 257.108 249.495 241.149 249.495 241.149Z" fill="#2F2E41"/>
<path d="M209.828 247.767C209.828 247.767 203.693 247.276 202.834 246.54C201.975 245.804 200.626 242.737 198.785 244.7C196.945 246.663 190.319 253.043 190.319 253.043L183.938 256.111C183.938 256.111 175.595 253.902 172.773 259.056C169.95 264.209 186.638 269.608 190.932 267.89L196.331 266.786L196.086 269.363C196.086 269.363 203.693 271.081 204.798 268.872C205.902 266.663 206.761 264.087 206.27 263.35C205.779 262.614 209.828 247.767 209.828 247.767Z" fill="#2F2E41"/>
<path d="M255.13 93.9047L245.63 114.924L241.504 124.048L239.976 127.432L217.848 127.164L220.127 111.741C216.909 103.426 224.553 100.074 224.553 100.074L230.99 93.214V94.307C230.99 94.307 237.293 86.7969 240.11 82.5055C242.926 78.214 246.815 79.8233 246.815 79.8233C253.521 79.1528 255.13 93.9047 255.13 93.9047Z" fill="#FDC34A"/>
<path opacity="0.2" d="M245.627 114.924L241.501 124.049C240.176 121.57 239.168 118.763 239.168 117.106C239.168 112.546 243.728 114.96 243.728 114.96C243.728 114.96 240.04 94.7767 240.04 88.7418C240.04 84.7333 243.382 102.523 245.627 114.924Z" fill="black"/>
<path d="M241.986 116.434L222.004 116.032C222.004 116.032 207.386 117.239 209.531 123.139C211.677 129.04 223.345 123.139 223.345 123.139L246.68 126.76L241.986 116.434Z" fill="#FFB8B8"/>
<path d="M245.739 80.8958C245.739 80.8958 238.766 81.4323 238.766 87.4672C238.766 93.502 245.069 114.959 245.069 114.959C245.069 114.959 240.509 112.545 240.509 117.105C240.509 121.665 248.153 134.942 248.958 126.09C248.958 126.09 260.491 131.723 259.821 121.128C259.15 110.534 251.908 88.1377 251.908 88.1377C251.908 88.1377 251.104 80.4935 245.739 80.8958Z" fill="#FDC34A"/>
<path d="M229.881 68.0336C229.111 67.2883 229.125 66.0314 228.504 65.1577C227.53 63.7858 225.501 63.8778 223.834 64.1146C222.72 64.2242 221.624 64.4787 220.576 64.8718C220.116 65.0611 219.706 65.3546 219.379 65.7292C219.052 66.1039 218.816 66.5494 218.69 67.0307C218.56 67.5711 218.272 66.0377 217.979 64.0516C217.679 62.0252 218.03 59.9559 218.982 58.1418C219.933 56.3277 221.436 54.8625 223.274 53.9573C223.296 53.9465 223.317 53.936 223.339 53.9255C225.223 53.0097 227.198 52.2009 229.28 51.9737C231.363 51.7464 233.586 52.1579 235.22 53.4699C235.966 54.0696 236.573 54.8394 237.374 55.365C238.78 56.2886 240.561 56.3333 242.233 56.528C244.135 56.6926 245.981 57.2589 247.649 58.1896C249.325 59.1377 250.56 60.7084 251.086 62.561C251.615 64.7167 250.751 67.2649 248.632 68.2003C248.262 68.3561 247.934 68.5969 247.674 68.9032C245.934 71.0307 248.743 72.1948 249.151 74.0467C249.491 75.5919 248.005 76.991 246.481 77.4164C245.047 77.7729 243.533 77.6194 242.2 76.9823C240.866 76.3452 239.796 75.2642 239.172 73.9245C238.649 72.7123 238.53 71.3713 238.388 70.0589C238.225 68.5567 234.285 65.8357 236.945 67.8824C237.461 68.269 237.868 68.7833 238.125 69.3748C238.934 71.3119 237.255 72.4115 236.354 73.7945C235.864 74.5724 235.601 75.4721 235.596 76.3916C235.591 77.3111 235.844 78.2136 236.326 78.9967C235.173 78.3513 234.282 77.3236 233.806 76.0912C233.33 74.8588 233.299 73.4989 233.719 72.2461C233.961 71.5889 234.327 70.9812 234.546 70.3163C234.889 69.2786 234.586 67.2622 233.054 67.671C231.961 67.9628 231.027 69.143 229.881 68.0336Z" fill="#2F2E41"/>
<path d="M319.498 209.269C322.216 209.269 324.418 207.067 324.418 204.349C324.418 201.632 322.216 199.429 319.498 199.429C316.781 199.429 314.578 201.632 314.578 204.349C314.578 207.067 316.781 209.269 319.498 209.269Z" fill="#D0CDE1"/>
<path d="M307.196 228.54C311.725 228.54 315.397 224.869 315.397 220.34C315.397 215.811 311.725 212.14 307.196 212.14C302.667 212.14 298.996 215.811 298.996 220.34C298.996 224.869 302.667 228.54 307.196 228.54Z" fill="#404DEF"/>
<path d="M309.82 225.26H309V263.391H309.82V225.26Z" fill="#3F3D56"/>
<path d="M309.657 226.08C307.954 226.08 306.289 225.575 304.874 224.629C303.458 223.683 302.354 222.338 301.702 220.765C301.051 219.192 300.88 217.46 301.212 215.79C301.545 214.12 302.365 212.586 303.569 211.382C304.773 210.177 306.307 209.357 307.977 209.025C309.648 208.693 311.379 208.863 312.952 209.515C314.525 210.167 315.87 211.27 316.816 212.686C317.762 214.102 318.267 215.767 318.267 217.47C318.265 219.753 317.357 221.941 315.743 223.555C314.128 225.17 311.94 226.078 309.657 226.08ZM309.657 209.68C308.116 209.68 306.61 210.137 305.329 210.993C304.048 211.849 303.05 213.065 302.46 214.489C301.87 215.912 301.716 217.479 302.017 218.99C302.317 220.501 303.059 221.889 304.149 222.978C305.238 224.068 306.626 224.81 308.137 225.11C309.648 225.411 311.215 225.257 312.638 224.667C314.062 224.078 315.278 223.079 316.134 221.798C316.99 220.517 317.447 219.011 317.447 217.47C317.445 215.405 316.624 213.424 315.163 211.964C313.703 210.504 311.723 209.682 309.657 209.68V209.68Z" fill="#3F3D56"/>
<path d="M316.627 211.32C315.573 211.32 314.542 211.007 313.666 210.421C312.789 209.836 312.106 209.003 311.703 208.029C311.299 207.055 311.194 205.984 311.399 204.95C311.605 203.916 312.113 202.966 312.858 202.22C313.603 201.475 314.553 200.967 315.587 200.762C316.621 200.556 317.693 200.662 318.667 201.065C319.641 201.468 320.473 202.152 321.059 203.028C321.645 203.905 321.957 204.935 321.957 205.989C321.956 207.403 321.394 208.757 320.394 209.757C319.395 210.756 318.04 211.318 316.627 211.32ZM316.627 201.479C315.735 201.479 314.863 201.744 314.121 202.239C313.38 202.735 312.802 203.439 312.46 204.264C312.119 205.088 312.03 205.994 312.204 206.869C312.378 207.744 312.807 208.548 313.438 209.179C314.069 209.809 314.872 210.239 315.747 210.413C316.622 210.587 317.529 210.498 318.353 210.156C319.177 209.815 319.882 209.237 320.377 208.495C320.873 207.753 321.137 206.881 321.137 205.989C321.136 204.794 320.66 203.647 319.815 202.802C318.969 201.956 317.823 201.481 316.627 201.479V201.479Z" fill="#3F3D56"/>
<path d="M180.385 122.68L165.636 108.243H98.7148V66.832H186.457V108.243H180.242L180.385 122.68ZM99.5349 107.423H165.97L179.545 120.711L179.414 107.423H185.637V67.6521H99.5349V107.423Z" fill="#404DEF"/>
<path d="M21.5569 55.848L21.6992 41.4112H15.4844V0H103.227V41.4112H36.3059L21.5569 55.848ZM16.3044 40.5912H22.5273L22.3965 53.8788L35.9714 40.5912H102.407V0.820025H16.3044V40.5912Z" fill="#404DEF"/>
<path d="M83.9542 13.1204H31.4727V13.9404H83.9542V13.1204Z" fill="#404DEF"/>
<path d="M118.855 97.2181L111.563 89.9256C110.581 88.9443 110.019 87.6207 109.993 86.2332C109.967 84.8456 110.481 83.5021 111.425 82.4852C112.37 81.4683 113.672 80.8572 115.057 80.7804C116.443 80.7036 117.804 81.1671 118.855 82.0735C119.906 81.1672 121.268 80.7038 122.654 80.7807C124.039 80.8575 125.341 81.4685 126.285 82.4854C127.23 83.5022 127.743 84.8456 127.718 86.2332C127.692 87.6207 127.129 88.9443 126.148 89.9256L118.855 97.2181ZM115.354 81.5946C114.456 81.594 113.578 81.8599 112.83 82.3587C112.083 82.8575 111.501 83.5667 111.157 84.3966C110.813 85.2265 110.723 86.1397 110.899 87.0207C111.074 87.9017 111.507 88.7109 112.143 89.3458L118.855 96.0585L125.568 89.3458C126.419 88.4939 126.897 87.3389 126.897 86.1347C126.897 84.9304 126.418 83.7756 125.567 82.9241C124.715 82.0726 123.561 81.5941 122.356 81.5938C121.152 81.5936 119.997 82.0716 119.145 82.9227L118.855 83.2126L118.566 82.9227C118.144 82.5008 117.643 82.1662 117.092 81.9383C116.541 81.7104 115.95 81.5936 115.354 81.5946V81.5946Z" fill="#404DEF"/>
<path d="M144.276 85.288C144.165 85.1767 144.033 85.0883 143.888 85.028C143.742 84.9677 143.586 84.9366 143.429 84.9365C143.272 84.9365 143.116 84.9674 142.97 85.0277C142.825 85.0879 142.693 85.1761 142.581 85.2874C142.47 85.3987 142.382 85.5309 142.322 85.6763C142.261 85.8218 142.23 85.9776 142.23 86.135C142.231 86.2924 142.262 86.4483 142.322 86.5937C142.382 86.7391 142.471 86.8712 142.582 86.9824L144.276 88.6767L145.971 86.9824C146.082 86.8712 146.17 86.7391 146.231 86.5937C146.291 86.4483 146.322 86.2924 146.322 86.135C146.322 85.9776 146.291 85.8218 146.231 85.6763C146.171 85.5309 146.083 85.3987 145.971 85.2874C145.86 85.1761 145.728 85.0879 145.582 85.0277C145.437 84.9674 145.281 84.9365 145.124 84.9365C144.966 84.9366 144.81 84.9677 144.665 85.028C144.52 85.0883 144.388 85.1767 144.276 85.288V85.288Z" fill="#404DEF"/>
<path d="M137.304 85.288C137.192 85.1767 137.06 85.0883 136.915 85.028C136.77 84.9677 136.614 84.9366 136.456 84.9365C136.299 84.9365 136.143 84.9674 135.998 85.0277C135.852 85.0879 135.72 85.1761 135.609 85.2874C135.497 85.3987 135.409 85.5309 135.349 85.6763C135.289 85.8218 135.258 85.9776 135.258 86.135C135.258 86.2924 135.289 86.4483 135.349 86.5937C135.41 86.7391 135.498 86.8712 135.609 86.9824L137.304 88.6767L138.998 86.9824C139.109 86.8712 139.198 86.7391 139.258 86.5937C139.318 86.4483 139.349 86.2924 139.35 86.135C139.35 85.9776 139.319 85.8218 139.258 85.6763C139.198 85.5309 139.11 85.3987 138.999 85.2874C138.887 85.1761 138.755 85.0879 138.61 85.0277C138.464 84.9674 138.308 84.9365 138.151 84.9365C137.994 84.9366 137.838 84.9677 137.692 85.028C137.547 85.0883 137.415 85.1767 137.304 85.288Z" fill="#404DEF"/>
<path d="M140.946 97.9929C139.162 97.9929 137.418 97.4639 135.935 96.4727C134.451 95.4816 133.295 94.0728 132.612 92.4246C131.93 90.7763 131.751 88.9627 132.099 87.2129C132.447 85.4631 133.306 83.8559 134.568 82.5944C135.829 81.3329 137.437 80.4738 139.186 80.1257C140.936 79.7777 142.75 79.9563 144.398 80.639C146.046 81.3217 147.455 82.4779 148.446 83.9613C149.437 85.4446 149.966 87.1886 149.966 88.9727C149.964 91.3642 149.012 93.6569 147.321 95.348C145.63 97.039 143.338 97.9902 140.946 97.9929V97.9929ZM140.946 80.7724C139.324 80.7724 137.739 81.2534 136.39 82.1544C135.042 83.0555 133.991 84.3362 133.37 85.8346C132.749 87.333 132.587 88.9818 132.903 90.5724C133.22 92.1631 134.001 93.6243 135.148 94.7711C136.294 95.9179 137.756 96.6989 139.346 97.0153C140.937 97.3318 142.586 97.1694 144.084 96.5487C145.583 95.928 146.863 94.877 147.764 93.5285C148.665 92.18 149.146 90.5945 149.146 88.9727C149.144 86.7986 148.279 84.7143 146.742 83.177C145.204 81.6397 143.12 80.7749 140.946 80.7724V80.7724Z" fill="#404DEF"/>
<path d="M163.087 97.9929C161.303 97.9929 159.559 97.4639 158.075 96.4727C156.592 95.4816 155.436 94.0728 154.753 92.4246C154.07 90.7763 153.892 88.9627 154.24 87.2129C154.588 85.4631 155.447 83.8559 156.708 82.5944C157.97 81.3329 159.577 80.4738 161.327 80.1257C163.077 79.7777 164.89 79.9563 166.539 80.639C168.187 81.3217 169.596 82.4779 170.587 83.9613C171.578 85.4446 172.107 87.1886 172.107 88.9727C172.104 91.3642 171.153 93.6569 169.462 95.348C167.771 97.039 165.478 97.9902 163.087 97.9929V97.9929ZM163.087 80.7724C161.465 80.7724 159.879 81.2534 158.531 82.1544C157.182 83.0555 156.131 84.3362 155.511 85.8346C154.89 87.333 154.728 88.9818 155.044 90.5724C155.36 92.1631 156.141 93.6243 157.288 94.7711C158.435 95.9179 159.896 96.6989 161.487 97.0153C163.078 97.3318 164.726 97.1694 166.225 96.5487C167.723 95.928 169.004 94.877 169.905 93.5285C170.806 92.18 171.287 90.5945 171.287 88.9727C171.284 86.7986 170.42 84.7143 168.882 83.177C167.345 81.6397 165.261 80.7749 163.087 80.7724V80.7724Z" fill="#404DEF"/>
<path d="M166.777 88.1526C167.909 88.1526 168.827 87.2348 168.827 86.1026C168.827 84.9703 167.909 84.0525 166.777 84.0525C165.644 84.0525 164.727 84.9703 164.727 86.1026C164.727 87.2348 165.644 88.1526 166.777 88.1526Z" fill="#404DEF"/>
<path d="M159.808 88.1526C160.94 88.1526 161.858 87.2348 161.858 86.1026C161.858 84.9703 160.94 84.0525 159.808 84.0525C158.676 84.0525 157.758 84.9703 157.758 86.1026C157.758 87.2348 158.676 88.1526 159.808 88.1526Z" fill="#404DEF"/>
<path d="M160.53 90.6125C159.694 96.3997 166.332 97.5736 165.668 90.6123C165.707 90.6076 160.798 90.6161 160.53 90.6125Z" fill="#404DEF"/>
<path d="M137.789 91.8137C139.664 94.3342 142.905 94.5606 144.638 91.8137H137.789Z" fill="#404DEF"/>
<path d="M84.0519 19.3768H31.5703V20.1969H84.0519V19.3768Z" fill="#404DEF"/>
<path d="M84.0519 25.1171H31.5703V25.9371H84.0519V25.1171Z" fill="#404DEF"/>
<path d="M43.8713 55.458H0V56.278H43.8713V55.458Z" fill="#3F3D56"/>
<path d="M200.496 122.29H156.625V123.11H200.496V122.29Z" fill="#3F3D56"/>
</g>
<defs>
<clipPath id="clip0">
<rect width="324.417" height="270" fill="white"/>
</clipPath>
</defs>
</svg>
