<svg width="336" height="305" viewBox="0 0 336 305" fill="none" xmlns="http://www.w3.org/2000/svg">
<path d="M322.454 120.537C322.454 173.288 288.717 218.122 241.729 234.464C222.816 241.004 202.581 242.725 182.841 239.472C180.968 239.165 179.108 238.812 177.261 238.413C174.759 237.88 172.286 237.266 169.843 236.572C119.397 222.312 82.4219 175.761 82.4219 120.537C82.4219 53.9657 136.155 0 202.438 0C268.722 0 322.454 53.9657 322.454 120.537Z" fill="#E6E6E6"/>
<path d="M127.269 157.739C127.058 157.853 126.9 158.046 126.83 158.276C126.76 158.507 126.785 158.755 126.897 158.968L172.02 243.85C172.133 244.062 172.326 244.221 172.555 244.291C172.784 244.361 173.032 244.336 173.243 244.223L237.029 210.021C237.24 209.907 237.398 209.714 237.468 209.484C237.537 209.253 237.513 209.005 237.401 208.792L192.278 123.91C192.164 123.698 191.972 123.539 191.743 123.469C191.514 123.399 191.266 123.423 191.055 123.537L127.269 157.739Z" fill="#3F3D56"/>
<path d="M133.197 160.22L174.49 237.895L231.099 207.541L189.807 129.865L133.197 160.22ZM129.61 162.143L129.618 162.139L129.609 162.144L129.61 162.143Z" fill="white"/>
<path d="M147.47 168.76C146.591 169.231 146.404 170.608 147.052 171.828C147.701 173.048 148.944 173.658 149.824 173.186L191.284 150.954C192.164 150.483 192.351 149.106 191.702 147.886C191.054 146.666 189.811 146.056 188.931 146.528L147.47 168.76Z" fill="#6C63FF"/>
<path d="M152.58 178.369C151.7 178.84 151.513 180.217 152.162 181.437C152.81 182.657 154.053 183.267 154.933 182.795L196.394 160.563C197.273 160.092 197.46 158.715 196.812 157.495C196.163 156.275 194.92 155.665 194.041 156.137L152.58 178.369Z" fill="#6C63FF"/>
<path d="M157.687 187.978C156.808 188.45 156.621 189.827 157.269 191.047C157.918 192.267 159.161 192.876 160.04 192.405L201.501 170.173C202.381 169.701 202.568 168.325 201.919 167.105C201.27 165.885 200.027 165.275 199.148 165.747L157.687 187.978Z" fill="#6C63FF"/>
<path d="M162.797 197.587C161.917 198.059 161.73 199.436 162.379 200.656C163.027 201.876 164.27 202.485 165.15 202.014L206.61 179.782C207.49 179.31 207.677 177.934 207.028 176.714C206.38 175.494 205.137 174.884 204.257 175.356L162.797 197.587Z" fill="#6C63FF"/>
<path d="M167.904 207.197C167.025 207.669 166.837 209.045 167.486 210.265C168.135 211.485 169.378 212.095 170.257 211.624L211.718 189.392C212.597 188.92 212.784 187.544 212.136 186.324C211.487 185.103 210.244 184.494 209.365 184.965L167.904 207.197Z" fill="#6C63FF"/>
<path d="M175.955 121.067L213.523 123.371L224.044 91.859L191.093 84.8666L175.955 121.067Z" fill="#2F2E41"/>
<path d="M203.049 113.099C211.347 113.099 218.074 106.342 218.074 98.0083C218.074 89.6742 211.347 82.918 203.049 82.918C194.75 82.918 188.023 89.6742 188.023 98.0083C188.023 106.342 194.75 113.099 203.049 113.099Z" fill="#FFB8B8"/>
<path d="M241.632 233.289L241.729 234.464C222.816 241.004 202.581 242.725 182.842 239.472L177.262 238.413L182.572 226.587L186.053 218.834L184.799 192.013L184.666 189.238L184.503 185.697L186.77 185.684L202.89 185.586L218.253 185.488L220.596 185.475C235.286 203.622 247.407 218.371 241.632 233.289Z" fill="#2F2E41"/>
<path d="M220.376 185.253L184.504 189.256L183.175 164.348C178.965 153.564 181.744 143.939 190.481 135.302L192.258 128.241C192.724 126.387 193.687 124.698 195.043 123.356C196.398 122.014 198.094 121.071 199.946 120.629C205.818 117.247 212.47 115.635 219.933 115.866C222.913 117.035 225.441 119.136 227.141 121.858C228.842 124.58 229.625 127.779 229.377 130.983C227.833 150.558 225.062 168.882 220.376 185.253Z" fill="#6C63FF"/>
<path d="M191.684 80.1796C191.684 80.1796 183.914 83.027 183.715 93.3793C183.704 95.1213 183.935 96.8563 184.403 98.534C184.907 100.437 185.311 104.565 181.923 110.068C179.709 113.64 177.708 117.34 175.93 121.149L184.678 121.997L186.124 107.432C186.825 100.371 188.558 93.4523 191.266 86.8981L191.323 86.7612C191.323 86.7612 195.336 93.7667 202.964 93.5509L200.163 90.8921C200.163 90.8921 209.716 94.5054 214.911 95.2308C215.504 95.3137 216.063 95.5575 216.528 95.9359C216.993 96.3143 217.347 96.813 217.551 97.3783C217.755 97.9436 217.801 98.5539 217.685 99.1437C217.569 99.7335 217.295 100.28 216.893 100.725C216.862 100.759 216.831 100.792 216.799 100.826C213.622 104.202 207.299 112.047 211.282 117.958C215.264 123.87 212.042 125.604 212.042 125.604L217.943 122.151L220.621 120.432L220.682 122.621L234.801 120.579C234.801 120.579 238.6 119.924 230.166 110.853C230.166 110.853 227.907 107.301 228.764 104.159C229.473 101.769 229.607 99.2445 229.153 96.7928C227.034 86.5867 219.279 66.3959 191.684 80.1796Z" fill="#2F2E41"/>
<path d="M0.328755 143.458C0.215322 143.488 0.118562 143.563 0.0597087 143.665C0.000855111 143.767 -0.015287 143.888 0.0148317 144.002L12.1007 189.56C12.131 189.674 12.2051 189.771 12.3067 189.83C12.4083 189.889 12.5291 189.905 12.6426 189.875L46.8775 180.714C46.9909 180.684 47.0877 180.609 47.1465 180.507C47.2054 180.405 47.2215 180.284 47.1914 180.17L35.1056 134.612C35.0752 134.498 35.0011 134.401 34.8995 134.342C34.7979 134.283 34.6771 134.267 34.5636 134.297L0.328755 143.458Z" fill="#F2F2F2"/>
<path d="M8.74149 150.981C8.26946 151.108 8.02703 151.743 8.20075 152.398C8.37446 153.053 8.89972 153.484 9.37175 153.357L31.6244 147.403C32.0964 147.276 32.3389 146.64 32.1651 145.986C31.9914 145.331 31.4662 144.9 30.9941 145.027L8.74149 150.981Z" fill="white"/>
<path d="M10.1087 156.139C9.63665 156.265 9.39421 156.901 9.56794 157.556C9.74166 158.211 10.2669 158.641 10.7389 158.515L32.9916 152.56C33.4636 152.434 33.7061 151.798 33.5323 151.143C33.3586 150.488 32.8334 150.058 32.3613 150.184L10.1087 156.139Z" fill="white"/>
<path d="M11.4778 161.296C11.0058 161.422 10.7634 162.058 10.9371 162.713C11.1108 163.368 11.6361 163.798 12.1081 163.672L34.3608 157.717C34.8328 157.591 35.0752 156.955 34.9015 156.3C34.7278 155.646 34.2025 155.215 33.7305 155.342L11.4778 161.296Z" fill="white"/>
<path d="M12.847 166.454C12.3749 166.58 12.1325 167.216 12.3062 167.871C12.4799 168.525 13.0052 168.956 13.4772 168.829L35.7299 162.875C36.2019 162.749 36.4443 162.113 36.2706 161.458C36.0969 160.803 35.5716 160.373 35.0996 160.499L12.847 166.454Z" fill="white"/>
<path d="M14.2141 171.612C13.7421 171.738 13.4997 172.374 13.6734 173.029C13.8471 173.683 14.3724 174.114 14.8444 173.987L37.0971 168.033C37.5691 167.906 37.8115 167.271 37.6378 166.616C37.4641 165.961 36.9388 165.531 36.4668 165.657L14.2141 171.612Z" fill="white"/>
<path d="M15.5813 176.769C15.1093 176.895 14.8669 177.531 15.0406 178.186C15.2143 178.841 15.7396 179.271 16.2116 179.145L38.4643 173.19C38.9363 173.064 39.1787 172.428 39.005 171.773C38.8313 171.119 38.306 170.688 37.834 170.814L15.5813 176.769Z" fill="white"/>
<path d="M1.58569 110.581C1.48217 110.637 1.40485 110.731 1.37071 110.844C1.33657 110.957 1.3484 111.079 1.4036 111.183L23.5129 152.774C23.5683 152.877 23.6625 152.955 23.7749 152.989C23.8872 153.024 24.0085 153.012 24.1122 152.956L55.3659 136.198C55.4694 136.142 55.5467 136.048 55.5808 135.935C55.615 135.822 55.6032 135.7 55.548 135.596L33.4386 94.0053C33.3832 93.9013 33.289 93.8237 33.1767 93.7894C33.0643 93.7551 32.943 93.767 32.8394 93.8224L1.58569 110.581Z" fill="#E6E6E6"/>
<path d="M4.49047 111.797L24.7228 149.856L52.4604 134.983L32.2281 96.9232L4.49047 111.797ZM2.73285 112.739L2.73675 112.737L2.73242 112.739L2.73285 112.739Z" fill="white"/>
<path d="M11.484 115.981C11.0531 116.212 10.9613 116.886 11.2791 117.484C11.5969 118.082 12.206 118.381 12.637 118.15L32.9519 107.257C33.3828 107.026 33.4745 106.351 33.1567 105.753C32.8389 105.155 32.2298 104.857 31.7989 105.088L11.484 115.981Z" fill="#6C63FF"/>
<path d="M13.9859 120.689C13.555 120.92 13.4633 121.595 13.7811 122.193C14.0989 122.791 14.708 123.089 15.1389 122.858L35.4538 111.965C35.8847 111.734 35.9765 111.059 35.6587 110.462C35.3409 109.864 34.7317 109.565 34.3008 109.796L13.9859 120.689Z" fill="#6C63FF"/>
<path d="M16.4898 125.398C16.0589 125.629 15.9672 126.303 16.285 126.901C16.6028 127.499 17.2119 127.798 17.6428 127.566L37.9577 116.673C38.3886 116.442 38.4804 115.768 38.1626 115.17C37.8448 114.572 37.2357 114.273 36.8048 114.504L16.4898 125.398Z" fill="#6C63FF"/>
<path d="M18.9918 130.106C18.5609 130.337 18.4691 131.011 18.7869 131.609C19.1048 132.207 19.7139 132.506 20.1448 132.275L40.4597 121.382C40.8906 121.151 40.9823 120.476 40.6645 119.878C40.3467 119.28 39.7376 118.982 39.3067 119.213L18.9918 130.106Z" fill="#6C63FF"/>
<path d="M21.4957 134.814C21.0648 135.045 20.973 135.72 21.2909 136.318C21.6087 136.916 22.2178 137.214 22.6487 136.983L42.9636 126.09C43.3945 125.859 43.4862 125.185 43.1684 124.587C42.8506 123.989 42.2415 123.69 41.8106 123.921L21.4957 134.814Z" fill="#6C63FF"/>
<path d="M23.9977 139.522C23.5667 139.753 23.475 140.428 23.7928 141.026C24.1106 141.624 24.7197 141.922 25.1506 141.691L45.4656 130.798C45.8965 130.567 45.9882 129.893 45.6704 129.295C45.3526 128.697 44.7435 128.398 44.3126 128.629L23.9977 139.522Z" fill="#6C63FF"/>
<path d="M305.281 216.866C305.18 216.806 305.059 216.789 304.946 216.818C304.832 216.848 304.734 216.921 304.675 217.022L280.792 257.612C280.732 257.714 280.715 257.835 280.744 257.949C280.774 258.063 280.847 258.161 280.948 258.221L311.449 276.324C311.55 276.384 311.671 276.401 311.785 276.372C311.899 276.342 311.996 276.269 312.056 276.167L335.939 235.578C335.998 235.476 336.015 235.355 335.986 235.241C335.957 235.127 335.884 235.029 335.783 234.969L305.281 216.866Z" fill="#E6E6E6"/>
<path d="M305.757 219.989L283.902 257.133L310.972 273.199L332.827 236.056L305.757 219.989ZM304.042 218.971L304.045 218.974L304.041 218.971L304.042 218.971Z" fill="white"/>
<path d="M305.833 228.165C305.413 227.916 304.791 228.188 304.448 228.771C304.105 229.355 304.167 230.032 304.588 230.282L324.414 242.049C324.834 242.298 325.456 242.026 325.799 241.443C326.143 240.86 326.08 240.182 325.659 239.932L305.833 228.165Z" fill="#6C63FF"/>
<path d="M303.13 232.76C302.71 232.511 302.088 232.783 301.745 233.366C301.402 233.95 301.464 234.628 301.885 234.877L321.711 246.644C322.131 246.894 322.753 246.622 323.096 246.038C323.439 245.455 323.377 244.777 322.956 244.527L303.13 232.76Z" fill="#6C63FF"/>
<path d="M300.427 237.355C300.007 237.106 299.385 237.378 299.042 237.961C298.699 238.545 298.761 239.223 299.182 239.472L319.008 251.239C319.428 251.489 320.05 251.217 320.393 250.633C320.736 250.05 320.674 249.372 320.253 249.122L300.427 237.355Z" fill="#6C63FF"/>
<path d="M297.722 241.951C297.301 241.701 296.68 241.973 296.337 242.557C295.993 243.14 296.056 243.818 296.477 244.067L316.302 255.834C316.723 256.084 317.344 255.812 317.688 255.228C318.031 254.645 317.968 253.967 317.548 253.718L297.722 241.951Z" fill="#6C63FF"/>
<path d="M295.019 246.545C294.598 246.296 293.977 246.568 293.634 247.151C293.29 247.735 293.353 248.413 293.773 248.662L313.599 260.429C314.02 260.678 314.641 260.406 314.985 259.823C315.328 259.24 315.265 258.562 314.845 258.312L295.019 246.545Z" fill="#6C63FF"/>
<path d="M292.316 251.141C291.895 250.891 291.274 251.163 290.931 251.746C290.587 252.33 290.65 253.008 291.07 253.257L310.896 265.024C311.317 265.274 311.938 265.002 312.282 264.418C312.625 263.835 312.562 263.157 312.142 262.907L292.316 251.141Z" fill="#6C63FF"/>
<path d="M195.132 142.998L194.671 145.863L189.817 175.912L186.771 185.684L185.699 189.122L184.8 192.013L173.874 227.062L170.877 234.136C169.232 234.747 167.819 235.859 166.834 237.316C165.849 238.774 165.343 240.504 165.385 242.264C165.428 244.025 166.017 245.728 167.071 247.136C168.125 248.544 169.59 249.586 171.262 250.116C172.935 250.646 174.73 250.639 176.398 250.094C178.065 249.549 179.522 248.494 180.563 247.077C181.604 245.66 182.179 243.951 182.206 242.19C182.233 240.429 181.712 238.704 180.714 237.255L202.098 187.294L202.891 185.586L205.318 180.36L209.901 145.627L210.189 143.443L195.132 142.998Z" fill="#FFB8B8"/>
<path d="M212.847 146.556C205.887 144.045 199.21 143.778 192.918 146.556L194.972 128.678C194.896 126.446 195.696 124.273 197.2 122.626C198.703 120.98 200.79 119.992 203.011 119.874C205.259 119.755 207.463 120.539 209.136 122.051C210.81 123.564 211.817 125.683 211.935 127.941L211.937 127.971L212.847 146.556Z" fill="#6C63FF"/>
</svg>
