<svg width="336" height="260" viewBox="0 0 336 260" fill="none" xmlns="http://www.w3.org/2000/svg">
<g clip-path="url(#clip0)">
<path d="M303.364 124.399L298.359 146.908L294.296 165.169L291.059 179.733L286.999 197.993L273.732 257.651L109.336 181.687L97.2518 176.102L81.9558 169.033L69.8673 163.448L55.3281 156.729L63.5707 144.737L70.4249 134.765L79.096 122.149L85.9484 112.183L163.057 0L244.742 72.4251L259.288 85.3216L270.887 95.6055L285.435 108.502L303.364 124.399Z" fill="#F2F2F2"/>
<path d="M64.405 190.622C53.4121 184.494 46.5686 176.127 44.0645 165.755C42.2053 158.054 42.7396 149.388 45.6524 139.997C47.8117 133.074 51.0492 126.534 55.2457 120.62C77.5084 89.1073 79.5178 68.5738 77.2831 56.8973C74.8331 44.0943 66.8728 38.7771 66.7926 38.7249L67.1363 38.1965C67.2185 38.2499 75.3885 43.6906 77.8975 56.7534C79.3439 64.2841 78.6634 72.8711 75.8749 82.2758C72.4044 93.9803 65.6369 107.003 55.7606 120.983C51.6024 126.844 48.3943 133.324 46.2544 140.184C41.4771 155.585 40.8012 176.742 64.7119 190.072L64.405 190.622Z" fill="#2F2E41"/>
<path d="M69.6918 190.622C80.6848 184.494 87.5283 176.127 90.0323 165.755C91.8916 158.054 91.3573 149.388 88.4445 139.997C86.2852 133.074 83.0476 126.534 78.8512 120.62C56.5884 89.1073 54.5791 68.5738 56.8137 56.8973C59.2638 44.0943 67.2241 38.7771 67.3042 38.7249L66.9606 38.1965C66.8784 38.2499 58.7084 43.6906 56.1994 56.7534C54.753 64.2841 55.4335 72.8711 58.222 82.2758C61.6925 93.9803 68.4599 107.003 78.3363 120.983C82.4945 126.844 85.7026 133.324 87.8425 140.184C92.6198 155.585 93.2957 176.742 69.385 190.072L69.6918 190.622Z" fill="#2F2E41"/>
<path d="M309.29 164.148C298.297 158.02 291.453 149.654 288.949 139.281C287.09 131.58 287.624 122.914 290.537 113.523C292.696 106.6 295.934 100.06 300.13 94.1456C322.393 62.6334 324.403 42.0999 322.168 30.4233C319.718 17.6204 311.758 12.3032 311.677 12.251L312.021 11.7225C312.103 11.7759 320.273 17.2167 322.782 30.2795C324.229 37.8102 323.548 46.3972 320.76 55.8019C317.289 67.5064 310.522 80.5295 300.645 94.5094C296.487 100.37 293.279 106.85 291.139 113.71C286.362 129.111 285.686 150.268 309.597 163.598L309.29 164.148Z" fill="#2F2E41"/>
<path d="M314.577 164.148C325.569 158.02 332.413 149.654 334.917 139.281C336.776 131.58 336.242 122.914 333.329 113.523C331.17 106.6 327.932 100.06 323.736 94.1456C301.473 62.6334 299.464 42.0999 301.698 30.4233C304.149 17.6204 312.109 12.3032 312.189 12.251L311.845 11.7225C311.763 11.7759 303.593 17.2167 301.084 30.2795C299.638 37.8102 300.318 46.3972 303.107 55.8019C306.577 67.5064 313.345 80.5295 323.221 94.5094C327.379 100.37 330.587 106.85 332.727 113.71C337.505 129.111 338.18 150.268 314.27 163.598L314.577 164.148Z" fill="#2F2E41"/>
<path d="M147.439 94.5327C139.179 80.5767 122.839 79.9262 122.839 79.9262C122.839 79.9262 106.916 77.89 96.7009 99.1452C87.1801 118.957 74.0402 138.085 94.5855 142.723L98.2966 131.172L100.595 143.583C103.52 143.793 106.455 143.843 109.385 143.733C131.388 143.023 152.342 143.941 151.667 136.046C150.77 125.55 155.386 107.961 147.439 94.5327Z" fill="#2F2E41"/>
<path d="M113.537 123.741C116.383 130.036 118.178 137.54 119.249 145.876L142.099 144.448C136.846 137.004 135.101 128.46 137.1 118.742L113.537 123.741Z" fill="#FFB8B8"/>
<path opacity="0.2" d="M113.537 123.741C116.383 130.036 118.178 137.54 119.249 145.876L142.099 144.448C136.846 137.004 135.101 128.46 137.1 118.742L113.537 123.741Z" fill="black"/>
<path d="M7.52368 243.605C7.52368 243.605 -4.30222 249.94 1.69881 255.348C7.69983 260.756 15.6269 248.189 15.6269 248.189L7.52368 243.605Z" fill="#FFB8B8"/>
<path d="M152.096 225.133L151.911 233.787L151.517 252.486V252.489L151.402 257.904H75.7773L78.8508 240.838L78.854 240.825L81.606 225.55L82.8342 218.709V218.706L144.956 210.138L152.096 225.133Z" fill="#2F2E41"/>
<path d="M152.095 225.134L151.91 233.789C129.932 233.224 95.8648 227.919 81.6055 225.549L82.8336 218.708L144.955 210.14L152.095 225.134Z" fill="#3F3D56"/>
<path d="M124.605 129.81C134.464 129.81 142.456 121.818 142.456 111.959C142.456 102.101 134.464 94.1085 124.605 94.1085C114.746 94.1085 106.754 102.101 106.754 111.959C106.754 121.818 114.746 129.81 124.605 129.81Z" fill="#FFB8B8"/>
<path d="M158.879 234.774C158.879 234.774 161.022 254.053 148.169 252.625L146.027 233.346L134.602 221.921L102.47 221.207L78.9072 243.342C78.9072 243.342 78.1931 220.493 81.0493 218.351C83.9054 216.209 90.3318 211.211 90.3318 211.211V207.64L71.0527 168.368C71.0527 168.368 82.4774 144.805 91.7599 144.091L103.899 143.377C103.899 143.377 108.183 141.235 108.183 140.521C108.183 139.807 107.469 134.094 111.039 135.522C111.039 135.522 111.36 128.196 115.123 130.431C115.123 130.431 126.969 139.714 138.994 130.838C138.994 130.838 144.599 129.81 143.885 132.666C143.171 135.522 143.885 137.665 145.313 137.665C146.741 137.665 153.167 139.807 153.167 141.235C153.167 141.542 153.631 144.498 154.36 148.946V148.953C157.009 165.169 163.164 201.214 163.164 201.214C163.164 201.214 169.59 210.496 158.879 234.774Z" fill="#6C63FF"/>
<path d="M76.0502 164.798L71.052 168.368L25.3535 226.919L1.07617 246.199C1.07617 246.199 14.6429 244.056 11.7868 255.481L95.3293 207.64L76.0502 164.798Z" fill="#6C63FF"/>
<path d="M154.358 148.947V148.954C153.408 154.538 122.462 153.374 118.178 153.374C113.893 153.374 110.323 152.66 106.039 149.803C101.755 146.947 103.897 143.377 103.897 143.377C103.897 143.377 107.545 140.599 107.545 139.885C107.545 139.171 106.831 133.458 110.401 134.886C110.401 134.886 110.722 127.56 114.485 129.795C114.485 129.795 126.967 139.714 138.992 130.839C138.992 130.839 144.597 129.81 143.883 132.666C143.169 135.523 143.883 137.665 145.311 137.665C146.739 137.665 153.166 139.807 153.166 141.235C153.166 141.542 153.63 144.498 154.358 148.947Z" fill="#3F3D56"/>
<path d="M150.668 122.313C150.668 122.313 144.956 110.174 139.243 115.886C133.531 121.599 145.67 130.167 145.67 130.167L150.668 122.313Z" fill="#FFB8B8"/>
<path d="M150.668 119.456C150.668 119.456 141.847 130.604 139.117 131.456C139.117 131.456 147.098 163.013 157.094 171.581L162.807 200.857C162.807 200.857 187.084 190.86 181.372 174.437C181.314 174.273 181.258 174.11 181.201 173.948C176.431 160.271 169.849 147.295 161.63 135.369L150.668 119.456Z" fill="#6C63FF"/>
<path opacity="0.2" d="M145.953 152.519L163.52 200.857L157.093 171.581L145.953 152.519Z" fill="black"/>
<path d="M143.787 93.1865L127.643 84.7303L105.349 88.1895L100.736 108.562L112.218 108.12L115.426 100.635V107.997L120.724 107.793L123.799 95.8771L125.721 108.562L144.556 108.177L143.787 93.1865Z" fill="#2F2E41"/>
<path d="M296.297 203.073L305.456 235.747C305.456 235.747 303.569 264.688 312.377 259.025C321.391 253.231 318.039 228.826 318.039 228.826L312.76 199.514L296.297 203.073Z" fill="#A0616A"/>
<path d="M301.19 111.415L308.754 118.979V155.019C308.754 155.019 313.203 161.693 312.313 163.473C311.423 165.253 310.534 165.253 311.423 166.588C312.313 167.923 313.203 168.812 312.313 169.702C311.423 170.592 311.423 172.817 312.313 173.707C313.203 174.597 314.983 175.931 313.648 177.266C312.313 178.601 310.534 177.711 312.313 182.606C314.093 187.5 317.208 188.835 316.318 190.614C315.428 192.394 315.428 196.844 315.428 196.844L296.295 199.513L292.291 149.235L301.19 111.415Z" fill="#D0CDE1"/>
<path d="M316.319 196.4L294.072 197.29L294.962 206.633L314.539 203.074L316.319 196.4Z" fill="#3F3D56"/>
<path d="M255.14 64.9196L252.471 91.6157L279.612 95.6202L281.614 80.2701L283.617 64.9196H255.14Z" fill="#A0616A"/>
<path opacity="0.1" d="M255.14 64.7748L252.471 91.4713L279.612 95.4758L281.614 80.1253L283.617 64.7748H255.14Z" fill="black"/>
<path d="M196.186 191.95L211.313 224.43C211.313 224.43 213.983 239.558 217.988 240.003C221.992 240.448 225.996 224.43 225.996 224.43L220.657 215.977L214.428 191.95H196.186Z" fill="#A0616A"/>
<path d="M299.741 258.219H214.215C214.893 247.5 215.319 240.892 215.319 240.892L216.455 239.104L221.962 230.45L225.895 224.271L227.266 222.114L227.775 221.315L233.162 220.332L288.732 210.192C289.651 214.308 290.952 218.329 292.617 222.203C292.996 223.065 293.403 223.927 293.839 224.78C295.236 227.507 296.941 230.09 298.968 231.993C299.429 232.426 299.763 233.581 299.979 235.356C300.514 239.705 300.361 247.793 299.741 258.219Z" fill="#2F2E41"/>
<path d="M270.045 73.5959C281.84 73.5959 291.402 64.034 291.402 52.2388C291.402 40.4437 281.84 30.8818 270.045 30.8818C258.249 30.8818 248.688 40.4437 248.688 52.2388C248.688 64.034 258.249 73.5959 270.045 73.5959Z" fill="#A0616A"/>
<path d="M222.437 95.8425L219.322 94.0627C219.322 94.0627 205.529 103.406 201.08 124.319C196.631 145.231 193.516 150.57 193.516 150.57C193.516 150.57 189.067 151.46 192.181 154.574C195.296 157.689 195.296 157.244 192.626 159.024C189.956 160.804 188.177 157.244 189.956 160.804C191.736 164.363 193.961 163.473 192.181 165.698C190.401 167.923 187.287 167.923 189.067 169.702C190.846 171.482 187.287 175.486 189.512 177.266C191.736 179.046 192.626 179.491 192.626 182.605C192.612 184.423 192.914 186.23 193.516 187.945H216.653C216.653 187.945 212.203 179.491 213.538 177.711C214.873 175.931 215.318 174.152 214.428 173.262C213.538 172.372 210.869 174.152 213.538 171.927C216.208 169.702 217.098 171.037 216.208 168.367C215.318 165.698 213.538 167.033 215.318 165.698C217.098 164.363 218.433 164.808 217.543 163.473C216.653 162.138 214.873 162.138 216.653 161.248C218.433 160.359 219.767 161.248 219.322 159.024C218.877 156.799 218.433 157.689 219.322 156.799C220.212 155.909 229.556 125.653 229.556 124.763C229.556 123.874 222.437 95.8425 222.437 95.8425Z" fill="#D0CDE1"/>
<path d="M217.986 186.165L189.955 187.945L197.074 194.619L216.652 195.064L217.986 186.165Z" fill="#3F3D56"/>
<path d="M225.997 219.536L220.213 230.215C220.213 230.215 237.565 232.439 243.795 234.664C250.024 236.889 266.042 240.003 266.042 240.003L270.046 224.43L225.997 219.536Z" fill="#3F3D56"/>
<path d="M276.719 224.43L281.613 239.113L301.19 235.108L298.966 221.315L276.719 224.43Z" fill="#3F3D56"/>
<path d="M284.728 80.7151C284.728 80.7151 283.393 79.8252 280.279 81.605C277.164 83.3847 266.931 84.2746 262.036 78.9353C257.142 73.5961 253.583 69.1467 252.248 70.0366C250.913 70.9264 250.023 81.16 250.023 81.16L245.574 84.7195L219.322 94.0633L221.547 154.13L225.551 167.923C225.551 167.923 222.437 178.602 226.441 184.831C230.446 191.06 224.217 193.285 224.217 193.285C224.217 193.285 222.882 195.064 223.772 199.514C224.662 203.963 222.882 220.426 222.882 220.426C222.882 220.426 260.702 237.334 300.301 222.651L295.852 205.743L293.627 167.923C293.627 167.923 295.852 161.694 295.407 159.024C294.962 156.355 308.755 118.98 308.755 118.98C308.755 118.98 306.53 100.292 294.962 96.288C283.393 92.2835 281.614 88.2791 281.614 88.2791C281.614 88.2791 286.953 82.4948 284.728 80.7151Z" fill="#D0CDE1"/>
<path d="M248.541 54.9742C248.541 54.9742 246.323 51.6475 247.176 48.0649C247.685 46.0308 247.887 43.9318 247.773 41.8379C247.773 41.8379 249.564 36.0375 251.355 32.7961C253.147 29.5546 252.294 28.1898 257.924 27.1662C263.553 26.1426 261.25 18.8068 276.093 26.7397C276.593 27.4389 277.29 27.974 278.095 28.2777C278.899 28.5813 279.776 28.6398 280.614 28.4457C283.684 27.8486 284.793 32.1137 284.793 32.1137C284.793 32.1137 286.841 30.9194 287.608 32.6255C288.376 34.3315 293.85 31.6015 293.85 43.1171C293.85 54.6327 287.621 64.9191 287.621 64.9191C287.621 64.9191 288.077 45.5485 277.927 43.5866C267.776 41.6247 256.857 35.9095 254.213 43.2454C251.569 50.5812 248.541 54.9742 248.541 54.9742Z" fill="#2F2E41"/>
<path d="M287.842 59.5804C288.948 59.5804 289.844 58.3852 289.844 56.9108C289.844 55.4364 288.948 54.2411 287.842 54.2411C286.736 54.2411 285.84 55.4364 285.84 56.9108C285.84 58.3852 286.736 59.5804 287.842 59.5804Z" fill="#A0616A"/>
</g>
<defs>
<clipPath id="clip0">
<rect width="336" height="259.759" fill="white"/>
</clipPath>
</defs>
</svg>
