<svg width="336" height="307" viewBox="0 0 336 307" fill="none" xmlns="http://www.w3.org/2000/svg">
<g clip-path="url(#clip0)">
<path d="M204.985 204.096H131.015C130.756 204.095 130.508 203.992 130.325 203.809C130.142 203.627 130.039 203.378 130.039 203.12V121.733C130.039 121.474 130.142 121.226 130.325 121.043C130.508 120.86 130.756 120.757 131.015 120.757H204.985C205.244 120.757 205.492 120.86 205.675 121.043C205.858 121.226 205.961 121.474 205.961 121.733V203.12C205.961 203.378 205.858 203.627 205.675 203.809C205.492 203.992 205.244 204.095 204.985 204.096Z" fill="white"/>
<path d="M204.985 204.096H131.015C130.756 204.095 130.508 203.992 130.325 203.809C130.142 203.627 130.039 203.378 130.039 203.12V121.733C130.039 121.474 130.142 121.226 130.325 121.043C130.508 120.86 130.756 120.757 131.015 120.757H204.985C205.244 120.757 205.492 120.86 205.675 121.043C205.858 121.226 205.961 121.474 205.961 121.733V203.12C205.961 203.378 205.858 203.627 205.675 203.809C205.492 203.992 205.244 204.095 204.985 204.096ZM131.015 121.147C130.86 121.148 130.711 121.209 130.601 121.319C130.491 121.429 130.43 121.578 130.429 121.733V203.12C130.43 203.275 130.491 203.424 130.601 203.534C130.711 203.643 130.86 203.705 131.015 203.705H204.985C205.14 203.705 205.289 203.643 205.399 203.534C205.509 203.424 205.57 203.275 205.571 203.12V121.733C205.57 121.578 205.509 121.429 205.399 121.319C205.289 121.209 205.14 121.148 204.985 121.147H131.015Z" fill="#3F3D56"/>
<path d="M162.926 151.79H144.579C144.321 151.789 144.073 151.686 143.89 151.503C143.707 151.32 143.604 151.072 143.604 150.814V132.467C143.604 132.209 143.707 131.961 143.89 131.778C144.073 131.595 144.321 131.492 144.579 131.492H162.926C163.184 131.492 163.432 131.595 163.615 131.778C163.798 131.961 163.901 132.209 163.901 132.467V150.814C163.901 151.072 163.798 151.32 163.615 151.503C163.432 151.686 163.184 151.789 162.926 151.79ZM144.579 131.882C144.424 131.882 144.275 131.944 144.166 132.054C144.056 132.163 143.994 132.312 143.994 132.467V150.814C143.994 150.969 144.056 151.118 144.166 151.227C144.275 151.337 144.424 151.399 144.579 151.399H162.926C163.081 151.399 163.23 151.337 163.339 151.227C163.449 151.118 163.511 150.969 163.511 150.814V132.467C163.511 132.312 163.449 132.163 163.339 132.054C163.23 131.944 163.081 131.882 162.926 131.882H144.579Z" fill="#F2F2F2"/>
<path d="M157.656 154.034H139.31C139.077 154.034 138.854 153.941 138.689 153.777C138.525 153.612 138.432 153.389 138.432 153.156V134.81C138.432 134.577 138.525 134.354 138.689 134.189C138.854 134.024 139.077 133.932 139.31 133.931H157.656C157.889 133.932 158.112 134.024 158.277 134.189C158.442 134.354 158.534 134.577 158.534 134.81V153.156C158.534 153.389 158.442 153.612 158.277 153.777C158.112 153.941 157.889 154.034 157.656 154.034Z" fill="#6C63FF"/>
<path d="M196.69 163.013H139.31C139.194 163.013 139.08 162.99 138.973 162.946C138.866 162.902 138.769 162.838 138.688 162.756C138.606 162.675 138.541 162.578 138.497 162.471C138.452 162.364 138.43 162.25 138.43 162.134C138.43 162.019 138.452 161.905 138.497 161.798C138.541 161.691 138.606 161.594 138.688 161.513C138.769 161.431 138.866 161.366 138.973 161.322C139.08 161.278 139.194 161.256 139.31 161.256H196.69C196.923 161.256 197.147 161.349 197.311 161.513C197.476 161.678 197.569 161.901 197.569 162.134C197.569 162.367 197.476 162.591 197.311 162.755C197.147 162.92 196.923 163.013 196.69 163.013V163.013Z" fill="#CCCCCC"/>
<path d="M182.833 169.062H139.31C139.194 169.062 139.08 169.04 138.973 168.996C138.866 168.952 138.769 168.887 138.688 168.805C138.606 168.724 138.541 168.627 138.497 168.52C138.452 168.414 138.43 168.299 138.43 168.184C138.43 168.068 138.452 167.954 138.497 167.847C138.541 167.741 138.606 167.644 138.688 167.562C138.769 167.481 138.866 167.416 138.973 167.372C139.08 167.328 139.194 167.305 139.31 167.306H182.833C183.066 167.306 183.29 167.398 183.454 167.563C183.619 167.727 183.711 167.951 183.711 168.184C183.711 168.417 183.619 168.64 183.454 168.805C183.29 168.97 183.066 169.062 182.833 169.062V169.062Z" fill="#CCCCCC"/>
<path d="M196.495 140.762H171.122C170.889 140.762 170.666 140.67 170.501 140.505C170.337 140.341 170.244 140.117 170.244 139.884C170.244 139.651 170.337 139.428 170.501 139.263C170.666 139.098 170.889 139.006 171.122 139.006H196.495C196.61 139.006 196.725 139.028 196.831 139.072C196.938 139.116 197.035 139.181 197.117 139.263C197.199 139.344 197.264 139.441 197.308 139.548C197.352 139.654 197.375 139.769 197.375 139.884C197.375 140 197.352 140.114 197.308 140.221C197.264 140.327 197.199 140.424 197.117 140.506C197.035 140.587 196.938 140.652 196.831 140.696C196.725 140.74 196.61 140.763 196.495 140.762Z" fill="#6C63FF"/>
<path d="M190.163 146.813H171.122C170.89 146.813 170.666 146.72 170.501 146.556C170.337 146.391 170.244 146.168 170.244 145.935C170.244 145.702 170.337 145.478 170.501 145.314C170.666 145.149 170.89 145.056 171.122 145.056H190.163C190.396 145.056 190.619 145.149 190.784 145.314C190.948 145.478 191.041 145.702 191.041 145.935C191.041 146.168 190.948 146.391 190.784 146.556C190.619 146.72 190.396 146.813 190.163 146.813Z" fill="#6C63FF"/>
<path d="M196.691 175.113H139.31C139.077 175.113 138.854 175.02 138.689 174.855C138.524 174.691 138.432 174.467 138.432 174.234C138.432 174.001 138.524 173.778 138.689 173.613C138.854 173.449 139.077 173.356 139.31 173.356H196.691C196.806 173.356 196.92 173.378 197.027 173.422C197.134 173.466 197.231 173.531 197.313 173.613C197.394 173.694 197.459 173.791 197.504 173.898C197.548 174.005 197.571 174.119 197.571 174.234C197.571 174.35 197.548 174.464 197.504 174.571C197.459 174.678 197.394 174.774 197.313 174.856C197.231 174.938 197.134 175.002 197.027 175.046C196.92 175.09 196.806 175.113 196.691 175.113Z" fill="#CCCCCC"/>
<path d="M182.833 181.163H139.31C139.077 181.163 138.854 181.071 138.689 180.906C138.524 180.741 138.432 180.518 138.432 180.285C138.432 180.052 138.524 179.829 138.689 179.664C138.854 179.499 139.077 179.407 139.31 179.407H182.833C182.949 179.406 183.063 179.429 183.17 179.473C183.277 179.517 183.374 179.582 183.456 179.663C183.537 179.745 183.602 179.842 183.646 179.948C183.691 180.055 183.713 180.169 183.713 180.285C183.713 180.4 183.691 180.515 183.646 180.621C183.602 180.728 183.537 180.825 183.456 180.907C183.374 180.988 183.277 181.053 183.17 181.097C183.063 181.141 182.949 181.163 182.833 181.163L182.833 181.163Z" fill="#CCCCCC"/>
<path d="M196.69 187.214H139.31C139.194 187.214 139.08 187.191 138.973 187.147C138.866 187.103 138.769 187.039 138.688 186.957C138.606 186.876 138.541 186.779 138.497 186.672C138.452 186.565 138.43 186.451 138.43 186.335C138.43 186.22 138.452 186.106 138.497 185.999C138.541 185.892 138.606 185.795 138.688 185.714C138.769 185.632 138.866 185.567 138.973 185.523C139.08 185.479 139.194 185.457 139.31 185.457H196.69C196.923 185.457 197.147 185.55 197.311 185.714C197.476 185.879 197.569 186.102 197.569 186.335C197.569 186.568 197.476 186.792 197.311 186.956C197.147 187.121 196.923 187.214 196.69 187.214Z" fill="#CCCCCC"/>
<path d="M196.691 193.263H139.31C139.077 193.263 138.854 193.171 138.689 193.006C138.524 192.841 138.432 192.618 138.432 192.385C138.432 192.152 138.524 191.929 138.689 191.764C138.854 191.599 139.077 191.507 139.31 191.507H196.691C196.923 191.507 197.147 191.599 197.312 191.764C197.476 191.929 197.569 192.152 197.569 192.385C197.569 192.618 197.476 192.841 197.312 193.006C197.147 193.171 196.923 193.263 196.691 193.263Z" fill="#CCCCCC"/>
<path d="M114.615 240.149C114.617 251.614 111.166 262.815 104.712 272.291C98.258 281.767 89.0995 289.08 78.4298 293.277C77.5929 293.613 76.7405 293.925 75.8843 294.214C74.9278 294.542 73.961 294.843 72.9839 295.117C72.3051 295.306 71.6199 295.483 70.9282 295.649C60.5162 298.144 49.6141 297.679 39.4523 294.307C38.6539 294.041 37.8632 293.755 37.0803 293.458C36.0273 293.053 34.986 292.618 33.9639 292.151C33.8868 292.12 33.8135 292.085 33.7402 292.051C33.3391 291.865 32.9496 291.68 32.5523 291.484H32.5484C32.0046 291.221 31.466 290.949 30.9324 290.666C29.7059 290.018 28.5064 289.328 27.334 288.595C26.7246 288.217 26.1242 287.825 25.5328 287.419C16.2248 281.134 8.97847 272.243 4.70161 261.858C0.424747 251.473 -0.692374 240.058 1.49021 229.041C3.6728 218.024 9.05803 207.896 16.9711 199.927C24.8843 191.957 34.9733 186.5 45.9742 184.239C46.9809 184.031 47.9978 183.851 49.025 183.699C49.6691 183.599 50.3209 183.514 50.9728 183.441C51.4394 183.387 51.9061 183.337 52.3805 183.298H52.3844C53.6533 183.183 54.9338 183.111 56.2258 183.082C56.4032 183.078 56.5806 183.075 56.7619 183.071C56.8622 183.071 56.9625 183.067 57.0628 183.071H57.0666C57.2209 183.067 57.3752 183.067 57.5333 183.067C58.1813 183.067 58.8292 183.078 59.4733 183.102C60.8926 183.148 62.2965 183.246 63.685 183.395C64.4872 183.48 65.2779 183.584 66.0686 183.699C66.1573 183.715 66.2498 183.726 66.3385 183.742C66.6008 183.784 66.8669 183.827 67.1292 183.873C67.6846 183.962 68.2361 184.066 68.7877 184.178C69.3045 184.282 69.8174 184.39 70.3304 184.506C72.2263 184.938 74.0981 185.47 75.9383 186.098C88.4096 190.362 99.0274 198.799 105.999 209.984C106.195 210.296 106.388 210.613 106.577 210.933C106.724 211.172 106.863 211.411 107.002 211.654C107.052 211.735 107.098 211.816 107.14 211.897C107.171 211.943 107.194 211.99 107.221 212.036C107.476 212.479 107.723 212.931 107.962 213.382C112.344 221.622 114.629 230.815 114.615 240.149Z" fill="white"/>
<path d="M57.5402 297.618C51.3521 297.618 45.2043 296.623 39.3316 294.673C38.5744 294.421 37.7937 294.141 36.9444 293.819C35.8728 293.407 34.817 292.964 33.8046 292.502C33.7371 292.475 33.6571 292.438 33.5771 292.4C33.1932 292.223 32.8178 292.045 32.4361 291.856L32.3818 291.831C31.8403 291.57 31.2921 291.293 30.7527 291.007C29.5242 290.358 28.3054 289.656 27.1304 288.922C26.5189 288.543 25.9079 288.144 25.3152 287.736C15.9449 281.409 8.65018 272.457 4.34497 262.003C0.0397544 251.548 -1.08448 240.055 1.11311 228.964C3.31071 217.874 8.7324 207.678 16.6989 199.655C24.6654 191.632 34.8224 186.138 45.8974 183.862C46.9072 183.653 47.941 183.47 48.9695 183.318C49.5788 183.223 50.2395 183.136 50.9305 183.058C51.4003 183.004 51.8713 182.953 52.3501 182.914C53.621 182.799 54.9224 182.725 56.2182 182.697L56.8582 182.685C56.9315 182.683 57.0048 182.683 57.0781 182.685C57.2154 182.682 57.3728 182.682 57.5341 182.682C58.1867 182.682 58.8441 182.693 59.488 182.716C60.9106 182.763 62.3372 182.862 63.727 183.011C64.463 183.089 65.2476 183.19 66.1252 183.318L66.496 183.377C66.7292 183.414 66.9647 183.452 67.1971 183.493C67.6973 183.573 68.2293 183.671 68.8651 183.8C69.3844 183.905 69.9003 184.013 70.4162 184.13C72.3254 184.566 74.2105 185.101 76.0638 185.734C88.6127 190.038 99.2985 198.529 106.327 209.78C106.525 210.094 106.719 210.413 106.91 210.737C107.056 210.974 107.196 211.216 107.337 211.463C107.382 211.535 107.43 211.618 107.474 211.702C107.496 211.736 107.515 211.769 107.534 211.803L107.555 211.842C107.798 212.264 108.042 212.708 108.304 213.201C112.098 220.353 114.339 228.225 114.88 236.302C115.421 244.38 114.249 252.481 111.443 260.074C108.636 267.667 104.257 274.582 98.5922 280.366C92.9276 286.15 86.1052 290.672 78.5719 293.636C77.7551 293.964 76.8918 294.281 76.0086 294.58C75.0521 294.908 74.0692 295.213 73.0889 295.488C72.4099 295.677 71.7138 295.858 71.019 296.024C66.6042 297.083 62.0801 297.617 57.5402 297.618ZM32.6376 291.098H32.6396L32.7244 291.138C33.1184 291.333 33.5048 291.517 33.9027 291.7C33.9728 291.734 34.0387 291.765 34.1081 291.793C35.1231 292.256 36.1643 292.693 37.2195 293.098C38.0574 293.416 38.8285 293.692 39.5751 293.941C49.6681 297.293 60.4975 297.755 70.8392 295.274C71.5248 295.11 72.2119 294.932 72.8813 294.745C73.847 294.475 74.8158 294.173 75.7601 293.85C76.6314 293.555 77.4811 293.242 78.2871 292.919C88.9109 288.788 98.0329 281.534 104.45 272.113C110.866 262.692 114.277 251.547 114.23 240.149V240.148C114.236 230.879 111.967 221.751 107.622 213.563C107.365 213.077 107.125 212.641 106.888 212.228L106.859 212.178C106.847 212.156 106.835 212.133 106.821 212.112L106.8 212.076C106.761 212.003 106.72 211.93 106.674 211.857C106.531 211.606 106.394 211.37 106.249 211.135C106.059 210.812 105.868 210.499 105.673 210.19C98.739 199.088 88.1958 190.71 75.8144 186.464C73.9869 185.84 72.1281 185.312 70.2455 184.882C69.7363 184.767 69.2262 184.659 68.7123 184.556C68.0867 184.429 67.5647 184.333 67.0692 184.254C66.8343 184.213 66.6026 184.175 66.3732 184.138L66.0033 184.08C65.1462 183.954 64.3715 183.855 63.6452 183.779C62.2738 183.631 60.8664 183.533 59.4616 183.487C58.8255 183.464 58.1774 183.453 57.5341 183.453C57.3772 183.453 57.228 183.453 57.0769 183.456C56.9887 183.454 56.9282 183.455 56.8679 183.456L56.2348 183.468C54.957 183.496 53.6735 183.568 52.4202 183.683L52.3814 183.684C51.9427 183.721 51.4803 183.771 51.0179 183.824C50.3364 183.901 49.6866 183.987 49.0852 184.081C48.0682 184.231 47.0491 184.411 46.0532 184.617C35.1265 186.863 25.1056 192.283 17.2459 200.199C9.38618 208.114 4.03729 218.173 1.8694 229.116C-0.298479 240.058 0.811064 251.397 5.05902 261.711C9.30697 272.026 16.5044 280.857 25.7495 287.099C26.3348 287.501 26.9357 287.894 27.5381 288.267C28.6985 288.992 29.901 289.685 31.1135 290.325C31.6184 290.593 32.1306 290.852 32.6376 291.098Z" fill="#CBCBCB"/>
<path d="M106.38 227.754C105.757 228.568 104.963 229.235 104.054 229.708C103.145 230.181 102.144 230.45 101.12 230.494C100.097 230.538 99.0756 230.358 98.1293 229.965C97.183 229.572 96.3343 228.976 95.6431 228.22L80.5831 233.67L75.0391 225.326L96.4147 217.928C97.7623 216.851 99.458 216.306 101.181 216.396C102.903 216.485 104.533 217.204 105.762 218.415C106.99 219.626 107.731 221.246 107.845 222.967C107.959 224.689 107.438 226.392 106.38 227.754Z" fill="#9F616A"/>
<path d="M59.3203 228.531L90.3466 218.275L95.5749 229.688L66.6484 238.559L59.3203 228.531Z" fill="#CCCCCC"/>
<path d="M70.9291 295.65C60.5171 298.145 49.6149 297.68 39.4531 294.308L40.1474 287.743L40.7915 281.611L50.4529 266.673L53.55 261.887L66.3124 266.526L67.6122 274.722L69.6833 287.793L70.9291 295.65Z" fill="#2F2E41"/>
<path d="M78.4305 293.277C77.5936 293.613 76.7412 293.925 75.885 294.214C74.9285 294.542 73.9617 294.843 72.9846 295.117C72.3058 295.306 71.6206 295.483 70.9289 295.649C60.5169 298.144 49.6148 297.679 39.453 294.307C38.6546 294.041 37.8639 293.755 37.081 293.458C37.1878 295.742 37.1182 298.031 36.8727 300.304C35.7586 297.64 34.7878 294.919 33.9646 292.151C33.9068 291.966 33.8528 291.781 33.7988 291.596C33.5288 290.662 33.2897 289.771 33.0737 288.934C32.8269 287.966 32.6147 287.068 32.4373 286.246C31.7315 283.022 31.5078 281.028 31.5078 281.028L39.048 265.369L40.556 265.542L41.1809 265.612L44.9606 266.044L50.4528 266.672L59.3506 267.687L67.612 274.722L75.0134 281.028C75.0134 281.028 75.6304 283.126 76.5985 286.601C77.1231 288.468 77.744 290.732 78.4305 293.277Z" fill="#2F2E41"/>
<path d="M54.5267 189.115C61.8948 189.115 67.8679 183.142 67.8679 175.774C67.8679 168.406 61.8948 162.433 54.5267 162.433C47.1586 162.433 41.1855 168.406 41.1855 175.774C41.1855 183.142 47.1586 189.115 54.5267 189.115Z" fill="#9F616A"/>
<path d="M63.8132 203.879C63.8132 203.879 60.6068 193.967 53.0661 193.967C51.181 193.967 48.1388 194.124 45.6656 195.737C35.7088 202.235 29.6516 213.279 29.1875 225.159L26.8691 284.509C26.8691 284.509 39.6303 289.149 44.2707 287.409C48.9111 285.669 53.5515 274.068 53.5515 274.068C53.5515 274.068 52.3914 289.729 57.0318 289.149C61.6722 288.569 79.0737 287.409 79.6537 285.089C80.2338 282.769 70.7738 232.881 70.7738 232.881L63.8132 203.879Z" fill="#CCCCCC"/>
<path d="M48.0401 179.685C49.2369 179.614 50.4055 180.018 51.5941 180.176C55.8464 180.741 60.27 177.655 61.2089 173.47C61.2842 172.912 61.4503 172.371 61.7007 171.867C62.3551 170.799 63.8456 170.595 65.0743 170.841C66.3029 171.086 67.4676 171.661 68.7189 171.727C70.6509 171.828 72.5057 170.639 73.5353 169.001C74.5649 167.363 74.8564 165.348 74.7175 163.418L73.7913 164.39C73.4149 163.594 73.2696 162.708 73.3719 161.833C72.8811 161.703 72.365 161.7 71.8729 161.826C71.3808 161.952 70.9294 162.202 70.5617 162.553C69.745 162.639 70.3614 161.038 69.7546 160.484C69.4595 160.303 69.1078 160.237 68.7672 160.299C67.0298 160.316 65.6243 158.987 64.2552 157.918C61.8831 156.068 59.1091 154.803 56.1575 154.224C54.1957 153.841 52.1095 153.78 50.249 154.51C48.721 155.11 47.4421 156.203 46.2589 157.341C43.346 160.142 40.7667 163.433 39.5548 167.288C38.5697 170.445 38.5418 173.824 39.4747 176.997C39.9629 178.645 41.4345 184.289 43.5889 184.421C46.2959 184.586 44.6706 179.886 48.0401 179.685Z" fill="#2F2E41"/>
<path opacity="0.1" d="M53.6731 221.444L40.0116 241.481L35.6426 288.022L53.6731 221.444Z" fill="black"/>
<path d="M111.574 209.196C111.9 208.738 112.026 208.267 111.854 208.145C111.683 208.022 111.278 208.294 110.951 208.752C110.624 209.21 110.499 209.681 110.67 209.804C110.842 209.926 111.247 209.654 111.574 209.196Z" fill="#3F3D56"/>
<path d="M93.3551 230.782C92.97 230.507 92.7099 230.091 92.6319 229.624C92.5538 229.158 92.6644 228.679 92.9391 228.294L108.477 206.517C108.752 206.132 109.168 205.871 109.635 205.793C110.101 205.715 110.58 205.826 110.965 206.101L93.355 230.782L93.3551 230.782Z" fill="#6C63FF"/>
<path d="M93.9924 232.959L93.0934 232.318C92.9391 232.208 92.8079 232.068 92.7075 231.907C92.6071 231.747 92.5393 231.568 92.508 231.381C92.4768 231.194 92.4827 231.002 92.5253 230.818C92.568 230.633 92.6466 230.459 92.7567 230.304L110.448 205.509C110.636 205.246 110.92 205.068 111.239 205.015C111.558 204.961 111.885 205.037 112.148 205.225L113.23 205.996L93.9924 232.959H93.9924Z" fill="#2F2E41"/>
<path d="M109.914 208.012L108.73 209.671L109.145 209.967L110.329 208.308L109.914 208.012Z" fill="#D0CDE1"/>
<path d="M108.287 210.294L107.104 211.953L107.518 212.249L108.702 210.59L108.287 210.294Z" fill="#D0CDE1"/>
<path d="M38.7435 303.202C39.342 302.371 39.7509 301.418 39.9414 300.411C40.1319 299.404 40.0994 298.368 39.8461 297.375C39.5928 296.382 39.1248 295.457 38.4753 294.665C37.8257 293.872 37.0103 293.232 36.0865 292.789L36.9519 276.797L27.3616 273.9L26.4568 296.502C25.8151 298.103 25.7831 299.884 26.3669 301.507C26.9507 303.131 28.1096 304.484 29.6241 305.309C31.1386 306.135 32.9034 306.377 34.5842 305.989C36.2649 305.6 37.7449 304.609 38.7435 303.202H38.7435Z" fill="#9F616A"/>
<path d="M38.6918 290.048H24.8176L21 247.312L21.0131 247.273L33.9989 209.135C34.4561 207.793 35.188 206.56 36.1479 205.515C37.1077 204.471 38.2746 203.637 39.5742 203.069C40.8737 202.5 42.2775 202.208 43.6961 202.212C45.1146 202.215 46.5169 202.514 47.8136 203.089C49.1103 203.665 50.273 204.504 51.2277 205.553C52.1823 206.602 52.908 207.839 53.3585 209.184C53.8091 210.529 53.9745 211.953 53.8444 213.366C53.7143 214.778 53.2914 216.148 52.6027 217.388L37.3227 244.906L38.6918 290.048Z" fill="#CCCCCC"/>
<path d="M335.616 104.712C335.626 115.961 332.316 126.963 326.1 136.338C319.884 145.714 311.038 153.045 300.673 157.415C290.307 161.784 278.882 162.996 267.831 160.899C256.779 158.802 246.592 153.489 238.547 145.626C230.503 137.764 224.958 127.701 222.608 116.701C220.258 105.7 221.208 94.2505 225.339 83.7874C229.469 73.3243 236.596 64.3133 245.827 57.884C255.057 51.4547 265.98 47.8933 277.226 47.6461C277.404 47.6423 277.581 47.6384 277.762 47.6345C278.017 47.6307 278.275 47.6307 278.534 47.6307C279.182 47.6307 279.83 47.6422 280.474 47.6654C281.893 47.7117 283.297 47.8094 284.686 47.9585C285.488 48.0434 286.278 48.1475 287.069 48.2632C287.158 48.2786 287.25 48.2902 287.339 48.3056C290.602 48.8086 293.814 49.5972 296.939 50.6622C308.219 54.5093 318.014 61.7892 324.949 71.4818C331.885 81.1743 335.615 92.7939 335.616 104.712Z" fill="white"/>
<path d="M278.48 162.286C246.787 162.288 220.991 136.52 220.961 104.821C220.947 89.7751 226.828 75.3228 237.345 64.5627C247.861 53.8025 262.175 47.5913 277.217 47.2607L277.753 47.249C278.661 47.236 279.586 47.2477 280.487 47.2801C281.908 47.3266 283.334 47.4258 284.726 47.5753C285.462 47.6531 286.247 47.7535 287.124 47.8819L287.404 47.9258C300.951 50.0292 313.297 56.9111 322.21 67.3267C331.124 77.7423 336.015 91.0038 336 104.713V104.712C336.03 136.429 310.251 162.256 278.535 162.286L278.48 162.286ZM278.527 48.0166C278.272 48.0166 278.018 48.0166 277.767 48.0204L277.234 48.032C246.601 48.7051 221.703 74.1803 221.732 104.82C221.762 136.092 247.215 161.513 278.48 161.515H278.534C309.825 161.485 335.258 136.004 335.229 104.713V104.713C335.244 91.1868 330.417 78.1022 321.622 67.8261C312.828 57.5499 300.645 50.7608 287.279 48.687L287.002 48.6435C286.146 48.5181 285.371 48.419 284.644 48.3424C283.271 48.1947 281.863 48.0968 280.46 48.0511C279.824 48.0281 279.176 48.0166 278.533 48.0166H278.527Z" fill="#CBCBCB"/>
<path d="M234.854 107.793C234.967 107.615 234.673 107.226 234.198 106.925C233.722 106.624 233.245 106.525 233.132 106.703C233.019 106.881 233.313 107.27 233.789 107.571C234.264 107.872 234.741 107.972 234.854 107.793Z" fill="#3F3D56"/>
<path d="M233.188 104.475C233.313 104.277 233.476 104.106 233.667 103.971C233.859 103.836 234.075 103.74 234.304 103.689C234.532 103.638 234.768 103.632 234.999 103.672C235.23 103.712 235.451 103.797 235.648 103.922L258.25 118.235C258.448 118.36 258.619 118.523 258.754 118.715C258.889 118.906 258.985 119.122 259.036 119.351C259.088 119.579 259.093 119.816 259.053 120.047C259.013 120.277 258.928 120.498 258.803 120.696L233.188 104.475V104.475Z" fill="#6C63FF"/>
<path d="M231.049 105.232L231.76 104.109C231.933 103.836 232.207 103.643 232.523 103.572C232.838 103.501 233.169 103.559 233.442 103.732L259.176 120.028C259.336 120.129 259.474 120.261 259.583 120.416C259.693 120.571 259.77 120.746 259.812 120.931C259.853 121.116 259.858 121.307 259.826 121.494C259.793 121.681 259.724 121.859 259.623 122.019L259.032 122.952L231.049 105.232H231.049Z" fill="#2F2E41"/>
<path d="M234.88 105.85L234.607 106.28L236.329 107.371L236.602 106.94L234.88 105.85Z" fill="#D0CDE1"/>
<path d="M237.247 107.348L236.975 107.779L238.697 108.869L238.969 108.439L237.247 107.348Z" fill="#D0CDE1"/>
<path d="M278.686 53.5065C287.558 53.5065 294.75 46.3142 294.75 37.4419C294.75 28.5697 287.558 21.3773 278.686 21.3773C269.813 21.3773 262.621 28.5697 262.621 37.4419C262.621 46.3142 269.813 53.5065 278.686 53.5065Z" fill="#FFB8B8"/>
<path d="M293.984 159.681C280.951 163.321 267.05 162.235 254.74 156.615L255.974 123.638L256.067 121.074L256.102 120.24L256.144 119.014L256.175 118.231C256.175 118.231 256.225 118.227 256.322 118.223C256.584 118.204 257.189 118.162 258.057 118.111C259.064 118.054 260.418 117.98 261.995 117.915C262.369 117.899 262.755 117.884 263.152 117.865C271.46 117.556 284.434 117.491 286.151 119.994L286.367 121.467L286.714 123.847L287.423 128.71C287.423 128.71 295.492 144.755 293.984 159.681Z" fill="#2F2E41"/>
<path d="M298.061 76.5096L294.897 105.737L288.871 119.067L286.638 124.009L254.312 123.618L257.643 101.088C252.941 88.9416 264.108 84.0439 264.108 84.0439L275.691 60.3107C275.691 60.3107 278.777 58.768 286.834 58.3797C294.323 58.0187 288.419 59.1537 288.419 59.1537C298.215 58.1741 298.061 76.5096 298.061 76.5096Z" fill="#CCCCCC"/>
<path opacity="0.2" d="M288.341 107.279L282.315 120.609C280.379 116.989 278.906 112.888 278.906 110.467C278.906 103.806 285.567 107.332 285.567 107.332C285.567 107.332 280.18 77.8478 280.18 69.0319C280.18 63.1761 285.062 89.1636 288.341 107.279Z" fill="black"/>
<path d="M297.199 27.6549C296.154 25.1045 294.537 22.8281 292.473 21.0011C293.32 20.7173 294.026 20.122 294.449 19.3361C295.068 18.1122 294.74 16.5773 293.899 15.4819C293.133 14.5563 292.142 13.8431 291.021 13.4105C291.842 13.784 292.741 13.9568 293.642 13.9147C294.735 13.801 295.827 12.9435 295.762 11.8796C295.7 10.8661 294.703 10.1807 293.808 9.65177C293.228 9.30864 292.647 8.96553 292.067 8.62244C292.239 8.28911 292.391 7.94541 292.52 7.59331C293.021 6.31331 293.142 4.91589 292.868 3.56891C292.594 2.22194 291.937 0.982679 290.976 0C292.877 1.93524 292.392 4.9303 290.514 7.36085C290.453 7.43917 290.388 7.51555 290.325 7.59286C289.953 7.3729 289.581 7.15294 289.209 6.933C288.281 6.38441 287.316 5.82299 286.238 5.69361C285.16 5.56424 283.932 5.99098 283.491 6.95263C283.02 7.98199 283.556 9.29559 282.942 10.2513C282.405 11.0876 281.232 11.2657 280.216 11.2261C279.199 11.1865 278.119 11.0259 277.215 11.4755C275.957 12.1004 275.545 13.7906 276.104 15.051C276.353 15.5879 276.723 16.0592 277.186 16.4276C274.495 16.8033 271.845 17.6022 269.241 18.4148C266.171 19.3729 263.043 20.3907 260.476 22.3301C257.91 24.2695 255.966 27.331 256.21 30.5385C256.455 33.7459 259.641 38.7977 262.817 38.2849L263.3 36.7713C265.221 35.8585 267.378 35.5679 269.472 35.9401C271.565 36.3124 273.49 37.3288 274.978 38.8476C275.015 36.8282 278.089 36.1573 279.62 37.4739C281.152 38.7905 281.447 41.0165 281.566 43.0328C281.685 45.049 281.797 47.2444 283.125 48.766C284.4 50.2264 286.572 50.6792 288.461 50.2442C290.35 49.8091 291.983 48.6108 293.335 47.2223C298.243 42.1851 299.824 34.1794 297.199 27.6549Z" fill="#2F2E41"/>
<path d="M245.961 121.688C246.793 122.286 247.746 122.695 248.753 122.886C249.759 123.076 250.796 123.044 251.788 122.79C252.781 122.537 253.706 122.069 254.499 121.42C255.291 120.77 255.931 119.955 256.375 119.031L300.137 119.896L303.033 110.306L252.662 109.401C251.06 108.759 249.279 108.727 247.656 109.311C246.033 109.895 244.68 111.054 243.854 112.568C243.028 114.083 242.787 115.848 243.175 117.529C243.563 119.209 244.555 120.689 245.961 121.688V121.688Z" fill="#FFB8B8"/>
<path d="M288.506 57.5714C288.506 57.5714 278.318 58.355 278.318 67.171C278.318 75.9869 287.526 107.332 287.526 107.332C287.526 107.332 280.865 103.806 280.865 110.467C280.865 117.128 292.032 136.523 293.208 123.593C293.208 123.593 310.056 131.821 309.076 116.344C308.097 100.867 297.518 68.1505 297.518 68.1505C297.518 68.1505 296.342 56.9836 288.506 57.5714Z" fill="#CCCCCC"/>
</g>
<defs>
<clipPath id="clip0">
<rect width="336" height="306.169" fill="white"/>
</clipPath>
</defs>
</svg>
