<svg width="336" height="289" viewBox="0 0 336 289" fill="none" xmlns="http://www.w3.org/2000/svg">
<g clip-path="url(#clip0)">
<path d="M25.2309 264.592C27.167 265.273 29.2458 265.443 31.2669 265.087C33.288 264.731 35.1834 263.861 36.7705 262.56C40.8122 259.167 42.0796 253.58 43.1104 248.405L46.1602 233.098L39.7753 237.494C35.1834 240.656 30.4883 243.919 27.3092 248.498C24.1301 253.078 22.7432 259.33 25.2967 264.285" fill="#E6E6E6"/>
<path d="M26.2165 284.189C25.4128 278.335 24.586 272.404 25.1511 266.486C25.6518 261.231 27.2553 256.099 30.5196 251.889C32.2523 249.659 34.3607 247.748 36.75 246.243C37.3729 245.85 37.9463 246.837 37.3261 247.228C33.1919 249.841 29.9941 253.699 28.194 258.246C26.2058 263.303 25.8866 268.815 26.229 274.187C26.436 277.435 26.8759 280.662 27.3177 283.885C27.3525 284.031 27.3308 284.185 27.2567 284.315C27.1827 284.445 27.062 284.543 26.9189 284.587C26.773 284.627 26.6174 284.607 26.486 284.532C26.3545 284.458 26.2579 284.334 26.2169 284.189L26.2165 284.189Z" fill="#F2F2F2"/>
<path d="M32.002 274.795C32.8322 276.057 33.9735 277.084 35.316 277.777C36.6586 278.471 38.1569 278.806 39.6668 278.752C43.548 278.568 46.7823 275.86 49.6935 273.289L58.3063 265.684L52.6063 265.412C48.5071 265.215 44.3022 265.031 40.3978 266.297C36.4934 267.562 32.8927 270.603 32.1789 274.644" fill="#E6E6E6"/>
<path d="M23.9462 287.555C27.8151 280.71 32.3024 273.102 40.3212 270.67C42.5506 269.996 44.8883 269.755 47.2083 269.959C47.9396 270.022 47.757 271.149 47.0272 271.086C43.1381 270.763 39.2566 271.79 36.036 273.994C32.9367 276.103 30.5236 279.036 28.4814 282.146C27.2303 284.051 26.1097 286.037 24.9891 288.02C24.6311 288.654 23.5839 288.197 23.9462 287.555Z" fill="#F2F2F2"/>
<path d="M333.521 203.046H120.219C119.562 203.045 118.932 202.783 118.467 202.319C118.003 201.854 117.741 201.224 117.74 200.567V2.47919C117.741 1.82193 118.003 1.19184 118.467 0.727086C118.932 0.262335 119.562 0.000859199 120.219 0H333.521C334.179 0.000859199 334.809 0.262335 335.273 0.727086C335.738 1.19184 336 1.82193 336.001 2.47919V200.566C336 201.223 335.738 201.854 335.274 202.318C334.809 202.783 334.179 203.045 333.521 203.045V203.046Z" fill="white"/>
<path d="M333.521 203.046H120.219C119.562 203.045 118.932 202.783 118.467 202.319C118.003 201.854 117.741 201.224 117.74 200.567V2.47919C117.741 1.82193 118.003 1.19184 118.467 0.727086C118.932 0.262335 119.562 0.000859199 120.219 0H333.521C334.179 0.000859199 334.809 0.262335 335.273 0.727086C335.738 1.19184 336 1.82193 336.001 2.47919V200.566C336 201.223 335.738 201.854 335.274 202.318C334.809 202.783 334.179 203.045 333.521 203.045V203.046ZM120.219 0.989722C119.826 0.990577 119.448 1.14744 119.169 1.42597C118.891 1.7045 118.734 2.08203 118.733 2.47593V200.566C118.734 200.96 118.891 201.337 119.169 201.616C119.448 201.895 119.826 202.051 120.219 202.052H333.521C333.915 202.052 334.293 201.895 334.571 201.616C334.85 201.338 335.007 200.96 335.008 200.566V2.47919C335.007 2.08528 334.85 1.70776 334.571 1.42922C334.293 1.15069 333.915 0.99383 333.521 0.992975L120.219 0.989722Z" fill="#CACACA"/>
<path d="M221.008 51.4737C220.562 51.4745 220.135 51.6521 219.82 51.9677C219.505 52.2832 219.328 52.7109 219.328 53.1568C219.328 53.6027 219.505 54.0304 219.82 54.3459C220.135 54.6615 220.562 54.8392 221.008 54.8399H313.365C313.811 54.8392 314.238 54.6615 314.553 54.3459C314.868 54.0304 315.045 53.6027 315.045 53.1568C315.045 52.7109 314.868 52.2832 314.553 51.9677C314.238 51.6521 313.811 51.4745 313.365 51.4737H221.008Z" fill="#E4E4E4"/>
<path d="M221.007 61.5736C220.561 61.5747 220.134 61.7525 219.82 62.068C219.505 62.3835 219.328 62.811 219.328 63.2567C219.328 63.7024 219.505 64.1299 219.82 64.4454C220.134 64.761 220.561 64.9388 221.007 64.9399H268.157C268.603 64.9388 269.03 64.761 269.345 64.4454C269.659 64.1299 269.836 63.7024 269.836 63.2567C269.836 62.811 269.659 62.3835 269.345 62.068C269.03 61.7525 268.603 61.5747 268.157 61.5736H221.007Z" fill="#E4E4E4"/>
<path d="M140.284 115.886C139.839 115.887 139.412 116.065 139.097 116.381C138.782 116.696 138.605 117.124 138.605 117.569C138.605 118.015 138.782 118.443 139.097 118.758C139.412 119.074 139.839 119.252 140.284 119.253H313.454C313.899 119.252 314.326 119.074 314.641 118.758C314.956 118.443 315.133 118.015 315.133 117.569C315.133 117.124 314.956 116.696 314.641 116.381C314.326 116.065 313.899 115.887 313.454 115.886H140.284Z" fill="#E4E4E4"/>
<path d="M140.284 125.986C139.839 125.987 139.412 126.165 139.097 126.481C138.782 126.796 138.605 127.224 138.605 127.669C138.605 128.115 138.782 128.543 139.097 128.858C139.412 129.174 139.839 129.351 140.284 129.352H268.247C268.693 129.351 269.12 129.174 269.435 128.858C269.749 128.543 269.926 128.115 269.926 127.669C269.926 127.224 269.749 126.796 269.435 126.481C269.12 126.165 268.693 125.987 268.247 125.986H140.284Z" fill="#E4E4E4"/>
<path d="M140.284 135.857C139.839 135.858 139.412 136.036 139.097 136.352C138.782 136.667 138.605 137.095 138.605 137.54C138.605 137.986 138.782 138.414 139.097 138.729C139.412 139.045 139.839 139.222 140.284 139.223H313.454C313.899 139.222 314.326 139.045 314.641 138.729C314.956 138.414 315.133 137.986 315.133 137.54C315.133 137.095 314.956 136.667 314.641 136.352C314.326 136.036 313.899 135.858 313.454 135.857H140.284Z" fill="#E4E4E4"/>
<path d="M140.284 145.957C139.839 145.958 139.412 146.136 139.097 146.452C138.782 146.767 138.605 147.195 138.605 147.64C138.605 148.086 138.782 148.513 139.097 148.829C139.412 149.145 139.839 149.322 140.284 149.323H268.247C268.693 149.322 269.12 149.145 269.435 148.829C269.749 148.513 269.926 148.086 269.926 147.64C269.926 147.195 269.749 146.767 269.435 146.452C269.12 146.136 268.693 145.958 268.247 145.957H140.284Z" fill="#E4E4E4"/>
<path d="M140.284 156.091C139.839 156.092 139.412 156.27 139.097 156.586C138.782 156.901 138.605 157.329 138.605 157.774C138.605 158.22 138.782 158.647 139.097 158.963C139.412 159.279 139.839 159.456 140.284 159.457H313.454C313.899 159.456 314.326 159.279 314.641 158.963C314.956 158.647 315.133 158.22 315.133 157.774C315.133 157.329 314.956 156.901 314.641 156.586C314.326 156.27 313.899 156.092 313.454 156.091H140.284Z" fill="#E4E4E4"/>
<path d="M140.284 166.191C139.839 166.192 139.412 166.37 139.097 166.685C138.782 167.001 138.605 167.428 138.605 167.874C138.605 168.32 138.782 168.747 139.097 169.063C139.412 169.378 139.839 169.556 140.284 169.557H268.247C268.693 169.556 269.12 169.378 269.435 169.063C269.749 168.747 269.926 168.32 269.926 167.874C269.926 167.428 269.749 167.001 269.435 166.685C269.12 166.37 268.693 166.192 268.247 166.191H140.284Z" fill="#E4E4E4"/>
<path d="M167.713 82.3887C162.931 82.3888 158.255 80.9706 154.279 78.3135C150.302 75.6564 147.202 71.8797 145.372 67.461C143.542 63.0423 143.063 58.1801 143.996 53.4893C144.929 48.7984 147.232 44.4896 150.614 41.1077C153.996 37.7257 158.305 35.4226 162.995 34.4895C167.686 33.5564 172.549 34.0353 176.967 35.8656C181.386 37.6958 185.163 40.7953 187.82 44.772C190.477 48.7487 191.895 53.424 191.895 58.2068C191.888 64.618 189.338 70.7645 184.805 75.2979C180.271 79.8313 174.125 82.3814 167.713 82.3887Z" fill="#6C63FF"/>
<path d="M94.3089 173.822C94.267 172.939 94.0322 172.076 93.6209 171.294C93.2096 170.512 92.6318 169.83 91.9282 169.295C91.2247 168.761 90.4124 168.387 89.5488 168.2C88.6851 168.013 87.791 168.018 86.9294 168.214L78.9363 156.95L70.9062 160.138L82.4174 175.887C82.843 177.312 83.7766 178.532 85.0415 179.315C86.3064 180.099 87.8146 180.39 89.2803 180.136C90.7461 179.881 92.0676 179.098 92.9944 177.934C93.9212 176.771 94.3889 175.307 94.3088 173.822H94.3089Z" fill="#A0616A"/>
<path d="M78.7307 172.987L54.5449 141.611L63.6071 113.13C64.2712 105.97 68.752 103.97 68.9426 103.889L69.2334 103.764L77.1192 124.793L71.3292 140.233L85.5406 164.135L78.7307 172.987Z" fill="#3F3D56"/>
<path d="M162.723 76.2649C161.846 76.3748 161.004 76.6757 160.256 77.1462C159.508 77.6168 158.872 78.2456 158.394 78.9884C157.915 79.7312 157.605 80.5698 157.486 81.4454C157.366 82.3209 157.44 83.212 157.703 84.0558L147.09 92.8959L150.889 100.655L165.701 87.961C167.089 87.4266 168.233 86.4014 168.916 85.0798C169.599 83.7581 169.774 82.2318 169.407 80.7901C169.04 79.3484 168.156 78.0915 166.925 77.2575C165.693 76.4234 164.198 76.0703 162.723 76.2649Z" fill="#A0616A"/>
<path d="M163.095 91.8611L133.682 118.4L104.586 111.567C97.3955 111.459 95.0556 107.146 94.9594 106.962L94.8125 106.682L115.169 97.1939L131.011 101.773L153.742 85.756L163.095 91.8611Z" fill="#3F3D56"/>
<path d="M112.15 280.529L120.052 280.528L123.812 250.047L112.148 250.048L112.15 280.529Z" fill="#A0616A"/>
<path d="M135.293 287.865L110.457 287.867L110.456 278.271L128.325 278.27C130.173 278.27 131.945 279.004 133.252 280.311C134.559 281.617 135.293 283.389 135.293 285.237L135.293 287.865L135.293 287.865Z" fill="#2F2E41"/>
<path d="M80.5635 280.529L88.4661 280.528L92.2256 250.047L80.5625 250.048L80.5635 280.529Z" fill="#A0616A"/>
<path d="M103.707 287.865L78.8706 287.867L78.8702 278.271L96.7387 278.27C97.6537 278.27 98.5598 278.45 99.4052 278.8C100.251 279.15 101.019 279.664 101.666 280.311C102.313 280.958 102.826 281.726 103.176 282.571C103.527 283.416 103.707 284.322 103.707 285.238L103.707 287.865Z" fill="#2F2E41"/>
<path d="M77.7539 169.269L78.3984 214.39L79.0434 273.692L93.2239 272.403L100.315 190.541L109.339 272.403H123.979L125.454 189.897L120.297 171.848L77.7539 169.269Z" fill="#2F2E41"/>
<path d="M105.509 175.329C90.0792 175.33 75.8763 168.347 75.6846 168.251L75.5253 168.171L74.2305 137.097C73.855 135.998 66.4614 114.331 65.2092 107.443C63.9404 100.466 82.3282 94.3421 84.5611 93.6259L85.0679 88.0127L105.674 85.7924L108.285 92.9747L115.678 95.7466C116.516 96.0611 117.209 96.6721 117.627 97.4638C118.045 98.2556 118.158 99.173 117.944 100.042L113.835 116.751L123.87 172.03L121.71 172.123C116.531 174.462 110.943 175.329 105.509 175.329Z" fill="#3F3D56"/>
<path d="M103.294 80.4188C110.483 76.4886 113.126 67.4741 109.196 60.2844C105.265 53.0947 96.2508 50.4524 89.0611 54.3827C81.8714 58.3129 79.2291 67.3274 83.1593 74.5171C87.0896 81.7068 96.1041 84.3491 103.294 80.4188Z" fill="#A0616A"/>
<path d="M84.162 81.7634C86.9894 84.7752 92.2403 83.1584 92.6087 79.0438C92.6376 78.7244 92.6355 78.4029 92.6025 78.0838C92.4123 76.2612 91.3593 74.6066 91.6115 72.6822C91.6686 72.2032 91.847 71.7468 92.1299 71.3561C94.383 68.339 99.672 72.7056 101.798 69.9743C103.102 68.2995 101.57 65.6627 102.57 63.7908C103.891 61.3203 107.802 62.539 110.255 61.186C112.984 59.6807 112.821 55.4933 111.025 52.9464C108.834 49.8402 104.992 48.1828 101.199 47.944C97.4051 47.7051 93.6376 48.7306 90.096 50.1108C86.072 51.679 82.0816 53.8463 79.6053 57.3846C76.5938 61.6876 76.304 67.4726 77.8101 72.5041C78.7263 75.5649 81.853 79.3039 84.162 81.7634Z" fill="#2F2E41"/>
<path d="M188.52 288.248H0.493509C0.362622 288.248 0.237088 288.196 0.144538 288.104C0.0519867 288.011 0 287.885 0 287.755C0 287.624 0.0519867 287.498 0.144538 287.406C0.237088 287.313 0.362622 287.261 0.493509 287.261H188.52C188.651 287.261 188.777 287.313 188.869 287.406C188.962 287.498 189.014 287.624 189.014 287.755C189.014 287.885 188.962 288.011 188.869 288.104C188.777 288.196 188.651 288.248 188.52 288.248Z" fill="#CACACA"/>
<path d="M166.317 67.3402C165.881 67.3407 165.461 67.1757 165.141 66.8785L157.168 59.4722C156.833 59.1603 156.635 58.7282 156.618 58.2707C156.602 57.8132 156.767 57.3678 157.079 57.0324C157.39 56.6969 157.822 56.4989 158.28 56.4818C158.737 56.4647 159.183 56.6299 159.519 56.9411L166.273 63.2145L179.635 49.8522C179.795 49.6908 179.986 49.5626 180.196 49.475C180.405 49.3874 180.631 49.342 180.858 49.3416C181.085 49.3412 181.311 49.3857 181.521 49.4725C181.731 49.5593 181.922 49.6868 182.083 49.8476C182.243 50.0085 182.371 50.1994 182.458 50.4096C182.544 50.6198 182.589 50.845 182.588 51.0724C182.588 51.2998 182.543 51.5249 182.455 51.7347C182.367 51.9445 182.239 52.135 182.078 52.2951L167.538 66.8344C167.378 66.995 167.188 67.1223 166.978 67.2091C166.768 67.2959 166.544 67.3404 166.317 67.3402Z" fill="white"/>
</g>
<defs>
<clipPath id="clip0">
<rect width="336" height="288.324" fill="white"/>
</clipPath>
</defs>
</svg>
