<svg width="308" height="259" viewBox="0 0 308 259" fill="none" xmlns="http://www.w3.org/2000/svg">
<path d="M108.659 115.087C108.659 115.087 88.9341 113.593 84.3822 115.222C79.8303 116.851 70.7266 138.437 70.7266 138.437L99.9345 139.658L112.452 136.808L108.659 115.087Z" fill="#2F2E41"/>
<path d="M206.145 258.995L207.283 207.56L242.18 206.863V258.995H206.145Z" fill="#3F3D56"/>
<path d="M138.773 149.893C141.102 153.298 141.477 157.758 141.769 161.969C142.336 170.115 142.9 178.26 143.461 186.406C143.841 191.876 144.22 197.402 143.332 202.819C143.285 203.25 143.156 203.666 142.953 204.041C142.551 204.684 141.815 204.941 141.094 205.116C134.137 206.863 126.873 205.149 119.909 203.434C118.627 193.13 120.702 182.638 124.009 172.888C126.027 166.938 128.497 161.187 130.985 155.453C132.006 153.111 132.965 148.867 134.631 147.034C136.512 144.929 137.521 148.069 138.773 149.893Z" fill="#2F2E41"/>
<path opacity="0.1" d="M138.773 149.893C141.102 153.298 141.477 157.758 141.769 161.969C142.336 170.115 142.9 178.26 143.461 186.406C143.841 191.876 144.22 197.402 143.332 202.819C143.285 203.25 143.156 203.666 142.953 204.041C142.551 204.684 141.815 204.941 141.094 205.116C134.137 206.863 126.873 205.149 119.909 203.434C118.627 193.13 120.702 182.638 124.009 172.888C126.027 166.938 128.497 161.187 130.985 155.453C132.006 153.111 132.965 148.867 134.631 147.034C136.512 144.929 137.521 148.069 138.773 149.893Z" fill="black"/>
<path d="M162.168 190.177C163.727 188.442 165.332 186.675 167.35 185.616C169.857 184.296 172.748 184.211 175.505 183.718C177.671 183.31 179.807 182.675 182.003 182.553C184.199 182.431 186.555 182.928 188.152 184.532C190.049 186.406 190.534 189.334 190.921 192.055C191.85 198.624 192.563 205.845 189.248 211.453C187.006 215.249 183.126 217.738 179.029 218.642C176.488 219.204 173.87 219.204 171.276 219.2L146.923 219.171C146.472 219.171 146.783 211.571 146.889 210.867C147.219 208.549 148.063 206.35 149.351 204.456C152.973 199.321 157.992 194.828 162.168 190.177Z" fill="#FBBEBE"/>
<path opacity="0.1" d="M162.168 190.177C163.727 188.442 165.332 186.675 167.35 185.616C169.857 184.296 172.748 184.211 175.505 183.718C177.671 183.31 179.807 182.675 182.003 182.553C184.199 182.431 186.555 182.928 188.152 184.532C190.049 186.406 190.534 189.334 190.921 192.055C191.85 198.624 192.563 205.845 189.248 211.453C187.006 215.249 183.126 217.738 179.029 218.642C176.488 219.204 173.87 219.204 171.276 219.2L146.923 219.171C146.472 219.171 146.783 211.571 146.889 210.867C147.219 208.549 148.063 206.35 149.351 204.456C152.973 199.321 157.992 194.828 162.168 190.177Z" fill="black"/>
<path d="M64.8257 95.0983L60.1069 101.741C56.7233 106.51 52.7822 111.646 47.263 112.546C46.9216 113.792 48.0596 114.892 49.0686 115.605C63.4184 125.713 80.1428 132.185 97.2882 133.012C99.4959 133.122 102.219 132.788 103.062 130.588C103.82 128.597 102.432 126.43 100.953 124.976C98.7335 122.789 95.8848 120.659 95.6685 117.433C95.5244 115.267 96.6624 113.279 97.3224 111.222C98.2214 108.42 98.2404 105.394 98.2517 102.433C98.2517 101.366 98.2517 100.263 97.8724 99.2769C97.5029 98.4567 96.9874 97.722 96.3551 97.1143C91.2077 91.6527 84.2623 88.9687 77.7038 86.0811C75.5037 85.1077 71.4601 81.9351 69.5331 84.6597C68.6303 85.9345 68.6417 88.3252 67.9779 89.8484C67.1011 91.7119 66.0446 93.4715 64.8257 95.0983Z" fill="#FBBEBE"/>
<path opacity="0.1" d="M64.8257 95.0983L60.1069 101.741C56.7233 106.51 52.7822 111.646 47.263 112.546C46.9216 113.792 48.0596 114.892 49.0686 115.605C63.4184 125.713 80.1428 132.185 97.2882 133.012C99.4959 133.122 102.219 132.788 103.062 130.588C103.82 128.597 102.432 126.43 100.953 124.976C98.7335 122.789 95.8848 120.659 95.6685 117.433C95.5244 115.267 96.6624 113.279 97.3224 111.222C98.2214 108.42 98.2404 105.394 98.2517 102.433C98.2517 101.366 98.2517 100.263 97.8724 99.2769C97.5029 98.4567 96.9874 97.722 96.3551 97.1143C91.2077 91.6527 84.2623 88.9687 77.7038 86.0811C75.5037 85.1077 71.4601 81.9351 69.5331 84.6597C68.6303 85.9345 68.6417 88.3252 67.9779 89.8484C67.1011 91.7119 66.0446 93.4715 64.8257 95.0983Z" fill="black"/>
<path d="M95.1913 106.062C112.789 106.062 127.055 90.7452 127.055 71.8508C127.055 52.9564 112.789 37.6395 95.1913 37.6395C77.5938 37.6395 63.3281 52.9564 63.3281 71.8508C63.3281 90.7452 77.5938 106.062 95.1913 106.062Z" fill="#FBBEBE"/>
<path d="M86.7967 127.049C82.2448 128.096 77.526 126.617 73.0614 125.155C66.6357 123.05 59.713 120.557 55.9653 114.566C55.0928 113.169 54.3607 111.552 52.9989 110.725C50.0592 108.938 46.6566 111.825 44.2024 114.314C32.2309 126.45 16.1324 134.344 7.52178 149.405C2.60953 158.002 0.629457 168.184 0.113576 178.26C-0.148158 183.367 -0.0457454 188.585 1.37672 193.464C5.6555 208.126 20.6843 216.732 25.3614 231.251C28.2025 240.069 26.1504 248.589 24.9441 257.83L138.878 258.083C136.623 240.68 135.714 223.107 136.158 205.544C136.253 201.768 136.412 197.96 137.277 194.295C137.983 191.309 139.174 188.397 139.2 185.335C139.284 179.702 135.589 174.42 136.367 168.848C137.144 163.276 142.22 158.666 141.275 153.176C140.137 146.66 138.832 139.646 136.276 133.627C134.948 130.483 133.454 127.342 131.204 124.87C128.955 122.398 126.11 120.74 123.181 119.38C116.21 116.152 108.685 114.528 101.093 114.615C100.407 114.575 99.7213 114.696 99.083 114.969C97.213 115.93 97.2281 118.712 96.6667 120.859C95.5819 125.013 90.6165 128.377 86.7967 127.049Z" fill="#2F2E41"/>
<path d="M129.654 173.077L128.967 173.421L133.933 184.865L134.62 184.521L129.654 173.077Z" fill="#D0D2D5"/>
<path d="M134.433 178.771L130.307 180.835L145.845 216.645L149.971 214.581L134.433 178.771Z" fill="#6C63FF"/>
<path d="M7.894 203.776C6.48671 214.26 10.9552 224.478 13.1021 234.819C14.6915 242.472 14.9987 250.365 15.0215 258.205C15.2377 258.131 15.1998 258.282 15.4008 258.205H93.2685C105.733 246.263 118.547 234.147 134.937 230.669C137.289 230.172 139.686 229.854 141.955 229.04C150.618 225.904 155.489 216.267 159.282 207.336C160.629 204.163 161.937 200.359 160.287 197.349C159.701 196.365 158.937 195.516 158.042 194.853C155.498 192.854 152.544 191.542 149.428 191.027C146.312 190.512 143.127 190.81 140.142 191.896C129.194 195.997 123.831 209.45 114.006 216.035C109.454 219.078 104.163 220.515 99.2731 222.853C91.9712 226.36 85.6175 231.899 78.2624 235.255C68.2976 239.796 57.1075 240.073 46.7785 243.551C50.5149 238.945 51.8008 232.449 51.1218 226.384C50.4428 220.32 47.981 214.638 44.9691 209.458C42.2683 204.815 38.8051 200.253 33.9687 198.559C25.4036 195.565 16.7398 202.062 7.894 203.776Z" fill="#FBBEBE"/>
<path d="M65.4158 87.5433C68.6666 84.843 69.2925 82.5623 70.1005 78.237C70.605 75.5286 70.6581 72.4496 72.494 70.4987C76.2228 66.5725 83.4489 70.9589 87.4015 67.2934C89.8671 65.0127 89.7419 60.667 92.0406 58.1948C93.7286 56.3743 96.3194 55.9996 98.7129 55.8856C102.323 55.7148 105.941 55.9139 109.516 56.4802C112.069 56.8875 114.61 57.474 117.19 57.4536C122.349 57.4129 127.189 54.9529 131.835 52.5459C131.468 52.523 131.114 52.395 130.808 52.1751C130.502 51.9552 130.257 51.6515 130.098 51.2956C131.897 50.2761 133.759 49.3903 135.67 48.6442C135.17 46.9906 131.809 48.3102 131.638 46.5752C131.642 46.1242 131.799 45.6902 132.078 45.3534L135.356 40.3357C132.241 41.191 129.097 38.8777 127.136 36.1408C125.175 33.4039 123.858 30.1253 121.556 27.7142C116.947 22.8961 109.763 22.7658 103.348 22.9368L91.464 23.2504C85.9486 23.3971 80.3726 23.5559 75.0317 25.0465C72.604 25.7226 70.2105 26.6756 68.1697 28.264C65.6055 30.2393 63.7165 33.0658 61.2888 35.2285C58.038 38.1242 53.8047 39.8674 51.3846 43.5817C49.8697 45.9368 49.2534 48.8258 49.6625 51.654C50.1367 54.8144 51.8626 57.6124 52.5605 60.7281C53.7516 66.0757 51.8019 71.7816 52.9399 77.1495C53.7782 81.1735 56.2362 84.5538 58.6297 87.7795C59.1797 88.5207 59.8398 89.3271 60.7198 89.3679C61.261 89.3295 61.7897 89.1758 62.275 88.9158" fill="#2F2E41"/>
<path d="M307.995 221.322V229.875L291.305 252.275L115.678 246.98V237.613L162.725 219.2L307.995 221.322Z" fill="#3F3D56"/>
<path opacity="0.1" d="M307.995 221.322V229.875L291.305 252.275L115.678 246.98V238.427L290.167 242.907L307.995 221.322Z" fill="black"/>
<path d="M307.996 213.991V221.322L290.167 242.907L161.197 239.596V230.689L203.302 213.991H307.996Z" fill="#D0D2D5"/>
<path opacity="0.1" d="M307.996 213.991V221.322L290.167 242.907L161.197 239.596V230.689L290.167 234.355L307.996 213.991Z" fill="black"/>
<path d="M205.955 221.322L207.093 131.313L241.991 130.092V221.322H205.955Z" fill="#3F3D56"/>
<path d="M77.3734 186.467L81.565 189.318L79.0197 184.349C79.7399 183.731 80.6316 183.388 81.5536 183.376H81.6219C81.9128 183.383 82.2038 183.36 82.4905 183.306L83.913 184.276L83.3023 183.086C84.3097 182.706 85.1794 181.993 85.7868 181.05L88.3283 182.781L86.7238 179.645C88.2107 177.727 90.2136 176.554 92.4136 176.554C95.0689 176.554 97.4131 178.24 98.9304 180.871C99.38 181.658 100.015 182.303 100.772 182.742C101.529 183.18 102.38 183.396 103.24 183.368H103.384C106.301 183.368 108.668 186.923 108.668 191.305C108.668 195.688 106.301 199.239 103.384 199.239C102.742 199.238 102.111 199.069 101.544 198.746C100.55 198.228 99.463 197.947 98.3581 197.924C97.2533 197.901 96.1569 198.136 95.1448 198.612C94.2895 199.021 93.3634 199.233 92.4269 199.233C91.4904 199.233 90.5644 199.021 89.7091 198.612C88.7046 198.145 87.6185 197.916 86.5243 197.939C85.4301 197.962 84.3533 198.238 83.3668 198.746C82.8045 199.061 82.18 199.226 81.546 199.227C78.629 199.227 76.262 195.675 76.262 191.293C76.2494 189.61 76.6317 187.95 77.3734 186.467Z" fill="#6C63FF"/>
<path opacity="0.1" d="M85.2559 198.078C86.781 197.767 88.3579 197.952 89.785 198.608C90.641 199.017 91.5676 199.229 92.5047 199.229C93.4419 199.229 94.3685 199.017 95.2245 198.608C96.236 198.132 97.3317 197.897 98.436 197.92C99.5402 197.943 100.627 198.224 101.62 198.742C102.187 199.063 102.818 199.232 103.46 199.235C106.054 199.235 108.209 196.429 108.66 192.719C108.142 192.314 107.701 191.805 107.363 191.22C105.846 188.589 103.486 186.899 100.846 186.899C98.206 186.899 95.8731 188.568 94.3521 191.171C93.8989 191.957 93.2645 192.603 92.5102 193.049C91.7559 193.494 90.9074 193.722 90.0467 193.712H89.9784C87.9149 193.712 86.1245 195.472 85.2559 198.078Z" fill="black"/>
<path opacity="0.1" d="M5.5068 161.782C4.24744 167.231 2.9843 172.697 2.35083 178.268C1.49905 185.794 1.80662 193.418 3.2612 200.836C3.68984 203.015 4.2171 205.194 4.20951 207.421C4.20192 209.649 3.57604 211.979 2.03978 213.469C11.6974 206.668 24.7233 205.792 35.0979 211.246C40.158 213.905 45.1841 218.072 50.7488 217.127C51.2609 213.775 48.2301 210.61 48.9394 207.283C49.4591 204.864 51.8223 203.324 52.4747 200.942C53.313 197.899 51.1319 194.963 50.1646 191.981C49.7392 190.492 49.4508 188.962 49.3035 187.412C48.4918 181.079 47.4069 174.729 45.1879 168.795C42.9688 162.861 39.5397 157.322 34.7223 153.559C31.8091 151.282 28.4787 149.735 25.0913 148.472C22.4171 147.478 18.5252 145.495 15.6348 146.028C9.41005 147.226 6.78133 156.292 5.5068 161.782Z" fill="black"/>
<path d="M4.36813 160.56C3.10877 166.009 1.84562 171.475 1.21215 177.047C0.360378 184.572 0.667946 192.196 2.12253 199.614C2.55116 201.793 3.07843 203.972 3.07084 206.199C3.06325 208.427 2.43737 210.757 0.901105 212.248C10.5587 205.446 23.5847 204.57 33.9592 210.024C39.0194 212.683 44.0454 216.85 49.6101 215.905C50.1222 212.553 47.0914 209.388 47.8007 206.061C48.3204 203.642 50.6836 202.102 51.336 199.72C52.1743 196.677 49.9932 193.741 49.0259 190.76C48.6005 189.27 48.3121 187.74 48.1649 186.19C47.3531 179.857 46.2683 173.507 44.0492 167.573C41.8302 161.639 38.4011 156.1 33.5837 152.337C30.6705 150.06 27.34 148.513 23.9526 147.25C21.2784 146.256 17.3865 144.273 14.4961 144.806C8.27137 146.004 5.64265 155.07 4.36813 160.56Z" fill="#2F2E41"/>
<path d="M301.131 150.806C299.796 158.898 294.322 165.374 289.084 171.369C282.396 179.022 276.107 186.593 269.419 194.25H183.65C182.831 194.25 181.723 194.079 180.931 194.323L179.645 194.731C173.276 189.701 168.345 182.92 163.501 176.199L154.731 164.063C150.255 157.864 145.525 150.7 146.613 142.945C146.682 142.117 146.96 141.324 147.417 140.652C147.865 140.153 148.4 139.753 148.992 139.475C161.13 132.857 174.786 130.311 187.872 126.186C189.898 125.546 192.045 124.789 193.414 123.074C195.265 120.789 195.311 117.47 195.884 114.521C196.456 111.573 197.685 108.673 198.372 105.683C199.165 102.209 199.225 98.6008 199.279 95.0209C199.339 91.1707 199.399 87.322 199.457 83.4746C199.515 79.6271 199.573 75.8055 199.631 72.0097C213.666 71.7164 227.519 70.5557 241.494 71.7246C242.924 71.8468 244.471 72.0301 245.511 73.0849C246.311 73.8995 246.649 75.0887 246.941 76.2372C248.052 80.7906 248.557 85.4498 248.883 90.1498C249.357 96.9595 249.463 103.838 250.521 110.563C251.106 114.281 252.039 118.081 254.262 121.005C257.346 125.078 262.315 126.74 266.965 128.336C276.603 131.627 286.086 135.374 295.414 139.577C296.814 140.208 298.244 140.876 299.314 142.021C301.385 144.212 301.639 147.723 301.131 150.806Z" fill="#D0D2D5"/>
<path opacity="0.1" d="M248.883 90.1254C246.053 93.4284 240.447 95.3915 237.264 97.265C234.082 99.1384 230.816 101.028 227.243 101.415C223.021 101.875 218.878 100.193 214.922 98.5642C212.794 97.6763 210.655 96.7803 208.728 95.4689C204.555 92.6179 201.858 88.203 199.457 83.4664C199.515 79.6461 199.573 75.8245 199.632 72.0015C213.667 71.7083 227.519 70.5476 241.494 71.7165C242.924 71.8386 244.471 72.0219 245.511 73.0768C246.311 73.8913 246.649 75.0806 246.941 76.2291C248.067 80.7662 248.557 85.4254 248.883 90.1254Z" fill="black"/>
<path d="M255.185 69.9774C256.194 69.1628 257.389 68.6171 258.364 67.7455C259.359 66.7784 260.179 65.6211 260.78 64.3325C262.506 61.001 263.792 57.2499 263.515 53.45C263.238 49.6502 261.11 45.8299 257.75 44.604C259.862 37.5988 258.129 30.0031 256.361 22.8839C255.796 20.5909 255.223 18.2735 254.199 16.1679C252.147 11.9525 248.467 8.94276 244.716 6.43393C240.395 3.54633 235.718 1.09045 230.681 0.288109C225.465 -0.526446 220.109 0.455095 215.148 2.36523C212.492 3.39157 209.837 4.72744 207.857 6.91045C206.412 8.5029 205.388 10.4782 204.113 12.2336C202.05 15.0845 199.318 17.3612 197.611 20.4646C195.715 23.9061 195.279 28.0115 194.873 31.9865L193.522 45.1864C192.627 43.8464 190.689 43.7243 189.35 44.5673C188.011 45.4104 187.245 46.9621 186.748 48.522C186.039 50.7898 185.807 53.1982 186.07 55.5736C186.332 57.9491 187.082 60.2325 188.265 62.2595C189.316 64.023 190.677 65.5462 191.88 67.1957C197.995 75.5611 200.335 87.417 208.699 93.123C210.626 94.4344 212.765 95.3304 214.894 96.2183C218.85 97.8474 222.992 99.5457 227.214 99.0692C230.802 98.6619 234.072 96.7762 237.236 94.915C241.109 92.6383 248.585 90.2191 250.258 85.4173C252.124 80.1878 250.345 73.9117 255.185 69.9774Z" fill="#D0D2D5"/>
<path opacity="0.1" d="M215.295 73.4311C216.38 72.5677 217.415 71.6024 218.64 70.9874C220.335 70.1599 222.262 70.0723 224.015 70.7431C224.359 70.9144 224.73 71.0166 225.108 71.0445C225.593 70.9663 226.059 70.7879 226.481 70.5191C228.161 69.733 230.115 70.3032 231.792 71.0974C234.013 72.2252 236.148 73.5407 238.176 75.0317C237.367 75.3042 236.581 75.6503 235.828 76.0662C234.959 76.5468 234.132 77.121 233.263 77.6057C231.069 78.7626 228.69 79.4632 226.253 79.6706C225.6 79.7472 224.942 79.7812 224.285 79.7724C221.603 79.7154 219.031 78.6768 216.524 77.6505L214.309 76.7545L213.205 76.3065C212.981 76.2128 212.272 76.0703 212.146 75.8626C211.885 75.4553 213.083 74.9828 213.425 74.7629C214.073 74.3516 214.688 73.9036 215.295 73.4311Z" fill="black"/>
<path opacity="0.1" d="M237.071 41.1462C237.361 41.0061 237.659 40.8837 237.962 40.7796C239.725 40.182 241.625 40.2409 243.353 40.9468C245.081 41.6527 246.536 42.9643 247.483 44.6691C247.206 44.7343 246.967 44.4818 246.755 44.2822C246.159 43.8074 245.504 43.4249 244.809 43.1459C244.35 42.9138 243.906 42.645 243.44 42.4332C241.777 41.7406 239.954 41.6252 238.228 42.1033C236.57 42.5106 235.193 43.4066 233.676 44.1845C233.676 43.5939 234.708 42.7834 235.11 42.4291C235.707 41.9093 236.367 41.4779 237.071 41.1462Z" fill="black"/>
<path opacity="0.1" d="M241.24 47.1372C242.886 47.1942 244.654 46.9988 245.936 45.9154C245.155 45.8339 244.392 46.1313 243.63 46.3227C242.234 46.6769 240.782 46.6894 239.381 46.3593C238.684 46.1924 238.001 45.9521 237.291 45.8177C236.71 45.6741 236.102 45.7037 235.535 45.9032C235.717 46.4693 237.656 46.6811 238.19 46.787C239.198 46.9845 240.217 47.1016 241.24 47.1372Z" fill="black"/>
<path opacity="0.1" d="M212.752 41.1462C212.462 41.0054 212.164 40.883 211.861 40.7796C210.098 40.182 208.198 40.2409 206.47 40.9468C204.742 41.6527 203.287 42.9643 202.34 44.6691C202.617 44.7343 202.856 44.4818 203.072 44.2822C203.667 43.8089 204.32 43.4277 205.014 43.15C205.473 42.9178 205.917 42.649 206.383 42.4373C208.047 41.7446 209.871 41.6292 211.599 42.1074C213.253 42.5146 214.634 43.4107 216.132 44.1886C216.132 43.598 215.097 42.7875 214.694 42.4332C214.104 41.9127 213.451 41.4798 212.752 41.1462Z" fill="black"/>
<path opacity="0.1" d="M208.573 47.1372C206.931 47.1943 205.159 46.9988 203.881 45.9154C204.662 45.834 205.425 46.1313 206.187 46.3227C207.582 46.6769 209.032 46.6894 210.432 46.3593C211.134 46.1924 211.816 45.9521 212.522 45.8177C213.105 45.6744 213.713 45.704 214.282 45.9032C214.1 46.4693 212.158 46.6811 211.627 46.787C210.618 46.9843 209.598 47.1014 208.573 47.1372Z" fill="black"/>
<path opacity="0.1" d="M219.723 63.4976C221.055 63.4976 222.136 63.0326 222.136 62.459C222.136 61.8854 221.055 61.4205 219.723 61.4205C218.391 61.4205 217.311 61.8854 217.311 62.459C217.311 63.0326 218.391 63.4976 219.723 63.4976Z" fill="black"/>
<path opacity="0.1" d="M230.348 63.4976C231.68 63.4976 232.761 63.0326 232.761 62.459C232.761 61.8854 231.68 61.4205 230.348 61.4205C229.016 61.4205 227.936 61.8854 227.936 62.459C227.936 63.0326 229.016 63.4976 230.348 63.4976Z" fill="black"/>
<path opacity="0.1" d="M173.824 138.4C176.893 137.244 180.127 136.676 183.379 136.722C186.558 136.767 189.703 137.398 192.862 137.752C197.847 138.314 202.869 138.188 207.88 138.062" fill="black"/>
<path opacity="0.1" d="M269.245 138.4C266.176 137.244 262.942 136.676 259.69 136.722C256.511 136.767 253.367 137.398 250.207 137.752C245.223 138.314 240.2 138.188 235.193 138.062" fill="black"/>
<path opacity="0.1" d="M214.146 157.188C215.394 160.853 219.601 162.368 221.441 165.741C222.019 166.922 222.442 168.185 222.696 169.492L223.675 173.564C223.296 171.556 222.916 169.524 223.023 167.48C223.129 165.435 223.819 163.346 225.253 161.998C226.042 161.33 226.913 160.782 227.84 160.369L233.655 157.408" fill="black"/>
<g opacity="0.1">
<path opacity="0.1" d="M65.2873 71.7206C63.4514 73.6551 63.3907 76.7341 62.8938 79.4588C62.1351 83.4746 61.5472 85.7268 58.8691 88.1868C59.3585 88.8018 59.935 89.3638 60.6671 89.4086C61.2084 89.3703 61.737 89.2166 62.2224 88.9566L65.4163 87.5555C68.6671 84.8553 69.293 82.5745 70.1009 78.2492C70.6054 75.5408 70.6585 72.4618 72.4945 70.5109C72.6539 70.3452 72.8237 70.1914 73.0028 70.0507C70.1199 69.8837 67.2295 69.676 65.2873 71.7206Z" fill="black"/>
<path opacity="0.1" d="M130.098 51.2956C131.897 50.2761 133.758 49.3903 135.67 48.6442C135.169 46.9906 131.809 48.3102 131.638 46.5752C131.642 46.1242 131.798 45.6902 132.078 45.3534L135.355 40.3357C132.241 41.191 129.096 38.8777 127.135 36.1408C125.174 33.4039 123.858 30.1253 121.555 27.7142C116.947 22.8961 109.762 22.7658 103.348 22.9368L91.4636 23.2504C86.1266 23.393 80.7364 23.5478 75.5586 24.9081C78.4452 24.6311 81.3585 24.5497 84.2565 24.4723L96.1407 24.1587C102.57 23.9876 109.755 24.1179 114.348 28.936C116.651 31.3471 117.967 34.6379 119.928 37.3626C121.889 40.0873 125.034 42.4128 128.148 41.5576L124.871 46.5752C124.591 46.912 124.435 47.3461 124.431 47.7971C124.601 49.5321 127.962 48.2043 128.463 49.866C126.551 50.6121 124.689 51.498 122.891 52.5174C123.051 52.877 123.299 53.1835 123.608 53.4043C123.917 53.6251 124.276 53.7521 124.647 53.7718C122.047 55.1924 119.359 56.4172 116.601 57.4373H117.208C122.367 57.3966 127.207 54.9366 131.854 52.5296C131.485 52.5118 131.128 52.3879 130.819 52.1708C130.51 51.9537 130.261 51.6514 130.098 51.2956Z" fill="black"/>
<path opacity="0.1" d="M91.5046 57.1074C89.1111 57.2214 86.5203 57.5961 84.8323 59.4167C82.5336 61.8888 82.6588 66.2345 80.1932 68.5152C80.0871 68.6159 79.9757 68.7097 79.8594 68.7963C82.6284 68.947 85.4241 69.1262 87.4003 67.2934C89.866 65.0127 89.7408 60.667 92.0395 58.1948C92.4711 57.7357 92.9663 57.351 93.5075 57.0545C92.8399 57.0626 92.1647 57.0748 91.5046 57.1074Z" fill="black"/>
</g>
</svg>
