<svg width="310" height="259" viewBox="0 0 310 259" fill="none" xmlns="http://www.w3.org/2000/svg">
<path d="M145.503 259C213.071 259 267.845 256.199 267.845 252.744C267.845 249.289 213.071 246.488 145.503 246.488C77.9361 246.488 23.1621 249.289 23.1621 252.744C23.1621 256.199 77.9361 259 145.503 259Z" fill="#F2F2F2"/>
<path d="M216.981 60.1096H215.592V22.036C215.592 16.1917 213.27 10.5868 209.137 6.4542C205.005 2.32165 199.4 6.45255e-06 193.556 0H112.891C107.047 -1.10614e-05 101.442 2.32161 97.3097 6.45415C93.1771 10.5867 90.8555 16.1916 90.8555 22.0359V230.911C90.8555 236.755 93.1771 242.36 97.3096 246.493C101.442 250.625 107.047 252.947 112.891 252.947H193.556C199.4 252.947 205.005 250.625 209.137 246.493C213.27 242.36 215.592 236.755 215.592 230.911V87.2111H216.981L216.981 60.1096Z" fill="#3F3D56"/>
<path d="M210.901 22.1897V230.757C210.901 235.122 209.167 239.308 206.08 242.394C202.994 245.48 198.808 247.214 194.444 247.214H113.393C109.028 247.214 104.842 245.48 101.756 242.394C98.6695 239.308 96.9356 235.122 96.9355 230.757V22.1897C96.9356 17.8251 98.6695 13.6393 101.756 10.553C104.842 7.46672 109.028 5.73284 113.393 5.73276H123.225C122.742 6.92001 122.558 8.20781 122.689 9.48286C122.821 10.7579 123.263 11.9811 123.978 13.045C124.693 14.1088 125.659 14.9806 126.79 15.5837C127.921 16.1868 129.183 16.5027 130.465 16.5037H176.676C177.958 16.5027 179.22 16.1868 180.351 15.5837C181.482 14.9806 182.448 14.1088 183.163 13.0449C183.878 11.9811 184.32 10.7579 184.452 9.48285C184.583 8.2078 184.399 6.92001 183.916 5.73276H194.444C198.808 5.73284 202.994 7.46672 206.08 10.553C209.167 13.6393 210.9 17.8251 210.901 22.1897Z" fill="white"/>
<path d="M184.791 112.123C184.252 112.405 183.704 112.671 183.147 112.922C182.64 113.152 182.124 113.367 181.601 113.569C181.409 113.642 181.215 113.715 181.02 113.788C179.481 114.346 177.901 114.782 176.293 115.091C175.497 115.248 174.691 115.37 173.874 115.46C173.2 115.536 172.519 115.591 171.831 115.623C171.341 115.647 170.85 115.658 170.357 115.658C168.402 115.659 166.452 115.476 164.532 115.112C164.031 115.022 163.541 114.914 163.051 114.796C160.681 114.228 158.386 113.381 156.215 112.273C156.02 112.175 155.825 112.071 155.631 111.97C155.342 111.817 155.061 111.657 154.779 111.491C154.915 111.303 155.061 111.119 155.21 110.938C156.837 108.922 158.869 107.272 161.176 106.095C163.483 104.918 166.012 104.24 168.598 104.105C171.184 103.971 173.77 104.383 176.186 105.315C178.603 106.246 180.796 107.677 182.622 109.513C183.256 110.149 183.844 110.83 184.381 111.55C184.523 111.737 184.659 111.928 184.791 112.123Z" fill="#6C63FF"/>
<path d="M171.05 96.8558C179.479 96.8558 186.312 90.0231 186.312 81.5945C186.312 73.1659 179.479 66.3332 171.05 66.3332C162.622 66.3332 155.789 73.1659 155.789 81.5945C155.789 90.0231 162.622 96.8558 171.05 96.8558Z" fill="#2F2E41"/>
<path d="M175.109 96.8773C180.614 93.8683 182.637 86.9669 179.628 81.4624C176.619 75.958 169.717 73.9351 164.213 76.9441C158.708 79.953 156.685 86.8545 159.694 92.3589C162.703 97.8634 169.605 99.8863 175.109 96.8773Z" fill="#A0616A"/>
<path d="M181.595 79.7661C179 81.5551 175.919 82.5072 172.767 82.4946C173.891 83.2743 175.171 83.801 176.519 84.0383C172.328 84.9374 167.996 84.9617 163.795 84.1098C162.861 83.9601 161.96 83.6506 161.131 83.195C160.718 82.9643 160.358 82.6493 160.075 82.2705C159.792 81.8916 159.591 81.4574 159.487 80.9961C159.208 79.4013 160.45 77.9523 161.742 76.9758C163.719 75.5036 165.999 74.4892 168.416 74.0062C170.834 73.5231 173.328 73.5834 175.72 74.1827C177.281 74.5863 178.845 75.2682 179.859 76.5221C180.873 77.776 181.174 79.7092 180.208 81.0004L181.595 79.7661Z" fill="#2F2E41"/>
<path d="M170.357 53.0969C163.535 53.0959 156.9 55.3254 151.463 59.4456C146.025 63.5657 142.085 69.3506 140.24 75.9185C138.396 82.4864 138.75 89.4771 141.248 95.8252C143.746 102.173 148.251 107.531 154.077 111.08L154.279 111.199C154.445 111.299 154.612 111.397 154.779 111.491C155.061 111.657 155.342 111.817 155.63 111.97C155.825 112.071 156.02 112.175 156.214 112.273C158.386 113.381 160.68 114.228 163.051 114.796C163.541 114.914 164.031 115.022 164.532 115.112C166.452 115.476 168.402 115.659 170.357 115.658C170.85 115.658 171.34 115.647 171.83 115.623C172.519 115.592 173.2 115.537 173.874 115.46C174.691 115.369 175.497 115.247 176.293 115.091C177.9 114.782 179.481 114.346 181.02 113.788C181.214 113.715 181.409 113.642 181.6 113.569C182.125 113.367 182.64 113.152 183.147 112.922C183.703 112.672 184.251 112.406 184.791 112.123C190.202 109.29 194.674 104.947 197.664 99.6214C197.678 99.5936 197.696 99.5657 197.71 99.5379C199.305 96.6745 200.437 93.5765 201.064 90.3589C201.943 85.8293 201.81 81.1613 200.674 76.6892C199.538 72.2171 197.427 68.0515 194.492 64.4906C191.558 60.9298 187.872 58.0618 183.7 56.0921C179.527 54.1223 174.971 53.0995 170.357 53.0969H170.357ZM197.14 99.1313C197.112 99.18 197.088 99.2286 197.06 99.2738C194.129 104.52 189.719 108.789 184.381 111.55C183.849 111.828 183.308 112.088 182.758 112.332C182.302 112.537 181.837 112.731 181.367 112.912C181.169 112.989 180.968 113.065 180.766 113.134C179.437 113.62 178.074 114.01 176.689 114.302C175.662 114.521 174.623 114.685 173.578 114.792C172.935 114.862 172.282 114.911 171.625 114.935C171.205 114.952 170.781 114.963 170.357 114.963C168.465 114.965 166.578 114.789 164.719 114.438C163.589 114.229 162.471 113.955 161.372 113.618C159.698 113.1 158.071 112.441 156.51 111.647C156.329 111.553 156.148 111.459 155.971 111.362C155.717 111.226 155.46 111.087 155.21 110.938C155.022 110.834 154.834 110.722 154.65 110.611C154.543 110.549 154.435 110.483 154.327 110.417C149.22 107.28 145.145 102.713 142.61 97.2817C140.074 91.8506 139.189 85.7947 140.064 79.8651C140.939 73.9355 143.536 68.3933 147.532 63.926C151.528 59.4587 156.747 56.263 162.543 54.7352C168.339 53.2075 174.456 53.4149 180.135 55.3319C185.814 57.2489 190.805 60.791 194.489 65.5187C198.173 70.2465 200.388 75.952 200.86 81.9272C201.331 87.9024 200.037 93.8845 197.14 99.1313H197.14Z" fill="#3F3D56"/>
<path d="M163.32 66.5438C163.156 64.8171 161.041 63.7541 159.387 64.2757C157.732 64.7972 156.646 66.4628 156.318 68.1659C156.16 68.8832 156.145 69.6246 156.274 70.3476C156.404 71.0706 156.674 71.761 157.071 72.3792C157.907 73.5826 159.443 74.3335 160.876 74.028C162.512 73.6793 163.646 72.0819 163.97 70.4409C164.294 68.7999 163.973 67.108 163.651 65.4665L163.32 66.5438Z" fill="#2F2E41"/>
<path d="M186.602 69.0105C186.437 67.2838 184.322 66.2208 182.668 66.7423C181.014 67.2639 179.928 68.9295 179.599 70.6326C179.441 71.3499 179.427 72.0913 179.556 72.8143C179.685 73.5373 179.955 74.2277 180.352 74.8459C181.188 76.0492 182.725 76.8002 184.158 76.4947C185.794 76.146 186.927 74.5485 187.251 72.9075C187.576 71.2665 187.254 69.5747 186.932 67.9331L186.602 69.0105Z" fill="#2F2E41"/>
<path d="M116.288 96.8786C116.072 96.8784 115.858 96.833 115.66 96.7454C115.462 96.6577 115.284 96.5298 115.139 96.3696L97.8922 77.555C97.6964 77.342 97.4587 77.1719 97.1939 77.0554C96.9291 76.9389 96.643 76.8786 96.3538 76.8783H5.21663C3.83357 76.8767 2.5076 76.3266 1.52963 75.3486C0.551658 74.3706 0.00155282 73.0447 0 71.6616V38.7955C0.0015519 37.4124 0.551658 36.0864 1.52963 35.1085C2.5076 34.1305 3.83357 33.5804 5.21663 33.5788H123.292C124.675 33.5804 126.001 34.1305 126.979 35.1085C127.957 36.0864 128.507 37.4124 128.508 38.7955V71.6616C128.507 73.0447 127.957 74.3707 126.979 75.3486C126.001 76.3266 124.675 76.8767 123.292 76.8783H119.944C119.391 76.8789 118.86 77.099 118.469 77.4903C118.078 77.8815 117.858 78.412 117.857 78.9653V95.3122C117.859 95.6278 117.764 95.9363 117.586 96.1968C117.407 96.4573 117.154 96.6574 116.86 96.7705C116.678 96.8417 116.484 96.8784 116.288 96.8786Z" fill="white"/>
<path d="M116.288 96.8786C116.072 96.8784 115.858 96.833 115.66 96.7454C115.462 96.6577 115.284 96.5298 115.139 96.3696L97.8922 77.555C97.6964 77.342 97.4587 77.1719 97.1939 77.0554C96.9291 76.9389 96.643 76.8786 96.3538 76.8783H5.21663C3.83357 76.8767 2.5076 76.3266 1.52963 75.3486C0.551658 74.3706 0.00155282 73.0447 0 71.6616V38.7955C0.0015519 37.4124 0.551658 36.0864 1.52963 35.1085C2.5076 34.1305 3.83357 33.5804 5.21663 33.5788H123.292C124.675 33.5804 126.001 34.1305 126.979 35.1085C127.957 36.0864 128.507 37.4124 128.508 38.7955V71.6616C128.507 73.0447 127.957 74.3707 126.979 75.3486C126.001 76.3266 124.675 76.8767 123.292 76.8783H119.944C119.391 76.8789 118.86 77.099 118.469 77.4903C118.078 77.8815 117.858 78.412 117.857 78.9653V95.3122C117.859 95.6278 117.764 95.9363 117.586 96.1968C117.407 96.4573 117.154 96.6574 116.86 96.7705C116.678 96.8417 116.484 96.8784 116.288 96.8786ZM5.21663 34.2739C4.01787 34.2753 2.86859 34.7521 2.02093 35.5998C1.17328 36.4474 0.696474 37.5967 0.695121 38.7955V71.6616C0.696476 72.8604 1.17328 74.0097 2.02094 74.8573C2.86859 75.705 4.01787 76.1818 5.21663 76.1831H96.3538C96.7394 76.1836 97.1207 76.264 97.4737 76.4192C97.8267 76.5745 98.1436 76.8013 98.4045 77.0853L115.651 95.8999C115.77 96.0291 115.924 96.1194 116.095 96.1592C116.266 96.199 116.444 96.1863 116.608 96.1227C116.771 96.0592 116.911 95.9478 117.01 95.8032C117.109 95.6586 117.162 95.4874 117.162 95.3122V78.9653C117.163 78.2277 117.456 77.5205 117.978 76.9989C118.499 76.4774 119.207 76.184 119.944 76.1831H123.292C124.49 76.1818 125.64 75.705 126.487 74.8573C127.335 74.0097 127.812 72.8604 127.813 71.6616V38.7955C127.812 37.5967 127.335 36.4474 126.487 35.5998C125.64 34.7521 124.49 34.2753 123.292 34.2739H5.21663Z" fill="#3F3D56"/>
<path d="M12.7952 48.077C15.3163 48.077 17.36 46.0333 17.36 43.5123C17.36 40.9912 15.3163 38.9475 12.7952 38.9475C10.2742 38.9475 8.23047 40.9912 8.23047 43.5123C8.23047 46.0333 10.2742 48.077 12.7952 48.077Z" fill="#6C63FF"/>
<path d="M117.967 68.7706H10.5429C10.223 68.771 9.90608 68.7083 9.61037 68.5861C9.31466 68.4639 9.04594 68.2847 8.81956 68.0586C8.59318 67.8325 8.41359 67.5639 8.29106 67.2684C8.16854 66.9728 8.10547 66.656 8.10547 66.3361C8.10547 66.0161 8.16854 65.6993 8.29106 65.4037C8.41359 65.1082 8.59318 64.8397 8.81956 64.6135C9.04594 64.3874 9.31466 64.2082 9.61037 64.086C9.90608 63.9638 10.223 63.9011 10.5429 63.9015H117.967C118.612 63.9023 119.23 64.1591 119.686 64.6156C120.142 65.0721 120.398 65.6909 120.398 66.3361C120.398 66.9812 120.142 67.6 119.686 68.0565C119.23 68.513 118.612 68.7698 117.967 68.7706Z" fill="#E6E6E6"/>
<path d="M82.9704 58.4238H10.5429C10.223 58.4242 9.90608 58.3615 9.61037 58.2393C9.31466 58.1172 9.04594 57.9379 8.81956 57.7118C8.59318 57.4857 8.41359 57.2172 8.29106 56.9216C8.16854 56.6261 8.10547 56.3092 8.10547 55.9893C8.10547 55.6693 8.16854 55.3525 8.29106 55.057C8.41359 54.7614 8.59318 54.4929 8.81956 54.2668C9.04594 54.0407 9.31466 53.8614 9.61037 53.7392C9.90608 53.6171 10.223 53.5544 10.5429 53.5548H82.9704C83.6161 53.5548 84.2353 53.8112 84.6919 54.2678C85.1484 54.7244 85.4049 55.3436 85.4049 55.9893C85.4049 56.635 85.1484 57.2542 84.6919 57.7108C84.2353 58.1673 83.6161 58.4238 82.9704 58.4238Z" fill="#E6E6E6"/>
<path d="M192.918 208.337C192.624 208.224 192.37 208.024 192.192 207.764C192.014 207.503 191.919 207.195 191.921 206.879V190.532C191.92 189.979 191.7 189.448 191.309 189.057C190.917 188.666 190.387 188.446 189.834 188.445H186.486C185.103 188.444 183.777 187.893 182.799 186.916C181.821 185.938 181.271 184.612 181.27 183.228V150.362C181.271 148.979 181.821 147.653 182.799 146.675C183.777 145.697 185.103 145.147 186.486 145.146H304.561C305.944 145.147 307.27 145.697 308.248 146.675C309.226 147.653 309.776 148.979 309.778 150.362V183.228C309.776 184.612 309.226 185.938 308.248 186.916C307.27 187.893 305.944 188.444 304.561 188.445H213.424C213.135 188.445 212.849 188.506 212.584 188.622C212.319 188.739 212.081 188.909 211.886 189.122L194.639 207.936C194.493 208.097 194.316 208.225 194.118 208.312C193.92 208.4 193.706 208.445 193.49 208.445C193.294 208.445 193.1 208.409 192.918 208.337Z" fill="white"/>
<path d="M192.918 208.337C192.624 208.224 192.37 208.024 192.192 207.764C192.014 207.503 191.919 207.195 191.921 206.879V190.532C191.92 189.979 191.7 189.448 191.309 189.057C190.917 188.666 190.387 188.446 189.834 188.445H186.486C185.103 188.444 183.777 187.893 182.799 186.916C181.821 185.938 181.271 184.612 181.27 183.228V150.362C181.271 148.979 181.821 147.653 182.799 146.675C183.777 145.697 185.103 145.147 186.486 145.146H304.561C305.944 145.147 307.27 145.697 308.248 146.675C309.226 147.653 309.776 148.979 309.778 150.362V183.228C309.776 184.612 309.226 185.938 308.248 186.916C307.27 187.893 305.944 188.444 304.561 188.445H213.424C213.135 188.445 212.849 188.506 212.584 188.622C212.319 188.739 212.081 188.909 211.886 189.122L194.639 207.936C194.493 208.097 194.316 208.225 194.118 208.312C193.92 208.4 193.706 208.445 193.49 208.445C193.294 208.445 193.1 208.409 192.918 208.337ZM186.486 145.841C185.287 145.842 184.138 146.319 183.29 147.167C182.443 148.014 181.966 149.164 181.965 150.362V183.229C181.966 184.427 182.443 185.577 183.29 186.424C184.138 187.272 185.287 187.749 186.486 187.75H189.834C190.571 187.751 191.278 188.044 191.8 188.566C192.322 189.087 192.615 189.795 192.616 190.532V206.879C192.616 207.054 192.669 207.225 192.768 207.37C192.867 207.515 193.007 207.626 193.17 207.69C193.334 207.753 193.512 207.766 193.683 207.726C193.854 207.686 194.008 207.596 194.127 207.467L211.373 188.652C211.634 188.368 211.951 188.141 212.304 187.986C212.657 187.831 213.038 187.75 213.424 187.75H304.561C305.76 187.749 306.909 187.272 307.757 186.424C308.605 185.577 309.081 184.427 309.083 183.228V150.362C309.081 149.164 308.605 148.014 307.757 147.167C306.909 146.319 305.76 145.842 304.561 145.841H186.486Z" fill="#3F3D56"/>
<path d="M156.116 218.515C151.273 221.615 145.664 223.306 139.915 223.398C134.166 223.489 128.505 221.978 123.566 219.033C124.435 217.416 125.536 215.934 126.834 214.636C128.836 212.624 131.273 211.098 133.957 210.175C136.641 209.252 139.501 208.956 142.318 209.311C145.134 209.666 147.831 210.661 150.203 212.221C152.574 213.781 154.556 215.864 155.997 218.31C156.035 218.376 156.077 218.445 156.116 218.515Z" fill="#6C63FF"/>
<path d="M138.482 201.894C146.966 201.894 153.845 195.016 153.845 186.532C153.845 178.047 146.966 171.169 138.482 171.169C129.997 171.169 123.119 178.047 123.119 186.532C123.119 195.016 129.997 201.894 138.482 201.894Z" fill="#2F2E41"/>
<path d="M149.913 197.368C152.942 191.827 150.906 184.879 145.365 181.85C139.824 178.821 132.877 180.858 129.848 186.399C126.819 191.94 128.855 198.887 134.396 201.916C139.937 204.945 146.885 202.909 149.913 197.368Z" fill="#FFB8B8"/>
<path d="M127.867 184.691C130.48 186.492 133.581 187.45 136.755 187.438C135.623 188.223 134.334 188.753 132.977 188.992C137.197 189.897 141.557 189.921 145.786 189.064C146.726 188.913 147.633 188.601 148.468 188.143C148.883 187.911 149.246 187.593 149.531 187.212C149.816 186.831 150.018 186.394 150.123 185.929C150.404 184.324 149.153 182.865 147.853 181.882C145.862 180.4 143.567 179.379 141.134 178.893C138.7 178.407 136.189 178.467 133.782 179.071C132.21 179.477 130.636 180.163 129.615 181.426C128.594 182.688 128.292 184.634 129.264 185.934L127.867 184.691Z" fill="#2F2E41"/>
<path d="M139.423 223.749C131.899 223.747 124.629 221.032 118.945 216.102C113.261 211.173 109.545 204.359 108.478 196.911C107.411 189.463 109.066 181.881 113.138 175.554C117.21 169.227 123.427 164.581 130.647 162.467C137.868 160.353 145.609 160.914 152.45 164.046C159.291 167.178 164.773 172.671 167.892 179.518C171.01 186.366 171.555 194.107 169.426 201.324C167.298 208.541 162.639 214.748 156.304 218.807C151.267 222.037 145.407 223.753 139.423 223.749ZM139.423 161.883C133.373 161.883 127.459 163.676 122.428 167.037C117.398 170.398 113.477 175.175 111.161 180.765C108.846 186.354 108.24 192.504 109.42 198.438C110.6 204.372 113.513 209.823 117.791 214.101C122.069 218.379 127.52 221.292 133.454 222.472C139.387 223.652 145.538 223.046 151.127 220.731C156.717 218.415 161.494 214.494 164.855 209.464C168.216 204.433 170.009 198.519 170.008 192.469C169.999 184.36 166.774 176.586 161.04 170.852C155.306 165.118 147.532 161.892 139.423 161.883Z" fill="#3F3D56"/>
<path d="M195.959 159.296C198.48 159.296 200.524 157.253 200.524 154.732C200.524 152.211 198.48 150.167 195.959 150.167C193.438 150.167 191.395 152.211 191.395 154.732C191.395 157.253 193.438 159.296 195.959 159.296Z" fill="#6C63FF"/>
<path d="M301.131 179.99H193.707C193.387 179.99 193.07 179.928 192.774 179.805C192.479 179.683 192.21 179.504 191.984 179.278C191.757 179.052 191.578 178.783 191.455 178.488C191.333 178.192 191.27 177.875 191.27 177.555C191.27 177.235 191.333 176.919 191.455 176.623C191.578 176.327 191.757 176.059 191.984 175.833C192.21 175.607 192.479 175.427 192.774 175.305C193.07 175.183 193.387 175.12 193.707 175.121H301.131C301.777 175.121 302.396 175.377 302.852 175.834C303.309 176.29 303.565 176.91 303.565 177.555C303.565 178.201 303.309 178.82 302.852 179.277C302.396 179.733 301.777 179.99 301.131 179.99Z" fill="#E6E6E6"/>
<path d="M266.134 169.643H193.707C193.387 169.644 193.07 169.581 192.774 169.459C192.479 169.336 192.21 169.157 191.984 168.931C191.757 168.705 191.578 168.436 191.455 168.141C191.333 167.845 191.27 167.529 191.27 167.209C191.27 166.889 191.333 166.572 191.455 166.276C191.578 165.981 191.757 165.712 191.984 165.486C192.21 165.26 192.479 165.081 192.774 164.959C193.07 164.836 193.387 164.774 193.707 164.774H266.134C266.78 164.775 267.398 165.032 267.854 165.488C268.31 165.945 268.566 166.563 268.566 167.209C268.566 167.854 268.31 168.473 267.854 168.929C267.398 169.386 266.78 169.642 266.134 169.643Z" fill="#E6E6E6"/>
<path d="M192.772 211.449C197.476 211.449 201.289 211.026 201.289 210.504C201.289 209.982 197.476 209.558 192.772 209.558C188.069 209.558 184.256 209.982 184.256 210.504C184.256 211.026 188.069 211.449 192.772 211.449Z" fill="#F2F2F2"/>
<path d="M116.655 100.23C121.359 100.23 125.172 99.8064 125.172 99.2844C125.172 98.7624 121.359 98.3392 116.655 98.3392C111.952 98.3392 108.139 98.7624 108.139 99.2844C108.139 99.8064 111.952 100.23 116.655 100.23Z" fill="#F2F2F2"/>
</svg>
