<svg width="169" height="121" viewBox="0 0 169 121" fill="none" xmlns="http://www.w3.org/2000/svg">
<g clip-path="url(#clip0)">
<path d="M168.766 121H98.539C98.4771 121 98.4177 120.975 98.374 120.932C98.3302 120.888 98.3057 120.829 98.3057 120.767C98.3057 120.705 98.3302 120.646 98.374 120.602C98.4177 120.558 98.4771 120.534 98.539 120.534H168.766C168.828 120.534 168.888 120.558 168.931 120.602C168.975 120.646 169 120.705 169 120.767C169 120.829 168.975 120.888 168.931 120.932C168.888 120.975 168.828 121 168.766 121Z" fill="#3F3D56"/>
<path d="M124.92 118.33H122.06L120.699 107.306L124.921 107.306L124.92 118.33Z" fill="#FFB8B8"/>
<path d="M120.017 117.513H125.534V120.984H116.544C116.544 120.528 116.634 120.077 116.808 119.656C116.983 119.235 117.239 118.852 117.561 118.53C117.884 118.208 118.267 117.952 118.688 117.778C119.109 117.603 119.561 117.513 120.017 117.513Z" fill="#2F2E41"/>
<path d="M145.675 115.092L143.073 116.28L137.251 106.817L141.091 105.064L145.675 115.092Z" fill="#FFB8B8"/>
<path d="M140.875 116.385L145.893 114.095L147.336 117.252L139.159 120.984C138.969 120.57 138.863 120.122 138.847 119.667C138.831 119.211 138.904 118.757 139.064 118.33C139.223 117.903 139.465 117.511 139.776 117.178C140.087 116.844 140.46 116.575 140.875 116.385Z" fill="#2F2E41"/>
<path d="M137.345 81.1577C137.619 80.9516 137.845 80.6879 138.006 80.3853C138.167 80.0827 138.26 79.7485 138.277 79.4062C138.295 79.064 138.238 78.722 138.109 78.4043C137.98 78.0866 137.783 77.801 137.532 77.5676L140.894 69.9439L136.623 70.6673L134.085 77.796C133.72 78.2437 133.533 78.8093 133.558 79.3858C133.583 79.9623 133.819 80.5096 134.221 80.924C134.623 81.3383 135.163 81.591 135.738 81.6341C136.314 81.6771 136.886 81.5076 137.345 81.1577Z" fill="#FFB8B8"/>
<path d="M124.738 115.423H122.005C121.74 115.422 121.485 115.322 121.291 115.141C121.097 114.961 120.978 114.714 120.958 114.45L118.068 74.6859C118.057 74.5335 118.079 74.3806 118.134 74.2377C118.188 74.0949 118.273 73.9656 118.382 73.8589C118.492 73.7522 118.623 73.6707 118.767 73.6201C118.912 73.5694 119.065 73.5509 119.217 73.5657L136.421 75.2428C136.677 75.2678 136.915 75.386 137.09 75.5748C137.264 75.7636 137.364 76.01 137.368 76.2671L137.7 93.8075C137.701 93.9027 137.72 93.9969 137.754 94.0858L144.237 110.884C144.287 111.014 144.311 111.152 144.307 111.291C144.303 111.43 144.271 111.567 144.214 111.694C144.156 111.821 144.074 111.935 143.972 112.03C143.871 112.124 143.751 112.198 143.62 112.246L140.851 113.265C140.611 113.354 140.346 113.351 140.107 113.259C139.868 113.166 139.672 112.989 139.555 112.761L131.591 97.2876C131.548 97.2035 131.516 97.1138 131.497 97.0212L130.136 90.4714C130.097 90.2815 129.991 90.1118 129.838 89.9928C129.684 89.8738 129.494 89.8133 129.3 89.8221C129.106 89.8308 128.921 89.9083 128.779 90.0407C128.638 90.173 128.547 90.3515 128.525 90.5442L125.781 114.493C125.752 114.749 125.629 114.985 125.437 115.157C125.245 115.328 124.996 115.423 124.738 115.423Z" fill="#2F2E41"/>
<path d="M126.099 43.5941C129.263 43.5941 131.829 41.0304 131.829 37.8679C131.829 34.7055 129.263 32.1418 126.099 32.1418C122.934 32.1418 120.368 34.7055 120.368 37.8679C120.368 41.0304 122.934 43.5941 126.099 43.5941Z" fill="#FFB8B8"/>
<path d="M119.159 74.9154C119.893 75.4211 128.157 80.8632 137.578 76.5346C137.455 75.4835 136.28 64.9291 137.307 57.1485C137.794 53.4569 136.323 50.037 133.271 47.7655C131.613 46.5377 129.658 45.7737 127.607 45.5524C125.555 45.331 123.482 45.6603 121.6 46.5062H121.6C121.446 46.5754 121.29 46.6474 121.133 46.7222L119.159 74.9154Z" fill="#FD4C6F"/>
<path d="M137.667 76.4483C137.522 76.4483 137.378 76.418 137.245 76.3594C137.112 76.3008 136.992 76.2151 136.894 76.1079L135.641 74.7414C135.519 74.6077 135.433 74.445 135.393 74.2688C135.352 74.0926 135.357 73.9089 135.408 73.7353L138.279 64.0256L133.911 54.8593C133.719 54.4564 133.672 53.9998 133.778 53.5663C133.871 53.1859 134.077 52.8426 134.37 52.5817C134.662 52.3208 135.027 52.1545 135.415 52.1049C135.804 52.0553 136.199 52.1246 136.547 52.3036C136.896 52.4827 137.182 52.7632 137.368 53.108L143.273 62.6825C143.503 63.0545 143.637 63.4771 143.666 63.9133C143.694 64.3495 143.614 64.7859 143.434 65.1842L138.625 75.8306C138.554 75.989 138.444 76.1271 138.306 76.2326C138.168 76.3381 138.006 76.4076 137.834 76.4348C137.779 76.4437 137.723 76.4482 137.667 76.4483Z" fill="#FD4C6F"/>
<path opacity="0.2" d="M123.4 75.2062H121.11L125.107 56.4143L125.337 56.4443L124.448 74.2097C124.435 74.4785 124.319 74.732 124.123 74.9175C123.928 75.103 123.669 75.2064 123.4 75.2062Z" fill="black"/>
<path d="M121.281 79.8783C121.507 79.6198 121.673 79.3151 121.767 78.9857C121.862 78.6563 121.883 78.3101 121.829 77.9716C121.776 77.6331 121.648 77.3105 121.457 77.0264C121.265 76.7424 121.013 76.5039 120.718 76.3277L122.424 68.1725L118.395 69.7664L117.394 77.2663C117.13 77.7798 117.064 78.372 117.209 78.9307C117.353 79.4895 117.697 79.9759 118.177 80.2979C118.656 80.6198 119.237 80.7549 119.809 80.6776C120.381 80.6002 120.905 80.3158 121.281 79.8783Z" fill="#FFB8B8"/>
<path d="M121.05 75.23C121.011 75.2299 120.971 75.2277 120.932 75.2234L118.49 74.9522C118.227 74.9221 117.984 74.7935 117.811 74.5921C117.638 74.3907 117.547 74.1314 117.557 73.8662L118.568 49.4372C118.599 48.671 118.909 47.9426 119.44 47.3883C119.97 46.8339 120.684 46.4916 121.449 46.4255C122.213 46.3593 122.976 46.5738 123.594 47.0288C124.211 47.4837 124.642 48.1481 124.805 48.8974L125.456 51.8886L125.453 51.9098L122.086 74.3361C122.05 74.5846 121.925 74.8116 121.735 74.9757C121.545 75.1399 121.302 75.2301 121.05 75.23Z" fill="#FD4C6F"/>
<path d="M130.82 42.9162C130.226 43.018 129.737 42.1915 129.663 41.6101C129.589 41.0287 129.801 40.4722 129.824 39.8946C129.848 39.317 129.575 38.6151 128.975 38.4439C128.345 38.2643 127.762 38.7688 127.118 38.7081C126.22 38.6236 125.769 37.5737 125.66 36.7245C125.552 35.8752 125.466 34.8694 124.689 34.3851C123.914 33.9023 122.955 34.2536 122.064 34.2686C120.559 34.294 119.027 33.147 118.675 31.7315C118.857 31.7841 119.052 31.7743 119.229 31.7037C119.405 31.6331 119.553 31.5057 119.649 31.3417C119.724 31.1668 119.74 30.9718 119.693 30.7871C119.646 30.6025 119.539 30.4386 119.389 30.321L121.095 31.1559C120.862 30.6816 121.214 30.1414 121.699 29.9619C122.184 29.7823 122.747 29.8629 123.282 29.946C125.954 30.3607 129.048 30.1563 130.82 32.1917C132.048 33.6016 133.058 36.2844 132.92 38.0203C132.782 39.7561 130.82 42.9162 130.82 42.9162Z" fill="#2F2E41"/>
<path d="M65.7944 107.478H4.43288C3.99988 107.477 3.58475 107.305 3.27857 106.999C2.97239 106.693 2.80017 106.279 2.79968 105.846L3.16481e-06 1.63825C-0.000419452 1.42352 0.0414879 1.21082 0.123332 1.01228C0.205176 0.813747 0.325352 0.63326 0.477001 0.481134C0.628651 0.329007 0.808803 0.20822 1.00717 0.125667C1.20554 0.0431134 1.41823 0.00041139 1.63311 0H62.9947C63.4277 0.000485022 63.8428 0.172582 64.149 0.478533C64.4551 0.784485 64.6274 1.1993 64.6279 1.63198L65.1351 20.5101L64.6687 20.5226L64.1613 1.63825C64.1618 1.48473 64.1319 1.33264 64.0735 1.19064C64.0152 1.04865 63.9293 0.919547 63.821 0.81071C63.7127 0.701872 63.5839 0.615433 63.4421 0.556334C63.3003 0.497236 63.1483 0.466636 62.9947 0.466281H1.63311C1.32383 0.46664 1.02732 0.589571 0.80862 0.808106C0.589924 1.02664 0.466901 1.32293 0.466542 1.63198L3.26623 105.84C3.26577 105.993 3.2956 106.145 3.35399 106.287C3.41238 106.429 3.4982 106.558 3.60655 106.667C3.71489 106.776 3.84363 106.862 3.98542 106.922C4.1272 106.981 4.27926 107.011 4.43288 107.012H65.7944C66.1037 107.011 66.4002 106.888 66.6189 106.67C66.8376 106.451 66.9606 106.155 66.961 105.846L66.4162 85.5689L66.8826 85.5564L67.4276 105.84C67.428 106.054 67.3861 106.267 67.3042 106.466C67.2224 106.664 67.1022 106.845 66.9506 106.997C66.7989 107.149 66.6187 107.27 66.4204 107.352C66.222 107.435 66.0093 107.477 65.7944 107.478Z" fill="#CCCCCC"/>
<path d="M65.8864 48.4871L65.4199 48.4996L65.6604 57.4489L66.1269 57.4364L65.8864 48.4871Z" fill="#CCCCCC"/>
<path d="M60.2878 98.2944H9.45816C9.08886 98.294 8.7348 98.1472 8.47367 97.8863C8.21253 97.6253 8.06564 97.2715 8.06522 96.9025L5.7461 10.5818C5.74564 10.3986 5.78131 10.2171 5.85106 10.0477C5.92082 9.87829 6.0233 9.72426 6.15264 9.59442C6.28198 9.46458 6.43566 9.36148 6.60488 9.291C6.77411 9.22052 6.95558 9.18405 7.13892 9.18367H57.9685C58.3378 9.18409 58.6919 9.33087 58.953 9.59181C59.2142 9.85275 59.361 10.2065 59.3615 10.5756L59.7815 20.5067L59.3153 20.5263L58.8951 10.5854C58.8959 10.4631 58.8726 10.3419 58.8264 10.2286C58.7802 10.1154 58.7122 10.0124 58.6261 9.92548C58.54 9.83858 58.4376 9.76951 58.3248 9.72223C58.212 9.67495 58.0909 9.65039 57.9685 9.64996H7.13892C6.89334 9.65025 6.6579 9.74786 6.48425 9.92139C6.31061 10.0949 6.21292 10.3302 6.21264 10.5756L8.53177 96.8962C8.53128 97.0182 8.55486 97.1391 8.60117 97.252C8.64747 97.3649 8.7156 97.4675 8.80164 97.5541C8.88768 97.6406 8.98995 97.7094 9.1026 97.7564C9.21525 97.8034 9.33607 97.8278 9.45816 97.8281H60.2878C60.5334 97.8278 60.7688 97.7302 60.9425 97.5567C61.1161 97.3832 61.2138 97.1479 61.2141 96.9025L60.9137 85.5689L61.3802 85.5566L61.6806 96.8964C61.681 97.0796 61.6454 97.261 61.5756 97.4305C61.5059 97.5999 61.4034 97.7539 61.274 97.8837C61.1447 98.0135 60.991 98.1166 60.8218 98.1871C60.6526 98.2576 60.4711 98.294 60.2878 98.2944Z" fill="#CCCCCC"/>
<path d="M60.405 48.7202L59.9385 48.7326L60.1732 57.5919L60.6397 57.5796L60.405 48.7202Z" fill="#CCCCCC"/>
<path d="M73.8134 48.7265H14.3184C13.8877 48.7261 13.4746 48.5558 13.1688 48.2527C12.8631 47.9497 12.6893 47.5383 12.6853 47.108L11.752 21.9153C11.7524 21.4827 11.9247 21.0678 12.2308 20.7619C12.537 20.4559 12.9521 20.2838 13.3852 20.2834H72.8802C73.3109 20.2838 73.724 20.4541 74.0298 20.7571C74.3356 21.0602 74.5093 21.4716 74.5133 21.9019L75.4466 47.0945C75.4462 47.5272 75.2739 47.942 74.9678 48.248C74.6616 48.5539 74.2464 48.726 73.8134 48.7265ZM12.2186 21.9031L13.1518 47.0945C13.1522 47.4036 13.2752 47.6999 13.4939 47.9184C13.7126 48.137 14.0091 48.2599 14.3184 48.2602H73.8134C74.1206 48.2599 74.4153 48.1386 74.6336 47.9228C74.8519 47.7069 74.9764 47.4137 74.98 47.1068L74.0468 21.9153C74.0464 21.6063 73.9234 21.31 73.7047 21.0915C73.486 20.8729 73.1895 20.75 72.8802 20.7496H13.3852C13.078 20.75 12.7833 20.8713 12.565 21.0871C12.3467 21.303 12.2222 21.5961 12.2186 21.9031Z" fill="#3F3D56"/>
<path d="M85.0127 85.7959H25.5176C25.0869 85.7954 24.6739 85.6252 24.3681 85.3221C24.0623 85.0191 23.8885 84.6077 23.8845 84.1774L22.9512 58.9847C22.9517 58.5521 23.1239 58.1372 23.4301 57.8313C23.7362 57.5253 24.1514 57.3532 24.5844 57.3528H84.0794C84.5101 57.3532 84.9232 57.5235 85.229 57.8265C85.5348 58.1296 85.7085 58.541 85.7125 58.9713L86.6459 84.1639C86.6454 84.5966 86.4731 85.0114 86.167 85.3174C85.8608 85.6233 85.4457 85.7954 85.0127 85.7959ZM23.4179 58.9725L24.3511 84.1639C24.3514 84.473 24.4744 84.7693 24.6931 84.9878C24.9118 85.2063 25.2083 85.3293 25.5176 85.3296H85.0127C85.3198 85.3293 85.6145 85.208 85.8328 84.9922C86.0511 84.7763 86.1756 84.4831 86.1792 84.1762L85.246 58.9847C85.2456 58.6757 85.1226 58.3794 84.9039 58.1609C84.6852 57.9423 84.3887 57.8194 84.0794 57.819H24.5844C24.2772 57.8194 23.9826 57.9406 23.7642 58.1565C23.5459 58.3724 23.4215 58.6655 23.4179 58.9725Z" fill="#3F3D56"/>
<path d="M39.6328 62.8315C39.2305 62.8315 38.8448 62.9911 38.5604 63.2753C38.276 63.5595 38.1162 63.945 38.1162 64.3469C38.1162 64.7488 38.276 65.1342 38.5604 65.4184C38.8448 65.7026 39.2305 65.8623 39.6328 65.8623H69.9635C70.3657 65.8623 70.7515 65.7026 71.0359 65.4184C71.3203 65.1342 71.4801 64.7488 71.4801 64.3469C71.4801 63.945 71.3203 63.5595 71.0359 63.2753C70.7515 62.9911 70.3657 62.8315 69.9635 62.8315H39.6328Z" fill="#FD4C6F"/>
<path d="M39.6328 70.059C39.2305 70.059 38.8448 70.2187 38.5604 70.5029C38.276 70.7871 38.1162 71.1725 38.1162 71.5744C38.1162 71.9763 38.276 72.3618 38.5604 72.646C38.8448 72.9302 39.2305 73.0898 39.6328 73.0898H69.9635C70.3657 73.0898 70.7515 72.9302 71.0359 72.646C71.3203 72.3618 71.4801 71.9763 71.4801 71.5744C71.4801 71.1725 71.3203 70.7871 71.0359 70.5029C70.7515 70.2187 70.3657 70.059 69.9635 70.059H39.6328Z" fill="#FD4C6F"/>
<path d="M39.6328 77.286C39.2305 77.286 38.8448 77.4456 38.5604 77.7298C38.276 78.014 38.1162 78.3995 38.1162 78.8014C38.1162 79.2033 38.276 79.5887 38.5604 79.8729C38.8448 80.1571 39.2305 80.3168 39.6328 80.3168H69.9635C70.3657 80.3168 70.7515 80.1571 71.0359 79.8729C71.3203 79.5887 71.4801 79.2033 71.4801 78.8014C71.4801 78.3995 71.3203 78.014 71.0359 77.7298C70.7515 77.4456 70.3657 77.286 69.9635 77.286H39.6328Z" fill="#FD4C6F"/>
<path d="M28.4335 25.7623C28.0313 25.7623 27.6456 25.9219 27.3612 26.2061C27.0768 26.4903 26.917 26.8758 26.917 27.2777C26.917 27.6796 27.0768 28.065 27.3612 28.3492C27.6456 28.6334 28.0313 28.7931 28.4335 28.7931H58.7643C59.1666 28.7931 59.5523 28.6334 59.8367 28.3492C60.1211 28.065 60.2809 27.6796 60.2809 27.2777C60.2809 26.8758 60.1211 26.4903 59.8367 26.2061C59.5523 25.9219 59.1666 25.7623 58.7643 25.7623H28.4335Z" fill="#FD4C6F"/>
<path d="M28.4335 32.9895C28.0313 32.9895 27.6456 33.1492 27.3612 33.4334C27.0768 33.7176 26.917 34.103 26.917 34.505C26.917 34.9069 27.0768 35.2923 27.3612 35.5765C27.6456 35.8607 28.0313 36.0204 28.4335 36.0204H58.7643C59.1666 36.0204 59.5523 35.8607 59.8367 35.5765C60.1211 35.2923 60.2809 34.9069 60.2809 34.505C60.2809 34.103 60.1211 33.7176 59.8367 33.4334C59.5523 33.1492 59.1666 32.9895 58.7643 32.9895H28.4335Z" fill="#FD4C6F"/>
<path d="M28.4335 40.2166C28.0313 40.2166 27.6456 40.3762 27.3612 40.6604C27.0768 40.9446 26.917 41.3301 26.917 41.732C26.917 42.1339 27.0768 42.5193 27.3612 42.8035C27.6456 43.0877 28.0313 43.2474 28.4335 43.2474H58.7643C59.1666 43.2474 59.5523 43.0877 59.8367 42.8035C60.1211 42.5193 60.2809 42.1339 60.2809 41.732C60.2809 41.3301 60.1211 40.9446 59.8367 40.6604C59.5523 40.3762 59.1666 40.2166 58.7643 40.2166H28.4335Z" fill="#FD4C6F"/>
<path d="M32.7501 6.99434C34.0387 6.99434 35.0833 5.95053 35.0833 4.66293C35.0833 3.37533 34.0387 2.33153 32.7501 2.33153C31.4616 2.33153 30.417 3.37533 30.417 4.66293C30.417 5.95053 31.4616 6.99434 32.7501 6.99434Z" fill="#E6E6E6"/>
</g>
<defs>
<clipPath id="clip0">
<rect width="169" height="121" fill="white"/>
</clipPath>
</defs>
</svg>
