<svg width="179" height="141" viewBox="0 0 179 141" fill="none" xmlns="http://www.w3.org/2000/svg">
<path opacity="0.1" d="M26.5013 88.0991C26.5008 88.2867 26.4261 88.4664 26.2935 88.599C26.1609 88.7317 25.9811 88.8064 25.7935 88.8068H24.7896C24.9773 88.8068 25.1574 88.8814 25.2901 89.0141C25.4228 89.1468 25.4974 89.3268 25.4974 89.5145C25.4974 89.7022 25.4228 89.8822 25.2901 90.015C25.1574 90.1477 24.9773 90.2222 24.7896 90.2222H26.2035C26.3912 90.2222 26.5712 90.2968 26.7039 90.4295C26.8366 90.5622 26.9112 90.7422 26.9112 90.9299C26.9112 91.1176 26.8366 91.2976 26.7039 91.4304C26.5712 91.5631 26.3912 91.6376 26.2035 91.6376H19.5593C24.0986 104.353 32.61 115.469 43.8001 123.846C43.9169 123.766 44.0551 123.723 44.1967 123.722H52.3835C52.5712 123.722 52.7512 123.797 52.8839 123.929C53.0167 124.062 53.0912 124.242 53.0912 124.43C53.0912 124.617 53.0167 124.797 52.8839 124.93C52.7512 125.063 52.5712 125.137 52.3835 125.137H51.3796C51.5673 125.137 51.7473 125.212 51.88 125.345C52.0128 125.477 52.0873 125.657 52.0873 125.845C52.0873 126.033 52.0128 126.213 51.88 126.346C51.7473 126.478 51.5673 126.553 51.3796 126.553H52.7951C52.9828 126.553 53.1628 126.627 53.2955 126.76C53.4283 126.893 53.5028 127.073 53.5028 127.261C53.5028 127.448 53.4283 127.628 53.2955 127.761C53.1628 127.894 52.9828 127.968 52.7951 127.968H49.8855C62.4225 135.631 77.5931 140.116 93.9366 140.116C103.626 140.136 113.248 138.521 122.4 135.34C123.616 134.913 124.818 134.461 126.006 133.985C128.074 133.149 130.094 132.239 132.065 131.253C132.915 130.828 133.755 130.388 134.586 129.934L134.625 129.914L134.812 129.81L135.299 129.541C136.282 128.992 137.249 128.424 138.202 127.838L138.787 127.475C139.283 127.164 139.773 126.847 140.258 126.526C141.226 125.889 142.178 125.231 143.113 124.552L143.447 124.304L143.717 124.105C144.975 123.175 146.198 122.211 147.388 121.212L147.438 121.171C148.02 120.681 148.594 120.183 149.159 119.677L149.21 119.631C151.054 117.982 152.814 116.239 154.482 114.411C156.983 111.675 159.263 108.744 161.302 105.648H158.039C157.851 105.648 157.671 105.573 157.538 105.441C157.406 105.308 157.331 105.128 157.331 104.94C157.331 104.753 157.406 104.572 157.538 104.44C157.671 104.307 157.851 104.232 158.039 104.232H156.625C156.437 104.232 156.257 104.158 156.125 104.025C155.992 103.892 155.917 103.712 155.917 103.525C155.917 103.337 155.992 103.157 156.125 103.024C156.257 102.892 156.437 102.817 156.625 102.817H157.629C157.533 102.822 157.438 102.807 157.348 102.773C157.258 102.74 157.176 102.689 157.106 102.623C157.037 102.557 156.982 102.477 156.944 102.389C156.906 102.301 156.887 102.206 156.887 102.11C156.887 102.014 156.906 101.92 156.944 101.831C156.982 101.743 157.037 101.664 157.106 101.598C157.176 101.532 157.258 101.48 157.348 101.447C157.438 101.414 157.533 101.399 157.629 101.403H163.868C169.055 92.081 171.971 81.5775 171.971 70.4633C171.974 63.4525 170.801 56.4909 168.501 49.8679H154.616C154.228 49.8549 153.86 49.6917 153.59 49.4128C153.321 49.1339 153.17 48.761 153.17 48.373C153.17 47.985 153.321 47.6121 153.59 47.3332C153.86 47.0543 154.228 46.8911 154.616 46.8781H151.627C151.231 46.8781 150.851 46.7207 150.571 46.4405C150.291 46.1603 150.133 45.7803 150.133 45.3841C150.133 44.9878 150.291 44.6078 150.571 44.3276C150.851 44.0474 151.231 43.89 151.627 43.89H153.762C153.374 43.877 153.007 43.7139 152.737 43.4349C152.467 43.156 152.316 42.7832 152.316 42.3951C152.316 42.0071 152.467 41.6343 152.737 41.3553C153.007 41.0764 153.374 40.9132 153.762 40.9002H164.623C152.166 17.2146 125.198 0.811889 93.9366 0.811889C75.6756 0.811889 58.8821 6.4083 45.5821 15.7825H49.0623C49.4501 15.7955 49.8177 15.9586 50.0875 16.2376C50.3572 16.5165 50.508 16.8893 50.508 17.2774C50.508 17.6654 50.3572 18.0382 50.0875 18.3172C49.8177 18.5961 49.4501 18.7593 49.0623 18.7723H46.9323C47.3286 18.7723 47.7086 18.9297 47.9888 19.2099C48.269 19.49 48.4265 19.8701 48.4265 20.2663C48.4265 20.6626 48.269 21.0426 47.9888 21.3228C47.7086 21.6029 47.3286 21.7604 46.9323 21.7604H49.9206C50.1211 21.7536 50.3209 21.7873 50.5082 21.8595C50.6954 21.9316 50.8662 22.0406 51.0105 22.1801C51.1547 22.3195 51.2694 22.4866 51.3477 22.6713C51.4261 22.856 51.4664 23.0546 51.4664 23.2552C51.4664 23.4559 51.4261 23.6545 51.3477 23.8392C51.2694 24.0239 51.1547 24.1909 51.0105 24.3304C50.8662 24.4699 50.6954 24.5789 50.5082 24.651C50.3209 24.7231 50.1211 24.7568 49.9206 24.7501H35.0495C23.1148 36.9836 15.8867 52.9697 15.8867 70.4633C15.8855 76.1856 16.6674 81.8811 18.2107 87.3914H25.7935C25.981 87.3923 26.1605 87.4671 26.293 87.5997C26.4256 87.7322 26.5004 87.9117 26.5013 88.0991Z" fill="#FD4C6F"/>
<path d="M136.595 58.2078C135.898 58.1476 133.466 56.1884 132.058 55.6112C131.408 55.3452 131.002 55.9074 130.751 56.59C129.888 56.0262 128.94 55.4021 128.241 55.1177C128.15 55.0754 128.052 55.0525 127.952 55.0505C127.852 55.0485 127.753 55.0674 127.661 55.106C126.754 55.4991 126.56 57.8699 126.56 57.8699L126.591 58.0188C126.146 58.3684 124.811 58.5876 124.232 58.6261C123.551 58.6696 122.651 58.77 122.333 58.9273C122.015 59.0845 118.318 59.9746 116.191 60.6237C114.064 61.2729 108.571 64.5069 108.571 64.5069L103.364 65.6781L102.633 65.5375C102.401 64.701 101.337 64.7094 100.09 65.0473C98.0656 64.6759 96.0461 64.3865 95.3935 64.6826C97.2591 63.7323 99.553 62.2249 99.5263 60.5618C99.4894 58.2932 94.9987 61.4753 93.2987 62.7619L93.1532 62.8723L93.1147 62.7285C93.1147 62.7285 91.8749 63.212 89.2313 63.1484C86.5877 63.0848 85.4114 64.3279 85.1738 64.4517C84.9363 64.5755 82.5169 65.3903 82.3295 65.4221C82.1839 65.4455 78.011 65.8236 75.9045 66.0127C72.9915 65.75 68.7852 66.2084 68.5543 66.6434C68.2899 67.1454 65.0875 68.9723 65.0875 68.9723L63.9899 69.2601C63.9899 69.2601 63.8594 69.5947 63.7088 70.023C63.6017 69.86 63.511 69.6868 63.4378 69.5061C63.272 69.0621 63.1422 68.6056 63.0496 68.1408C63.0362 68.0789 63.0211 68.017 63.0061 67.9551C63.0061 67.9401 62.9977 67.925 62.9944 67.9099L62.9542 67.7544L62.9442 67.7159C62.8897 67.5154 62.8238 67.3182 62.7467 67.1253C62.6705 66.9317 62.5752 66.7462 62.4623 66.5715C62.3027 66.316 62.0862 66.1007 61.8298 65.9424C61.4099 65.6864 60.9029 65.6262 60.4143 65.571C60.0028 65.5115 59.5863 65.4935 59.1712 65.5175C58.8148 65.5509 58.4651 65.648 58.1087 65.6697C57.5348 65.7032 56.971 65.5409 56.4021 65.4539C55.8332 65.3669 55.2142 65.3686 54.7289 65.6864C54.3207 65.9575 54.0848 66.4142 53.8221 66.8275C53.3292 67.6036 52.696 68.281 51.9548 68.8251C51.4529 69.1882 50.8823 69.5378 50.7 70.1234C50.5176 70.709 50.7702 71.2762 50.8823 71.8534C51.13 73.1249 50.7301 74.5202 51.1751 75.7014C51.1852 75.7282 51.1952 75.7533 51.2069 75.78C51.232 75.8436 51.2588 75.9089 51.2906 75.9708C51.3187 76.0282 51.35 76.0841 51.3843 76.1381C51.4173 76.1915 51.4542 76.2424 51.4947 76.2903C51.5341 76.3384 51.5784 76.3821 51.6269 76.4208C51.6746 76.4608 51.7268 76.495 51.7825 76.5229C51.9875 76.6108 52.2137 76.6369 52.4334 76.5982L52.5538 76.5814L52.6642 76.5614C52.7942 76.5382 52.9227 76.5075 53.0491 76.4694C53.1749 76.4324 53.2953 76.3789 53.4071 76.3104C53.5083 76.2472 53.5943 76.1623 53.6588 76.062C53.7233 75.9616 53.7648 75.8482 53.7802 75.7299C53.7966 75.6253 53.8044 75.5195 53.8037 75.4136V75.34L53.8288 75.417C54.152 76.3219 54.7304 77.1139 55.4941 77.6971C56.2578 78.2803 57.1741 78.6299 58.1322 78.7035C59.0904 78.7771 60.0493 78.5717 60.8932 78.1119C61.737 77.6522 62.4296 76.9579 62.8873 76.113L63.0764 76.0494C63.6838 75.8551 64.306 75.7108 64.9369 75.6178C65.0056 75.7573 65.0827 75.8925 65.1678 76.0226C67.2275 79.2333 73.6641 79.3437 73.6641 79.3437C73.6641 79.3437 80.7768 79.0676 81.3272 78.9237C81.8777 78.7799 83.5191 79.0308 83.9926 79.4708C84.4661 79.9108 86.5525 80.0932 87.2302 78.9555C87.9078 77.8178 88.6858 78.037 88.6858 78.037C88.8262 77.8466 88.9462 77.6419 89.0439 77.4263L89.4973 77.4481C90.6936 77.5117 92.6144 77.6355 93.0294 77.8028C93.6417 78.0487 96.2719 78.0303 97.6941 77.4314C99.1163 76.8324 103.55 74.2927 103.55 74.2927C103.55 74.2927 106.308 73.4562 106.798 73.2889C107.288 73.1215 108.571 71.8969 108.571 71.8969L111.215 70.8729C111.215 70.8729 114.008 69.3672 115.185 69.2099C116.363 69.0527 117.431 68.022 117.431 68.022L124.918 64.5354C125.42 64.462 125.932 64.4876 126.424 64.6107C127.093 64.8198 131.452 64.1807 132.772 62.7703C132.772 62.7703 132.821 62.5879 132.886 62.2901C132.946 62.2901 133.008 62.2784 133.073 62.2767C133.354 62.3386 133.527 62.3805 133.527 62.3805C134.083 62.7969 134.675 63.1625 135.297 63.473C136.185 63.8996 137.137 64.1338 137.472 63.4027C137.522 63.2898 137.556 63.1704 137.572 63.048C138.432 63.6587 141.327 65.5409 141.409 63.299C141.509 60.6656 137.291 58.2681 136.595 58.2078Z" fill="url(#paint0_linear)"/>
<path d="M66.7575 75.4339C66.7575 75.4339 65.4056 75.3486 63.5216 75.9509C62.8971 76.1476 62.29 76.3955 61.7062 76.6921C58.9355 78.0874 61.2361 70.5586 61.2361 70.5586C61.2361 70.5586 62.0074 70.5586 62.9343 70.48C64.042 70.3913 65.3705 70.2073 65.8624 69.8225C66.7659 69.1081 66.7575 75.4339 66.7575 75.4339Z" fill="#EFB7B9"/>
<path d="M99.4782 60.6757C99.5117 62.7804 95.7771 64.6325 94.0036 65.3937C93.4514 65.6296 93.0867 65.7601 93.0867 65.7601L92.7002 63.3375C92.7002 63.3375 92.9428 63.1418 93.3343 62.8457C95.0192 61.5758 99.4414 58.4371 99.4782 60.6757Z" fill="#EFB7B9"/>
<path opacity="0.1" d="M94.0036 65.3935C93.4514 65.6294 93.0867 65.7599 93.0867 65.7599L92.7002 63.3373C92.7002 63.3373 92.9428 63.1415 93.3343 62.8454L94.0036 65.3935Z" fill="black"/>
<path d="M74.9932 66.1584C74.9932 66.1584 82.3149 65.5009 82.5073 65.4691C82.6998 65.4373 85.0857 64.6326 85.3199 64.5138C85.5542 64.395 86.7137 63.1637 89.3222 63.2272C91.9306 63.2908 93.1537 62.814 93.1537 62.814L94.0154 66.0932L76.6245 68.0657L74.9932 66.1584Z" fill="#E1E7EF"/>
<path opacity="0.05" d="M74.9932 66.1584C74.9932 66.1584 82.3149 65.5009 82.5073 65.4691C82.6998 65.4373 85.0857 64.6326 85.3199 64.5138C85.5542 64.395 86.7137 63.1637 89.3222 63.2272C91.9306 63.2908 93.1537 62.814 93.1537 62.814L94.0154 66.0932L76.6245 68.0657L74.9932 66.1584Z" fill="black"/>
<path d="M126.148 58.0103C126.148 58.0103 126.416 54.7261 127.805 55.2949C129.194 55.8638 131.593 57.8045 132.281 57.8581C132.968 57.9116 137.133 60.2824 137.034 62.8773C136.935 65.4722 133.018 62.4574 133.018 62.4574C133.018 62.4574 129.374 61.5623 128.196 61.9655C127.018 62.3687 126.148 58.0103 126.148 58.0103Z" fill="#B07473"/>
<path opacity="0.1" d="M137.034 62.8826C136.939 65.4775 133.019 62.4626 133.019 62.4626C133.019 62.4626 129.376 61.5675 128.197 61.9707C127.862 62.0879 127.527 61.8034 127.26 61.3333C126.733 60.4432 126.351 58.9007 126.212 58.2816C126.174 58.1143 126.155 58.0156 126.155 58.0156C126.155 58.0156 126.423 54.7314 127.812 55.3019C129.2 55.8724 131.598 57.8031 132.286 57.8634C132.973 57.9236 137.128 60.2876 137.034 62.8826Z" fill="black"/>
<path opacity="0.1" d="M129.52 59.9548C129.401 60.2593 128.559 60.7428 127.252 61.3334C126.725 60.4433 126.344 58.9007 126.205 58.2817C126.451 58.1763 126.625 58.0542 126.653 57.917C126.751 57.4586 130.201 58.2081 129.52 59.9548Z" fill="black"/>
<path d="M100.398 66.3757L108.405 64.5621C108.405 64.5621 113.826 61.3716 115.934 60.7325C118.042 60.0934 121.678 59.215 121.992 59.0594C122.307 58.9038 123.194 58.8034 123.865 58.7616C124.536 58.7198 126.24 58.427 126.338 57.9702C126.435 57.5135 129.885 58.2597 129.204 60.0064C128.523 61.753 104.191 69.3538 104.191 69.3538L100.398 66.3757Z" fill="#444053"/>
<path opacity="0.1" d="M100.398 66.3757L108.405 64.5621C108.405 64.5621 113.826 61.3716 115.934 60.7325C118.042 60.0934 121.678 59.215 121.992 59.0594C122.307 58.9038 123.194 58.8034 123.865 58.7616C124.536 58.7198 126.24 58.427 126.338 57.9702C126.435 57.5135 129.885 58.2597 129.204 60.0064C128.523 61.753 104.191 69.3538 104.191 69.3538L100.398 66.3757Z" fill="black"/>
<path d="M140.796 63.3644C140.7 65.961 136.78 62.9445 136.78 62.9445C136.78 62.9445 134.232 62.3188 132.709 62.3489C132.455 62.3452 132.202 62.3802 131.958 62.4526C130.787 62.8558 129.915 58.4975 129.915 58.4975C129.915 58.4975 129.932 58.2867 129.98 57.9822C130.123 57.0787 130.534 55.3571 131.573 55.7821C132.962 56.3526 135.36 58.2917 136.047 58.3436C136.735 58.3954 140.889 60.7745 140.796 63.3644Z" fill="#B07473"/>
<path opacity="0.1" d="M132.704 62.3602C132.45 62.3565 132.197 62.3915 131.953 62.4639C130.782 62.8671 129.91 58.5088 129.91 58.5088C129.91 58.5088 129.927 58.298 129.975 57.9935C130.953 57.7844 131.771 57.597 131.771 57.597C133.564 57.6756 132.975 61.1138 132.704 62.3602Z" fill="black"/>
<path d="M132.269 62.8472C130.965 64.2409 126.662 64.87 126.006 64.6658C125.522 64.544 125.019 64.5178 124.525 64.5889L117.14 68.027C117.14 68.027 116.086 69.0409 114.925 69.1982C113.763 69.3554 111.008 70.8378 111.008 70.8378L108.401 71.8416C108.401 71.8416 107.128 73.068 106.646 73.2353C106.164 73.4026 103.442 74.2241 103.442 74.2241C103.442 74.2241 99.0697 76.7337 97.6659 77.3209C96.2621 77.9082 93.6704 77.9282 93.0647 77.6856C92.6564 77.5183 90.7607 77.3996 89.5828 77.336C89.024 77.3075 88.6258 77.2925 88.6258 77.2925L87.2471 66.8676C87.2471 66.8676 88.3865 66.615 89.8254 66.2753C91.9152 65.7835 94.6374 65.1042 95.392 64.7495C96.6687 64.1489 103.473 65.9206 104.722 65.9457C105.97 65.9708 112.336 63.9381 112.336 63.9381C112.336 63.9381 120.29 59.4509 121.9 59.4492C123.51 59.4476 125.599 58.7465 126.898 58.5675C128.196 58.3885 131.439 57.6457 131.439 57.6457C133.629 57.746 132.269 62.8472 132.269 62.8472Z" fill="#444053"/>
<path opacity="0.1" d="M64.0336 72.874C64.2032 73.9279 64.0234 75.0085 63.5216 75.9507C62.8971 76.1475 62.29 76.3953 61.7062 76.6919C58.9355 78.0872 61.2361 70.5584 61.2361 70.5584C61.2361 70.5584 62.0074 70.5584 62.9343 70.4798C63.5133 71.162 63.8936 71.9902 64.0336 72.874Z" fill="black"/>
<path d="M63.8687 72.901C64.0614 74.1086 63.7963 75.3446 63.1252 76.3669C62.4541 77.3892 61.4255 78.1241 60.2409 78.4277C59.0562 78.7313 57.8009 78.5816 56.7209 78.0081C55.6408 77.4345 54.8138 76.4784 54.4019 75.3269C54.3718 75.2433 54.3451 75.1596 54.3183 75.0743C54.2564 74.8692 54.2083 74.6601 54.1744 74.4486C53.9781 73.2057 54.2665 71.9349 54.9803 70.8985C55.694 69.8622 56.7785 69.1395 58.0097 68.8797C59.241 68.6199 60.525 68.8428 61.5967 69.5024C62.6683 70.162 63.4457 71.2079 63.7683 72.4242C63.8106 72.5811 63.8441 72.7403 63.8687 72.901Z" fill="#EFB7B9"/>
<path opacity="0.1" d="M89.4506 72.8909C90.493 74.922 89.9743 76.5515 89.5828 77.3295C89.024 77.3011 88.6258 77.286 88.6258 77.286L87.2471 66.8611C87.2471 66.8611 88.3865 66.6085 89.8254 66.2689L89.9743 66.2572C89.9743 66.2572 87.9766 70.0199 89.4506 72.8909Z" fill="black"/>
<path d="M88.9553 72.9693C90.4294 75.8419 88.788 77.9098 88.788 77.9098C88.788 77.9098 88.02 77.694 87.3524 78.8166C86.6848 79.9393 84.6218 79.7603 84.1584 79.3186C83.6949 78.8769 82.0719 78.6343 81.5298 78.7782C80.9877 78.9221 73.9721 79.1914 73.9721 79.1914C73.9721 79.1914 67.6241 79.0843 65.5912 75.9172C65.5076 75.7891 65.4316 75.6561 65.3637 75.519C65.3637 75.519 63.7591 72.5175 63.7089 71.8483C63.6872 71.5873 63.7926 71.1356 63.9264 70.6772C64.1389 69.9661 64.4284 69.245 64.4284 69.245L65.5109 68.9606C65.5109 68.9606 68.6698 67.1587 68.9292 66.6652C69.1885 66.1716 74.5845 65.6513 77.3268 66.2017C80.0691 66.7522 85.2526 66.6819 85.2526 66.6819L89.4891 66.3255C89.4891 66.3255 87.4896 70.0983 88.9553 72.9693Z" fill="#E1E7EF"/>
<path opacity="0.1" d="M82.7393 77.9202C83.3756 77.6739 83.9911 77.3768 84.5797 77.0318C85.5552 76.4479 82.7393 77.9202 82.7393 77.9202Z" fill="black"/>
<path opacity="0.1" d="M67.2441 71.0367C67.2441 71.0367 69.3289 74.9115 73.7862 73.6366C78.2435 72.3617 81.5815 73.302 81.5815 73.302C81.5815 73.302 85.751 73.0627 86.519 72.7432C87.6709 72.3081 88.8475 71.9416 90.0427 71.6457C90.7002 71.5118 91.6171 71.2475 92.3433 71.0216C93.0694 70.7957 96.9495 69.9793 96.9495 69.9793C96.9495 69.9793 95.7231 67.2388 96.3171 66.8891C96.3171 66.8891 92.4872 67.6688 92.4437 67.3911C92.4002 67.1133 88.1085 66.9443 87.7588 67.2238C87.4091 67.5032 83.5759 67.7792 83.2413 67.9047C82.9066 68.0302 76.9836 68.5505 76.9836 68.5505C76.9836 68.5505 68.0975 64.9383 67.2441 71.0367Z" fill="black"/>
<path d="M95.3535 67.1738C95.3535 67.1738 102.332 63.13 102.588 65.8002C102.844 68.4704 96.0228 69.4441 96.0228 69.4441L95.3535 67.1738Z" fill="#EFB7B9"/>
<path opacity="0.1" d="M67.3281 70.5152C67.3281 70.5152 69.4196 74.39 73.8702 73.1151C78.3208 71.8402 81.6672 72.7805 81.6672 72.7805C81.6672 72.7805 85.8367 72.5412 86.603 72.2217C87.7553 71.7864 88.9325 71.4199 90.1284 71.1242C90.7842 70.9903 91.7028 70.726 92.429 70.5001C93.1551 70.2742 97.0352 69.4578 97.0352 69.4578C97.0352 69.4578 95.8071 66.7173 96.401 66.3676C96.401 66.3676 92.5728 67.1473 92.5277 66.8696C92.4825 66.5918 88.1925 66.4228 87.8428 66.7023C87.4931 66.9817 83.6599 67.2577 83.3253 67.3832C82.9906 67.5087 77.0726 68.0273 77.0726 68.0273C77.0726 68.0273 68.1831 64.4168 67.3281 70.5152Z" fill="black"/>
<path d="M67.1895 70.7057C67.1895 70.7057 69.2759 74.5806 73.7315 73.3057C78.1872 72.0308 81.5285 72.9711 81.5285 72.9711C81.5285 72.9711 85.698 72.7318 86.4643 72.4123C87.6166 71.9764 88.7938 71.6094 89.9897 71.3131C90.6456 71.1809 91.5641 70.9149 92.2903 70.689C93.0164 70.4631 96.8965 69.6484 96.8965 69.6484C96.8965 69.6484 95.6684 66.9062 96.2624 66.5582C96.2624 66.5582 92.4342 67.3378 92.389 67.0601C92.3438 66.7824 88.0538 66.6134 87.7041 66.8928C87.3544 67.1722 83.5296 67.4483 83.1866 67.5754C82.8436 67.7026 76.9306 68.2162 76.9306 68.2162C76.9306 68.2162 68.0444 64.6074 67.1895 70.7057Z" fill="#E1E7EF"/>
<path opacity="0.1" d="M81.7361 69.8455C81.6708 69.6665 82.7952 69.7518 85.0138 69.3235C87.2324 68.8952 90.9669 67.8713 90.9669 67.8713C90.9669 67.8713 82.2347 71.1974 81.7361 69.8455Z" fill="black"/>
<path opacity="0.1" d="M73.1812 68.6143C73.1812 68.6143 73.2866 68.9154 72.2041 69.5679L73.1812 68.6143Z" fill="black"/>
<path opacity="0.1" d="M75.4528 69.0527C75.5234 69.3451 75.4813 69.6534 75.335 69.9162C75.1887 70.1791 74.9488 70.3773 74.6631 70.4714" fill="black"/>
<path opacity="0.1" d="M65.7168 75.7335L66.5802 76.5349C66.5802 76.5349 67.5071 77.0368 67.6058 77.3045C67.7045 77.5722 69.5868 77.5236 69.5868 77.5236L71.7619 78.8956L70.8384 77.6073C71.205 77.6958 71.5868 77.701 71.9556 77.6226C72.3245 77.5441 72.6711 77.384 72.97 77.1539C74.0291 76.3642 76.1306 74.3097 76.1306 74.3097L79.9237 71.3584L79.9872 69.4561L77.0023 68.9726L70.0553 76.0095L68.4809 76.232L66.8077 76.0463L65.7168 75.7335Z" fill="black"/>
<path d="M65.5264 75.5943L66.3897 76.3957C66.3897 76.3957 67.315 76.8976 67.4154 77.1653C67.5158 77.433 69.3981 77.3845 69.3981 77.3845L71.5732 78.7564L70.6496 77.4682C71.0159 77.5568 71.3975 77.5621 71.7661 77.4836C72.1348 77.4051 72.4811 77.2449 72.7795 77.0148C73.8403 76.2251 75.9418 74.1705 75.9418 74.1705L79.7399 71.2276L79.8035 69.3253L76.8185 68.8418L69.8632 75.8787L68.2888 76.1013L66.6156 75.9156L65.5264 75.5943Z" fill="#67647E"/>
<path opacity="0.1" d="M67.8449 75.1761L65.9408 76.0378C65.8571 75.9094 65.7817 75.7758 65.7149 75.6379C65.7149 75.6379 64.1087 72.6381 64.0585 71.9672C64.0368 71.7062 64.1422 71.2545 64.2777 70.796L67.8449 75.1761Z" fill="black"/>
<path d="M67.4894 75.0641L65.5854 75.9241C65.5017 75.796 65.4258 75.663 65.3578 75.5259C65.3578 75.5259 63.7532 72.5244 63.7031 71.8552C63.6813 71.5942 63.7867 71.1425 63.9206 70.684L67.4894 75.0641Z" fill="#E1E7EF"/>
<path d="M63.7681 72.4222C63.6892 72.5252 63.5887 72.6098 63.4736 72.6698C63.1774 72.8053 62.8328 72.6698 62.5082 72.6848C62.1836 72.6999 61.8556 72.8772 61.5193 72.904C61.2822 72.9075 61.0457 72.8782 60.8166 72.817C60.3732 72.725 59.8913 72.6731 59.478 72.8739C59.0648 73.0746 58.8088 73.6167 59.0497 73.9999C58.787 74.3696 58.2767 74.4884 57.8266 74.4265C56.7725 74.2776 55.8891 73.3708 54.8149 74.0735C54.3481 74.383 54.3782 74.8615 54.3883 75.3249C54.3582 75.2413 54.3314 75.1576 54.3046 75.0723C54.2427 74.8672 54.1946 74.6581 54.1607 74.4466C53.9644 73.2037 54.2529 71.9328 54.9666 70.8965C55.6803 69.8602 56.7648 69.1375 57.9961 68.8777C59.2273 68.6179 60.5114 68.8408 61.583 69.5004C62.6546 70.16 63.432 71.2059 63.7547 72.4222H63.7681Z" fill="url(#paint1_linear)"/>
<path d="M53.9853 76.2052C53.759 76.3336 53.5102 76.4176 53.2524 76.4528C52.9659 76.5343 52.6606 76.5208 52.3824 76.4143C52.1674 76.2915 51.9978 76.1025 51.8988 75.8756C51.2797 74.6475 51.7583 73.1552 51.4956 71.805C51.3852 71.2362 51.1425 70.6506 51.3149 70.0985C51.4872 69.5464 52.0645 69.1766 52.5514 68.8186C53.2814 68.281 53.9054 67.6128 54.3918 66.8477C54.6512 66.4395 54.8837 65.9894 55.2853 65.7234C55.7571 65.4089 56.3695 65.4089 56.93 65.4942C57.4905 65.5795 58.046 65.7385 58.6132 65.705C58.9646 65.6849 59.3093 65.5896 59.6606 65.5561C60.0702 65.5314 60.4812 65.5493 60.8871 65.6097C61.3689 65.6632 61.8675 65.7234 62.2825 65.9744C63.0137 66.4161 63.2981 67.3128 63.4888 68.1494C63.6796 68.9859 63.872 69.886 64.5178 70.4431C64.624 70.5115 64.705 70.6125 64.7487 70.7309C64.7521 70.8006 64.7409 70.8702 64.7158 70.9353C64.6907 71.0004 64.6524 71.0596 64.6032 71.109L63.8402 72.1229C63.7411 72.2796 63.6049 72.4095 63.4437 72.501C63.1492 72.6382 62.8028 72.501 62.4782 72.5144C62.1537 72.5278 61.8274 72.7101 61.4894 72.7352C61.2522 72.7396 61.0156 72.7103 60.7867 72.6482C60.3433 72.5562 59.8614 72.5043 59.4565 72.7051C59.0516 72.9059 58.7872 73.448 59.0282 73.8311C58.7638 74.2008 58.2535 74.3213 57.8051 74.2577C56.7493 74.1105 55.8659 73.202 54.7934 73.9047C53.9233 74.4869 54.8118 75.6815 53.9853 76.2052Z" fill="#585268"/>
<g opacity="0.1">
<path opacity="0.1" d="M63.229 67.6458C63.3763 68.2832 63.5235 68.9642 63.8749 69.4979C63.7121 69.0627 63.5845 68.6151 63.4934 68.1594C63.3901 67.6107 63.1931 67.0838 62.9111 66.6018C63.0458 66.9404 63.1521 67.2896 63.229 67.6458Z" fill="black"/>
<path opacity="0.1" d="M64.521 70.4462L64.4692 70.3977C64.4371 70.4728 64.3949 70.5432 64.3437 70.6068L63.5807 71.6207C63.4812 71.7771 63.3451 71.9069 63.1842 71.9988C62.8897 72.136 62.5433 71.9988 62.2187 72.0122C61.8941 72.0256 61.5679 72.208 61.2299 72.2331C60.9927 72.2374 60.7561 72.2081 60.5272 72.1461C60.0838 72.054 59.6019 72.0022 59.1886 72.2029C58.7754 72.4037 58.5194 72.9458 58.7603 73.3289C58.4959 73.6987 57.9873 73.8191 57.5372 73.7556C56.4831 73.6083 55.5997 72.6998 54.5255 73.4025C53.6471 73.9814 54.5356 75.176 53.7073 75.6997C53.4817 75.8283 53.2335 75.9124 52.9762 75.9473C52.685 76.0025 52.3705 76.041 52.1061 75.9088C51.9718 75.8377 51.8569 75.7349 51.7715 75.6093C51.8047 75.7002 51.8433 75.789 51.8869 75.8753C51.9859 76.1023 52.1555 76.2913 52.3705 76.4141C52.6487 76.5206 52.954 76.5341 53.2405 76.4525C53.4983 76.4174 53.7471 76.3333 53.9734 76.2049C54.7999 75.6813 53.9115 74.4867 54.7916 73.9078C55.8574 73.2051 56.7408 74.1136 57.8033 74.2608C58.2517 74.3244 58.762 74.2039 59.0263 73.8342C58.7854 73.4511 59.0481 72.909 59.4547 72.7082C59.8612 72.5074 60.3414 72.5593 60.7848 72.6513C61.0138 72.7134 61.2504 72.7427 61.4876 72.7383C61.8222 72.7132 62.1384 72.5325 62.4764 72.5175C62.8144 72.5024 63.1457 72.6413 63.4418 72.5041C63.6031 72.4126 63.7393 72.2827 63.8384 72.126L64.6013 71.1121C64.6505 71.0627 64.6889 71.0035 64.714 70.9384C64.739 70.8733 64.7502 70.8037 64.7469 70.734C64.7045 70.6163 64.6253 70.5154 64.521 70.4462Z" fill="black"/>
</g>
<path opacity="0.1" d="M103.618 68.2332C103.618 68.2332 104.925 70.5754 104.647 70.9636C104.369 71.3518 103.618 68.2332 103.618 68.2332Z" fill="black"/>
<path opacity="0.1" d="M107.914 67.547C107.914 67.547 108.737 68.9875 108.57 69.2736L107.914 67.547Z" fill="black"/>
<path opacity="0.1" d="M112.847 64.2163C112.847 64.2163 113.799 64.8855 113.446 65.3205L112.847 64.2163Z" fill="black"/>
<path opacity="0.1" d="M113.806 63.8494C113.806 63.8494 115.015 65.3284 114.614 65.7316L113.806 63.8494Z" fill="black"/>
<path opacity="0.1" d="M130.44 59.796C130.44 59.796 130.624 62.2705 131.352 62.0597C132.08 61.8489 130.44 59.796 130.44 59.796Z" fill="black"/>
<path d="M124.492 120.955C124.492 120.955 125.508 117.507 124.302 114.969C123.788 113.907 123.633 112.706 123.862 111.549C123.973 111.001 124.135 110.464 124.345 109.946" stroke="#535461" stroke-width="2" stroke-miterlimit="10"/>
<path d="M123.594 108.344C123.594 108.766 124.36 109.992 124.36 109.992C124.36 109.992 125.125 108.766 125.125 108.344C125.115 108.148 125.031 107.962 124.888 107.826C124.746 107.69 124.556 107.614 124.359 107.614C124.162 107.614 123.973 107.69 123.83 107.826C123.688 107.962 123.603 108.148 123.594 108.344Z" fill="#FD4C6F"/>
<path d="M122.328 110.686C122.559 111.04 123.868 111.653 123.868 111.653C123.868 111.653 123.843 110.209 123.613 109.854C123.502 109.684 123.328 109.564 123.129 109.522C122.93 109.48 122.723 109.519 122.552 109.63C122.382 109.741 122.263 109.915 122.221 110.114C122.179 110.313 122.217 110.52 122.328 110.691V110.686Z" fill="#FD4C6F"/>
<path d="M122.384 114.686C122.762 114.876 124.201 114.744 124.201 114.744C124.201 114.744 123.451 113.509 123.073 113.319C122.893 113.238 122.689 113.23 122.504 113.296C122.318 113.362 122.165 113.497 122.076 113.673C121.987 113.849 121.97 114.052 122.027 114.241C122.085 114.43 122.212 114.589 122.384 114.686Z" fill="#FD4C6F"/>
<path d="M123.109 117.702C123.443 117.953 124.889 118.067 124.889 118.067C124.889 118.067 124.359 116.728 124.019 116.472C123.856 116.352 123.651 116.301 123.451 116.331C123.25 116.361 123.07 116.469 122.949 116.632C122.828 116.795 122.777 116.999 122.807 117.2C122.837 117.401 122.946 117.581 123.109 117.702Z" fill="#FD4C6F"/>
<path d="M125.471 111.735C125.168 112.029 123.756 112.334 123.756 112.334C123.756 112.334 124.101 110.932 124.405 110.637C124.551 110.496 124.746 110.418 124.949 110.421C125.152 110.424 125.345 110.508 125.487 110.653C125.628 110.799 125.706 110.994 125.703 111.197C125.7 111.4 125.616 111.593 125.471 111.735Z" fill="#FD4C6F"/>
<path d="M126.276 115.275C125.898 115.464 124.459 115.333 124.459 115.333C124.459 115.333 125.209 114.098 125.587 113.908C125.767 113.827 125.971 113.819 126.156 113.885C126.342 113.951 126.495 114.086 126.584 114.262C126.672 114.438 126.69 114.641 126.633 114.83C126.575 115.018 126.448 115.178 126.276 115.275Z" fill="#FD4C6F"/>
<path d="M126.582 118.822C126.247 119.073 124.802 119.186 124.802 119.186C124.802 119.186 125.332 117.848 125.672 117.59C125.752 117.525 125.845 117.478 125.944 117.45C126.044 117.422 126.148 117.414 126.25 117.427C126.353 117.44 126.451 117.474 126.541 117.527C126.63 117.579 126.707 117.649 126.769 117.732C126.83 117.815 126.874 117.909 126.898 118.01C126.922 118.11 126.925 118.215 126.908 118.316C126.89 118.418 126.852 118.515 126.796 118.602C126.74 118.689 126.668 118.764 126.582 118.822Z" fill="#FD4C6F"/>
<path d="M149.282 117.443C149.282 117.443 150.298 113.994 149.091 111.456C148.578 110.394 148.424 109.193 148.651 108.035C148.763 107.486 148.925 106.949 149.135 106.43" stroke="#535461" stroke-width="2" stroke-miterlimit="10"/>
<path d="M148.384 104.833C148.384 105.254 149.15 106.481 149.15 106.481C149.15 106.481 149.915 105.254 149.915 104.833C149.919 104.729 149.903 104.626 149.867 104.529C149.831 104.432 149.775 104.343 149.704 104.268C149.632 104.193 149.546 104.133 149.451 104.093C149.355 104.052 149.253 104.031 149.149 104.031C149.045 104.031 148.943 104.052 148.848 104.093C148.752 104.133 148.666 104.193 148.595 104.268C148.523 104.343 148.468 104.432 148.431 104.529C148.395 104.626 148.379 104.729 148.384 104.833Z" fill="#FD4C6F"/>
<path d="M147.118 107.173C147.349 107.528 148.658 108.14 148.658 108.14C148.658 108.14 148.634 106.697 148.403 106.342C148.348 106.258 148.277 106.185 148.194 106.128C148.111 106.071 148.018 106.031 147.919 106.01C147.821 105.989 147.719 105.988 147.62 106.007C147.521 106.025 147.427 106.063 147.343 106.118C147.258 106.173 147.185 106.244 147.128 106.327C147.072 106.41 147.032 106.503 147.011 106.602C146.99 106.7 146.989 106.802 147.007 106.901C147.026 107 147.063 107.094 147.118 107.178V107.173Z" fill="#FD4C6F"/>
<path d="M147.175 111.172C147.551 111.363 148.99 111.232 148.99 111.232C148.99 111.232 148.241 109.996 147.862 109.807C147.772 109.758 147.674 109.729 147.572 109.719C147.47 109.709 147.368 109.72 147.27 109.751C147.173 109.782 147.082 109.831 147.005 109.898C146.927 109.964 146.863 110.045 146.817 110.136C146.771 110.227 146.744 110.327 146.737 110.429C146.73 110.531 146.744 110.633 146.777 110.73C146.811 110.826 146.863 110.915 146.931 110.991C146.999 111.067 147.082 111.129 147.175 111.172Z" fill="#FD4C6F"/>
<path d="M147.891 114.19C148.226 114.441 149.672 114.555 149.672 114.555C149.672 114.555 149.141 113.217 148.801 112.959C148.638 112.848 148.437 112.805 148.243 112.838C148.048 112.872 147.873 112.979 147.756 113.138C147.638 113.297 147.586 113.495 147.612 113.692C147.637 113.888 147.737 114.066 147.891 114.19Z" fill="#FD4C6F"/>
<path d="M150.264 108.223C149.961 108.517 148.549 108.822 148.549 108.822C148.549 108.822 148.895 107.42 149.198 107.125C149.344 106.984 149.539 106.906 149.742 106.909C149.945 106.912 150.138 106.995 150.28 107.141C150.421 107.286 150.499 107.482 150.496 107.685C150.493 107.888 150.409 108.081 150.264 108.223Z" fill="#FD4C6F"/>
<path d="M151.07 111.761C150.692 111.952 149.253 111.82 149.253 111.82C149.253 111.82 150.004 110.585 150.381 110.396C150.562 110.305 150.772 110.289 150.964 110.352C151.157 110.416 151.317 110.553 151.408 110.734C151.499 110.915 151.515 111.125 151.452 111.318C151.388 111.51 151.251 111.67 151.07 111.761Z" fill="#FD4C6F"/>
<path d="M151.372 115.308C151.037 115.559 149.592 115.673 149.592 115.673C149.592 115.673 150.122 114.334 150.462 114.078C150.543 114.018 150.634 113.975 150.732 113.951C150.829 113.926 150.931 113.922 151.03 113.936C151.129 113.951 151.225 113.986 151.311 114.037C151.397 114.089 151.472 114.157 151.532 114.238C151.592 114.319 151.635 114.41 151.659 114.508C151.684 114.605 151.688 114.707 151.674 114.806C151.659 114.905 151.624 115.001 151.573 115.087C151.521 115.173 151.453 115.248 151.372 115.308Z" fill="#FD4C6F"/>
<path d="M129.754 117.108C129.754 117.108 130.769 113.66 129.563 111.122C129.05 110.06 128.895 108.859 129.123 107.701C129.235 107.153 129.396 106.616 129.607 106.098" stroke="#535461" stroke-width="2" stroke-miterlimit="10"/>
<path d="M128.855 104.498C128.855 104.92 129.622 106.146 129.622 106.146C129.622 106.146 130.386 104.92 130.386 104.498C130.377 104.301 130.293 104.116 130.15 103.98C130.007 103.844 129.818 103.768 129.621 103.768C129.424 103.768 129.234 103.844 129.092 103.98C128.949 104.116 128.865 104.301 128.855 104.498Z" fill="#FD4C6F"/>
<path d="M127.591 106.839C127.822 107.194 129.13 107.806 129.13 107.806C129.13 107.806 129.107 106.362 128.876 106.007C128.765 105.837 128.591 105.718 128.392 105.676C128.193 105.634 127.986 105.672 127.815 105.783C127.645 105.894 127.525 106.068 127.483 106.267C127.441 106.466 127.48 106.674 127.591 106.844V106.839Z" fill="#FD4C6F"/>
<path d="M127.646 110.839C128.022 111.03 129.461 110.898 129.461 110.898C129.461 110.898 128.712 109.663 128.334 109.472C128.244 109.427 128.146 109.4 128.046 109.393C127.946 109.385 127.845 109.398 127.75 109.429C127.654 109.461 127.566 109.511 127.49 109.577C127.414 109.642 127.351 109.722 127.306 109.812C127.261 109.902 127.234 109.999 127.227 110.1C127.219 110.2 127.232 110.3 127.263 110.396C127.295 110.491 127.345 110.58 127.41 110.656C127.476 110.732 127.556 110.794 127.646 110.839Z" fill="#FD4C6F"/>
<path d="M128.37 113.856C128.705 114.107 130.151 114.221 130.151 114.221C130.151 114.221 129.62 112.882 129.281 112.626C129.2 112.566 129.108 112.523 129.011 112.499C128.913 112.474 128.812 112.47 128.713 112.484C128.613 112.499 128.518 112.534 128.432 112.585C128.345 112.637 128.27 112.705 128.211 112.786C128.151 112.867 128.108 112.958 128.083 113.056C128.059 113.153 128.054 113.255 128.069 113.354C128.084 113.453 128.118 113.549 128.17 113.635C128.221 113.721 128.29 113.796 128.37 113.856Z" fill="#FD4C6F"/>
<path d="M130.736 107.888C130.434 108.183 129.021 108.487 129.021 108.487C129.021 108.487 129.368 107.085 129.671 106.791C129.816 106.649 130.012 106.572 130.215 106.574C130.418 106.577 130.611 106.661 130.752 106.806C130.894 106.952 130.971 107.148 130.968 107.351C130.965 107.553 130.882 107.747 130.736 107.888Z" fill="#FD4C6F"/>
<path d="M131.538 111.428C131.16 111.617 129.721 111.487 129.721 111.487C129.721 111.487 130.472 110.252 130.848 110.062C131.028 109.981 131.232 109.973 131.418 110.039C131.604 110.105 131.757 110.24 131.845 110.416C131.934 110.592 131.952 110.795 131.894 110.984C131.837 111.172 131.709 111.332 131.538 111.428Z" fill="#FD4C6F"/>
<path d="M131.844 114.975C131.509 115.226 130.063 115.34 130.063 115.34C130.063 115.34 130.594 114.001 130.934 113.744C131.014 113.679 131.107 113.631 131.206 113.603C131.306 113.575 131.41 113.567 131.512 113.581C131.614 113.594 131.713 113.628 131.802 113.68C131.891 113.732 131.969 113.802 132.03 113.885C132.092 113.968 132.136 114.063 132.16 114.163C132.183 114.264 132.187 114.368 132.169 114.47C132.152 114.572 132.114 114.669 132.058 114.756C132.002 114.842 131.929 114.917 131.844 114.975Z" fill="#FD4C6F"/>
<path d="M147.389 120.777C147.389 120.924 147.389 121.07 147.389 121.212L147.439 121.17C148.021 120.681 148.595 120.183 149.161 119.676L149.211 119.631C151.055 117.981 152.815 116.239 154.483 114.411C152.698 111.306 148.517 111.289 147.765 111.313H147.648C147.648 111.313 147.379 116.902 147.389 120.777Z" fill="#A8A8A8"/>
<path opacity="0.1" d="M147.389 120.777C147.389 120.924 147.389 121.07 147.389 121.212L147.439 121.17C148.021 120.681 148.595 120.183 149.161 119.676L149.211 119.631C151.055 117.981 152.815 116.239 154.483 114.411C152.698 111.306 148.517 111.289 147.765 111.313H147.648C147.648 111.313 147.379 116.902 147.389 120.777Z" fill="white"/>
<path d="M129.566 114.816L129.707 115.743L131.139 125.161L131.608 128.25L132.064 131.251C132.914 130.826 133.755 130.387 134.586 129.933L134.624 129.913L134.812 129.809L135.299 129.539C136.281 128.991 137.249 128.423 138.202 127.836L138.787 127.473C139.282 127.162 139.773 126.846 140.258 126.525C141.226 125.888 142.178 125.23 143.112 124.55L143.447 124.303L143.716 124.104C144.975 123.173 146.198 122.209 147.387 121.211L147.437 121.169C148.02 120.679 148.594 120.181 149.159 119.675L148.323 115.367C148.155 114.495 148.017 113.619 147.908 112.74C147.847 112.265 147.797 111.789 147.757 111.311C147.745 111.198 147.735 111.082 147.727 110.968C147.439 107.376 146.556 99.9145 144.078 98.1594C143.842 97.9816 143.568 97.8621 143.277 97.8106C142.986 97.7592 142.687 97.7772 142.405 97.8633C142.159 97.9323 141.917 98.0149 141.68 98.1109C139.942 98.8069 138.297 100.189 136.933 101.624C134.978 103.694 133.393 106.084 132.248 108.691L129.739 114.348L129.73 114.366L129.707 114.418L129.566 114.816Z" fill="#A8A8A8"/>
<path opacity="0.1" d="M135.678 124.472L138.587 114.52C138.587 114.52 141.311 121.84 143.455 124.304L143.724 124.105L139.861 114.561C139.861 114.561 138.596 109.121 139.608 107.14C140.411 105.568 143.048 100.281 144.1 98.1594C143.865 97.9816 143.59 97.8621 143.299 97.8106C143.009 97.7592 142.71 97.7772 142.427 97.8633C142.181 97.9323 141.94 98.0149 141.703 98.1109C140.364 100.232 137.888 104.469 137.704 107.097C137.561 109.396 137.66 111.703 137.998 113.982L135.678 124.472Z" fill="white"/>
<path d="M122.4 135.34C123.616 134.913 124.818 134.461 126.006 133.985C128.074 133.149 130.094 132.239 132.065 131.253C132.915 130.828 133.755 130.388 134.586 129.934L134.625 129.914L134.527 129.3L134.422 128.631L134.076 126.412C134.076 126.412 132.464 119.446 130.761 115.931C130.508 115.36 130.175 114.829 129.772 114.353C129.747 114.325 129.72 114.299 129.694 114.274C129.345 114.054 128.933 113.954 128.522 113.99C127.981 114.051 127.474 114.289 127.082 114.667C126.245 115.412 125.333 116.903 124.55 119.755C123.344 124.129 122.717 130.595 122.4 135.34Z" fill="#A8A8A8"/>
<path opacity="0.1" d="M126.007 133.984C128.075 133.149 130.094 132.238 132.065 131.252C132.915 130.827 133.756 130.388 134.587 129.934C134.578 129.727 134.558 129.516 134.528 129.3C134.528 129.3 134.316 128.129 132.069 128.217C131.915 128.217 131.761 128.236 131.609 128.254C130.432 128.401 129.32 128.873 128.396 129.616C127.472 130.359 126.773 131.344 126.377 132.462C126.195 132.953 126.071 133.464 126.007 133.984Z" fill="white"/>
<path opacity="0.1" d="M128.975 117.557C129.05 115.569 127.971 114.888 127.079 114.661C127.471 114.282 127.978 114.044 128.52 113.983C129.14 114.503 129.58 115.206 129.776 115.991L132.053 127.08C132.053 127.08 128.848 120.888 128.975 117.557Z" fill="white"/>
<path d="M138.825 126.986L138.202 127.838L138.788 127.475C139.283 127.163 139.773 126.847 140.258 126.526L139.306 126.327L138.825 126.986Z" fill="#A8A8A8"/>
<path opacity="0.1" d="M138.787 127.474C139.282 127.163 139.773 126.847 140.258 126.526C141.226 125.889 142.178 125.231 143.112 124.551C142.455 124.083 141.829 123.758 141.394 123.797C141.394 123.797 139.164 123.949 138.824 126.986C138.807 127.141 138.794 127.304 138.787 127.474Z" fill="white"/>
<path opacity="0.1" d="M129.69 114.268L129.741 114.422L134.425 128.629L134.815 129.81L135.302 129.541C134.717 124.746 133.174 120.117 130.765 115.929C130.283 115.109 129.916 114.579 129.761 114.37C129.724 114.316 129.7 114.284 129.69 114.273V114.268Z" fill="black"/>
<path opacity="0.1" d="M147.39 120.778C147.405 120.908 147.423 121.039 147.441 121.171C148.024 120.681 148.598 120.183 149.163 119.677L149.213 119.632L147.918 112.742L147.651 111.318C147.074 114.439 146.986 117.63 147.39 120.778Z" fill="black"/>
<path opacity="0.1" d="M86.2217 12.5034H88.3566C87.9688 12.4904 87.6012 12.3272 87.3314 12.0483C87.0617 11.7694 86.9108 11.3965 86.9108 11.0085C86.9108 10.6205 87.0617 10.2476 87.3314 9.96868C87.6012 9.68976 87.9688 9.52658 88.3566 9.5136H105.65C106.038 9.52658 106.406 9.68976 106.676 9.96868C106.945 10.2476 107.096 10.6205 107.096 11.0085C107.096 11.3965 106.945 11.7694 106.676 12.0483C106.406 12.3272 106.038 12.4904 105.65 12.5034H103.516C103.912 12.5034 104.292 12.6608 104.572 12.941C104.852 13.2212 105.01 13.6012 105.01 13.9974C105.01 14.3937 104.852 14.7737 104.572 15.0539C104.292 15.3341 103.912 15.4915 103.516 15.4915H106.504C106.892 15.5044 107.259 15.6676 107.529 15.9466C107.799 16.2255 107.95 16.5983 107.95 16.9864C107.95 17.3744 107.799 17.7472 107.529 18.0262C107.259 18.3051 106.892 18.4683 106.504 18.4812H89.21C88.8221 18.4683 88.4545 18.3051 88.1847 18.0262C87.915 17.7472 87.7642 17.3744 87.7642 16.9864C87.7642 16.5983 87.915 16.2255 88.1847 15.9466C88.4545 15.6676 88.8221 15.5044 89.21 15.4915H86.2217C85.8254 15.4915 85.4454 15.3341 85.1652 15.0539C84.885 14.7737 84.7275 14.3937 84.7275 13.9974C84.7275 13.6012 84.885 13.2212 85.1652 12.941C85.4454 12.6608 85.8254 12.5034 86.2217 12.5034Z" fill="#FD4C6F"/>
<path opacity="0.1" d="M110.873 35.4023H113.008C112.612 35.4023 112.232 35.2449 111.951 34.9648C111.671 34.6846 111.514 34.3045 111.514 33.9083C111.514 33.5121 111.671 33.132 111.951 32.8518C112.232 32.5717 112.612 32.4142 113.008 32.4142H130.302C130.698 32.4142 131.078 32.5717 131.358 32.8518C131.639 33.132 131.796 33.5121 131.796 33.9083C131.796 34.3045 131.639 34.6846 131.358 34.9648C131.078 35.2449 130.698 35.4023 130.302 35.4023H128.167C128.563 35.4023 128.943 35.5598 129.223 35.8399C129.504 36.1201 129.661 36.5001 129.661 36.8964C129.661 37.2926 129.504 37.6727 129.223 37.9528C128.943 38.233 128.563 38.3904 128.167 38.3904H131.16C131.548 38.4034 131.916 38.5666 132.185 38.8455C132.455 39.1245 132.606 39.4973 132.606 39.8853C132.606 40.2734 132.455 40.6462 132.185 40.9251C131.916 41.2041 131.548 41.3672 131.16 41.3802H113.861C113.473 41.3672 113.106 41.2041 112.836 40.9251C112.566 40.6462 112.416 40.2734 112.416 39.8853C112.416 39.4973 112.566 39.1245 112.836 38.8455C113.106 38.5666 113.473 38.4034 113.861 38.3904H110.873C110.477 38.3904 110.097 38.233 109.817 37.9528C109.536 37.6727 109.379 37.2926 109.379 36.8964C109.379 36.5001 109.536 36.1201 109.817 35.8399C110.097 35.5598 110.477 35.4023 110.873 35.4023Z" fill="#FD4C6F"/>
<path opacity="0.1" d="M85.8171 106.911H86.821C86.6333 106.911 86.4533 106.836 86.3206 106.704C86.1878 106.571 86.1133 106.391 86.1133 106.203C86.1133 106.015 86.1878 105.835 86.3206 105.703C86.4533 105.57 86.6333 105.495 86.821 105.495H95.0195C95.2072 105.495 95.3873 105.57 95.52 105.703C95.6527 105.835 95.7273 106.015 95.7273 106.203C95.7273 106.391 95.6527 106.571 95.52 106.704C95.3873 106.836 95.2072 106.911 95.0195 106.911H94.0156C94.2033 106.911 94.3834 106.985 94.5161 107.118C94.6488 107.251 94.7234 107.431 94.7234 107.619C94.7234 107.806 94.6488 107.986 94.5161 108.119C94.3834 108.252 94.2033 108.326 94.0156 108.326H95.4295C95.6172 108.326 95.7972 108.401 95.9299 108.534C96.0626 108.666 96.1372 108.846 96.1372 109.034C96.1372 109.222 96.0626 109.402 95.9299 109.534C95.7972 109.667 95.6172 109.742 95.4295 109.742H87.2326C87.0449 109.742 86.8649 109.667 86.7322 109.534C86.5994 109.402 86.5249 109.222 86.5249 109.034C86.5249 108.846 86.5994 108.666 86.7322 108.534C86.8649 108.401 87.0449 108.326 87.2326 108.326H85.8171C85.6294 108.326 85.4494 108.252 85.3167 108.119C85.1839 107.986 85.1094 107.806 85.1094 107.619C85.1094 107.431 85.1839 107.251 85.3167 107.118C85.4494 106.985 85.6294 106.911 85.8171 106.911Z" fill="#FD4C6F"/>
<path opacity="0.1" d="M63.2778 118.938H64.0842C63.9398 118.931 63.8038 118.868 63.7044 118.763C63.6049 118.658 63.5495 118.518 63.5495 118.374C63.5495 118.229 63.6049 118.09 63.7044 117.985C63.8038 117.88 63.9398 117.817 64.0842 117.809H70.6196C70.7641 117.817 70.9 117.88 70.9995 117.985C71.099 118.09 71.1544 118.229 71.1544 118.374C71.1544 118.518 71.099 118.658 70.9995 118.763C70.9 118.868 70.7641 118.931 70.6196 118.938H69.8132C69.9576 118.946 70.0936 119.009 70.193 119.114C70.2925 119.219 70.348 119.358 70.348 119.503C70.348 119.648 70.2925 119.787 70.193 119.892C70.0936 119.997 69.9576 120.06 69.8132 120.068H70.9426C71.087 120.076 71.223 120.139 71.3224 120.244C71.4219 120.349 71.4773 120.488 71.4773 120.632C71.4773 120.777 71.4219 120.916 71.3224 121.021C71.223 121.126 71.087 121.189 70.9426 121.197H64.4005C64.3237 121.201 64.2469 121.19 64.1748 121.163C64.1026 121.137 64.0367 121.096 63.9809 121.043C63.9251 120.99 63.8806 120.926 63.8502 120.856C63.8199 120.785 63.8042 120.709 63.8042 120.632C63.8042 120.556 63.8199 120.479 63.8502 120.409C63.8806 120.338 63.9251 120.275 63.9809 120.222C64.0367 120.169 64.1026 120.128 64.1748 120.102C64.2469 120.075 64.3237 120.064 64.4005 120.068H63.2711C63.1943 120.072 63.1176 120.06 63.0454 120.034C62.9733 120.007 62.9073 119.967 62.8515 119.914C62.7957 119.861 62.7512 119.797 62.7208 119.727C62.6905 119.656 62.6748 119.58 62.6748 119.503C62.6748 119.426 62.6905 119.35 62.7208 119.28C62.7512 119.209 62.7957 119.145 62.8515 119.092C62.9073 119.04 62.9733 118.999 63.0454 118.972C63.1176 118.946 63.1943 118.934 63.2711 118.938H63.2778Z" fill="#FD4C6F"/>
<path opacity="0.1" d="M35.6521 97.8914H36.6643C36.4766 97.8914 36.2966 97.8168 36.1639 97.6841C36.0312 97.5514 35.9566 97.3714 35.9566 97.1837C35.9566 96.996 36.0312 96.816 36.1639 96.6832C36.2966 96.5505 36.4766 96.476 36.6643 96.476H44.8511C45.0389 96.476 45.2189 96.5505 45.3516 96.6832C45.4843 96.816 45.5589 96.996 45.5589 97.1837C45.5589 97.3714 45.4843 97.5514 45.3516 97.6841C45.2189 97.8168 45.0389 97.8914 44.8511 97.8914H43.8472C44.035 97.8914 44.215 97.9659 44.3477 98.0987C44.4804 98.2314 44.555 98.4114 44.555 98.5991C44.555 98.7868 44.4804 98.9668 44.3477 99.0995C44.215 99.2322 44.035 99.3068 43.8472 99.3068H45.2627C45.4505 99.3068 45.6305 99.3814 45.7632 99.5141C45.8959 99.6468 45.9705 99.8268 45.9705 100.015C45.9705 100.202 45.8959 100.382 45.7632 100.515C45.6305 100.648 45.4505 100.722 45.2627 100.722H37.0676C36.8799 100.722 36.6999 100.648 36.5671 100.515C36.4344 100.382 36.3598 100.202 36.3598 100.015C36.3598 99.8268 36.4344 99.6468 36.5671 99.5141C36.6999 99.3814 36.8799 99.3068 37.0676 99.3068H35.6521C35.4644 99.3068 35.2844 99.2322 35.1516 99.0995C35.0189 98.9668 34.9443 98.7868 34.9443 98.5991C34.9443 98.4114 35.0189 98.2314 35.1516 98.0987C35.2844 97.9659 35.4644 97.8914 35.6521 97.8914Z" fill="#FD4C6F"/>
<path opacity="0.1" d="M107.066 120.015H108.07C107.882 120.015 107.702 119.94 107.57 119.807C107.437 119.675 107.362 119.495 107.362 119.307C107.362 119.119 107.437 118.939 107.57 118.806C107.702 118.674 107.882 118.599 108.07 118.599H116.269C116.456 118.599 116.636 118.674 116.769 118.806C116.902 118.939 116.976 119.119 116.976 119.307C116.976 119.495 116.902 119.675 116.769 119.807C116.636 119.94 116.456 120.015 116.269 120.015H115.265C115.452 120.015 115.632 120.089 115.765 120.222C115.898 120.355 115.972 120.535 115.972 120.722C115.972 120.91 115.898 121.09 115.765 121.223C115.632 121.355 115.452 121.43 115.265 121.43H116.68C116.862 121.439 117.033 121.517 117.158 121.649C117.284 121.78 117.353 121.955 117.353 122.137C117.353 122.319 117.284 122.493 117.158 122.625C117.033 122.757 116.862 122.835 116.68 122.844H108.478C108.383 122.848 108.287 122.834 108.197 122.8C108.107 122.767 108.025 122.715 107.956 122.649C107.886 122.583 107.831 122.504 107.793 122.416C107.756 122.328 107.736 122.233 107.736 122.137C107.736 122.041 107.756 121.946 107.793 121.858C107.831 121.77 107.886 121.691 107.956 121.624C108.025 121.558 108.107 121.507 108.197 121.474C108.287 121.44 108.383 121.425 108.478 121.43H107.066C106.878 121.43 106.698 121.355 106.566 121.223C106.433 121.09 106.358 120.91 106.358 120.722C106.358 120.535 106.433 120.355 106.566 120.222C106.698 120.089 106.878 120.015 107.066 120.015Z" fill="#FD4C6F"/>
<path opacity="0.3" d="M118.444 51.4854C118.498 51.382 118.512 51.2623 118.484 51.149C118.456 51.0358 118.386 50.9369 118.29 50.8714C118.275 50.8615 118.261 50.8497 118.25 50.8362C118.215 50.7983 118.194 50.7503 118.189 50.6993C118.184 50.6483 118.195 50.597 118.221 50.553C118.247 50.5089 118.287 50.4745 118.334 50.4547C118.382 50.4349 118.434 50.4308 118.484 50.4431C118.501 50.4477 118.518 50.4545 118.534 50.4632C118.638 50.5177 118.757 50.5323 118.871 50.5042C118.984 50.4762 119.084 50.4074 119.15 50.3109C119.16 50.2955 119.171 50.2815 119.185 50.2691C119.223 50.2351 119.271 50.2142 119.322 50.2094C119.373 50.2047 119.424 50.2164 119.468 50.2427C119.511 50.2691 119.546 50.3088 119.565 50.356C119.585 50.4032 119.589 50.4554 119.576 50.505C119.571 50.5223 119.565 50.5391 119.556 50.5552C119.502 50.6586 119.488 50.7783 119.516 50.8915C119.545 51.0048 119.614 51.1036 119.71 51.1692C119.725 51.1795 119.739 51.1913 119.752 51.2043C119.786 51.2425 119.807 51.2905 119.812 51.3413C119.817 51.3922 119.805 51.4433 119.778 51.487C119.752 51.5308 119.712 51.565 119.665 51.5845C119.618 51.6041 119.566 51.6081 119.516 51.5958C119.499 51.5919 119.482 51.5851 119.466 51.5757C119.362 51.5217 119.242 51.5076 119.129 51.5359C119.016 51.5643 118.916 51.6332 118.85 51.7297C118.841 51.745 118.83 51.7591 118.817 51.7715C118.779 51.8062 118.731 51.8278 118.679 51.8329C118.628 51.8381 118.577 51.8265 118.532 51.8C118.488 51.7735 118.454 51.7335 118.434 51.6858C118.415 51.6382 118.411 51.5855 118.424 51.5356C118.429 51.5183 118.436 51.5015 118.444 51.4854Z" fill="#FD4C6F"/>
<path opacity="0.3" d="M171.43 23.2644C171.484 23.1611 171.499 23.0412 171.47 22.9279C171.442 22.8145 171.373 22.7157 171.276 22.6504C171.261 22.6401 171.248 22.6283 171.235 22.6152C171.201 22.5772 171.179 22.529 171.174 22.4777C171.169 22.4265 171.18 22.3749 171.207 22.3308C171.233 22.2866 171.273 22.2522 171.321 22.2326C171.369 22.213 171.422 22.2093 171.471 22.2221C171.488 22.227 171.505 22.2338 171.52 22.2422C171.623 22.2969 171.744 22.3115 171.857 22.2831C171.971 22.2546 172.07 22.1853 172.136 22.0882C172.146 22.0737 172.158 22.0602 172.171 22.0481C172.209 22.0141 172.257 21.9932 172.308 21.9884C172.359 21.9837 172.41 21.9954 172.454 22.0217C172.497 22.0481 172.531 22.0878 172.551 22.135C172.571 22.1822 172.575 22.2344 172.562 22.284C172.558 22.3011 172.551 22.3175 172.542 22.3325C172.488 22.4362 172.474 22.5561 172.502 22.6695C172.531 22.783 172.6 22.8821 172.696 22.9482C172.711 22.9585 172.725 22.9702 172.738 22.9833C172.772 23.0215 172.793 23.0695 172.798 23.1203C172.802 23.1712 172.791 23.2223 172.764 23.266C172.738 23.3098 172.698 23.3439 172.651 23.3635C172.604 23.3831 172.552 23.3871 172.502 23.3748C172.485 23.3703 172.468 23.3636 172.452 23.3547C172.348 23.3009 172.229 23.2868 172.116 23.3151C172.002 23.3435 171.904 23.4123 171.838 23.5087C171.827 23.5234 171.815 23.5373 171.803 23.5505C171.765 23.5852 171.716 23.6068 171.665 23.6119C171.614 23.6171 171.562 23.6055 171.518 23.579C171.474 23.5525 171.44 23.5125 171.42 23.4648C171.4 23.4172 171.397 23.3645 171.41 23.3146C171.415 23.2973 171.421 23.2805 171.43 23.2644Z" fill="#FD4C6F"/>
<path opacity="0.3" d="M172.244 99.0645C172.298 98.9611 172.312 98.8414 172.284 98.7281C172.256 98.6149 172.187 98.516 172.09 98.4505C172.075 98.4406 172.062 98.4288 172.05 98.4153C172.015 98.3776 171.993 98.3296 171.988 98.2785C171.982 98.2273 171.994 98.1758 172.02 98.1317C172.046 98.0876 172.086 98.0532 172.134 98.0337C172.182 98.0143 172.234 98.0108 172.284 98.0238C172.302 98.0278 172.319 98.0345 172.334 98.0439C172.438 98.0979 172.558 98.1121 172.671 98.0837C172.785 98.0553 172.884 97.9864 172.95 97.89C172.959 97.8746 172.971 97.8606 172.983 97.8482C173.021 97.8134 173.07 97.7919 173.121 97.7867C173.172 97.7816 173.224 97.7931 173.268 97.8196C173.312 97.8461 173.347 97.8862 173.366 97.9338C173.386 97.9815 173.389 98.0342 173.377 98.0841C173.371 98.1013 173.365 98.1181 173.357 98.1343C173.302 98.2376 173.288 98.3574 173.316 98.4706C173.345 98.5839 173.414 98.6827 173.511 98.7483C173.525 98.7581 173.539 98.77 173.551 98.7834C173.582 98.8211 173.601 98.8674 173.604 98.9162C173.608 98.9649 173.597 99.0137 173.572 99.0557C173.547 99.0978 173.51 99.1312 173.465 99.1513C173.421 99.1715 173.371 99.1773 173.323 99.1682C173.306 99.1648 173.289 99.1586 173.273 99.1498C173.169 99.0953 173.05 99.0806 172.936 99.1087C172.823 99.1368 172.723 99.2056 172.657 99.302C172.647 99.3174 172.636 99.3315 172.622 99.3439C172.584 99.3779 172.536 99.3988 172.485 99.4035C172.434 99.4083 172.383 99.3966 172.339 99.3702C172.296 99.3438 172.261 99.3042 172.242 99.257C172.222 99.2098 172.218 99.1576 172.231 99.108C172.234 99.0932 172.238 99.0786 172.244 99.0645Z" fill="#FD4C6F"/>
<path opacity="0.3" d="M8.24585 6.3583C8.30023 6.25466 8.31459 6.13466 8.2862 6.02113C8.25782 5.90759 8.18867 5.80846 8.09192 5.74261C8.07705 5.73272 8.06354 5.7209 8.05177 5.70747C8.01677 5.66979 7.99495 5.62177 7.98958 5.57062C7.98421 5.51948 7.99558 5.46797 8.02199 5.42384C8.04839 5.37971 8.0884 5.34534 8.13601 5.32589C8.18362 5.30644 8.23626 5.30296 8.28601 5.31598C8.30349 5.32062 8.32034 5.32736 8.33621 5.33605C8.43984 5.39042 8.55986 5.40478 8.6734 5.3764C8.78694 5.34801 8.88607 5.27887 8.95193 5.18213C8.96222 5.16705 8.97399 5.15304 8.98707 5.1403C9.0252 5.1063 9.07322 5.0854 9.12409 5.08066C9.17496 5.07592 9.22602 5.08759 9.26978 5.11396C9.31354 5.14032 9.34771 5.18001 9.36729 5.2272C9.38687 5.27439 9.39083 5.3266 9.37859 5.37621C9.37394 5.39368 9.3672 5.41054 9.35851 5.4264C9.30414 5.53003 9.28978 5.65004 9.31816 5.76357C9.34655 5.8771 9.41569 5.97623 9.51244 6.04209C9.52749 6.05178 9.5415 6.063 9.55427 6.07555C9.58902 6.11357 9.61056 6.1618 9.6157 6.21305C9.62085 6.26431 9.60931 6.31585 9.5828 6.36002C9.5563 6.40419 9.51625 6.43863 9.4686 6.45821C9.42096 6.4778 9.36826 6.48148 9.31835 6.46872C9.30087 6.46407 9.28402 6.45733 9.26816 6.44864C9.16452 6.39427 9.04451 6.37991 8.93097 6.4083C8.81743 6.43668 8.71829 6.50582 8.65243 6.60256C8.64314 6.6174 8.63188 6.6309 8.61897 6.64272C8.58102 6.67718 8.53301 6.69854 8.48201 6.70365C8.431 6.70877 8.3797 6.69737 8.33567 6.67114C8.29163 6.6449 8.25718 6.60522 8.2374 6.55794C8.21761 6.51065 8.21354 6.45826 8.22578 6.40849C8.23042 6.39101 8.23716 6.37415 8.24585 6.3583Z" fill="#FD4C6F"/>
<path opacity="0.3" d="M0.256221 1.27713C0.310488 1.17375 0.324791 1.05401 0.296399 0.940757C0.268007 0.827505 0.198909 0.72867 0.10229 0.663113C0.0874128 0.653225 0.0739106 0.641411 0.0621341 0.627979C0.0276739 0.590033 0.00631237 0.542024 0.00119541 0.491023C-0.00392154 0.440022 0.00747599 0.388726 0.033711 0.344692C0.0599461 0.300657 0.0996313 0.266211 0.14692 0.246429C0.194208 0.226646 0.2466 0.222572 0.296378 0.234808C0.313858 0.239451 0.330711 0.246193 0.346572 0.254885C0.450018 0.309417 0.569898 0.324037 0.68342 0.295967C0.796941 0.267897 0.896189 0.199093 0.962297 0.102636C0.972102 0.0876661 0.983308 0.0736611 0.995761 0.0608092C1.03345 0.0271483 1.08083 0.00628482 1.13111 0.00120987C1.18139 -0.00386509 1.23199 0.00710915 1.27564 0.0325591C1.3193 0.0580091 1.35378 0.0966282 1.37414 0.142879C1.39449 0.18913 1.39968 0.240638 1.38895 0.290019C1.384 0.306858 1.37727 0.323123 1.36888 0.338539C1.31306 0.442683 1.29791 0.56384 1.32635 0.678522C1.35479 0.793204 1.4248 0.893242 1.52281 0.959246C1.53768 0.969135 1.55119 0.980949 1.56296 0.99438C1.60017 1.03218 1.62365 1.08134 1.62967 1.13404C1.63569 1.18673 1.62391 1.23992 1.5962 1.28515C1.56849 1.33037 1.52644 1.36502 1.47676 1.38357C1.42707 1.40213 1.3726 1.40353 1.32203 1.38755C1.30432 1.38362 1.28736 1.37684 1.27183 1.36747C1.16812 1.31348 1.04822 1.29932 0.934779 1.32768C0.821338 1.35604 0.722208 1.42495 0.656107 1.5214C0.646243 1.53679 0.634434 1.55085 0.620971 1.56322C0.582835 1.59722 0.534817 1.61812 0.483945 1.62286C0.433073 1.6276 0.38202 1.61594 0.338258 1.58957C0.294496 1.5632 0.260324 1.52352 0.240745 1.47633C0.221166 1.42914 0.217208 1.37692 0.229451 1.32732C0.23684 1.30982 0.245799 1.29302 0.256221 1.27713Z" fill="#FD4C6F"/>
<path opacity="0.3" d="M63.8978 38.1763C63.9521 38.0729 63.9664 37.9532 63.938 37.8399C63.9096 37.7267 63.8405 37.6279 63.7439 37.5623C63.729 37.5524 63.7155 37.5406 63.7037 37.5272C63.6693 37.4892 63.6479 37.4412 63.6428 37.3902C63.6377 37.3392 63.6491 37.2879 63.6753 37.2439C63.7015 37.1999 63.7412 37.1654 63.7885 37.1456C63.8358 37.1258 63.8882 37.1218 63.938 37.134C63.9555 37.1386 63.9723 37.1454 63.9882 37.1541C64.0916 37.2086 64.2115 37.2232 64.325 37.1952C64.4385 37.1671 64.5378 37.0983 64.6039 37.0018C64.6132 36.9865 64.6244 36.9724 64.6374 36.96C64.6754 36.9253 64.7236 36.9037 64.7749 36.8986C64.8261 36.8934 64.8777 36.905 64.9218 36.9315C64.966 36.958 65.0005 36.998 65.02 37.0457C65.0396 37.0933 65.0433 37.146 65.0305 37.1959C65.0256 37.2127 65.0189 37.229 65.0105 37.2444C64.9561 37.3481 64.9417 37.4681 64.9701 37.5816C64.9985 37.6951 65.0677 37.7943 65.1644 37.8601C65.1793 37.87 65.1928 37.8818 65.2046 37.8952C65.2395 37.9329 65.2614 37.981 65.2667 38.0321C65.2721 38.0832 65.2607 38.1347 65.2343 38.1789C65.2079 38.223 65.1679 38.2574 65.1203 38.2768C65.0727 38.2963 65.0201 38.2998 64.9703 38.2867C64.9526 38.2828 64.9356 38.276 64.9201 38.2667C64.8164 38.2127 64.6965 38.1985 64.5831 38.2269C64.4696 38.2552 64.3705 38.3241 64.3044 38.4206C64.2945 38.436 64.2827 38.45 64.2693 38.4624C64.2311 38.4964 64.1831 38.5173 64.1322 38.5221C64.0814 38.5268 64.0303 38.5151 63.9865 38.4888C63.9428 38.4624 63.9086 38.4227 63.889 38.3755C63.8695 38.3283 63.8655 38.2761 63.8777 38.2265C63.883 38.2092 63.8897 38.1924 63.8978 38.1763Z" fill="#FD4C6F"/>
<path opacity="0.3" d="M34.3884 57.833C34.4427 57.7296 34.457 57.6098 34.4286 57.4966C34.4002 57.3833 34.3311 57.2845 34.2345 57.2189C34.2196 57.2091 34.2061 57.1972 34.1943 57.1838C34.1594 57.1461 34.1375 57.0981 34.1322 57.047C34.1268 56.9958 34.1382 56.9443 34.1646 56.9002C34.191 56.856 34.231 56.8217 34.2786 56.8022C34.3262 56.7828 34.3788 56.7793 34.4286 56.7923C34.4463 56.7962 34.4633 56.803 34.4788 56.8124C34.5825 56.8664 34.7024 56.8805 34.8158 56.8522C34.9293 56.8238 35.0284 56.7549 35.0945 56.6585C35.1043 56.6435 35.1155 56.6295 35.128 56.6166C35.166 56.5819 35.2142 56.5604 35.2655 56.5552C35.3167 56.5501 35.3683 56.5616 35.4125 56.5881C35.4566 56.6146 35.4911 56.6547 35.5107 56.7023C35.5302 56.7499 35.5339 56.8026 35.5212 56.8525C35.5159 56.8698 35.5092 56.8866 35.5011 56.9027C35.4468 57.0061 35.4325 57.1259 35.4609 57.2391C35.4893 57.3524 35.5584 57.4512 35.655 57.5167C35.6699 57.5266 35.6834 57.5384 35.6952 57.5519C35.7302 57.5896 35.752 57.6376 35.7574 57.6887C35.7627 57.7399 35.7514 57.7914 35.7249 57.8355C35.6985 57.8796 35.6585 57.914 35.6109 57.9335C35.5633 57.9529 35.5107 57.9564 35.4609 57.9434C35.4432 57.9394 35.4263 57.9327 35.4107 57.9233C35.307 57.8693 35.1871 57.8551 35.0737 57.8835C34.9602 57.9119 34.8611 57.9808 34.795 58.0772C34.7852 58.0922 34.774 58.1062 34.7615 58.119C34.7235 58.1538 34.6753 58.1753 34.624 58.1805C34.5728 58.1856 34.5212 58.1741 34.4771 58.1476C34.4329 58.1211 34.3984 58.081 34.3789 58.0334C34.3593 57.9857 34.3556 57.933 34.3684 57.8831C34.3736 57.8659 34.3803 57.8491 34.3884 57.833Z" fill="#FD4C6F"/>
<path opacity="0.3" d="M80.5685 32.1268C80.6105 32.0177 80.6108 31.8971 80.5694 31.7878C80.5281 31.6786 80.4479 31.5884 80.3443 31.5345C80.328 31.5264 80.3128 31.5163 80.2991 31.5044C80.2597 31.4711 80.2322 31.4258 80.2207 31.3755C80.2093 31.3252 80.2146 31.2725 80.2358 31.2255C80.2569 31.1784 80.2928 31.1395 80.3381 31.1147C80.3833 31.0898 80.4354 31.0804 80.4865 31.0878C80.5043 31.0897 80.5218 31.0942 80.5384 31.1012C80.6477 31.1429 80.7684 31.1431 80.8779 31.1018C80.9873 31.0605 81.0778 30.9805 81.1323 30.877C81.1408 30.8609 81.1509 30.8458 81.1625 30.8318C81.1964 30.7934 81.2417 30.7669 81.2918 30.7562C81.3418 30.7455 81.394 30.7512 81.4407 30.7723C81.4873 30.7935 81.5259 30.829 81.5508 30.8738C81.5757 30.9185 81.5856 30.9701 81.5791 31.0209C81.5756 31.0386 81.5706 31.0559 81.564 31.0727C81.5226 31.182 81.5226 31.3026 81.5643 31.4118C81.6059 31.521 81.6862 31.6111 81.7899 31.665C81.8054 31.6735 81.82 31.6836 81.8334 31.6951C81.8716 31.7289 81.8979 31.7741 81.9087 31.824C81.9194 31.8738 81.9139 31.9258 81.8929 31.9723C81.872 32.0188 81.8368 32.0575 81.7923 32.0825C81.7479 32.1076 81.6966 32.1178 81.646 32.1117C81.6283 32.109 81.6109 32.1045 81.5941 32.0983C81.4851 32.0563 81.3644 32.056 81.2552 32.0974C81.1459 32.1387 81.0557 32.2189 81.0018 32.3225C80.993 32.3383 80.9829 32.3534 80.9717 32.3677C80.9378 32.4061 80.8925 32.4326 80.8424 32.4433C80.7923 32.454 80.7401 32.4483 80.6935 32.4272C80.6469 32.406 80.6083 32.3704 80.5833 32.3257C80.5584 32.281 80.5485 32.2294 80.5551 32.1786C80.5572 32.1608 80.5617 32.1434 80.5685 32.1268Z" fill="#FD4C6F"/>
<path opacity="0.3" d="M155.843 83.814C155.992 83.7495 156.112 83.6324 156.18 83.4852C156.248 83.338 156.259 83.1709 156.211 83.0159C156.204 82.9919 156.2 82.9672 156.198 82.9423C156.196 82.8726 156.217 82.8041 156.256 82.7464C156.295 82.6887 156.351 82.6447 156.417 82.6205C156.482 82.5964 156.553 82.5933 156.621 82.6117C156.688 82.6301 156.748 82.669 156.792 82.7231C156.807 82.7433 156.819 82.7652 156.829 82.7884C156.893 82.9371 157.01 83.0569 157.158 83.1248C157.305 83.1927 157.472 83.204 157.627 83.1564C157.651 83.1489 157.676 83.1438 157.701 83.1414C157.771 83.1393 157.84 83.1593 157.898 83.1986C157.956 83.2379 158 83.2944 158.025 83.3603C158.049 83.4261 158.052 83.4979 158.033 83.5655C158.014 83.6331 157.974 83.6931 157.92 83.737C157.9 83.7518 157.878 83.7642 157.854 83.7738C157.707 83.84 157.589 83.9573 157.521 84.1039C157.453 84.2506 157.441 84.4168 157.486 84.5719C157.495 84.5956 157.5 84.6204 157.501 84.6455C157.503 84.7156 157.483 84.7846 157.444 84.8428C157.405 84.9009 157.348 84.9452 157.282 84.9695C157.217 84.9937 157.145 84.9966 157.077 84.9778C157.01 84.959 156.95 84.9194 156.906 84.8646C156.891 84.8448 156.879 84.8228 156.871 84.7994C156.806 84.6506 156.689 84.5309 156.542 84.463C156.395 84.3951 156.228 84.3838 156.073 84.4313C156.049 84.4387 156.024 84.4438 155.999 84.4464C155.929 84.4485 155.86 84.4285 155.802 84.3892C155.743 84.3499 155.699 84.2933 155.675 84.2275C155.651 84.1616 155.648 84.0898 155.667 84.0222C155.685 83.9546 155.725 83.8946 155.78 83.8508C155.8 83.8363 155.821 83.8239 155.843 83.814Z" fill="#FD4C6F"/>
<path opacity="0.3" d="M53.9582 90.1521C54.1056 90.0859 54.224 89.9687 54.2917 89.822C54.3593 89.6753 54.3716 89.5091 54.3263 89.3541C54.3181 89.3309 54.3131 89.3067 54.3113 89.2821C54.3088 89.2119 54.3286 89.1426 54.3677 89.0842C54.4069 89.0257 54.4634 88.9811 54.5294 88.9567C54.5953 88.9323 54.6673 88.9292 54.7351 88.948C54.8028 88.9668 54.863 89.0064 54.9069 89.0613C54.9214 89.0817 54.9338 89.1036 54.9437 89.1265C55.0079 89.2755 55.1249 89.3956 55.2723 89.4635C55.4196 89.5315 55.5868 89.5425 55.7418 89.4946C55.7651 89.4868 55.7893 89.4823 55.8138 89.4812C55.8835 89.4796 55.952 89.4998 56.0097 89.539C56.0674 89.5782 56.1114 89.6345 56.1355 89.6999C56.1597 89.7654 56.1628 89.8367 56.1444 89.904C56.126 89.9713 56.087 90.0311 56.033 90.0752C56.0134 90.09 55.992 90.1024 55.9694 90.112C55.8206 90.1765 55.7008 90.2935 55.6329 90.4407C55.565 90.588 55.5538 90.755 55.6013 90.9101C55.6083 90.9341 55.6128 90.9587 55.6147 90.9837C55.6163 91.0534 55.5961 91.1219 55.5569 91.1796C55.5177 91.2373 55.4614 91.2813 55.396 91.3054C55.3305 91.3296 55.2592 91.3327 55.1919 91.3143C55.1246 91.2959 55.0648 91.2569 55.0207 91.2028C55.0059 91.1826 54.9935 91.1607 54.9839 91.1376C54.9177 90.9903 54.8004 90.8718 54.6537 90.8042C54.507 90.7365 54.3408 90.7242 54.1858 90.7695C54.1618 90.7771 54.1372 90.7821 54.1122 90.7846C54.042 90.7867 53.973 90.7667 53.9149 90.7274C53.8567 90.6881 53.8124 90.6315 53.7882 90.5657C53.7639 90.4998 53.761 90.428 53.7798 90.3604C53.7986 90.2928 53.8382 90.2328 53.893 90.189C53.9132 90.1741 53.9351 90.1618 53.9582 90.1521Z" fill="#FD4C6F"/>
<path opacity="0.3" d="M85.8047 91.7764C85.9535 91.7119 86.0733 91.5948 86.1412 91.4476C86.2091 91.3004 86.2204 91.1333 86.1728 90.9783C86.1654 90.9543 86.1604 90.9297 86.1578 90.9047C86.1557 90.8346 86.1757 90.7655 86.215 90.7074C86.2543 90.6493 86.3108 90.6049 86.3767 90.5807C86.4425 90.5565 86.5144 90.5536 86.582 90.5724C86.6496 90.5912 86.7095 90.6308 86.7534 90.6855C86.7682 90.7057 86.7806 90.7276 86.7902 90.7508C86.855 90.8992 86.9722 91.0186 87.1194 91.0862C87.2666 91.1538 87.4335 91.1648 87.5883 91.1172C87.6123 91.1102 87.637 91.1057 87.6619 91.1038C87.7317 91.1022 87.8002 91.1224 87.8579 91.1616C87.9156 91.2008 87.9595 91.257 87.9837 91.3225C88.0078 91.3879 88.0109 91.4593 87.9926 91.5265C87.9742 91.5938 87.9352 91.6537 87.8811 91.6977C87.8609 91.7126 87.839 91.7249 87.8159 91.7345C87.6671 91.799 87.5473 91.9161 87.4794 92.0633C87.4115 92.2105 87.4002 92.3776 87.4478 92.5326C87.4552 92.5566 87.4602 92.5812 87.4628 92.6062C87.4649 92.6763 87.4449 92.7454 87.4056 92.8035C87.3663 92.8616 87.3098 92.906 87.2439 92.9302C87.1781 92.9544 87.1062 92.9573 87.0386 92.9385C86.971 92.9197 86.9111 92.8801 86.8672 92.8254C86.8524 92.8052 86.84 92.7833 86.8304 92.7601C86.7642 92.6128 86.6469 92.4944 86.5002 92.4267C86.3535 92.3591 86.1873 92.3468 86.0323 92.392C86.0085 92.4004 85.9838 92.4055 85.9587 92.4071C85.8889 92.4087 85.8204 92.3885 85.7627 92.3493C85.705 92.3101 85.6611 92.2539 85.6369 92.1884C85.6128 92.123 85.6097 92.0516 85.6281 91.9844C85.6464 91.9171 85.6854 91.8572 85.7395 91.8132C85.7597 91.7983 85.7816 91.786 85.8047 91.7764Z" fill="#FD4C6F"/>
<path opacity="0.1" d="M20.3896 20.0383C21.9143 20.0383 23.1504 18.8024 23.1504 17.2778C23.1504 15.7532 21.9143 14.5172 20.3896 14.5172C18.8649 14.5172 17.6289 15.7532 17.6289 17.2778C17.6289 18.8024 18.8649 20.0383 20.3896 20.0383Z" fill="#FD4C6F"/>
<path opacity="0.1" d="M158.054 22.7994C159.578 22.7994 160.814 21.5634 160.814 20.0388C160.814 18.5142 159.578 17.2782 158.054 17.2782C156.529 17.2782 155.293 18.5142 155.293 20.0388C155.293 21.5634 156.529 22.7994 158.054 22.7994Z" fill="#FD4C6F"/>
<path opacity="0.1" d="M33.4404 5.07824C34.2721 5.07824 34.9463 4.40409 34.9463 3.57248C34.9463 2.74087 34.2721 2.06672 33.4404 2.06672C32.6088 2.06672 31.9346 2.74087 31.9346 3.57248C31.9346 4.40409 32.6088 5.07824 33.4404 5.07824Z" fill="#FD4C6F"/>
<path opacity="0.1" d="M177.491 48.8975C178.323 48.8975 178.997 48.2233 178.997 47.3917C178.997 46.5601 178.323 45.8859 177.491 45.8859C176.66 45.8859 175.985 46.5601 175.985 47.3917C175.985 48.2233 176.66 48.8975 177.491 48.8975Z" fill="#FD4C6F"/>
<path opacity="0.1" d="M23.1504 125.977C23.982 125.977 24.6562 125.303 24.6562 124.472C24.6562 123.64 23.982 122.966 23.1504 122.966C22.3187 122.966 21.6445 123.64 21.6445 124.472C21.6445 125.303 22.3187 125.977 23.1504 125.977Z" fill="#FD4C6F"/>
<path opacity="0.1" d="M28.9228 132.758C29.7545 132.758 30.4287 132.084 30.4287 131.252C30.4287 130.421 29.7545 129.747 28.9228 129.747C28.0912 129.747 27.417 130.421 27.417 131.252C27.417 132.084 28.0912 132.758 28.9228 132.758Z" fill="#FD4C6F"/>
<path opacity="0.1" d="M17.6289 136.846C18.4606 136.846 19.1347 136.171 19.1347 135.34C19.1347 134.508 18.4606 133.834 17.6289 133.834C16.7972 133.834 16.123 134.508 16.123 135.34C16.123 136.171 16.7972 136.846 17.6289 136.846Z" fill="#FD4C6F"/>
<defs>
<linearGradient id="paint0_linear" x1="97.6271" y1="77.8879" x2="94.6423" y2="59.1684" gradientUnits="userSpaceOnUse">
<stop stop-color="#808080" stop-opacity="0.25"/>
<stop offset="0.54" stop-color="#808080" stop-opacity="0.12"/>
<stop offset="1" stop-color="#808080" stop-opacity="0.1"/>
</linearGradient>
<linearGradient id="paint1_linear" x1="3784" y1="2902.04" x2="4349.74" y2="2902.04" gradientUnits="userSpaceOnUse">
<stop stop-color="#808080" stop-opacity="0.25"/>
<stop offset="0.54" stop-color="#808080" stop-opacity="0.12"/>
<stop offset="1" stop-color="#808080" stop-opacity="0.1"/>
</linearGradient>
</defs>
</svg>
