<svg width="49" height="48" viewBox="0 0 49 48" fill="none" xmlns="http://www.w3.org/2000/svg">
<path d="M18.9019 26C20.0064 26 20.9019 25.1046 20.9019 24C20.9019 22.8954 20.0064 22 18.9019 22C17.7973 22 16.9019 22.8954 16.9019 24C16.9019 25.1046 17.7973 26 18.9019 26Z" stroke="#400186" stroke-width="1.83333" stroke-linecap="round" stroke-linejoin="round"/>
<path d="M30.9019 26C32.0064 26 32.9019 25.1046 32.9019 24C32.9019 22.8954 32.0064 22 30.9019 22C29.7973 22 28.9019 22.8954 28.9019 24C28.9019 25.1046 29.7973 26 30.9019 26Z" stroke="#400186" stroke-width="1.83333" stroke-linecap="round" stroke-linejoin="round"/>
<path d="M15.9019 15C22.9019 13 26.9019 13 33.9019 15" stroke="#400186" stroke-width="1.83333" stroke-linecap="round" stroke-linejoin="round"/>
<path d="M14.9019 33C21.9019 35 27.9019 35 34.9019 33" stroke="#400186" stroke-width="1.83333" stroke-linecap="round" stroke-linejoin="round"/>
<path d="M31.9019 34C31.9019 36 34.9019 40 35.9019 40C38.9019 40 41.5679 36.666 42.9019 34C44.2359 30.666 43.9019 22.334 39.9019 11C36.9879 8.97 33.9019 8.32 30.9019 8L28.9019 13" stroke="#400186" stroke-width="1.83333" stroke-linecap="round" stroke-linejoin="round"/>
<path d="M17.9018 34C17.9018 36 15.1898 40 14.2378 40C11.3798 40 8.84183 36.666 7.57183 34C6.30183 30.666 6.61983 22.334 10.4278 11C13.2038 8.97 15.9918 8.32 18.9018 8L20.9018 13" stroke="#400186" stroke-width="1.83333" stroke-linecap="round" stroke-linejoin="round"/>
</svg>
