<svg width="49" height="48" viewBox="0 0 49 48" fill="none" xmlns="http://www.w3.org/2000/svg">
<path d="M32.9019 8.0001H16.9019C12.4836 8.0001 8.90186 11.5818 8.90186 16.0001V32.0001C8.90186 36.4184 12.4836 40.0001 16.9019 40.0001H32.9019C37.3201 40.0001 40.9019 36.4184 40.9019 32.0001V16.0001C40.9019 11.5818 37.3201 8.0001 32.9019 8.0001Z" stroke="#400186" stroke-width="2" stroke-linecap="round" stroke-linejoin="round"/>
<path d="M24.9019 30C28.2156 30 30.9019 27.3137 30.9019 24C30.9019 20.6863 28.2156 18 24.9019 18C21.5881 18 18.9019 20.6863 18.9019 24C18.9019 27.3137 21.5881 30 24.9019 30Z" stroke="#400186" stroke-width="2" stroke-linecap="round" stroke-linejoin="round"/>
<path d="M33.9019 15V15.001" stroke="#400186" stroke-width="2" stroke-linecap="round" stroke-linejoin="round"/>
</svg>
