<svg width="49" height="49" viewBox="0 0 49 49" fill="none" xmlns="http://www.w3.org/2000/svg">
<path d="M18.9019 24.1434C17.3196 24.1434 15.7729 24.6126 14.4573 25.4916C13.1417 26.3707 12.1163 27.6201 11.5108 29.0819C10.9053 30.5437 10.7469 32.1523 11.0556 33.7041C11.3643 35.256 12.1262 36.6814 13.245 37.8003C14.3638 38.9191 15.7893 39.681 17.3411 39.9897C18.893 40.2984 20.5015 40.1399 21.9633 39.5344C23.4251 38.9289 24.6746 37.9036 25.5536 36.588C26.4327 35.2724 26.9019 33.7257 26.9019 32.1434V8.14341C26.9019 10.7956 27.9554 13.3391 29.8308 15.2145C31.7062 17.0898 34.2497 18.1434 36.9019 18.1434" stroke="#400186" stroke-width="2" stroke-linecap="round" stroke-linejoin="round"/>
</svg>
