<svg width="53" height="71" viewBox="0 0 53 71" fill="none" xmlns="http://www.w3.org/2000/svg">
<path d="M30.5576 41.9512C30.5576 47.653 29.3776 52.0143 27.0176 55.0352C24.6576 58.056 21.2025 59.5664 16.6523 59.5664C12.1589 59.5664 8.72266 58.0843 6.34375 55.1201C3.96484 52.1559 2.74707 47.9079 2.69043 42.376V34.7861C2.69043 29.0277 3.87988 24.6569 6.25879 21.6738C8.65658 18.6908 12.1022 17.1992 16.5957 17.1992C21.0892 17.1992 24.5254 18.6813 26.9043 21.6455C29.2832 24.5908 30.501 28.8294 30.5576 34.3613V41.9512ZM22.373 33.625C22.373 30.2077 21.901 27.7249 20.957 26.1768C20.0319 24.6097 18.5781 23.8262 16.5957 23.8262C14.6699 23.8262 13.2445 24.5719 12.3193 26.0635C11.4131 27.5361 10.9316 29.849 10.875 33.002V43.0273C10.875 46.388 11.3281 48.8896 12.2344 50.5322C13.1595 52.1559 14.6322 52.9678 16.6523 52.9678C18.6536 52.9678 20.098 52.1842 20.9854 50.6172C21.8727 49.0501 22.3353 46.6523 22.373 43.4238V33.625Z" fill="#FD4C6F"/>
<path d="M47.6562 21.7656H42.0938C42.1562 23.5781 42.6094 24.9323 43.4531 25.8281C44.3073 26.724 45.526 27.1719 47.1094 27.1719C48.2552 27.1719 49.3229 27 50.3125 26.6562L50.75 29.8438C49.5 30.1458 48.2083 30.2969 46.875 30.2969C44.2083 30.2969 42.1094 29.5469 40.5781 28.0469C39.0469 26.5469 38.2396 24.4531 38.1562 21.7656H35.4688V19.5625H38.1562V17.5625H35.4688V15.3594H38.1719C38.3073 12.7031 39.1562 10.6406 40.7188 9.17188C42.2812 7.69271 44.3802 6.95312 47.0156 6.95312C48.1198 6.95312 49.3646 7.11458 50.75 7.4375L50.3125 10.6406C49.25 10.2865 48.1927 10.1094 47.1406 10.1094C45.5677 10.1094 44.3594 10.5573 43.5156 11.4531C42.6719 12.349 42.2031 13.651 42.1094 15.3594H47.6562V17.5625H42.0938V19.5625H47.6562V21.7656Z" fill="#093046"/>
</svg>
