<svg width="132" height="71" viewBox="0 0 132 71" fill="none" xmlns="http://www.w3.org/2000/svg">
<path d="M25.0068 17.3408V24.0811H24.2139C20.5133 24.1377 17.5303 25.1006 15.2646 26.9697C13.0179 28.8389 11.668 31.4349 11.2148 34.7578C13.4049 32.5299 16.1709 31.416 19.5127 31.416C23.0999 31.416 25.9508 32.6999 28.0654 35.2676C30.18 37.8353 31.2373 41.2148 31.2373 45.4062C31.2373 48.0872 30.652 50.5133 29.4814 52.6846C28.3298 54.8558 26.6872 56.5456 24.5537 57.7539C22.4391 58.9622 20.0413 59.5664 17.3604 59.5664C13.0179 59.5664 9.50618 58.056 6.8252 55.0352C4.16309 52.0143 2.83203 47.9834 2.83203 42.9424V39.9971C2.83203 35.5225 3.6722 31.5765 5.35254 28.1592C7.05176 24.723 9.47786 22.0703 12.6309 20.2012C15.8027 18.3132 19.4749 17.3597 23.6475 17.3408H25.0068ZM17.0205 37.9863C15.6989 37.9863 14.5 38.3356 13.4238 39.0342C12.3477 39.7139 11.5547 40.6201 11.0449 41.7529V44.2451C11.0449 46.9827 11.583 49.1257 12.6592 50.6738C13.7354 52.2031 15.2458 52.9678 17.1904 52.9678C18.9463 52.9678 20.3623 52.2786 21.4385 50.9004C22.5335 49.5033 23.0811 47.7002 23.0811 45.4912C23.0811 43.2445 22.5335 41.432 21.4385 40.0537C20.3434 38.6755 18.8708 37.9863 17.0205 37.9863ZM37.9923 69.3369L33.7159 67.0996L34.7354 65.2588C36.0004 62.9554 36.6518 60.6615 36.6895 58.377V52.0332H43.5997L43.5714 57.6973C43.5525 59.793 43.0238 61.9076 41.9854 64.041C40.947 66.1745 39.616 67.9398 37.9923 69.3369ZM68.2531 42.5176C66.1196 44.6133 63.6274 45.6611 60.7765 45.6611C57.1326 45.6611 54.2157 44.415 52.0255 41.9229C49.8354 39.4118 48.7404 36.0322 48.7404 31.7842C48.7404 29.0843 49.3257 26.611 50.4963 24.3643C51.6857 22.0986 53.3377 20.3428 55.4523 19.0967C57.5669 17.8317 59.9458 17.1992 62.589 17.1992C65.3078 17.1992 67.7244 17.8789 69.839 19.2383C71.9536 20.5977 73.5962 22.5518 74.7668 25.1006C75.9373 27.6494 76.5321 30.5664 76.5509 33.8516V36.8818C76.5509 43.7542 74.8423 49.154 71.425 53.0811C68.0076 57.0081 63.1649 59.1038 56.8966 59.3682L54.8859 59.3965V52.5713L56.6984 52.543C63.8162 52.222 67.6678 48.8802 68.2531 42.5176ZM62.7873 39.4023C64.1089 39.4023 65.2417 39.0625 66.1857 38.3828C67.1486 37.7031 67.8755 36.8818 68.3664 35.9189V32.5488C68.3664 29.7734 67.8377 27.6211 66.7804 26.0918C65.7231 24.5625 64.3071 23.7979 62.5324 23.7979C60.8898 23.7979 59.5399 24.5531 58.4826 26.0635C57.4253 27.555 56.8966 29.4336 56.8966 31.6992C56.8966 33.946 57.4064 35.7962 58.4259 37.25C59.4643 38.6849 60.9181 39.4023 62.7873 39.4023ZM100.978 42.5176C98.8443 44.6133 96.3521 45.6611 93.5012 45.6611C89.8573 45.6611 86.9403 44.415 84.7502 41.9229C82.5601 39.4118 81.4651 36.0322 81.4651 31.7842C81.4651 29.0843 82.0504 26.611 83.2209 24.3643C84.4104 22.0986 86.0624 20.3428 88.177 19.0967C90.2916 17.8317 92.6705 17.1992 95.3137 17.1992C98.0325 17.1992 100.449 17.8789 102.564 19.2383C104.678 20.5977 106.321 22.5518 107.491 25.1006C108.662 27.6494 109.257 30.5664 109.276 33.8516V36.8818C109.276 43.7542 107.567 49.154 104.15 53.0811C100.732 57.0081 95.8896 59.1038 89.6213 59.3682L87.6106 59.3965V52.5713L89.4231 52.543C96.5409 52.222 100.392 48.8802 100.978 42.5176ZM95.512 39.4023C96.8336 39.4023 97.9664 39.0625 98.9104 38.3828C99.8733 37.7031 100.6 36.8818 101.091 35.9189V32.5488C101.091 29.7734 100.562 27.6211 99.5051 26.0918C98.4478 24.5625 97.0318 23.7979 95.2571 23.7979C93.6145 23.7979 92.2646 24.5531 91.2073 26.0635C90.15 27.555 89.6213 29.4336 89.6213 31.6992C89.6213 33.946 90.1311 35.7962 91.1506 37.25C92.189 38.6849 93.6428 39.4023 95.512 39.4023Z" fill="#FDC34A"/>
<path d="M126.656 21.7656H121.094C121.156 23.5781 121.609 24.9323 122.453 25.8281C123.307 26.724 124.526 27.1719 126.109 27.1719C127.255 27.1719 128.323 27 129.312 26.6562L129.75 29.8438C128.5 30.1458 127.208 30.2969 125.875 30.2969C123.208 30.2969 121.109 29.5469 119.578 28.0469C118.047 26.5469 117.24 24.4531 117.156 21.7656H114.469V19.5625H117.156V17.5625H114.469V15.3594H117.172C117.307 12.7031 118.156 10.6406 119.719 9.17188C121.281 7.69271 123.38 6.95312 126.016 6.95312C127.12 6.95312 128.365 7.11458 129.75 7.4375L129.312 10.6406C128.25 10.2865 127.193 10.1094 126.141 10.1094C124.568 10.1094 123.359 10.5573 122.516 11.4531C121.672 12.349 121.203 13.651 121.109 15.3594H126.656V17.5625H121.094V19.5625H126.656V21.7656Z" fill="#093046"/>
</svg>
