<svg width="56" height="56" viewBox="0 0 56 56" fill="none" xmlns="http://www.w3.org/2000/svg">
<path d="M18.6667 35C18.6667 32.4227 16.5774 30.3333 14 30.3333C11.4227 30.3333 9.33337 32.4227 9.33337 35V39.6667C9.33337 42.244 11.4227 44.3333 14 44.3333C16.5774 44.3333 18.6667 42.244 18.6667 39.6667V35Z" stroke="#404DEF" stroke-width="3" stroke-linecap="round" stroke-linejoin="round"/>
<path d="M46.6667 35C46.6667 32.4227 44.5774 30.3333 42 30.3333C39.4227 30.3333 37.3334 32.4227 37.3334 35V39.6667C37.3334 42.244 39.4227 44.3333 42 44.3333C44.5774 44.3333 46.6667 42.244 46.6667 39.6667V35Z" stroke="#404DEF" stroke-width="3" stroke-linecap="round" stroke-linejoin="round"/>
<path d="M9.33337 35V28C9.33337 23.0493 11.3 18.3014 14.8007 14.8007C18.3014 11.3 23.0493 9.33334 28 9.33334C32.9507 9.33334 37.6987 11.3 41.1994 14.8007C44.7 18.3014 46.6667 23.0493 46.6667 28V35" stroke="#404DEF" stroke-width="3" stroke-linecap="round" stroke-linejoin="round"/>
<path d="M42 44.3333C42 46.1899 40.525 47.9703 37.8995 49.2831C35.274 50.5958 31.713 51.3333 28 51.3333" stroke="#404DEF" stroke-width="3" stroke-linecap="round" stroke-linejoin="round"/>
</svg>
