<svg width="40" height="40" viewBox="0 0 40 40" fill="none" xmlns="http://www.w3.org/2000/svg">
<path d="M32.5 22.6199L20 34.9999L7.49999 22.6199C6.6755 21.8176 6.02606 20.8532 5.59257 19.7876C5.15908 18.722 4.95093 17.5781 4.98122 16.4281C5.01152 15.2781 5.2796 14.1468 5.76859 13.1054C6.25758 12.0641 6.95689 11.1353 7.82247 10.3775C8.68806 9.61973 9.70117 9.04937 10.798 8.70236C11.8949 8.35534 13.0517 8.23919 14.1956 8.36122C15.3395 8.48325 16.4458 8.84082 17.4448 9.4114C18.4437 9.98198 19.3137 10.7532 20 11.6766C20.6892 10.7599 21.5602 9.99542 22.5585 9.4309C23.5568 8.86637 24.6608 8.51397 25.8015 8.39575C26.9423 8.27754 28.0951 8.39605 29.1879 8.74387C30.2808 9.0917 31.29 9.66134 32.1526 10.4172C33.0151 11.173 33.7124 12.0987 34.2007 13.1364C34.689 14.1741 34.9579 15.3014 34.9905 16.4477C35.0231 17.5941 34.8188 18.7349 34.3902 19.7986C33.9617 20.8624 33.3182 21.8263 32.5 22.6299" stroke="#400186" stroke-width="2.75" stroke-linecap="round" stroke-linejoin="round"/>
</svg>
