<svg width="736" height="392" viewBox="0 0 736 392" fill="none" xmlns="http://www.w3.org/2000/svg">
<g clip-path="url(#clip0)">
<path opacity="0.1" d="M31.2085 53.6205C32.4009 61.2141 35.4483 68.5483 35.4748 76.2283C35.5741 101.323 5.24007 116.736 0.596225 141.392C-2.15961 156.021 4.98171 170.968 15.0511 181.88C25.1205 192.792 37.959 200.658 49.7839 209.635C82.5014 234.517 107.72 268.002 122.648 306.383C125.636 314.096 128.206 322.049 129.054 330.281C129.67 336.265 129.379 342.389 130.776 348.234C136.308 371.434 164.356 380.437 188.073 381.94C226.269 384.32 264.503 377.911 299.856 363.202C307.806 359.877 316.013 356.1 324.546 357.038C331.369 357.789 337.457 361.493 343.446 364.864C361.082 374.799 379.852 382.555 399.344 387.964C410.142 390.956 421.477 393.23 432.507 391.289C465.63 385.424 483.232 345.102 515.732 336.285C538.216 330.187 561.614 340.84 581.779 352.536C601.945 364.232 622.759 377.704 646.038 377.737C677.094 377.777 702.625 354.185 723.692 331.285C728.11 326.477 732.602 321.45 734.708 315.26C738.981 302.692 732.059 288.576 721.823 280.131C711.589 271.686 698.684 267.497 686.355 262.67C665.459 254.487 645.518 244.034 626.886 231.498C614.829 223.385 603.15 214.209 594.903 202.24C587.808 191.921 583.548 179.958 578.792 168.362C568.365 142.968 553.618 117.162 528.995 105.246C508.889 95.5115 485.537 96.602 463.219 96.3426C430.334 95.9769 396.615 92.0073 367.46 76.7403C342.837 63.8472 322.612 43.4935 297.624 31.3052C257.876 11.9356 212.438 15.7324 169.61 16.4638C149.027 16.8163 124.562 18.8776 104.795 12.1085C90.1741 7.10153 82.6486 -3.13184 65.8552 0.990761C42.8877 6.60947 27.5385 30.1948 31.2085 53.6205Z" fill="#404DEF"/>
<path d="M640.155 236.405C639.115 232.949 639.225 229.247 640.467 225.859C642.454 220.699 647.297 216.975 648.999 211.702C652.166 201.908 643.633 192.738 638.4 183.861C633.599 175.625 631.424 166.112 632.166 156.599C632.981 146.386 637.148 136.618 637.466 126.378C637.75 116.836 634.67 107.553 631.629 98.5103C629.119 91.0364 626.562 83.4761 622.315 76.84C614.286 64.2926 600.023 56.4065 585.357 55.1032C578.434 54.4848 571.663 56.7456 564.86 55.8612C555.413 54.6378 546.483 52.1775 536.851 51.8716C527.703 51.599 517.587 52.7626 511.353 59.4918C506.59 64.645 505.066 72.0857 500.707 77.5914C494.52 85.4044 483.702 88.084 476.859 95.3186C473.902 98.5159 471.826 102.431 470.835 106.679C469.844 110.926 469.973 115.36 471.208 119.542C472.155 122.628 473.705 125.493 474.712 128.559C478.946 141.365 473.388 155.063 470.029 168.122C469.65 169.189 469.582 170.342 469.83 171.447C470.36 173.043 472.029 173.881 473.414 174.825C477.945 177.924 480.257 183.536 480.701 189.021C481.145 194.507 479.88 199.973 478.634 205.332C475.461 218.957 471.493 233.552 461.033 242.615C459.133 238.069 456.887 233.676 454.315 229.476C447.916 219.063 443.179 206.203 443.1 193.895C443.095 193.858 443.095 193.82 443.1 193.782C443.1 193.117 443.133 192.452 443.173 191.788C444.001 177.265 450.254 163.255 450.115 148.799C450.115 147.629 450.082 146.457 450.016 145.282C449.201 132.907 443.279 121.464 436.488 111.104C431.421 103.371 425.71 95.9037 418.397 90.2717C407.088 81.6342 392.72 77.8839 378.603 75.9024C364.486 73.9209 351.641 72.0591 337.411 71.1016C322.108 70.0709 305.268 69.4924 293.172 78.9478C277.399 91.2757 276.524 115.087 264.501 131.112C257.346 140.647 245.952 148.015 242.182 158.847C241.163 156.188 240.313 153.468 239.638 150.701C239.599 150.515 239.559 150.335 239.519 150.149C244.065 137.079 245.123 123.043 242.586 109.435C242.886 107.231 243.038 105.01 243.043 102.786C243.117 100.365 242.857 97.9463 242.268 95.5978C240.566 89.1214 235.869 83.9415 231.331 79.0276C229.679 77.1516 227.885 75.4065 225.965 73.8079C214.09 59.3662 197.486 49.6321 179.12 46.3439C160.755 43.0558 141.822 46.4278 125.705 55.8576C109.587 65.2875 97.3339 80.1612 91.1336 97.8222C84.9333 115.483 85.1896 134.782 91.8567 152.27C91.2738 156.805 89.5249 161.214 86.3119 164.412C84.8479 165.868 82.9533 167.69 83.2713 169.552C83.1726 170.082 83.2469 170.63 83.4832 171.115C83.8087 171.695 84.2619 172.193 84.8082 172.571C89.4427 176.126 95.2145 177.853 101.032 177.425C105.941 191.906 115.564 204.306 128.352 212.627C128.352 213.07 128.336 213.5 128.305 213.917C128.305 214.655 128.246 215.386 128.213 216.131C128.213 216.297 128.213 216.463 128.213 216.63C128.213 216.57 128.213 216.503 128.213 216.437C128.213 216.37 105.146 246.618 83.8277 247.742C72.4467 248.34 62.5164 256.047 54.9908 264.857C45.9549 275.43 40.377 287.585 39.9 290.949C39.0189 297.12 32.8713 327.109 32.8713 327.109H209.973C207.88 337.907 205.058 351.665 205.058 351.665H491.764C491.102 342.416 490.366 333.865 489.684 326.623H525.728L525.689 326.843H691.966L702.513 310.957C699.896 264.671 672.695 239.224 640.155 236.405ZM226.184 184.699C229.924 186.719 233.943 188.172 238.108 189.008C239.917 189.38 241.937 189.613 243.481 188.596C244.504 187.82 245.261 186.744 245.647 185.517L245.726 185.717C250.198 197.021 254.338 208.684 255.14 220.825C255.213 221.969 255.259 223.113 255.266 224.263C255.284 231.189 253.86 238.042 251.086 244.384C236.108 236.478 221.664 227.593 207.847 217.787L206.913 217.388C206.913 217.461 207.237 218.292 207.622 219.695C207.714 220.034 207.814 220.406 207.913 220.805C206.966 217.733 206.105 214.595 205.349 211.397C205.263 211.018 205.177 210.638 205.091 210.259C214.112 203.614 221.358 194.833 226.184 184.699Z" fill="url(#paint0_linear)"/>
<path d="M534.195 54.2256C525.192 53.953 515.228 55.1034 509.101 61.7261C504.41 66.7929 502.913 74.1205 498.621 79.5398C492.533 87.2331 481.887 89.8662 475.143 96.9877C472.232 100.135 470.188 103.989 469.212 108.17C468.237 112.351 468.363 116.715 469.578 120.832C470.512 123.864 472.036 126.69 473.03 129.703C477.197 142.336 471.758 155.788 468.392 168.641C468.017 169.695 467.95 170.835 468.2 171.926C468.717 173.495 470.367 174.32 471.725 175.251C476.183 178.303 478.462 183.822 478.866 189.214C479.27 194.607 478.058 199.993 476.832 205.266C473.58 219.23 469.472 234.264 458.177 243.061C453.408 246.818 447.035 249.863 445.789 255.848C444.332 262.856 450.996 268.814 457.389 271.986C476.157 281.295 497.945 281.428 518.475 285.577C536.553 289.234 554.585 296.163 572.882 293.796C581.037 292.745 588.834 289.866 596.552 287.013L644.607 269.239C645.964 268.823 647.241 268.178 648.383 267.331C651.278 264.911 651.377 260.309 649.801 256.872C648.224 253.434 645.362 250.801 642.845 247.981C637.36 241.817 633.186 233.113 636.18 225.413C638.168 220.333 642.904 216.67 644.58 211.45C647.694 201.808 639.281 192.778 634.18 184.041C629.461 175.943 627.321 166.591 628.045 157.238C628.847 147.184 632.948 137.569 633.246 127.488C633.524 118.099 630.497 108.963 627.502 100.06C625.031 92.7055 622.514 85.2649 618.334 78.7286C610.431 66.3807 596.393 58.6209 581.951 57.3309C575.135 56.7258 568.477 58.9467 561.78 58.0823C552.472 56.9319 543.675 54.5116 534.195 54.2256Z" fill="#F7D6C8"/>
<path d="M547.636 318.079C547.636 318.079 493.155 283.795 514.341 244.271C519.243 235.135 521.409 226.491 521.853 218.598C521.97 216.518 521.97 214.434 521.853 212.354C521.853 212.254 521.853 212.155 521.853 212.055C521.783 210.982 521.688 209.927 521.568 208.89C519.044 188.024 505.689 174.426 505.689 174.426C505.689 174.426 596.055 147.955 580.925 171.82C573.903 182.897 576.003 193.762 580.706 205.007C581.203 206.19 581.733 207.387 582.283 208.577C587.715 220.433 595.254 232.714 597.36 246.033C601.68 273.375 547.636 318.079 547.636 318.079Z" fill="#EFB7B9"/>
<path opacity="0.1" d="M580.925 171.82C573.903 182.897 576.003 193.763 580.706 205.007C571.988 210.648 561.982 213.968 551.632 214.652C541.281 215.336 530.928 213.362 521.549 208.916C519.044 188.024 505.689 174.426 505.689 174.426C505.689 174.426 596.062 147.948 580.925 171.82Z" fill="black"/>
<path d="M547.629 213.484C581.3 213.484 608.596 186.087 608.596 152.29C608.596 118.494 581.3 91.0962 547.629 91.0962C513.959 91.0962 486.663 118.494 486.663 152.29C486.663 186.087 513.959 213.484 547.629 213.484Z" fill="#EFB7B9"/>
<path opacity="0.1" d="M521.853 212.381C521.853 212.281 521.853 212.181 521.853 212.082L521.926 211.962C521.886 212.108 521.86 212.248 521.853 212.381Z" fill="black"/>
<path opacity="0.1" d="M547.636 318.079C547.636 318.079 493.155 283.795 514.341 244.271C519.243 235.135 521.409 226.491 521.853 218.598C523.092 228.359 529.803 240.494 542.018 257.291C547.318 264.605 549.597 274.832 550.319 285.052L551.531 285.936L557.493 282.319C558.156 271.015 560.435 259.591 565.827 251.492C579.997 230.214 583.362 219.575 582.316 208.551C587.748 220.407 595.287 232.688 597.393 246.007C601.68 273.375 547.636 318.079 547.636 318.079Z" fill="black"/>
<path d="M634.975 235.726C602.514 233.359 581.978 208.065 581.978 208.065C583.707 219.914 580.898 230.52 565.761 253.281C560.402 261.353 558.129 272.757 557.467 284.087L551.505 287.704L550.293 286.82C549.57 276.607 547.298 266.367 541.992 259.059C526.861 238.226 520.131 224.555 521.886 213.704C521.886 213.704 505.239 240.826 472.811 243.001C440.384 245.175 413.143 268.175 410.54 310.272L420.914 324.595H523.244L523.205 324.814H686.832L697.246 309.168C694.643 263.208 667.435 238.093 634.975 235.726Z" fill="#093046"/>
<path opacity="0.05" d="M634.975 235.726C602.514 233.359 581.978 208.065 581.978 208.065C583.707 219.914 580.898 230.52 565.761 253.281C560.402 261.353 558.129 272.757 557.467 284.087L551.505 287.704L550.293 286.82C549.57 276.607 547.298 266.367 541.992 259.059C526.861 238.226 520.131 224.555 521.886 213.704C521.886 213.704 505.239 240.826 472.811 243.001C440.384 245.175 413.143 268.175 410.54 310.272L420.914 324.595H523.244L523.205 324.814H686.832L697.246 309.168C694.643 263.208 667.435 238.093 634.975 235.726Z" fill="#093046"/>
<path opacity="0.1" d="M588.848 122.714C586.198 129.297 581.494 134.856 576.354 139.737C569.252 146.486 560.322 152.43 550.558 151.971C555.881 146.994 559.734 140.639 561.693 133.606C555.533 137.21 550.875 142.915 544.993 146.978C539.11 151.041 530.796 153.135 525.046 148.893C535.49 143.622 544.166 135.395 550.001 125.228C536.036 128.865 528.869 144.65 516.288 151.739C510.393 155.063 503.496 156.313 496.739 156.167C491.936 156.067 486.584 154.944 483.907 150.941C482.344 148.614 481.98 145.688 481.92 142.875C481.629 130.122 486.802 117.608 494.772 107.68C502.741 97.7525 513.321 90.2055 524.635 84.3474C528.663 82.2595 532.863 80.3578 537.348 79.6928C542.926 78.8816 548.61 80.0719 554.082 81.3352C561.197 82.971 568.351 84.7663 574.903 87.9846C588.887 94.9332 594.995 107.527 588.848 122.714Z" fill="black"/>
<path d="M588.848 121.843C586.198 128.426 581.494 133.985 576.354 138.866C569.252 145.615 560.322 151.559 550.558 151.1C555.881 146.123 559.734 139.768 561.693 132.735C555.533 136.339 550.875 142.044 544.993 146.107C539.11 150.169 530.796 152.264 525.046 148.022C535.49 142.751 544.166 134.524 550.001 124.357C536.036 127.994 528.869 143.779 516.288 150.868C510.393 154.192 503.496 155.442 496.739 155.296C491.936 155.196 486.584 154.073 483.907 150.07C482.344 147.742 481.98 144.817 481.92 142.004C481.629 129.251 486.802 116.736 494.772 106.809C502.741 96.8814 513.321 89.3344 524.635 83.4763C528.663 81.3884 532.863 79.4867 537.348 78.8218C542.926 78.0105 548.61 79.2008 554.082 80.4641C561.197 82.0999 568.351 83.8952 574.903 87.1135C588.887 94.0488 594.995 106.656 588.848 121.843Z" fill="#F7D6C8"/>
<path d="M168.477 202.899C211.221 202.899 245.872 168.118 245.872 125.214C245.872 82.3103 211.221 47.5298 168.477 47.5298C125.733 47.5298 91.0817 82.3103 91.0817 125.214C91.0817 168.118 125.733 202.899 168.477 202.899Z" fill="#C3705A"/>
<path d="M237.876 274.725C237.876 274.725 166.993 292.951 165.238 294.673C163.482 296.395 105.57 299.447 122.429 263.86C128.623 250.794 131.2 233.047 131.982 215.818C132.015 215.087 132.048 214.362 132.075 213.637C133.141 184.759 129.352 157.962 129.352 157.962C129.352 157.962 211.497 125.38 205.449 174.892C203.938 187.206 205.19 199.581 207.933 211.217C208.847 215.1 209.92 218.897 211.113 222.581C220.705 252.264 237.876 274.725 237.876 274.725Z" fill="#ECB4B6"/>
<path opacity="0.1" d="M207.926 211.23C197.031 219.338 183.93 223.914 170.374 224.347C156.818 224.779 143.454 221.048 132.068 213.651C133.135 184.772 129.345 157.975 129.345 157.975C129.345 157.975 211.49 125.394 205.442 174.905C203.938 187.226 205.19 199.6 207.926 211.23Z" fill="black"/>
<path d="M168.258 223.073C205.032 223.073 234.842 193.151 234.842 156.24C234.842 119.329 205.032 89.4072 168.258 89.4072C131.485 89.4072 101.674 119.329 101.674 156.24C101.674 193.151 131.485 223.073 168.258 223.073Z" fill="#ECB4B6"/>
<path opacity="0.1" d="M237.876 274.725C237.876 274.725 166.993 292.951 165.238 294.673C163.482 296.395 105.57 299.447 122.429 263.86C128.623 250.794 131.2 233.047 131.982 215.818C132.644 224.822 137.772 246.625 138.428 253.879C138.469 254.303 138.554 254.722 138.679 255.129C139.64 258.354 143.065 262.071 147.192 265.595L147.437 265.802C152.571 270.124 158.941 272.695 165.627 273.143C172.312 273.591 178.967 271.894 184.628 268.295C190.52 264.569 196.175 260.479 201.56 256.047C209.271 249.657 211.676 241.046 211.974 233.439C212.097 229.788 211.809 226.134 211.113 222.548C220.705 252.264 237.876 274.725 237.876 274.725Z" fill="black"/>
<path d="M327.381 325.074H38.0981C38.0981 325.074 44.153 295.564 45.0142 289.487C45.4845 286.162 50.9763 274.193 59.8731 263.8C67.2795 255.156 77.0508 247.543 88.253 246.951C109.22 245.847 131.922 216.138 131.922 216.138C132.426 224.782 137.739 247.356 138.408 254.764C138.45 255.188 138.534 255.607 138.66 256.014C139.62 259.239 143.045 262.956 147.172 266.48L147.417 266.686C152.55 271.01 158.92 273.583 165.606 274.033C172.292 274.482 178.947 272.785 184.608 269.186C190.499 265.459 196.154 261.368 201.54 256.938C209.251 250.548 211.656 241.937 211.954 234.33C212.106 229.283 211.496 224.241 210.146 219.376C209.768 217.993 209.483 217.182 209.443 217.108L210.364 217.501C210.364 217.501 249.536 246.093 285.421 257.783C289.627 259.157 293.595 261.176 297.186 263.767C300.095 265.878 302.773 268.292 305.176 270.968C310.033 276.482 314.051 282.687 317.1 289.38C325.42 307.081 327.381 325.074 327.381 325.074Z" fill="#861DFC"/>
<path opacity="0.05" d="M327.381 325.074H38.0981C38.0981 325.074 44.153 295.564 45.0142 289.487C45.4845 286.162 50.9763 274.193 59.8731 263.8C67.2795 255.156 77.0508 247.543 88.253 246.951C109.22 245.847 131.922 216.138 131.922 216.138C132.426 224.782 137.739 247.356 138.408 254.764C138.45 255.188 138.534 255.607 138.66 256.014C139.62 259.239 143.045 262.956 147.172 266.48L147.417 266.686C152.55 271.01 158.92 273.583 165.606 274.033C172.292 274.482 178.947 272.785 184.608 269.186C190.499 265.459 196.154 261.368 201.54 256.938C209.251 250.548 211.656 241.937 211.954 234.33C212.106 229.283 211.496 224.241 210.146 219.376C209.768 217.993 209.483 217.182 209.443 217.108L210.364 217.501C210.364 217.501 249.536 246.093 285.421 257.783C289.627 259.157 293.595 261.176 297.186 263.767C300.095 265.878 302.773 268.292 305.176 270.968C310.033 276.482 314.051 282.687 317.1 289.38C325.42 307.081 327.381 325.074 327.381 325.074Z" fill="#861DFC"/>
<path opacity="0.1" d="M200.268 133.799C201.991 140.448 204.243 147.835 210.159 151.3C210.952 151.681 211.682 152.181 212.325 152.782C213.783 154.372 213.339 156.852 213.12 159.006C212.365 166.4 215.531 173.894 220.725 179.194C225.919 184.493 232.948 187.732 240.201 189.221C241.977 189.587 243.971 189.819 245.501 188.815C246.535 188.027 247.296 186.931 247.674 185.684C249.695 180.291 248.84 174.233 247.151 168.728C245.461 163.222 242.971 157.969 241.692 152.35C238.651 139.018 242.679 125.241 244.494 111.683C245.097 107.174 245.448 102.527 244.289 98.1313C242.613 91.7613 237.989 86.6545 233.524 81.8205C231.119 79.2206 228.661 76.5741 225.574 74.8719C216.472 69.8782 204.753 74.3133 195.035 70.6761C191.146 69.2199 187.841 66.5602 184.137 64.6917C176.274 60.7021 166.953 60.4826 158.335 62.2979C149.716 64.1132 141.641 67.8435 133.645 71.5405L127.53 74.32C118.918 78.3096 109.69 82.8179 105.053 91.1628C100.118 100.046 101.489 111.417 96.5536 120.3C95.0564 122.96 92.9697 125.513 92.5788 128.572C92.3138 130.78 92.9895 132.987 93.6189 135.122C95.1558 140.315 96.4939 145.654 96.3747 151.08C96.2555 156.506 94.5331 162.065 90.704 165.882C89.0876 167.491 86.928 169.552 87.9217 171.607C88.2477 172.181 88.7011 172.673 89.2466 173.043C92.3913 175.44 96.088 177.002 99.9941 177.583C103.9 178.164 107.889 177.746 111.591 176.368C114.493 175.257 117.236 173.475 118.878 170.849C119.971 168.925 120.762 166.844 121.224 164.678C123.317 156.852 125.424 148.893 125.258 140.787C125.165 136.132 124.317 131.438 124.993 126.823C125.669 122.209 128.352 117.454 132.823 116.184C136.136 115.234 139.68 116.384 143.138 116.351C148.119 116.311 154.227 110.765 158.845 112.394C162.819 113.804 165.966 121.437 169.252 124.363C177.586 131.83 189.219 135.734 200.268 133.799Z" fill="black"/>
<path d="M200.268 132.928C201.991 139.577 204.243 146.964 210.159 150.429C210.94 150.802 211.661 151.291 212.299 151.878C213.756 153.467 213.312 155.948 213.094 158.102C212.338 165.496 215.505 172.99 220.699 178.289C225.892 183.589 232.921 186.827 240.175 188.317C241.95 188.682 243.944 188.915 245.475 187.911C246.509 187.122 247.269 186.026 247.647 184.779C249.668 179.387 248.813 173.329 247.124 167.823C245.435 162.318 242.944 157.065 241.665 151.446C238.625 138.114 242.653 124.337 244.468 110.778C245.07 106.27 245.422 101.622 244.262 97.2271C242.586 90.857 237.962 85.7503 233.497 80.9162C231.093 78.3163 228.635 75.6698 225.548 73.9676C216.446 68.9739 204.727 73.409 195.008 69.7718C191.12 68.3156 187.814 65.6559 184.111 63.7874C176.248 59.7978 166.927 59.5783 158.308 61.3936C149.689 63.2089 141.614 66.9392 133.618 70.6362L127.583 73.429C118.971 77.4186 109.743 81.9269 105.106 90.2718C100.171 99.1554 101.542 110.526 96.6066 119.409C95.1094 122.069 93.0226 124.622 92.6318 127.681C92.3668 129.889 93.0425 132.096 93.6719 134.231C95.2088 139.424 96.5469 144.763 96.4277 150.189C96.3084 155.615 94.5861 161.174 90.757 164.991C89.1406 166.6 86.981 168.661 87.9747 170.716C88.3007 171.29 88.754 171.782 89.2996 172.152C92.4443 174.549 96.141 176.111 100.047 176.692C103.953 177.273 107.942 176.855 111.644 175.477C114.546 174.366 117.289 172.584 118.931 169.958C120.024 168.034 120.815 165.953 121.277 163.787C123.37 155.961 125.477 148.002 125.311 139.896C125.218 135.241 124.37 130.547 125.046 125.932C125.722 121.318 128.405 116.563 132.876 115.293C136.189 114.343 139.733 115.493 143.191 115.46C148.172 115.42 154.28 109.874 158.898 111.503C162.872 112.913 166.019 120.546 169.305 123.472C177.586 130.966 189.218 134.869 200.268 132.928Z" fill="#C3705A"/>
<path d="M422.073 161.313H270.304V291.947H422.073V161.313Z" fill="#463A3E"/>
<path opacity="0.05" d="M422.073 161.313H270.304V291.947H422.073V161.313Z" fill="black"/>
<path d="M400.311 349.238H270.469C272.145 339.75 277.048 329.35 286.6 318.139C294.143 309.326 300.312 299.417 304.897 288.749C306.13 285.899 307.234 283.042 308.21 280.178C311.079 271.675 313.031 262.887 314.033 253.966C314.033 253.713 314.092 253.461 314.119 253.208C314.788 247.044 315.058 240.842 314.927 234.643C314.927 234.198 314.927 233.765 314.927 233.313C314.463 218.101 311.956 203.022 307.474 188.483L307.309 187.965C305.898 183.503 304.864 180.996 304.864 180.996C304.864 180.996 307.441 179.593 311.694 177.525L312.052 177.352C327.693 169.812 364.717 154.079 381.041 165.29L381.306 165.47C387.016 169.552 390.09 177.046 388.646 189.527C388.646 189.574 388.646 189.627 388.646 189.673C388.646 189.906 388.593 190.132 388.573 190.338C387.698 198.941 387.285 207.584 387.334 216.231C387.334 216.663 387.334 217.095 387.334 217.561C387.334 219.587 387.356 221.639 387.4 223.718C387.4 223.997 387.4 224.277 387.4 224.556C387.533 231.272 387.831 238.207 388.248 245.242C388.824 254.997 389.646 264.931 390.593 274.679C390.997 278.848 391.435 282.991 391.918 287.067C391.971 287.545 392.024 288.037 392.077 288.51C392.634 293.477 393.21 298.344 393.799 303.065L393.839 303.371C396.092 322.122 398.582 338.493 400.311 349.238Z" fill="#C17174"/>
<path opacity="0.1" d="M388.593 189.553C388.593 189.6 388.593 189.653 388.593 189.7C387.659 198.534 387.217 207.414 387.268 216.297C387.268 216.729 387.268 217.162 387.268 217.627C378.549 227.784 366.849 234.908 353.847 237.975C340.844 241.043 327.207 239.897 314.894 234.703C314.894 234.257 314.894 233.825 314.894 233.373C314.427 217.979 311.864 202.721 307.276 188.024C305.865 183.562 304.831 181.056 304.831 181.056C304.831 181.056 307.408 179.653 311.661 177.585C327.149 170.071 364.943 153.846 381.253 165.496C386.956 169.579 390.03 177.073 388.593 189.553Z" fill="black"/>
<path d="M339.412 238.306C374.286 238.306 402.557 209.929 402.557 174.925C402.557 139.92 374.286 111.543 339.412 111.543C304.537 111.543 276.266 139.92 276.266 174.925C276.266 209.929 304.537 238.306 339.412 238.306Z" fill="#C17174"/>
<path opacity="0.1" d="M342.757 348.806H208.046C208.046 348.806 214.101 319.296 214.962 313.218C215.432 309.894 220.924 297.925 229.821 287.532C241.248 278.382 255.401 273.341 270.019 273.216C295.782 272.83 303.281 281.734 305.315 288.316C306.025 290.524 306.207 292.868 305.845 295.159L310.72 302.247L342.757 348.806Z" fill="black"/>
<path d="M342.326 349.238H207.615C207.615 349.238 213.67 319.728 214.531 313.65C215.001 310.326 220.493 298.357 229.39 287.964C240.817 278.814 254.971 273.774 269.588 273.648C295.351 273.262 302.85 282.166 304.884 288.749C305.595 290.956 305.776 293.3 305.414 295.591L310.29 302.679L342.326 349.238Z" fill="#FDC34A"/>
<path opacity="0.1" d="M489.379 348.806H348.236C354.966 334.43 372.607 296.103 373.588 287.239C373.965 283.808 377.609 280.59 382.432 277.857C383.955 276.982 385.523 276.187 387.129 275.477L387.42 275.344C388.303 274.953 389.198 274.592 390.103 274.26C402.312 269.774 415.727 269.88 427.863 274.559C439.45 278.981 454.362 284.939 465.968 290.517L466.061 290.564C469.042 292 471.817 293.403 474.262 294.753C479.151 297.446 482.722 299.906 484.093 301.874C484.722 302.779 485.418 306.855 486.18 313.178C487.193 321.729 488.299 334.416 489.379 348.806Z" fill="black"/>
<path d="M489.81 349.238H348.666C355.397 334.862 373.038 296.535 374.018 287.672C374.396 284.241 378.04 281.022 382.862 278.29C384.385 277.414 385.953 276.62 387.559 275.909L387.851 275.776C388.734 275.386 389.628 275.025 390.534 274.692C402.742 270.206 416.157 270.313 428.294 274.991C439.88 279.413 454.792 285.371 466.399 290.95L466.491 290.997C469.472 292.433 472.248 293.836 474.693 295.186C479.581 297.879 483.152 300.339 484.523 302.307C485.153 303.211 485.848 307.287 486.61 313.611C487.63 322.162 488.73 334.856 489.81 349.238Z" fill="#FDC34A"/>
<path opacity="0.1" d="M467.094 279.719C467.094 281.762 467.039 283.808 466.928 285.856C466.867 286.854 466.792 287.851 466.703 288.848C466.644 289.567 466.571 290.278 466.498 290.99L466.405 291.814C465.325 301.482 463.331 311.097 463.093 320.812C463.093 321.271 463.093 321.73 463.093 322.188C463.046 331.311 464.517 340.295 466.511 349.238H385.227C385.095 347.582 385.029 345.913 385.048 344.271C385.048 342.788 385.141 341.305 385.293 339.816C386.546 327.574 392.779 316.117 393.72 303.956L393.76 303.397C393.819 302.486 393.852 301.569 393.839 300.651C393.839 300.571 393.839 300.491 393.839 300.405C393.736 296.384 393.12 292.393 392.004 288.529C391.951 288.336 391.898 288.144 391.845 287.951C390.709 284.119 389.383 280.346 387.87 276.647L387.579 275.909C385.373 270.376 383.054 264.891 381.484 259.392C380.236 255.297 379.591 251.04 379.57 246.758C379.57 245.993 379.616 245.229 379.676 244.464C379.729 243.839 379.802 243.214 379.894 242.582C380.039 241.595 380.234 240.617 380.477 239.65C381.802 234.41 384.631 229.496 387.341 224.629C390.355 219.21 393.23 213.85 393.746 208.152C393.812 207.431 393.836 206.707 393.819 205.984C393.799 205.052 393.71 204.123 393.554 203.205C392.859 199.162 390.785 195.525 389.083 191.794C388.911 191.415 388.738 191.036 388.573 190.651C388.573 190.591 388.52 190.531 388.5 190.471C385.188 182.791 383.266 174.599 381.246 166.447C381.16 166.095 381.074 165.742 380.981 165.396C380.484 163.402 379.974 161.407 379.431 159.412C376.463 148.534 372.236 137.542 364.194 129.689C356.152 121.836 343.327 117.86 333.257 122.86C324.546 127.216 319.829 136.964 317.703 146.486C315.576 156.007 315.404 165.948 312.641 175.311C312.443 175.993 312.222 176.674 311.979 177.352C311.86 177.698 311.741 178.017 311.621 178.396C310.436 181.787 308.971 185.145 307.395 188.483L307.229 188.835C302.195 199.587 296.345 210.153 296.159 220.958V221.098C296.159 221.391 296.159 221.677 296.159 221.969C296.194 224.537 296.582 227.088 297.312 229.549C298.637 233.978 301.035 237.841 303.831 241.518C304.383 242.241 304.948 242.957 305.527 243.666C308.309 247.097 311.33 250.422 313.973 253.959L314.059 254.072C316.069 256.685 317.766 259.526 319.114 262.537C320.712 266.308 321.547 270.361 321.569 274.459C321.592 278.557 320.802 282.619 319.246 286.408C318.496 288.159 317.635 289.86 316.669 291.502C314.967 294.454 313.092 297.326 311.615 300.398C311.118 301.429 310.674 302.48 310.29 303.544C306.977 312.108 306.262 321.583 303.559 330.42C301.466 337.205 298.208 343.571 293.934 349.231H207.814C208.814 344.317 213.776 319.974 214.558 314.508C215.028 311.184 220.52 299.215 229.417 288.822C228.668 289.414 227.946 290.012 227.25 290.611C221.64 295.41 216.778 301.027 212.829 307.274C213.021 306.675 213.219 306.07 213.418 305.472C214.63 301.841 215.942 298.244 217.274 294.693C221.129 284.466 225.422 274.034 233.107 266.281C237.446 261.905 242.725 258.534 246.859 253.966C254.146 245.927 257.16 234.789 257.074 223.871C257.074 222.74 257.028 221.617 256.955 220.493C256.167 208.524 252.093 197.067 247.681 185.916C245.309 179.932 242.792 173.642 242.904 167.298C242.911 166.408 242.976 165.52 243.096 164.638C244.918 151.493 258.167 143.62 266.124 133.014C277.955 117.235 278.816 93.7827 294.338 81.6675C306.262 72.3584 322.824 72.9303 337.881 73.941C351.886 74.8852 364.525 76.7138 378.424 78.6687C392.322 80.6236 406.426 84.2941 417.575 92.8917C424.776 98.4372 430.394 105.785 435.382 113.398C442.06 123.598 447.896 134.862 448.698 147.037C448.757 147.909 448.79 148.773 448.79 149.631C448.929 163.86 442.775 177.651 441.96 191.941C441.927 192.606 441.901 193.271 441.894 193.935C441.89 193.971 441.89 194.006 441.894 194.042C441.748 206.43 446.485 219.436 452.931 229.948C462.088 244.93 466.987 262.142 467.094 279.719Z" fill="black"/>
<path d="M467.094 279.719C467.094 281.475 467.028 283.237 466.929 284.985C466.867 285.983 466.792 286.98 466.703 287.978C466.615 288.975 466.516 289.964 466.405 290.943C465.325 300.611 463.331 310.226 463.093 319.941C463.093 320.686 463.093 321.437 463.093 322.182C463.139 331.298 464.676 340.288 466.703 349.232H385.3C385.148 347.576 385.055 345.907 385.042 344.264C385.024 342.488 385.106 340.712 385.287 338.945C386.539 326.703 392.773 315.247 393.713 303.085C393.78 302.194 393.826 301.303 393.833 300.425C393.833 300.219 393.833 300.006 393.833 299.8C393.748 295.496 393.082 291.224 391.852 287.1C390.716 283.268 389.389 279.495 387.877 275.796C385.585 270.018 383.127 264.279 381.484 258.508C380.327 254.681 379.683 250.716 379.57 246.718C379.551 245.662 379.587 244.606 379.676 243.553C379.729 242.928 379.802 242.303 379.894 241.671C380.039 240.685 380.234 239.706 380.477 238.739C381.802 233.499 384.631 228.585 387.341 223.718C390.361 218.292 393.25 212.92 393.76 207.214C393.8 206.782 393.819 206.343 393.833 205.885C393.864 204.662 393.775 203.439 393.568 202.234C392.872 198.191 390.799 194.554 389.096 190.824C388.924 190.445 388.752 190.066 388.586 189.68C385.227 181.953 383.286 173.722 381.259 165.476C380.676 163.122 380.08 160.769 379.451 158.435C376.483 147.556 372.256 136.565 364.214 128.712C356.172 120.859 343.366 116.963 333.304 121.99C324.592 126.345 319.876 136.093 317.749 145.615C315.623 155.137 315.45 165.077 312.688 174.44C312.383 175.47 312.025 176.501 311.688 177.525C310.455 181.029 308.918 184.507 307.302 187.965C302.128 198.996 296.106 209.848 296.232 220.959V221.098C296.267 223.666 296.655 226.217 297.385 228.679C298.71 233.107 301.108 236.97 303.904 240.647C304.456 241.37 305.021 242.086 305.6 242.795C308.415 246.266 311.469 249.624 314.132 253.201C316.142 255.814 317.838 258.655 319.187 261.666C320.785 265.437 321.619 269.49 321.642 273.588C321.665 277.687 320.875 281.748 319.319 285.537C318.569 287.288 317.708 288.99 316.742 290.631C315.04 293.583 313.165 296.456 311.688 299.528C311.191 300.558 310.747 301.609 310.363 302.673C307.05 311.237 306.335 320.712 303.632 329.549C301.428 336.683 297.941 343.352 293.344 349.225H207.615C207.615 349.225 213.67 319.715 214.531 313.637C214.962 310.599 219.606 300.339 227.224 290.611C227.886 289.72 228.642 288.829 229.39 287.951C223.161 292.893 217.761 298.806 213.398 305.465L212.809 306.396C214.187 302.147 215.704 297.952 217.26 293.816C221.116 283.589 225.409 273.156 233.093 265.403C237.432 261.028 242.712 257.656 246.846 253.088C253.921 245.262 256.982 234.47 257.061 223.831C257.061 222.408 257.061 220.992 256.942 219.582C256.154 207.613 252.079 196.157 247.667 185.006C245.408 179.274 243.03 173.303 242.891 167.225C242.86 166.054 242.925 164.882 243.083 163.721C244.912 150.648 258.161 142.809 266.117 132.17C277.948 116.391 278.81 92.9385 294.331 80.8233C306.255 71.5142 322.817 72.086 337.875 73.0968C351.879 74.041 364.519 75.8695 378.417 77.8244C392.316 79.7794 406.439 83.4432 417.575 92.0142C424.776 97.593 430.394 104.907 435.382 112.527C442.06 122.728 447.896 133.992 448.698 146.167C448.777 147.324 448.808 148.478 448.79 149.631C448.678 163.548 442.755 177.073 441.96 191.076C441.907 192.021 441.881 192.958 441.894 193.909C441.89 193.944 441.89 193.98 441.894 194.015C441.974 206.144 446.637 218.791 452.931 229.038C462.249 244.284 467.153 261.833 467.094 279.719Z" fill="#463A3E"/>
</g>
<defs>
<linearGradient id="paint0_linear" x1="367.679" y1="351.652" x2="367.679" y2="45.1159" gradientUnits="userSpaceOnUse">
<stop stop-color="#808080" stop-opacity="0.25"/>
<stop offset="0.54" stop-color="#808080" stop-opacity="0.12"/>
<stop offset="1" stop-color="#808080" stop-opacity="0.1"/>
</linearGradient>
<clipPath id="clip0">
<rect width="736" height="392" fill="white"/>
</clipPath>
</defs>
</svg>
