<svg width="822" height="588" viewBox="0 0 822 588" fill="none" xmlns="http://www.w3.org/2000/svg">
<g clip-path="url(#clip0)">
<path opacity="0.1" d="M397.742 571.592C617.409 571.592 795.484 562.688 795.484 551.705C795.484 540.722 617.409 531.819 397.742 531.819C178.075 531.819 0 540.722 0 551.705C0 562.688 178.075 571.592 397.742 571.592Z" fill="#400186"/>
<g opacity="0.2">
<path opacity="0.2" d="M714.305 488.139C713.972 488.77 713.583 489.37 713.143 489.932C709.286 487.208 705.35 484.546 701.336 481.946C701.414 481.775 701.5 481.603 701.593 481.432C702.518 479.639 703.905 478.126 705.61 477.049C707.817 475.692 710.289 475.388 712.356 476.472C714.422 477.556 715.553 479.794 715.67 482.368C715.739 484.379 715.268 486.372 714.305 488.139Z" fill="#3F3D56"/>
<path opacity="0.2" d="M719.72 478.016C722.153 473.422 721.281 468.191 717.772 466.332C714.263 464.473 709.445 466.691 707.012 471.284C704.578 475.878 705.45 481.109 708.96 482.968C712.469 484.827 717.287 482.61 719.72 478.016Z" fill="#3F3D56"/>
<path opacity="0.2" d="M725.111 467.838C727.544 463.245 726.672 458.014 723.163 456.155C719.653 454.296 714.836 456.513 712.402 461.107C709.969 465.701 710.841 470.932 714.35 472.791C717.86 474.65 722.677 472.432 725.111 467.838Z" fill="#3F3D56"/>
<path opacity="0.2" d="M730.495 457.676C732.929 453.082 732.057 447.851 728.547 445.992C725.038 444.133 720.221 446.351 717.787 450.945C715.354 455.539 716.226 460.77 719.735 462.628C723.244 464.487 728.062 462.27 730.495 457.676Z" fill="#3F3D56"/>
<path opacity="0.2" d="M735.886 447.499C738.319 442.905 737.447 437.674 733.938 435.815C730.429 433.956 725.611 436.173 723.178 440.767C720.744 445.361 721.616 450.592 725.126 452.451C728.635 454.31 733.453 452.093 735.886 447.499Z" fill="#3F3D56"/>
<path opacity="0.2" d="M742.56 361.848C742.281 360.283 742.106 358.702 742.038 357.114L760.202 363.213L742.061 353.784C742.323 349.096 743.54 344.51 745.638 340.309C747.735 336.107 750.669 332.378 754.259 329.351L771.837 354.759L758.189 326.489C762.2 323.987 766.682 322.336 771.357 321.641C776.033 320.945 780.801 321.219 785.366 322.445C789.932 323.671 794.196 325.823 797.893 328.768C801.591 331.712 804.643 335.386 806.86 339.561C809.077 343.735 810.411 348.322 810.78 353.034C811.148 357.746 810.543 362.484 809.002 366.953C807.461 371.421 805.017 375.525 801.822 379.008C798.627 382.492 794.749 385.281 790.43 387.201C790.876 389.639 791.054 392.118 790.96 394.594L763.313 394.376L790.547 398.86C789.94 402.571 788.734 406.158 786.975 409.482C783.381 416.318 777.586 421.742 770.527 424.876C771.684 431.24 771.026 437.801 768.629 443.809C766.232 449.816 762.193 455.028 756.973 458.848C751.754 462.668 745.564 464.942 739.113 465.41C732.662 465.878 726.209 464.521 720.493 461.495C714.776 458.468 710.027 453.894 706.788 448.295C703.549 442.696 701.951 436.299 702.177 429.835C702.403 423.371 704.444 417.101 708.065 411.742C711.687 406.383 716.744 402.151 722.658 399.531C721.27 391.928 722.478 384.079 726.088 377.245C729.697 370.411 735.499 364.989 742.56 361.848Z" fill="#400186"/>
<path opacity="0.1" d="M786.975 409.505C783.377 416.333 777.582 421.748 770.527 424.876C771.684 431.24 771.026 437.801 768.629 443.809C766.232 449.816 762.193 455.028 756.973 458.848C751.754 462.668 745.564 464.942 739.113 465.41C732.662 465.878 726.209 464.521 720.493 461.495C714.776 458.468 710.027 453.894 706.788 448.295C703.549 442.696 701.951 436.299 702.177 429.835C702.403 423.371 704.444 417.101 708.065 411.742C711.687 406.383 716.744 402.151 722.658 399.531C721.285 392.185 788.784 406.082 786.975 409.505Z" fill="black"/>
</g>
<g opacity="0.2">
<path opacity="0.2" d="M692.711 284.883C692.298 285.964 691.795 287.007 691.206 288.003C684.447 284.395 677.589 280.885 670.633 277.475C670.734 277.186 670.836 276.89 670.945 276.594C672.081 273.545 674.008 270.853 676.529 268.795C679.804 266.175 683.743 265.184 687.252 266.518C690.762 267.851 693.047 271.197 693.756 275.33C694.263 278.551 693.903 281.849 692.711 284.883Z" fill="#3F3D56"/>
<path opacity="0.2" d="M700.996 272.309C704.027 264.478 701.636 256.253 695.656 253.938C689.675 251.623 682.37 256.095 679.338 263.925C676.307 271.756 678.698 279.981 684.678 282.296C690.659 284.611 697.964 280.14 700.996 272.309Z" fill="#3F3D56"/>
<path opacity="0.2" d="M705.993 250.079C708.988 242.21 706.545 233.976 700.535 231.688C694.525 229.401 687.225 233.925 684.229 241.795C681.233 249.664 683.677 257.898 689.687 260.186C695.697 262.474 702.997 257.949 705.993 250.079Z" fill="#3F3D56"/>
<path opacity="0.2" d="M712.62 232.667C715.615 224.797 713.172 216.563 707.162 214.276C701.152 211.988 693.852 216.513 690.856 224.382C687.86 232.252 690.304 240.486 696.314 242.773C702.324 245.061 709.624 240.536 712.62 232.667Z" fill="#3F3D56"/>
<path opacity="0.2" d="M719.251 215.246C722.246 207.377 719.803 199.143 713.793 196.855C707.783 194.567 700.482 199.092 697.487 206.961C694.491 214.831 696.935 223.065 702.944 225.353C708.954 227.64 716.255 223.115 719.251 215.246Z" fill="#3F3D56"/>
<path opacity="0.2" d="M712.957 76.4187C712.188 73.9597 711.592 71.4503 711.171 68.9086L741.587 75.1007L710.57 63.5588C710.052 55.9668 711.091 48.349 713.623 41.173C716.155 33.9969 720.127 27.414 725.295 21.8284L758.596 59.1525L731.035 16.4551C736.983 11.6505 743.856 8.11995 751.226 6.0828C758.596 4.04565 766.306 3.54535 773.878 4.613C781.449 5.68065 788.72 8.29343 795.24 12.2891C801.759 16.2848 807.387 21.578 811.775 27.8401C816.163 34.1022 819.216 41.1995 820.746 48.6912C822.276 56.1829 822.249 63.909 820.667 71.3899C819.085 78.8707 815.982 85.9465 811.551 92.1778C807.12 98.4092 801.454 103.663 794.907 107.613C796.107 111.441 796.891 115.386 797.247 119.381L752.793 124.536L797.434 126.322C797.09 135.596 794.436 144.637 789.715 152.627C784.994 160.616 778.353 167.301 770.395 172.077C773.515 182.067 773.76 192.734 771.103 202.857C768.446 212.981 762.994 222.152 755.37 229.324C747.747 236.495 738.259 241.377 727.992 243.411C717.725 245.445 707.093 244.549 697.311 240.826C687.529 237.103 678.992 230.702 672.676 222.357C666.36 214.011 662.519 204.056 661.594 193.631C660.668 183.206 662.694 172.73 667.441 163.402C672.188 154.074 679.464 146.27 688.437 140.882C684.708 128.944 685.098 116.099 689.545 104.409C693.991 92.7185 702.236 82.8612 712.957 76.4187Z" fill="#400186"/>
<path opacity="0.1" d="M793.8 144.079C789.374 155.775 781.13 165.634 770.403 172.061C773.522 182.052 773.768 192.718 771.111 202.842C768.454 212.965 763.002 222.137 755.378 229.308C747.755 236.48 738.267 241.361 728 243.395C717.733 245.429 707.101 244.533 697.319 240.81C687.537 237.087 679 230.687 672.683 222.341C666.367 213.995 662.527 204.041 661.601 193.615C660.676 183.19 662.702 172.715 667.449 163.387C672.196 154.059 679.472 146.255 688.445 140.866C684.803 129.34 796.022 138.223 793.8 144.079Z" fill="black"/>
</g>
<g opacity="0.2">
<path opacity="0.2" d="M157.309 342.819C157.639 344.154 158.08 345.458 158.627 346.719C167.144 343.448 175.754 340.329 184.457 337.36C184.379 337.009 184.301 336.635 184.215 336.276C183.322 332.495 181.438 329.02 178.756 326.208C175.278 322.629 170.77 320.882 166.434 321.942C162.098 323.003 158.9 326.622 157.465 331.387C156.395 335.115 156.341 339.063 157.309 342.819Z" fill="#3F3D56"/>
<path opacity="0.2" d="M169.84 335.596C177.271 333.782 181.37 324.425 178.995 314.697C176.62 304.969 168.67 298.553 161.239 300.367C153.807 302.182 149.709 311.539 152.084 321.267C154.459 330.995 162.409 337.411 169.84 335.596Z" fill="#3F3D56"/>
<path opacity="0.2" d="M164.578 314.061C172.01 312.247 176.108 302.89 173.733 293.162C171.358 283.434 163.408 277.018 155.977 278.833C148.546 280.647 144.447 290.004 146.822 299.732C149.197 309.46 157.147 315.876 164.578 314.061Z" fill="#3F3D56"/>
<path opacity="0.2" d="M159.318 292.542C166.75 290.728 170.849 281.371 168.473 271.643C166.098 261.915 158.149 255.499 150.717 257.313C143.286 259.128 139.187 268.485 141.562 278.213C143.937 287.941 151.887 294.356 159.318 292.542Z" fill="#3F3D56"/>
<path opacity="0.2" d="M154.074 271.021C161.506 269.207 165.604 259.85 163.229 250.121C160.854 240.393 152.904 233.978 145.473 235.792C138.042 237.606 133.943 246.963 136.318 256.691C138.693 266.42 146.643 272.835 154.074 271.021Z" fill="#3F3D56"/>
<path opacity="0.2" d="M164.157 93.8251C165.428 91.0442 166.501 88.1777 167.37 85.2466L130.607 88.0697L168.907 79.0233C170.626 70.1484 170.517 61.0161 168.587 52.1848C166.656 43.3535 162.943 35.0089 157.676 27.6616L112.872 66.7873L151.695 20.4713C145.401 13.8704 137.815 8.63804 129.408 5.10107C121.002 1.5641 111.956 -0.201502 102.837 -0.0854487C93.7172 0.0306048 84.7196 2.02582 76.4059 5.77557C68.0922 9.52531 60.641 14.949 54.5178 21.7079C48.3946 28.4668 43.7309 36.4157 40.8181 45.058C37.9052 53.7004 36.8058 62.8505 37.5885 71.9368C38.3711 81.0231 41.0191 89.8505 45.3669 97.8674C49.7147 105.884 55.669 112.919 62.8578 118.531C60.8804 122.872 59.3769 127.414 58.3735 132.077L110.08 144.719L57.1412 140.235C56.1846 151.23 57.9849 162.29 62.3792 172.414C66.7735 182.538 73.6231 191.407 82.3082 198.217C77.1474 209.547 75.2791 222.1 76.9171 234.442C78.555 246.783 83.633 258.415 91.5705 268.006C99.5079 277.597 109.984 284.762 121.802 288.679C133.619 292.597 146.301 293.11 158.396 290.16C170.492 287.21 181.513 280.916 190.2 271.998C198.886 263.079 204.888 251.896 207.518 239.727C210.148 227.559 209.3 214.896 205.072 203.186C200.844 191.476 193.405 181.193 183.608 173.511C189.772 159.972 191.205 144.753 187.678 130.301C184.15 115.849 175.866 103.002 164.157 93.8251Z" fill="#400186"/>
<path opacity="0.1" d="M58.787 161.759C62.2949 176.221 70.5828 189.076 82.3083 198.241C77.1509 209.571 75.2862 222.125 76.9274 234.465C78.5687 246.806 83.6495 258.436 91.5891 268.025C99.5287 277.614 110.007 284.775 121.825 288.69C133.643 292.605 146.324 293.116 158.418 290.163C170.513 287.211 181.532 280.914 190.217 271.994C198.902 263.074 204.901 251.89 207.528 239.722C210.156 227.553 209.306 214.89 205.076 203.182C200.846 191.473 193.406 181.191 183.608 173.511C189.574 160.441 57.0244 154.529 58.787 161.759Z" fill="black"/>
</g>
<path d="M747.256 76.4186H96.2692C94.7296 76.4227 93.2546 77.0377 92.1682 78.1286C91.0817 79.2194 90.4726 80.6968 90.4747 82.2364V480.629C90.4695 482.168 90.7683 483.693 91.3539 485.117C91.9395 486.541 92.8004 487.835 93.8872 488.925C94.974 490.016 96.2654 490.881 97.6872 491.471C99.1091 492.062 100.633 492.366 102.173 492.366H741.375C742.915 492.366 744.439 492.062 745.861 491.471C747.283 490.881 748.574 490.016 749.661 488.925C750.748 487.835 751.609 486.541 752.195 485.117C752.78 483.693 753.079 482.168 753.074 480.629V82.2285C753.074 81.4649 752.923 80.7088 752.631 80.0034C752.338 79.298 751.91 78.6571 751.369 78.1175C750.829 77.5779 750.188 77.1501 749.482 76.8586C748.776 76.5671 748.02 76.4176 747.256 76.4186Z" fill="url(#paint0_linear)"/>
<path d="M750.421 101.148V478.281C750.421 481.358 749.199 484.308 747.025 486.484C744.85 488.66 741.9 489.884 738.824 489.886H104.816C101.739 489.884 98.7896 488.66 96.6149 486.484C94.4403 484.308 93.2187 481.358 93.2188 478.281V101.148H750.421Z" fill="white"/>
<path d="M750.421 84.3888V101.148H93.2188V84.3888C93.2177 83.6334 93.3656 82.8851 93.654 82.1869C93.9424 81.4887 94.3656 80.8541 94.8995 80.3196C95.4333 79.7851 96.0673 79.361 96.7651 79.0717C97.463 78.7823 98.211 78.6334 98.9665 78.6334H744.712C746.231 78.6437 747.684 79.2549 748.754 80.3333C749.824 81.4118 750.423 82.8698 750.421 84.3888Z" fill="#EDEDF4"/>
<path opacity="0.8" d="M103.632 92.4135C105.118 92.4135 106.323 91.2089 106.323 89.723C106.323 88.2371 105.118 87.0325 103.632 87.0325C102.146 87.0325 100.941 88.2371 100.941 89.723C100.941 91.2089 102.146 92.4135 103.632 92.4135Z" fill="#FA5959"/>
<path opacity="0.8" d="M111.025 92.4135C112.511 92.4135 113.715 91.2089 113.715 89.723C113.715 88.2371 112.511 87.0325 111.025 87.0325C109.539 87.0325 108.334 88.2371 108.334 89.723C108.334 91.2089 109.539 92.4135 111.025 92.4135Z" fill="#FED253"/>
<path opacity="0.8" d="M118.417 92.4135C119.903 92.4135 121.108 91.2089 121.108 89.723C121.108 88.2371 119.903 87.0325 118.417 87.0325C116.931 87.0325 115.727 88.2371 115.727 89.723C115.727 91.2089 116.931 92.4135 118.417 92.4135Z" fill="#8CCF4D"/>
<path d="M460.062 69.0255V66.335H456.03V69.0255H460.062Z" fill="url(#paint1_linear)"/>
<path d="M307.532 134.206H244.361V140.929H307.532V134.206Z" fill="#EDEDF4"/>
<path d="M599.171 153.687H244.361V160.41H599.171V153.687Z" fill="#EDEDF4"/>
<path d="M599.171 173.176H244.361V179.898H599.171V173.176Z" fill="#EDEDF4"/>
<path d="M599.171 192.665H244.361V199.387H599.171V192.665Z" fill="#EDEDF4"/>
<path d="M599.171 212.154H244.361V218.876H599.171V212.154Z" fill="#EDEDF4"/>
<path d="M531.187 249.322H312.117V418.661H531.187V249.322Z" fill="#EDEDF4"/>
<path d="M706.264 588C717.838 588 727.22 586.195 727.22 583.968C727.22 581.741 717.838 579.936 706.264 579.936C694.691 579.936 685.309 581.741 685.309 583.968C685.309 586.195 694.691 588 706.264 588Z" fill="#400186"/>
<path d="M705.914 585.45C707.262 585.45 708.355 584.022 708.355 582.26C708.355 580.499 707.262 579.071 705.914 579.071C704.566 579.071 703.473 580.499 703.473 582.26C703.473 584.022 704.566 585.45 705.914 585.45Z" fill="#3F3D56"/>
<path d="M705.914 581.543C707.262 581.543 708.355 580.115 708.355 578.353C708.355 576.592 707.262 575.164 705.914 575.164C704.566 575.164 703.473 576.592 703.473 578.353C703.473 580.115 704.566 581.543 705.914 581.543Z" fill="#3F3D56"/>
<path d="M705.914 577.644C707.262 577.644 708.355 576.215 708.355 574.454C708.355 572.692 707.262 571.264 705.914 571.264C704.566 571.264 703.473 572.692 703.473 574.454C703.473 576.215 704.566 577.644 705.914 577.644Z" fill="#3F3D56"/>
<path d="M705.914 573.736C707.262 573.736 708.355 572.308 708.355 570.547C708.355 568.785 707.262 567.357 705.914 567.357C704.566 567.357 703.473 568.785 703.473 570.547C703.473 572.308 704.566 573.736 705.914 573.736Z" fill="#3F3D56"/>
<path d="M705.914 569.837C707.262 569.837 708.355 568.409 708.355 566.647C708.355 564.886 707.262 563.458 705.914 563.458C704.566 563.458 703.473 564.886 703.473 566.647C703.473 568.409 704.566 569.837 705.914 569.837Z" fill="#3F3D56"/>
<path d="M705.914 565.938C707.262 565.938 708.355 564.51 708.355 562.748C708.355 560.987 707.262 559.559 705.914 559.559C704.566 559.559 703.473 560.987 703.473 562.748C703.473 564.51 704.566 565.938 705.914 565.938Z" fill="#3F3D56"/>
<path d="M705.914 562.031C707.262 562.031 708.355 560.603 708.355 558.841C708.355 557.079 707.262 555.651 705.914 555.651C704.566 555.651 703.473 557.079 703.473 558.841C703.473 560.603 704.566 562.031 705.914 562.031Z" fill="#3F3D56"/>
<path d="M715.046 532.131C715.38 531.709 715.682 531.263 715.951 530.797L709.548 529.744L716.473 529.791C717.142 528.346 717.507 526.778 717.546 525.186C717.585 523.594 717.297 522.011 716.7 520.534L707.396 525.361L715.974 519.052C715.184 517.637 714.108 516.401 712.814 515.424C711.521 514.446 710.038 513.748 708.461 513.374C706.883 513 705.245 512.958 703.65 513.25C702.056 513.543 700.539 514.163 699.197 515.073C697.855 515.983 696.717 517.162 695.854 518.534C694.992 519.907 694.424 521.445 694.188 523.049C693.951 524.652 694.05 526.288 694.479 527.851C694.909 529.415 695.658 530.872 696.68 532.131C696.158 532.789 695.711 533.503 695.346 534.26L703.668 538.588L694.793 535.609C694.171 537.451 694.018 539.418 694.347 541.334C694.677 543.25 695.478 545.053 696.68 546.582C695.319 548.306 694.471 550.379 694.233 552.563C693.996 554.747 694.378 556.954 695.336 558.931C696.295 560.908 697.79 562.575 699.652 563.741C701.514 564.908 703.666 565.526 705.863 565.526C708.06 565.526 710.213 564.908 712.074 563.741C713.936 562.575 715.432 560.908 716.39 558.931C717.348 556.954 717.73 554.747 717.493 552.563C717.255 550.379 716.407 548.306 715.046 546.582C716.665 544.521 717.545 541.976 717.545 539.356C717.545 536.736 716.665 534.191 715.046 532.131Z" fill="#400186"/>
<path opacity="0.1" d="M694.176 539.352C694.171 541.975 695.054 544.523 696.679 546.582C695.318 548.306 694.47 550.379 694.233 552.563C693.995 554.747 694.377 556.954 695.336 558.931C696.294 560.908 697.789 562.575 699.651 563.741C701.513 564.908 703.665 565.526 705.862 565.526C708.059 565.526 710.212 564.908 712.074 563.741C713.935 562.575 715.431 560.908 716.389 558.931C717.348 556.954 717.73 554.747 717.492 552.563C717.254 550.379 716.407 548.306 715.046 546.582C716.613 544.593 694.176 538.042 694.176 539.352Z" fill="black"/>
<path d="M60.0362 533.722C65.2737 533.722 69.5196 532.905 69.5196 531.897C69.5196 530.889 65.2737 530.072 60.0362 530.072C54.7986 530.072 50.5527 530.889 50.5527 531.897C50.5527 532.905 54.7986 533.722 60.0362 533.722Z" fill="#400186"/>
<path d="M59.8711 532.567C60.4827 532.567 60.9786 531.921 60.9786 531.125C60.9786 530.328 60.4827 529.682 59.8711 529.682C59.2595 529.682 58.7637 530.328 58.7637 531.125C58.7637 531.921 59.2595 532.567 59.8711 532.567Z" fill="#3F3D56"/>
<path d="M59.8711 530.797C60.4827 530.797 60.9786 530.151 60.9786 529.355C60.9786 528.558 60.4827 527.912 59.8711 527.912C59.2595 527.912 58.7637 528.558 58.7637 529.355C58.7637 530.151 59.2595 530.797 59.8711 530.797Z" fill="#3F3D56"/>
<path d="M59.8711 529.035C60.4827 529.035 60.9786 528.389 60.9786 527.592C60.9786 526.795 60.4827 526.149 59.8711 526.149C59.2595 526.149 58.7637 526.795 58.7637 527.592C58.7637 528.389 59.2595 529.035 59.8711 529.035Z" fill="#3F3D56"/>
<path d="M59.8711 527.264C60.4827 527.264 60.9786 526.618 60.9786 525.822C60.9786 525.025 60.4827 524.379 59.8711 524.379C59.2595 524.379 58.7637 525.025 58.7637 525.822C58.7637 526.618 59.2595 527.264 59.8711 527.264Z" fill="#3F3D56"/>
<path d="M59.8711 525.502C60.4827 525.502 60.9786 524.856 60.9786 524.059C60.9786 523.262 60.4827 522.617 59.8711 522.617C59.2595 522.617 58.7637 523.262 58.7637 524.059C58.7637 524.856 59.2595 525.502 59.8711 525.502Z" fill="#3F3D56"/>
<path d="M59.8711 523.732C60.4827 523.732 60.9786 523.086 60.9786 522.289C60.9786 521.492 60.4827 520.846 59.8711 520.846C59.2595 520.846 58.7637 521.492 58.7637 522.289C58.7637 523.086 59.2595 523.732 59.8711 523.732Z" fill="#3F3D56"/>
<path d="M59.8711 521.961C60.4827 521.961 60.9786 521.316 60.9786 520.519C60.9786 519.722 60.4827 519.076 59.8711 519.076C59.2595 519.076 58.7637 519.722 58.7637 520.519C58.7637 521.316 59.2595 521.961 59.8711 521.961Z" fill="#3F3D56"/>
<path d="M64.005 508.462C64.1586 508.273 64.2968 508.072 64.4183 507.861L61.5171 507.378H64.6367C64.9371 506.723 65.101 506.014 65.1184 505.294C65.1359 504.574 65.0064 503.858 64.7381 503.19L60.5267 505.374L64.4261 502.519C64.0609 501.894 63.5711 501.35 62.9871 500.922C62.4031 500.494 61.7374 500.19 61.0311 500.03C60.3249 499.869 59.5932 499.856 58.8815 499.99C58.1698 500.124 57.4932 500.402 56.8937 500.809C56.2941 501.215 55.7845 501.74 55.3962 502.351C55.008 502.963 54.7495 503.647 54.6368 504.363C54.5241 505.078 54.5595 505.809 54.7409 506.51C54.9223 507.211 55.2458 507.868 55.6914 508.438C55.456 508.738 55.2546 509.062 55.0909 509.406L58.8577 511.363L54.8413 510.022C54.5584 510.855 54.4879 511.746 54.6364 512.613C54.7848 513.481 55.1474 514.297 55.6914 514.989C55.0781 515.769 54.6968 516.706 54.5908 517.693C54.4848 518.679 54.6586 519.676 55.0922 520.568C55.5258 521.46 56.2017 522.213 57.0428 522.739C57.8838 523.266 58.856 523.545 59.8482 523.545C60.8404 523.545 61.8126 523.266 62.6536 522.739C63.4946 522.213 64.1706 521.46 64.6042 520.568C65.0378 519.676 65.2115 518.679 65.1056 517.693C64.9996 516.706 64.6182 515.769 64.005 514.989C64.738 514.056 65.1365 512.904 65.1365 511.718C65.1365 510.531 64.738 509.379 64.005 508.446V508.462Z" fill="#400186"/>
<path opacity="0.1" d="M54.5918 511.698C54.5889 512.886 54.9874 514.041 55.7226 514.974C55.1094 515.754 54.728 516.691 54.6221 517.677C54.5161 518.664 54.6898 519.66 55.1234 520.552C55.557 521.445 56.233 522.197 57.074 522.724C57.9151 523.25 58.8872 523.529 59.8794 523.529C60.8716 523.529 61.8438 523.25 62.6849 522.724C63.5259 522.197 64.2018 521.445 64.6354 520.552C65.069 519.66 65.2428 518.664 65.1368 517.677C65.0309 516.691 64.6495 515.754 64.0362 514.974C64.7303 514.069 54.5918 511.106 54.5918 511.698Z" fill="black"/>
<path d="M217.533 237.437H181.159C180.609 237.438 180.076 237.628 179.65 237.976C179.224 238.324 178.931 238.809 178.82 239.347L168.977 287.901C168.962 288.034 168.962 288.167 168.977 288.299L168.042 288.401L167.207 288.486C167.157 288.477 167.107 288.464 167.059 288.447C166.931 288.357 166.823 288.241 166.742 288.107C166.662 287.973 166.61 287.823 166.591 287.668C166.114 285.939 165.767 284.176 165.554 282.396C165.433 280.443 165.433 278.484 165.554 276.531C165.601 274.971 165.554 273.451 165.554 271.914C165.812 270.186 165.966 268.444 166.014 266.697C166.107 264.835 165.923 262.969 165.468 261.16C165.181 260.179 164.815 259.221 164.376 258.298C164.033 255.678 163.659 253.049 163.276 250.437C162.988 248.495 162.699 246.538 162.317 244.619C162.403 244.299 162.473 243.98 162.528 243.652C162.738 242.065 162.532 240.45 161.929 238.966C161.326 237.482 160.347 236.181 159.089 235.191C158.308 234.556 157.445 234.032 156.523 233.631C155.758 233.317 154.977 233.044 154.183 232.812L141.635 228.913C140.473 227.22 139.295 225.513 138.25 223.766C137.231 222.192 136.342 220.539 135.591 218.821C139.664 215.915 142.471 211.56 143.435 206.65C144.4 201.739 143.448 196.646 140.777 192.415C140.566 192.088 140.348 191.76 140.122 191.448C140.213 189.939 140.036 188.427 139.599 186.98C139.502 186.443 139.343 185.919 139.123 185.42C138.785 184.743 138.351 184.118 137.837 183.564C137.735 183.447 137.618 183.338 137.509 183.221C136.482 182.092 135.331 181.082 134.078 180.21C129.913 177.192 124.329 173.527 119.221 172.295C116.696 171.72 114.077 171.707 111.547 172.256L111.157 172.147L110.416 171.998C110.603 172.076 110.782 172.178 110.97 172.264C108.29 171.665 105.507 171.715 102.851 172.412C99.5442 173.394 98.39 176.015 96.994 178.877C94.7277 183.483 91.2906 187.412 87.027 190.271C84.2818 192.111 81.0297 193.702 79.7117 196.72C78.4795 199.535 79.314 202.756 79.6025 205.821C79.9528 209.979 79.2597 214.159 77.586 217.982C75.9123 221.804 73.3109 225.149 70.0177 227.712C66.2665 230.597 61.2596 233.015 60.4563 237.663C59.887 240.977 61.7587 244.143 63.1703 247.2C66.1573 253.642 67.1789 261.511 63.6694 267.695C62.679 269.45 61.3298 271.056 60.7995 272.998C59.8636 276.453 61.8523 280.212 64.8315 282.224C67.8106 284.236 71.5463 284.774 75.1494 284.759C75.7655 284.759 76.3894 284.759 77.0211 284.673C76.7091 287.691 76.3192 290.709 75.8279 293.704C75.1026 298.125 74.1745 302.563 74.4553 307.031C74.6034 309.449 75.1572 311.952 76.7247 313.816C79.1892 316.756 83.4785 317.357 87.3234 317.209C93.4065 316.975 99.3882 315.392 105.44 315.041C105.327 315.285 105.268 315.551 105.269 315.821C105.269 316.873 105.916 318.035 105.62 319.08C105.494 319.446 105.31 319.788 105.074 320.094C103.514 322.387 101.665 324.945 102.204 327.667C102.469 328.992 103.295 330.318 102.913 331.621C102.672 332.229 102.335 332.795 101.915 333.297C99.7782 336.479 100.223 340.667 100.761 344.465L101.478 344.668C101.276 345.104 101.073 345.549 100.886 345.993C100.011 347.964 99.5064 350.079 99.396 352.232C99.4557 354.649 99.8655 357.045 100.613 359.345C101.673 363.244 102.773 367.143 104.169 370.91C105.354 374.146 106.75 377.289 108.131 380.44C108.567 381.407 108.996 382.382 109.425 383.357C112.087 389.387 114.755 395.424 117.427 401.465C117.763 402.158 118.024 402.885 118.207 403.633C118.347 404.272 118.378 404.92 118.48 405.567C118.901 408.078 120.539 410.192 121.74 412.445C125.787 420.049 124.781 429.22 123.682 437.76C124.283 438.36 124.956 438.884 125.686 439.319C125.569 440.177 125.452 441.043 125.273 441.87C124.204 446.744 122.933 451.579 122.192 456.531C121.819 458.938 121.637 461.371 121.646 463.807C121.646 466.147 122.481 468.525 122.481 470.826C123.05 473.165 123.916 475.396 124.524 477.712C124.774 481.307 125.195 484.902 125.733 488.49C125.91 491.744 126.092 495.001 126.279 498.261C126.442 501.147 126.575 504.18 125.28 506.77C125.28 506.855 125.187 506.941 125.14 507.027C124.009 506.95 122.877 507.162 121.85 507.642C120.823 508.122 119.934 508.855 119.268 509.772C117.903 511.757 117.117 514.081 116.998 516.487C116.833 517.502 116.949 518.543 117.333 519.497C117.708 520.277 118.363 520.799 118.792 521.517C119.212 522.351 119.477 523.255 119.572 524.184C120.445 529.581 121.326 534.993 121.794 540.444C121.935 542.105 122.067 543.86 123.042 545.217C124.017 546.574 126.162 547.237 127.386 546.09C126.15 539.844 125.539 533.491 125.561 527.124C125.97 527.066 126.385 527.066 126.793 527.124C127.035 528.224 127.371 529.315 127.682 530.399C127.891 531.195 128.152 531.977 128.462 532.739C128.338 533.807 128.462 535.414 128.416 536.194C128.353 539.641 128.353 543.085 128.416 546.527C128.462 548.492 128.533 550.457 128.626 552.423C128.617 552.64 128.66 552.857 128.751 553.054C128.78 553.092 128.818 553.121 128.862 553.14C128.906 553.159 128.953 553.167 129.001 553.164C129.656 553.164 130.319 553.164 130.974 553.164C131.044 552.386 131.073 551.605 131.059 550.824C131.059 549.03 131.059 547.242 131.059 545.459C131.059 543.93 131.059 542.401 131.059 540.873C131.52 543.61 132.175 546.332 132.838 549.023L134.241 554.778L134.382 555.355L135.575 560.229C135.612 560.404 135.67 560.574 135.747 560.736C135.898 560.972 136.097 561.174 136.331 561.329C138.799 563.123 141.695 564.239 144.729 564.564C147.763 564.89 150.829 564.414 153.622 563.185C153.837 563.098 154.035 562.974 154.206 562.818C154.519 562.4 154.661 561.879 154.604 561.36C154.53 559.805 154.835 558.255 155.493 556.845C155.853 556.324 156.146 555.761 156.367 555.168C156.501 554.207 156.314 553.228 155.836 552.384L154.55 549.381C155.159 549.358 155.766 549.295 156.367 549.194C157.279 548.414 156.616 546.8 157.373 545.88C157.687 545.594 158.024 545.333 158.379 545.1C159.33 544.265 159.237 542.76 158.808 541.567C157.42 537.722 153.707 535.274 150.229 533.106L149.777 532.825C146.938 519.567 141.931 506.504 143.265 493.052C143.553 490.182 144.13 487.343 144.598 484.473C146.938 470.358 146.79 455.876 149.488 441.831C150.881 441.752 152.237 441.351 153.45 440.661C155.735 439.241 156.85 436.496 157.154 433.837C157.459 431.178 157.092 428.495 157.154 425.812C157.225 421.967 158.145 418.193 159.065 414.442C160.141 410.067 158.285 405.427 159.408 401.067C159.835 399.726 160.174 398.358 160.422 396.973C160.656 395.015 160.266 392.949 160.96 391.093C161.272 390.243 161.81 389.486 162.169 388.652C163.729 385.127 162.013 380.853 163.581 377.313C164.087 376.492 164.463 375.597 164.696 374.661C164.75 373.933 164.657 373.201 164.423 372.509C164.025 370.887 163.643 369.249 163.386 367.603C163.27 367.036 163.22 366.458 163.238 365.88C163.314 365.267 163.452 364.663 163.651 364.078C164.836 359.976 164.984 355.648 165.117 351.367C165.187 349.097 165.25 346.687 164.29 344.644C164.005 344.026 163.637 343.449 163.199 342.928L163.315 342.866C162.715 340.425 162.239 337.586 163.113 335.223C163.479 334.217 164.111 333.25 163.994 332.182C163.877 331.114 163.144 330.381 162.848 329.429C162.341 327.869 163.113 326.185 163.565 324.578C164.345 321.833 164.166 318.917 163.986 316.062C163.995 315.448 163.856 314.841 163.581 314.292C163.378 313.957 163.074 313.699 162.879 313.356C162.684 312.94 162.587 312.484 162.597 312.024C162.606 311.564 162.721 311.113 162.933 310.705C163.366 309.899 163.719 309.053 163.986 308.178C164.029 307.907 164.029 307.63 163.986 307.359C164.563 307.109 165.078 306.735 165.632 306.439C167.971 305.191 170.74 305.378 173.376 305.308C176.012 305.238 178.944 304.715 180.52 302.617C180.675 302.354 180.889 302.13 181.144 301.962C181.228 301.92 181.317 301.888 181.409 301.869C182.368 302.001 182.969 301.994 182.836 301.744C183.273 301.549 183.476 301.073 183.733 300.676C183.799 300.572 183.872 300.473 183.951 300.379C184.929 299.796 185.951 299.29 187.008 298.866C186.819 298.843 186.628 298.843 186.439 298.866C188.064 298.339 189.77 298.102 191.477 298.164C193.107 298.164 195.915 298.391 197.186 297.127C199.526 295.638 200.22 292.651 201.304 290.108C201.664 289.285 202.068 288.48 202.513 287.699L208.572 287.106C209.081 287.055 209.561 286.843 209.941 286.501C210.321 286.159 210.582 285.704 210.686 285.203L219.779 240.291C219.847 239.952 219.841 239.603 219.761 239.267C219.681 238.931 219.528 238.617 219.315 238.345C219.101 238.074 218.831 237.852 218.524 237.695C218.216 237.538 217.878 237.45 217.533 237.437ZM102.773 299.046C101.426 299.628 99.9743 299.929 98.507 299.929C97.0396 299.929 95.5878 299.628 94.241 299.046C93.8354 298.866 93.3909 298.367 93.7184 298.071C94.046 297.775 94.3112 298.024 94.5763 297.899C95.0833 297.65 94.7167 296.901 94.4359 296.418C93.6561 295.014 94.1942 293.236 94.9663 291.816C95.7384 290.397 96.7288 288.993 96.76 287.379C96.7126 286.86 96.7126 286.338 96.76 285.819C97.0073 285.083 97.3998 284.404 97.9142 283.823C98.0546 283.62 98.1716 283.402 98.2964 283.183C98.5069 283.511 98.7175 283.831 98.9359 284.15C99.6378 285.227 100.337 286.311 101.034 287.402C101.59 288.137 101.943 289.006 102.055 289.921C101.977 290.462 102.006 291.014 102.141 291.543C102.453 292.23 103.42 292.799 103.061 293.462C102.884 293.818 102.792 294.21 102.792 294.608C102.792 295.006 102.884 295.399 103.061 295.755C103.428 296.386 103.974 296.909 104.34 297.533C104.445 297.72 104.533 297.916 104.606 298.118C104.013 298.43 103.397 298.773 102.773 299.046ZM178.422 290.631C177.962 290.74 177.502 290.849 177.041 290.974C176.979 290.693 176.956 290.537 176.956 290.537L174.522 291.263C173.596 291.304 172.674 291.114 171.84 290.709L181.885 289.726C180.738 290.054 179.584 290.358 178.422 290.631Z" fill="url(#paint2_linear)"/>
<path d="M104.505 180.92C102.269 185.496 98.8728 189.406 94.6547 192.259C91.9329 194.092 88.7197 195.667 87.4173 198.67C86.2007 201.469 87.0274 204.682 87.3082 207.724C87.653 211.834 86.9737 215.966 85.331 219.749C83.6883 223.532 81.1334 226.85 77.8949 229.404C74.1905 232.282 69.2382 234.684 68.4427 239.308C67.8812 242.599 69.7373 245.758 71.1333 248.791C74.0813 255.202 75.0951 263.032 71.6246 269.177C70.642 270.924 69.285 272.523 68.7859 274.457C67.8578 277.896 69.8231 281.631 72.7711 283.628C75.719 285.624 79.4157 286.17 82.972 286.155C85.5534 286.155 88.3532 285.765 90.1937 283.948C91.4259 282.731 92.0343 281.039 92.6114 279.409L97.0957 266.705C97.8756 264.412 98.7647 262.026 100.465 260.31C104.076 256.629 109.956 257.019 115.111 257.081C122.699 257.172 130.247 255.983 137.439 253.564C141.651 252.137 146.221 249.719 147.203 245.391C148.186 241.063 145.269 237.125 142.719 233.615C140.811 231.016 139.007 228.325 137.307 225.544C135.645 222.861 134.062 220.03 133.602 216.911C132.822 211.725 135.279 206.687 137.158 201.797C139.038 196.907 140.356 191.121 137.619 186.652C136.436 184.912 134.93 183.416 133.181 182.246C129.063 179.243 123.542 175.601 118.496 174.377C115.791 173.742 112.971 173.78 110.284 174.486C107.016 175.5 105.869 178.105 104.505 180.92Z" fill="#3F3D56"/>
<path d="M159.877 241.539C160.889 244.981 161.606 248.503 162.022 252.067C163.269 260.645 164.525 269.333 164.291 278.028C164.178 279.969 164.178 281.914 164.291 283.854C164.508 285.626 164.855 287.381 165.328 289.102C165.345 289.258 165.395 289.407 165.474 289.542C165.554 289.676 165.661 289.792 165.788 289.882C166.085 290.03 166.436 289.882 166.763 289.843C167.878 289.711 168.705 290.787 169.563 291.512C170.406 292.194 171.437 292.602 172.518 292.683C173.6 292.764 174.68 292.513 175.615 291.965C175.327 293.243 175.418 294.577 175.876 295.804C176.335 297.031 177.141 298.098 178.196 298.874C179.274 299.626 180.502 300.137 181.795 300.373C183.088 300.608 184.417 300.563 185.691 300.239C184.396 300.036 183.156 300.941 182.447 302.04C182.197 302.43 181.994 302.906 181.565 303.101C181.137 303.296 180.396 303.046 179.889 303.312C179.638 303.482 179.427 303.706 179.273 303.967C177.713 306.057 174.819 306.571 172.215 306.642C169.61 306.712 166.849 306.532 164.556 307.772C163.987 308.076 163.456 308.466 162.864 308.716C161.054 309.496 158.894 308.716 157.49 307.382C156.152 305.945 155.201 304.189 154.73 302.282C152.39 294.733 152.858 286.646 153.334 278.761C154.09 266.229 155.681 253.393 159.877 241.539Z" fill="#454B69"/>
<path opacity="0.1" d="M159.877 241.539C160.889 244.981 161.606 248.503 162.022 252.067C163.269 260.645 164.525 269.333 164.291 278.028C164.178 279.969 164.178 281.914 164.291 283.854C164.508 285.626 164.855 287.381 165.328 289.102C165.345 289.258 165.395 289.407 165.474 289.542C165.554 289.676 165.661 289.792 165.788 289.882C166.085 290.03 166.436 289.882 166.763 289.843C167.878 289.711 168.705 290.787 169.563 291.512C170.406 292.194 171.437 292.602 172.518 292.683C173.6 292.764 174.68 292.513 175.615 291.965C175.327 293.243 175.418 294.577 175.876 295.804C176.335 297.031 177.141 298.098 178.196 298.874C179.274 299.626 180.502 300.137 181.795 300.373C183.088 300.608 184.417 300.563 185.691 300.239C184.396 300.036 183.156 300.941 182.447 302.04C182.197 302.43 181.994 302.906 181.565 303.101C181.137 303.296 180.396 303.046 179.889 303.312C179.638 303.482 179.427 303.706 179.273 303.967C177.713 306.057 174.819 306.571 172.215 306.642C169.61 306.712 166.849 306.532 164.556 307.772C163.987 308.076 163.456 308.466 162.864 308.716C161.054 309.496 158.894 308.716 157.49 307.382C156.152 305.945 155.201 304.189 154.73 302.282C152.39 294.733 152.858 286.646 153.334 278.761C154.09 266.229 155.681 253.393 159.877 241.539Z" fill="black"/>
<path d="M121.786 471.231C122.441 473.953 123.518 476.566 124.126 479.295C124.569 481.648 124.83 484.031 124.906 486.423L125.577 498.527C125.74 501.396 125.873 504.415 124.594 506.988C123.713 508.774 122.184 510.271 121.747 512.213C121.061 515.255 123.237 518.132 125.28 520.495L135.309 532.115C138.429 535.757 141.884 539.586 146.54 540.826C147.232 541.062 147.977 541.089 148.685 540.904C149.979 540.475 150.611 538.908 150.424 537.551C150.13 536.211 149.517 534.962 148.638 533.909C146.01 530.22 143.179 526.594 141.494 522.398C139.326 517.064 139.1 511.16 139.232 505.405C139.763 481.931 145.666 458.73 144.996 435.217C139.872 434.828 134.545 433.977 129.398 434.024C124.82 434.071 125.366 438.703 124.57 442.408C123.51 447.259 122.231 452.07 121.521 456.991C121.151 459.388 120.971 461.811 120.983 464.236C120.983 466.599 121.786 468.962 121.786 471.231Z" fill="#FBBEBE"/>
<path opacity="0.05" d="M121.786 471.231C122.441 473.953 123.518 476.566 124.126 479.295C124.569 481.648 124.83 484.031 124.906 486.423L125.577 498.527C125.74 501.396 125.873 504.415 124.594 506.988C123.713 508.774 122.184 510.271 121.747 512.213C121.061 515.255 123.237 518.132 125.28 520.495L135.309 532.115C138.429 535.757 141.884 539.586 146.54 540.826C147.232 541.062 147.977 541.089 148.685 540.904C149.979 540.475 150.611 538.908 150.424 537.551C150.13 536.211 149.517 534.962 148.638 533.909C146.01 530.22 143.179 526.594 141.494 522.398C139.326 517.064 139.1 511.16 139.232 505.405C139.763 481.931 145.666 458.73 144.996 435.217C139.872 434.828 134.545 433.977 129.398 434.024C124.82 434.071 125.366 438.703 124.57 442.408C123.51 447.259 122.231 452.07 121.521 456.991C121.151 459.388 120.971 461.811 120.983 464.236C120.983 466.599 121.786 468.962 121.786 471.231Z" fill="black"/>
<path d="M124.822 507.292C122.482 506.809 120.049 508.072 118.583 509.975C117.23 511.949 116.452 514.26 116.337 516.65C116.165 517.66 116.282 518.698 116.672 519.645C117.039 520.386 117.686 520.947 118.107 521.657C118.528 522.485 118.792 523.384 118.887 524.309C119.76 529.682 120.634 535.063 121.086 540.483C121.227 542.136 121.359 543.883 122.326 545.232C123.293 546.582 125.446 547.237 126.623 546.106C125.403 539.918 124.795 533.626 124.806 527.319C127.544 526.945 129.93 529.097 131.716 531.218C133.544 533.368 135.22 535.643 136.731 538.026C138.001 540.284 139.474 542.421 141.129 544.413C142.924 546.317 145.157 547.755 147.633 548.601C150.109 549.448 152.754 549.678 155.339 549.272C156.243 548.492 155.581 546.886 156.329 545.973C156.641 545.688 156.975 545.427 157.328 545.193C158.271 544.367 158.17 542.854 157.749 541.684C156.384 537.855 152.711 535.445 149.271 533.261C143.032 529.362 136.715 525.463 130.437 521.688C128.043 520.206 126.221 517.958 125.266 515.309C125.04 514.631 124.058 507.035 124.822 507.292Z" fill="#3F3D56"/>
<path opacity="0.05" d="M124.822 507.292C122.482 506.809 120.049 508.072 118.583 509.975C117.23 511.949 116.452 514.26 116.337 516.65C116.165 517.66 116.282 518.698 116.672 519.645C117.039 520.386 117.686 520.947 118.107 521.657C118.528 522.485 118.792 523.384 118.887 524.309C119.76 529.682 120.634 535.063 121.086 540.483C121.227 542.136 121.359 543.883 122.326 545.232C123.293 546.582 125.446 547.237 126.623 546.106C125.403 539.918 124.795 533.626 124.806 527.319C127.544 526.945 129.93 529.097 131.716 531.218C133.544 533.368 135.22 535.643 136.731 538.026C138.001 540.284 139.474 542.421 141.129 544.413C142.924 546.317 145.157 547.755 147.633 548.601C150.109 549.448 152.754 549.678 155.339 549.272C156.243 548.492 155.581 546.886 156.329 545.973C156.641 545.688 156.975 545.427 157.328 545.193C158.271 544.367 158.17 542.854 157.749 541.684C156.384 537.855 152.711 535.445 149.271 533.261C143.032 529.362 136.715 525.463 130.437 521.688C128.043 520.206 126.221 517.958 125.266 515.309C125.04 514.631 124.058 507.035 124.822 507.292Z" fill="black"/>
<path d="M123.808 464.415C122.552 480.098 126.07 495.711 129.197 511.129C129.491 512.361 129.65 513.621 129.673 514.888C129.541 516.466 129.281 518.031 128.893 519.567C127.707 525.931 129.22 532.45 130.725 538.744C131.77 543.103 133.244 548.024 137.308 549.927C140.17 551.276 143.547 550.707 146.666 550.075C147.691 549.967 148.666 549.575 149.482 548.944C150.605 547.892 150.644 546.153 150.55 544.624C149.474 527.311 140.708 510.708 142.416 493.442C142.697 490.587 143.266 487.764 143.734 484.926C146.152 470.249 145.84 455.143 148.959 440.614C149.114 440.106 149.114 439.563 148.959 439.054C148.695 438.555 148.277 438.156 147.766 437.916C144.927 436.215 141.893 434.71 138.618 434.25C136.06 433.892 132.847 434.172 130.694 435.755C128.542 437.338 128.292 440.996 127.629 443.609C125.771 450.424 124.493 457.384 123.808 464.415Z" fill="#FBBEBE"/>
<path d="M127.902 552.485C127.889 552.699 127.929 552.914 128.019 553.109C128.048 553.147 128.086 553.178 128.129 553.198C128.173 553.219 128.22 553.228 128.268 553.226C128.923 553.226 129.571 553.226 130.226 553.226C130.304 552.446 130.304 551.666 130.312 550.886V545.552C130.312 541.325 130.312 537.083 130.124 532.879C130.127 532.723 130.103 532.568 130.054 532.419C130.009 532.327 129.931 532.255 129.836 532.216C129.376 531.998 128.276 531.32 127.886 532.099C127.496 532.879 127.668 535.336 127.644 536.358C127.582 539.784 127.582 543.21 127.644 546.636C127.733 548.586 127.819 550.535 127.902 552.485Z" fill="#3F3D56"/>
<path d="M162.145 366.933C162.129 367.508 162.179 368.084 162.294 368.648C162.574 370.286 162.925 371.908 163.323 373.522C163.549 374.213 163.639 374.942 163.588 375.667C163.356 376.596 162.985 377.484 162.489 378.303C160.929 381.789 162.605 386.102 161.093 389.58C160.734 390.414 160.203 391.139 159.891 392.013C159.213 393.861 159.595 395.912 159.369 397.862C159.123 399.239 158.787 400.599 158.363 401.933C157.263 406.269 159.08 410.886 158.02 415.237C157.115 418.965 156.195 422.724 156.132 426.553C156.078 429.212 156.444 431.879 156.132 434.531C155.82 437.183 154.721 439.904 152.467 441.316C150.689 442.431 148.482 442.556 146.376 442.595C142.328 442.665 138.257 442.548 134.21 442.236C130.162 441.924 125.818 441.261 122.972 438.384C124.056 429.891 125.046 420.774 121.045 413.202C119.86 410.964 118.238 408.858 117.824 406.362C117.715 405.723 117.684 405.076 117.551 404.444C117.367 403.699 117.105 402.975 116.772 402.284C114.136 396.268 111.497 390.261 108.856 384.261C108.435 383.294 108.013 382.327 107.577 381.36C106.212 378.241 104.839 375.121 103.677 371.893C102.297 368.118 101.205 364.25 100.16 360.382C99.4203 358.092 99.0158 355.707 98.959 353.301C99.0726 351.172 99.572 349.082 100.433 347.132C100.901 345.993 101.447 344.878 101.993 343.786C117.676 340.087 133.817 338.705 149.901 339.684C152.473 339.731 155.024 340.154 157.474 340.94C159.134 341.527 160.629 342.503 161.833 343.786C162.388 344.383 162.844 345.065 163.183 345.806C164.126 347.865 164.064 350.236 164.002 352.497C163.861 356.748 163.721 361.076 162.551 365.139C162.354 365.721 162.218 366.322 162.145 366.933Z" fill="#3F3D56"/>
<path d="M151.149 543.782C148.771 545.581 145.98 546.755 143.031 547.198C140.426 547.58 137.571 547.307 135.505 545.638C133.165 543.774 132.331 540.608 131.66 537.676L130.763 533.776C130.435 532.373 130.116 530.969 129.858 529.549C129.188 525.801 128.992 521.984 129.273 518.187C127.137 519.021 125.858 521.556 125.717 523.841C125.577 526.126 126.286 528.364 126.934 530.563C127.189 531.625 127.58 532.65 128.096 533.612C128.478 534.252 128.977 534.821 129.305 535.492C129.713 536.484 129.948 537.539 129.999 538.611C130.484 542.134 131.184 545.624 132.097 549.062L133.485 554.786L133.625 555.363L134.803 560.214C134.839 560.387 134.896 560.554 134.974 560.713C135.121 560.95 135.318 561.153 135.552 561.305C137.986 563.09 140.849 564.201 143.851 564.526C146.852 564.85 149.886 564.377 152.647 563.154C152.861 563.065 153.059 562.941 153.232 562.787C153.532 562.37 153.668 561.856 153.614 561.344C153.546 559.795 153.851 558.252 154.503 556.845C154.856 556.325 155.144 555.765 155.361 555.176C155.489 554.221 155.306 553.25 154.838 552.407L151.953 545.654C151.782 544.992 151.511 544.361 151.149 543.782Z" fill="#3F3D56"/>
<path d="M144.38 262.806C144.272 264.292 143.978 265.759 143.507 267.173C143.156 268.199 142.54 269.114 141.721 269.824C140.379 268.015 137.985 267.391 136.168 266.058C134.673 264.788 133.373 263.306 132.307 261.659C129.968 258.54 127.301 255.771 124.805 252.823C124.423 252.371 124.025 251.926 123.69 251.474C122.414 249.919 121.259 248.269 120.235 246.538C118.153 242.95 116.725 238.825 113.59 236.111C111.882 234.629 109.738 233.654 108.225 231.978C109.147 230.398 109.749 228.651 109.995 226.838C110.354 225.099 110.705 223.352 110.892 221.582C110.946 221.114 110.978 220.646 110.993 220.178C110.993 219.976 110.993 219.781 110.993 219.578C110.993 218.135 110.065 215.679 111.539 214.852C112.888 214.072 115.103 214.072 116.694 214.119H116.983C120.676 214.16 124.278 215.276 127.347 217.332C128.046 217.759 128.655 218.318 129.141 218.977C129.853 220.276 130.126 221.769 129.921 223.235C129.921 223.579 129.921 223.922 129.866 224.257V224.756C129.812 226.425 129.976 228.211 131.145 229.373C132.315 230.535 134.39 230.683 136.098 231.213C136.379 231.307 136.644 231.401 136.917 231.51C138.787 232.354 140.384 233.704 141.526 235.409C142.81 237.369 143.717 239.551 144.201 241.843C144.677 243.893 144.977 245.98 145.098 248.082C145.266 253.001 145.026 257.926 144.38 262.806Z" fill="#FBBEBE"/>
<path opacity="0.1" d="M129.89 224.218V224.717C127.808 225.497 122.731 223.345 120.383 223.345C115.704 223.345 114.285 224.257 110.916 221.543C110.986 220.88 111.032 220.209 111.048 219.539C111.048 218.096 110.12 215.639 111.594 214.813C113.068 213.986 115.415 214.033 117.006 214.08C120.7 214.121 124.302 215.237 127.371 217.293C128.07 217.72 128.679 218.279 129.165 218.938C130.155 220.436 129.999 222.409 129.89 224.218Z" fill="black"/>
<path d="M142.797 204.792C142.797 207.688 142.156 210.548 140.919 213.167C139.682 215.785 137.881 218.097 135.643 219.936C133.406 221.775 130.789 223.095 127.98 223.802C125.172 224.509 122.241 224.584 119.4 224.023C114.947 223.141 110.938 220.742 108.055 217.235C105.173 213.728 103.595 209.331 103.592 204.792C103.54 202.183 104.009 199.591 104.971 197.167C105.933 194.742 107.369 192.533 109.195 190.671C111.021 188.808 113.201 187.328 115.606 186.318C118.011 185.307 120.593 184.787 123.202 184.787C125.811 184.787 128.393 185.307 130.798 186.318C133.203 187.328 135.383 188.808 137.209 190.671C139.035 192.533 140.471 194.742 141.433 197.167C142.395 199.591 142.864 202.183 142.812 204.792H142.797Z" fill="#FBBEBE"/>
<path d="M109.808 227.961C109.193 227.445 108.439 227.122 107.64 227.033C107.066 227.089 106.519 227.306 106.062 227.659C105.605 228.013 105.258 228.488 105.059 229.03C104.583 230.082 104.435 231.244 104.022 232.328C103.461 233.786 102.443 235.023 101.121 235.853C100.192 236.431 99.0928 236.836 98.4611 237.725C97.4629 239.137 98.0712 241.11 98.9135 242.623C102.033 248.261 107.726 251.981 113.178 255.42L119.323 259.319C121.791 260.955 124.348 262.452 126.982 263.804C131.248 265.909 135.864 267.258 140.107 269.411C142.057 270.394 144.006 271.571 146.136 271.906C146.59 270.455 146.875 268.955 146.986 267.438C148.039 258.08 149.076 248.511 146.986 239.324C146.71 237.544 145.961 235.872 144.818 234.481C144.013 233.712 143.092 233.075 142.088 232.594C139.598 231.253 137.036 230.05 134.414 228.991C133.184 228.396 131.833 228.097 130.468 228.117C130.586 229.142 130.893 230.136 131.372 231.049C134.663 238.385 137.96 245.724 141.261 253.065C141.986 254.403 142.397 255.889 142.462 257.409C142.392 259.569 140.903 261.675 141.534 263.749C135.781 255.384 129.183 247.632 121.842 240.618C121.52 240.348 121.255 240.017 121.062 239.644C120.885 239.055 120.847 238.432 120.953 237.826C121.023 236.672 120.781 235.128 119.814 234.356C119.144 233.818 118.153 233.662 117.412 233.194C114.831 231.556 112.343 229.708 109.808 227.961Z" fill="#400186"/>
<path opacity="0.1" d="M162.216 345.525C157.26 348.018 151.862 349.509 146.33 349.916C140.814 350.31 135.278 350.341 129.757 350.01L117.186 349.534C111.477 349.308 105.869 348.848 100.426 347.132C100.894 345.993 101.44 344.878 101.986 343.786C117.669 340.087 133.81 338.705 149.894 339.684C152.466 339.731 155.017 340.154 157.467 340.94C159.126 341.527 160.621 342.503 161.826 343.786C161.951 344.379 162.091 344.964 162.216 345.525Z" fill="black"/>
<path d="M161.334 284.244C159.166 291.582 160.656 299.615 162.005 307.141C162.384 307.398 162.673 307.766 162.833 308.196C162.992 308.625 163.014 309.093 162.894 309.535C162.625 310.403 162.275 311.243 161.849 312.046C161.638 312.45 161.522 312.897 161.512 313.353C161.501 313.809 161.595 314.261 161.787 314.674C161.982 315.017 162.286 315.282 162.489 315.618C162.759 316.163 162.896 316.764 162.886 317.372C163.058 320.211 163.23 323.112 162.465 325.85C162.021 327.409 161.264 329.094 161.763 330.669C162.06 331.621 162.793 332.424 162.894 333.414C162.996 334.405 162.387 335.434 162.021 336.432C161.155 338.772 161.623 341.603 162.224 344.036C157.268 346.528 151.87 348.02 146.337 348.427C140.821 348.824 135.285 348.856 129.765 348.52L117.193 348.044C111.437 347.826 105.791 347.358 100.308 345.611C99.778 341.829 99.3335 337.664 101.455 334.506C101.864 333.999 102.196 333.434 102.437 332.829C102.812 331.535 101.993 330.217 101.736 328.93C101.197 326.224 103.015 323.674 104.567 321.404C104.805 321.1 104.99 320.757 105.112 320.391C105.401 319.346 104.769 318.199 104.762 317.146C104.755 316.843 104.825 316.543 104.964 316.273C105.19 315.828 105.627 315.493 105.861 315.088C106.11 314.519 106.186 313.89 106.08 313.278C105.788 309.353 105.315 305.454 104.66 301.58C104.598 301.237 104.535 300.878 104.45 300.527C104.338 299.982 104.146 299.456 103.88 298.968C103.514 298.336 102.976 297.829 102.617 297.197C102.44 296.843 102.347 296.452 102.347 296.055C102.347 295.658 102.44 295.267 102.617 294.912C102.968 294.257 102.009 293.688 101.704 293.01C101.574 292.482 101.545 291.934 101.619 291.395C101.508 290.484 101.158 289.617 100.605 288.884C99.9184 287.8 99.2321 286.724 98.5302 285.656C95.4107 280.815 92.1586 276.058 88.7739 271.384C87.1673 269.146 85.5217 266.915 83.8606 264.716C82.5114 262.938 81.1232 261.137 80.4447 259.008C80.3246 258.638 80.2308 258.26 80.1639 257.877C79.7872 255.833 80.0798 253.721 80.9984 251.856C81.9073 250.309 82.9512 248.845 84.1179 247.481C85.2221 245.809 86.4198 244.2 87.7054 242.662C88.3542 241.896 89.1505 241.269 90.0469 240.817C90.9433 240.366 91.9213 240.099 92.9228 240.034C94.0849 240.034 95.4419 240.361 96.2452 239.527C96.5415 239.23 96.6975 238.833 97.0251 238.544C97.8751 237.764 99.2711 238.287 100.293 238.864L119.93 249.961L123.112 251.771C123.689 252.114 124.282 252.457 124.859 252.808C127.584 254.398 130.195 256.175 132.674 258.126C136.308 261.043 140.34 263.726 143.506 267.142C143.81 267.461 144.099 267.781 144.38 268.116C144.952 264.124 145.524 260.125 146.095 256.122C146.307 254.97 146.383 253.798 146.322 252.628C146.173 251.479 145.891 250.351 145.479 249.267C145.355 248.877 145.222 248.487 145.097 248.097C144.388 245.976 143.678 243.863 142.976 241.742C141.939 238.622 140.831 235.401 138.492 233.108C137.923 232.625 137.401 232.09 136.932 231.51C136.71 231.22 136.559 230.882 136.492 230.523C136.424 230.164 136.441 229.794 136.542 229.443L153.083 234.606C153.863 234.855 154.643 235.097 155.423 235.386C156.338 235.785 157.194 236.31 157.965 236.945C159.21 237.935 160.176 239.231 160.771 240.706C161.365 242.18 161.568 243.784 161.358 245.36C161.194 246.397 160.835 247.38 160.617 248.402C160.235 250.25 159.642 252.379 160.445 254.095C161.249 255.81 162.005 257.323 162.73 258.937C163.358 260.167 163.88 261.448 164.29 262.767C164.742 264.568 164.923 266.426 164.828 268.28C164.73 272.418 164.015 276.519 162.707 280.446C162.216 281.686 161.724 282.949 161.334 284.244Z" fill="#454B69"/>
<path d="M127.582 293.54L166.803 289.851L173.658 289.079L167.356 291.31L127.582 293.54Z" fill="#3F3D56"/>
<path d="M126.699 295.443V292.487L168.275 290.436L170.303 292.175L126.699 295.443Z" fill="#3F3D56"/>
<path d="M126.833 289.82C127.706 289.586 128.642 289.633 129.523 289.422C130.67 289.149 131.699 288.447 132.869 288.299C133.59 288.242 134.316 288.295 135.022 288.455L140.403 289.391C140.816 289.469 141.3 289.594 141.448 289.992C141.487 290.171 141.478 290.357 141.42 290.532C141.362 290.706 141.259 290.862 141.12 290.982C140.153 292.004 138.609 292.152 137.221 292.238L133.47 292.464C132.739 292.452 132.016 292.618 131.364 292.947C131.05 293.127 130.808 293.411 130.68 293.749C130.552 294.088 130.545 294.461 130.662 294.803C130.863 295.144 131.162 295.415 131.52 295.583C133.015 296.407 134.733 296.732 136.425 296.511C137.793 296.251 139.134 295.87 140.434 295.373C143.734 294.313 147.217 293.944 150.666 294.289C151.563 294.374 152.608 294.632 152.928 295.474C153.013 295.77 153.024 296.082 152.962 296.384C152.899 296.685 152.764 296.967 152.569 297.205C151.228 299.069 148.56 299.132 146.33 299.638C144.197 300.125 142.225 301.148 140.598 302.61C141.097 303.631 140.684 304.848 140.184 305.862C139.62 307.035 138.946 308.153 138.172 309.2C137.756 309.85 137.171 310.375 136.48 310.72C136.026 310.877 135.549 310.962 135.068 310.97C130.408 311.245 125.732 310.983 121.132 310.19C120.635 310.155 120.164 309.958 119.79 309.628C119.553 309.312 119.405 308.938 119.361 308.544C118.886 306.205 118.465 303.865 118.106 301.471C117.755 299.987 117.898 298.43 118.511 297.034C119.088 295.95 119.993 295.599 120.913 294.866C122.91 293.283 124.189 290.522 126.833 289.82Z" fill="#FBBEBE"/>
<path d="M177.486 241.047L167.753 289.321C167.674 289.684 167.682 290.061 167.778 290.421C167.873 290.78 168.053 291.112 168.303 291.388C168.552 291.664 168.864 291.876 169.211 292.008C169.559 292.139 169.934 292.186 170.303 292.144L207.012 288.541C207.518 288.496 207.996 288.287 208.373 287.947C208.75 287.606 209.006 287.152 209.103 286.654L218.095 241.975C218.169 241.63 218.164 241.272 218.08 240.929C217.996 240.585 217.836 240.265 217.611 239.993C217.386 239.721 217.102 239.503 216.78 239.356C216.459 239.209 216.108 239.137 215.755 239.145H179.802C179.254 239.14 178.723 239.329 178.299 239.676C177.876 240.024 177.588 240.509 177.486 241.047Z" fill="#3F3D56"/>
<path d="M195.751 298.515C198.091 297.042 198.754 294.062 199.822 291.544C200.679 289.696 201.664 287.911 202.77 286.201C203.706 284.642 204.642 282.778 203.901 281.132C203.316 280.083 202.35 279.298 201.202 278.941C200.167 278.444 198.998 278.298 197.872 278.528C196.609 278.871 195.673 279.916 194.823 280.906L191.797 284.416C190.501 286.097 188.942 287.558 187.18 288.744C186.072 289.359 184.9 289.853 183.686 290.218C181.518 290.935 179.319 291.567 177.096 292.097C175.818 292.347 174.571 292.734 173.376 293.251C173.136 293.34 172.917 293.475 172.729 293.649C172.542 293.823 172.391 294.033 172.284 294.265C172.187 294.85 172.325 295.45 172.666 295.934C173.446 297.361 174.312 300.27 175.911 300.777C177.433 301.154 178.986 301.396 180.551 301.502C182.111 301.666 183.289 301.042 184.669 300.457C186.41 299.795 188.268 299.498 190.128 299.584C191.719 299.553 194.495 299.779 195.751 298.515Z" fill="#FBBEBE"/>
<path d="M175.654 291.972C175.654 291.972 177.034 301.26 185.691 300.239C185.691 300.239 181.082 302.072 181.565 303.101C182.049 304.13 170.881 301.097 170.881 301.097L170.304 296.254C170.304 296.254 169.937 293.579 170.304 293.509C170.67 293.438 175.654 291.972 175.654 291.972Z" fill="#454B69"/>
<path opacity="0.1" d="M175.654 291.972C175.654 291.972 177.034 301.26 185.691 300.239C185.691 300.239 181.082 302.072 181.565 303.101C182.049 304.13 170.881 301.097 170.881 301.097L170.304 296.254C170.304 296.254 169.937 293.579 170.304 293.509C170.67 293.438 175.654 291.972 175.654 291.972Z" fill="black"/>
<path opacity="0.1" d="M135.646 253.159C136.501 253.588 137.203 254.268 137.659 255.108C138.386 256.262 138.936 257.519 139.289 258.836C139.718 260.396 139.92 262.228 141.106 263.383" fill="black"/>
<path opacity="0.1" d="M99.2478 278.886C99.8822 281.145 99.6196 283.562 98.5148 285.632C95.3952 280.792 92.1431 276.035 88.7584 271.361C87.1518 269.122 85.5062 266.892 83.8451 264.693C82.4959 262.915 81.1077 261.113 80.4292 258.984C80.3091 258.614 80.2153 258.236 80.1484 257.853C80.9802 256.615 82.228 255.716 83.6657 255.319C85.943 261.924 91.7141 266.658 95.8475 272.304C97.3912 274.261 98.5455 276.495 99.2478 278.886Z" fill="black"/>
<path opacity="0.1" d="M128.323 312.717L114.66 313.185C113.498 313.224 112.063 313.45 111.696 314.557C111.587 314.908 111.603 315.29 111.494 315.641C111.111 316.881 109.45 317.029 108.148 317.021C107.017 317.021 105.886 317.068 104.763 317.154C104.757 316.851 104.826 316.55 104.966 316.281C105.192 315.836 105.629 315.501 105.863 315.095C106.112 314.527 106.188 313.897 106.081 313.286C105.79 309.361 105.317 305.461 104.662 301.588C104.599 301.245 104.537 300.886 104.451 300.535C105.509 299.838 106.748 299.464 108.015 299.459C109.138 299.584 110.168 300.239 111.291 300.184C113.24 300.083 114.59 297.907 116.539 297.782C116.956 297.813 117.374 297.762 117.772 297.634C118.388 297.322 118.489 296.503 118.809 295.895C119.277 294.99 120.587 294.772 121.577 295.006C121.55 297.072 121.683 299.137 121.975 301.183C122.073 302.079 122.282 302.959 122.599 303.803C122.971 304.658 123.437 305.468 123.987 306.22C125.454 308.404 126.857 310.517 128.323 312.717Z" fill="black"/>
<path d="M82.9169 254.578C80.4914 255.186 78.7679 257.463 78.0582 259.865C77.3485 262.267 77.4733 264.825 77.5435 267.329C77.7827 276.619 77.1482 285.912 75.6483 295.084C74.9308 299.482 74.0106 303.896 74.2835 308.342C74.4317 310.751 74.9854 313.239 76.5296 315.095C78.9707 318.012 83.2132 318.612 87.0191 318.464C93.8509 318.199 100.558 316.195 107.398 316.242C108.7 316.242 110.353 316.093 110.743 314.853C110.852 314.51 110.829 314.128 110.946 313.777C111.305 312.67 112.74 312.436 113.91 312.397L127.573 311.937C126.107 309.777 124.703 307.655 123.237 305.495C122.688 304.74 122.22 303.93 121.841 303.078C121.528 302.23 121.318 301.347 121.217 300.449C120.928 298.406 120.797 296.344 120.827 294.281C119.837 294.055 118.487 294.281 118.051 295.162C117.731 295.778 117.63 296.589 117.021 296.901C116.623 297.037 116.2 297.088 115.781 297.049C113.839 297.182 112.49 299.389 110.54 299.459C109.417 299.514 108.38 298.851 107.265 298.734C105.495 298.547 103.911 299.716 102.289 300.434C100.959 301.016 99.5223 301.317 98.0701 301.317C96.6178 301.317 95.1812 301.016 93.8509 300.434C93.4531 300.262 93.0086 299.763 93.3362 299.467C93.6637 299.17 93.9211 299.42 94.1862 299.295C94.6854 299.046 94.3188 298.305 94.0459 297.821C93.266 296.425 93.8119 294.702 94.5684 293.251C95.3249 291.801 96.3153 290.436 96.3387 288.83C96.2904 288.311 96.2904 287.789 96.3387 287.27C96.5846 286.537 96.9744 285.861 97.4852 285.281C98.1407 284.222 98.568 283.037 98.7399 281.803C98.9118 280.569 98.8244 279.313 98.4834 278.114C97.7778 275.725 96.6209 273.494 95.0753 271.54C90.9731 265.925 85.202 261.183 82.9169 254.578Z" fill="#454B69"/>
<path opacity="0.1" d="M119.876 249.938L123.058 251.747C122.083 252.2 121.083 252.598 120.064 252.94C112.889 255.35 115.447 258.696 107.882 258.602C102.727 258.547 96.8464 258.15 93.2356 261.831C91.5354 263.562 90.6775 265.933 89.8664 268.225C89.4921 269.271 89.1255 270.316 88.759 271.345C87.1524 269.107 85.5069 266.876 83.8457 264.677C82.4965 262.899 81.1083 261.098 80.4298 258.969C79.6908 256.602 79.889 254.042 80.9835 251.817C81.8924 250.27 82.9364 248.806 84.1031 247.442C85.2073 245.769 86.405 244.16 87.6906 242.623C88.3394 241.857 89.1357 241.23 90.0321 240.778C90.9284 240.327 91.9065 240.06 92.908 239.994C94.07 239.994 95.427 240.322 96.2303 239.488C96.5267 239.191 96.6826 238.794 97.0102 238.505C97.8603 237.725 99.2563 238.248 100.278 238.825L119.876 249.938Z" fill="black"/>
<path d="M138.859 190.333C138.754 189.399 138.523 188.483 138.172 187.611C137.836 186.939 137.408 186.317 136.901 185.763C135.248 183.9 133.222 182.405 130.954 181.374C128.686 180.344 126.227 179.801 123.737 179.781C123.303 179.753 122.869 179.823 122.465 179.984C122.365 180.029 122.271 180.087 122.185 180.156C118.589 177.73 114.386 175.352 110.486 174.408C107.781 173.773 104.962 173.811 102.274 174.517C99.0064 175.5 97.8678 178.105 96.4796 180.951C94.2465 185.529 90.8498 189.439 86.6297 192.29C83.9156 194.123 80.6947 195.698 79.3923 198.701C78.1757 201.501 79.0024 204.714 79.2909 207.755C79.6288 211.865 78.9463 215.994 77.3041 219.776C75.6619 223.558 73.1109 226.876 69.8777 229.435C66.1654 232.313 61.2132 234.715 60.4255 239.34C59.864 242.631 61.7123 245.789 63.1083 248.823C66.064 255.233 67.0779 263.063 63.6074 269.208C62.617 270.955 61.2678 272.554 60.7608 274.488C59.8328 277.927 61.8059 281.663 64.746 283.659C67.6862 285.655 71.3907 286.201 74.947 286.186C77.5362 286.186 80.336 285.796 82.1687 283.979C83.3076 282.667 84.1366 281.116 84.5941 279.44C86.0915 275.203 87.5915 270.968 89.0941 266.736C89.874 264.443 90.763 262.057 92.4632 260.341C96.0663 256.66 101.954 257.05 107.102 257.113C114.674 257.206 112.116 253.868 119.283 251.451C123.495 250.031 128.073 247.614 129.055 243.278C130.038 238.942 127.121 235.011 124.571 231.502C122.658 228.902 120.854 226.212 119.159 223.43C117.498 220.748 115.914 217.917 115.454 214.797C114.674 209.611 127.27 206.718 129.157 201.828C129.695 200.448 130.149 199.037 130.514 197.601C131.419 197.531 132.253 197.445 132.854 197.422C135.263 197.313 137.97 196.369 138.796 194.108C139.133 192.874 139.154 191.577 138.859 190.333Z" fill="#3F3D56"/>
<g opacity="0.1">
<path opacity="0.1" d="M117.685 178.261C118.091 178.107 118.524 178.04 118.957 178.066H119.136C116.476 176.389 113.586 175.107 110.557 174.26L109.832 174.112C112.487 175.334 115.034 176.779 117.444 178.432C117.519 178.368 117.6 178.311 117.685 178.261Z" fill="black"/>
<path opacity="0.1" d="M138.859 190.185C138.754 189.251 138.523 188.335 138.172 187.463C137.838 186.79 137.41 186.168 136.901 185.615C134.235 182.612 130.632 180.597 126.677 179.899C128.752 180.908 130.608 182.318 132.136 184.047C132.648 184.595 133.077 185.215 133.407 185.888C133.764 186.761 133.995 187.68 134.094 188.617C134.394 189.86 134.378 191.158 134.047 192.392C133.228 194.654 130.514 195.597 128.112 195.699C127.527 195.699 126.685 195.816 125.772 195.878C125.408 197.316 124.955 198.731 124.415 200.113C122.528 204.994 109.956 207.911 110.72 213.082C111.173 216.201 112.764 219.032 114.417 221.715C116.07 224.397 117.926 227.174 119.829 229.786C122.38 233.296 125.289 237.328 124.314 241.562C123.339 245.797 118.761 248.316 114.55 249.735C107.375 252.153 109.933 255.491 102.368 255.397C97.2127 255.335 91.3245 254.945 87.7215 258.626C86.0213 260.357 85.1634 262.728 84.3524 265.02L79.8524 277.724C79.3932 279.398 78.5674 280.948 77.4348 282.263C75.5942 284.08 72.7945 284.455 70.213 284.462C68.7428 284.478 67.2739 284.369 65.8223 284.135C68.5675 285.624 71.8352 286.053 74.9859 286.038C77.5751 286.038 80.3749 285.648 82.2077 283.831C83.3466 282.519 84.1755 280.968 84.6331 279.292C86.1305 275.06 87.6305 270.825 89.1331 266.588C89.9129 264.295 90.802 261.909 92.5022 260.193C96.1052 256.512 101.993 256.902 107.141 256.964C114.713 257.058 112.155 253.72 119.322 251.303C123.534 249.883 128.112 247.466 129.094 243.13C130.077 238.794 127.16 234.863 124.61 231.354C122.697 228.754 120.893 226.064 119.198 223.282C117.537 220.6 115.953 217.769 115.493 214.649C114.713 209.463 127.308 206.57 129.196 201.68C129.734 200.3 130.188 198.889 130.553 197.453C131.457 197.383 132.292 197.297 132.892 197.274C135.302 197.165 138.009 196.221 138.835 193.959C139.159 192.723 139.167 191.425 138.859 190.185Z" fill="black"/>
</g>
</g>
<defs>
<linearGradient id="paint0_linear" x1="421.763" y1="492.366" x2="421.763" y2="76.4108" gradientUnits="userSpaceOnUse">
<stop stop-color="#808080" stop-opacity="0.25"/>
<stop offset="0.54" stop-color="#808080" stop-opacity="0.12"/>
<stop offset="1" stop-color="#808080" stop-opacity="0.1"/>
</linearGradient>
<linearGradient id="paint1_linear" x1="-3443.1" y1="1641.32" x2="-3422.25" y2="1641.32" gradientUnits="userSpaceOnUse">
<stop stop-color="#808080" stop-opacity="0.25"/>
<stop offset="0.54" stop-color="#808080" stop-opacity="0.12"/>
<stop offset="1" stop-color="#808080" stop-opacity="0.1"/>
</linearGradient>
<linearGradient id="paint2_linear" x1="134311" y1="313261" x2="134311" y2="115440" gradientUnits="userSpaceOnUse">
<stop stop-color="#808080" stop-opacity="0.25"/>
<stop offset="0.54" stop-color="#808080" stop-opacity="0.12"/>
<stop offset="1" stop-color="#808080" stop-opacity="0.1"/>
</linearGradient>
<clipPath id="clip0">
<rect width="822" height="588" fill="white"/>
</clipPath>
</defs>
</svg>
