<svg width="40" height="40" viewBox="0 0 40 40" fill="none" xmlns="http://www.w3.org/2000/svg">
<path d="M18.3333 5L33.3333 20C33.7433 20.4584 33.9699 21.0517 33.9699 21.6667C33.9699 22.2816 33.7433 22.875 33.3333 23.3333L23.3333 33.3333C22.875 33.7433 22.2816 33.9699 21.6667 33.9699C21.0517 33.9699 20.4584 33.7433 20 33.3333L5 18.3333V11.6667C5 9.89856 5.70238 8.20286 6.95262 6.95262C8.20286 5.70238 9.89856 5 11.6667 5H18.3333Z" stroke="#400186" stroke-width="2.75" stroke-linecap="round" stroke-linejoin="round"/>
<path d="M15 18.3334C16.841 18.3334 18.3334 16.841 18.3334 15.0001C18.3334 13.1591 16.841 11.6667 15 11.6667C13.1591 11.6667 11.6667 13.1591 11.6667 15.0001C11.6667 16.841 13.1591 18.3334 15 18.3334Z" stroke="#400186" stroke-width="2.75" stroke-linecap="round" stroke-linejoin="round"/>
</svg>
