<svg width="56" height="56" viewBox="0 0 56 56" fill="none" xmlns="http://www.w3.org/2000/svg">
<path d="M21 46.6665V27.9998H12.6326C12.1712 27.9997 11.7202 27.8628 11.3366 27.6064C10.9529 27.35 10.654 26.9856 10.4774 26.5593C10.3008 26.133 10.2546 25.664 10.3446 25.2114C10.4346 24.7588 10.6568 24.3431 10.983 24.0168L26.3503 8.64948C26.7879 8.21204 27.3813 7.96631 28 7.96631C28.6187 7.96631 29.2121 8.21204 29.6496 8.64948L45.017 24.0168C45.3432 24.3431 45.5653 24.7588 45.6553 25.2114C45.7453 25.664 45.6991 26.133 45.5226 26.5593C45.346 26.9856 45.047 27.35 44.6634 27.6064C44.2798 27.8628 43.8287 27.9997 43.3673 27.9998H35V46.6665C35 47.2853 34.7541 47.8788 34.3166 48.3164C33.879 48.754 33.2855 48.9998 32.6666 48.9998H23.3333C22.7145 48.9998 22.121 48.754 21.6834 48.3164C21.2458 47.8788 21 47.2853 21 46.6665V46.6665Z" stroke="#400186" stroke-width="2.75" stroke-linecap="round" stroke-linejoin="round"/>
</svg>
