<svg width="104" height="104" viewBox="0 0 104 104" fill="none" xmlns="http://www.w3.org/2000/svg">
<path d="M51.998 4.0625C50.8764 4.0625 49.9668 4.97189 49.9668 6.09375V18.1783C49.9668 19.3001 50.8764 20.2095 51.998 20.2095C53.1197 20.2095 54.0293 19.3001 54.0293 18.1783V6.09375C54.0293 4.97189 53.1197 4.0625 51.998 4.0625Z" fill="#400186"/>
<path d="M40.4871 21.4056L35.6272 16.5499C34.8332 15.7569 33.5474 15.7575 32.7544 16.5511C31.9616 17.3447 31.9622 18.6307 32.7556 19.4237L37.6158 24.2794C38.0125 24.6757 38.5321 24.8737 39.0514 24.8737C39.5716 24.8737 40.0916 24.6751 40.4884 24.2782C41.2811 23.4846 41.2805 22.1986 40.4871 21.4056Z" fill="#400186"/>
<path d="M71.2433 16.5548C70.4497 15.7616 69.1635 15.7624 68.3705 16.5558L63.2036 21.7268C62.4108 22.5204 62.4114 23.8064 63.2048 24.5994C63.6015 24.9959 64.1213 25.1939 64.6407 25.1939C65.1609 25.1939 65.6809 24.9953 66.0776 24.5984L71.2445 19.4274C72.0373 18.6338 72.0367 17.3478 71.2433 16.5548Z" fill="#400186"/>
<path d="M90.6953 57.6879H89.0561C90.3939 55.944 91.1915 53.7651 91.1915 51.4026V48.5359C91.1915 42.8299 86.5495 38.1879 80.8438 38.1879C75.138 38.1879 70.496 42.8299 70.496 48.5357V50.7641L55.2147 35.4827C54.3666 34.6348 53.1194 34.3626 52.0002 34.7668C50.8814 34.3626 49.6338 34.6348 48.7855 35.4829L33.5045 50.7641V48.5357C33.504 42.8299 28.862 38.1879 23.1562 38.1879C17.4505 38.1879 12.8085 42.8299 12.8085 48.5357V51.4024C12.8085 53.7651 13.6061 55.9438 14.9439 57.6877H13.3047C5.96842 57.6879 0 63.6563 0 70.9926V97.9066C0 99.0285 0.909594 99.9379 2.03125 99.9379H10.6133C10.8164 99.9379 11.0122 99.9072 11.1973 99.8517C11.3823 99.9072 11.5781 99.9379 11.7812 99.9379H34.5312C35.6529 99.9379 36.5625 99.0285 36.5625 97.9066V91.0004C36.5625 89.8785 35.6529 88.9691 34.5312 88.9691C33.4096 88.9691 32.5 89.8785 32.5 91.0004V95.8754H13.8125V72.7299C13.8125 71.608 12.9029 70.6986 11.7812 70.6986C10.6596 70.6986 9.75 71.608 9.75 72.7299V95.8754H4.0625V70.9926C4.0625 65.8964 8.20848 61.7504 13.3047 61.7504H27.4219C27.9809 61.7504 28.4871 61.5243 28.8543 61.1591C28.8557 61.1576 28.857 61.1568 28.8584 61.1556L49.9568 40.057C49.8184 44.2755 48.5063 48.3386 46.1407 51.8521L32.8465 71.5954C32.6209 71.9308 32.5002 72.3259 32.5002 72.7299V74.9535C32.5002 76.0754 33.4098 76.9847 34.5315 76.9847C35.6531 76.9847 36.5627 76.0754 36.5627 74.9535V73.3498L49.5105 54.1208C50.4997 52.6516 51.3293 51.0993 52.0002 49.4879C52.6711 51.0993 53.5005 52.6516 54.4899 54.1208L67.4375 73.3498V97.9066C67.4375 99.0285 68.3471 99.9379 69.4688 99.9379H92.2188C92.4219 99.9379 92.6177 99.9072 92.8027 99.8517C92.9878 99.9072 93.1836 99.9379 93.3867 99.9379H101.969C103.09 99.9379 104 99.0285 104 97.9066V70.9926C104 63.6563 98.0316 57.6879 90.6953 57.6879ZM29.4415 51.4024C29.4415 54.8683 26.6222 57.6879 23.1562 57.6879C19.6903 57.6879 16.871 54.8683 16.871 51.4026V48.5359C16.871 45.0699 19.6905 42.2504 23.1562 42.2504C26.622 42.2504 29.4415 45.0699 29.4415 48.5357V51.4024ZM74.5585 48.5357C74.5585 45.0699 77.378 42.2504 80.8438 42.2504C84.3095 42.2504 87.129 45.0699 87.129 48.5357V51.4024C87.129 54.8683 84.3097 57.6879 80.8438 57.6879C77.3778 57.6879 74.5585 54.8683 74.5585 51.4026V48.5357ZM99.9375 95.8754H94.25V80.8441C94.25 79.7223 93.3404 78.8129 92.2188 78.8129C91.0971 78.8129 90.1875 79.7223 90.1875 80.8441V95.8754H71.5V72.7299C71.5 72.3257 71.3793 71.9306 71.1537 71.5954L57.8595 51.8523C55.4939 48.3388 54.1818 44.2757 54.0434 40.0572L75.1418 61.1556C75.1686 61.1824 75.1938 61.205 75.2182 61.2251C75.5783 61.5507 76.0545 61.7508 76.5781 61.7508H90.6953C95.7915 61.7508 99.9375 65.8968 99.9375 70.993V95.8754Z" fill="#400186"/>
<path d="M93.6546 71.2929C93.277 70.915 92.753 70.6977 92.2188 70.6977C91.6845 70.6977 91.1605 70.915 90.7827 71.2929C90.4048 71.6707 90.1875 72.1947 90.1875 72.7289C90.1875 73.2632 90.4046 73.7872 90.7827 74.165C91.1605 74.5429 91.6845 74.7602 92.2188 74.7602C92.753 74.7602 93.277 74.5429 93.6546 74.165C94.0325 73.7872 94.25 73.2632 94.25 72.7289C94.25 72.1947 94.0327 71.6727 93.6546 71.2929Z" fill="#400186"/>
<path d="M35.9671 82.0483C35.5895 81.6705 35.0655 81.4531 34.5312 81.4531C33.997 81.4531 33.473 81.6705 33.0952 82.0483C32.7173 82.4261 32.5 82.9502 32.5 83.4844C32.5 84.0186 32.7171 84.5427 33.0952 84.9205C33.4732 85.2983 33.997 85.5156 34.5312 85.5156C35.0655 85.5156 35.5895 85.2983 35.9671 84.9205C36.345 84.5427 36.5625 84.0186 36.5625 83.4844C36.5625 82.9502 36.3452 82.4261 35.9671 82.0483Z" fill="#400186"/>
</svg>
