<?xml version="1.0" encoding="utf-8"?>
<!-- Generator: Adobe Illustrator 25.3.0, SVG Export Plug-In . SVG Version: 6.00 Build 0)  -->
<svg version="1.1" id="Calque_1" xmlns="http://www.w3.org/2000/svg" xmlns:xlink="http://www.w3.org/1999/xlink" x="0px" y="0px"
	 viewBox="0 0 76 74" style="enable-background:new 0 0 76 74;" xml:space="preserve">
<style type="text/css">
	.st0{fill:#FD4C6F;}
	.st1{fill:#400186;}
</style>
<g>
	<g>
		<g>
			<g>
				<g>
					<path class="st0" d="M62.59,8.29"/>
				</g>
			</g>
		</g>
	</g>
	<g>
		<path class="st1" d="M22.33,29.74l0.11,0.04c3.62-7.83,12.64-11.85,21.01-9.05c3.35,1.12,6.11,3.17,8.12,5.77L57.5,8.78
			c-2.59-1.79-5.46-3.28-8.6-4.33C30.93-1.56,11.48,8.13,5.46,26.1C1.42,38.14,4.47,50.82,12.3,59.7L22.33,29.74z"/>
		<path class="st0" d="M63.7,14.3l-9.43,28.15c-3.01,8.99-12.73,13.83-21.72,10.82c-3.35-1.12-6.11-3.17-8.12-5.77L18.5,65.22
			c2.59,1.79,5.46,3.28,8.6,4.33c17.97,6.02,37.42-3.67,43.44-21.64C74.58,35.86,71.53,23.18,63.7,14.3z"/>
	</g>
</g>
</svg>
