<svg width="262" height="247" viewBox="0 0 262 247" fill="none" xmlns="http://www.w3.org/2000/svg">
<g filter="url(#filter0_d)">
<g clip-path="url(#clip0)">
<path d="M211.541 176.724L194.851 151.934C194.851 151.934 220.126 160.757 217.258 176.724H211.541Z" fill="#E5E5E5"/>
<path d="M38.5373 176.889L37.9037 176.876C38.1488 169.832 38.9004 162.814 40.1529 155.877C42.8926 141.026 47.4484 131.272 53.6936 126.887L54.0575 127.405C39.4685 137.648 38.5448 176.497 38.5373 176.889Z" fill="#E5E5E5"/>
<path d="M46.4572 176.737L45.8236 176.725C45.8372 176.023 46.2332 159.487 52.7433 154.916L53.1071 155.435C46.8597 159.821 46.4603 176.568 46.4572 176.737Z" fill="#E5E5E5"/>
<path d="M57.6619 127.463C59.4115 127.463 60.8298 126.044 60.8298 124.295C60.8298 122.545 59.4115 121.127 57.6619 121.127C55.9123 121.127 54.494 122.545 54.494 124.295C54.494 126.044 55.9123 127.463 57.6619 127.463Z" fill="#404DEF"/>
<path d="M56.0931 154.707C57.8427 154.707 59.261 153.289 59.261 151.539C59.261 149.789 57.8427 148.371 56.0931 148.371C54.3435 148.371 52.9252 149.789 52.9252 151.539C52.9252 153.289 54.3435 154.707 56.0931 154.707Z" fill="#404DEF"/>
<path d="M44.9805 129.362C45.5759 133.165 44.0242 136.566 44.0242 136.566C44.0242 136.566 41.5072 133.802 40.9118 129.999C40.3164 126.196 41.8682 122.795 41.8682 122.795C41.8682 122.795 44.3852 125.559 44.9805 129.362Z" fill="#E5E5E5"/>
<path d="M55.3356 138.597C51.6947 139.846 48.0751 138.911 48.0751 138.911C48.0751 138.911 50.3585 135.951 53.9994 134.702C57.6403 133.453 61.2599 134.388 61.2599 134.388C61.2599 134.388 58.9765 137.349 55.3356 138.597Z" fill="#E5E5E5"/>
<path d="M55.4526 162.725C53.8047 163.242 52.0499 163.318 50.3635 162.945C51.4343 161.581 52.8763 160.557 54.516 159.994C56.1557 159.432 57.923 159.356 59.605 159.775C58.5031 161.105 57.0712 162.122 55.4526 162.725Z" fill="#E5E5E5"/>
<path d="M229.513 177.358H24.547C24.4629 177.358 24.3824 177.324 24.323 177.265C24.2635 177.206 24.2302 177.125 24.2302 177.041C24.2302 176.957 24.2635 176.876 24.323 176.817C24.3824 176.757 24.4629 176.724 24.547 176.724H229.513C229.597 176.724 229.677 176.757 229.737 176.817C229.796 176.876 229.829 176.957 229.829 177.041C229.829 177.125 229.796 177.206 229.737 177.265C229.677 177.324 229.597 177.358 229.513 177.358Z" fill="#CBCBCB"/>
<path d="M154.05 191.962L151.458 198.708L124.206 191.921L128.031 181.965L154.05 191.962Z" fill="#FFB7B7"/>
<path d="M161.25 192.754L152.893 214.504L152.618 214.399C150.372 213.536 148.562 211.817 147.584 209.619C146.606 207.422 146.542 204.926 147.404 202.68L147.404 202.68L152.508 189.395L161.25 192.754Z" fill="#2F2E41"/>
<path d="M112.639 107.501L100.763 108.613L100.174 143.949C100.332 145.681 101.161 147.282 102.485 148.41C103.808 149.538 105.521 150.102 107.256 149.983L114.785 149.464L112.639 107.501Z" fill="#E5E5E5"/>
<path d="M154.508 105.762L146.382 105.658L145.9 147.644C147.696 147.704 149.485 147.393 151.155 146.731C152.825 146.069 154.341 145.07 155.608 143.796C156.875 142.523 157.866 141.001 158.519 139.328C159.172 137.654 159.474 135.864 159.404 134.068L154.508 105.762Z" fill="#E5E5E5"/>
<path d="M107.357 162.56C107.165 163.778 106.885 164.981 106.521 166.159C106.111 167.312 105.478 168.378 105.103 169.543C103.908 173.256 105.565 177.396 108.211 180.262C110.506 182.738 113.467 184.497 116.739 185.327C119.126 185.927 121.608 186.013 124.069 186.097C130.88 186.328 137.868 186.534 144.322 184.345C146.362 183.637 148.331 182.742 150.207 181.672C150.799 181.39 151.32 180.979 151.734 180.47C152.226 179.769 152.289 178.86 152.285 178.004C152.27 175.116 151.685 172.243 151.824 169.358C151.901 167.761 152.2 166.164 152.052 164.571C151.849 162.762 151.091 161.061 149.883 159.699C148.675 158.337 147.075 157.382 145.303 156.965C143.472 156.571 141.573 156.786 139.709 156.965C134.87 157.43 130.01 157.647 125.149 157.616C120.182 157.584 115.246 156.826 110.304 156.747C108.843 156.723 108.872 157.174 108.407 158.588C107.978 159.89 107.628 161.217 107.357 162.56Z" fill="#2F2E41"/>
<path d="M87.9349 160.213C86.5993 159.878 85.2231 159.731 83.8468 159.779C82.4007 159.859 80.9882 160.246 79.7032 160.914C78.4182 161.582 77.2901 162.516 76.394 163.654C75.4979 164.791 74.8543 166.107 74.506 167.513C74.1578 168.919 74.1127 170.382 74.374 171.807C74.7075 173.35 75.2526 174.84 75.9939 176.234C77.0781 178.434 78.3784 180.629 80.3855 182.039C81.5596 182.864 82.9185 183.378 84.2612 183.884L94.8322 187.866C96.3873 188.452 97.9427 189.038 99.5132 189.581C107.403 192.308 115.629 193.944 123.962 194.442C126.501 194.593 129.077 194.635 131.554 194.057C132.141 193.92 132.768 193.715 133.108 193.217C133.31 192.866 133.429 192.474 133.456 192.07L134.106 187.516C134.198 186.875 134.286 186.2 134.051 185.596C133.753 184.831 133.006 184.349 132.294 183.94C125.344 179.949 117.23 177.747 111.38 172.268C110.003 170.979 108.85 168.934 107.177 168.058C105.28 167.065 103.045 166.498 101.084 165.583C96.7968 163.581 92.5816 161.281 87.9349 160.213Z" fill="#2F2E41"/>
<path opacity="0.1" d="M98.4885 166.352C102.225 167.523 118 175.634 120.704 178.467C120.341 178.597 108.045 171.706 107.676 171.595C104.321 170.588 100.949 169.575 97.7635 168.102C97.1227 167.806 93.6007 166.413 93.7602 165.604C93.9402 164.692 97.8252 166.145 98.4885 166.352Z" fill="black"/>
<path d="M121.038 95.6248L110.978 103.263C110.978 103.263 100.363 103.595 100.721 110.381C101.08 117.167 105.329 149.295 105.329 149.295L106.25 160.35L123.735 165.332C133.182 168.024 143.164 168.238 152.718 165.953L150.64 154.863C150.64 154.863 159.053 104.495 153.985 102.278C148.916 100.06 145.748 100.694 145.748 100.694L139.395 95.1497L121.038 95.6248Z" fill="#E5E5E5"/>
<path d="M150.817 83.2868C150.817 93.2028 141.648 91.7029 130.337 91.7029C119.027 91.7029 109.858 93.2028 109.858 83.2868C109.858 73.3708 114.337 55.7939 130.337 55.7939C146.889 55.7939 150.817 73.3708 150.817 83.2868Z" fill="#2F2E41"/>
<path d="M140.983 86.6475C146.365 81.2658 146.365 72.5404 140.983 67.1587C135.601 61.777 126.876 61.777 121.494 67.1587C116.113 72.5404 116.113 81.2658 121.494 86.6475C126.876 92.0292 135.601 92.0291 140.983 86.6475Z" fill="#FFB7B7"/>
<path d="M114.347 76.5541H119.797L122.202 69.8211L122.683 76.5541H125.288L126.69 72.6265L126.971 76.5541H146.328C146.328 72.6851 144.791 68.9746 142.055 66.2388C139.32 63.503 135.609 61.9661 131.74 61.9661H128.935C125.066 61.9661 121.355 63.503 118.619 66.2388C115.884 68.9746 114.347 72.6851 114.347 76.5541Z" fill="#2F2E41"/>
<path d="M144.164 97.209H116.603V130.472H144.164V97.209Z" fill="#404DEF"/>
<path d="M118.122 191.645L120.714 198.391L147.966 191.604L144.14 181.648L118.122 191.645Z" fill="#FFB7B7"/>
<path d="M119.663 189.078L124.767 202.363L124.768 202.363C125.63 204.609 125.565 207.105 124.588 209.302C123.61 211.5 121.799 213.219 119.554 214.082L119.279 214.187L110.922 192.437L119.663 189.078Z" fill="#2F2E41"/>
<path d="M172.596 157.631C174.785 157.082 177.055 156.927 179.298 157.173C181.09 157.371 182.936 157.869 184.244 159.109C185.837 160.619 186.348 162.953 186.391 165.147C186.461 169.516 185.012 173.774 182.291 177.194C181.627 178.059 180.836 178.819 179.947 179.45C178.987 180.051 177.965 180.543 176.897 180.92L153.224 190.257C146.996 192.714 140.746 195.177 134.25 196.797C133.897 196.967 133.49 196.991 133.12 196.861C132.75 196.732 132.446 196.461 132.276 196.108C132.27 196.097 132.265 196.086 132.26 196.076C130.186 193.113 128.446 189.93 127.072 186.584C127.007 186.505 126.962 186.411 126.941 186.31C126.92 186.21 126.923 186.106 126.951 186.007C126.979 185.908 127.03 185.817 127.1 185.742C127.17 185.667 127.258 185.61 127.354 185.576L144.099 175.955C145.298 175.266 146.511 174.567 147.507 173.607C148.23 172.906 148.823 172.081 149.257 171.171C149.604 170.446 149.636 168.735 150.079 168.199C150.513 167.675 151.998 167.633 152.684 167.427C153.651 167.13 154.598 166.772 155.52 166.355C159.265 164.679 162.601 162.244 166.191 160.282C168.205 159.131 170.357 158.24 172.596 157.631Z" fill="#2F2E41"/>
<path opacity="0.1" d="M163.103 164.816C160.226 166.977 156.502 168.963 153.65 171.18C152.677 171.937 136.456 181.057 136.227 182.268C138.887 182.716 155.831 170.863 158.255 169.68C160.68 168.497 162.829 166.829 164.958 165.173C165.501 164.751 167.801 163.483 166.243 163.011C165.365 162.746 163.751 164.384 163.103 164.816Z" fill="black"/>
<path d="M214.809 81.4367C220.276 81.4367 224.708 77.0047 224.708 71.5376C224.708 66.0704 220.276 61.6384 214.809 61.6384C209.342 61.6384 204.91 66.0704 204.91 71.5376C204.91 77.0047 209.342 81.4367 214.809 81.4367Z" fill="#F1F1F1"/>
<path d="M196.488 83.2096C200.324 83.2096 203.433 80.1006 203.433 76.2655C203.433 72.4303 200.324 69.3213 196.488 69.3213C192.653 69.3213 189.544 72.4303 189.544 76.2655C189.544 80.1006 192.653 83.2096 196.488 83.2096Z" fill="#F1F1F1"/>
<path d="M69.2825 78.6799C72.3576 78.6799 74.8505 76.187 74.8505 73.1119C74.8505 70.0368 72.3576 67.5439 69.2825 67.5439C66.2074 67.5439 63.7145 70.0368 63.7145 73.1119C63.7145 76.187 66.2074 78.6799 69.2825 78.6799Z" fill="#F1F1F1"/>
<path d="M78.4496 82.4241C80.6068 82.4241 82.3555 80.6754 82.3555 78.5182C82.3555 76.361 80.6068 74.6123 78.4496 74.6123C76.2924 74.6123 74.5437 76.361 74.5437 78.5182C74.5437 80.6754 76.2924 82.4241 78.4496 82.4241Z" fill="#F1F1F1"/>
<path d="M132.464 33.0166C134.815 33.0166 136.72 31.111 136.72 28.7604C136.72 26.4097 134.815 24.5042 132.464 24.5042C130.113 24.5042 128.208 26.4097 128.208 28.7604C128.208 31.111 130.113 33.0166 132.464 33.0166Z" fill="#F1F1F1"/>
<path opacity="0.17" d="M107.099 118.434L107.48 115.497C107.48 115.497 121.672 116.533 119.454 120.018C117.237 123.503 111.851 123.82 111.851 123.82L107.099 118.434Z" fill="#2F2E41"/>
<path d="M117.812 105.665C118.625 105.754 119.408 106.023 120.105 106.451C120.802 106.879 121.395 107.456 121.843 108.14C122.251 108.765 122.528 109.465 122.659 110.2C122.789 110.934 122.769 111.688 122.601 112.414C122.433 113.141 122.12 113.827 121.68 114.429C121.24 115.032 120.684 115.539 120.043 115.922C119.808 116.06 119.563 116.181 119.309 116.282L110.586 142.965C110.333 143.491 109.979 143.963 109.543 144.352C109.108 144.741 108.6 145.04 108.048 145.232C107.496 145.424 106.912 145.505 106.329 145.471C105.746 145.436 105.176 145.287 104.651 145.032C104.126 144.776 103.656 144.419 103.27 143.981C102.883 143.544 102.586 143.034 102.397 142.481C102.208 141.929 102.13 141.344 102.168 140.761C102.206 140.179 102.358 139.609 102.617 139.085L111.894 112.699C111.641 111.826 111.607 110.904 111.796 110.015C111.984 109.126 112.389 108.297 112.974 107.601C113.559 106.906 114.307 106.365 115.151 106.027C115.994 105.69 116.909 105.565 117.812 105.665Z" fill="#FFB7B7"/>
<path d="M107.229 115.748C107.229 115.748 112.228 124.288 119.454 120.018L112.451 146.819H106.55L100.447 145.679L102.156 134.606L107.229 115.748Z" fill="#E5E5E5"/>
<path d="M142.919 121.585L138.779 115.9C138.779 115.9 140.769 110.003 148.485 112.16C148.485 112.16 153.396 123.151 142.919 121.585Z" fill="#E5E5E5"/>
<path opacity="0.17" d="M142.919 121.585L138.779 115.9C138.779 115.9 140.769 110.003 148.485 112.16C148.485 112.16 153.396 123.151 142.919 121.585Z" fill="#2F2E41"/>
<path d="M144.016 101.723C145.21 102.278 146.166 103.244 146.709 104.444C147.251 105.645 147.345 107 146.973 108.264L156.25 134.65C156.508 135.174 156.661 135.743 156.698 136.326C156.736 136.909 156.658 137.494 156.469 138.046C156.28 138.599 155.984 139.109 155.597 139.546C155.21 139.984 154.741 140.341 154.216 140.597C153.691 140.852 153.12 141.002 152.537 141.036C151.954 141.071 151.37 140.989 150.818 140.797C150.267 140.605 149.759 140.306 149.323 139.917C148.888 139.528 148.533 139.056 148.281 138.53L139.557 111.847C139.304 111.746 139.059 111.625 138.824 111.486C138.183 111.104 137.626 110.597 137.186 109.994C136.747 109.391 136.433 108.706 136.265 107.979C136.097 107.253 136.078 106.499 136.208 105.765C136.338 105.03 136.616 104.33 137.023 103.705C137.471 103.021 138.065 102.444 138.762 102.016C139.458 101.588 140.242 101.319 141.054 101.23C142.068 101.115 143.094 101.286 144.016 101.723Z" fill="#FFB7B7"/>
<path d="M138.779 115.9C138.779 115.9 145.61 120.045 148.485 112.16L158.112 137.508L155.252 142.511L154.838 142.545C153.132 142.687 151.416 142.413 149.839 141.746C148.262 141.079 146.87 140.04 145.783 138.716C143.566 136.017 142.057 132.808 141.392 129.379L138.779 115.9Z" fill="#E5E5E5"/>
</g>
</g>
<defs>
<filter id="filter0_d" x="0.230164" y="0.50415" width="261.599" height="246" filterUnits="userSpaceOnUse" color-interpolation-filters="sRGB">
<feFlood flood-opacity="0" result="BackgroundImageFix"/>
<feColorMatrix in="SourceAlpha" type="matrix" values="0 0 0 0 0 0 0 0 0 0 0 0 0 0 0 0 0 0 127 0"/>
<feMorphology radius="4" operator="dilate" in="SourceAlpha" result="effect1_dropShadow"/>
<feOffset dx="4" dy="4"/>
<feGaussianBlur stdDeviation="12"/>
<feColorMatrix type="matrix" values="0 0 0 0 0 0 0 0 0 0 0 0 0 0 0 0 0 0 0.15 0"/>
<feBlend mode="normal" in2="BackgroundImageFix" result="effect1_dropShadow"/>
<feBlend mode="normal" in="SourceGraphic" in2="effect1_dropShadow" result="shape"/>
</filter>
<clipPath id="clip0">
<rect width="205.599" height="190" fill="white" transform="translate(24.2302 24.5042)"/>
</clipPath>
</defs>
</svg>
