<?xml version="1.0" encoding="utf-8"?>
<!-- Generator: Adobe Illustrator 25.3.0, SVG Export Plug-In . SVG Version: 6.00 Build 0)  -->
<svg version="1.1" id="Calque_1" xmlns="http://www.w3.org/2000/svg" xmlns:xlink="http://www.w3.org/1999/xlink" x="0px" y="0px"
	 viewBox="0 0 323 72" style="enable-background:new 0 0 323 72;" xml:space="preserve">
<style type="text/css">
	.st0{fill:#FD4C6F;}
	.st1{fill:#400186;}
</style>
<g>
	<g>
		<g>
			<g>
				<g>
					<g>
						<path class="st0" d="M291.82,5.69v19.08c-2.26-2.71-4.39-4.68-6.39-5.91c-2.24-1.2-4.55-1.79-6.95-1.79
							c-4.5,0-8.17,1.71-11.01,5.12c-0.97,1.23-1.76,2.5-2.37,3.83c-0.61,1.33-1.06,2.83-1.36,4.51c-0.3,1.68-0.45,3.38-0.45,5.1
							c0,5.14,1.42,9.41,4.26,12.82c2.87,3.36,6.51,5.03,10.93,5.03c2.37,0,4.68-0.63,6.95-1.88c2-1.14,4.13-3.09,6.39-5.86v19.12
							c-2.92,1.52-5.4,2.52-7.46,3.02c-2.55,0.67-5.05,1.01-7.49,1.01c-3.1,0-6.02-0.42-8.76-1.25c-2.73-0.83-5.18-2.09-7.34-3.78
							c-4.3-3.27-7.58-7.29-9.84-12.08c-2.26-4.96-3.38-10.46-3.38-16.5c0-4.84,0.74-9.29,2.21-13.35c0.66-1.95,1.49-3.8,2.5-5.54
							c1.01-1.74,2.32-3.54,3.92-5.4c2.76-3.15,5.86-5.48,9.3-7c3.42-1.55,7.21-2.32,11.39-2.32c2.39,0,4.89,0.32,7.49,0.96
							C286.94,3.39,289.42,4.41,291.82,5.69z"/>
						<path class="st0" d="M303.25,67.26V3.2h17.64v64.07H303.25z"/>
					</g>
				</g>
				<g>
					<path class="st0" d="M232.88,7.29"/>
				</g>
				<g>
					<path class="st1" d="M2.11,67.26L24.21,3.2h21.88l22.14,64.07H50.86L47.62,55.8H22.81l-3.33,11.47H2.11z M26.58,43.33h17.37
						l-6.52-21.14c-0.15-0.38-0.42-1.43-0.83-3.15c-0.5-2.01-0.95-3.84-1.36-5.47c-0.41,1.49-0.76,2.99-1.05,4.51
						c-0.47,1.46-0.86,2.83-1.18,4.11L26.58,43.33z"/>
					<path class="st1" d="M77.2,46.56c2.68,2.98,5.24,5.18,7.69,6.61c2.56,1.46,5.07,2.19,7.52,2.19c2.3,0,4.21-0.63,5.72-1.88
						c1.52-1.25,2.27-2.84,2.27-4.77c0-2.1-0.63-3.75-1.88-4.94c-1.34-1.14-4.3-2.32-8.87-3.55c-6.23-1.69-10.65-3.88-13.24-6.56
						c-2.62-2.74-3.93-6.48-3.93-11.2c0-6.13,2.05-11.12,6.16-14.97C82.7,3.61,88,1.67,94.56,1.67c3.7,0,7.05,0.48,10.05,1.44
						c3.16,0.96,6.16,2.39,9,4.29l-5.48,12.56c-1.92-1.66-3.96-2.95-6.12-3.85c-2.1-0.85-4.15-1.27-6.16-1.27
						c-2.04,0-3.75,0.51-5.11,1.53c-1.31,0.96-1.97,2.25-1.97,3.85c0,1.55,0.57,2.83,1.71,3.85c1.2,0.96,3.44,1.88,6.74,2.76
						c0.12,0.03,0.22,0.05,0.31,0.07c0.09,0.02,0.22,0.05,0.39,0.11c7.12,1.9,11.82,4.03,14.09,6.39c1.49,1.49,2.65,3.37,3.5,5.65
						c0.76,2.16,1.14,4.61,1.14,7.35c0,6.77-2.23,12.24-6.7,16.41c-4.49,4.11-10.44,6.17-17.85,6.17c-4.55,0-8.61-0.74-12.19-2.23
						c-3.57-1.49-7.1-3.88-10.57-7.18L77.2,46.56z"/>
					<path class="st1" d="M129.27,46.56c2.68,2.98,5.24,5.18,7.69,6.61c2.56,1.46,5.07,2.19,7.52,2.19c2.3,0,4.21-0.63,5.72-1.88
						c1.52-1.25,2.27-2.84,2.27-4.77c0-2.1-0.63-3.75-1.88-4.94c-1.34-1.14-4.3-2.32-8.87-3.55c-6.23-1.69-10.65-3.88-13.24-6.56
						c-2.62-2.74-3.93-6.48-3.93-11.2c0-6.13,2.05-11.12,6.16-14.97c4.05-3.88,9.36-5.82,15.91-5.82c3.7,0,7.05,0.48,10.05,1.44
						c3.16,0.96,6.16,2.39,9,4.29l-5.48,12.56c-1.92-1.66-3.96-2.95-6.12-3.85c-2.1-0.85-4.15-1.27-6.16-1.27
						c-2.04,0-3.75,0.51-5.11,1.53c-1.31,0.96-1.97,2.25-1.97,3.85c0,1.55,0.57,2.83,1.71,3.85c1.2,0.96,3.44,1.88,6.74,2.76
						c0.12,0.03,0.22,0.05,0.31,0.07c0.09,0.02,0.22,0.05,0.39,0.11c7.12,1.9,11.82,4.03,14.09,6.39c1.49,1.49,2.65,3.37,3.5,5.65
						c0.76,2.16,1.14,4.61,1.14,7.35c0,6.77-2.23,12.24-6.7,16.41c-4.49,4.11-10.44,6.17-17.85,6.17c-4.55,0-8.61-0.74-12.19-2.23
						c-3.57-1.49-7.1-3.88-10.57-7.18L129.27,46.56z"/>
				</g>
			</g>
		</g>
	</g>
	<g>
		<path class="st1" d="M192.62,28.75l0.11,0.04c3.62-7.83,12.64-11.85,21.01-9.05c3.35,1.12,6.11,3.17,8.12,5.77l5.93-17.72
			c-2.59-1.79-5.46-3.28-8.6-4.33c-17.97-6.02-37.42,3.67-43.44,21.64c-4.03,12.04-0.99,24.72,6.84,33.6L192.62,28.75z"/>
		<path class="st0" d="M233.98,13.3l-9.43,28.15c-3.01,8.99-12.73,13.83-21.72,10.82c-3.35-1.12-6.11-3.17-8.12-5.77l-5.93,17.72
			c2.59,1.79,5.46,3.28,8.6,4.33c17.97,6.02,37.42-3.67,43.44-21.64C244.86,34.87,241.82,22.19,233.98,13.3z"/>
	</g>
</g>
</svg>
