<?xml version="1.0" encoding="utf-8"?>
<!-- Generator: Adobe Illustrator 25.3.0, SVG Export Plug-In . SVG Version: 6.00 Build 0)  -->
<svg version="1.1" id="Calque_1" xmlns="http://www.w3.org/2000/svg" xmlns:xlink="http://www.w3.org/1999/xlink" x="0px" y="0px"
	 viewBox="0 0 400 105" style="enable-background:new 0 0 400 105;" xml:space="preserve">
<style type="text/css">
	.st0{fill:#219EBC;}
	.st1{fill:#FB8500;}
</style>
<g>
	<g>
		<path class="st0" d="M9.32,98.2l25.39-73.62h25.14L85.3,98.2H65.34l-3.72-13.17H33.11L29.28,98.2H9.32z M37.43,70.69h19.96
			L49.9,46.4c-0.17-0.44-0.49-1.64-0.96-3.62c-0.57-2.31-1.09-4.41-1.56-6.29c-0.47,1.71-0.87,3.44-1.21,5.18
			c-0.54,1.68-0.99,3.25-1.36,4.73L37.43,70.69z"/>
		<path class="st0" d="M95.6,74.41c3.08,3.42,6.03,5.95,8.84,7.59c2.95,1.68,5.82,2.51,8.64,2.51c2.65,0,4.84-0.72,6.58-2.16
			s2.61-3.27,2.61-5.48c0-2.41-0.72-4.31-2.16-5.68c-1.54-1.31-4.94-2.67-10.19-4.07c-7.16-1.94-12.23-4.46-15.21-7.54
			c-3.01-3.15-4.52-7.44-4.52-12.87c0-7.04,2.36-12.77,7.08-17.2c4.65-4.46,10.75-6.69,18.29-6.69c4.25,0,8.1,0.55,11.55,1.66
			c3.63,1.11,7.08,2.75,10.34,4.93l-6.3,14.43c-2.21-1.91-4.55-3.39-7.03-4.43c-2.41-0.97-4.77-1.46-7.08-1.46
			c-2.34,0-4.3,0.59-5.88,1.76c-1.51,1.11-2.26,2.58-2.26,4.43c0,1.78,0.65,3.25,1.96,4.42c1.37,1.11,3.96,2.16,7.74,3.17
			c0.13,0.03,0.25,0.06,0.35,0.08c0.1,0.02,0.25,0.06,0.45,0.13c8.18,2.18,13.58,4.63,16.19,7.34c1.71,1.71,3.05,3.87,4.02,6.49
			c0.87,2.48,1.31,5.3,1.31,8.45c0,7.78-2.56,14.06-7.69,18.86c-5.16,4.73-12,7.09-20.52,7.09c-5.23,0-9.9-0.85-14-2.56
			c-4.11-1.71-8.16-4.46-12.14-8.25L95.6,74.41z"/>
		<path class="st0" d="M155.44,74.41c3.08,3.42,6.03,5.95,8.84,7.59c2.95,1.68,5.82,2.51,8.64,2.51c2.65,0,4.84-0.72,6.58-2.16
			s2.61-3.27,2.61-5.48c0-2.41-0.72-4.31-2.16-5.68c-1.54-1.31-4.94-2.67-10.19-4.07c-7.16-1.94-12.23-4.46-15.21-7.54
			c-3.01-3.15-4.52-7.44-4.52-12.87c0-7.04,2.36-12.77,7.08-17.2c4.65-4.46,10.75-6.69,18.29-6.69c4.25,0,8.1,0.55,11.55,1.66
			c3.63,1.11,7.08,2.75,10.34,4.93l-6.3,14.43c-2.21-1.91-4.55-3.39-7.03-4.43c-2.41-0.97-4.77-1.46-7.08-1.46
			c-2.34,0-4.3,0.59-5.88,1.76c-1.51,1.11-2.26,2.58-2.26,4.43c0,1.78,0.65,3.25,1.96,4.42c1.37,1.11,3.96,2.16,7.74,3.17
			c0.13,0.03,0.25,0.06,0.35,0.08c0.1,0.02,0.25,0.06,0.45,0.13c8.18,2.18,13.58,4.63,16.19,7.34c1.71,1.71,3.05,3.87,4.02,6.49
			c0.87,2.48,1.31,5.3,1.31,8.45c0,7.78-2.56,14.06-7.69,18.86c-5.16,4.73-12,7.09-20.52,7.09c-5.23,0-9.9-0.85-14-2.56
			c-4.11-1.71-8.16-4.46-12.14-8.25L155.44,74.41z"/>
	</g>
	<g>
		<path class="st1" d="M359.57,27.44v21.92c-2.88-3.12-5.6-5.38-8.15-6.79c-2.85-1.37-5.8-2.06-8.85-2.06
			c-5.73,0-10.41,1.96-14.03,5.88c-1.24,1.41-2.25,2.88-3.02,4.4c-0.77,1.53-1.35,3.25-1.73,5.18c-0.39,1.93-0.58,3.88-0.58,5.86
			c0,5.9,1.81,10.81,5.43,14.73c3.65,3.86,8.3,5.78,13.93,5.78c3.02,0,5.97-0.72,8.85-2.16c2.55-1.31,5.26-3.55,8.15-6.74v21.98
			c-3.72,1.74-6.89,2.9-9.5,3.47c-3.25,0.77-6.44,1.16-9.55,1.16c-3.96,0-7.68-0.48-11.16-1.43c-3.49-0.96-6.6-2.41-9.35-4.35
			c-5.48-3.75-9.66-8.38-12.54-13.88c-2.88-5.7-4.31-12.02-4.31-18.96c0-5.56,0.94-10.68,2.81-15.34c0.84-2.25,1.9-4.37,3.19-6.36
			c1.29-1.99,2.96-4.06,5-6.21c3.52-3.62,7.47-6.3,11.86-8.05c4.35-1.78,9.2-2.67,14.52-2.67c3.05,0,6.23,0.37,9.55,1.11
			C353.36,24.8,356.52,25.97,359.57,27.44z"/>
		<path class="st1" d="M371.39,98.2V24.58h20.27V98.2H371.39z"/>
	</g>
	<path class="st1" d="M250.29,100.98"/>
	<path class="st1" d="M251.98,79.44"/>
	<circle class="st0" cx="230.7" cy="11.49" r="9.07"/>
	<circle class="st1" cx="274.02" cy="11.07" r="9.07"/>
	<g>
		<path class="st0" d="M238.05,25.25c-15.51,5.18-26.7,19.82-26.7,37.07c0,16.21,9.87,30.11,23.92,36.04
			C272.54,46.43,242.58,27.69,238.05,25.25z"/>
		<path class="st1" d="M265.35,26.19c0.25,0.45,0.5,0.9,0.76,1.37c16.39,30.22-15.87,60.74-29.08,71.5
			c4.18,1.53,8.7,2.36,13.41,2.36c21.59,0,39.09-17.5,39.09-39.09C289.53,46.02,279.54,32.05,265.35,26.19z"/>
	</g>
</g>
</svg>
