<svg width="280" height="62" viewBox="0 0 280 62" fill="none" xmlns="http://www.w3.org/2000/svg">
<path d="M252.972 4.89965V21.3297C251.013 18.996 249.167 17.2997 247.433 16.2405C245.491 15.2072 243.489 14.6991 241.408 14.6991C237.507 14.6991 234.326 16.1716 231.864 19.108C231.023 20.1672 230.338 21.2608 229.809 22.406C229.281 23.5513 228.89 24.843 228.63 26.2897C228.37 27.7363 228.24 29.2002 228.24 30.6813C228.24 35.1074 229.471 38.7844 231.933 41.7208C234.421 44.6141 237.576 46.0522 241.408 46.0522C243.463 46.0522 245.465 45.5097 247.433 44.4333C249.167 43.4516 251.013 41.7724 252.972 39.3872V55.8516C250.441 57.1605 248.291 58.0216 246.505 58.4522C244.295 59.0291 242.128 59.3219 240.012 59.3219C237.325 59.3219 234.794 58.9602 232.419 58.2455C230.052 57.5308 227.928 56.4458 226.056 54.9905C222.328 52.1747 219.485 48.713 217.526 44.5883C215.567 40.3172 214.596 35.581 214.596 30.3799C214.596 26.2122 215.237 22.3802 216.511 18.8841C217.084 17.2049 217.803 15.6119 218.679 14.1135C219.554 12.6152 220.69 11.0652 222.077 9.46354C224.469 6.75104 227.157 4.74466 230.139 3.43577C233.103 2.10104 236.389 1.43799 240.012 1.43799C242.084 1.43799 244.251 1.71354 246.505 2.26466C248.742 2.9191 250.892 3.79743 252.972 4.89965Z" fill="#FD4C6F"/>
<path d="M262.881 57.9182V2.75537H278.172V57.9268H262.881V57.9182Z" fill="#FD4C6F"/>
<path d="M1.83008 57.9182L20.988 2.75537H39.9552L59.1477 57.9268H44.0901L41.2815 48.0498H19.7744L16.8877 57.9268H1.83008V57.9182ZM23.0425 37.3118H38.1L32.448 19.1079C32.318 18.7806 32.0839 17.8765 31.7285 16.3954C31.2951 14.6645 30.905 13.0887 30.5496 11.6851C30.1942 12.9681 29.8908 14.2598 29.6394 15.5687C29.2319 16.8259 28.8939 18.0056 28.6165 19.1079L23.0425 37.3118Z" fill="white"/>
<path d="M66.923 40.0933C69.2462 42.6594 71.4654 44.5538 73.5893 45.7852C75.8085 47.0424 77.9843 47.671 80.1081 47.671C82.102 47.671 83.7577 47.1285 85.0667 46.0522C86.3843 44.9758 87.0345 43.6066 87.0345 41.9447C87.0345 40.1363 86.4883 38.7155 85.4047 37.6908C84.2431 36.7091 81.6772 35.693 77.7156 34.6338C72.315 33.1785 68.4834 31.2927 66.2382 28.9849C63.967 26.6255 62.8314 23.4049 62.8314 19.3405C62.8314 14.0619 64.6084 9.76493 68.1713 6.44965C71.6908 3.10854 76.2852 1.43799 81.9719 1.43799C85.1793 1.43799 88.0834 1.85132 90.684 2.67799C93.4233 3.50465 96.0239 4.73604 98.4859 6.37215L93.7354 17.1877C92.071 15.7583 90.3026 14.6474 88.4301 13.8724C86.6097 13.1405 84.8326 12.7788 83.0902 12.7788C81.3218 12.7788 79.8394 13.218 78.6605 14.0963C77.5249 14.923 76.9527 16.0338 76.9527 17.4116C76.9527 18.7463 77.4468 19.8485 78.4351 20.7269C79.4753 21.5535 81.4171 22.3458 84.2778 23.1035C84.3818 23.1294 84.4685 23.1466 84.5465 23.1638C84.6245 23.181 84.7372 23.2069 84.8846 23.2585C91.0567 24.8947 95.1311 26.7288 97.0989 28.761C98.3905 30.0441 99.3961 31.663 100.133 33.6263C100.792 35.4863 101.121 37.596 101.121 39.9555C101.121 45.7852 99.188 50.4955 95.3131 54.0863C91.4208 57.6255 86.2629 59.3994 79.8394 59.3994C75.8951 59.3994 72.3756 58.7622 69.2722 57.4791C66.1775 56.196 63.1174 54.138 60.1094 51.2963L66.923 40.0933Z" fill="white"/>
<path d="M112.063 40.0933C114.386 42.6594 116.605 44.5538 118.729 45.7852C120.948 47.0424 123.124 47.671 125.248 47.671C127.241 47.671 128.897 47.1285 130.206 46.0522C131.524 44.9758 132.174 43.6066 132.174 41.9447C132.174 40.1363 131.628 38.7155 130.544 37.6908C129.383 36.7091 126.817 35.693 122.855 34.6338C117.454 33.1785 113.623 31.2927 111.378 28.9849C109.106 26.6255 107.971 23.4049 107.971 19.3405C107.971 14.0619 109.748 9.76493 113.311 6.44965C116.822 3.10854 121.425 1.43799 127.103 1.43799C130.31 1.43799 133.214 1.85132 135.815 2.67799C138.554 3.50465 141.155 4.73604 143.617 6.37215L138.866 17.1877C137.202 15.7583 135.433 14.6474 133.561 13.8724C131.741 13.1405 129.963 12.7788 128.221 12.7788C126.453 12.7788 124.97 13.218 123.791 14.0963C122.656 14.923 122.084 16.0338 122.084 17.4116C122.084 18.7463 122.578 19.8485 123.566 20.7269C124.606 21.5535 126.548 22.3458 129.409 23.1035C129.513 23.1294 129.599 23.1466 129.677 23.1638C129.755 23.181 129.868 23.2069 130.015 23.2585C136.188 24.8947 140.262 26.7288 142.23 28.761C143.521 30.0441 144.527 31.663 145.264 33.6263C145.923 35.4863 146.252 37.596 146.252 39.9555C146.252 45.7852 144.319 50.4955 140.444 54.0863C136.552 57.6255 131.394 59.3994 124.97 59.3994C121.026 59.3994 117.506 58.7622 114.403 57.4791C111.308 56.196 108.248 54.138 105.24 51.2963L112.063 40.0933Z" fill="white"/>
<path d="M166.977 24.7569L167.073 24.7913C170.211 18.0488 178.03 14.5871 185.286 16.9983C188.19 17.9627 190.582 19.728 192.325 21.9669L197.465 6.70797C195.22 5.16659 192.732 3.88353 190.01 2.97936C174.433 -2.20453 157.572 6.13964 152.353 21.6138C148.86 31.9816 151.495 42.9005 158.283 50.5471L166.977 24.7569Z" fill="white"/>
<path d="M202.831 11.4526L194.656 35.6929C192.047 43.4343 183.621 47.6021 175.828 45.0101C172.924 44.0457 170.531 42.2804 168.789 40.0415L163.648 55.3004C165.894 56.8418 168.382 58.1249 171.104 59.029C186.681 64.2129 203.542 55.8687 208.761 40.3946C212.263 30.0268 209.627 19.1079 202.831 11.4526Z" fill="#FD4C6F"/>
</svg>
