<svg width="280" height="75" viewBox="0 0 280 75" fill="none" xmlns="http://www.w3.org/2000/svg">
<path d="M2.83842 70.0031L21.0538 16.9829H39.0923L57.3461 70.0031H43.0231L40.3538 60.5112H19.9L17.1615 70.0031H2.83842ZM23 50.1929H37.3231L31.9461 32.6997C31.823 32.3831 31.6 31.5181 31.2615 30.0893C30.8538 28.4211 30.4769 26.915 30.1461 25.5635C29.8077 26.7915 29.523 28.0349 29.2769 29.2938C28.8923 30.4986 28.5692 31.6339 28.3 32.6997L23 50.1929Z" fill="#57B9B3"/>
<path d="M64.7231 52.8733C66.9308 55.337 69.0462 57.1597 71.0616 58.3414C73.177 59.5462 75.2385 60.1486 77.2539 60.1486C79.1539 60.1486 80.7231 59.6312 81.9693 58.5885C83.2154 57.5536 83.8462 56.2329 83.8462 54.6419C83.8462 52.9042 83.3308 51.5372 82.3 50.5486C81.1923 49.6064 78.7616 48.6255 74.9923 47.6138C69.8539 46.2159 66.2154 44.4009 64.077 42.1843C61.9154 39.9137 60.8385 36.8244 60.8385 32.9164C60.8385 27.85 62.5308 23.718 65.9154 20.5283C69.2539 17.3154 73.6231 15.709 79.0308 15.709C82.0846 15.709 84.8462 16.1106 87.3154 16.9061C89.9231 17.7016 92.3923 18.8832 94.7308 20.4588L90.2077 30.8543C88.6231 29.4796 86.9385 28.4137 85.1616 27.6646C83.4308 26.9618 81.7385 26.6142 80.0846 26.6142C78.4 26.6142 77 27.039 75.8693 27.8808C74.7846 28.6763 74.2462 29.7422 74.2462 31.0706C74.2462 32.3526 74.7154 33.4107 75.6539 34.2603C76.6385 35.0558 78.4923 35.8204 81.2077 36.5386C81.3 36.5618 81.3846 36.585 81.4616 36.5927C81.5308 36.6081 81.6385 36.6313 81.7846 36.6854C87.6539 38.2532 91.5231 40.0141 93.4 41.9758C94.6231 43.2038 95.5846 44.7639 96.2846 46.6484C96.9077 48.4324 97.2231 50.4637 97.2231 52.7343C97.2231 58.3337 95.3846 62.8595 91.7077 66.3118C88.0077 69.7178 83.1 71.4169 76.9923 71.4169C73.2385 71.4169 69.8923 70.799 66.9462 69.571C64 68.343 61.1 66.3581 58.2385 63.6318L64.7231 52.8733Z" fill="#57B9B3"/>
<path d="M107.654 52.8733C109.861 55.337 111.977 57.1597 113.992 58.3414C116.108 59.5462 118.169 60.1486 120.185 60.1486C122.085 60.1486 123.654 59.6312 124.9 58.5885C126.146 57.5536 126.777 56.2329 126.777 54.6419C126.777 52.9042 126.261 51.5372 125.231 50.5486C124.123 49.6064 121.692 48.6255 117.923 47.6138C112.785 46.2159 109.146 44.4009 107.008 42.1843C104.846 39.9137 103.769 36.8244 103.769 32.9164C103.769 27.85 105.461 23.718 108.846 20.5283C112.185 17.3154 116.554 15.709 121.961 15.709C125.015 15.709 127.777 16.1106 130.246 16.9061C132.854 17.7016 135.323 18.8832 137.661 20.4588L133.138 30.8543C131.554 29.4796 129.869 28.4137 128.092 27.6646C126.361 26.9618 124.669 26.6142 123.015 26.6142C121.331 26.6142 119.931 27.039 118.8 27.8808C117.715 28.6763 117.177 29.7422 117.177 31.0706C117.177 32.3526 117.646 33.4107 118.585 34.2603C119.569 35.0558 121.423 35.8204 124.138 36.5386C124.231 36.5618 124.315 36.585 124.392 36.5927C124.461 36.6081 124.569 36.6313 124.715 36.6854C130.585 38.2532 134.454 40.0141 136.331 41.9758C137.554 43.2038 138.515 44.7639 139.215 46.6484C139.838 48.4324 140.154 50.4637 140.154 52.7343C140.154 58.3337 138.315 62.8595 134.638 66.3118C130.938 69.7178 126.031 71.4169 119.923 71.4169C116.169 71.4169 112.823 70.799 109.877 69.571C106.931 68.343 104.031 66.3581 101.169 63.6318L107.654 52.8733Z" fill="#57B9B3"/>
<path d="M254.077 19.0528V34.8469C252.008 32.5994 250.061 30.9698 248.231 29.9581C246.185 28.9695 244.069 28.4752 241.885 28.4752C237.769 28.4752 234.415 29.8886 231.823 32.7153C230.931 33.727 230.215 34.7851 229.661 35.8818C229.108 36.9785 228.692 38.222 228.415 39.6122C228.138 41.0024 228 42.408 228 43.8291C228 48.0769 229.3 51.6141 231.892 54.4408C234.515 57.2212 237.846 58.6037 241.885 58.6037C244.046 58.6037 246.161 58.0862 248.231 57.0436C250.061 56.1013 252.008 54.4872 254.077 52.1934V68.0183C251.408 69.2772 249.138 70.1036 247.261 70.5207C244.931 71.0767 242.646 71.3548 240.408 71.3548C237.569 71.3548 234.9 71.0072 232.4 70.3199C229.9 69.6325 227.661 68.5898 225.692 67.1842C221.762 64.4811 218.762 61.1446 216.7 57.1903C214.638 53.0893 213.608 48.5325 213.608 43.5356C213.608 39.5272 214.277 35.8432 215.623 32.4913C216.223 30.8772 216.985 29.348 217.915 27.9114C218.838 26.4749 220.038 24.9843 221.5 23.4397C224.023 20.8292 226.854 18.8984 230.008 17.6472C233.131 16.3652 236.6 15.7241 240.423 15.7241C242.608 15.7241 244.892 15.9867 247.269 16.5196C249.615 17.1452 251.885 17.987 254.077 19.0528Z" fill="#F0F1FE"/>
<path d="M262.554 70.0026V16.9824H277.092V70.0026H262.554Z" fill="#F0F1FE"/>
<path d="M161.638 14.087C165.228 14.087 168.138 11.1651 168.138 7.56082C168.138 3.95653 165.228 1.03467 161.638 1.03467C158.049 1.03467 155.138 3.95653 155.138 7.56082C155.138 11.1651 158.049 14.087 161.638 14.087Z" fill="#57B9B3"/>
<path d="M192.708 13.7857C196.298 13.7857 199.208 10.8638 199.208 7.25955C199.208 3.65526 196.298 0.733398 192.708 0.733398C189.118 0.733398 186.208 3.65526 186.208 7.25955C186.208 10.8638 189.118 13.7857 192.708 13.7857Z" fill="#F0F1FE"/>
<path d="M167.161 17.6093C167 17.5166 166.808 17.5012 166.631 17.563C155.646 21.3782 147.754 31.8433 147.754 44.1696C147.754 55.6541 154.6 65.5321 164.423 69.9112C164.708 70.0348 165.046 69.9344 165.223 69.6872C190.877 33.4806 171.108 19.8568 167.161 17.6093Z" fill="#57B9B3"/>
<path d="M186.492 18.1499C186.669 18.4743 186.854 18.7987 187.038 19.1308C198.792 40.8949 175.654 62.8753 166.184 70.6217C169.184 71.7184 172.423 72.3209 175.8 72.3209C191.285 72.3209 203.838 59.7165 203.838 44.1696C203.831 32.4302 196.669 22.3668 186.492 18.1499Z" fill="#F0F1FE"/>
</svg>
