<svg width="417" height="314" viewBox="0 0 417 314" fill="none" xmlns="http://www.w3.org/2000/svg">
<path d="M355.857 31.5742C352.739 40.8065 347.958 49.2186 338.215 49.2186C328.473 49.2186 321.123 41.3034 320.574 31.5742C319.873 19.1421 328.248 13.8783 338.215 13.9298C349.991 13.9906 359.557 20.6176 355.857 31.5742Z" fill="#093046"/>
<path d="M355.392 30.1812H320.574V74.2922H355.392V30.1812Z" fill="#093046"/>
<path d="M263.289 164.854H139.667L108.031 313.812H294.925L263.289 164.854Z" fill="#F9F9F9"/>
<path d="M294.924 148.57C294.924 151.26 277.563 153.573 252.841 154.55C245.991 154.821 238.58 154.993 230.813 155.037C229.328 155.047 227.831 155.053 226.324 155.053C188.438 155.053 157.725 152.152 157.725 148.57C157.725 144.988 188.438 142.087 226.324 142.087C264.211 142.087 294.924 144.988 294.924 148.57Z" fill="#093046"/>
<path d="M157.218 148.462L122.066 313.771L123.123 313.996L158.275 148.687L157.218 148.462Z" fill="#093046"/>
<path d="M295.454 148.458L294.396 148.682L329.507 314L330.564 313.775L295.454 148.458Z" fill="#093046"/>
<path d="M417 312.807H0V313.888H417V312.807Z" fill="#093046"/>
<path d="M214.573 149.042L212.354 148.315C204.437 145.645 199.236 143.94 197.383 139.764C197.016 138.975 196.812 138.121 196.781 137.252C196.751 136.383 196.895 135.517 197.205 134.704C197.515 133.892 197.985 133.15 198.587 132.523C199.189 131.895 199.911 131.395 200.709 131.052C201.649 130.64 202.668 130.439 203.693 130.461C204.719 130.483 205.728 130.728 206.649 131.179C206.933 130.193 207.429 129.28 208.101 128.505C208.773 127.73 209.606 127.11 210.541 126.689C211.332 126.327 212.187 126.128 213.056 126.103C213.925 126.077 214.79 126.227 215.6 126.542C216.411 126.857 217.15 127.331 217.773 127.937C218.397 128.543 218.893 129.268 219.231 130.069C221.084 134.246 218.857 139.247 215.523 146.909L214.573 149.042Z" fill="#FD4C6F"/>
<path d="M252.842 154.551C245.993 154.821 238.582 154.994 230.814 155.037C231.519 153.99 232.506 153.166 233.661 152.66C234.601 152.249 235.618 152.047 236.644 152.07C237.669 152.092 238.677 152.338 239.597 152.789C239.883 151.804 240.379 150.892 241.051 150.117C241.724 149.341 242.557 148.722 243.492 148.3C244.283 147.938 245.138 147.739 246.007 147.714C246.876 147.689 247.742 147.838 248.552 148.154C249.362 148.469 250.101 148.944 250.725 149.55C251.349 150.156 251.844 150.881 252.183 151.682C252.583 152.588 252.806 153.561 252.842 154.551Z" fill="#FD4C6F"/>
<path d="M216.177 80.4148L215.264 79.7255C212.019 77.2297 209.879 75.6127 209.683 73.3822C209.639 72.9585 209.68 72.5301 209.804 72.1225C209.928 71.7148 210.132 71.3362 210.405 71.009C210.678 70.6818 211.013 70.4127 211.392 70.2175C211.771 70.0224 212.185 69.9052 212.61 69.873C213.111 69.8318 213.615 69.9002 214.086 70.0734C214.558 70.2467 214.987 70.5205 215.342 70.876C215.631 70.4642 216.005 70.12 216.44 69.8675C216.875 69.615 217.359 69.4601 217.86 69.4136C218.284 69.3716 218.712 69.4151 219.118 69.5415C219.525 69.6679 219.903 69.8746 220.228 70.1495C220.554 70.4244 220.821 70.7617 221.013 71.1417C221.206 71.5216 221.321 71.9363 221.351 72.3614C221.546 74.5918 219.719 76.5559 216.956 79.5775L216.177 80.4148Z" fill="#FD4C6F"/>
<path d="M230.222 43.6775L229.309 42.9882C226.063 40.4924 223.923 38.8754 223.728 36.6449C223.684 36.2212 223.725 35.7928 223.849 35.3852C223.973 34.9775 224.177 34.5989 224.45 34.2717C224.723 33.9445 225.058 33.6754 225.437 33.4802C225.816 33.2851 226.23 33.1679 226.654 33.1357C227.155 33.0945 227.659 33.1629 228.131 33.3361C228.603 33.5093 229.032 33.7832 229.387 34.1387C229.676 33.7269 230.05 33.3827 230.485 33.1302C230.92 32.8776 231.404 32.7228 231.905 32.6763C232.328 32.6343 232.757 32.6778 233.163 32.8042C233.57 32.9306 233.947 33.1373 234.273 33.4122C234.598 33.687 234.865 34.0244 235.058 34.4043C235.251 34.7843 235.366 35.199 235.395 35.624C235.59 37.8545 233.764 39.8186 231.001 42.8402L230.222 43.6775Z" fill="#FD4C6F"/>
<path d="M233.502 110.87L233.163 108.948C232.01 102.054 231.216 97.5449 233.566 94.5312C234.003 93.9499 234.552 93.4623 235.181 93.0971C235.81 92.7319 236.505 92.4966 237.227 92.4051C237.948 92.3136 238.68 92.3678 239.38 92.5644C240.08 92.7611 240.734 93.0962 241.302 93.5499C241.976 94.0813 242.526 94.7529 242.914 95.5182C243.302 96.2836 243.52 97.1243 243.55 97.9819C244.389 97.8027 245.258 97.8084 246.094 97.9984C246.931 98.1885 247.716 98.5584 248.396 99.0826C248.974 99.5232 249.459 100.075 249.82 100.706C250.181 101.338 250.412 102.035 250.499 102.757C250.586 103.479 250.528 104.211 250.327 104.91C250.126 105.609 249.787 106.26 249.33 106.826C246.98 109.84 242.414 110.169 235.449 110.731L233.502 110.87Z" fill="#FD4C6F"/>
<path d="M68.54 313.595L67.5799 313.099C80.0478 288.991 73.3808 257.683 65.5929 235.664C60.3046 220.864 53.5596 206.626 45.457 193.159L46.3701 192.582C54.5147 206.117 61.2949 220.427 66.6109 235.303C74.4706 257.523 81.1846 289.144 68.54 313.595Z" fill="#093046"/>
<path d="M77.7836 192.774L70.7754 231.135L71.8378 231.329L78.846 192.968L77.7836 192.774Z" fill="#093046"/>
<path d="M31.1837 225.458L30.3926 226.194L66.5829 265.093L67.374 264.356L31.1837 225.458Z" fill="#093046"/>
<path d="M96.2454 268.187L77.8887 293.585L78.7643 294.218L97.121 268.82L96.2454 268.187Z" fill="#093046"/>
<path d="M81.0227 182.606C84.0058 182.606 86.4242 180.187 86.4242 177.203C86.4242 174.22 84.0058 171.801 81.0227 171.801C78.0395 171.801 75.6211 174.22 75.6211 177.203C75.6211 180.187 78.0395 182.606 81.0227 182.606Z" fill="#404DEF"/>
<path d="M22.1457 224.205C25.1289 224.205 27.5473 221.787 27.5473 218.803C27.5473 215.819 25.1289 213.4 22.1457 213.4C19.1625 213.4 16.7441 215.819 16.7441 218.803C16.7441 221.787 19.1625 224.205 22.1457 224.205Z" fill="#093046"/>
<path d="M45.9133 229.608C48.8965 229.608 51.3148 227.189 51.3148 224.205C51.3148 221.222 48.8965 218.803 45.9133 218.803C42.9301 218.803 40.5117 221.222 40.5117 224.205C40.5117 227.189 42.9301 229.608 45.9133 229.608Z" fill="#093046"/>
<path d="M35.1105 250.678C38.0937 250.678 40.5121 248.259 40.5121 245.275C40.5121 242.292 38.0937 239.873 35.1105 239.873C32.1273 239.873 29.709 242.292 29.709 245.275C29.709 248.259 32.1273 250.678 35.1105 250.678Z" fill="#404DEF"/>
<path d="M102.63 264.184C105.613 264.184 108.032 261.765 108.032 258.782C108.032 255.798 105.613 253.379 102.63 253.379C99.6469 253.379 97.2285 255.798 97.2285 258.782C97.2285 261.765 99.6469 264.184 102.63 264.184Z" fill="#093046"/>
<path d="M84.8039 270.127C87.7871 270.127 90.2055 267.708 90.2055 264.724C90.2055 261.741 87.7871 259.322 84.8039 259.322C81.8207 259.322 79.4023 261.741 79.4023 264.724C79.4023 267.708 81.8207 270.127 84.8039 270.127Z" fill="#093046"/>
<path d="M97.2277 287.415C100.211 287.415 102.629 284.996 102.629 282.013C102.629 279.029 100.211 276.61 97.2277 276.61C94.2445 276.61 91.8262 279.029 91.8262 282.013C91.8262 284.996 94.2445 287.415 97.2277 287.415Z" fill="#093046"/>
<path d="M40.5109 189.089C43.4941 189.089 45.9125 186.67 45.9125 183.686C45.9125 180.703 43.4941 178.284 40.5109 178.284C37.5277 178.284 35.1094 180.703 35.1094 183.686C35.1094 186.67 37.5277 189.089 40.5109 189.089Z" fill="#093046"/>
<path d="M356.416 63.0441H359.377C359.377 63.0441 366.616 72.2594 363.326 84.7658C360.035 97.2722 362.668 99.576 362.668 99.576C362.668 99.576 366.952 113.119 362.345 133.524C357.738 153.93 366.616 159.475 366.616 159.475L358.39 143.019L353.783 99.576L356.416 63.0441Z" fill="#404DEF"/>
<path opacity="0.1" d="M356.416 63.0609H359.377C359.377 63.0609 366.616 72.2762 363.326 84.7826C360.035 97.289 362.668 99.5928 362.668 99.5928C362.668 99.5928 366.952 113.136 362.345 133.541C357.738 153.946 366.616 159.492 366.616 159.492L358.39 143.036L353.783 99.5928L356.416 63.0609Z" fill="black"/>
<path d="M346.049 47.082C346.049 47.082 343.417 57.6137 344.733 57.6137C346.049 57.6137 350.656 63.2087 350.656 63.2087L353.617 74.0695L351.314 81.9683L343.417 80.3227L333.545 69.4619L330.584 66.4998L327.951 56.9555C327.951 56.9555 331.242 53.0061 328.938 49.7149C326.635 46.4238 346.049 47.082 346.049 47.082Z" fill="#FBBEBE"/>
<path opacity="0.1" d="M346.049 47.082C346.049 47.082 343.417 57.6137 344.733 57.6137C346.049 57.6137 350.656 63.2087 350.656 63.2087L353.617 74.0695L351.314 81.9683L343.417 80.3227L333.545 69.4619L330.584 66.4998L327.951 56.9555C327.951 56.9555 331.242 53.0061 328.938 49.7149C326.635 46.4238 346.049 47.082 346.049 47.082Z" fill="black"/>
<path d="M266.419 76.3733L259.18 64.5251C259.18 64.5251 251.366 47.232 245.772 53.4851C240.178 59.7383 254.244 72.4239 254.244 72.4239L261.484 81.9683L266.419 76.3733Z" fill="#FBBEBE"/>
<path d="M362.502 179.386L357.237 217.893C357.237 217.893 357.895 220.855 351.314 231.716C344.733 242.577 326.964 266.273 326.964 266.273L321.699 256.4C321.699 256.4 327.951 225.134 338.81 218.551L337.494 171.159L362.502 179.386Z" fill="#FBBEBE"/>
<path opacity="0.1" d="M362.502 179.386L357.237 217.893C357.237 217.893 357.895 220.855 351.314 231.716C344.733 242.577 326.964 266.273 326.964 266.273L321.699 256.4C321.699 256.4 327.951 225.134 338.81 218.551L337.494 171.159L362.502 179.386Z" fill="black"/>
<path d="M321.7 252.45L328.939 266.273C328.939 266.273 323.016 283.058 325.319 284.703C327.623 286.349 330.584 301.159 324.332 299.514C318.08 297.868 313.144 291.286 313.144 290.298C313.144 289.311 316.764 275.488 314.79 272.197C312.815 268.906 311.499 267.919 311.499 267.919L306.563 276.146L304.918 275.159L313.144 261.336C313.144 261.336 314.132 258.703 318.08 257.058L321.7 252.45Z" fill="#093046"/>
<path opacity="0.1" d="M321.7 252.45L328.939 266.273C328.939 266.273 323.016 283.058 325.319 284.703C327.623 286.349 330.584 301.159 324.332 299.514C318.08 297.868 313.144 291.286 313.144 290.298C313.144 289.311 316.764 275.488 314.79 272.197C312.815 268.906 311.499 267.919 311.499 267.919L306.563 276.146L304.918 275.159L313.144 261.336C313.144 261.336 314.132 258.703 318.08 257.058L321.7 252.45Z" fill="black"/>
<path d="M337.57 173.923C337.57 173.923 340.126 210.323 334.532 219.868V267.26L326.964 268.248C326.964 268.248 314.13 242.577 319.724 217.893C325.318 193.209 311.498 171.159 311.498 171.159L337.57 173.923Z" fill="#FBBEBE"/>
<path d="M335.686 55.1453C343.318 55.1453 349.506 48.9566 349.506 41.3225C349.506 33.6883 343.318 27.4996 335.686 27.4996C328.053 27.4996 321.865 33.6883 321.865 41.3225C321.865 48.9566 328.053 55.1453 335.686 55.1453Z" fill="#FBBEBE"/>
<path d="M349.669 77.6898L335.849 60.2466L327.952 54.9808L324.661 59.2593L315.447 61.8922C315.447 61.8922 309.524 63.2087 303.272 70.4492C297.02 77.6897 285.832 81.9683 285.832 81.9683L276.619 80.3227C276.619 80.3227 265.76 75.3859 265.76 74.0695C265.76 72.753 256.217 82.9556 258.521 86.905C260.824 90.8544 265.76 95.7911 268.392 98.424C271.025 101.057 272.012 108.627 288.136 106.323C304.26 104.019 310.183 96.1202 310.183 96.1202C310.183 96.1202 313.144 111.26 321.7 114.222C330.255 117.184 358.225 119.158 358.225 119.158L364.148 99.4114C364.148 99.4114 370.729 90.8544 361.844 78.348C361.844 78.348 361.674 71.3535 360.719 66.6992C360.347 64.8889 359.857 63.4326 359.212 62.8796C356.909 60.9049 344.733 57.6137 344.733 57.6137C344.733 57.6137 346.708 64.196 347.695 64.5251C348.682 64.8543 350.985 76.0442 349.669 77.6898Z" fill="#404DEF"/>
<path d="M305.411 175.931C321.983 174.779 331.63 177.494 335.935 179.564C336.735 179.926 337.488 180.384 338.179 180.927C338.495 181.193 338.646 181.401 338.646 181.526C338.646 182.513 361.351 184.488 369.577 182.513C377.804 180.538 363.983 138.082 360.364 134.462C356.744 130.842 358.695 117.592 358.695 117.592C358.695 117.592 351.479 116.032 349.505 116.69C347.53 117.348 337.33 115.703 333.71 113.728C330.091 111.753 325.484 113.07 322.522 112.411C321.199 112.119 320.531 112.612 320.199 113.251C319.682 114.208 318.901 114.998 317.948 115.525C310.963 119.55 305.355 147.38 301.134 162.766C296.527 179.551 305.411 175.931 305.411 175.931Z" fill="#093046"/>
<path d="M335.849 264.298L337.166 271.539C337.166 271.539 344.076 281.412 342.101 289.64C342.101 289.64 343.747 300.501 349.67 303.463C355.593 306.425 350.657 313.337 345.063 313.007C339.469 312.678 334.204 313.337 333.546 311.691C332.888 310.045 328.939 293.919 328.939 293.919L327.859 312.79L324.568 313.119L325.649 291.286C325.649 291.286 323.016 286.349 326.636 278.121L325.722 265.492C325.722 265.492 334.862 267.589 335.849 264.298Z" fill="#093046"/>
<path opacity="0.1" d="M335.934 179.564C336.734 179.926 337.487 180.384 338.178 180.927C338.352 177.817 339.359 159.008 338.151 159.31L335.934 179.564Z" fill="black"/>
<path d="M329.962 22.2877C329.962 22.2877 329.809 21.4355 323.823 23.6806C317.837 25.9258 314.249 42.4941 317.242 52.2231C318.448 56.1438 317.467 58.9707 315.865 60.9486C309.856 68.3709 312.222 79.5189 320.975 83.3357C321.222 83.4435 321.474 83.55 321.731 83.6552L325.473 85.9004C325.473 85.9004 320.703 79.6239 323.09 71.5951C325.163 64.7542 325.419 57.4914 323.833 50.5216C323.559 49.3458 323.248 48.1338 322.895 46.897C319.902 36.4196 321.357 37.6295 331.833 27.1522C331.833 27.1522 337.819 31.6425 343.057 33.8876C348.294 36.1328 352.784 38.3779 349.043 45.8618C345.301 53.3456 336.322 60.0811 342.308 69.8101C348.294 79.5391 349.043 75.7972 348.294 79.5391L347.546 83.281L352.036 78.7907L349.043 84.7778C349.043 84.7778 358.77 84.7778 361.763 77.2939L363.259 78.7907C363.259 78.7907 369.245 68.3133 358.022 58.5843C358.022 58.5843 354.28 56.3392 359.518 48.8553C364.756 41.3715 360.733 25.2812 353.999 22.2876C347.265 19.2941 329.962 22.2877 329.962 22.2877Z" fill="#093046"/>
<path d="M338.216 17.6444C342.061 17.6444 345.179 14.5261 345.179 10.6795C345.179 6.83292 342.061 3.71463 338.216 3.71463C334.37 3.71463 331.252 6.83292 331.252 10.6795C331.252 14.5261 334.37 17.6444 338.216 17.6444Z" fill="#093046"/>
<path d="M329.86 6.9649C329.86 5.23833 330.501 3.57336 331.659 2.29293C332.817 1.0125 334.409 0.207889 336.127 0.0351719C335.898 0.0124135 335.666 0 335.43 0C333.584 0 331.812 0.733798 330.506 2.03997C329.2 3.34614 328.467 5.11769 328.467 6.9649C328.467 8.8121 329.2 10.5837 330.506 11.8898C331.812 13.196 333.584 13.9298 335.43 13.9298C335.666 13.9298 335.898 13.9174 336.127 13.8946C334.409 13.7219 332.817 12.9173 331.659 11.6369C330.501 10.3564 329.86 8.69145 329.86 6.9649Z" fill="#093046"/>
<path d="M248.046 58.8046L247.133 58.1153C243.888 55.6195 241.748 54.0025 241.553 51.772C241.508 51.3483 241.549 50.92 241.673 50.5123C241.797 50.1047 242.001 49.726 242.274 49.3988C242.547 49.0716 242.883 48.8025 243.261 48.6074C243.64 48.4122 244.054 48.2951 244.479 48.2628C244.98 48.2217 245.484 48.2901 245.956 48.4633C246.427 48.6365 246.856 48.9103 247.212 49.2659C247.5 48.854 247.874 48.5099 248.309 48.2573C248.744 48.0048 249.228 47.8499 249.729 47.8034C250.153 47.7614 250.581 47.8049 250.987 47.9313C251.394 48.0577 251.772 48.2645 252.097 48.5393C252.423 48.8142 252.69 49.1516 252.882 49.5315C253.075 49.9114 253.19 50.3262 253.22 50.7512C253.415 52.9817 251.588 54.9457 248.825 57.9673L248.046 58.8046Z" fill="#FD4C6F"/>
<path d="M398.699 226.438C403.101 226.438 406.669 222.869 406.669 218.467C406.669 214.064 403.101 210.495 398.699 210.495C394.297 210.495 390.729 214.064 390.729 218.467C390.729 222.869 394.297 226.438 398.699 226.438Z" fill="#F9F9F9"/>
<path d="M177.234 55.178C181.636 55.178 185.204 51.6089 185.204 47.2062C185.204 42.8035 181.636 39.2345 177.234 39.2345C172.832 39.2345 169.264 42.8035 169.264 47.2062C169.264 51.6089 172.832 55.178 177.234 55.178Z" fill="#F9F9F9"/>
<path d="M99.9918 145.4C104.394 145.4 107.962 141.831 107.962 137.429C107.962 133.026 104.394 129.457 99.9918 129.457C95.5899 129.457 92.0215 133.026 92.0215 137.429C92.0215 141.831 95.5899 145.4 99.9918 145.4Z" fill="#F9F9F9"/>
</svg>
