<svg width="104" height="104" viewBox="0 0 104 104" fill="none" xmlns="http://www.w3.org/2000/svg">
<path d="M103.576 44.1301L86.1695 21.2132C85.5252 20.3657 84.3501 20.1566 83.4591 20.7307L72.2205 27.9746H57.563C57.3734 27.9746 57.1845 28.0156 57.002 28.0695L45.6374 31.385L33.845 28.1161L22.3867 20.7307C21.5107 20.1662 20.357 20.3576 19.7056 21.1762L0.452388 45.346C-0.239506 46.2145 -0.125249 47.4826 0.709468 48.2104L10.8006 57.0119L19.854 69.3766C17.2062 72.2354 17.2578 76.7443 20.0127 79.5371C21.2338 80.7739 22.7866 81.4727 24.3838 81.6352C24.3283 82.0019 24.2997 82.3742 24.2997 82.7521C24.2997 84.703 25.0495 86.5373 26.4103 87.9164C27.7719 89.2964 29.5818 90.0563 31.5067 90.0563C31.5329 90.0563 31.5583 90.0547 31.5837 90.0539C31.5829 90.1037 31.5805 90.1528 31.5805 90.2026C31.5805 92.1535 32.3303 93.9878 33.6911 95.3677C35.0526 96.7469 36.8625 97.5068 38.7874 97.5068C39.1675 97.5068 39.5436 97.4754 39.9126 97.4175C40.0689 99.0419 40.76 100.623 41.9851 101.865C43.3895 103.289 45.2351 104 47.0807 104C48.9262 104 50.7718 103.289 52.177 101.865L53.2791 100.748L53.7417 101.125C55.135 102.493 56.9441 103.177 58.7532 103.177C60.5988 103.177 62.4444 102.465 63.8488 101.041C65.2825 99.588 65.9848 97.67 65.9554 95.7618C67.8375 95.7907 69.7307 95.0798 71.1644 93.6275C72.5966 92.1752 73.2988 90.2589 73.2711 88.3515C75.2317 88.3828 77.0916 87.6197 78.4793 86.2132C79.9131 84.7601 80.6153 82.8422 80.5859 80.9339C82.4696 80.9629 84.3612 80.252 85.795 78.7989C88.242 76.3189 88.557 72.4855 86.7424 69.6556L93.3527 55.6247L103.291 46.9575C104.112 46.241 104.237 44.9994 103.576 44.1301ZM21.7345 25.2091L29.9737 30.5189L12.0503 52.6493L4.86797 46.3841L21.7345 25.2091ZM22.8969 72.13L25.3836 69.6098C25.459 69.5334 25.5383 69.461 25.6192 69.3935C26.1056 68.9914 26.6944 68.7518 27.318 68.6947C27.3355 68.6931 27.3537 68.6931 27.3712 68.6922C27.4601 68.685 27.5489 68.6802 27.6386 68.681C28.4908 68.6931 29.2826 69.0461 29.8698 69.6741C31.0219 70.9085 30.96 72.9253 29.7317 74.1702L27.3204 76.614C26.1009 77.85 24.1164 77.85 22.8969 76.614C21.6774 75.3772 21.6774 73.366 22.8969 72.13ZM29.2945 84.9933C28.7034 84.395 28.3781 83.5989 28.3781 82.7521C28.3781 81.9053 28.7034 81.1092 29.2945 80.5101L34.1164 75.6233C35.04 74.6872 36.492 74.4307 37.6726 75.0009C38.8898 75.5887 39.5746 76.9276 39.396 78.2746C39.3008 78.9935 38.9707 79.6706 38.4645 80.1845L33.7188 84.9933C33.1277 85.5924 32.3422 85.9221 31.5067 85.9221C30.6712 85.9221 29.8857 85.5924 29.2945 84.9933ZM36.5753 92.4438C35.9842 91.8455 35.6588 91.0494 35.6588 90.2026C35.6588 89.3559 35.9842 88.5597 36.5753 87.9606L41.3963 83.0738C42.3842 82.0734 43.9687 81.8579 45.1779 82.5712C46.2824 83.2226 46.8609 84.5012 46.6712 85.775C46.5673 86.4754 46.2388 87.134 45.7445 87.635L40.9996 92.4438C40.4085 93.0429 39.623 93.3726 38.7874 93.3726C37.9519 93.3726 37.1664 93.0429 36.5753 92.4438ZM44.8685 98.9414C43.649 97.7054 43.649 95.6942 44.8685 94.4582L47.3552 91.938C47.4306 91.8616 47.5091 91.79 47.5901 91.7225C47.5924 91.7209 47.594 91.7193 47.5956 91.7177C48.0003 91.3848 48.4756 91.162 48.9826 91.0647C48.9945 91.0631 49.0064 91.0615 49.0183 91.0599C49.1056 91.0438 49.1944 91.0309 49.2833 91.0229C49.319 91.0197 49.3547 91.0197 49.3912 91.0173C49.4642 91.0132 49.5364 91.0084 49.6102 91.0092C50.4616 91.0213 51.2542 91.3735 51.8414 92.0023C51.9136 92.0795 51.981 92.16 52.0429 92.2428C52.9808 93.4852 52.8546 95.3307 51.6906 96.5112L49.292 98.9422C48.0725 100.178 46.088 100.177 44.8685 98.9414ZM82.9108 75.8758C81.6912 77.1126 79.7068 77.1118 78.4873 75.8758C78.4428 75.8308 78.396 75.7889 78.3484 75.7495L65.2357 62.3201C64.4431 61.5087 63.1521 61.5023 62.3515 62.3056C61.5509 63.1082 61.5446 64.4165 62.3364 65.2279L75.5911 78.8013C75.5927 78.8029 75.5943 78.8045 75.5959 78.8061C76.8154 80.0421 76.8154 82.0541 75.5959 83.2901C75.0048 83.8892 74.2193 84.2189 73.3837 84.2189C72.5474 84.2189 71.7619 83.8892 71.1716 83.2901L62.3047 74.2104C61.5128 73.399 60.2219 73.3925 59.4213 74.1951C58.6207 74.9985 58.6143 76.3068 59.4062 77.1182L68.1374 86.0588C68.1818 86.1151 68.2294 86.169 68.2802 86.2205C69.4998 87.4564 69.4998 89.4684 68.2802 90.7044C67.0599 91.9404 65.0747 91.9396 63.8551 90.7036L59.0158 85.7476C58.2232 84.9362 56.9322 84.929 56.1316 85.7323C55.331 86.5349 55.3247 87.8432 56.1165 88.6546L60.8209 93.4715C60.8654 93.5278 60.913 93.5825 60.9646 93.634C62.1841 94.87 62.1841 96.882 60.9646 98.118C59.745 99.3547 57.7606 99.3539 56.541 98.118C56.4006 97.9756 56.2356 97.8662 56.0785 97.744C55.9452 97.6411 55.9102 97.5695 55.9769 97.4055C56.0443 97.239 56.1451 97.0886 56.2125 96.9214C56.2871 96.7348 56.3474 96.5426 56.4062 96.3496C56.7188 95.3283 56.8108 94.2299 56.6704 93.17C56.4006 91.1363 55.2969 89.3012 53.6243 88.14C52.7205 87.5135 51.6748 87.1026 50.5909 86.9482C51.1162 84.6001 50.4854 82.0541 48.8445 80.297C47.494 78.8512 45.6699 78.0398 43.7077 78.0124C43.6363 78.0116 43.5648 78.0116 43.4926 78.0124C43.5363 76.1146 42.8555 74.2289 41.5645 72.8465C40.2133 71.4007 38.3891 70.5893 36.4277 70.5619C35.8445 70.5539 35.2558 70.6166 34.6877 70.7493C34.4449 69.0372 33.5935 67.453 32.3041 66.32C31.0227 65.1958 29.4112 64.5718 27.6949 64.5476C25.8882 64.5211 24.1133 65.1966 22.7715 66.4245L14.8885 55.6593L33.7474 32.3741L39.7578 34.0403L31.9082 48.0785C30.9592 49.7761 30.7196 51.7463 31.2329 53.6264C31.7463 55.5073 32.9508 57.0722 34.6258 58.034C34.7305 58.0943 34.836 58.1514 34.9431 58.206C34.9511 58.2101 34.959 58.2141 34.9677 58.2181C35.2494 58.3604 35.539 58.4827 35.8326 58.5856C37.1997 59.0657 38.6764 59.118 40.1006 58.7191C41.9557 58.1988 43.4998 56.9773 44.4488 55.2805L49.5499 46.1574L58.658 46.812L82.9116 71.3918C84.1303 72.6286 84.1303 74.6398 82.9108 75.8758ZM83.7558 66.402L61.0034 43.3436C60.9606 43.2994 60.9154 43.2576 60.8686 43.2182C60.5409 42.9415 60.1346 42.7743 59.7061 42.7437L48.5541 41.942C47.7829 41.8881 47.0164 42.3039 46.6355 42.985L40.9004 53.2428C40.4886 53.9794 39.8181 54.5093 39.0128 54.7353C38.2082 54.9613 37.364 54.8551 36.6364 54.4378C35.9096 54.0204 35.3867 53.3409 35.1637 52.5247C34.9408 51.7085 35.0447 50.8528 35.4573 50.1162L43.1134 36.4222L46.2158 35.5176C46.2364 35.5111 46.2563 35.5031 46.2769 35.4967L57.8558 32.1079H71.846L89.3116 54.6099L83.7558 66.402ZM91.9832 51.3659L75.8316 30.5455L84.0748 25.2324L99.1671 45.1007L91.9832 51.3659Z" fill="#FDC34A"/>
<path d="M63.006 24.0928C63.5281 24.0928 64.0502 23.8909 64.4485 23.4872L78.3784 9.36946C79.175 8.56209 79.175 7.25372 78.3784 6.44635C77.5818 5.63898 76.2908 5.63898 75.4942 6.44635L61.5643 20.5641C60.7676 21.3715 60.7676 22.6799 61.5643 23.4872C61.9626 23.8909 62.4847 24.0928 63.006 24.0928Z" fill="#FDC34A"/>
<path d="M39.5508 23.4872C39.9491 23.8909 40.4712 24.0928 40.9933 24.0928C41.5146 24.0928 42.0367 23.8909 42.435 23.4872C43.2317 22.6799 43.2317 21.3715 42.435 20.5641L28.5051 6.44635C27.7085 5.63898 26.4175 5.63898 25.6209 6.44635C24.8243 7.25372 24.8243 8.56209 25.6209 9.36946L39.5508 23.4872Z" fill="#FDC34A"/>
<path d="M52.0001 24.0933C53.126 24.0933 54.0393 23.1677 54.0393 22.0266V10.343C54.0393 9.20195 53.126 8.27637 52.0001 8.27637C50.8742 8.27637 49.9609 9.20195 49.9609 10.343V22.0266C49.9609 23.1677 50.8742 24.0933 52.0001 24.0933Z" fill="#FDC34A"/>
<path d="M50.1187 2.85152C50.4425 3.64683 51.2494 4.16873 52.1008 4.1237C52.9419 4.07947 53.6806 3.50369 53.9408 2.6923C54.2019 1.87447 53.9178 0.942454 53.2418 0.42136C52.5523 -0.110992 51.5906 -0.140745 50.8693 0.342553C50.0648 0.881338 49.753 1.95408 50.1187 2.85152Z" fill="#FDC34A"/>
</svg>
