<svg width="887" height="605" viewBox="0 0 887 605" fill="none" xmlns="http://www.w3.org/2000/svg">
<g clip-path="url(#clip0)">
<path d="M877.448 397.124H260.036C257.504 397.12 255.076 396.005 253.285 394.023C251.495 392.041 250.487 389.354 250.484 386.551V10.5723C250.487 7.76934 251.495 5.08206 253.285 3.10005C255.076 1.11805 257.504 0.00316792 260.036 0H877.448C879.981 0.00317355 882.409 1.11807 884.2 3.10007C885.99 5.08207 886.998 7.76934 887.001 10.5723V386.551C886.998 389.354 885.99 392.041 884.2 394.023C882.409 396.005 879.981 397.12 877.448 397.124Z" fill="#E6E6E6"/>
<path d="M864.423 382.707H273.062C270.529 382.704 268.101 381.589 266.311 379.607C264.52 377.625 263.513 374.937 263.51 372.134V24.9891C263.513 22.1861 264.52 19.4988 266.311 17.5168C268.101 15.5348 270.529 14.4199 273.062 14.4167H864.423C866.955 14.4199 869.383 15.5348 871.174 17.5168C872.965 19.4988 873.972 22.1861 873.975 24.9891V372.134C873.972 374.937 872.965 377.625 871.174 379.607C869.383 381.589 866.955 382.704 864.423 382.707Z" fill="white"/>
<path d="M438.537 228.612H327.282C326.053 228.61 324.875 228.069 324.006 227.107C323.137 226.145 322.648 224.841 322.646 223.481V95.2375C322.648 93.8772 323.137 92.5731 324.006 91.6113C324.875 90.6494 326.053 90.1083 327.282 90.1068H438.537C439.766 90.1083 440.945 90.6494 441.814 91.6113C442.683 92.5731 443.171 93.8772 443.173 95.2375V223.481C443.171 224.841 442.683 226.145 441.814 227.107C440.945 228.069 439.766 228.61 438.537 228.612ZM327.282 92.1591C326.545 92.1599 325.838 92.4846 325.316 93.0617C324.795 93.6388 324.502 94.4213 324.501 95.2375V223.481C324.502 224.297 324.795 225.08 325.316 225.657C325.838 226.234 326.545 226.558 327.282 226.559H438.537C439.275 226.558 439.982 226.234 440.503 225.657C441.025 225.08 441.318 224.297 441.319 223.481V95.2375C441.318 94.4213 441.025 93.6388 440.503 93.0617C439.982 92.4845 439.275 92.1599 438.537 92.1591H327.282Z" fill="#3F3D56"/>
<path d="M624.369 228.612H513.114C511.885 228.61 510.707 228.069 509.838 227.107C508.969 226.145 508.48 224.841 508.479 223.481V95.2375C508.48 93.8772 508.969 92.5731 509.838 91.6113C510.707 90.6494 511.885 90.1083 513.114 90.1068H624.369C625.598 90.1084 626.777 90.6494 627.646 91.6113C628.515 92.5731 629.003 93.8772 629.005 95.2375V223.481C629.003 224.841 628.515 226.145 627.646 227.107C626.777 228.069 625.598 228.61 624.369 228.612ZM513.114 92.1591C512.377 92.16 511.67 92.4846 511.148 93.0617C510.627 93.6388 510.334 94.4213 510.333 95.2375V223.481C510.334 224.297 510.627 225.08 511.148 225.657C511.67 226.234 512.377 226.558 513.114 226.559H624.369C625.107 226.558 625.814 226.234 626.335 225.657C626.857 225.08 627.15 224.297 627.151 223.481V95.2375C627.15 94.4213 626.857 93.6388 626.335 93.0617C625.814 92.4846 625.107 92.16 624.369 92.1591H513.114Z" fill="#3F3D56"/>
<path d="M810.201 228.612H698.946C697.717 228.61 696.539 228.069 695.67 227.107C694.801 226.145 694.312 224.841 694.311 223.481V95.2375C694.312 93.8772 694.801 92.5731 695.67 91.6113C696.539 90.6494 697.717 90.1083 698.946 90.1068H810.201C811.43 90.1083 812.609 90.6494 813.478 91.6113C814.347 92.5731 814.835 93.8772 814.837 95.2375V223.481C814.835 224.841 814.347 226.145 813.478 227.107C812.609 228.069 811.43 228.61 810.201 228.612ZM698.946 92.1591C698.209 92.1599 697.502 92.4845 696.98 93.0617C696.459 93.6388 696.166 94.4213 696.165 95.2375V223.481C696.166 224.297 696.459 225.08 696.98 225.657C697.502 226.234 698.209 226.558 698.946 226.559H810.201C810.939 226.558 811.646 226.234 812.167 225.657C812.689 225.08 812.982 224.297 812.983 223.481V95.2375C812.982 94.4213 812.689 93.6388 812.167 93.0617C811.646 92.4845 810.939 92.1599 810.201 92.1591H698.946Z" fill="#3F3D56"/>
<path d="M361.428 307.017C361.841 307.017 362.25 306.927 362.632 306.752C363.014 306.577 363.361 306.321 363.653 305.998C363.946 305.674 364.178 305.29 364.336 304.868C364.494 304.445 364.576 303.992 364.576 303.535C364.576 303.077 364.495 302.624 364.337 302.202C364.179 301.779 363.947 301.395 363.655 301.071C363.363 300.748 363.016 300.491 362.634 300.316C362.253 300.141 361.843 300.05 361.43 300.05H333.188C332.354 300.05 331.553 300.417 330.963 301.07C330.373 301.724 330.041 302.61 330.041 303.533C330.041 304.457 330.373 305.343 330.963 305.997C331.553 306.65 332.354 307.017 333.188 307.017H361.428Z" fill="#E6E6E6"/>
<path d="M432.634 286.494C433.469 286.495 434.27 286.13 434.861 285.478C435.453 284.826 435.786 283.941 435.787 283.017C435.789 282.093 435.459 281.206 434.87 280.552C434.28 279.898 433.481 279.529 432.646 279.527H333.189C332.355 279.529 331.556 279.897 330.967 280.55C330.378 281.203 330.047 282.088 330.047 283.011C330.047 283.933 330.378 284.818 330.967 285.471C331.556 286.125 332.355 286.492 333.189 286.494H432.634Z" fill="#E6E6E6"/>
<path d="M547.258 307.017C548.092 307.017 548.893 306.65 549.483 305.997C550.073 305.343 550.405 304.457 550.405 303.533C550.405 302.61 550.073 301.724 549.483 301.07C548.893 300.417 548.092 300.05 547.258 300.05H519.018C518.184 300.05 517.383 300.417 516.793 301.07C516.203 301.724 515.871 302.61 515.871 303.533C515.871 304.457 516.203 305.343 516.793 305.997C517.383 306.65 518.184 307.017 519.018 307.017H547.258Z" fill="#E6E6E6"/>
<path d="M618.464 286.494C619.298 286.492 620.097 286.125 620.686 285.471C621.275 284.818 621.606 283.933 621.606 283.011C621.606 282.088 621.275 281.203 620.686 280.55C620.097 279.897 619.298 279.529 618.464 279.527H519.019C518.185 279.529 517.386 279.897 516.797 280.55C516.208 281.203 515.877 282.088 515.877 283.011C515.877 283.933 516.208 284.818 516.797 285.471C517.386 286.125 518.185 286.492 519.019 286.494H618.464Z" fill="#E6E6E6"/>
<path d="M733.089 307.017C733.924 307.017 734.724 306.65 735.314 305.997C735.905 305.343 736.236 304.457 736.236 303.533C736.236 302.61 735.905 301.724 735.314 301.07C734.724 300.417 733.924 300.05 733.089 300.05H704.85C704.436 300.05 704.027 300.14 703.645 300.315C703.263 300.49 702.916 300.746 702.624 301.069C702.332 301.393 702.1 301.777 701.941 302.199C701.783 302.622 701.701 303.075 701.701 303.532C701.701 303.989 701.782 304.442 701.94 304.865C702.098 305.288 702.33 305.672 702.622 305.996C702.914 306.319 703.261 306.576 703.643 306.751C704.025 306.926 704.434 307.017 704.847 307.017H733.089Z" fill="#E6E6E6"/>
<path d="M804.296 286.494C805.13 286.492 805.929 286.125 806.518 285.471C807.107 284.818 807.438 283.933 807.438 283.011C807.438 282.088 807.107 281.203 806.518 280.55C805.929 279.897 805.13 279.529 804.296 279.527H704.85C704.437 279.526 704.028 279.616 703.645 279.79C703.263 279.964 702.916 280.22 702.623 280.543C702.33 280.866 702.098 281.249 701.939 281.672C701.78 282.094 701.698 282.547 701.697 283.004C701.697 283.462 701.777 283.915 701.935 284.338C702.092 284.761 702.323 285.145 702.615 285.469C702.907 285.793 703.253 286.05 703.635 286.226C704.016 286.402 704.425 286.493 704.839 286.494H804.296Z" fill="#E6E6E6"/>
<path d="M432.634 266.31C433.469 266.311 434.269 265.944 434.86 265.291C435.45 264.638 435.782 263.752 435.783 262.828C435.783 261.905 435.452 261.018 434.862 260.365C434.272 259.711 433.471 259.344 432.637 259.344H333.188C332.354 259.344 331.553 259.711 330.963 260.364C330.373 261.017 330.041 261.903 330.041 262.827C330.041 263.751 330.373 264.637 330.963 265.29C331.553 265.943 332.354 266.31 333.188 266.31H432.634Z" fill="#6C63FF"/>
<path d="M618.464 266.31C619.299 266.31 620.099 265.943 620.69 265.29C621.28 264.637 621.611 263.751 621.611 262.827C621.611 261.903 621.28 261.017 620.69 260.364C620.099 259.711 619.299 259.344 618.464 259.344H519.018C518.184 259.344 517.383 259.711 516.793 260.364C516.203 261.017 515.871 261.903 515.871 262.827C515.871 263.751 516.203 264.637 516.793 265.29C517.383 265.943 518.184 266.31 519.018 266.31H618.464Z" fill="#6C63FF"/>
<path d="M804.295 266.31C805.13 266.31 805.931 265.943 806.521 265.29C807.111 264.637 807.443 263.751 807.443 262.827C807.443 261.903 807.111 261.017 806.521 260.364C805.931 259.711 805.13 259.344 804.295 259.344H704.85C704.015 259.343 703.214 259.71 702.624 260.363C702.033 261.016 701.702 261.902 701.701 262.826C701.701 263.749 702.032 264.636 702.622 265.289C703.212 265.943 704.012 266.31 704.847 266.31H804.295Z" fill="#6C63FF"/>
<path d="M414.832 203.758C415.665 203.756 416.464 203.388 417.053 202.735C417.642 202.082 417.973 201.197 417.973 200.274C417.973 199.352 417.642 198.467 417.053 197.814C416.464 197.16 415.665 196.793 414.832 196.791H350.989C350.576 196.79 350.166 196.88 349.784 197.054C349.402 197.228 349.055 197.484 348.762 197.807C348.469 198.13 348.237 198.513 348.078 198.936C347.919 199.358 347.837 199.811 347.836 200.268C347.835 200.725 347.916 201.179 348.073 201.602C348.231 202.024 348.462 202.409 348.754 202.733C349.045 203.057 349.392 203.314 349.773 203.49C350.155 203.666 350.564 203.757 350.977 203.758H414.832Z" fill="#E6E6E6"/>
<path d="M414.832 183.235C415.665 183.233 416.464 182.865 417.053 182.212C417.642 181.559 417.973 180.674 417.973 179.751C417.973 178.829 417.642 177.944 417.053 177.291C416.464 176.637 415.665 176.27 414.832 176.268H350.989C350.576 176.267 350.166 176.357 349.784 176.531C349.402 176.705 349.055 176.961 348.762 177.284C348.469 177.607 348.237 177.99 348.078 178.413C347.919 178.835 347.837 179.288 347.836 179.745C347.835 180.203 347.916 180.656 348.073 181.079C348.231 181.502 348.462 181.886 348.754 182.21C349.045 182.534 349.392 182.791 349.773 182.967C350.155 183.143 350.564 183.234 350.977 183.235H414.832Z" fill="#E6E6E6"/>
<path d="M382.91 159.172C393.941 159.172 402.883 149.275 402.883 137.066C402.883 124.858 393.941 114.961 382.91 114.961C371.88 114.961 362.938 124.858 362.938 137.066C362.938 149.275 371.88 159.172 382.91 159.172Z" fill="#6C63FF"/>
<path d="M600.664 203.758C601.498 203.756 602.297 203.388 602.886 202.735C603.475 202.082 603.806 201.197 603.806 200.274C603.806 199.352 603.475 198.467 602.886 197.814C602.297 197.16 601.498 196.793 600.664 196.791H536.821C535.988 196.793 535.189 197.16 534.6 197.814C534.01 198.467 533.68 199.352 533.68 200.274C533.68 201.197 534.01 202.082 534.6 202.735C535.189 203.388 535.988 203.756 536.821 203.758H600.664Z" fill="#E6E6E6"/>
<path d="M600.664 183.235C601.498 183.233 602.297 182.865 602.886 182.212C603.475 181.559 603.806 180.674 603.806 179.751C603.806 178.829 603.475 177.944 602.886 177.291C602.297 176.637 601.498 176.27 600.664 176.268H536.821C535.988 176.27 535.189 176.637 534.6 177.291C534.01 177.944 533.68 178.829 533.68 179.751C533.68 180.674 534.01 181.559 534.6 182.212C535.189 182.865 535.988 183.233 536.821 183.235H600.664Z" fill="#E6E6E6"/>
<path d="M568.742 159.172C579.773 159.172 588.715 149.275 588.715 137.066C588.715 124.858 579.773 114.961 568.742 114.961C557.712 114.961 548.77 124.858 548.77 137.066C548.77 149.275 557.712 159.172 568.742 159.172Z" fill="#6C63FF"/>
<path d="M786.494 203.758C786.907 203.759 787.317 203.669 787.699 203.495C788.081 203.321 788.428 203.065 788.721 202.742C789.014 202.419 789.246 202.036 789.405 201.613C789.564 201.191 789.646 200.738 789.647 200.281C789.648 199.823 789.567 199.37 789.41 198.947C789.252 198.524 789.021 198.14 788.729 197.816C788.438 197.492 788.091 197.235 787.71 197.059C787.328 196.883 786.919 196.792 786.506 196.791H722.651C721.818 196.793 721.019 197.16 720.43 197.814C719.841 198.467 719.51 199.352 719.51 200.274C719.51 201.197 719.841 202.082 720.43 202.735C721.019 203.388 721.818 203.756 722.651 203.758H786.494Z" fill="#E6E6E6"/>
<path d="M786.494 183.235C786.907 183.236 787.317 183.146 787.699 182.972C788.081 182.798 788.428 182.542 788.721 182.219C789.014 181.896 789.246 181.513 789.405 181.09C789.564 180.668 789.646 180.215 789.647 179.758C789.648 179.3 789.567 178.847 789.41 178.424C789.252 178.001 789.021 177.617 788.729 177.293C788.438 176.969 788.091 176.712 787.71 176.536C787.328 176.36 786.919 176.269 786.506 176.268H722.651C721.818 176.27 721.019 176.637 720.43 177.291C719.841 177.944 719.51 178.829 719.51 179.751C719.51 180.674 719.841 181.559 720.43 182.212C721.019 182.865 721.818 183.233 722.651 183.235H786.494Z" fill="#E6E6E6"/>
<path d="M754.574 159.172C765.605 159.172 774.547 149.275 774.547 137.066C774.547 124.858 765.605 114.961 754.574 114.961C743.544 114.961 734.602 124.858 734.602 137.066C734.602 149.275 743.544 159.172 754.574 159.172Z" fill="#6C63FF"/>
<path d="M66.8886 591.306H78.7051L84.3261 540.861L66.8867 540.862L66.8886 591.306Z" fill="#FFB6B6"/>
<path d="M63.875 587.036L87.1455 587.035H87.1464C91.0794 587.036 94.8513 588.765 97.6324 591.843C100.413 594.921 101.976 599.096 101.976 603.449V603.982L63.8757 603.984L63.875 587.036Z" fill="#2F2E41"/>
<path d="M107.369 591.306H119.186L124.807 540.861L107.367 540.862L107.369 591.306Z" fill="#FFB6B6"/>
<path d="M104.355 587.036L127.626 587.035H127.627C131.56 587.036 135.332 588.765 138.113 591.843C140.894 594.921 142.456 599.096 142.457 603.449V603.982L104.356 603.984L104.355 587.036Z" fill="#2F2E41"/>
<path d="M152.271 371.55L123.405 568.886L104.129 567.819L104.607 386.624L152.271 371.55Z" fill="#2F2E41"/>
<path d="M74.4524 311.26L144.489 312.336L152.271 371.551L104.607 396.313L83.8888 563.552L65.5762 562.485L58.8887 355.401L74.4524 311.26Z" fill="#2F2E41"/>
<path d="M116.281 158.379C128.1 158.379 137.681 147.774 137.681 134.693C137.681 121.612 128.1 111.007 116.281 111.007C104.462 111.007 94.8809 121.612 94.8809 134.693C94.8809 147.774 104.462 158.379 116.281 158.379Z" fill="#FFB9B9"/>
<path d="M126.297 172.05L138.653 189.601L132.816 324.179L87.0983 323.102L79.3164 205.751L89.0433 175.605L92.5631 168.849L126.297 172.05Z" fill="#E4E4E4"/>
<path d="M147.408 240.203L158.108 285.421L147.408 330.639L164.917 356.478L180.481 274.655C180.481 274.655 168.808 207.904 167.835 200.367C166.863 192.831 164.917 191.754 164.917 191.754L157.135 192.831L147.408 240.203Z" fill="#2F2E41"/>
<path d="M69.5902 257.428L62.7809 271.425L60.8349 295.11L64.7258 322.026L51.108 346.789L37.4902 278.961L52.0805 191.754H57.9174L69.5902 257.428Z" fill="#2F2E41"/>
<path d="M97.7722 140.828L97.2652 150.403C97.2652 150.403 90.9884 134.693 90.0157 118.544C89.043 102.395 105.579 99.1647 115.307 98.0881C125.034 97.0114 141.57 104.548 141.57 113.161C141.57 121.774 124.061 119.621 117.252 117.467C110.443 115.314 107.525 133.617 107.525 133.617L103.634 134.693L97.7722 140.828Z" fill="#2F2E41"/>
<path d="M150.325 255.275L146.434 296.187L154.216 320.949L159.079 344.635C159.079 344.635 159.079 367.244 139.625 368.321C120.17 369.397 63.752 367.244 63.752 367.244C63.752 367.244 55.9702 366.168 49.1611 348.942C42.352 331.716 62.7793 315.566 62.7793 315.566L68.6157 292.957L66.6703 264.965L53.0519 191.754L93.4202 168.607L103.634 278.961L125.52 171.837L132.816 177.758L163.943 191.754L150.325 255.275Z" fill="#2F2E41"/>
<path d="M248.413 605H0V602.753H248.781L248.413 605Z" fill="#3F3D56"/>
</g>
<defs>
<clipPath id="clip0">
<rect width="887" height="605" fill="white"/>
</clipPath>
</defs>
</svg>
