<svg width="95" height="104" viewBox="0 0 95 104" fill="none" xmlns="http://www.w3.org/2000/svg">
<path d="M87.3915 14L89.0872 18.768C89.1597 18.9721 89.3035 19.1338 89.4849 19.2157L93.7209 21.1242C94.3193 21.394 94.3193 22.3475 93.7209 22.617L89.4849 24.5256C89.3035 24.6072 89.1599 24.7691 89.0872 24.9733L87.3915 29.7412C87.152 30.4148 86.3048 30.4148 86.0653 29.7412L84.3696 24.9733C84.2971 24.7691 84.1533 24.6074 83.9719 24.5256L79.7359 22.617C79.1375 22.3475 79.1375 21.3938 79.7359 21.1242L83.9719 19.2157C84.1533 19.134 84.2969 18.9721 84.3696 18.768L86.0653 14C86.3048 13.3265 87.1518 13.3265 87.3915 14Z" fill="#404DEF"/>
<path d="M24.0138 0.374766L25.2715 3.91158C25.3254 4.06291 25.432 4.18295 25.5665 4.24369L28.7088 5.65947C29.1529 5.85955 29.1529 6.56683 28.7088 6.7667L25.5665 8.18248C25.432 8.24302 25.3254 8.36306 25.2715 8.51459L24.0138 12.0514C23.8361 12.5511 23.2076 12.5511 23.0299 12.0514L21.7721 8.51459C21.7183 8.36327 21.6116 8.24322 21.4772 8.18248L18.3348 6.7667C17.891 6.56663 17.891 5.85934 18.3348 5.65947L21.4772 4.24369C21.6116 4.18316 21.7183 4.06311 21.7721 3.91158L23.0299 0.374766C23.2076 -0.124922 23.8361 -0.124922 24.0138 0.374766Z" fill="#404DEF"/>
<path d="M75.3715 7.76009C75.3715 9.13605 74.2562 10.2514 72.8802 10.2514C71.5042 10.2514 70.3887 9.13585 70.3887 7.76009C70.3887 6.38412 71.504 5.26855 72.8802 5.26855C74.2562 5.26855 75.3715 6.38391 75.3715 7.76009Z" fill="#404DEF"/>
<path d="M7.36044 21.6377C7.36044 23.6702 5.71269 25.318 3.68022 25.318C1.64775 25.318 0 23.6702 0 21.6377C0 19.6053 1.64775 17.9575 3.68022 17.9575C5.71269 17.9577 7.36044 19.6053 7.36044 21.6377Z" fill="#404DEF"/>
<path d="M45.3605 104C22.1599 104 3.28516 85.1252 3.28516 61.9249C3.28516 38.7246 22.1599 19.8496 45.3605 19.8496C68.561 19.8496 87.4358 38.7246 87.4358 61.9249C87.4356 85.1252 68.5608 104 45.3605 104ZM45.3605 23.9349C24.4126 23.9349 7.37061 40.977 7.37061 61.9247C7.37061 82.8724 24.4128 99.9148 45.3605 99.9148C66.3081 99.9148 83.3503 82.8726 83.3503 61.9249C83.3503 40.9772 66.3081 23.9349 45.3605 23.9349Z" fill="#404DEF"/>
<path d="M35.897 52.5055C34.7691 52.5055 33.8544 51.591 33.8544 50.4629C33.8544 47.3278 31.304 44.7774 28.1692 44.7774C25.0341 44.7774 22.4837 47.3278 22.4837 50.4629C22.4837 51.591 21.569 52.5055 20.4411 52.5055C19.3131 52.5055 18.3984 51.591 18.3984 50.4629C18.3984 45.0752 22.7817 40.6921 28.1694 40.6921C33.5568 40.6921 37.9401 45.0754 37.9401 50.4629C37.9397 51.591 37.025 52.5055 35.897 52.5055Z" fill="#404DEF"/>
<path d="M70.2799 52.5055C69.1519 52.5055 68.2372 51.591 68.2372 50.4629C68.2372 47.3278 65.6868 44.7774 62.5518 44.7774C59.4169 44.7774 56.8665 47.3278 56.8665 50.4629C56.8665 51.591 55.9518 52.5055 54.8239 52.5055C53.6959 52.5055 52.7812 51.591 52.7812 50.4629C52.7812 45.0752 57.1645 40.6921 62.552 40.6921C67.9397 40.6921 72.3229 45.0754 72.3229 50.4629C72.3225 51.591 71.4078 52.5055 70.2799 52.5055Z" fill="#404DEF"/>
<path d="M72.5455 60.6398H18.1754C17.0475 60.6398 16.1328 61.5542 16.1328 62.6824C16.1328 78.7985 29.2443 91.91 45.3605 91.91C61.4766 91.91 74.5881 78.7985 74.5881 62.6824C74.5881 61.5544 73.6735 60.6398 72.5455 60.6398ZM29.8431 82.4497C32.631 77.9812 38.6445 75.0671 45.3605 75.0671C52.0762 75.0671 58.0897 77.9812 60.8778 82.4497C56.6012 85.8143 51.2115 87.8248 45.3605 87.8248C39.5095 87.8248 34.1197 85.8143 29.8431 82.4497ZM63.9068 79.6381C60.2256 74.3708 53.1454 70.9819 45.3603 70.9819C37.5749 70.9819 30.4942 74.3704 26.8133 79.6376C23.151 75.6349 20.7624 70.4481 20.2999 64.7252H70.4204C69.9581 70.4483 67.5695 75.6353 63.9068 79.6381Z" fill="#404DEF"/>
</svg>
