<svg width="734" height="537" viewBox="0 0 734 537" fill="none" xmlns="http://www.w3.org/2000/svg">
<path d="M409.699 528.227C555.565 528.227 673.813 409.979 673.813 264.113C673.813 118.248 555.565 0 409.699 0C263.834 0 145.586 118.248 145.586 264.113C145.586 409.979 263.834 528.227 409.699 528.227Z" fill="#F9F9F9"/>
<path d="M490.42 164.983C528.353 164.983 559.104 134.232 559.104 96.2995C559.104 58.3666 528.353 27.6158 490.42 27.6158C452.487 27.6158 421.736 58.3666 421.736 96.2995C421.736 134.232 452.487 164.983 490.42 164.983Z" fill="#FD4C6F"/>
<path d="M202.485 51.3242L204.362 90.4643C212.145 100.844 220.54 112.722 228.826 125.667L230.009 65.9551L230.662 66.3723C221.078 59.5253 211.334 54.2867 201.832 50.9614L202.485 51.3242Z" fill="#400186"/>
<path d="M202.994 88.6455L201.175 50.7315C190.503 47.092 180.149 45.8846 170.684 47.5726C170.192 47.6604 169.708 47.7615 169.225 47.864C171.63 50.4441 185.644 65.6815 202.994 88.6455Z" fill="#400186"/>
<path d="M289.163 135.341L289.793 135.942C287.207 131.078 284.465 126.348 281.568 121.754L263.92 191.197L263.621 190.934C264.897 193.98 266.11 197.006 267.261 200.01L289.163 135.341Z" fill="#400186"/>
<path d="M262.278 95.862L262.927 96.3821C253.597 85.3267 242.989 75.4152 231.327 66.8549L230.121 127.705C237.832 139.873 244.736 151.859 250.832 163.663L262.278 95.862Z" fill="#400186"/>
<path d="M134.254 114.86C135.245 125.116 137.271 135.246 140.299 145.095L245.542 155.951C240.047 145.819 234.376 136.314 228.87 127.651L134.521 115.687L134.254 114.86Z" fill="#400186"/>
<path d="M144.127 156.453L143.844 155.627L250.359 165.095C249.073 162.578 247.772 160.094 246.456 157.644L140.825 146.749L140.547 145.922C141.612 149.393 142.805 152.904 144.127 156.453Z" fill="#400186"/>
<path d="M280.367 120.306L281.008 120.87C275.727 112.565 269.892 104.625 263.542 97.1049L251.941 165.822C255.962 173.716 259.603 181.498 262.866 189.17L280.367 120.306Z" fill="#400186"/>
<path d="M278.115 235.095C282.348 253.413 283.952 270.734 282.894 286.865C288.85 274.173 311.502 221.596 303.035 172.595L278.115 235.095Z" fill="#400186"/>
<path d="M163.666 193.488C169.302 201.08 175.441 208.285 182.04 215.056L181.783 214.138L276.532 233.631C274.067 223.402 270.991 213.33 267.32 203.469L163.666 193.488Z" fill="#400186"/>
<path d="M202.177 89.2847C183.4 64.4441 168.584 48.7438 168.371 48.519L168.615 47.9957C154.366 51.2306 144.305 60.9252 138.77 74.9575L202.177 89.2847Z" fill="#400186"/>
<path d="M268.137 202.341C268.487 203.275 268.842 204.212 269.18 205.142C272.434 214.057 275.201 223.142 277.467 232.357L302.15 170.45L302.753 171.055C301.19 162.441 298.542 154.059 294.873 146.11C293.417 142.993 291.892 139.924 290.3 136.901L268.137 202.341Z" fill="#400186"/>
<path d="M227.766 125.924C219.565 113.131 211.264 101.396 203.571 91.1383L138.709 76.4819L138.489 75.6633C134.44 86.3267 132.96 99.4266 134.186 114.058L227.766 125.924Z" fill="#400186"/>
<path d="M276.917 235.256L182.861 215.907C222.423 256.518 277.772 287.664 281.305 289.633C282.953 271.74 281.084 253.361 276.917 235.256Z" fill="#400186"/>
<path d="M266.653 201.802L266.674 201.74C262.152 189.818 256.991 178.147 251.213 166.779L144.436 157.288C146.248 162.089 148.297 166.941 150.582 171.844C153.91 178.83 157.868 185.497 162.407 191.764L266.653 201.802Z" fill="#400186"/>
<path d="M402.479 183.159L378.961 214.502C378.334 227.46 377.225 241.963 375.35 257.218L414.346 211.983L414.583 212.721C411.568 201.334 407.405 191.085 402.207 182.463L402.479 183.159Z" fill="#400186"/>
<path d="M379.066 212.229L401.848 181.868C395.95 172.258 388.745 164.724 380.379 159.987C379.944 159.741 379.506 159.51 379.069 159.281C379.276 162.802 380.351 183.476 379.066 212.229Z" fill="#400186"/>
<path d="M415.651 303.153L415.752 304.017C416.863 298.621 417.768 293.23 418.467 287.843L360.583 330.071L360.521 329.678C359.561 332.838 358.565 335.942 357.535 338.991L415.651 303.153Z" fill="#400186"/>
<path d="M420.124 255.598L420.293 256.413C420.158 241.947 418.31 227.548 414.787 213.517L375.047 259.613C373.225 273.904 370.897 287.538 368.064 300.517L420.124 255.598Z" fill="#400186"/>
<path d="M309.404 188.574C303.626 197.106 298.725 206.2 294.775 215.717L368.909 291.203C371.139 279.895 372.834 268.957 374.119 258.773L309.083 189.382L309.404 188.574Z" fill="#400186"/>
<path d="M290.48 226.906L290.789 226.089L366.787 301.318C367.402 298.559 367.984 295.816 368.533 293.09L294.126 217.325L294.44 216.511C293.046 219.864 291.726 223.329 290.48 226.906Z" fill="#400186"/>
<path d="M418.467 285.963L418.6 286.806C419.83 277.041 420.4 267.204 420.305 257.362L367.542 302.889C365.604 311.533 363.445 319.849 361.064 327.839L418.467 285.963Z" fill="#400186"/>
<path d="M343.517 372.936C335.094 389.745 325.282 404.108 314.178 415.857C326.86 409.881 377.841 383.834 402.573 340.694L343.517 372.936Z" fill="#400186"/>
<path d="M281.909 267.893C281.408 277.335 281.54 286.8 282.304 296.224L282.691 295.353L343.233 370.798C347.859 361.347 351.914 351.628 355.376 341.692L281.909 267.893Z" fill="#400186"/>
<path d="M378.029 212.2C379.411 181.091 378.014 159.549 377.993 159.24L378.515 158.993C365.477 152.396 351.545 153.446 338.332 160.723L378.029 212.2Z" fill="#400186"/>
<path d="M356.722 341.344C356.396 342.287 356.073 343.235 355.739 344.167C352.56 353.109 348.896 361.87 344.764 370.413L403.26 338.476L403.338 339.327C407.629 331.695 410.936 323.551 413.179 315.088C414.046 311.759 414.829 308.423 415.531 305.079L356.722 341.344Z" fill="#400186"/>
<path d="M374.369 256.74C376.212 241.657 377.304 227.324 377.921 214.517L337.313 161.859L337.666 161.088C327.746 166.719 318.251 175.864 309.863 187.915L374.369 256.74Z" fill="#400186"/>
<path d="M342.491 372.295L282.393 297.402C286.96 353.914 309.724 413.205 311.189 416.974C323.871 404.245 334.154 388.897 342.491 372.295Z" fill="#400186"/>
<path d="M355.926 339.983L355.981 339.949C360.103 327.882 363.571 315.601 366.372 303.161L290.187 227.746C288.521 232.6 287.004 237.644 285.637 242.878C283.744 250.381 282.54 258.04 282.039 265.762L355.926 339.983Z" fill="#400186"/>
<path d="M167.983 225.005L181.867 261.648C192.476 269.114 204.132 277.815 216.014 287.565L198.682 230.411L199.432 230.606C188.2 227.057 177.315 225.087 167.25 224.861L167.983 225.005Z" fill="#400186"/>
<path d="M180.004 260.341L166.556 224.846C155.281 224.683 145.061 226.736 136.581 231.267C136.14 231.502 135.711 231.748 135.283 231.995C138.368 233.705 156.406 243.865 180.004 260.341Z" fill="#400186"/>
<path d="M276.386 278.116L277.171 278.493C273.207 274.666 269.138 271.016 264.963 267.542L269.643 339.039L269.278 338.881C271.433 341.384 273.522 343.886 275.545 346.388L276.386 278.116Z" fill="#400186"/>
<path d="M238.614 248.88L239.392 249.173C227.101 241.543 213.95 235.396 200.213 230.859L217.874 289.102C228.969 298.292 239.239 307.557 248.685 316.898L238.614 248.88Z" fill="#400186"/>
<path d="M122.732 306.519C126.846 315.967 131.903 324.975 137.827 333.405L241.272 311.199C232.915 303.262 224.583 295.975 216.669 289.438L123.243 307.223L122.732 306.519Z" fill="#400186"/>
<path d="M144.979 343.024L144.454 342.326L248.68 318.406C246.678 316.41 244.673 314.45 242.664 312.527L138.838 334.815L138.318 334.115C140.404 337.087 142.624 340.057 144.979 343.024Z" fill="#400186"/>
<path d="M263.374 266.535L264.158 266.874C256.568 260.608 248.565 254.86 240.201 249.672L250.409 318.609C256.673 324.874 262.542 331.15 268.016 337.437L263.374 266.535Z" fill="#400186"/>
<path d="M296.713 376.4C306.401 392.513 313.28 408.489 317.259 424.158C319.001 410.247 324.293 353.242 301.094 309.258L296.713 376.4Z" fill="#400186"/>
<path d="M175.008 372.205C182.714 377.683 190.78 382.639 199.149 387.038L198.621 386.245L294.755 375.496C289.249 366.53 283.21 357.902 276.671 349.659L175.008 372.205Z" fill="#400186"/>
<path d="M179.424 261.202C153.888 243.382 134.945 233.03 134.673 232.882L134.743 232.309C122.192 239.79 115.621 252.119 114.693 267.176L179.424 261.202Z" fill="#400186"/>
<path d="M277.1 348.334C277.721 349.114 278.349 349.895 278.958 350.675C284.808 358.148 290.247 365.933 295.251 373.996L299.59 307.491L300.35 307.88C296.201 300.171 291.092 293.018 285.145 286.593C282.797 284.079 280.399 281.63 277.95 279.248L277.1 348.334Z" fill="#400186"/>
<path d="M215.087 288.137C203.333 278.506 191.812 269.911 181.325 262.534L115.109 268.644L114.647 267.933C114.092 279.326 116.733 292.242 122.422 305.777L215.087 288.137Z" fill="#400186"/>
<path d="M295.624 376.924L200.193 387.594C250.37 413.988 312.636 426.501 316.605 427.281C312.641 409.755 305.183 392.854 295.624 376.924Z" fill="#400186"/>
<path d="M275.523 348.28L275.524 348.214C267.538 338.273 259.022 328.769 250.014 319.744L145.531 343.722C148.739 347.728 152.187 351.709 155.876 355.666C161.2 361.281 167.025 366.398 173.279 370.955L275.523 348.28Z" fill="#400186"/>
<path d="M734.001 448.923C734.001 480.599 571.054 536.725 370.048 536.725C169.043 536.725 6.0957 480.599 6.0957 448.923C6.0957 417.247 169.043 422.016 370.048 422.016C571.054 422.016 734.001 417.247 734.001 448.923Z" fill="#3F3D56"/>
<path opacity="0.1" d="M734.001 448.923C734.001 480.599 571.054 536.725 370.048 536.725C169.043 536.725 6.0957 480.599 6.0957 448.923C6.0957 417.247 169.043 422.016 370.048 422.016C571.054 422.016 734.001 417.247 734.001 448.923Z" fill="black"/>
<path d="M370.048 506.277C571.054 506.277 734.001 480.598 734.001 448.922C734.001 417.247 571.054 391.568 370.048 391.568C169.043 391.568 6.0957 417.247 6.0957 448.922C6.0957 480.598 169.043 506.277 370.048 506.277Z" fill="#3F3D56"/>
<path opacity="0.1" d="M433.146 388.975C433.146 423.485 385.044 412.811 326.146 412.811C267.249 412.811 219.861 423.485 219.861 388.975C219.861 354.465 267.958 346.959 326.855 346.959C385.752 346.959 433.146 354.465 433.146 388.975Z" fill="black"/>
<path d="M433.146 380.478C433.146 414.988 385.044 404.314 326.146 404.314C267.249 404.314 219.861 414.988 219.861 380.478C219.861 345.969 267.958 338.463 326.855 338.463C385.752 338.463 433.146 345.969 433.146 380.478Z" fill="#3F3D56"/>
<path d="M243.677 285.521C244.972 284.599 246.402 283.882 247.916 283.395C257.514 279.824 267.57 277.635 277.784 276.893C286.665 276.263 296.291 277.011 303.228 282.593C304.307 283.385 305.189 284.413 305.808 285.6C306.681 287.483 306.417 289.672 306.134 291.728C306.071 292.526 305.87 293.307 305.54 294.036C304.606 295.813 302.308 296.435 300.312 296.222C298.316 296.009 296.443 295.165 294.474 294.773C293.255 294.561 292.023 294.435 290.787 294.398L278.438 293.729C270.759 293.313 262.979 292.904 255.447 294.454C253.128 294.871 250.887 295.643 248.804 296.743C247.084 297.709 245.925 299.095 244.329 297.311C241.524 294.177 239.972 288.416 243.677 285.521Z" fill="#093046"/>
<path d="M262.811 290.981C262.811 290.981 279.421 283.536 285.721 292.127C292.021 300.718 282.285 297.282 282.285 297.282L271.403 300.718L259.375 298.427L262.811 290.981Z" fill="#F2F2F2"/>
<path d="M263.672 285.541C263.672 285.541 265.963 296.423 264.245 299.287C262.526 302.151 273.981 306.16 273.981 306.16L284.863 301.578C284.863 301.578 282 283.823 284.863 280.386L263.672 285.541Z" fill="#FFB9B9"/>
<path opacity="0.1" d="M263.672 285.541C263.672 285.541 265.963 296.423 264.245 299.287C262.526 302.151 273.981 306.16 273.981 306.16L284.863 301.578C284.863 301.578 282 283.823 284.863 280.386L263.672 285.541Z" fill="black"/>
<path d="M252.939 416.39C254.479 419.583 255.745 422.901 256.724 426.308C256.74 426.421 256.779 426.529 256.84 426.625C256.901 426.721 256.981 426.803 257.075 426.866C257.17 426.929 257.277 426.971 257.389 426.99C257.501 427.009 257.616 427.004 257.726 426.975L267.913 426.964C269.171 426.962 270.857 426.558 270.844 425.301C270.835 424.418 269.932 423.867 269.26 423.294C267.395 421.703 266.91 419.079 266.138 416.752C264.636 412.27 261.743 408.384 257.88 405.661C257.357 405.252 256.756 404.955 256.114 404.789C255.469 404.695 254.811 404.731 254.179 404.893C252.391 405.254 245.712 406.489 246.974 409.09C247.517 410.21 249.53 411.376 250.374 412.422C251.358 413.657 252.217 414.986 252.939 416.39Z" fill="#575A89"/>
<path d="M288.366 404.574C288.007 405.329 287.607 406.064 287.168 406.775C285.692 409.21 283.951 411.48 282.576 413.973C281.65 415.496 281.078 417.208 280.902 418.982C280.824 419.869 280.96 420.762 281.298 421.585C281.636 422.409 282.167 423.14 282.847 423.715C284.326 424.838 286.353 424.89 288.191 424.628C290.029 424.367 291.856 423.84 293.708 423.979C293.083 420.447 296.062 417.338 296.807 413.83C297.016 412.844 297.048 411.822 297.328 410.855C297.63 409.97 298.016 409.116 298.481 408.305C299.964 405.416 301.013 402.324 301.592 399.129C301.662 398.742 292.536 398.678 291.68 398.863C289.009 399.441 289.4 402.359 288.366 404.574Z" fill="#575A89"/>
<path d="M218.026 349.085C215.421 353.162 216.021 358.565 217.851 363.044C219.681 367.523 222.593 371.482 224.586 375.891C225.857 378.701 226.748 381.681 228.179 384.414C229.951 387.798 232.538 390.78 233.727 394.41C234.485 396.723 234.658 399.259 235.886 401.362C236.628 402.485 237.475 403.536 238.416 404.5C241.06 407.53 243.046 411.076 244.246 414.914C245.368 411.572 248.728 409.38 252.18 408.657C255.631 407.934 259.207 408.425 262.698 408.918C260.75 405.901 258.784 402.846 257.623 399.447C256.5 396.161 256.169 392.664 255.413 389.274C253.862 382.323 250.548 375.911 247.268 369.589L264.128 368.252C266.88 367.975 269.646 367.872 272.411 367.944C276.763 368.149 281.026 369.216 285.354 369.709C289.683 370.202 294.262 370.073 298.119 368.049C290.743 378.632 286.902 391.276 287.144 404.174C288.793 402.897 290.706 402.004 292.744 401.562C294.782 401.12 296.894 401.139 298.923 401.618C300.953 402.097 302.85 403.024 304.475 404.331C306.101 405.637 307.413 407.291 308.317 409.171C314.924 400.142 314.138 387.573 319.374 377.685C320.45 375.652 321.77 373.758 322.932 371.772C325.127 367.785 327.007 363.631 328.553 359.349C330.018 355.604 331.493 351.436 330.088 347.667C329.505 346.237 328.656 344.931 327.586 343.818C324.565 340.488 320.36 338.024 315.865 337.922C308.965 337.764 303.264 342.879 297.211 346.196C289.985 350.037 281.812 351.732 273.654 351.081C265.34 350.493 257.399 347.771 249.477 345.374C245.515 344.119 241.487 343.08 237.411 342.261C234.014 341.624 230.779 342.33 227.432 343.199C223.787 344.145 220.124 345.803 218.026 349.085Z" fill="#093046"/>
<path d="M290.017 274.658C290.014 279.214 288.202 283.582 284.981 286.804C281.759 290.025 277.391 291.837 272.835 291.84C271.811 291.842 270.789 291.75 269.782 291.566C266.567 290.985 263.583 289.499 261.182 287.283C258.781 285.067 257.062 282.212 256.226 279.053C255.39 275.894 255.472 272.562 256.463 269.448C257.454 266.335 259.312 263.568 261.819 261.473C264.327 259.378 267.38 258.041 270.62 257.62C273.86 257.198 277.154 257.709 280.114 259.094C283.074 260.478 285.577 262.677 287.332 265.434C289.086 268.191 290.017 271.391 290.017 274.658Z" fill="#FFB9B9"/>
<path d="M262.813 290.981C262.813 290.981 265.963 292.413 267.109 293.559C268.254 294.704 271.691 301.004 277.418 296.995C283.145 292.986 283.718 290.695 285.436 290.695C287.155 290.695 289.446 294.132 289.446 294.132L305.196 341.382C300.951 346.174 296.031 350.322 290.591 353.696C281.427 359.424 270.545 362.288 265.391 359.997C260.236 357.706 250.499 355.987 248.781 351.405C247.063 346.823 244.199 333.078 244.199 333.078L252.218 298.141L262.813 290.981Z" fill="#F2F2F2"/>
<path d="M260.601 338.769C261.849 336.072 262.031 333.019 262.136 330.049C262.305 327.107 262.227 324.156 261.903 321.227C261.396 317.396 260.148 313.705 259.36 309.922C258.67 306.603 258.334 303.221 258.359 299.832C258.37 298.285 258.482 296.657 259.325 295.36C259.913 294.455 260.832 293.755 261.2 292.74C261.92 290.751 260.14 288.668 258.19 287.849C255.814 286.958 253.215 286.854 250.776 287.551C248.356 288.251 246.018 289.207 243.802 290.404C242.126 291.119 240.585 292.115 239.245 293.35C237.467 295.19 236.685 297.752 236.054 300.231C235.549 302.216 235.1 304.285 235.484 306.296C236.109 309.562 238.771 312.019 240.19 315.026C241.839 318.518 241.728 322.587 241.072 326.392C240.417 330.197 239.253 333.918 238.894 337.762C238.535 341.607 239.086 345.739 241.495 348.757C242.476 349.987 245.139 352.902 246.936 352.572C248.347 352.313 250.394 349.205 251.531 348.22C254.816 345.375 258.714 342.844 260.601 338.769Z" fill="#093046"/>
<path d="M290.609 289.114C290.659 292.308 289.251 295.344 287.595 298.076C285.939 300.808 283.994 303.392 282.774 306.345C281.257 310.041 280.948 314.121 281.889 318.004C282.239 319.326 282.661 320.628 283.153 321.905L286.291 330.512C286.713 331.866 287.326 333.152 288.11 334.333C288.82 335.237 289.652 336.038 290.584 336.712C292.967 338.637 295.71 340.068 298.652 340.922C301.615 341.769 304.778 341.588 307.625 340.41C307.928 328.741 309.802 317.166 313.198 305.999C313.826 303.937 314.511 301.767 314.028 299.667C313.485 297.315 311.596 295.549 309.8 293.936C304.308 289.004 298.268 283.823 290.916 283.158C286.661 282.773 290.573 286.804 290.609 289.114Z" fill="#093046"/>
<path d="M253.023 355.702C253.458 356.555 253.729 357.484 254.16 358.339C254.796 359.486 255.582 360.543 256.497 361.481C260.327 365.728 265.008 369.958 270.72 370.214C271.287 370.267 271.86 370.195 272.396 370.003C272.879 369.756 273.294 369.394 273.605 368.949C273.916 368.505 274.114 367.991 274.18 367.452C274.585 365.234 273.606 363.021 272.626 360.99C270.501 356.59 268.111 352.078 264.133 349.239C262.146 347.878 259.877 346.985 257.496 346.627C255.114 346.268 252.683 346.454 250.384 347.171C248.312 347.809 244.876 348.924 247.619 350.814C249.701 352.249 251.816 353.341 253.023 355.702Z" fill="#FFB9B9"/>
<path d="M277.716 299.676C277.119 298.066 276.205 296.592 275.028 295.343C273.84 294.338 272.434 293.626 270.922 293.262C268.963 292.703 266.936 292.412 264.899 292.399C262.473 292.384 259.661 293.035 258.631 295.231C257.813 296.975 258.447 299.04 259.27 300.781C259.622 301.683 260.208 302.475 260.968 303.075C262.014 303.781 263.367 303.759 264.607 303.996C266.53 304.484 268.351 305.309 269.985 306.433L274.234 309.001L281.531 313.412C281.339 313.296 281.407 308.291 281.183 307.471C280.461 304.829 278.836 302.178 277.716 299.676Z" fill="#FFB9B9"/>
<path d="M256.46 425.011C254.752 427.331 255.094 430.648 253.582 433.1C252.271 435.225 249.8 436.34 248.16 438.223C247.637 438.849 247.17 439.52 246.766 440.228C245.245 442.776 244.008 446.042 245.507 448.604C246.712 450.665 249.245 451.47 251.569 452.019C254.505 452.713 257.556 453.268 260.527 452.738C263.497 452.208 266.4 450.389 267.459 447.563C267.668 446.853 267.915 446.155 268.201 445.472C269.811 442.302 274.861 442.268 276.509 439.117C277.662 436.913 276.602 434.248 275.542 431.997L272.306 425.122C271.232 422.84 266.879 424.152 264.609 423.606C261.649 422.893 258.589 422.107 256.46 425.011Z" fill="#093046"/>
<path d="M281.489 419.105C280.164 420.148 279.151 421.536 278.561 423.116C276.959 426.811 276.409 430.862 275.875 434.853C275.571 436.441 275.54 438.069 275.783 439.667C276.473 442.927 279.427 445.328 282.606 446.325C285.786 447.321 289.196 447.168 292.524 447.005C293.598 447.032 294.664 446.816 295.642 446.371C297.314 445.449 297.968 443.281 297.681 441.393C297.394 439.505 296.363 437.824 295.353 436.203C294.343 434.582 293.31 432.903 293.021 431.015C292.535 427.839 293.908 423.177 291.957 420.304C290.001 417.425 284.099 417.276 281.489 419.105Z" fill="#093046"/>
<path d="M289.585 265.704C289.279 264.676 288.606 263.797 287.694 263.235C287.741 262.134 287.606 261.033 287.294 259.976C286.254 256.9 283.789 257.077 281.463 255.716C280.454 255.126 280.516 254.605 279.991 253.636C279.302 252.365 278.271 251.313 277.015 250.6C275.523 249.649 273.948 248.67 272.183 248.549C268.473 248.297 265.629 251.786 262.083 252.906C260.52 253.399 258.841 253.419 257.27 253.886C255.699 254.353 254.132 255.467 253.898 257.089C253.789 257.838 253.98 258.606 253.871 259.355C253.653 260.843 252.347 261.885 251.473 263.109C249.541 265.815 249.762 269.638 251.307 272.583C251.633 273.192 252.005 273.775 252.422 274.327C252.551 275.719 252.95 277.072 253.598 278.31C255.144 281.255 257.803 283.455 260.581 285.284C260.353 284.307 260.215 283.312 260.169 282.31C260.13 281.976 260.173 281.638 260.295 281.325C260.605 280.678 261.422 280.506 262.045 280.152C263.336 279.418 263.843 277.795 263.88 276.31C263.917 274.826 263.603 273.339 263.758 271.862C263.764 271.523 263.841 271.188 263.985 270.88C264.128 270.572 264.334 270.298 264.59 270.075C265.067 269.803 265.611 269.673 266.159 269.701C268.804 269.593 271.568 269.544 273.901 268.293C274.653 267.794 275.462 267.384 276.31 267.074C278.293 266.557 280.32 267.947 281.462 269.648C282.605 271.349 283.175 273.373 284.229 275.13C285.283 276.887 287.105 278.454 289.143 278.246C289.258 278.246 289.372 278.222 289.477 278.175C289.581 278.129 289.675 278.06 289.752 277.975C289.84 277.817 289.879 277.637 289.864 277.456L289.978 269.664C290.073 268.331 289.94 266.992 289.585 265.704Z" fill="#093046"/>
<path d="M235.209 306.463C233.569 308.882 231.679 311.207 230.778 313.986C230.248 315.62 230.084 317.347 229.7 319.021C228.423 324.597 224.733 329.549 224.362 335.257C224.233 336.525 224.419 337.806 224.905 338.985C225.963 341.287 228.496 342.501 230.913 343.264C233.329 344.027 235.924 344.577 237.853 346.221C238.824 347.152 239.704 348.172 240.482 349.269C243.629 353.183 247.862 356.08 252.65 357.595C252.272 354.989 252.094 351.847 254.178 350.236C255.305 349.365 256.812 349.209 258.232 349.087L264.943 348.507C260.468 344.166 255.536 340.324 250.232 337.047C248.377 335.901 246.357 334.691 245.51 332.682C245.072 331.386 244.89 330.019 244.975 328.654C244.929 323.663 244.506 318.683 243.711 313.756C243.158 310.335 242.427 306.944 241.59 303.581C241.355 302.637 239.967 298.402 238.258 299.393C237.856 299.626 237.479 302.312 237.244 302.87C236.685 304.131 236.003 305.335 235.209 306.463Z" fill="#093046"/>
<path d="M312.5 297.323L315.241 303.022C316.561 305.366 317.162 308.046 316.968 310.729L317.131 327.826C317.257 330.11 317.068 332.401 316.569 334.633C316.398 335.369 316.076 336.061 315.624 336.666C315.159 337.188 314.611 337.629 314.003 337.972C308.816 341.213 302.091 343.054 296.611 340.339C295.356 339.67 294.163 338.891 293.046 338.011C290.862 336.394 288.645 334.745 287.012 332.573C285.302 330.301 284.322 327.579 283.171 324.978C281.107 320.312 278.439 315.937 275.237 311.964C274.706 311.439 274.361 310.755 274.254 310.017C274.22 308.518 275.998 307.78 277.385 307.21C279.753 306.236 281.986 304.357 282.383 301.827C287.419 308.431 292.976 315.409 300.924 317.822C301.048 317.902 301.192 317.946 301.34 317.951C301.488 317.956 301.634 317.92 301.763 317.848C301.893 317.776 302 317.671 302.074 317.543C302.148 317.415 302.187 317.269 302.185 317.122C302.636 315.234 302.795 313.29 303.125 311.378C303.731 307.896 304.896 304.534 306.577 301.425C307.518 299.681 310.566 293.3 312.5 297.323Z" fill="#093046"/>
<path opacity="0.1" d="M244.496 313.806C244.572 317.852 243.712 321.86 241.985 325.52C241.535 326.328 241.204 327.197 241.001 328.1C240.701 330.026 241.797 331.89 243.049 333.383C245.52 336.319 248.724 338.549 252.337 339.844" fill="black"/>
<path opacity="0.1" d="M304.003 310.395C303.6 311.48 303.966 312.681 304.277 313.797C305.179 317.034 305.6 320.386 305.527 323.745C305.54 323.804 305.538 323.865 305.522 323.923C305.505 323.981 305.475 324.034 305.433 324.077C305.391 324.12 305.339 324.152 305.281 324.17C305.224 324.187 305.163 324.191 305.103 324.179C303.781 324.26 302.268 324.269 301.371 323.294" fill="black"/>
<path opacity="0.1" d="M528.657 472.289C577.931 472.289 617.875 463.729 617.875 453.171C617.875 442.612 577.931 434.053 528.657 434.053C479.384 434.053 439.439 442.612 439.439 453.171C439.439 463.729 479.384 472.289 528.657 472.289Z" fill="black"/>
<path d="M573.265 282.524L566.893 288.897L573.265 295.27L579.638 282.524H573.265Z" fill="#A0616A"/>
<path d="M574.7 227.265C576.489 227.997 577.339 229.998 578.013 231.809L586.28 254.022L587.889 258.346C588.678 260.466 589.468 262.588 590.135 264.75C590.557 266.117 590.93 267.499 591.253 268.894C591.588 270.088 591.717 271.331 591.634 272.568C591.411 273.93 590.914 275.232 590.173 276.396C587.297 281.405 583.201 285.606 578.266 288.608C577.982 286.772 577.241 285.036 576.112 283.559C574.983 282.083 573.502 280.913 571.804 280.157L576.079 277.806C576.983 277.381 577.797 276.786 578.474 276.051C578.888 275.479 579.183 274.828 579.34 274.14C579.497 273.451 579.514 272.737 579.389 272.041C579.132 270.654 578.706 269.302 578.12 268.018C576.686 264.439 575.441 260.786 574.392 257.076C573.771 254.881 573.2 252.625 571.97 250.705C570.854 248.962 569.237 247.569 568.223 245.765C566.677 243.017 566.717 239.632 567.4 236.553C567.976 233.954 568.942 231.452 569.755 228.922C570.394 226.933 572.786 226.481 574.7 227.265Z" fill="#FDC34A"/>
<path d="M535.288 167.916C532.001 169.027 529.023 171.623 528.349 175.027C528.037 176.604 528.229 178.244 527.966 179.831C527.357 183.511 524.469 186.321 521.804 188.932C519.14 191.542 516.389 194.575 516.194 198.3C515.982 202.379 518.94 206.2 518.428 210.252C517.833 214.96 512.861 218.01 511.632 222.593C510.811 225.654 511.817 228.951 513.471 231.653C516.625 236.802 522.014 240.298 527.754 242.172C533.494 244.046 539.607 244.44 545.645 244.503C552.996 244.58 560.978 243.949 566.502 239.097C569.657 236.301 571.638 232.415 572.049 228.219C572.574 222.599 570.228 216.792 571.846 211.384C572.864 207.981 575.418 204.872 575.037 201.34C574.664 197.887 571.648 195.439 569.579 192.649C567.647 190.045 566.475 186.968 565.326 183.936L561.394 173.559C560.622 171.519 559.773 169.374 558.051 168.035C554.827 165.529 549.642 166.021 545.872 166.538C542.375 167.018 538.651 166.781 535.288 167.916Z" fill="#093046"/>
<path d="M538.328 202.114C538.328 202.114 538.713 213.657 537.559 214.812C536.405 215.966 542.176 223.662 542.176 223.662L552.565 223.277L557.952 219.044L553.335 212.888C553.335 212.888 551.411 202.884 552.95 200.575C554.489 198.266 538.328 202.114 538.328 202.114Z" fill="#A0616A"/>
<path opacity="0.1" d="M538.328 202.114C538.328 202.114 538.713 213.657 537.559 214.812C536.405 215.966 542.176 223.662 542.176 223.662L552.565 223.277L557.952 219.044L553.335 212.888C553.335 212.888 551.411 202.884 552.95 200.575C554.489 198.266 538.328 202.114 538.328 202.114Z" fill="black"/>
<path d="M514.279 291.19L520.821 305.812L525.823 299.655L515.819 286.572L514.279 291.19Z" fill="#A0616A"/>
<path d="M496.772 437.599L494.078 452.606L489.461 459.147L492.154 460.686L496.772 459.916L502.159 457.992L504.467 449.142L508.7 437.599H496.772Z" fill="#A0616A"/>
<path d="M546.024 428.364L544.484 449.912L548.332 452.99L554.489 447.603V431.827L546.024 428.364Z" fill="#A0616A"/>
<path d="M544.678 206.538C552.329 206.538 558.53 200.337 558.53 192.686C558.53 185.036 552.329 178.834 544.678 178.834C537.028 178.834 530.826 185.036 530.826 192.686C530.826 200.337 537.028 206.538 544.678 206.538Z" fill="#A0616A"/>
<path d="M555.367 211.318C554.952 211.119 554.499 211.011 554.039 211.002C553.578 210.993 553.121 211.083 552.698 211.267C551.858 211.639 551.042 212.064 550.256 212.54C548.234 213.592 545.942 214.009 543.68 213.736C543.414 213.716 543.154 213.649 542.911 213.538C542.654 213.378 542.417 213.187 542.207 212.97C541.387 212.303 540.339 211.981 539.286 212.072C538.233 212.163 537.257 212.659 536.563 213.456C536.156 213.963 535.877 214.568 535.433 215.043C534.283 216.273 532.386 216.323 530.702 216.32C527.212 216.222 523.723 216.542 520.308 217.272C516.878 218.012 513.72 219.686 511.181 222.109C510.488 222.76 509.936 223.547 509.56 224.42C509.095 225.618 509.157 226.962 508.739 228.177C508.274 229.529 507.245 230.639 506.828 232.007C506.515 233.037 506.558 234.184 506.033 235.125C508.282 237.071 510.187 239.667 512.436 241.613C513.924 242.902 515.483 244.296 516.043 246.183C516.294 247.347 516.406 248.537 516.376 249.728C516.654 255.419 519.741 260.583 523.193 265.117C524.139 266.461 525.272 267.665 526.557 268.691C528.301 269.879 530.283 270.674 532.364 271.023C536.295 271.827 540.341 271.823 544.354 271.783C548.5 271.741 552.719 271.654 556.661 270.365C558.667 269.805 560.472 268.685 561.863 267.135C563.484 265.144 564.117 262.263 566.328 260.959C566.864 260.714 567.371 260.411 567.841 260.056C568.291 259.567 568.61 258.972 568.768 258.326C569.541 255.909 569.968 253.395 570.034 250.858C569.977 249.336 570.08 247.812 570.342 246.311C570.725 244.989 571.282 243.723 571.999 242.548L576.583 234.236C576.955 233.56 576.859 232.566 576.892 231.795C576.858 230.684 576.517 229.604 575.907 228.674C572.934 223.42 568.264 219.332 562.662 217.081C562.221 216.931 561.8 216.725 561.411 216.468C560.953 216.083 560.565 215.62 560.266 215.102C559.05 213.269 557.564 211.204 555.367 211.318Z" fill="#FDC34A"/>
<path d="M498.242 256.59C497.338 258.787 496.674 261.076 496.262 263.416C495.82 266.649 496.341 269.941 497.761 272.879C500.231 277.964 505.094 281.412 508.526 285.903C511.715 290.076 513.614 295.078 516.376 299.546C515.894 298.408 516.479 297.092 517.267 296.141C518.055 295.19 519.063 294.401 519.64 293.31C520.034 292.465 520.281 291.559 520.372 290.631C520.784 287.861 521.007 284.851 519.594 282.433C518.531 280.612 516.695 279.403 515.241 277.876C513.787 276.323 512.718 274.45 512.121 272.408C511.524 270.366 511.415 268.212 511.802 266.12C512.082 264.68 512.597 263.297 512.982 261.882C513.46 259.979 513.821 258.05 514.064 256.104L515.797 244.203C516.258 241.037 516.647 237.534 514.855 234.885C514.505 234.33 514.021 233.873 513.448 233.554C512.974 233.338 512.469 233.195 511.952 233.133C510.066 232.825 507.512 231.999 506.591 234.02C505.48 236.458 504.706 239.117 503.775 241.632L498.242 256.59Z" fill="#FDC34A"/>
<path d="M564.282 263.101C564.282 263.101 541.408 267.526 536.021 267.526H526.401C526.401 267.526 522.938 273.683 522.938 279.839C522.938 285.996 500.236 372.186 500.236 372.186C500.236 372.186 478.689 442.986 502.545 443.371C526.401 443.756 541.408 444.91 541.793 436.83C542.177 428.749 544.486 324.474 544.486 324.474L548.078 378.092C549.043 391.366 548.012 404.709 545.019 417.677C543.297 424.947 543.564 432.918 552.182 434.521C568.727 437.599 589.505 434.906 589.505 429.134C589.505 423.362 578.731 295.23 578.731 295.23C578.731 295.23 573.345 276.376 570.266 274.837C567.188 273.298 564.282 263.101 564.282 263.101Z" fill="#093046"/>
<path d="M492.54 458.378L501.005 455.299L506.777 440.678L512.933 439.908C512.933 439.908 509.47 447.219 507.546 448.373C505.623 449.528 502.544 459.147 502.544 459.147C502.544 459.147 504.083 462.995 496.773 464.534C489.462 466.073 484.075 467.227 484.075 467.227C484.075 467.227 483.305 465.688 486.768 461.841C490.231 457.993 494.275 451.515 494.275 451.515L492.54 458.378Z" fill="#093046"/>
<path d="M544.484 440.678L542.945 452.222C542.945 452.222 547.178 458.378 548.332 458.378C549.487 458.378 555.643 452.991 555.643 452.991C555.643 452.991 555.258 447.219 555.643 445.68C556.028 444.141 556.797 436.83 555.643 436.446C554.489 436.061 554.489 445.021 554.489 445.021L549.487 450.298L544.664 447.406L544.484 440.678Z" fill="#093046"/>
<path d="M545.833 192.687C554.12 192.687 560.839 189.069 560.839 184.606C560.839 180.144 554.12 176.526 545.833 176.526C537.545 176.526 530.826 180.144 530.826 184.606C530.826 189.069 537.545 192.687 545.833 192.687Z" fill="#093046"/>
<path d="M0 343.177C0 388.506 28.4367 425.185 63.579 425.185L0 343.177Z" fill="#3F3D56"/>
<path d="M63.5781 425.184C63.5781 379.347 95.3118 342.255 134.529 342.255L63.5781 425.184Z" fill="#400186"/>
<path d="M23.0352 347.286C23.0352 390.344 41.1687 425.185 63.5783 425.185L23.0352 347.286Z" fill="#400186"/>
<path d="M63.5781 425.185C63.5781 366.615 100.257 319.22 145.586 319.22L63.5781 425.185Z" fill="#3F3D56"/>
<path d="M50.2031 425.763C50.2031 425.763 59.2197 425.486 61.937 423.551C64.6544 421.616 75.8068 419.305 76.4809 422.408C77.155 425.512 90.0311 437.843 79.8514 437.925C69.6718 438.007 56.1985 436.339 53.4863 434.687C50.7742 433.035 50.2031 425.763 50.2031 425.763Z" fill="#A8A8A8"/>
<path opacity="0.2" d="M80.0331 436.845C69.8534 436.927 56.3802 435.259 53.668 433.607C51.6026 432.349 50.7795 427.835 50.5041 425.752C50.3134 425.76 50.2031 425.764 50.2031 425.764C50.2031 425.764 50.7742 433.036 53.4864 434.688C56.1985 436.34 69.6718 438.008 79.8514 437.925C82.7899 437.902 83.8049 436.856 83.7491 435.308C83.3409 436.243 82.2202 436.827 80.0331 436.845Z" fill="black"/>
</svg>
