<svg width="270" height="191" viewBox="0 0 270 191" fill="none" xmlns="http://www.w3.org/2000/svg">
<g clip-path="url(#clip0)">
<path d="M18.0624 190.344L17.7338 189.736C22.1397 187.355 27.6231 184.391 30.4871 179.527C33.3104 174.732 33.3737 168.22 30.6524 162.534C28.3365 157.694 24.0824 153.358 18.3499 149.995C17.2192 149.331 16.0322 148.703 14.8843 148.094C12.1097 146.625 9.24061 145.105 6.87488 142.948C3.61654 139.979 1.15119 134.995 2.9887 130.555C3.59301 129.138 4.58271 127.919 5.84541 127.036C7.10811 126.153 8.59322 125.641 10.1321 125.56L10.1711 126.249C8.76128 126.324 7.40065 126.792 6.24361 127.601C5.08658 128.409 4.17947 129.526 3.62524 130.824C1.91771 134.949 4.26042 139.631 7.34046 142.438C9.6415 144.536 12.4713 146.035 15.2079 147.484C16.3623 148.096 17.5561 148.728 18.6998 149.399C24.5515 152.833 28.9002 157.271 31.2757 162.236C34.0949 168.127 34.0209 174.887 31.0826 179.877C28.1209 184.907 22.5438 187.921 18.0624 190.344Z" fill="#F1F1F1"/>
<path d="M14.5112 129.199C17.8501 129.199 20.5569 127.885 20.5569 126.264C20.5569 124.643 17.8501 123.329 14.5112 123.329C11.1722 123.329 8.46548 124.643 8.46548 126.264C8.46548 127.885 11.1722 129.199 14.5112 129.199Z" fill="#F1F1F1"/>
<path d="M19.3477 148.536C22.6867 148.536 25.3934 147.222 25.3934 145.601C25.3934 143.98 22.6867 142.666 19.3477 142.666C16.0088 142.666 13.302 143.98 13.302 145.601C13.302 147.222 16.0088 148.536 19.3477 148.536Z" fill="#F1F1F1"/>
<path d="M8.29276 151.644C11.6317 151.644 14.3385 150.33 14.3385 148.709C14.3385 147.088 11.6317 145.774 8.29276 145.774C4.95381 145.774 2.24706 147.088 2.24706 148.709C2.24706 150.33 4.95381 151.644 8.29276 151.644Z" fill="#F1F1F1"/>
<path d="M25.5662 167.873C28.9051 167.873 31.6119 166.559 31.6119 164.938C31.6119 163.317 28.9051 162.003 25.5662 162.003C22.2272 162.003 19.5205 163.317 19.5205 164.938C19.5205 166.559 22.2272 167.873 25.5662 167.873Z" fill="#F1F1F1"/>
<path d="M37.6576 167.873C40.9965 167.873 43.7033 166.559 43.7033 164.938C43.7033 163.317 40.9965 162.003 37.6576 162.003C34.3186 162.003 31.6119 163.317 31.6119 164.938C31.6119 166.559 34.3186 167.873 37.6576 167.873Z" fill="#F1F1F1"/>
<path d="M260.37 160.564H161.969C159.636 160.562 157.4 159.634 155.751 157.986C154.102 156.338 153.174 154.103 153.172 151.772V9.13626C153.174 6.80509 154.102 4.57014 155.751 2.92175C157.4 1.27336 159.636 0.346137 161.969 0.343506H260.37C262.702 0.346138 264.938 1.27336 266.587 2.92175C268.236 4.57014 269.164 6.80509 269.167 9.13626V151.772C269.164 154.103 268.236 156.338 266.587 157.986C264.938 159.634 262.702 160.562 260.37 160.564Z" fill="#E6E6E6"/>
<path d="M260.543 154.954H161.796C161.077 154.953 160.387 154.668 159.879 154.159C159.371 153.651 159.085 152.962 159.084 152.244V8.66383C159.085 7.94523 159.371 7.25629 159.879 6.74815C160.387 6.24002 161.077 5.95419 161.796 5.95337H260.543C261.262 5.95419 261.951 6.24002 262.46 6.74815C262.968 7.25629 263.254 7.94523 263.255 8.66383V152.244C263.254 152.962 262.968 153.651 262.46 154.159C261.951 154.668 261.262 154.953 260.543 154.954Z" fill="white"/>
<path d="M210.795 3.78432C211.208 3.78432 211.543 3.44943 211.543 3.03633C211.543 2.62322 211.208 2.28833 210.795 2.28833C210.382 2.28833 210.047 2.62322 210.047 3.03633C210.047 3.44943 210.382 3.78432 210.795 3.78432Z" fill="white"/>
<path d="M250.971 100.499H171.367C171.301 100.499 171.238 100.472 171.191 100.426C171.145 100.379 171.118 100.316 171.118 100.25V62.114C171.118 62.048 171.145 61.9846 171.191 61.9379C171.238 61.8912 171.301 61.865 171.367 61.865C171.434 61.865 171.497 61.8912 171.544 61.9379C171.59 61.9846 171.617 62.048 171.617 62.114V100.001H250.971C251.037 100.001 251.1 100.027 251.146 100.074C251.193 100.121 251.219 100.184 251.219 100.25C251.219 100.316 251.193 100.379 251.146 100.425C251.1 100.472 251.037 100.498 250.971 100.499Z" fill="#3F3D56"/>
<path d="M188.375 97.7596H181.135C180.939 97.7594 180.751 97.6814 180.612 97.5429C180.474 97.4043 180.396 97.2164 180.396 97.0205V87.0445C180.396 86.8486 180.474 86.6607 180.612 86.5221C180.751 86.3836 180.939 86.3056 181.135 86.3054H188.375C188.571 86.3056 188.759 86.3836 188.898 86.5221C189.037 86.6607 189.115 86.8486 189.115 87.0445V97.0205C189.115 97.2164 189.037 97.4043 188.898 97.5429C188.759 97.6814 188.571 97.7594 188.375 97.7596Z" fill="#400186"/>
<path d="M201.579 97.7595H194.339C194.142 97.7593 193.955 97.6814 193.816 97.5428C193.677 97.4042 193.599 97.2164 193.599 97.0204V77.5824C193.599 77.3864 193.677 77.1985 193.816 77.06C193.955 76.9214 194.142 76.8435 194.339 76.8433H201.579C201.775 76.8435 201.963 76.9214 202.101 77.06C202.24 77.1985 202.318 77.3864 202.318 77.5824V97.0204C202.318 97.2164 202.24 97.4042 202.101 97.5428C201.963 97.6814 201.775 97.7593 201.579 97.7595Z" fill="#400186"/>
<path d="M214.782 97.7596H207.542C207.346 97.7594 207.158 97.6814 207.019 97.5429C206.881 97.4043 206.803 97.2164 206.803 97.0205V87.0445C206.803 86.8486 206.881 86.6607 207.019 86.5221C207.158 86.3836 207.346 86.3056 207.542 86.3054H214.782C214.978 86.3056 215.166 86.3836 215.305 86.5221C215.444 86.6607 215.522 86.8486 215.522 87.0445V97.0205C215.522 97.2164 215.444 97.4043 215.305 97.5429C215.166 97.6814 214.978 97.7594 214.782 97.7596Z" fill="#400186"/>
<path d="M227.986 97.7596H220.746C220.554 97.7638 220.369 97.6918 220.23 97.5595C220.091 97.4273 220.011 97.2455 220.006 97.054V73.8139C220.011 73.6225 220.091 73.4407 220.23 73.3084C220.369 73.1762 220.554 73.1042 220.746 73.1083H227.986C228.177 73.1042 228.363 73.1762 228.501 73.3084C228.64 73.4407 228.721 73.6225 228.725 73.8139V97.054C228.721 97.2455 228.64 97.4273 228.501 97.5595C228.363 97.6918 228.177 97.7638 227.986 97.7596Z" fill="#400186"/>
<path d="M241.189 97.7594H233.949C233.753 97.7592 233.565 97.6813 233.426 97.5427C233.288 97.4042 233.21 97.2163 233.209 97.0203V67.1241C233.21 66.9282 233.288 66.7403 233.426 66.6017C233.565 66.4632 233.753 66.3852 233.949 66.385H241.189C241.385 66.3852 241.573 66.4632 241.712 66.6017C241.851 66.7403 241.929 66.9282 241.929 67.1241V97.0203C241.929 97.2163 241.851 97.4042 241.712 97.5427C241.573 97.6813 241.385 97.7592 241.189 97.7594Z" fill="#400186"/>
<path d="M184.755 83.3174C185.581 83.3174 186.25 82.6485 186.25 81.8234C186.25 80.9982 185.581 80.3293 184.755 80.3293C183.93 80.3293 183.26 80.9982 183.26 81.8234C183.26 82.6485 183.93 83.3174 184.755 83.3174Z" fill="#3F3D56"/>
<path d="M197.959 73.6064C198.784 73.6064 199.453 72.9376 199.453 72.1124C199.453 71.2873 198.784 70.6184 197.959 70.6184C197.133 70.6184 196.464 71.2873 196.464 72.1124C196.464 72.9376 197.133 73.6064 197.959 73.6064Z" fill="#3F3D56"/>
<path d="M211.162 83.3174C211.988 83.3174 212.657 82.6485 212.657 81.8234C212.657 80.9982 211.988 80.3293 211.162 80.3293C210.337 80.3293 209.667 80.9982 209.667 81.8234C209.667 82.6485 210.337 83.3174 211.162 83.3174Z" fill="#3F3D56"/>
<path d="M224.366 68.8753C225.191 68.8753 225.86 68.2064 225.86 67.3812C225.86 66.5561 225.191 65.8872 224.366 65.8872C223.54 65.8872 222.871 66.5561 222.871 67.3812C222.871 68.2064 223.54 68.8753 224.366 68.8753Z" fill="#3F3D56"/>
<path d="M237.569 63.3972C238.395 63.3972 239.064 62.7283 239.064 61.9032C239.064 61.0781 238.395 60.4092 237.569 60.4092C236.744 60.4092 236.074 61.0781 236.074 61.9032C236.074 62.7283 236.744 63.3972 237.569 63.3972Z" fill="#3F3D56"/>
<path d="M211.194 82.158L197.959 72.2499L184.904 82.0226L184.606 81.6242L197.959 71.6273L211.131 81.4888L224.22 67.1715L224.273 67.1501L237.476 61.8328L237.662 62.2948L224.511 67.591L211.194 82.158Z" fill="#3F3D56"/>
<path d="M94.8753 77.8592C94.3701 77.8588 93.871 77.9694 93.4134 78.1833C92.9557 78.3971 92.5507 78.7089 92.227 79.0966L76.7467 78.6129L76.1407 76.0044L68.1295 79.9119L69.1659 87.056L92.7581 84.0367C93.1922 84.3738 93.7005 84.6024 94.2409 84.7036C94.7812 84.8047 95.3379 84.7755 95.8646 84.6183C96.3914 84.4611 96.8729 84.1805 97.2693 83.7998C97.6657 83.4191 97.9655 82.9493 98.1436 82.4295C98.3218 81.9097 98.3732 81.3549 98.2936 80.8112C98.2141 80.2676 98.0058 79.7507 97.6861 79.3037C97.3665 78.8567 96.9446 78.4924 96.4558 78.2412C95.9669 77.9899 95.425 77.859 94.8753 77.8592H94.8753Z" fill="#9F616A"/>
<path d="M66.2011 185.801H70.4365L72.4517 169.472L66.2004 169.473L66.2011 185.801Z" fill="#9F616A"/>
<path d="M65.1208 184.419L73.4618 184.418H73.4622C74.8719 184.419 76.2239 184.978 77.2207 185.975C78.2176 186.971 78.7776 188.322 78.7777 189.731V189.904L65.1211 189.905L65.1208 184.419Z" fill="#2F2E41"/>
<path d="M50.2197 182.434L54.2887 183.61L60.76 168.482L54.7547 166.748L50.2197 182.434Z" fill="#9F616A"/>
<path d="M49.5656 180.807L57.5788 183.121L57.5791 183.121C58.9334 183.513 60.0767 184.426 60.7576 185.659C61.4385 186.893 61.6012 188.347 61.2099 189.7L61.1619 189.866L48.0421 186.077L49.5656 180.807Z" fill="#2F2E41"/>
<path d="M61 114.897C61 114.897 59.4935 119.098 61.87 124.83L63.7039 148.438L64.2466 182.013H71.9679L76.6408 147.785L79.4472 116.75L61 114.897Z" fill="#2F2E41"/>
<path d="M56.6572 114.897C56.6572 114.897 55.1507 119.098 57.5272 124.83L59.3611 148.438L50.2306 180.414H57.952L72.298 147.785L75.1044 116.75L56.6572 114.897Z" fill="#2F2E41"/>
<path d="M79.3082 60.7501C83.9944 60.7501 87.7933 56.953 87.7933 52.2691C87.7933 47.5852 83.9944 43.7881 79.3082 43.7881C74.622 43.7881 70.8231 47.5852 70.8231 52.2691C70.8231 56.953 74.622 60.7501 79.3082 60.7501Z" fill="#9F616A"/>
<path d="M80.4431 72.8989L78.7236 64.9132L69.968 59.9443L68.1925 62.4288C68.1925 62.4288 55.6643 65.7194 57.1794 80.0986C58.6946 94.4779 58.0037 101.384 58.0037 101.384L54.549 117.268C54.549 117.268 55.6124 117.45 80.0202 121.712L81.0566 87.1821L80.4431 72.8989Z" fill="#CBCBCB"/>
<path opacity="0.1" d="M71.9494 150.609L63.9984 166.662V171.264L71.9494 150.609Z" fill="black"/>
<path d="M70.1595 54.9517C70.9686 57.1173 74.0298 57.4174 75.1096 55.3732C75.1936 55.2145 75.262 55.0481 75.3139 54.8763C75.6097 53.8944 75.4236 52.8128 75.9699 51.8739C76.1029 51.6391 76.2937 51.442 76.5243 51.3015C78.3401 50.231 80.1275 53.6278 81.816 52.6774C82.8515 52.0947 82.63 50.4024 83.5514 49.6524C84.7674 48.6626 86.524 50.1368 88.0832 49.9685C89.818 49.7812 90.639 47.5845 90.2618 45.8817C89.8019 43.8049 88.1764 42.1194 86.2689 41.1763C84.3615 40.2333 82.1942 39.9486 80.0668 39.8957C77.6497 39.8357 75.1205 40.0921 73.0767 41.3834C70.5913 42.9538 69.191 45.8772 68.881 48.7998C68.6925 50.5777 69.4989 53.1833 70.1595 54.9517Z" fill="#2F2E41"/>
<path d="M111.738 113.165C111.751 113.165 111.763 113.165 111.776 113.164C118.169 112.83 124.194 110.075 128.627 105.458C133.059 100.842 135.567 94.7115 135.638 88.3135C135.71 81.9154 133.341 75.7303 129.013 71.0158C124.685 66.3013 118.723 63.4116 112.339 62.9341C112.26 62.9279 112.181 62.9381 112.106 62.964C112.031 62.99 111.963 63.0311 111.905 63.0848C111.847 63.1375 111.8 63.2018 111.768 63.2734C111.736 63.3449 111.719 63.4224 111.719 63.5008L111.168 112.584C111.167 112.737 111.226 112.883 111.333 112.992C111.44 113.101 111.586 113.164 111.738 113.165Z" fill="#3F3D56"/>
<path d="M91.9912 71.0506C92.1872 71.053 92.3743 71.1329 92.5116 71.2728L109.417 88.5532C109.485 88.6223 109.539 88.7042 109.575 88.7942C109.611 88.8842 109.629 88.9804 109.627 89.0773L109.364 112.564C109.363 112.665 109.342 112.764 109.301 112.856C109.259 112.948 109.2 113.031 109.125 113.099C109.05 113.167 108.962 113.22 108.866 113.253C108.77 113.287 108.669 113.3 108.567 113.292C103.867 112.941 99.3579 111.286 95.5466 108.514C91.7354 105.742 88.773 101.962 86.9925 97.6C85.212 93.2378 84.6838 88.4657 85.4673 83.82C86.2509 79.1742 88.315 74.8389 91.4279 71.3013C91.4953 71.225 91.5776 71.1634 91.6698 71.1203C91.762 71.0772 91.862 71.0536 91.9638 71.0507C91.9728 71.0505 91.982 71.0505 91.9912 71.0506Z" fill="#E6E6E6"/>
<path d="M109.181 62.7334C109.37 62.7357 109.551 62.8096 109.687 62.9401C109.76 63.0096 109.818 63.0936 109.857 63.1866C109.897 63.2796 109.916 63.3798 109.914 63.4807L109.677 84.6716C109.675 84.8175 109.63 84.9597 109.548 85.0801C109.465 85.2005 109.349 85.2938 109.213 85.3481C109.078 85.4024 108.929 85.4154 108.787 85.3853C108.644 85.3553 108.513 85.2836 108.411 85.1792L93.6588 70.0999C93.591 70.0305 93.5374 69.9483 93.5013 69.8582C93.4652 69.768 93.4472 69.6717 93.4483 69.5746C93.4495 69.4775 93.4698 69.3815 93.508 69.2923C93.5462 69.203 93.6017 69.1222 93.6712 69.0543C93.6801 69.0456 93.6892 69.0372 93.6986 69.0289C97.989 65.2543 103.428 63.0365 109.136 62.7343C109.151 62.7336 109.166 62.7333 109.181 62.7334Z" fill="#404DEF"/>
<path d="M86.2386 87.5276C85.7334 87.5273 85.2343 87.6379 84.7767 87.8517C84.319 88.0656 83.914 88.3774 83.5903 88.7651L68.11 88.2814L67.5041 85.6729L59.4928 89.5804L60.5292 96.7244L84.1214 93.7051C84.5555 94.0422 85.0638 94.2709 85.6042 94.372C86.1445 94.4732 86.7012 94.444 87.2279 94.2868C87.7547 94.1296 88.2363 93.849 88.6327 93.4683C89.029 93.0876 89.3288 92.6178 89.5069 92.098C89.6851 91.5782 89.7365 91.0234 89.6569 90.4797C89.5774 89.936 89.3691 89.4192 89.0494 88.9722C88.7298 88.5252 88.308 88.1609 87.8191 87.9096C87.3302 87.6584 86.7884 87.5274 86.2386 87.5276H86.2386Z" fill="#9F616A"/>
<path d="M58.1876 92.5226L57.7573 71.2405C57.7422 70.4958 57.875 69.7554 58.148 69.0623C58.4209 68.3691 58.8287 67.737 59.3476 67.2023C59.8665 66.6677 60.4863 66.2411 61.1712 65.9474C61.856 65.6537 62.5924 65.4985 63.3376 65.491C64.0828 65.4835 64.8221 65.6237 65.5128 65.9035C66.2035 66.1833 66.8318 66.5973 67.3614 67.1213C67.8911 67.6454 68.3115 68.2692 68.5984 68.9567C68.8854 69.6441 69.0331 70.3816 69.0331 71.1265V86.6801L58.1876 92.5226Z" fill="#CBCBCB"/>
<path d="M131.969 190.26H0.345469C0.253845 190.26 0.165973 190.224 0.101185 190.159C0.0363972 190.095 0 190.007 0 189.915C0 189.824 0.0363972 189.736 0.101185 189.671C0.165973 189.606 0.253845 189.57 0.345469 189.57H131.969C132.061 189.57 132.148 189.606 132.213 189.671C132.278 189.736 132.314 189.824 132.314 189.915C132.314 190.007 132.278 190.095 132.213 190.159C132.148 190.224 132.061 190.26 131.969 190.26Z" fill="#CBCBCB"/>
</g>
<defs>
<clipPath id="clip0">
<rect width="269.167" height="190" fill="white" transform="translate(0 0.343506)"/>
</clipPath>
</defs>
</svg>
