<svg width="928" height="701" viewBox="0 0 928 701" fill="none" xmlns="http://www.w3.org/2000/svg">
<g clip-path="url(#clip0)">
<path opacity="0.1" d="M10.0167 331.465C24.6992 388.664 55.7854 438.11 104.915 462.074C207.056 511.886 437.27 486.193 609.112 456.709C698.023 441.453 776.117 399.387 832.882 340.108L10.0167 331.465Z" fill="#57B9B3"/>
<path opacity="0.1" d="M911.172 62.2306H816.886C812.4 62.2306 808.729 58.8875 808.729 54.8024C808.729 50.7173 812.392 47.3742 816.886 47.3742H833.2C828.714 47.3742 825.043 44.0311 825.043 39.946C825.043 35.8609 828.705 32.5259 833.2 32.5259H821.56C817.074 32.5259 813.403 29.1828 813.403 25.0977C813.403 21.0126 817.065 17.6695 821.56 17.6695H870.771C859.849 13.0381 847.116 9.75206 832.384 8.03159C698.194 -7.681 650.28 2.70708 633.355 13.3969C612.316 26.8583 588.913 36.2077 564.388 40.9489C481.595 56.5148 326.759 75.2443 186.419 34.9477C116.669 14.9298 64.8315 48.8093 33.7535 105.324H927.543C926.377 88.8858 922.885 73.7032 916.474 60.4205C914.96 61.6021 913.093 62.2398 911.172 62.2306Z" fill="#57B9B3"/>
<path opacity="0.1" d="M2.01478 212.075C-1.60297 245.342 -0.369277 278.958 5.67725 311.871L833.51 339.464C856.319 315.642 875.679 288.745 891.024 259.555L2.01478 212.075ZM329.41 283.267H313.096C317.575 283.267 321.253 286.61 321.253 290.695C321.253 294.78 317.583 298.115 313.096 298.115H218.851C214.373 298.115 210.694 294.78 210.694 290.695C210.694 286.61 214.365 283.267 218.851 283.267H235.165C230.687 283.267 227.008 279.924 227.008 275.839C227.008 271.754 230.679 268.41 235.165 268.41H223.509C219.03 268.41 215.352 265.076 215.352 260.99C215.352 256.905 219.022 253.562 223.509 253.562H317.795C322.281 253.562 325.952 256.905 325.952 260.99C325.952 265.076 322.289 268.41 317.795 268.41H329.41C333.897 268.41 337.567 271.754 337.567 275.839C337.567 279.924 333.921 283.267 329.41 283.267Z" fill="#57B9B3"/>
<path opacity="0.1" d="M927.584 105.838L23.7938 125.872C12.7819 151.63 5.49778 180.748 2.13712 210.934H911.743C917.665 193.271 922.059 175.132 924.876 156.718C927.584 138.975 928.669 121.819 927.584 105.838ZM185.644 171.485H169.33C173.808 171.485 177.487 174.828 177.487 178.913C177.487 182.998 173.816 186.341 169.33 186.341H75.0521C70.5739 186.341 66.8951 182.998 66.8951 178.913C66.8951 174.828 70.5658 171.485 75.0521 171.485H91.366C86.8878 171.485 83.209 168.15 83.209 164.065C83.209 159.98 86.8797 156.637 91.366 156.637H79.7097C75.2316 156.637 71.5528 153.294 71.5528 149.208C71.5528 145.123 75.2234 141.78 79.7097 141.78H173.996C178.482 141.78 182.153 145.123 182.153 149.208C182.153 153.294 178.49 156.637 173.996 156.637H185.644C190.122 156.637 193.801 159.98 193.801 164.065C193.801 168.15 190.122 171.485 185.644 171.485Z" fill="#57B9B3"/>
<path opacity="0.1" d="M541.899 625.266C575.79 625.266 603.264 619.101 603.264 611.494C603.264 603.888 575.79 597.723 541.899 597.723C508.008 597.723 480.534 603.888 480.534 611.494C480.534 619.101 508.008 625.266 541.899 625.266Z" fill="#6C63FF"/>
<path opacity="0.1" d="M684.491 664.315C745.632 664.315 795.197 660.249 795.197 655.232C795.197 650.215 745.632 646.149 684.491 646.149C623.349 646.149 573.784 650.215 573.784 655.232C573.784 660.249 623.349 664.315 684.491 664.315Z" fill="#6C63FF"/>
<path opacity="0.1" d="M239.994 655.232C301.135 655.232 350.7 649.066 350.7 641.46C350.7 633.854 301.135 627.688 239.994 627.688C178.852 627.688 129.288 633.854 129.288 641.46C129.288 649.066 178.852 655.232 239.994 655.232Z" fill="#6C63FF"/>
<path opacity="0.1" d="M408.786 586.291C454.79 586.291 492.084 580.125 492.084 572.519C492.084 564.913 454.79 558.747 408.786 558.747C362.781 558.747 325.487 564.913 325.487 572.519C325.487 580.125 362.781 586.291 408.786 586.291Z" fill="#6C63FF"/>
<path opacity="0.1" d="M432.041 701C468.869 701 498.724 694.834 498.724 687.228C498.724 679.622 468.869 673.456 432.041 673.456C395.213 673.456 365.358 679.622 365.358 687.228C365.358 694.834 395.213 701 432.041 701Z" fill="#6C63FF"/>
<path d="M471.031 244.886C469.269 233.031 458.494 205.364 458.494 205.364C458.306 204.549 458.094 203.734 457.858 202.918C450.215 176.663 439.635 174.38 439.635 174.38L401.738 166.226C402.056 166.424 402.333 166.681 402.554 166.984C402.354 167.002 402.155 167.032 401.958 167.074C400.223 165.026 399.076 162.546 398.638 159.898C398.565 159.507 398.5 159.083 398.451 158.683C401.173 156.031 403.296 152.828 404.677 149.288C406.059 145.749 406.668 141.955 406.462 138.161C406.257 134.367 405.242 130.661 403.486 127.291C401.73 123.921 399.273 120.966 396.281 118.623C395.881 118.313 395.465 118.012 395.066 117.726C396.852 115.826 396.909 113.184 395.571 110.543C392.586 104.346 386.093 100.424 379.421 98.5074C374.322 97.0478 368.817 96.5749 363.743 98.1731C360.863 99.0863 358.237 100.619 355.537 101.981C350.504 104.492 344.933 106.482 341.173 110.616C340.292 111.578 339.476 112.809 339.737 114.081C339.933 115.027 340.683 115.761 341.164 116.601C342.249 118.484 341.98 120.857 341.238 122.912C340.496 124.967 339.411 126.875 338.897 128.979C338.383 131.082 338.579 133.561 340.161 135.07C340.92 135.655 341.71 136.199 342.527 136.7C343.393 137.438 344.153 138.291 344.786 139.236C346.287 141.247 347.782 143.267 349.272 145.295C351.376 147.982 353.256 150.837 354.893 153.832C356.01 156.033 356.875 158.382 358.367 160.355C358.805 160.931 359.306 161.456 359.86 161.92L359.42 161.749C360.068 162.409 360.845 162.929 361.702 163.279C362.559 163.628 363.478 163.798 364.404 163.779C364.485 163.779 364.559 163.779 364.632 163.779C364.973 163.772 365.298 163.639 365.546 163.404C365.546 163.682 365.546 163.959 365.546 164.22C365.635 167.131 365.619 170.229 365.415 173.14L365.064 172.961C364.544 172.702 363.961 172.597 363.383 172.658C362.805 172.718 362.257 172.942 361.802 173.303L326.914 201.287C326.914 201.287 319.328 211.659 320.389 229.565L314.271 256.416C314.271 256.416 306.628 279.198 312.509 295.465C318.39 311.732 321.8 321.036 321.8 321.036C321.8 321.036 324.149 339.521 327.681 341.029C331.213 342.538 332.738 343.353 332.738 343.353L333.44 347.773C333.44 347.773 333.676 348.205 334.092 348.93C336.662 353.399 346.181 369.168 351.711 367.481C352.408 371.763 352.708 376.1 352.609 380.437L358.082 417.17C358.082 417.17 361.899 427.159 361.663 432.394C361.426 437.629 366.117 445.089 366.117 445.089C363.267 450.304 362.431 456.382 363.767 462.172C366.002 471.957 368.825 517.031 368.825 517.031L372.903 527.958L372.789 540.767C372.454 542.857 371.583 544.823 370.26 546.475C367.617 549.345 367.813 552.664 361.443 556.586C355.072 560.508 351.034 561.992 351.034 567.186C351.027 567.91 350.961 568.633 350.839 569.347C350.251 573.163 349.109 575.234 360.823 576.343C374.583 577.648 383.76 568.678 383.76 568.678C383.76 568.678 385.783 565.009 395.31 563.525C395.31 563.525 398.573 563.354 398.744 560.475C398.81 559.481 398.793 557.581 398.744 555.485C398.589 551.498 398.206 546.842 397.7 546.614C397.064 546.328 395.955 542.317 395.571 540.865H398.222C398.222 540.865 400.669 522.38 398.222 510.41C395.775 498.44 397.986 489.952 397.986 489.952L397.513 458.34C397.513 458.34 394.25 454.85 396.811 448.685C399.372 442.521 396.811 412.074 396.811 412.074C396.811 412.074 397.757 401.148 400.457 398.588C403.157 396.027 400.588 382.582 400.457 381.88L405.27 398.017C405.27 398.017 407.383 430.094 411.861 435.9L413.15 450.43C413.15 450.43 422.318 463.803 420.556 471.003C418.794 478.203 422.44 504.246 422.44 504.246V530.869C422.44 530.869 418.321 541.558 424.072 545.399L426.519 545.301C425.703 546.059 425.075 547.201 424.121 548.188C423.019 549.321 422.391 553.634 422.041 557.344C421.747 560.484 421.649 563.183 421.649 563.183C421.649 563.183 424.096 567.096 428.705 567.366C433.314 567.635 448.502 579.181 448.502 579.181C448.502 579.181 463.502 579.181 467.385 578.365L467.614 578.308C468.86 577.916 469.908 577.061 470.542 575.919C471.32 574.594 471.57 573.025 471.243 571.524C470.762 569.233 468.943 566.721 464.914 564.585C454.889 559.301 453.396 554.352 453.396 554.352L446.813 544.477H447.751C447.751 544.477 447.172 534.016 454.334 522.274L453.869 470.554C453.869 470.554 456.806 452.77 451.756 443.116C451.756 443.116 451.34 432.891 454.717 429.752C458.094 426.613 450.223 394.886 450.223 394.886C450.223 394.886 448.592 377.852 446.675 362.311C454.611 369.837 462.842 342.742 464.228 337.923H464.432L464.343 337.572C464.4 337.344 464.432 337.23 464.432 337.23C464.432 337.23 462.67 330.967 463.959 332.239C465.248 333.511 468.429 328.749 468.429 328.749C468.429 328.749 467.956 302.828 473.487 289.766C479.017 276.703 471.031 244.886 471.031 244.886ZM447.376 261.382L447.417 261.308C448.233 277.135 447.262 310.909 447.262 310.909C447.262 310.909 446.169 315.238 445.002 320.335L444.187 288.249L443.371 258.022L447.376 261.382ZM346.14 250.472C346.14 250.472 350.137 300.447 346.14 307.655C345.006 309.71 344.052 313.363 343.261 317.53C341.939 314.064 339.142 305.927 340.145 301.613C341.442 296.036 337.559 281.383 337.559 281.041C337.559 280.698 337.208 272.887 340.006 266.918C342.804 260.95 340.969 258.365 340.969 258.365C340.969 258.365 343.318 248.58 346.14 250.472Z" fill="url(#paint0_linear)"/>
<path d="M355.88 363.028C352.397 378.333 338.546 355.193 335.389 349.64C334.981 348.914 334.753 348.49 334.753 348.49L336.254 341.453L344.191 338.192C345.447 338.848 346.638 339.624 347.747 340.507C352.095 343.924 358.563 351.173 355.88 363.028Z" fill="#D38884"/>
<path d="M463.331 337.988C463.331 337.988 463.331 338.102 463.241 338.33C463.241 338.428 463.176 338.559 463.135 338.697C461.773 343.475 453.698 370.375 445.9 362.906C437.368 354.752 441.511 335.9 441.511 335.9H441.568L459.514 334.066L463.07 337.719L463.331 337.988Z" fill="#D38884"/>
<path d="M452.947 470.367L453.404 521.736C446.365 533.396 446.944 543.752 446.944 543.752L423.745 544.665C418.085 540.857 422.114 530.249 422.114 530.249V503.798C422.114 503.798 418.533 477.958 420.262 470.799C421.992 463.64 412.995 450.414 412.995 450.414L411.722 435.99C407.334 430.225 405.254 398.384 405.254 398.384L400.547 382.304C400.678 382.997 403.125 396.419 400.547 398.889C397.969 401.36 396.966 412.27 396.966 412.27C396.966 412.27 399.503 442.505 396.966 448.612C394.429 454.719 397.651 458.193 397.651 458.193L398.116 489.577C398.116 489.577 395.922 498 398.345 509.88C400.767 521.761 398.345 540.115 398.345 540.115H373.458L373.572 527.305L369.542 516.461C369.542 516.461 366.769 471.696 364.575 462.001C363.262 456.255 364.079 450.229 366.875 445.041C366.875 445.041 362.266 437.661 362.495 432.467C362.723 427.273 358.938 417.366 358.938 417.366L353.571 380.91C353.719 373.894 352.823 366.895 350.912 360.142C347.796 349.754 343.179 336.137 343.179 336.137L348.391 336.602L374.69 338.942C374.69 338.942 438.632 334.645 441.495 338.216C442.099 339.384 442.507 340.643 442.702 341.942C445.573 354.834 449.366 395.22 449.366 395.22C449.366 395.22 457.099 426.719 453.779 429.833C450.459 432.948 450.867 443.092 450.867 443.092C455.843 452.673 452.947 470.367 452.947 470.367Z" fill="#444053"/>
<path d="M398.891 559.595C398.712 562.457 395.522 562.628 395.522 562.628C386.175 564.096 384.184 567.732 384.184 567.732C384.184 567.732 375.212 576.645 361.679 575.348C350.178 574.239 351.295 572.193 351.891 568.401C352.007 567.695 352.069 566.98 352.078 566.265C352.078 561.071 356.059 559.595 362.291 555.665C368.523 551.734 368.352 548.481 370.946 545.627C373.539 542.773 373.809 537.237 373.809 537.237C376.745 532.124 384.192 538.052 384.192 538.052C384.543 539.862 395.612 539.61 395.612 539.61C395.612 539.61 397.08 545.497 397.839 545.839C398.337 546.067 398.712 550.683 398.859 554.645C398.94 556.725 398.956 558.608 398.891 559.595Z" fill="#B07473"/>
<path opacity="0.1" d="M398.891 559.595C398.712 562.457 395.522 562.628 395.522 562.628C386.175 564.096 384.184 567.732 384.184 567.732C384.184 567.732 375.212 576.645 361.679 575.348C350.178 574.239 351.295 572.193 351.891 568.401C357.03 569.673 366.851 571.451 372.585 568.336C380.554 564.014 386.272 560.997 386.272 560.997L398.867 554.662C398.94 556.725 398.956 558.608 398.891 559.595Z" fill="black"/>
<path d="M469.343 574.998C468.729 576.13 467.7 576.981 466.472 577.37L466.251 577.427C462.442 578.243 447.719 578.243 447.719 578.243C447.719 578.243 432.832 566.738 428.33 566.477C423.827 566.216 421.404 562.318 421.404 562.318C421.404 562.318 421.494 559.644 421.78 556.529C422.13 552.843 422.742 548.563 423.827 547.437C425.817 545.358 426.274 542.545 430.752 544.323C430.752 544.323 437.147 533.054 444.684 541.762L452.482 553.585C452.482 553.585 453.951 558.478 463.829 563.786C467.777 565.906 469.539 568.401 470.036 570.676C470.35 572.153 470.103 573.693 469.343 574.998Z" fill="#B07473"/>
<path opacity="0.1" d="M469.343 574.998C468.462 575.74 467.491 576.539 466.472 577.37L466.251 577.427C462.442 578.243 447.719 578.243 447.719 578.243C447.719 578.243 432.832 566.738 428.33 566.477C423.827 566.216 421.404 562.318 421.404 562.318C421.404 562.318 421.494 559.644 421.78 556.529C426.364 557.899 433.305 560.321 435.165 562.93C438.02 566.901 446.691 572.445 446.691 572.445C446.691 572.445 462.858 570.888 470.036 570.676C470.35 572.153 470.103 573.693 469.343 574.998Z" fill="black"/>
<path d="M406.428 172.366L385.139 194.862C385.139 194.862 359.338 192.962 363.841 185.347C366.133 181.465 366.492 173.344 366.288 166.283C366.1 159.474 365.399 153.677 365.399 153.677C365.399 153.677 401.583 135.673 398.842 152.462C398.252 155.625 398.219 158.868 398.744 162.043C400.286 170.523 406.428 172.366 406.428 172.366Z" fill="#D38884"/>
<path opacity="0.1" d="M398.81 152.462C398.219 155.625 398.186 158.868 398.712 162.043C396.237 164.55 393.288 166.54 390.036 167.896C386.784 169.252 383.295 169.949 379.771 169.944C374.877 169.944 369.583 165.924 365.627 163.6C365.44 156.783 365.399 153.677 365.399 153.677C365.399 153.677 401.583 135.673 398.81 152.462Z" fill="black"/>
<path d="M406.428 141.903C406.43 147.942 404.381 153.803 400.615 158.526C396.85 163.248 391.591 166.553 385.702 167.898C379.812 169.243 373.64 168.548 368.196 165.929C362.753 163.309 358.36 158.919 355.739 153.478C353.118 148.037 352.422 141.867 353.767 135.979C355.112 130.091 358.417 124.834 363.141 121.07C367.865 117.305 373.728 115.255 379.769 115.257C385.811 115.258 391.673 117.311 396.395 121.077C399.524 123.573 402.05 126.741 403.787 130.346C405.524 133.951 406.427 137.901 406.428 141.903Z" fill="#D38884"/>
<path opacity="0.1" d="M442.702 341.942C436.062 357.737 393.353 358.063 393.353 358.063V340.842L390.767 340.67C391.884 345.604 389.201 357.631 389.201 357.631C355.447 362.392 347.217 343.166 347.217 343.166L348.392 336.585L374.69 338.925C374.69 338.925 438.632 334.628 441.495 338.2C442.101 339.372 442.509 340.637 442.702 341.942Z" fill="black"/>
<path d="M393.353 355.984V338.762L390.767 338.599C391.884 343.492 389.201 355.56 389.201 355.56C363.8 359.139 352.853 349.142 348.995 343.973C348.301 343.082 347.705 342.12 347.217 341.103L357.527 283.128L359.974 197.806L363.67 182.835L364.526 175.652V175.57H364.616L367.242 176.695L382.961 183.487L400.816 170.009L401.077 169.822L401.966 169.145L403.443 170.327L407.113 173.271L418.884 249.257C418.884 249.257 439.276 307.761 443.094 331.375C443.249 332.321 443.371 333.201 443.469 334.025C445.989 355.584 393.353 355.984 393.353 355.984Z" fill="#F1C24A"/>
<path d="M384.869 186.684C385.707 186.684 386.387 186.005 386.387 185.167C386.387 184.33 385.707 183.651 384.869 183.651C384.031 183.651 383.352 184.33 383.352 185.167C383.352 186.005 384.031 186.684 384.869 186.684Z" fill="#67647E"/>
<path d="M385.571 200.529C386.409 200.529 387.088 199.85 387.088 199.013C387.088 198.175 386.409 197.496 385.571 197.496C384.733 197.496 384.054 198.175 384.054 199.013C384.054 199.85 384.733 200.529 385.571 200.529Z" fill="#67647E"/>
<path d="M387.088 222.944C387.926 222.944 388.605 222.265 388.605 221.428C388.605 220.59 387.926 219.911 387.088 219.911C386.25 219.911 385.571 220.59 385.571 221.428C385.571 222.265 386.25 222.944 387.088 222.944Z" fill="#67647E"/>
<path d="M389.592 247.088C390.43 247.088 391.109 246.409 391.109 245.571C391.109 244.734 390.43 244.055 389.592 244.055C388.754 244.055 388.075 244.734 388.075 245.571C388.075 246.409 388.754 247.088 389.592 247.088Z" fill="#67647E"/>
<path d="M391.109 269.756C391.947 269.756 392.627 269.077 392.627 268.239C392.627 267.402 391.947 266.723 391.109 266.723C390.272 266.723 389.592 267.402 389.592 268.239C389.592 269.077 390.272 269.756 391.109 269.756Z" fill="#67647E"/>
<path d="M392.627 293.9C393.465 293.9 394.144 293.221 394.144 292.383C394.144 291.545 393.465 290.866 392.627 290.866C391.789 290.866 391.109 291.545 391.109 292.383C391.109 293.221 391.789 293.9 392.627 293.9Z" fill="#67647E"/>
<path d="M392.023 317.782C392.861 317.782 393.54 317.103 393.54 316.266C393.54 315.428 392.861 314.749 392.023 314.749C391.185 314.749 390.506 315.428 390.506 316.266C390.506 317.103 391.185 317.782 392.023 317.782Z" fill="#67647E"/>
<path opacity="0.1" d="M365.537 291.559C365.537 291.559 363.841 313.763 360.725 320.22C357.609 326.678 356.222 344.796 356.222 344.796L348.987 343.981C348.293 343.091 347.697 342.128 347.209 341.111L357.519 283.136L359.966 197.814L363.669 182.835L364.526 175.652L364.624 175.611C365.028 175.42 365.47 175.324 365.917 175.331C366.364 175.339 366.804 175.448 367.201 175.652L367.544 175.831C367.441 176.125 367.343 176.426 367.25 176.736C364.428 185.567 363.376 201.842 363.376 201.842C363.376 201.842 367.454 231.612 367.878 245.457C368.303 259.303 365.537 291.559 365.537 291.559Z" fill="black"/>
<path opacity="0.1" d="M347.747 340.532C347.668 340.718 347.575 340.898 347.47 341.07C344.664 345.807 337.551 348.816 335.389 349.64C334.981 348.914 334.753 348.49 334.753 348.49L336.254 341.453L344.191 338.192C345.448 338.856 346.639 339.64 347.747 340.532Z" fill="black"/>
<path d="M328.521 227.225L321.939 231.147L315.943 257.802C315.943 257.802 308.439 280.413 314.206 296.566C319.973 312.719 323.325 321.965 323.325 321.965C323.325 321.965 325.634 340.312 329.1 341.812C332.567 343.312 334.06 344.12 334.06 344.12L334.753 348.506C334.753 348.506 344.15 345.318 347.47 339.7C350.79 334.082 345.023 320.131 345.023 320.131C345.023 320.131 340.063 308.242 341.336 302.706C342.608 297.169 338.791 282.631 338.791 282.321C338.791 282.011 338.448 274.241 341.238 268.296C344.028 262.352 342.168 259.816 342.168 259.816L340.43 242.856L328.521 227.225Z" fill="#67647E"/>
<path opacity="0.1" d="M443.249 336.952C443.249 336.952 425.817 343.524 420.279 337.768C414.74 332.011 415.311 304.997 415.311 304.997C415.311 304.997 410.009 255.152 406.657 246.966C403.304 238.779 405.025 179.696 405.025 179.696C405.025 179.696 402.774 172.056 400.808 170.058C400.684 169.93 400.544 169.817 400.392 169.724L401.069 169.87L403.435 170.376L407.105 173.32L418.876 249.306C418.876 249.306 439.268 307.81 443.086 331.424L443.249 336.952Z" fill="black"/>
<path opacity="0.1" d="M463.331 338.681H463.135C460.941 338.966 441.577 341.306 441.495 337.278C441.492 336.813 441.516 336.347 441.568 335.884L459.514 334.049L463.07 337.702C463.135 337.939 463.184 338.143 463.233 338.306L463.331 338.681Z" fill="black"/>
<path d="M444.75 200.529L457.474 207.166C457.474 207.166 468.078 234.613 469.775 246.379C469.775 246.379 477.63 277.902 472.222 290.866C466.814 303.831 467.263 329.565 467.263 329.565C467.263 329.565 464.147 334.294 462.874 333.03C461.602 331.766 463.339 337.988 463.339 337.988C463.339 337.988 441.585 340.874 441.495 336.602C441.405 332.329 446.487 311.912 446.487 311.912C446.487 311.912 447.874 263.339 445.908 255.723C443.942 248.107 444.75 200.529 444.75 200.529Z" fill="#67647E"/>
<path opacity="0.1" d="M406.779 252.266C406.779 252.266 399.617 269.797 397.309 270.954C395 272.112 397.774 276.719 397.774 276.719C397.774 276.719 410.817 258.495 406.779 252.266Z" fill="black"/>
<path opacity="0.1" d="M402.505 190.769C402.586 190.435 393.964 199.225 391.656 200.554C389.348 201.883 400.082 200.472 402.505 190.769Z" fill="black"/>
<path opacity="0.1" d="M378.499 250.88C378.499 250.88 365.342 259.384 367.079 262.752C368.817 266.119 378.499 250.88 378.499 250.88Z" fill="black"/>
<path opacity="0.1" d="M402.391 375.023C402.391 375.023 413.59 382.223 431.013 383.992L402.391 375.023Z" fill="black"/>
<path opacity="0.1" d="M375.497 392.334C375.497 392.334 385.881 405.38 390.62 405.714C395.359 406.049 375.497 392.334 375.497 392.334Z" fill="black"/>
<path opacity="0.1" d="M390.041 443.459C389.576 443.687 384.152 455.225 378.621 455.575C373.091 455.926 390.041 443.459 390.041 443.459Z" fill="black"/>
<path opacity="0.1" d="M438.167 468.736C438.167 468.736 448.461 466.428 450.753 473.807C450.753 473.783 450.06 471.475 438.167 468.736Z" fill="black"/>
<path opacity="0.1" d="M431.242 510.94C431.242 510.94 443.714 508.396 446.365 511.862C449.016 515.327 431.242 510.94 431.242 510.94Z" fill="black"/>
<path opacity="0.1" d="M395.963 516.844C395.963 516.958 383.271 519.388 383.727 521.002C384.184 522.617 397.268 522.388 397.733 519.844C397.816 519.531 397.836 519.205 397.792 518.883C397.748 518.562 397.64 518.253 397.476 517.974C397.311 517.695 397.092 517.451 396.833 517.257C396.573 517.063 396.277 516.923 395.963 516.844Z" fill="black"/>
<path opacity="0.1" d="M427.09 527.786C427.09 527.786 447.947 525.242 446.666 529.629C445.386 534.016 427.09 527.786 427.09 527.786Z" fill="black"/>
<path opacity="0.1" d="M317.901 270.954C318.015 271.297 331.637 273.148 333.481 277.535C333.481 277.535 320.095 271.297 317.982 271.297" fill="black"/>
<path opacity="0.1" d="M337.061 306.603C337.061 306.603 325.748 310.183 326.555 315.573C327.363 320.962 325.405 313.078 337.061 306.603Z" fill="black"/>
<path opacity="0.1" d="M331.792 334.066C331.792 334.066 335.911 328.415 339.835 329.451C343.758 330.486 331.792 334.066 331.792 334.066Z" fill="black"/>
<path opacity="0.1" d="M396.395 121.077C395.999 121.462 395.555 121.793 395.074 122.064C391.811 123.964 390.914 126.891 389.364 130.267C387.92 133.357 386.33 136.627 383.417 138.38C379.657 140.647 374.706 139.815 370.799 141.788C369.064 142.691 367.64 144.092 366.709 145.812C365.779 147.531 365.385 149.489 365.578 151.434C365.827 152.935 366.198 154.414 366.688 155.854C367.576 158.973 367.978 162.21 367.878 165.451C367.887 165.546 367.887 165.641 367.878 165.736C364.536 164.067 361.581 161.713 359.207 158.829C356.833 155.944 355.092 152.592 354.097 148.992C353.103 145.391 352.877 141.621 353.434 137.927C353.991 134.233 355.318 130.698 357.33 127.55C359.343 124.403 361.995 121.713 365.114 119.656C368.233 117.599 371.75 116.221 375.437 115.61C379.124 115 382.898 115.171 386.514 116.113C390.13 117.055 393.508 118.746 396.428 121.077H396.395Z" fill="black"/>
<path d="M395.702 113.054C392.774 106.906 386.403 103.008 379.853 101.109C374.853 99.6653 369.42 99.1923 364.461 100.782C361.63 101.679 359.061 103.229 356.41 104.558C351.467 107.053 346.034 109.026 342.315 113.127C341.442 114.081 340.683 115.304 340.903 116.568C341.091 117.506 341.825 118.199 342.298 119.063C343.367 120.939 343.114 123.295 342.372 125.334C341.629 127.372 340.577 129.264 340.071 131.36C339.566 133.455 339.761 135.909 341.311 137.402C342.005 138.062 342.894 138.478 343.644 139.032C344.492 139.765 345.236 140.61 345.855 141.544L350.259 147.561C352.329 150.228 354.173 153.062 355.774 156.033C356.867 158.218 357.715 160.55 359.183 162.499C360.651 164.448 362.935 166.014 365.366 165.802C365.554 165.806 365.741 165.767 365.911 165.686C366.081 165.605 366.23 165.486 366.345 165.337C366.435 165.146 366.477 164.936 366.467 164.725C366.575 161.496 366.181 158.27 365.301 155.161C364.81 153.721 364.439 152.243 364.192 150.741C364.004 148.797 364.4 146.841 365.33 145.122C366.26 143.404 367.681 142.002 369.412 141.095C373.327 139.122 378.279 139.954 382.031 137.695C384.951 135.934 386.542 132.664 387.977 129.541C389.552 126.165 390.424 123.238 393.687 121.338C396.95 119.438 397.325 116.291 395.702 113.054Z" fill="#585268"/>
<path opacity="0.1" d="M383.76 548.693C383.76 548.693 387.839 553.887 386.778 556.847C385.718 559.807 383.76 548.693 383.76 548.693Z" fill="black"/>
<path opacity="0.1" d="M438.942 561.69C438.942 561.69 439.847 554.727 443.477 554.662C447.107 554.596 447.286 554.287 450.06 555.355C452.833 556.423 455.435 558.078 454.603 558.323C453.771 558.567 449.831 554.344 445.786 556.504C443.261 557.886 440.954 559.633 438.942 561.69Z" fill="black"/>
<path opacity="0.1" d="M371.59 192.22L383.01 184.221C383.01 184.221 366.304 174.355 364.314 175.741C362.324 177.127 360.953 189.603 360.953 189.603L371.59 192.22Z" fill="black"/>
<path d="M371.541 191.707L382.961 183.553C382.961 183.553 366.255 173.686 364.265 175.073C362.275 176.459 360.904 189.619 360.904 189.619L371.541 191.707Z" fill="#E1E7EF"/>
<path d="M371.541 191.707L382.961 183.553C382.961 183.553 366.255 173.686 364.265 175.073C362.275 176.459 360.904 189.619 360.904 189.619L371.541 191.707Z" fill="#F1C24A"/>
<path d="M366.157 175.138L365.815 174.967C365.305 174.707 364.731 174.6 364.162 174.66C363.594 174.719 363.054 174.942 362.609 175.301L328.35 203.081C328.35 203.081 320.903 213.38 321.939 231.147L342.143 259.759C342.143 259.759 344.452 250.072 347.217 251.915C347.217 251.915 351.14 301.532 347.217 308.683C343.293 315.834 341.564 342.603 341.564 342.603L354.836 344.103C354.836 344.103 356.222 325.985 359.338 319.527C362.454 313.069 364.151 290.866 364.151 290.866C364.151 290.866 366.957 258.61 366.492 244.764C366.027 230.919 361.989 201.149 361.989 201.149C361.989 201.149 363.123 183.699 366.157 175.138Z" fill="#67647E"/>
<path opacity="0.1" d="M400.286 187.165L386.052 181.897C386.052 181.897 404.177 162.051 406.444 173.059L400.286 187.165Z" fill="black"/>
<path d="M400.286 186.472L386.052 181.204C386.052 181.204 404.177 161.358 406.444 172.366L400.286 186.472Z" fill="#E1E7EF"/>
<path d="M400.286 186.472L386.052 181.204C386.052 181.204 404.177 161.358 406.444 172.366L400.286 186.472Z" fill="#F1C24A"/>
<path opacity="0.1" d="M399.821 169.585C400.026 169.552 400.236 169.599 400.408 169.716L399.821 169.585Z" fill="black"/>
<path d="M401.191 168.207L438.958 176.361C438.958 176.361 449.35 178.669 456.854 204.745C464.359 230.821 446.577 262.768 446.577 262.768L442.653 259.433L444.619 335.582C444.619 335.582 427.188 342.154 421.649 336.398C416.111 330.641 416.69 303.603 416.69 303.603C416.69 303.603 411.379 253.766 408.027 245.571C404.674 237.377 406.396 178.31 406.396 178.31C406.396 178.31 403.312 167.75 401.191 168.207Z" fill="#67647E"/>
<path opacity="0.1" d="M435.744 216.731C435.214 217.22 434.594 240.263 436.903 257.802C438.314 268.483 440.495 279.048 443.428 289.415L440.002 219.153C440.002 219.153 437.359 215.231 435.744 216.731Z" fill="black"/>
<path opacity="0.1" d="M431.128 196.884C432.049 197.463 436.095 207.036 434.243 210.958C432.392 214.88 431.128 196.884 431.128 196.884Z" fill="black"/>
<path opacity="0.1" d="M395.482 113.054C393.628 109.404 390.74 106.381 387.178 104.362C389.826 106.258 391.964 108.779 393.402 111.7C395.033 114.962 394.552 118.224 391.379 120.009C388.206 121.795 387.219 124.836 385.669 128.212C384.225 131.302 382.634 134.572 379.714 136.366C375.962 138.633 371.011 137.793 367.095 139.766C365.365 140.676 363.945 142.08 363.015 143.799C362.086 145.518 361.689 147.475 361.875 149.42C362.126 150.919 362.5 152.394 362.992 153.832C363.881 156.951 364.282 160.188 364.183 163.429C364.191 163.64 364.146 163.85 364.053 164.04C363.94 164.19 363.793 164.311 363.624 164.391C363.455 164.472 363.269 164.511 363.082 164.505C362.103 164.58 361.122 164.397 360.235 163.975C360.877 164.612 361.642 165.11 362.484 165.439C363.326 165.769 364.226 165.923 365.13 165.891C365.277 165.913 365.427 165.9 365.568 165.854C365.709 165.807 365.838 165.729 365.944 165.625C366.049 165.52 366.13 165.393 366.178 165.253C366.227 165.112 366.242 164.962 366.223 164.815C366.328 161.574 365.929 158.336 365.04 155.218C364.542 153.779 364.168 152.301 363.922 150.798C363.735 148.854 364.131 146.898 365.061 145.18C365.991 143.461 367.412 142.059 369.143 141.152C373.058 139.179 378.009 140.011 381.762 137.752C384.682 135.991 386.272 132.721 387.708 129.598C389.282 126.223 390.155 123.295 393.418 121.395C396.681 119.496 397.113 116.291 395.482 113.054Z" fill="black"/>
<path d="M627.849 215.451C616.608 215.231 606.69 207.297 601.069 197.602C599.595 195.295 598.669 192.682 598.361 189.962C598.4 189.344 598.504 188.731 598.671 188.135C599.015 187.225 599.287 186.29 599.487 185.338C599.531 184.959 599.531 184.576 599.487 184.197C599.487 184.197 599.487 184.197 599.487 184.132C599.756 182.069 598.541 180.055 597.04 178.644C595.539 177.233 593.655 176.198 592.089 174.795C587.26 170.555 585.791 163.755 585.702 157.281V156.938C585.759 154.166 585.979 151.386 585.955 148.613C585.993 147.039 585.925 145.465 585.751 143.9C585.286 139.978 583.793 135.983 580.71 133.48C572.667 126.956 559.143 133.749 550.814 127.584C548.791 126.076 547.152 123.85 544.697 123.263C542.845 122.814 540.92 123.418 539.109 124.021C532.975 126.043 526.131 128.701 523.733 134.621C522.363 138.021 522.746 141.903 521.49 145.343C520.674 147.651 519.116 149.632 517.983 151.818C517.052 153.463 516.6 155.335 516.678 157.224C516.577 158.201 516.714 159.189 517.077 160.102C517.503 161.203 518.189 162.185 519.076 162.964C518.756 163.645 518.356 164.285 517.885 164.872C516.319 166.788 513.912 168.134 512.281 170.042C509.263 173.54 509.377 178.293 510.862 182.403C512.346 186.513 515.03 190.255 516.882 194.259C517.697 195.996 518.317 197.936 517.493 199.665C516.914 200.863 515.715 201.777 514.785 202.812C513.425 204.337 512.57 206.245 512.338 208.275C493.977 212.466 493.96 227.217 493.96 227.217L484.042 252.152C484.042 252.152 482.451 256.351 480.583 261.895L468.845 259.792L477.002 273.441C475.461 279.002 474.367 284.156 474.726 286.749C474.726 286.749 471.08 303.872 477.565 306.864L491.872 313.298C492.492 313.678 493.158 313.977 493.854 314.187L494.434 314.447C494.642 314.548 494.871 314.601 495.102 314.601C495.334 314.601 495.563 314.548 495.771 314.447H495.812H495.967C496.245 314.466 496.523 314.424 496.783 314.325C497.101 314.154 497.354 313.881 497.501 313.551C497.496 313.524 497.496 313.496 497.501 313.469L501.783 312.23L505.413 316.527C507.044 317.676 508.676 318.671 510.217 319.568L504.597 375.357C504.597 375.357 503.692 449.558 500.951 466.469C499.94 472.731 499.931 477.004 500.315 479.907L500.209 480.086C500.886 484.856 502.656 485.794 502.656 485.794V485.729C502.688 485.754 502.724 485.776 502.762 485.794C503.587 483.627 504.569 481.524 505.698 479.499C505.698 479.899 505.698 480.314 505.698 480.722C505.641 487.017 505.445 495.831 504.793 501.563C503.684 511.348 507.632 543.597 507.632 543.597L508.994 572.951C509.215 577.935 508.058 582.884 505.649 587.253C502.387 593.116 498.218 601.367 497.917 605.028C497.9 605.227 497.9 605.426 497.917 605.624L490.918 614.039C490.918 614.039 488.185 618.262 494.36 619.966C497.68 620.888 503.406 619.966 508.007 618.882C510.015 618.419 511.807 617.291 513.091 615.68C514.376 614.069 515.076 612.07 515.079 610.01C516.242 605.967 518.206 602.199 520.854 598.929L522.004 605.689L529.704 607.597L530.691 589.071C531.089 588.032 531.269 586.922 531.221 585.81C532.739 572.633 527.649 573.815 527.649 573.815C527.785 573.931 527.872 574.094 527.893 574.272L527.649 573.823C524.525 567.659 526.017 557.516 526.017 557.516C526.017 557.516 530.096 528.162 531.491 520.407C532.494 514.928 532.078 496.989 531.743 486.976C531.743 486.56 531.743 486.161 531.703 485.761C543.644 485.606 558.278 485.207 568.548 484.212V485.419L566.655 554.768C566.525 559.189 565.625 563.554 563.996 567.667C563.996 567.749 563.939 567.822 563.906 567.904C561.655 573.712 560.384 579.854 560.146 586.079L559.265 608.094V608.706C557.731 609.293 555.309 610.997 555.244 615.938C555.138 623.179 567.903 620.766 567.903 620.766C580.661 620.766 580.767 607.491 580.767 607.491C580.767 607.491 581.166 595.317 581.778 587.171C582.39 579.026 579.853 580.819 579.853 580.819L579.657 603.993C579.657 604.05 579.657 604.107 579.657 604.172V583.861L579.853 580.917V580.836V580.208L581.46 556.309C581.46 556.309 593.214 516.485 595.033 508.845C596.33 503.414 595.792 487.058 595.368 478.015C595.368 477.599 595.368 477.2 595.302 476.816C598.949 476.49 602.171 476.458 603.459 476.458H604.055C604.055 476.458 603.451 412.498 601.926 388.395C600.401 364.292 597.978 342.236 591.901 335.599C588.23 331.587 583.116 319.201 579.666 310.028C586.919 313.163 594.447 315.62 602.154 317.367C621.397 321.395 618.762 304.695 618.762 304.695L616.812 273.115H616.943C616.871 264.843 616.162 256.589 614.822 248.425C613.802 242.163 612.244 235.689 609.863 230.487C611.951 229.671 614.014 228.799 616.037 227.902C621.266 225.594 627.155 222.325 627.906 216.69H627.653C627.754 216.284 627.819 215.869 627.849 215.451ZM508.57 261.113C508.61 264.374 508.488 270.033 508.292 276.287L502.183 268.133L508.309 258.202L508.57 261.113ZM592.978 290.01L582.798 286.749C584.603 283.933 586.712 281.325 589.087 278.97L589.968 278.154L589.65 278.22L590.139 277.771L590.433 277.706L589.968 278.154L590.522 278.04C591.135 280.597 592.32 282.98 593.989 285.012C597.643 288.999 592.986 290.01 592.986 290.01H592.978Z" fill="url(#paint1_linear)"/>
<path d="M531.14 583.543L529.949 606.113L522.355 604.213L520.756 594.828L531.14 583.543Z" fill="#A27772"/>
<path opacity="0.1" d="M531.14 583.543L529.949 606.113L522.355 604.213L520.756 594.828L531.14 583.543Z" fill="black"/>
<path d="M559.012 609.105L570.595 611.503L579.184 603.92V582.548L579.38 579.629V579.539V578.92L580.979 555.167C580.979 555.167 592.57 515.629 594.373 508.038C595.645 502.656 595.115 486.413 594.691 477.436C594.519 473.759 594.373 471.296 594.373 471.296L568.801 465.107L568.262 484.758L566.394 553.61C566.265 557.999 565.38 562.332 563.776 566.42L563.686 566.656C561.463 572.423 560.208 578.517 559.975 584.693L559.11 606.586V607.189L559.012 609.105Z" fill="#CC818C"/>
<path opacity="0.1" d="M559.012 609.105L570.595 611.503L579.184 603.919V602.101C579.156 602.504 579.029 602.893 578.814 603.234C578.6 603.576 578.303 603.859 577.953 604.058L577.83 604.131C573.841 606.24 569.32 607.133 564.828 606.7L560.309 606.317C559.897 606.355 559.493 606.454 559.11 606.61V607.214L559.012 609.105Z" fill="black"/>
<path d="M577.83 604.727L577.953 604.662C578.329 604.45 578.643 604.142 578.863 603.77C579.082 603.397 579.198 602.974 579.201 602.541L579.388 579.539C579.388 579.539 581.884 577.754 581.281 585.842C580.677 593.931 580.285 606.015 580.285 606.015C580.285 606.015 580.188 619.192 567.601 619.192C567.601 619.192 555.015 621.589 555.113 614.397C555.211 607.206 560.309 606.912 560.309 606.912L564.828 607.303C569.321 607.737 573.842 606.841 577.83 604.727Z" fill="#B07473"/>
<path d="M498.683 604.213C498.977 609.407 514.263 606.406 514.263 606.406L524.549 586.446C524.549 586.446 533.138 579.849 528.84 574.06C528.61 573.745 528.4 573.415 528.211 573.073C528.211 573.073 528.211 573.073 528.171 573.024C528.081 572.878 527.999 572.723 527.918 572.56C524.835 566.444 526.352 556.415 526.352 556.415C526.352 556.415 530.34 527.256 531.743 519.567C532.73 514.137 532.323 496.32 531.996 486.356C531.866 482.214 531.743 479.434 531.743 479.434L506.367 472.641C506.367 472.641 506.367 475.805 506.367 480.208C506.31 486.462 506.114 495.212 505.47 500.903C504.377 510.582 508.268 542.635 508.268 542.635L509.614 571.801C509.847 576.743 508.718 581.653 506.351 585.997C503.17 591.819 499.01 600.022 498.724 603.65C498.696 603.837 498.682 604.025 498.683 604.213Z" fill="#CC818C"/>
<path opacity="0.1" d="M498.683 604.213C498.977 609.407 514.263 606.406 514.263 606.406L524.549 586.446C524.549 586.446 533.138 579.849 528.84 574.06C528.61 573.745 528.4 573.415 528.212 573.073C528.073 576.098 524.753 583.673 524.753 583.673C524.753 583.673 516.262 600.658 513.562 604.547C510.862 608.437 499.132 603.822 498.692 603.659C498.674 603.843 498.672 604.028 498.683 604.213Z" fill="black"/>
<path d="M527.918 572.535C527.918 572.535 532.942 571.369 531.442 584.448C531.499 585.934 531.161 587.408 530.463 588.722C529.766 590.035 528.733 591.14 527.469 591.925C523.872 594.184 518.325 599.043 515.519 608.494C515.522 610.533 514.834 612.513 513.567 614.112C512.301 615.711 510.531 616.834 508.545 617.3C504.01 618.36 498.357 619.29 495.086 618.376C488.993 616.68 491.693 612.489 491.693 612.489L498.683 604.197C498.683 604.197 510.87 608.991 513.562 605.094C516.253 601.196 524.753 584.228 524.753 584.228C524.753 584.228 529.411 573.636 527.918 572.535Z" fill="#B07473"/>
<path opacity="0.1" d="M568.801 467.529L568.262 487.18C575.073 486.519 579.951 485.598 580.783 484.302C582.586 481.513 589.128 480.339 594.691 479.858C594.519 476.18 594.373 473.718 594.373 473.718L568.801 467.529Z" fill="black"/>
<path opacity="0.1" d="M506.367 482.597C507.018 481.266 507.977 480.109 509.165 479.222C511.857 477.73 511.563 488.811 511.563 488.811C511.563 488.811 520.536 488.892 531.996 488.745C531.866 484.603 531.743 481.815 531.743 481.815L506.367 475.031C506.367 475.031 506.416 478.178 506.367 482.597Z" fill="black"/>
<path d="M503.472 485.223C503.472 485.223 506.473 477.069 509.181 475.618C511.889 474.166 511.58 485.199 511.58 485.199C511.58 485.199 577.504 485.802 580.799 480.706C584.095 475.61 603.272 475.911 603.272 475.911C603.272 475.911 602.676 412.409 601.175 388.452C599.675 364.496 597.285 342.619 591.289 336.031C587.415 331.766 581.901 317.97 578.491 308.772C576.639 303.75 575.408 300.088 575.408 300.088L512.485 303.676L511.971 308.772L505.29 375.569C505.29 375.569 504.393 449.256 501.693 466.029C498.993 482.801 503.472 485.223 503.472 485.223Z" fill="#444053"/>
<g opacity="0.1">
<path opacity="0.1" d="M575.677 480.706C578.94 475.618 598.149 475.911 598.149 475.911C598.149 475.911 597.554 412.409 596.053 388.452C594.552 364.496 592.162 342.619 586.167 336.031C582.276 331.75 576.778 317.97 573.368 308.772C571.81 304.549 570.693 301.295 570.383 300.366L575.277 300.088C575.277 300.088 576.509 303.75 578.369 308.772C581.778 317.97 587.284 331.766 591.159 336.031C597.154 342.619 599.552 364.488 601.045 388.452C602.538 412.417 603.149 475.911 603.149 475.911C603.149 475.911 583.972 475.618 580.669 480.706C577.855 485.052 529.345 485.256 515.266 485.215C533.334 485.174 573.132 484.636 575.677 480.706Z" fill="black"/>
<path opacity="0.1" d="M504.059 475.618C505.274 474.941 505.878 476.816 506.18 479.091C505.09 481.065 504.144 483.114 503.349 485.223C503.349 485.223 501.612 484.285 500.902 479.515C501.897 477.811 502.998 476.205 504.059 475.618Z" fill="black"/>
</g>
<path d="M522.918 146.444C518.562 152.38 522.967 160.82 518.293 166.593C516.751 168.501 514.377 169.854 512.77 171.73C509.793 175.203 509.907 179.924 511.367 184.001C512.827 188.078 515.446 191.796 517.306 195.775C518.121 197.496 518.725 199.428 517.909 201.141C517.338 202.331 516.156 203.236 515.234 204.264C512.232 207.615 512.15 212.271 513.766 216.217C515.381 220.164 518.464 223.556 521.506 226.899C522.706 228.212 524.223 229.663 526.221 229.622C527.272 229.543 528.288 229.21 529.182 228.652C536.102 225.119 541.393 219.053 543.951 211.719C546.51 204.384 546.14 196.346 542.918 189.277C540.39 183.218 536.173 177.413 536.132 171.012C536.132 165.932 538.742 161.081 539.207 156.025C539.77 149.877 536.132 140.117 528.709 137.434C529.199 141.381 525.128 143.395 522.918 146.444Z" fill="#585268"/>
<path opacity="0.1" d="M522.918 146.444C518.562 152.38 522.967 160.82 518.293 166.593C516.751 168.501 514.377 169.854 512.77 171.73C509.793 175.203 509.907 179.924 511.367 184.001C512.827 188.078 515.446 191.796 517.306 195.775C518.121 197.496 518.725 199.428 517.909 201.141C517.338 202.331 516.156 203.236 515.234 204.264C512.232 207.615 512.15 212.271 513.766 216.217C515.381 220.164 518.464 223.556 521.506 226.899C522.706 228.212 524.223 229.663 526.221 229.622C527.272 229.543 528.288 229.21 529.182 228.652C536.102 225.119 541.393 219.053 543.951 211.719C546.51 204.384 546.14 196.346 542.918 189.277C540.39 183.218 536.173 177.413 536.132 171.012C536.132 165.932 538.742 161.081 539.207 156.025C539.77 149.877 536.132 140.117 528.709 137.434C529.199 141.381 525.128 143.395 522.918 146.444Z" fill="black"/>
<path opacity="0.1" d="M571.223 362.368C562.503 362.825 554.297 366.575 546.663 370.815C539.028 375.055 531.637 379.858 523.423 382.867" fill="black"/>
<path opacity="0.1" d="M565.807 382.908C557.181 383.73 549.143 387.639 543.171 393.915C541.051 396.158 539.223 398.669 537.013 400.822C533.629 404.123 529.447 406.491 524.875 407.696" fill="black"/>
<path opacity="0.1" d="M567.593 398.539C560.637 400.469 554.341 404.264 549.387 409.514C548.049 410.957 546.834 412.498 545.496 413.941C538.277 421.688 528.081 425.797 518.236 429.687" fill="black"/>
<path d="M566.851 181.767C567.043 188.732 567.643 195.68 568.646 202.576C569.461 207.468 570.603 211.871 572.243 213.82C577.039 219.528 548.873 227.152 548.873 227.152L532.241 214.269C532.241 214.269 545.423 202.135 539.281 190.304C533.138 178.473 566.851 181.767 566.851 181.767Z" fill="#CC818C"/>
<path opacity="0.1" d="M511.955 308.772H578.475C576.623 303.75 575.391 300.088 575.391 300.088L512.469 303.676L511.955 308.772Z" fill="black"/>
<path d="M507.672 307.574H578.793C576.794 300.423 578.793 293.81 581.639 288.722C583.635 285.156 586.144 281.903 589.087 279.068L589.576 278.619L614.406 273.123L615.744 272.83C615.744 272.83 615.948 227.698 599.96 221.501C583.972 215.304 574.388 206.93 574.388 206.93L552.421 213.714L536.238 205.56C531.042 211.146 517.257 208.952 517.257 208.952C494.686 211.545 494.686 228.522 494.686 228.522C494.686 228.522 507.868 259.27 508.871 259.27C509.875 259.27 507.672 307.574 507.672 307.574Z" fill="#57B9B3"/>
<path opacity="0.1" d="M532.225 278.88C532.225 278.88 517.722 275.667 512.787 270.049L532.225 278.88Z" fill="black"/>
<path opacity="0.1" d="M605.352 262.042L588.532 275.822C588.654 276.919 588.839 278.008 589.087 279.084L589.576 278.635L614.406 273.14L605.352 262.042Z" fill="black"/>
<path opacity="0.1" d="M559.812 302.779C559.812 302.779 563.49 304.85 569.127 307.574H578.793C576.794 300.423 578.793 293.81 581.64 288.722L564.6 283.21C570.399 288.6 559.812 302.779 559.812 302.779Z" fill="black"/>
<path d="M504.671 223.107L494.686 228.497L484.898 253.26C484.898 253.26 474.71 280.413 475.705 287.605C475.705 287.605 472.116 304.581 478.503 307.574L495.143 315.108C495.437 315.238 495.764 315.273 496.079 315.208C496.394 315.144 496.681 314.983 496.901 314.749C497.12 314.514 497.261 314.217 497.305 313.898C497.348 313.58 497.291 313.256 497.142 312.972C494.768 308.479 492.158 301.45 496.326 297.585L491.53 287.605L508.863 259.245L514.655 249.461L504.671 223.107Z" fill="#57B9B3"/>
<path opacity="0.1" d="M526.882 273.213C527.747 276.736 530.667 282.182 540.333 284.213L550.937 292.897L562.218 298.009L566.818 300.088L568.768 286.007L564.339 283.56L559.175 280.739C559.175 280.739 547.527 259.645 529.084 268.508C528.227 268.914 527.539 269.606 527.137 270.465C526.735 271.323 526.645 272.295 526.882 273.213Z" fill="black"/>
<path d="M527.486 272.014C528.35 275.545 531.262 280.984 540.928 283.014L551.532 291.698L562.821 296.811L567.414 298.89L569.363 284.808L564.934 282.362L559.812 279.565C559.812 279.565 548.155 258.471 529.712 267.375C528.864 267.775 528.18 268.454 527.774 269.299C527.369 270.144 527.267 271.103 527.486 272.014Z" fill="#CC818C"/>
<path opacity="0.1" d="M548.269 200.032C562.501 200.032 574.037 188.499 574.037 174.274C574.037 160.048 562.501 148.515 548.269 148.515C534.038 148.515 522.502 160.048 522.502 174.274C522.502 188.499 534.038 200.032 548.269 200.032Z" fill="black"/>
<path d="M548.269 199.437C562.501 199.437 574.037 187.904 574.037 173.678C574.037 159.452 562.501 147.92 548.269 147.92C534.038 147.92 522.502 159.452 522.502 173.678C522.502 187.904 534.038 199.437 548.269 199.437Z" fill="#CC818C"/>
<path opacity="0.1" d="M564.233 228.717L556.484 213.665C556.484 213.665 567.822 209.083 568.646 203.774C569.469 198.466 579.511 209.996 577.341 213.82C575.171 217.644 564.233 228.717 564.233 228.717Z" fill="black"/>
<path d="M564.233 227.519L556.484 212.466C556.484 212.466 567.822 207.884 568.646 202.576C569.469 197.268 579.511 208.805 577.341 212.621C575.171 216.437 564.233 227.519 564.233 227.519Z" fill="#57B9B3"/>
<path d="M500.812 266.405L543.628 323.947C543.628 323.947 527.844 332.533 506.106 317.163L496.718 305.976L469.914 260.811L500.812 266.405Z" fill="#F6F8FB"/>
<path d="M492.386 297.691L496.285 297.585C496.285 297.585 520.104 274.477 525.952 286.17C531.801 297.862 511.115 308.789 511.115 308.789L504.826 312.181L496.628 314.627L491.383 307.59L492.386 297.691Z" fill="#CC818C"/>
<path opacity="0.1" d="M498.137 310.175C498.496 311.504 498.838 312.972 498.235 314.203C498.09 314.532 497.841 314.805 497.525 314.977C497.265 315.077 496.986 315.116 496.709 315.092C494.646 314.916 492.726 313.966 491.334 312.433C489.967 310.906 488.797 309.213 487.851 307.394C486.791 305.543 485.689 303.497 486.065 301.393C486.489 299.102 488.512 297.512 490.494 296.223C494.442 293.614 494.572 296.656 495.437 300.015C496.302 303.374 497.231 306.783 498.137 310.175Z" fill="black"/>
<path d="M497.541 310.175C497.892 311.504 498.243 312.972 497.639 314.203C497.495 314.532 497.245 314.805 496.93 314.977C496.67 315.077 496.391 315.116 496.114 315.092C494.049 314.92 492.128 313.97 490.738 312.433C489.366 310.908 488.193 309.215 487.247 307.394C486.187 305.543 485.086 303.497 485.469 301.393C485.885 299.102 487.916 297.512 489.89 296.223C493.846 293.614 493.969 296.656 494.841 300.015C495.714 303.374 496.628 306.783 497.541 310.175Z" fill="#57B9B3"/>
<path opacity="0.1" d="M508.871 259.245L510.862 255.878L509.124 262.132L508.871 259.245Z" fill="black"/>
<path opacity="0.1" d="M562.854 296.811L567.446 298.89L569.396 284.808L564.967 282.362C568.026 285.868 565.35 292.35 562.854 296.811Z" fill="black"/>
<path opacity="0.1" d="M581.289 280.462C581.289 280.462 566.46 281.367 560.162 277.323L581.289 280.462Z" fill="black"/>
<g opacity="0.1">
<path opacity="0.1" d="M579.445 289.921C581.441 286.352 583.95 283.097 586.893 280.258C587.598 279.816 588.331 279.418 589.087 279.068L612.204 274.322L613.541 274.029C613.541 274.029 613.745 228.897 597.766 222.7C588.802 219.293 580.4 214.562 572.838 208.667L574.592 208.129C574.592 208.129 584.176 216.511 600.164 222.7C616.152 228.888 615.939 274.029 615.939 274.029H613.541L589.886 278.554C589.886 278.554 588.867 279.541 588.557 279.826C585.59 282.796 583.046 286.16 580.995 289.823C577.865 295.632 577.153 302.441 579.013 308.772H576.566C574.592 301.621 576.631 295.009 579.445 289.921Z" fill="black"/>
<path opacity="0.1" d="M516.311 210.257C516.694 210.2 517.061 210.143 517.461 210.102C519.083 210.332 520.717 210.465 522.355 210.501C520.337 210.557 518.317 210.475 516.311 210.257Z" fill="black"/>
<path opacity="0.1" d="M550.219 214.913L535.585 207.509C535.876 207.271 536.148 207.012 536.401 206.734L551.671 214.456L550.219 214.913Z" fill="black"/>
</g>
<path d="M605.931 260.811L615.719 272.797L617.718 305.348C617.718 305.348 620.312 321.916 601.339 317.921C582.365 313.926 560.407 301.581 560.407 301.581C560.407 301.581 571.011 287.401 565.203 282.011L592.374 290.801C592.374 290.801 596.966 289.798 593.369 285.811C589.772 281.824 589.136 274.624 589.136 274.624L605.931 260.811Z" fill="#57B9B3"/>
<path opacity="0.1" d="M610.352 295.196L615.744 301.385C614.357 300.959 613.117 300.154 612.164 299.06C611.211 297.966 610.583 296.628 610.352 295.196Z" fill="black"/>
<path opacity="0.1" d="M601.159 294.193L609.553 304.973L605.36 305.976L601.159 294.193Z" fill="black"/>
<path opacity="0.1" d="M517.493 161.855C516.572 159.597 517.281 156.963 518.391 154.835C519.5 152.706 521.025 150.692 521.857 148.401C523.089 144.993 522.714 141.136 524.06 137.801C526.433 131.89 533.179 129.248 539.223 127.201C541.01 126.606 542.91 126.011 544.737 126.451C547.185 127.03 548.775 129.248 550.774 130.74C558.98 136.855 572.324 130.12 580.261 136.594C583.295 139.041 584.772 143.044 585.229 146.933C585.685 150.823 585.229 154.769 585.18 158.691C585.049 165.557 586.338 173.067 591.477 177.617C593.027 178.987 594.854 180.014 596.371 181.433C597.888 182.851 599.079 184.833 598.818 186.888C598.617 187.831 598.345 188.758 598.002 189.66C596.983 193.24 598.508 196.999 600.368 200.26C605.915 209.857 615.695 217.767 626.78 217.987C626.038 223.58 620.255 226.826 615.075 229.117C608.549 232.044 601.6 234.914 594.413 234.547C587.227 234.18 579.731 229.582 578.475 222.504C578.042 220.058 578.099 217.114 576.028 215.842C574.755 215.068 573.107 215.263 571.737 214.684C569.755 213.869 568.776 211.643 568.124 209.596C566.786 205.373 566.069 200.979 565.995 196.55C565.905 191.299 566.598 185.567 563.621 181.245C560.864 177.242 555.97 175.211 552.788 171.534C549.852 168.126 546.663 164.016 541.85 163.38C535.194 162.442 521.425 171.485 517.493 161.855Z" fill="black"/>
<path d="M517.493 160.657C516.572 158.398 517.281 155.764 518.391 153.636C519.5 151.508 521.025 149.494 521.857 147.203C523.089 143.794 522.714 139.937 524.06 136.603C526.433 130.683 533.179 128.041 539.223 126.002C541.01 125.407 542.91 124.812 544.737 125.252C547.185 125.831 548.775 128.049 550.774 129.541C558.98 135.657 572.324 128.922 580.261 135.396C583.295 137.842 584.772 141.845 585.229 145.743C585.685 149.641 585.229 153.571 585.18 157.493C585.049 164.358 586.338 171.868 591.477 176.418C593.027 177.788 594.854 178.815 596.371 180.234C597.888 181.653 599.079 183.634 598.818 185.689C598.617 186.633 598.345 187.559 598.002 188.461C596.983 192.041 598.508 195.8 600.368 199.061C605.931 208.626 615.67 216.56 626.756 216.78C626.013 222.374 620.23 225.619 615.05 227.918C608.525 230.837 601.575 233.707 594.389 233.341C587.203 232.974 579.706 228.375 578.45 221.297C578.018 218.851 578.075 215.907 576.003 214.635C574.731 213.861 573.083 214.057 571.713 213.478C569.73 212.662 568.752 210.436 568.099 208.39C566.761 204.167 566.044 199.772 565.97 195.343C565.88 190.092 566.574 184.36 563.596 180.038C560.839 176.035 555.945 174.004 552.764 170.327C549.827 166.919 546.638 162.809 541.825 162.173C535.194 161.244 521.425 170.303 517.493 160.657Z" fill="#585268"/>
<path opacity="0.1" d="M535.781 226.85L550.553 214.864C550.553 214.864 540.439 209.384 539.232 204.712C538.024 200.04 529.933 206.93 530.757 211.121C531.58 215.312 535.781 226.85 535.781 226.85Z" fill="black"/>
<path d="M536.36 225.048L551.133 213.07C551.133 213.07 541.018 207.59 539.86 202.918C538.701 198.246 530.561 205.136 531.385 209.327C532.208 213.518 536.36 225.048 536.36 225.048Z" fill="#57B9B3"/>
<path opacity="0.1" d="M551.712 224.273C552.36 224.273 552.886 223.748 552.886 223.099C552.886 222.451 552.36 221.925 551.712 221.925C551.063 221.925 550.537 222.451 550.537 223.099C550.537 223.748 551.063 224.273 551.712 224.273Z" fill="black"/>
<path opacity="0.1" d="M551.712 230.796C552.36 230.796 552.886 230.271 552.886 229.622C552.886 228.974 552.36 228.448 551.712 228.448C551.063 228.448 550.537 228.974 550.537 229.622C550.537 230.271 551.063 230.796 551.712 230.796Z" fill="black"/>
<path opacity="0.1" d="M551.712 237.311C552.36 237.311 552.886 236.786 552.886 236.137C552.886 235.489 552.36 234.963 551.712 234.963C551.063 234.963 550.537 235.489 550.537 236.137C550.537 236.786 551.063 237.311 551.712 237.311Z" fill="black"/>
<g opacity="0.1">
<path opacity="0.1" d="M523.456 144.006C524.622 140.802 524.37 137.206 525.463 133.977C524.956 134.691 524.537 135.463 524.215 136.276C522.861 139.644 523.244 143.501 522.004 146.876L521.922 147.072C522.527 146.099 523.04 145.073 523.456 144.006Z" fill="black"/>
<path opacity="0.1" d="M616.649 224.722C610.124 227.641 603.174 230.511 595.988 230.144C588.801 229.777 581.305 225.178 580.049 218.109C579.617 215.663 579.674 212.711 577.602 211.439C576.329 210.664 574.682 210.86 573.311 210.281C571.329 209.466 570.35 207.24 569.698 205.193C568.36 200.97 567.643 196.576 567.569 192.147C567.479 186.904 568.181 181.172 565.203 176.842C562.438 172.838 557.544 170.816 554.363 167.131C551.426 163.731 548.237 159.613 543.424 158.977C536.825 158.08 523.032 167.131 519.133 157.493C518.507 155.672 518.597 153.681 519.386 151.924C519.1 152.405 518.823 152.886 518.57 153.375C517.461 155.544 516.759 158.145 517.681 160.404C521.604 170.025 535.373 160.983 541.972 161.888C546.785 162.54 549.974 166.658 552.911 170.042C556.092 173.727 560.986 175.749 563.743 179.761C566.729 184.083 566.027 189.815 566.117 195.058C566.191 199.487 566.908 203.881 568.246 208.104C568.898 210.159 569.877 212.36 571.859 213.192C573.23 213.771 574.877 213.584 576.15 214.35C578.254 215.622 578.197 218.598 578.597 221.02C579.869 228.089 587.358 232.688 594.536 233.055C601.714 233.422 608.631 230.56 615.197 227.633C619.928 225.529 625.198 222.618 626.617 217.848C624.349 220.947 620.336 223.083 616.649 224.722Z" fill="black"/>
</g>
<path d="M760.807 270.742C743.539 260.811 737.013 258.365 736.981 258.365L736.622 258.112C734.741 256.667 733.247 254.779 732.274 252.616C732.254 252.223 732.254 251.828 732.274 251.434C732.27 251.472 732.27 251.51 732.274 251.548C732.543 246.289 736.287 241.503 739.835 237.328L748.914 226.654C749.946 225.598 750.743 224.337 751.255 222.952C751.438 222.209 751.521 221.443 751.5 220.677C751.5 220.368 751.5 220.058 751.5 219.748C751.451 217.098 751.378 214.44 751.28 211.79C751.198 209.474 750.603 206.555 748.286 206.082C747.079 205.837 745.48 206.27 744.844 205.267C744.628 204.841 744.573 204.352 744.689 203.889C744.684 203.926 744.684 203.965 744.689 204.003V203.872C745.138 202.083 745.424 200.258 745.545 198.417C745.596 197.481 745.468 196.543 745.17 195.653C743.832 191.813 739.207 190.231 735.121 189.505C731.034 188.779 726.45 188.16 723.889 184.963C723.203 183.897 722.457 182.871 721.654 181.889C720.472 180.84 719.029 180.127 717.477 179.826C712.405 178.577 707.061 179.042 702.281 181.147C700.307 182.028 698.325 183.218 696.155 183.088C693.985 182.957 691.979 181.392 689.76 181.017C686.171 180.405 682.737 183.039 680.967 186.162C679.919 188.014 679.357 190.101 679.335 192.228V192.587C679.284 194.876 680.12 197.097 681.668 198.784C683.218 200.415 685.518 201.491 686.163 203.603C686.424 204.459 686.359 205.389 686.595 206.261C686.62 206.37 686.653 206.476 686.693 206.579L686.579 206.734C682.876 211.47 680.866 217.309 680.869 223.319C680.909 229.158 682.805 234.832 686.283 239.522C689.761 244.212 694.641 247.676 700.217 249.412C700.217 249.681 700.217 249.95 700.217 250.227C700.217 253.489 699.279 256.889 696.465 259.36L672.002 269.128C672.002 269.128 657.255 267.375 651.936 288.918C651.087 292.493 650.779 296.177 651.023 299.844C651.218 303.105 650.77 308.813 646.944 316.209C640.9 328.048 642.278 355.225 654.644 357.916C666.317 360.46 670.885 359.4 671.366 359.278V359.751C671.17 364.855 669.319 408.837 662.589 414.153C660.729 415.629 661.072 416.6 662.589 417.293C662.589 417.293 662.589 417.578 662.548 418.108C662.344 421.37 661.309 433.601 656.838 440.548C651.61 448.62 652.156 495.179 652.156 495.179L648.592 522.625C648.592 522.625 650.786 539.577 648.592 542.537C646.626 545.171 644.016 607.882 643.469 621.483H643.241C642.16 621.553 641.113 621.887 640.192 622.456C639.27 623.025 638.502 623.81 637.955 624.745C635.068 629.433 624.953 638.101 624.953 638.101C622.759 641.216 614.643 644.2 610.352 645.602C609.786 645.787 609.24 646.028 608.721 646.32C607.114 647.194 605.824 648.552 605.034 650.201C604.751 650.69 604.57 651.231 604.503 651.792C604.436 652.352 604.483 652.921 604.642 653.463C605.735 656.145 628.55 658.037 634.325 655.338C638.861 653.226 656.839 650.446 664.302 649.353C665.657 649.183 666.918 648.566 667.883 647.6C668.849 646.635 669.466 645.375 669.637 644.02C669.708 643.553 669.684 643.076 669.566 642.617C669.448 642.159 669.239 641.73 668.952 641.354C667.524 639.585 666.798 634.749 666.505 631.569C667.111 631.323 667.677 630.987 668.185 630.575C667.561 620.8 668.949 611.001 672.263 601.783C677.761 587.253 679.409 560.345 678.038 542.855C678.038 542.855 694.801 470.742 707.999 464.015C708.203 464.276 714.606 472.487 715.422 497.919C716.237 523.75 725.585 540.702 725.585 540.702C725.585 540.702 721.458 584.562 725.585 600.976L720.194 626.865C719.794 626.53 719.541 626.269 719.541 626.269C719.541 626.269 719.704 626.987 719.924 628.137L719.81 628.691L720.047 628.74C720.658 632.002 721.564 637.62 721.189 640.971C720.977 642.854 720.446 645.439 720.088 647.975C719.517 651.962 719.362 655.827 721.458 656.675C724.9 658.061 745.113 659.937 748.539 655.501C749.31 654.597 749.812 653.495 749.988 652.321C750.163 651.146 750.006 649.946 749.534 648.856C749.287 648.245 748.952 647.673 748.539 647.16C748.539 647.16 743.172 638.394 744.689 632.214C744.829 631.61 744.844 630.983 744.733 630.374C744.622 629.764 744.388 629.183 744.044 628.667C744.281 625.633 745.505 611.592 748.669 599.671C752.112 586.723 759.363 558.331 754.029 539.667C753.827 538.933 753.599 538.215 753.343 537.514C750.264 527.323 749.236 516.623 750.317 506.032C748.337 496.99 748.337 487.627 750.317 478.586C753.621 463.517 755.929 448.718 755.929 448.718C755.929 448.718 757.748 428.806 756.158 416.6C756.158 416.339 756.084 416.078 756.051 415.784L756.916 415.589C756.916 415.589 752.242 394.869 750.594 381.685C750.203 378.57 749.697 374.631 749.143 370.424C750.663 370.172 752.16 369.799 753.621 369.307C768.458 364.194 773.132 317.937 773.132 317.937V303.26C773.132 303.26 778.124 280.698 760.807 270.742ZM650.231 628.08C649.775 627.851 649.505 627.696 649.505 627.696L650.231 628.08Z" fill="url(#paint2_linear)"/>
<path d="M751.851 537.808C758.286 556.309 750.774 586.34 747.283 599.777C743.792 613.215 742.723 629.278 742.723 629.278C729.044 631.423 719.117 628.74 719.117 628.74L724.753 601.123C720.724 584.766 724.753 541.053 724.753 541.053C724.753 541.053 715.634 524.158 714.826 498.416C714.011 473.082 707.787 464.887 707.591 464.634C694.719 471.337 678.356 543.205 678.356 543.205C679.694 560.63 678.079 587.449 672.72 601.914C669.465 611.108 668.097 620.864 668.699 630.599C666.823 632.23 664.212 632.458 661.357 632.002C653.698 630.762 644.513 624.166 644.513 624.166C644.513 624.166 647.458 545.888 649.611 542.92C651.765 539.952 649.611 523.073 649.611 523.073L653.094 495.725C653.094 495.725 652.556 449.329 657.654 441.29C662.059 434.343 663.07 422.128 663.266 418.924C663.266 418.418 663.266 418.108 663.266 418.108L671.032 408.813C671.032 408.813 746.141 403.178 751.785 408.813C753.164 410.191 754.02 413.338 754.526 417.293C756.076 429.458 754.298 449.297 754.298 449.297C754.298 449.297 752.046 464.047 748.824 479.059C746.893 488.075 746.893 497.398 748.824 506.415C747.789 516.976 748.817 527.638 751.851 537.808Z" fill="#65617D"/>
<path d="M747.152 655.387C743.8 659.815 724.084 657.939 720.724 656.561C718.676 655.746 718.831 651.856 719.386 647.885C719.737 645.366 720.251 642.789 720.463 640.914C720.993 636.087 718.831 626.294 718.831 626.294C718.831 626.294 723.252 630.99 724.321 626.294C724.794 624.239 726.442 623.187 728.155 622.657C730.453 621.962 732.926 622.115 735.121 623.089C738.604 624.606 744.412 627.827 743.376 632.181C741.899 638.337 747.128 647.078 747.128 647.078C747.533 647.588 747.863 648.154 748.107 648.758C748.572 649.844 748.729 651.037 748.56 652.206C748.392 653.376 747.905 654.476 747.152 655.387Z" fill="#A27772"/>
<path opacity="0.1" d="M747.152 655.387C743.8 659.815 724.084 657.939 720.724 656.561C718.676 655.746 718.831 651.856 719.386 647.885C721.507 648.88 725.096 649.704 731.107 649.149C732.509 649.016 733.918 648.973 735.325 649.019C739.595 649.211 743.872 649.124 748.131 648.758C748.593 649.846 748.746 651.04 748.573 652.21C748.4 653.379 747.909 654.479 747.152 655.387Z" fill="black"/>
<path opacity="0.1" d="M678.348 543.173C679.686 560.598 678.071 587.416 672.712 601.881C669.457 611.076 668.089 620.832 668.691 630.566C666.814 632.197 664.204 632.426 661.349 631.969C662.981 620.659 669.865 571.932 674.278 533.429C679.311 489.585 702.827 459.424 702.827 459.424L707.518 464.585C694.711 471.304 678.348 543.173 678.348 543.173Z" fill="black"/>
<path d="M739.101 261.341L735.839 277.429L719.794 304.377L700.013 295.93C700.013 295.93 673.095 267.774 690.021 263.755C692.044 263.319 693.955 262.47 695.633 261.259C698.953 258.756 699.997 255.12 700.013 251.556C699.888 247.569 698.961 243.648 697.289 240.027L731.891 229.166C730.478 233.711 729.655 238.419 729.443 243.174C729.174 252.6 732.706 257.24 735.553 259.482C736.604 260.326 737.809 260.957 739.101 261.341Z" fill="#FBBEBE"/>
<path opacity="0.1" d="M731.858 229.166C730.445 233.711 729.622 238.419 729.411 243.174C728.78 243.926 728.107 244.642 727.396 245.319C723.823 248.729 719.394 251.11 714.577 252.208C709.761 253.306 704.737 253.081 700.038 251.556C699.904 247.568 698.97 243.647 697.289 240.027L731.858 229.166Z" fill="black"/>
<path d="M735.83 224.738C735.832 230.149 734.228 235.439 731.222 239.939C728.216 244.439 723.943 247.946 718.942 250.018C713.942 252.09 708.439 252.633 703.13 251.578C697.821 250.523 692.944 247.919 689.116 244.093C685.288 240.268 682.68 235.393 681.624 230.086C680.567 224.779 681.109 219.279 683.18 214.279C685.251 209.28 688.758 205.007 693.259 202.001C697.76 198.995 703.051 197.39 708.464 197.39C712.062 197.373 715.628 198.068 718.955 199.436C722.283 200.804 725.306 202.818 727.851 205.361C730.395 207.904 732.41 210.926 733.78 214.251C735.15 217.577 735.847 221.141 735.83 224.738Z" fill="#FBBEBE"/>
<path opacity="0.1" d="M739.101 261.341L735.839 277.429L719.794 304.377L700.013 295.93C700.013 295.93 673.095 267.774 690.021 263.755C692.044 263.319 693.955 262.47 695.633 261.259C692.582 269.642 705.177 287.083 705.177 287.083C706.645 289.244 710.005 287.898 710.005 287.898C718.122 286.667 733.057 263.339 735.496 259.457C736.562 260.317 737.787 260.957 739.101 261.341Z" fill="black"/>
<path opacity="0.1" d="M754.591 417.309C749.828 418.394 723.473 424.224 713.48 422.764C702.485 421.133 681.105 420.09 681.105 420.09C681.105 420.09 667.492 420.823 663.299 418.907C663.299 418.402 663.299 418.092 663.299 418.092L671.064 408.796C671.064 408.796 746.173 403.162 751.818 408.796C753.229 410.207 754.086 413.354 754.591 417.309Z" fill="black"/>
<path d="M705.168 287.89C705.168 287.89 691.016 268.321 696.351 260.656L672.443 270.441C672.443 270.441 658.054 268.696 652.866 290.165C652.037 293.733 651.737 297.404 651.977 301.059C652.173 304.32 651.732 310.028 648.037 317.367C642.14 329.165 643.477 356.253 655.55 358.952C667.622 361.65 671.904 360.289 671.904 360.289C671.904 360.289 670.273 409.359 663.323 414.993C656.374 420.628 681.105 419.282 681.105 419.282C681.105 419.282 702.485 420.359 713.489 421.965C724.492 423.571 755.334 416.331 755.334 416.331C755.334 416.331 750.774 395.685 749.159 382.549C747.544 369.413 743.783 341.429 743.783 341.429L771.142 304.377C771.142 304.377 775.971 281.987 759.07 272.063C742.168 262.14 735.814 259.71 735.814 259.71C735.814 259.71 718.831 287.352 709.981 288.689C709.997 288.689 706.637 290.043 705.168 287.89Z" fill="#093046"/>
<path opacity="0.1" d="M673.78 295.661C673.78 295.661 673.519 304.516 675.126 307.998C676.733 311.479 682.639 330.829 682.639 330.829H669.221C669.221 330.829 676.464 323.05 675.934 319.291C675.404 315.532 673.78 295.661 673.78 295.661Z" fill="black"/>
<path d="M713.488 362.433C713.488 362.433 683.862 355.193 681.105 349.028C678.348 342.864 670.738 329.059 670.738 329.059L673.862 324.852L688.267 336.153C688.267 336.153 705.397 349.827 713.488 351.173C721.58 352.518 713.488 362.433 713.488 362.433Z" fill="#FBBEBE"/>
<path opacity="0.05" d="M713.488 362.433C713.488 362.433 683.862 355.193 681.105 349.028C678.348 342.864 670.738 329.059 670.738 329.059L673.862 324.852L688.267 336.153C688.267 336.153 705.397 349.827 713.488 351.173C721.58 352.518 713.488 362.433 713.488 362.433Z" fill="black"/>
<path d="M739.101 327.575V343.638H736.524C723.759 343.636 711.205 346.886 700.046 353.081L695.201 355.763L693.904 356.489L685.584 337.735L693.365 330.763H693.765C695.666 330.951 703.896 331.636 707.387 330.462C710.699 329.336 714.81 325.773 724.566 328.26C729.37 329.491 733.481 334.873 738.139 333.193L739.101 327.575Z" fill="#FBBEBE"/>
<path opacity="0.1" d="M764.991 298.319L770.351 304.353V318.973C770.351 318.973 765.791 365.091 751.312 370.188C736.834 375.284 710.968 367.236 710.968 367.236C710.968 367.236 704.287 349.542 707.412 348.482C710.536 347.422 735.023 340.948 735.023 340.948C735.023 340.948 734.68 313.893 740.039 305.845C740.039 305.845 736.556 280.641 748.629 280.103C760.701 279.565 764.991 298.319 764.991 298.319Z" fill="black"/>
<path d="M765.807 298.319L771.174 304.353V318.973C771.174 318.973 766.615 365.091 752.128 370.188C737.641 375.284 711.784 367.236 711.784 367.236C711.784 367.236 705.103 349.542 708.235 348.482C711.368 347.422 735.847 340.948 735.847 340.948C735.847 340.948 735.496 313.893 740.863 305.845C740.863 305.845 737.372 280.641 749.444 280.103C761.517 279.565 765.807 298.319 765.807 298.319Z" fill="#093046"/>
<path opacity="0.1" d="M728.326 236.349C728.557 234.583 728.347 232.788 727.714 231.123C726.956 229.492 725.186 228.261 723.456 228.676C721.164 229.215 720.193 232.199 717.926 232.917C716.025 233.52 713.953 232.174 713.032 230.405C712.11 228.636 712.102 226.556 712.102 224.567C712.102 222.333 712.102 220.09 712.102 217.848C712.102 215.402 712.02 212.776 710.519 210.86C708.651 208.479 704.255 207.436 701.318 207.533C699.365 207.555 697.49 208.309 696.065 209.645C694.499 210.982 692.68 211.961 690.543 211.61C689.652 211.477 688.817 211.094 688.135 210.505C687.454 209.916 686.953 209.146 686.693 208.284V208.202C688.969 205.177 691.848 202.658 695.148 200.803C698.449 198.948 702.098 197.798 705.866 197.425C709.634 197.053 713.438 197.467 717.038 198.64C720.637 199.813 723.954 201.721 726.779 204.241C729.603 206.762 731.873 209.842 733.445 213.285C735.017 216.728 735.858 220.46 735.913 224.244C735.967 228.028 735.236 231.783 733.764 235.27C732.293 238.758 730.113 241.901 727.363 244.503C727.835 241.805 728.157 239.083 728.326 236.349Z" fill="black"/>
<path d="M690.543 210.819C689.651 210.683 688.816 210.297 688.134 209.707C687.451 209.117 686.949 208.347 686.685 207.484C686.464 206.62 686.522 205.699 686.269 204.843C685.641 202.731 683.389 201.638 681.88 200.032C678.862 196.827 679.058 191.56 681.195 187.703C682.924 184.596 686.269 181.995 689.776 182.582C691.946 182.957 693.855 184.499 696.024 184.645C698.194 184.792 700.103 183.594 702.003 182.713C706.664 180.598 711.905 180.132 716.865 181.392C718.387 181.698 719.796 182.411 720.944 183.455C721.723 184.435 722.45 185.456 723.122 186.513C725.618 189.693 730.096 190.32 734.085 191.038C738.073 191.756 742.584 193.337 743.873 197.17C744.746 199.714 743.873 202.47 743.4 205.112C743.243 205.651 743.281 206.228 743.506 206.742C744.134 207.77 745.692 207.338 746.867 207.558C749.126 208.039 749.705 210.95 749.795 213.266C749.887 215.907 749.958 218.552 750.007 221.199C750.072 222.184 749.992 223.173 749.771 224.135C749.281 225.513 748.505 226.771 747.495 227.828L738.636 238.469C734.705 243.182 730.536 248.678 731.295 254.777C729.435 255.593 727.217 254.003 726.613 252.054C726.009 250.105 726.491 247.977 726.907 246.012C727.629 242.557 728.103 239.056 728.326 235.534C728.557 233.771 728.347 231.978 727.714 230.315C726.956 228.685 725.185 227.453 723.456 227.869C721.156 228.407 720.193 231.392 717.926 232.109C716.025 232.713 713.953 231.367 713.032 229.598C712.11 227.828 712.102 225.757 712.102 223.768V217.041C712.102 214.595 712.02 211.969 710.519 210.053C708.651 207.672 704.255 206.628 701.318 206.726C699.367 206.75 697.496 207.504 696.073 208.838C694.499 210.183 692.68 211.17 690.543 210.819Z" fill="#7C5C5C"/>
<path opacity="0.1" d="M696.718 294.992L705.119 329.491C705.119 329.491 711.743 329.451 696.718 294.992Z" fill="black"/>
<path opacity="0.1" d="M725.422 289.227C725.422 289.227 714.427 307.231 718.717 325.855L720.765 326.002C720.765 326.002 717.11 317.383 725.422 289.227Z" fill="black"/>
<path opacity="0.1" d="M732.364 391.127C732.364 391.127 745.872 386.659 746.85 397.022C746.883 397.022 744.338 389.92 732.364 391.127Z" fill="black"/>
<path opacity="0.1" d="M693.365 331.595C693.365 331.595 690.682 350.349 695.511 357.875C695.511 357.875 685.722 361.895 671.904 361.096L670.273 331.595H693.365Z" fill="black"/>
<path opacity="0.1" d="M695.201 355.763L693.904 356.489L685.584 337.735L693.365 330.763H693.765C693.643 331.693 691.473 347.813 695.201 355.763Z" fill="black"/>
<path d="M693.365 330.796C693.365 330.796 690.682 349.55 695.511 357.068C695.511 357.068 685.722 361.096 671.904 360.289L662.516 330.796H693.365Z" fill="#093046"/>
<path d="M670.167 643.971C670.011 645.31 669.414 646.559 668.471 647.521C667.527 648.484 666.29 649.105 664.955 649.288C657.67 650.372 640.125 653.145 635.696 655.257C630.059 657.939 607.799 656.072 606.722 653.381C606.567 652.839 606.521 652.272 606.586 651.712C606.652 651.152 606.829 650.611 607.105 650.12C607.869 648.486 609.128 647.134 610.703 646.255C611.223 645.965 611.769 645.725 612.334 645.537C616.527 644.143 624.447 641.175 626.584 638.06C626.584 638.06 636.462 629.425 639.277 624.761C639.805 623.843 640.552 623.07 641.452 622.509C642.351 621.949 643.374 621.619 644.432 621.548C646.781 621.442 649.399 622.625 650.476 627.77C650.476 627.77 663.339 635.108 666.79 628.675C666.79 628.675 667.328 638.557 669.465 641.264C669.758 641.646 669.97 642.082 670.091 642.547C670.211 643.012 670.237 643.496 670.167 643.971Z" fill="#A27772"/>
<path opacity="0.1" d="M670.167 643.971C670.011 645.31 669.414 646.559 668.471 647.521C667.527 648.484 666.29 649.105 664.955 649.288C657.67 650.372 640.125 653.145 635.696 655.257C630.059 657.939 607.799 656.072 606.722 653.381C606.567 652.839 606.521 652.272 606.586 651.712C606.652 651.152 606.829 650.611 607.105 650.12C607.869 648.486 609.128 647.134 610.703 646.255C614.333 648.701 622.392 651.016 640.117 648.252C657.026 645.61 665.403 643.026 669.482 641.264C669.771 641.647 669.981 642.084 670.099 642.549C670.216 643.014 670.239 643.497 670.167 643.971Z" fill="black"/>
<g opacity="0.1">
<path opacity="0.1" d="M743.359 205.487V205.356C743.743 203.35 744.322 201.279 744.175 199.265C744.004 200.911 743.732 202.545 743.359 204.158C743.259 204.595 743.259 205.049 743.359 205.487Z" fill="black"/>
<path opacity="0.1" d="M727.706 230.584C728.133 231.551 728.358 232.594 728.367 233.65C728.487 232.194 728.261 230.73 727.706 229.378C726.956 227.747 725.186 226.516 723.456 226.932C721.156 227.47 720.194 230.454 717.918 231.172C716.025 231.775 713.953 230.43 713.024 228.66C712.094 226.891 712.094 224.812 712.094 222.822C712.094 220.58 712.094 218.345 712.094 216.103C712.094 213.657 712.012 211.031 710.511 209.115C708.635 206.726 704.247 205.691 701.31 205.78C699.356 205.805 697.481 206.562 696.057 207.9C694.483 209.238 692.672 210.216 690.527 209.865C689.637 209.73 688.803 209.345 688.122 208.757C687.441 208.168 686.94 207.399 686.677 206.539C686.456 205.674 686.513 204.745 686.261 203.889C685.633 201.785 683.381 200.684 681.872 199.086C680.457 197.517 679.655 195.491 679.613 193.378C679.502 194.617 679.645 195.866 680.033 197.048C680.422 198.23 681.047 199.32 681.872 200.252C683.381 201.883 685.633 202.951 686.261 205.055C686.513 205.87 686.456 206.84 686.677 207.705C686.94 208.565 687.441 209.334 688.122 209.923C688.803 210.511 689.637 210.896 690.527 211.031C692.672 211.382 694.483 210.404 696.057 209.066C697.481 207.728 699.356 206.971 701.31 206.946C704.247 206.857 708.651 207.892 710.511 210.281C712.012 212.197 712.086 214.831 712.094 217.269C712.094 219.511 712.094 221.746 712.094 223.988C712.094 225.978 712.094 228.065 713.024 229.818C713.953 231.571 716.001 232.941 717.918 232.338C720.169 231.62 721.181 228.636 723.456 228.098C725.186 227.722 726.956 229.011 727.706 230.584Z" fill="black"/>
<path opacity="0.1" d="M749.754 223.205C749.263 224.582 748.485 225.838 747.47 226.891L738.612 237.532C734.884 242.008 730.944 247.194 731.271 252.91C731.54 247.667 735.194 242.897 738.612 238.738L747.47 228.098C748.485 227.045 749.263 225.788 749.754 224.412C749.976 223.447 750.056 222.456 749.991 221.468C749.978 222.054 749.899 222.637 749.754 223.205Z" fill="black"/>
<path opacity="0.1" d="M726.654 251.116C726.508 250.65 726.418 250.168 726.385 249.681C726.31 250.571 726.402 251.466 726.654 252.323C727.257 254.263 729.468 255.87 731.336 255.038C731.283 254.649 731.25 254.257 731.238 253.864C729.378 254.606 727.225 253.024 726.654 251.116Z" fill="black"/>
</g>
<path opacity="0.1" d="M637.49 627.215C637.49 627.215 640.296 632.108 650.46 627.802L637.49 627.215Z" fill="black"/>
<path opacity="0.1" d="M723.391 628.406C723.391 628.406 732.152 638.72 743.196 631.79L723.391 628.406Z" fill="black"/>
<path opacity="0.1" d="M748.89 506.431C748.89 506.431 742.699 510.296 742.503 512.506C742.307 514.716 745.7 510.875 745.7 510.875L748.89 506.431Z" fill="black"/>
<path opacity="0.1" d="M751.337 536.079C749.184 537.87 746.507 538.914 743.71 539.055C739.077 539.259 739.468 545.293 742.495 543.483C745.521 541.673 751.337 536.079 751.337 536.079Z" fill="black"/>
<path opacity="0.1" d="M752.511 539.952C752.511 539.952 749.542 554.539 747.128 551.726L752.511 539.952Z" fill="black"/>
<path d="M178.898 649.28C178.898 649.28 197.537 654.392 206.51 647.592C215.482 640.791 219.373 642.977 219.373 642.977C219.373 642.977 240.769 641.794 242.531 636.739C244.293 631.684 234.325 613.321 234.325 613.321C233.615 611.69 232.579 609.619 232.114 609.619L232.212 601.873L235.312 569.461C242.465 551.123 235.442 527.428 235.442 527.428L234.162 521.549C233.442 518.244 233.871 514.793 235.377 511.764L248.371 485.671C249.066 483.947 249.884 482.273 250.818 480.665C251.634 479.173 252.719 477.33 254.081 475.12C254.481 474.484 254.897 473.824 255.353 473.131C256.928 470.685 258.836 467.912 261.145 464.716C266.895 456.75 269.922 446.777 271.488 439.439L272.181 441.738H272.222H272.336L272.524 441.779H272.785H272.834L273.168 441.836H273.291L277.287 492.684C277.532 512.514 284.816 523.489 284.816 523.489L283.813 567.268C285.183 577.811 282.182 591.868 280.803 597.478L277.654 604.58C276.415 605.199 275.344 606.111 274.536 607.236C273.727 608.361 273.205 609.666 273.013 611.038C272.393 616.281 266.871 627.582 266.871 627.582C264.734 630.289 260.093 637.603 260.093 637.603C260.093 637.603 257.906 644.665 259.261 647.306C260.615 649.948 271.936 649.679 271.936 649.679C284.865 652.541 294.776 645.602 294.148 640.824C293.52 636.046 296.163 634.831 296.163 634.831C301.301 633.2 300.804 629.718 300.804 629.718C301.91 622.537 300.538 615.192 296.913 608.893L296.097 610.777C295.877 607.006 296.403 603.23 297.647 599.663L297.174 599.989L297.027 600.079H296.978C297.794 592.928 305.307 579.694 305.307 579.694C319.108 555.493 314.092 522.698 314.092 522.698L311.954 512.473L311.832 508.617C311.54 499.409 312.237 490.197 313.912 481.138C314.654 477.126 315.421 472.283 316.008 466.942C317.248 455.657 321.245 444.013 323.089 439.08L323.635 438.982H323.7C324.451 438.852 325.209 438.721 325.976 438.575H326.123C326.123 438.575 326.564 436.194 326.939 432.141C327.159 429.556 327.338 426.278 327.338 422.511C327.394 411.137 325.657 399.825 322.191 388.991L322.607 388.395C322.607 388.395 323.594 387.058 325.397 384.742C328.709 380.535 333.864 374.142 340.218 366.934C351.597 353.961 348.253 340.842 348.253 340.842C348.253 340.842 340.014 310.664 336.344 292.546C334.247 282.223 330.316 275.203 327.306 271.061C327.984 268.205 328.367 265.286 328.448 262.352C328.693 256.987 328.505 251.393 326.09 246.574C323.676 241.755 318.537 237.947 313.17 238.592C312.409 238.775 311.615 238.775 310.853 238.592C310.226 238.307 309.695 237.845 309.328 237.263C306.187 232.933 305.984 227.111 306.962 221.86C307.941 216.609 309.948 211.586 310.845 206.318C311.742 201.051 311.335 195.205 307.982 191.03C304.042 186.138 297.174 184.759 292.051 181.082C288.454 178.497 285.754 174.787 281.961 172.496C278.168 170.205 274.62 171.077 270.501 171.942C263.576 173.401 256.993 174.07 250.443 177.046C243.81 180.048 237.862 184.374 232.963 189.758C231.223 191.493 229.892 193.593 229.064 195.906C227.432 201.296 230.621 207.036 229.953 212.613C229.48 216.568 227.147 220.009 225.295 223.54C223.443 227.07 222.032 231.261 223.484 234.955C225.768 240.728 233.215 241.951 238.632 245.025C239.355 245.379 239.974 245.916 240.426 246.582C241.764 248.914 239.031 251.336 237.31 253.407C236.325 254.616 235.628 256.032 235.271 257.549C233.029 258.469 231.048 259.926 229.501 261.792C227.955 263.657 226.892 265.874 226.404 268.247C224.569 276.458 227.391 286.822 229.879 293.671C227.163 308.927 230.695 314.945 233.297 317.252C235.931 319.508 237.562 322.716 237.832 326.173V326.458C238.004 329.231 238.297 331.995 238.689 334.751C238.599 334.107 238.509 333.422 238.46 333.12C236.331 337.058 232.277 347.12 229.993 364.048C229.518 367.676 228.829 371.272 227.93 374.819C226.296 381.1 225.712 387.607 226.2 394.079L226.608 399.566C226.207 399.576 225.815 399.447 225.499 399.199L228.362 404.442V413.289C228.359 417.279 227.623 421.233 226.192 424.957C225.988 425.496 225.768 426.034 225.532 426.588C224.796 428.077 224.464 429.733 224.569 431.391C218.411 440.825 204.291 493.695 204.291 493.695C196.631 511.03 204.919 522.234 204.919 522.234C204.919 522.234 208.932 570.497 209.683 572.992C210.433 575.487 212.097 604.906 212.097 604.906C212.097 605.681 212.097 606.488 212.097 607.246C211.652 607.052 211.183 606.918 210.702 606.847C203.989 606.472 202.17 617.072 202.17 617.072L188.434 630.183C188.434 630.183 182.161 629.123 172.936 636.046C163.71 642.969 178.898 649.28 178.898 649.28ZM316.057 370.343L316.017 370.196L315.641 370.416L315.486 370.506L315.413 370.555L309.083 348.221C307.389 342.233 307.229 335.916 308.618 329.85L313.512 308.422V303.268L329.068 344.707C330.063 350.292 320.821 363.819 316.057 370.343Z" fill="url(#paint3_linear)"/>
<path d="M322.885 437.751C322.885 437.751 316.604 453.023 315.005 467.676C314.426 472.96 313.676 477.738 312.941 481.701C311.312 490.646 310.639 499.74 310.935 508.829L311.057 512.636L313.096 522.723C313.096 522.723 317.991 555.118 304.474 578.985C304.474 578.985 296.464 593.279 296.22 600.046L290.795 602.142L279.832 599.068C279.832 599.068 285.126 580.094 283.405 566.795L284.392 523.579C284.392 523.579 277.271 512.767 277.026 493.198L272.842 439.496L322.885 437.751Z" fill="#FDC2CC"/>
<path d="M272.842 430.103C272.842 430.103 271.496 451.042 261.137 465.474C250.777 479.907 248.575 486.169 248.575 486.169L235.817 511.952C234.34 514.939 233.918 518.339 234.618 521.598L235.875 527.403C235.875 527.403 242.775 550.805 235.752 568.915L232.424 603.895H212.962C212.962 603.895 211.33 574.826 210.621 572.364C209.911 569.901 205.939 522.234 205.939 522.234C205.939 522.234 197.782 511.144 205.319 494.029C205.319 494.029 222.326 429.98 226.877 431.089C231.429 432.198 272.842 430.103 272.842 430.103Z" fill="#FDC2CC"/>
<g opacity="0.1">
<path opacity="0.1" d="M233.901 527.444L232.653 521.638C231.932 518.368 232.353 514.95 233.843 511.952L246.601 486.144C246.601 486.144 248.811 479.866 259.163 465.45C269.106 451.588 270.745 431.725 270.86 430.2L272.842 430.103C272.842 430.103 271.496 451.042 261.137 465.474C250.777 479.907 248.575 486.169 248.575 486.169L235.817 511.952C234.34 514.939 233.918 518.339 234.618 521.598L235.875 527.403C235.875 527.403 242.775 550.805 235.752 568.915L232.424 603.895H230.45L233.778 568.915C240.801 550.805 233.901 527.444 233.901 527.444Z" fill="black"/>
</g>
<path opacity="0.1" d="M294.278 600.071C294.523 593.303 302.533 579.009 302.533 579.009C316.09 555.118 311.155 522.747 311.155 522.747L309.067 512.653L308.945 508.845C308.649 499.757 309.321 490.663 310.951 481.717C311.677 477.754 312.428 472.976 313.007 467.692C314.548 453.586 320.429 438.909 320.862 437.832L322.885 437.751C322.885 437.751 316.604 453.023 315.005 467.676C314.426 472.96 313.676 477.738 312.941 481.701C311.312 490.646 310.639 499.74 310.935 508.829L311.057 512.636L313.096 522.723C313.096 522.723 317.991 555.118 304.474 578.985C304.474 578.985 296.464 593.279 296.22 600.046L290.795 602.142L289.653 601.824L294.278 600.071Z" fill="black"/>
<path d="M287.997 599.826C289.466 600.408 291.058 600.611 292.625 600.417C294.193 600.223 295.687 599.639 296.97 598.717C295.175 603.955 294.92 609.598 296.236 614.976C298.455 623.848 275.534 607.833 275.534 607.833L280.428 596.654C280.428 596.654 282.328 600.193 287.997 599.826Z" fill="#D39999"/>
<path opacity="0.1" d="M289.702 600.324C290.963 600.578 292.263 600.565 293.518 600.284C294.773 600.003 295.955 599.461 296.986 598.693C295.191 603.931 294.936 609.573 296.252 614.952C298.471 623.823 275.55 607.809 275.55 607.809L280.444 596.63C280.444 596.63 281.863 599.353 286.032 599.777C287.296 599.924 288.503 600.095 289.702 600.324Z" fill="black"/>
<path d="M235.997 392.611H245.573V338.298L238.387 337.009L235.997 392.611Z" fill="#FDC2CC"/>
<path opacity="0.05" d="M235.997 392.611H245.573V338.298L238.387 337.009L235.997 392.611Z" fill="black"/>
<path d="M282.573 604.017C282.573 604.017 288.609 603.642 291.317 609.065L294.645 611.649L296.277 607.833C299.817 614.07 301.145 621.32 300.045 628.406C300.045 628.406 300.535 631.847 295.486 633.453C295.486 633.453 292.9 634.684 293.512 639.365C294.123 644.045 284.4 650.943 271.708 648.105C271.708 648.105 260.615 648.358 259.26 645.765C257.906 643.172 260.125 636.282 260.125 636.282C260.125 636.282 264.685 629.058 266.773 626.392C266.773 626.392 272.197 615.221 272.817 610.084C273.437 604.947 279.367 601.18 282.573 604.017Z" fill="#7E5659"/>
<path d="M232.612 608.575L232.71 600.919C232.71 600.919 221.69 604.091 212.766 600.503C212.766 600.503 213.516 608.2 212.276 609.252C211.037 610.304 216.404 620.211 216.404 620.211L222.399 626.49L232.71 622.739L235.508 613.933C235.508 613.933 233.346 608.575 232.612 608.575Z" fill="#D39999"/>
<path opacity="0.1" d="M232.612 608.575L232.71 600.919C232.71 600.919 221.69 604.091 212.766 600.503C212.766 600.503 213.516 608.2 212.276 609.252C211.037 610.304 216.404 620.211 216.404 620.211L222.399 626.49L232.71 622.739L235.508 613.933C235.508 613.933 233.346 608.575 232.612 608.575Z" fill="black"/>
<path d="M211.599 605.803C211.599 605.803 217.456 606.48 216.714 613.957C215.972 621.434 217.024 613.957 217.024 613.957C217.024 613.957 223.248 616.477 225.466 619.991C227.685 623.505 231.69 616.852 231.992 614.944C232.294 613.036 234.79 612.245 234.79 612.245C234.79 612.245 244.578 630.387 242.849 635.377C241.119 640.367 220.107 641.517 220.107 641.517C220.107 641.517 216.282 639.365 207.472 646.075C198.663 652.786 180.366 647.706 180.366 647.706C180.366 647.706 165.456 641.485 174.518 634.66C183.58 627.835 189.731 628.87 189.731 628.87L203.222 615.873C203.222 615.873 205.009 605.428 211.599 605.803Z" fill="#7E5659"/>
<path d="M281.545 176.899C285.273 179.158 287.924 182.827 291.456 185.379C296.481 189.008 303.226 190.361 307.093 195.205C310.356 199.331 310.78 205.095 309.899 210.298C309.018 215.5 307.044 220.465 306.09 225.651C305.135 230.837 305.331 236.586 308.414 240.858C308.772 241.433 309.291 241.89 309.907 242.171C310.655 242.35 311.435 242.35 312.183 242.171C317.452 241.535 322.509 245.302 324.875 250.056C327.241 254.81 327.428 260.338 327.183 265.638C326.979 269.984 326.49 274.42 324.581 278.334C321.319 284.987 314.532 289.097 307.835 292.244C303.482 294.29 299.019 296.092 294.466 297.642C291.334 298.702 288.03 299.656 284.775 299.102C279.204 298.14 275.256 293.076 269.971 291.095C265.639 289.464 260.835 290.051 256.226 290.459C252.294 290.801 247.8 290.793 245.092 287.923C241.617 284.237 243.183 278.293 244.961 273.547C243.078 273.428 241.264 272.791 239.721 271.706C238.177 270.621 236.963 269.13 236.214 267.399C235.464 265.668 235.208 263.763 235.474 261.895C235.739 260.028 236.516 258.27 237.718 256.816C239.398 254.769 242.082 252.38 240.769 250.072C240.328 249.414 239.72 248.885 239.007 248.539C233.697 245.506 226.38 244.291 224.145 238.6C222.709 234.939 224.096 230.797 225.915 227.315C227.734 223.833 229.993 220.425 230.491 216.527C231.143 211.015 228.044 205.348 229.618 200.032C230.432 197.748 231.738 195.672 233.444 193.949C238.239 188.643 244.068 184.373 250.573 181.4C257.009 178.457 263.461 177.796 270.264 176.361C274.343 175.497 277.72 174.583 281.545 176.899Z" fill="#865A61"/>
<path d="M245.565 258.985C245.565 258.985 229.961 258.169 227.008 271.468C224.055 284.767 233.411 303.815 233.411 303.815L245.565 258.985Z" fill="#FDC2CC"/>
<path opacity="0.05" d="M245.565 258.985C245.565 258.985 229.961 258.169 227.008 271.468C224.055 284.767 233.411 303.815 233.411 303.815L245.565 258.985Z" fill="black"/>
<path d="M235.605 298.564L241.519 303.244L269.114 304.475L286.342 292.652L303.863 262.597C293.153 259.865 288.821 252.47 287.206 245.555C286.179 240.875 286.062 236.042 286.864 231.318C286.864 231.318 258.771 216.78 262.221 239.472C262.695 242.257 262.782 245.094 262.483 247.903C260.851 261.194 247.947 258.691 247.947 258.691L242.996 266.323L237.326 285.077L235.605 298.564Z" fill="#FDC2CC"/>
<path opacity="0.1" d="M262.246 239.44C262.719 242.225 262.807 245.062 262.507 247.871C266.47 249.681 270.84 250.419 275.178 250.013C279.517 249.607 283.673 248.07 287.231 245.555C286.203 240.875 286.087 236.042 286.888 231.318C286.888 231.318 258.796 216.78 262.246 239.44Z" fill="black"/>
<path d="M272.858 249.135C286.603 249.135 297.745 237.997 297.745 224.257C297.745 210.518 286.603 199.379 272.858 199.379C259.114 199.379 247.971 210.518 247.971 224.257C247.971 237.997 259.114 249.135 272.858 249.135Z" fill="#FDC2CC"/>
<path d="M255.255 293.818C255.859 293.818 256.455 293.908 257.05 293.965C260.313 294.291 273.943 295.025 281.708 285.754C290.396 275.382 301.962 262.572 302.435 262.05L314.206 265.606C314.206 265.606 304.891 262.295 298.708 279.614C297.351 283.247 297.208 287.221 298.301 290.941C299.393 294.662 301.662 297.928 304.768 300.251C307.055 301.907 309.688 303.023 312.468 303.513C312.472 303.519 312.474 303.526 312.474 303.533C312.474 303.541 312.472 303.548 312.468 303.554V311.153L307.656 332.353C306.288 338.344 306.445 344.582 308.113 350.496L315.454 376.434C314.344 377.2 268.796 408.169 238.371 386.781C238.485 385.851 242.245 355.413 239.635 340.516C238.965 336.706 238.51 332.863 238.273 329.002C238.273 328.904 238.273 328.815 238.273 328.717C238.004 325.309 236.4 322.144 233.811 319.911C231.07 317.464 227.359 310.941 231.029 293.704C231.957 289.435 233.323 285.273 235.108 281.285L245.312 258.234L254.717 258.422V258.487C253.901 259.498 242.996 273.115 241.813 281.889C240.655 290.23 239.227 292.791 255.255 293.818Z" fill="#F3643F"/>
<path d="M322.126 269.658C322.126 269.658 331.327 277.543 334.941 295.441C338.554 313.339 346.605 343.068 346.605 343.068C346.605 343.068 349.868 356.041 338.717 368.85C327.567 381.66 320.152 391.681 320.152 391.681L312.811 402.493C311.559 404.337 309.681 405.663 307.525 406.228C304.181 407.109 299.042 407.745 294.588 405.307C292.967 404.401 291.738 402.929 291.136 401.173C290.533 399.417 290.601 397.5 291.326 395.791L292.957 392.016C292.957 392.016 277.842 401.539 276.529 396.28C275.216 391.021 294.107 385.77 294.107 385.77C294.107 385.77 309.711 383.144 312.868 375.757C312.868 375.757 329.622 354.239 328.309 346.851L312.126 303.497C312.126 303.497 291.888 300.822 298.789 278.097C305.69 255.372 322.126 269.658 322.126 269.658Z" fill="#FDC2CC"/>
<path d="M225.36 433.226C225.36 433.226 262.328 440.613 271.039 439.626L271.977 442.749C271.977 442.749 286.007 445.889 317.73 440.858C319.801 440.531 321.952 440.165 324.182 439.757L324.924 439.626C324.924 439.626 325.356 437.278 325.699 433.274C326.458 424.183 326.727 406.579 320.323 388.558L314.989 372.136C314.989 372.136 282.018 391.893 260.19 390.075C258.241 389.912 256.308 389.757 254.358 389.692C249.88 389.521 242.938 389.692 238.428 386.08L228.966 387.71V414.618C228.962 418.554 228.238 422.456 226.829 426.132C226.625 426.67 226.413 427.2 226.176 427.762C225.308 429.443 225.021 431.364 225.36 433.226Z" fill="#65617D"/>
<path opacity="0.1" d="M271.969 434.375V442.749C271.969 442.749 288.12 446.361 324.916 439.626C324.916 439.626 325.348 437.278 325.691 433.274C314.401 435.085 283.266 439.439 271.969 434.375Z" fill="black"/>
<path opacity="0.1" d="M225.36 433.226C225.36 433.226 262.328 440.613 271.039 439.626L271.977 442.749V434.375C267.768 436.12 237.718 428.879 226.828 426.164C226.625 426.702 226.412 427.232 226.176 427.795C225.315 429.467 225.028 431.375 225.36 433.226Z" fill="black"/>
<path d="M314.981 423.889L317.721 440.882C319.793 440.556 321.944 440.189 324.174 439.781C323.317 434.816 321.449 423.473 321.963 421.59L318.513 418.638L314.981 423.889Z" fill="#65617D"/>
<path opacity="0.1" d="M315.364 423.522L318.105 440.523C320.177 440.192 322.327 439.825 324.557 439.422C323.7 434.457 321.832 423.115 322.346 421.231L318.896 418.271L315.364 423.522Z" fill="black"/>
<g opacity="0.05">
<path opacity="0.05" d="M258.208 390.067C256.267 389.904 254.326 389.749 252.376 389.684C248.02 389.521 241.372 389.684 236.837 386.349L238.42 386.071C242.955 389.667 249.839 389.512 254.35 389.684C256.3 389.749 258.233 389.904 260.182 390.067C260.819 390.124 261.471 390.157 262.132 390.173C260.823 390.208 259.513 390.172 258.208 390.067Z" fill="black"/>
<path opacity="0.05" d="M315.747 440.858C317.819 440.531 319.97 440.167 322.2 439.765L322.95 439.626C322.95 439.626 323.382 437.278 323.717 433.274C324.484 424.183 324.753 406.579 318.341 388.558L313.317 373.066C314.385 372.463 314.948 372.112 314.948 372.112L320.283 388.534C326.686 406.554 326.417 424.158 325.658 433.25C325.316 437.254 324.883 439.602 324.883 439.602L324.141 439.74C321.917 440.143 319.766 440.507 317.689 440.833C302.868 443.181 291.921 443.752 284.449 443.687C294.938 443.528 305.4 442.582 315.747 440.858Z" fill="black"/>
<path opacity="0.05" d="M269.049 439.626V439.716H267.988C268.391 439.689 268.744 439.659 269.049 439.626Z" fill="black"/>
</g>
<path d="M319.573 427.061C320.343 427.061 320.968 425.776 320.968 424.191C320.968 422.606 320.343 421.321 319.573 421.321C318.803 421.321 318.178 422.606 318.178 424.191C318.178 425.776 318.803 427.061 319.573 427.061Z" fill="#D39999"/>
<path d="M230.548 366.07C232.799 349.354 236.772 339.423 238.868 335.533C238.95 336.063 239.162 337.784 239.26 338.314C239.684 340.76 239.309 343.842 239.439 346.949L237.351 384.75L240.149 396.574C242.775 405.934 233.044 398.539 233.044 398.539C231.029 402.974 227.334 402.485 227.334 402.485L226.829 395.701C226.349 389.31 226.923 382.884 228.525 376.678C229.41 373.185 230.085 369.643 230.548 366.07Z" fill="#FDC2CC"/>
<path opacity="0.05" d="M230.548 366.07C232.799 349.354 236.772 339.423 238.868 335.533C238.95 336.063 239.162 337.784 239.26 338.314C239.684 340.76 239.309 343.842 239.439 346.949L237.351 384.75L240.149 396.574C242.775 405.934 233.044 398.539 233.044 398.539C231.029 402.974 227.334 402.485 227.334 402.485L226.829 395.701C226.349 389.31 226.923 382.884 228.525 376.678C229.41 373.185 230.085 369.643 230.548 366.07Z" fill="black"/>
<path d="M324.174 386.463C322.403 388.754 321.433 390.067 321.433 390.067L314.092 400.871C312.842 402.717 310.963 404.044 308.806 404.605C305.462 405.486 300.323 406.13 295.869 403.684C294.247 402.781 293.017 401.311 292.414 399.555C291.812 397.8 291.88 395.884 292.606 394.176L294.238 390.393C294.238 390.393 279.123 399.917 277.809 394.666C276.496 389.415 295.388 384.155 295.388 384.155C295.388 384.155 310.992 381.53 314.149 374.134C314.149 374.134 315.511 372.389 317.411 369.715" fill="#FDC2CC"/>
<path d="M314.981 404.573C314.981 404.573 297.109 402.836 291.448 392.619L288.854 401.058C288.854 401.058 307.615 414.007 311.897 412.327L314.981 404.573Z" fill="#65617D"/>
<path opacity="0.1" d="M314.344 404.491C314.344 404.491 296.481 402.754 290.812 392.529L288.226 400.944C288.226 400.944 306.987 413.893 311.261 412.213L314.344 404.491Z" fill="black"/>
<path d="M233.631 399.803C233.631 399.803 227.375 402.02 226.143 400.789L228.957 405.967L234.276 401.89L233.631 399.803Z" fill="#65617D"/>
<path opacity="0.1" d="M233.631 399.803C233.631 399.803 227.375 402.02 226.143 400.789L228.957 405.967L234.276 401.89L233.631 399.803Z" fill="black"/>
<path opacity="0.1" d="M271.969 434.375V423.571L269.4 434.636L271.969 434.375Z" fill="black"/>
<path opacity="0.1" d="M297.313 211.121C295.804 213.241 293.185 214.317 290.608 214.652C288.03 214.986 285.42 214.701 282.818 214.652C278.739 214.587 274.4 215.214 271.064 217.612C268.935 219.136 267.336 221.281 265.672 223.319C260.631 229.476 253.632 235.24 245.687 234.596C244.995 234.596 244.311 234.458 243.673 234.189C243.036 233.92 242.459 233.526 241.976 233.031C241.329 232.026 240.999 230.85 241.03 229.655C240.688 224.58 240.849 219.483 241.511 214.44C241.83 211.318 242.605 208.261 243.811 205.364C245.232 202.461 247.098 199.798 249.342 197.471C252.056 194.324 255.327 191.704 258.991 189.742C262.694 187.778 266.984 187.225 271.064 188.184C275.819 189.481 279.522 193.199 284.058 195.115C289.237 197.292 302.99 203.106 297.313 211.121Z" fill="black"/>
<path d="M297.313 210.134C295.804 212.254 293.185 213.331 290.608 213.665C288.03 213.999 285.42 213.714 282.818 213.665C278.739 213.592 274.4 214.22 271.064 216.617C268.935 218.142 267.336 220.286 265.672 222.325C260.631 228.481 253.632 234.246 245.687 233.601C244.995 233.603 244.31 233.466 243.672 233.197C243.034 232.928 242.457 232.533 241.976 232.036C241.327 231.032 240.997 229.855 241.03 228.66C240.688 223.585 240.849 218.488 241.511 213.445C241.83 210.324 242.605 207.266 243.811 204.37C245.229 201.468 247.096 198.807 249.342 196.485C252.053 193.333 255.325 190.709 258.991 188.747C262.694 186.784 266.984 186.23 271.064 187.189C275.819 188.486 279.522 192.204 284.058 194.12C289.237 196.305 302.99 202.103 297.313 210.134Z" fill="#865A61"/>
<path d="M238.428 386.063L238.362 389.039L237.694 386.194L238.428 386.063Z" fill="#FDC2CC"/>
<path opacity="0.05" d="M238.428 386.063L238.362 389.039L237.694 386.194L238.428 386.063Z" fill="black"/>
<g opacity="0.05">
<path opacity="0.05" d="M301.334 276.54C294.425 299.265 314.565 301.931 314.565 301.931L330.748 345.286C332.061 352.673 315.299 374.191 315.299 374.191C314.132 376.947 311.22 379.043 308.039 380.592C309.898 379.46 311.393 377.819 312.346 375.863C312.346 375.863 329.1 354.353 327.787 346.965L311.604 303.603C311.604 303.603 291.472 300.936 298.373 278.211C300.682 270.62 304.083 267.163 307.525 265.924C305.152 267.832 302.974 271.134 301.334 276.54Z" fill="black"/>
</g>
<g opacity="0.1">
<path opacity="0.1" d="M301.677 297.186C302.623 298.356 303.72 299.395 304.939 300.276C307.224 301.935 309.858 303.051 312.64 303.538C312.64 303.538 312.64 303.538 312.64 303.578V304.394C310.122 303.861 307.744 302.808 305.657 301.303C304.106 300.167 302.76 298.774 301.677 297.186Z" fill="black"/>
<path opacity="0.1" d="M239.097 329.695C239.097 329.785 239.097 329.883 239.097 329.981C239.351 333.855 239.819 337.712 240.5 341.535C242.947 355.592 239.741 383.503 239.284 387.36C239.023 387.189 238.762 387.025 238.468 386.838C238.591 385.908 242.351 355.47 239.741 340.581C239.072 336.771 238.617 332.928 238.379 329.067C238.379 328.97 238.379 328.872 238.379 328.782C238.217 326.544 237.459 324.391 236.185 322.544C237.875 324.567 238.893 327.067 239.097 329.695Z" fill="black"/>
<path opacity="0.1" d="M254.113 259.343L246.136 259.188C246.13 259.185 246.123 259.183 246.116 259.183C246.108 259.183 246.101 259.185 246.095 259.188L235.899 282.231C234.116 286.22 232.749 290.381 231.821 294.65C228.851 308.593 230.719 315.54 232.987 318.973C230.434 315.964 227.799 309.107 231.086 293.696C231.997 289.425 233.35 285.26 235.124 281.269L245.394 258.226L254.799 258.414V258.471C254.725 258.569 254.472 258.879 254.113 259.343Z" fill="black"/>
<path opacity="0.1" d="M314.23 265.597L314.369 265.638L314.23 265.597Z" fill="black"/>
<path opacity="0.1" d="M311.302 265.467L303.308 263.062H303.267C302.794 263.583 291.236 276.393 282.549 286.765C274.783 296.036 261.169 295.31 257.89 294.984C257.295 294.919 256.691 294.87 256.096 294.829C247.18 294.258 243.673 293.198 242.498 290.948C244.17 292.579 247.849 293.394 255.353 293.851C255.957 293.851 256.552 293.94 257.148 293.997C260.411 294.324 274.041 295.049 281.806 285.786C290.493 275.407 302.06 262.597 302.533 262.075L314.165 265.597C313.229 265.364 312.255 265.32 311.302 265.467Z" fill="black"/>
</g>
<path opacity="0.1" d="M216.657 617.651C216.657 617.651 205.4 620.725 203.222 615.898L216.657 617.651Z" fill="black"/>
<path opacity="0.1" d="M288.12 615.343C288.12 615.343 275.069 618.711 272.051 613.5L288.12 615.343Z" fill="black"/>
<path opacity="0.1" d="M157.103 587.579C169.235 587.579 179.07 585.918 179.07 583.869C179.07 581.82 169.235 580.159 157.103 580.159C144.971 580.159 135.136 581.82 135.136 583.869C135.136 585.918 144.971 587.579 157.103 587.579Z" fill="#6C63FF"/>
<path opacity="0.1" d="M70.5658 640.196C82.6977 640.196 92.5325 638.535 92.5325 636.486C92.5325 634.437 82.6977 632.776 70.5658 632.776C58.4339 632.776 48.5991 634.437 48.5991 636.486C48.5991 638.535 58.4339 640.196 70.5658 640.196Z" fill="#6C63FF"/>
<path d="M47.6937 594.958C65.8081 594.958 80.4928 592.476 80.4928 589.414C80.4928 586.351 65.8081 583.869 47.6937 583.869C29.5792 583.869 14.8946 586.351 14.8946 589.414C14.8946 592.476 29.5792 594.958 47.6937 594.958Z" fill="#57B9B3"/>
<path d="M34.1287 580.346C32.6292 579.131 31.5364 577.487 30.9964 575.634C30.5967 573.758 31.3961 571.516 33.1825 570.831C35.1891 570.064 37.3344 571.451 38.9576 572.853C40.5808 574.256 42.4488 575.862 44.5778 575.568C43.4829 574.576 42.6639 573.316 42.2008 571.913C41.7376 570.51 41.646 569.01 41.9349 567.561C42.0228 566.96 42.2771 566.395 42.669 565.93C43.7784 564.74 45.8013 565.254 47.139 566.191C51.3725 569.176 52.5634 574.932 52.5797 580.118C53.012 578.243 52.6531 576.302 52.6613 574.41C52.6695 572.519 53.1997 570.333 54.8147 569.339C55.8124 568.787 56.9373 568.505 58.0775 568.523C59.9862 568.458 62.107 568.646 63.4122 570.04C65.0436 571.769 64.6112 574.68 63.2001 576.563C61.7889 578.447 59.6518 579.662 57.686 580.982C56.1025 581.921 54.7527 583.206 53.738 584.741C53.6192 584.955 53.5208 585.178 53.4444 585.41H41.5271C38.8419 584.067 36.3528 582.363 34.1287 580.346Z" fill="#57B9B3"/>
<path d="M407 670.767C407 670.767 419.529 670.383 423.314 667.693C427.099 665.002 442.581 661.797 443.519 666.111C444.457 670.424 462.353 687.547 448.201 687.662C434.048 687.776 415.336 685.46 411.568 683.161C407.799 680.861 407 670.767 407 670.767Z" fill="#A8A8A8"/>
<path opacity="0.2" d="M448.445 686.169C434.301 686.284 415.581 683.968 411.813 681.668C408.941 679.923 407.799 673.653 407.416 670.758H407C407 670.758 407.816 680.861 411.56 683.152C415.304 685.444 434.048 687.768 448.193 687.653C452.271 687.653 453.69 686.169 453.609 684.017C453.046 685.354 451.488 686.169 448.445 686.169Z" fill="black"/>
</g>
<defs>
<linearGradient id="paint0_linear" x1="392.863" y1="579.181" x2="392.863" y2="97.2109" gradientUnits="userSpaceOnUse">
<stop stop-color="#808080" stop-opacity="0.25"/>
<stop offset="0.54" stop-color="#808080" stop-opacity="0.12"/>
<stop offset="1" stop-color="#808080" stop-opacity="0.1"/>
</linearGradient>
<linearGradient id="paint1_linear" x1="112350" y1="389559" x2="112350" y2="85348.5" gradientUnits="userSpaceOnUse">
<stop stop-color="#808080" stop-opacity="0.25"/>
<stop offset="0.54" stop-color="#808080" stop-opacity="0.12"/>
<stop offset="1" stop-color="#808080" stop-opacity="0.1"/>
</linearGradient>
<linearGradient id="paint2_linear" x1="148943" y1="396576" x2="148943" y2="115048" gradientUnits="userSpaceOnUse">
<stop stop-color="#808080" stop-opacity="0.25"/>
<stop offset="0.54" stop-color="#808080" stop-opacity="0.12"/>
<stop offset="1" stop-color="#808080" stop-opacity="0.1"/>
</linearGradient>
<linearGradient id="paint3_linear" x1="-85308.5" y1="393212" x2="-85308.5" y2="110534" gradientUnits="userSpaceOnUse">
<stop stop-color="#808080" stop-opacity="0.25"/>
<stop offset="0.54" stop-color="#808080" stop-opacity="0.12"/>
<stop offset="1" stop-color="#808080" stop-opacity="0.1"/>
</linearGradient>
<clipPath id="clip0">
<rect width="928" height="701" fill="white"/>
</clipPath>
</defs>
</svg>
