<svg width="439" height="246" viewBox="0 0 439 246" fill="none" xmlns="http://www.w3.org/2000/svg">
<g filter="url(#filter0_d)">
<rect x="5" y="5" width="358" height="220" rx="12" fill="white"/>
</g>
<circle cx="184" cy="69" r="24" fill="#57B9B3"/>
<path d="M186.496 77H183.109V63.9453L179.066 65.1992V62.4453L186.133 59.9141H186.496V77Z" fill="#F9F9F9"/>
<path d="M50.1621 142.488C49.9863 143.992 49.4297 145.154 48.4922 145.975C47.5612 146.788 46.321 147.195 44.7715 147.195C43.0918 147.195 41.7441 146.593 40.7285 145.389C39.7194 144.184 39.2148 142.573 39.2148 140.555V139.188C39.2148 137.866 39.4492 136.704 39.918 135.701C40.3932 134.699 41.0638 133.93 41.9297 133.396C42.7956 132.856 43.7982 132.586 44.9375 132.586C46.4479 132.586 47.6589 133.009 48.5703 133.855C49.4818 134.695 50.0124 135.861 50.1621 137.352H48.2773C48.1146 136.219 47.7598 135.398 47.2129 134.891C46.6725 134.383 45.9141 134.129 44.9375 134.129C43.7396 134.129 42.7988 134.572 42.1152 135.457C41.4382 136.342 41.0996 137.602 41.0996 139.236V140.613C41.0996 142.156 41.4219 143.383 42.0664 144.295C42.7109 145.206 43.6126 145.662 44.7715 145.662C45.8132 145.662 46.6107 145.428 47.1641 144.959C47.724 144.484 48.0951 143.66 48.2773 142.488H50.1621ZM57.5547 138.055C57.2812 138.009 56.985 137.986 56.666 137.986C55.4811 137.986 54.6771 138.491 54.2539 139.5V147H52.4473V136.434H54.2051L54.2344 137.654C54.8268 136.71 55.6667 136.238 56.7539 136.238C57.1055 136.238 57.3724 136.284 57.5547 136.375V138.055ZM63.4141 147.195C61.9818 147.195 60.8164 146.727 59.918 145.789C59.0195 144.845 58.5703 143.585 58.5703 142.01V141.678C58.5703 140.63 58.7689 139.695 59.166 138.875C59.5697 138.048 60.1296 137.404 60.8457 136.941C61.5684 136.473 62.3496 136.238 63.1895 136.238C64.5632 136.238 65.6309 136.691 66.3926 137.596C67.1543 138.501 67.5352 139.796 67.5352 141.482V142.234H60.377C60.403 143.276 60.7057 144.119 61.2852 144.764C61.8711 145.402 62.6133 145.721 63.5117 145.721C64.1497 145.721 64.6901 145.59 65.1328 145.33C65.5755 145.07 65.9629 144.725 66.2949 144.295L67.3984 145.154C66.513 146.515 65.1849 147.195 63.4141 147.195ZM63.1895 137.723C62.4603 137.723 61.8483 137.99 61.3535 138.523C60.8587 139.051 60.5527 139.793 60.4355 140.75H65.7285V140.613C65.6764 139.695 65.429 138.986 64.9863 138.484C64.5436 137.977 63.9447 137.723 63.1895 137.723ZM64.0684 132H66.2559L63.6387 134.871H62.1836L64.0684 132ZM74.0195 147.195C72.5872 147.195 71.4219 146.727 70.5234 145.789C69.625 144.845 69.1758 143.585 69.1758 142.01V141.678C69.1758 140.63 69.3743 139.695 69.7715 138.875C70.1751 138.048 70.735 137.404 71.4512 136.941C72.1738 136.473 72.9551 136.238 73.7949 136.238C75.1686 136.238 76.2363 136.691 76.998 137.596C77.7598 138.501 78.1406 139.796 78.1406 141.482V142.234H70.9824C71.0085 143.276 71.3112 144.119 71.8906 144.764C72.4766 145.402 73.2188 145.721 74.1172 145.721C74.7552 145.721 75.2956 145.59 75.7383 145.33C76.181 145.07 76.5684 144.725 76.9004 144.295L78.0039 145.154C77.1185 146.515 75.7904 147.195 74.0195 147.195ZM73.7949 137.723C73.0658 137.723 72.4538 137.99 71.959 138.523C71.4642 139.051 71.1582 139.793 71.041 140.75H76.334V140.613C76.2819 139.695 76.0345 138.986 75.5918 138.484C75.1491 137.977 74.5501 137.723 73.7949 137.723ZM81.9395 145.525H88.1211V147H79.7324V145.672L85.5625 137.928H79.8203V136.434H87.8281V137.713L81.9395 145.525ZM98.6094 144.549L101.227 136.434H103.072L99.2832 147H97.9062L94.0781 136.434H95.9238L98.6094 144.549ZM104.176 141.619C104.176 140.584 104.378 139.653 104.781 138.826C105.191 137.999 105.758 137.361 106.48 136.912C107.21 136.463 108.04 136.238 108.971 136.238C110.41 136.238 111.572 136.736 112.457 137.732C113.349 138.729 113.795 140.053 113.795 141.707V141.834C113.795 142.863 113.596 143.787 113.199 144.607C112.809 145.421 112.245 146.056 111.51 146.512C110.781 146.967 109.941 147.195 108.99 147.195C107.558 147.195 106.396 146.697 105.504 145.701C104.618 144.705 104.176 143.387 104.176 141.746V141.619ZM105.992 141.834C105.992 143.006 106.262 143.947 106.803 144.656C107.35 145.366 108.079 145.721 108.99 145.721C109.908 145.721 110.637 145.363 111.178 144.646C111.718 143.924 111.988 142.915 111.988 141.619C111.988 140.46 111.712 139.523 111.158 138.807C110.611 138.084 109.882 137.723 108.971 137.723C108.079 137.723 107.359 138.077 106.812 138.787C106.266 139.497 105.992 140.512 105.992 141.834ZM118.512 133.875V136.434H120.484V137.83H118.512V144.383C118.512 144.806 118.6 145.125 118.775 145.34C118.951 145.548 119.251 145.652 119.674 145.652C119.882 145.652 120.169 145.613 120.533 145.535V147C120.058 147.13 119.596 147.195 119.146 147.195C118.339 147.195 117.73 146.951 117.32 146.463C116.91 145.975 116.705 145.281 116.705 144.383V137.83H114.781V136.434H116.705V133.875H118.512ZM127.711 138.055C127.438 138.009 127.141 137.986 126.822 137.986C125.637 137.986 124.833 138.491 124.41 139.5V147H122.604V136.434H124.361L124.391 137.654C124.983 136.71 125.823 136.238 126.91 136.238C127.262 136.238 127.529 136.284 127.711 136.375V138.055ZM133.57 147.195C132.138 147.195 130.973 146.727 130.074 145.789C129.176 144.845 128.727 143.585 128.727 142.01V141.678C128.727 140.63 128.925 139.695 129.322 138.875C129.726 138.048 130.286 137.404 131.002 136.941C131.725 136.473 132.506 136.238 133.346 136.238C134.719 136.238 135.787 136.691 136.549 137.596C137.311 138.501 137.691 139.796 137.691 141.482V142.234H130.533C130.559 143.276 130.862 144.119 131.441 144.764C132.027 145.402 132.77 145.721 133.668 145.721C134.306 145.721 134.846 145.59 135.289 145.33C135.732 145.07 136.119 144.725 136.451 144.295L137.555 145.154C136.669 146.515 135.341 147.195 133.57 147.195ZM133.346 137.723C132.617 137.723 132.005 137.99 131.51 138.523C131.015 139.051 130.709 139.793 130.592 140.75H135.885V140.613C135.833 139.695 135.585 138.986 135.143 138.484C134.7 137.977 134.101 137.723 133.346 137.723ZM148.99 145.721C149.635 145.721 150.198 145.525 150.68 145.135C151.161 144.744 151.428 144.256 151.48 143.67H153.189C153.157 144.275 152.949 144.852 152.564 145.398C152.18 145.945 151.666 146.382 151.021 146.707C150.383 147.033 149.706 147.195 148.99 147.195C147.551 147.195 146.406 146.717 145.553 145.76C144.706 144.796 144.283 143.481 144.283 141.814V141.512C144.283 140.483 144.472 139.568 144.85 138.768C145.227 137.967 145.768 137.345 146.471 136.902C147.18 136.46 148.017 136.238 148.98 136.238C150.165 136.238 151.148 136.593 151.93 137.303C152.717 138.012 153.137 138.934 153.189 140.066H151.48C151.428 139.383 151.168 138.823 150.699 138.387C150.237 137.944 149.664 137.723 148.98 137.723C148.062 137.723 147.35 138.055 146.842 138.719C146.34 139.376 146.09 140.33 146.09 141.58V141.922C146.09 143.139 146.34 144.077 146.842 144.734C147.343 145.392 148.059 145.721 148.99 145.721ZM154.742 141.619C154.742 140.584 154.944 139.653 155.348 138.826C155.758 137.999 156.324 137.361 157.047 136.912C157.776 136.463 158.606 136.238 159.537 136.238C160.976 136.238 162.138 136.736 163.023 137.732C163.915 138.729 164.361 140.053 164.361 141.707V141.834C164.361 142.863 164.163 143.787 163.766 144.607C163.375 145.421 162.812 146.056 162.076 146.512C161.347 146.967 160.507 147.195 159.557 147.195C158.124 147.195 156.962 146.697 156.07 145.701C155.185 144.705 154.742 143.387 154.742 141.746V141.619ZM156.559 141.834C156.559 143.006 156.829 143.947 157.369 144.656C157.916 145.366 158.645 145.721 159.557 145.721C160.475 145.721 161.204 145.363 161.744 144.646C162.285 143.924 162.555 142.915 162.555 141.619C162.555 140.46 162.278 139.523 161.725 138.807C161.178 138.084 160.449 137.723 159.537 137.723C158.645 137.723 157.926 138.077 157.379 138.787C156.832 139.497 156.559 140.512 156.559 141.834ZM168.326 136.434L168.375 137.605C169.15 136.694 170.195 136.238 171.51 136.238C172.988 136.238 173.993 136.805 174.527 137.938C174.879 137.43 175.335 137.02 175.895 136.707C176.461 136.395 177.128 136.238 177.896 136.238C180.214 136.238 181.393 137.465 181.432 139.92V147H179.625V140.027C179.625 139.272 179.452 138.709 179.107 138.338C178.762 137.96 178.183 137.771 177.369 137.771C176.699 137.771 176.142 137.973 175.699 138.377C175.257 138.774 174.999 139.311 174.928 139.988V147H173.111V140.076C173.111 138.54 172.359 137.771 170.855 137.771C169.671 137.771 168.86 138.276 168.424 139.285V147H166.617V136.434H168.326ZM193.092 141.834C193.092 143.442 192.724 144.738 191.988 145.721C191.253 146.704 190.257 147.195 189 147.195C187.717 147.195 186.708 146.788 185.973 145.975V151.062H184.166V136.434H185.816L185.904 137.605C186.64 136.694 187.662 136.238 188.971 136.238C190.24 136.238 191.243 136.717 191.979 137.674C192.721 138.631 193.092 139.962 193.092 141.668V141.834ZM191.285 141.629C191.285 140.438 191.031 139.497 190.523 138.807C190.016 138.117 189.319 137.771 188.434 137.771C187.34 137.771 186.52 138.257 185.973 139.227V144.275C186.513 145.239 187.34 145.721 188.453 145.721C189.319 145.721 190.006 145.379 190.514 144.695C191.028 144.005 191.285 142.983 191.285 141.629ZM197.848 133.875V136.434H199.82V137.83H197.848V144.383C197.848 144.806 197.936 145.125 198.111 145.34C198.287 145.548 198.587 145.652 199.01 145.652C199.218 145.652 199.505 145.613 199.869 145.535V147C199.394 147.13 198.932 147.195 198.482 147.195C197.675 147.195 197.066 146.951 196.656 146.463C196.246 145.975 196.041 145.281 196.041 144.383V137.83H194.117V136.434H196.041V133.875H197.848ZM206.324 147.195C204.892 147.195 203.727 146.727 202.828 145.789C201.93 144.845 201.48 143.585 201.48 142.01V141.678C201.48 140.63 201.679 139.695 202.076 138.875C202.48 138.048 203.04 137.404 203.756 136.941C204.479 136.473 205.26 136.238 206.1 136.238C207.473 136.238 208.541 136.691 209.303 137.596C210.064 138.501 210.445 139.796 210.445 141.482V142.234H203.287C203.313 143.276 203.616 144.119 204.195 144.764C204.781 145.402 205.523 145.721 206.422 145.721C207.06 145.721 207.6 145.59 208.043 145.33C208.486 145.07 208.873 144.725 209.205 144.295L210.309 145.154C209.423 146.515 208.095 147.195 206.324 147.195ZM206.1 137.723C205.37 137.723 204.758 137.99 204.264 138.523C203.769 139.051 203.463 139.793 203.346 140.75H208.639V140.613C208.587 139.695 208.339 138.986 207.896 138.484C207.454 137.977 206.855 137.723 206.1 137.723Z" fill="#093046"/>
<path d="M217.076 141.629C217.076 139.982 217.457 138.673 218.219 137.703C218.98 136.727 219.99 136.238 221.246 136.238C222.535 136.238 223.541 136.694 224.264 137.605L224.352 136.434H226.002V146.746C226.002 148.113 225.595 149.191 224.781 149.979C223.974 150.766 222.887 151.16 221.52 151.16C220.758 151.16 220.012 150.997 219.283 150.672C218.554 150.346 217.997 149.9 217.613 149.334L218.551 148.25C219.326 149.207 220.273 149.686 221.393 149.686C222.271 149.686 222.955 149.438 223.443 148.943C223.938 148.449 224.186 147.752 224.186 146.854V145.945C223.463 146.779 222.477 147.195 221.227 147.195C219.99 147.195 218.987 146.697 218.219 145.701C217.457 144.705 217.076 143.348 217.076 141.629ZM218.893 141.834C218.893 143.025 219.137 143.963 219.625 144.646C220.113 145.324 220.797 145.662 221.676 145.662C222.815 145.662 223.652 145.145 224.186 144.109V139.285C223.632 138.276 222.802 137.771 221.695 137.771C220.816 137.771 220.13 138.113 219.635 138.797C219.14 139.48 218.893 140.493 218.893 141.834ZM233.844 138.055C233.57 138.009 233.274 137.986 232.955 137.986C231.77 137.986 230.966 138.491 230.543 139.5V147H228.736V136.434H230.494L230.523 137.654C231.116 136.71 231.956 136.238 233.043 136.238C233.395 136.238 233.661 136.284 233.844 136.375V138.055ZM241.646 147C241.542 146.792 241.458 146.421 241.393 145.887C240.553 146.759 239.55 147.195 238.385 147.195C237.343 147.195 236.487 146.902 235.816 146.316C235.152 145.724 234.82 144.975 234.82 144.07C234.82 142.97 235.237 142.117 236.07 141.512C236.91 140.9 238.089 140.594 239.605 140.594H241.363V139.764C241.363 139.132 241.174 138.631 240.797 138.26C240.419 137.882 239.863 137.693 239.127 137.693C238.482 137.693 237.942 137.856 237.506 138.182C237.07 138.507 236.852 138.901 236.852 139.363H235.035C235.035 138.836 235.221 138.328 235.592 137.84C235.969 137.345 236.477 136.954 237.115 136.668C237.76 136.382 238.466 136.238 239.234 136.238C240.452 136.238 241.406 136.544 242.096 137.156C242.786 137.762 243.144 138.598 243.17 139.666V144.529C243.17 145.499 243.294 146.271 243.541 146.844V147H241.646ZM238.648 145.623C239.215 145.623 239.752 145.477 240.26 145.184C240.768 144.891 241.135 144.51 241.363 144.041V141.873H239.947C237.734 141.873 236.627 142.521 236.627 143.816C236.627 144.383 236.816 144.826 237.193 145.145C237.571 145.464 238.056 145.623 238.648 145.623ZM248.453 133.875V136.434H250.426V137.83H248.453V144.383C248.453 144.806 248.541 145.125 248.717 145.34C248.893 145.548 249.192 145.652 249.615 145.652C249.824 145.652 250.11 145.613 250.475 145.535V147C249.999 147.13 249.537 147.195 249.088 147.195C248.281 147.195 247.672 146.951 247.262 146.463C246.852 145.975 246.646 145.281 246.646 144.383V137.83H244.723V136.434H246.646V133.875H248.453ZM259.068 145.955C258.365 146.782 257.333 147.195 255.973 147.195C254.846 147.195 253.987 146.87 253.395 146.219C252.809 145.561 252.512 144.591 252.506 143.309V136.434H254.312V143.26C254.312 144.861 254.964 145.662 256.266 145.662C257.646 145.662 258.564 145.148 259.02 144.119V136.434H260.826V147H259.107L259.068 145.955ZM265.543 147H263.736V136.434H265.543V147ZM263.59 133.631C263.59 133.338 263.678 133.09 263.854 132.889C264.036 132.687 264.303 132.586 264.654 132.586C265.006 132.586 265.273 132.687 265.455 132.889C265.637 133.09 265.729 133.338 265.729 133.631C265.729 133.924 265.637 134.168 265.455 134.363C265.273 134.559 265.006 134.656 264.654 134.656C264.303 134.656 264.036 134.559 263.854 134.363C263.678 134.168 263.59 133.924 263.59 133.631ZM270.895 133.875V136.434H272.867V137.83H270.895V144.383C270.895 144.806 270.982 145.125 271.158 145.34C271.334 145.548 271.633 145.652 272.057 145.652C272.265 145.652 272.551 145.613 272.916 145.535V147C272.441 147.13 271.979 147.195 271.529 147.195C270.722 147.195 270.113 146.951 269.703 146.463C269.293 145.975 269.088 145.281 269.088 144.383V137.83H267.164V136.434H269.088V133.875H270.895ZM279.371 147.195C277.939 147.195 276.773 146.727 275.875 145.789C274.977 144.845 274.527 143.585 274.527 142.01V141.678C274.527 140.63 274.726 139.695 275.123 138.875C275.527 138.048 276.087 137.404 276.803 136.941C277.525 136.473 278.307 136.238 279.146 136.238C280.52 136.238 281.588 136.691 282.35 137.596C283.111 138.501 283.492 139.796 283.492 141.482V142.234H276.334C276.36 143.276 276.663 144.119 277.242 144.764C277.828 145.402 278.57 145.721 279.469 145.721C280.107 145.721 280.647 145.59 281.09 145.33C281.533 145.07 281.92 144.725 282.252 144.295L283.355 145.154C282.47 146.515 281.142 147.195 279.371 147.195ZM279.146 137.723C278.417 137.723 277.805 137.99 277.311 138.523C276.816 139.051 276.51 139.793 276.393 140.75H281.686V140.613C281.633 139.695 281.386 138.986 280.943 138.484C280.501 137.977 279.902 137.723 279.146 137.723ZM287.291 136.434L287.34 137.605C288.115 136.694 289.16 136.238 290.475 136.238C291.952 136.238 292.958 136.805 293.492 137.938C293.844 137.43 294.299 137.02 294.859 136.707C295.426 136.395 296.093 136.238 296.861 136.238C299.179 136.238 300.357 137.465 300.396 139.92V147H298.59V140.027C298.59 139.272 298.417 138.709 298.072 138.338C297.727 137.96 297.148 137.771 296.334 137.771C295.663 137.771 295.107 137.973 294.664 138.377C294.221 138.774 293.964 139.311 293.893 139.988V147H292.076V140.076C292.076 138.54 291.324 137.771 289.82 137.771C288.635 137.771 287.825 138.276 287.389 139.285V147H285.582V136.434H287.291ZM307.516 147.195C306.083 147.195 304.918 146.727 304.02 145.789C303.121 144.845 302.672 143.585 302.672 142.01V141.678C302.672 140.63 302.87 139.695 303.268 138.875C303.671 138.048 304.231 137.404 304.947 136.941C305.67 136.473 306.451 136.238 307.291 136.238C308.665 136.238 309.732 136.691 310.494 137.596C311.256 138.501 311.637 139.796 311.637 141.482V142.234H304.479C304.505 143.276 304.807 144.119 305.387 144.764C305.973 145.402 306.715 145.721 307.613 145.721C308.251 145.721 308.792 145.59 309.234 145.33C309.677 145.07 310.064 144.725 310.396 144.295L311.5 145.154C310.615 146.515 309.286 147.195 307.516 147.195ZM307.291 137.723C306.562 137.723 305.95 137.99 305.455 138.523C304.96 139.051 304.654 139.793 304.537 140.75H309.83V140.613C309.778 139.695 309.531 138.986 309.088 138.484C308.645 137.977 308.046 137.723 307.291 137.723ZM315.445 136.434L315.504 137.762C316.311 136.746 317.366 136.238 318.668 136.238C320.901 136.238 322.027 137.498 322.047 140.018V147H320.24V140.008C320.234 139.246 320.058 138.683 319.713 138.318C319.374 137.954 318.844 137.771 318.121 137.771C317.535 137.771 317.021 137.928 316.578 138.24C316.135 138.553 315.79 138.963 315.543 139.471V147H313.736V136.434H315.445ZM327.223 133.875V136.434H329.195V137.83H327.223V144.383C327.223 144.806 327.311 145.125 327.486 145.34C327.662 145.548 327.962 145.652 328.385 145.652C328.593 145.652 328.88 145.613 329.244 145.535V147C328.769 147.13 328.307 147.195 327.857 147.195C327.05 147.195 326.441 146.951 326.031 146.463C325.621 145.975 325.416 145.281 325.416 144.383V137.83H323.492V136.434H325.416V133.875H327.223Z" fill="#F1C24A"/>
<path d="M412 91L436.5 115.5L412 140" stroke="#57B9B3" stroke-width="4" stroke-linecap="round" stroke-linejoin="round"/>
<defs>
<filter id="filter0_d" x="0" y="0" width="384" height="246" filterUnits="userSpaceOnUse" color-interpolation-filters="sRGB">
<feFlood flood-opacity="0" result="BackgroundImageFix"/>
<feColorMatrix in="SourceAlpha" type="matrix" values="0 0 0 0 0 0 0 0 0 0 0 0 0 0 0 0 0 0 127 0"/>
<feOffset dx="8" dy="8"/>
<feGaussianBlur stdDeviation="6.5"/>
<feColorMatrix type="matrix" values="0 0 0 0 0 0 0 0 0 0 0 0 0 0 0 0 0 0 0.25 0"/>
<feBlend mode="normal" in2="BackgroundImageFix" result="effect1_dropShadow"/>
<feBlend mode="normal" in="SourceGraphic" in2="effect1_dropShadow" result="shape"/>
</filter>
</defs>
</svg>
