<svg width="231" height="182" viewBox="0 0 231 182" fill="none" xmlns="http://www.w3.org/2000/svg">
<g clip-path="url(#clip0)">
<path d="M141.858 161.648L135.693 167.329L140.592 159.1C136.732 152.093 130.419 146.037 130.419 146.037C130.419 146.037 117.322 158.598 117.322 168.472C117.322 178.346 123.186 181.793 130.419 181.793C137.653 181.793 143.516 178.346 143.516 168.472C143.516 166.274 142.867 163.944 141.858 161.648Z" fill="#F2F2F2"/>
<path d="M134.108 167.637V168.123C134.079 173.78 133.126 178.194 131.256 181.302C131.229 181.348 131.2 181.392 131.174 181.437L130.964 181.31L130.765 181.184C132.839 177.828 133.573 173.084 133.6 168.15C133.602 167.991 133.605 167.829 133.602 167.668C133.595 165.579 133.468 163.466 133.263 161.413C133.248 161.254 133.232 161.093 133.215 160.931C132.931 158.223 132.522 155.636 132.103 153.388C132.074 153.229 132.043 153.07 132.011 152.913C131.287 149.111 130.548 146.357 130.379 145.748C130.36 145.673 130.348 145.632 130.346 145.623L130.574 145.557L130.577 145.555L130.808 145.49C130.81 145.5 130.851 145.637 130.919 145.892C131.176 146.846 131.845 149.436 132.502 152.853C132.531 153.007 132.562 153.166 132.591 153.325C132.933 155.149 133.268 157.187 133.533 159.327C133.6 159.864 133.66 160.394 133.713 160.917C133.732 161.078 133.749 161.24 133.764 161.399C133.985 163.618 134.1 165.697 134.108 167.637Z" fill="white"/>
<path d="M132.502 152.853C132.34 152.875 132.177 152.896 132.011 152.913C131.559 152.96 131.106 152.983 130.653 152.983C128.721 152.986 126.812 152.554 125.069 151.721C124.968 151.848 124.867 151.976 124.763 152.106C126.597 153.002 128.612 153.467 130.653 153.465C131.137 153.465 131.621 153.439 132.102 153.388C132.266 153.371 132.429 153.349 132.591 153.325C133.922 153.134 135.216 152.742 136.43 152.161C136.326 152.029 136.225 151.899 136.126 151.771C134.978 152.308 133.756 152.673 132.502 152.853Z" fill="white"/>
<path d="M133.712 160.917C133.546 160.927 133.38 160.931 133.214 160.931C133.164 160.934 133.111 160.934 133.06 160.934C130.966 160.934 128.904 160.427 127.048 159.457C125.192 158.486 123.598 157.081 122.402 155.361C122.306 155.503 122.21 155.645 122.116 155.79C123.362 157.53 125.005 158.949 126.909 159.927C128.812 160.905 130.921 161.416 133.06 161.416C133.127 161.416 133.195 161.416 133.262 161.413C133.431 161.411 133.597 161.406 133.763 161.399C136.333 161.267 138.81 160.397 140.899 158.893C140.822 158.751 140.745 158.609 140.666 158.467C138.636 159.943 136.219 160.795 133.712 160.917Z" fill="white"/>
<path d="M134.106 167.637C133.938 167.651 133.769 167.661 133.601 167.668C133.42 167.675 133.24 167.68 133.059 167.68C130.246 167.677 127.509 166.761 125.259 165.071C123.009 163.381 121.366 161.006 120.577 158.303C120.469 158.498 120.36 158.691 120.257 158.886C121.146 161.583 122.862 163.931 125.16 165.596C127.458 167.261 130.222 168.159 133.059 168.162C133.24 168.162 133.42 168.159 133.599 168.15C133.769 168.145 133.938 168.135 134.106 168.123C137.51 167.857 140.684 166.306 142.988 163.784C142.937 163.606 142.88 163.43 142.822 163.252C140.597 165.792 137.471 167.365 134.106 167.637Z" fill="white"/>
<path d="M31.5957 64.2231C49.0456 64.2231 63.1915 50.0631 63.1915 32.5959C63.1915 15.1286 49.0456 0.968628 31.5957 0.968628C14.1459 0.968628 0 15.1286 0 32.5959C0 50.0631 14.1459 64.2231 31.5957 64.2231Z" fill="#E4E4E4"/>
<path d="M31.5959 58.9518C46.1374 58.9518 57.9257 47.1518 57.9257 32.5958C57.9257 18.0397 46.1374 6.23975 31.5959 6.23975C17.0544 6.23975 5.26611 18.0397 5.26611 32.5958C5.26611 47.1518 17.0544 58.9518 31.5959 58.9518Z" fill="#404DEF"/>
<path d="M115.5 64.2231C132.95 64.2231 147.096 50.0631 147.096 32.5959C147.096 15.1286 132.95 0.968628 115.5 0.968628C98.0502 0.968628 83.9043 15.1286 83.9043 32.5959C83.9043 50.0631 98.0502 64.2231 115.5 64.2231Z" fill="#E4E4E4"/>
<path d="M115.5 58.9518C130.042 58.9518 141.83 47.1518 141.83 32.5958C141.83 18.0397 130.042 6.23975 115.5 6.23975C100.959 6.23975 89.1704 18.0397 89.1704 32.5958C89.1704 47.1518 100.959 58.9518 115.5 58.9518Z" fill="white"/>
<path d="M199.404 64.2231C216.854 64.2231 231 50.0631 231 32.5959C231 15.1286 216.854 0.968628 199.404 0.968628C181.954 0.968628 167.809 15.1286 167.809 32.5959C167.809 50.0631 181.954 64.2231 199.404 64.2231Z" fill="#E4E4E4"/>
<path d="M199.404 58.9518C213.946 58.9518 225.734 47.1518 225.734 32.5958C225.734 18.0397 213.946 6.23975 199.404 6.23975C184.863 6.23975 173.075 18.0397 173.075 32.5958C173.075 47.1518 184.863 58.9518 199.404 58.9518Z" fill="white"/>
<path d="M29.358 42.1268C29.3109 42.1268 29.2638 42.1257 29.2166 42.1234C28.8002 42.1033 28.3931 41.9933 28.0231 41.8009C27.6532 41.6084 27.3292 41.3382 27.0734 41.0087L23.0345 35.8107C22.5642 35.204 22.3535 34.4354 22.4486 33.6734C22.5438 32.9115 22.9369 32.2184 23.5419 31.7462L23.6872 31.633C24.2933 31.1623 25.0612 30.9514 25.8224 31.0466C26.5837 31.1418 27.2761 31.5354 27.7478 32.1409C27.9755 32.4339 28.2637 32.6742 28.5927 32.8454C28.9217 33.0165 29.2838 33.1145 29.6541 33.1325C30.0245 33.1506 30.3943 33.0884 30.7384 32.9501C31.0825 32.8118 31.3927 32.6007 31.6477 32.3313L39.8486 23.6657C40.11 23.3895 40.4231 23.1676 40.7701 23.0126C41.1171 22.8576 41.4913 22.7726 41.8711 22.7623C42.251 22.752 42.6291 22.8167 42.984 22.9528C43.3389 23.0888 43.6635 23.2935 43.9393 23.5551L44.0732 23.6821C44.6303 24.2104 44.9549 24.9386 44.9756 25.7064C44.9963 26.4743 44.7114 27.219 44.1836 27.7766L31.4579 41.2223C31.1877 41.5081 30.8622 41.7357 30.5011 41.8912C30.14 42.0467 29.7511 42.1269 29.358 42.1268Z" fill="white"/>
<path d="M101.632 26.1919H80.8359V8.0875C80.8573 6.96651 81.3219 5.89976 82.1278 5.12108C82.9337 4.34241 84.0151 3.91536 85.135 3.93354H92.0478C97.3328 3.93354 101.632 8.08795 101.632 13.1944V26.1919Z" fill="#2F2E41"/>
<path d="M109.333 177.688L105.385 177.688L103.506 162.445L109.333 162.445L109.333 177.688Z" fill="#FFB6B6"/>
<path d="M110.339 181.519L97.6089 181.518V181.357C97.609 180.042 98.131 178.78 99.0602 177.85C99.9894 176.92 101.25 176.398 102.564 176.398H102.564L110.339 176.398L110.339 181.519Z" fill="#2F2E41"/>
<path d="M72.9429 177.688L68.9948 177.688L67.1167 162.445L72.9436 162.445L72.9429 177.688Z" fill="#FFB6B6"/>
<path d="M73.9502 181.519L61.2202 181.518V181.357C61.2203 180.042 61.7424 178.78 62.6716 177.85C63.6008 176.92 64.861 176.398 66.1751 176.398H66.1754L73.9504 176.398L73.9502 181.519Z" fill="#2F2E41"/>
<path d="M77.71 55.2288L75.1338 71.6685L99.6076 71.9907L96.3874 56.196L77.71 55.2288Z" fill="#FFB6B6"/>
<path d="M75.8435 67.6544L68.0486 88.4306L67.0825 174.53H73.6841L89.4633 105.354L103.955 172.724H110.395L105.887 96.9727C105.887 96.9727 107.216 81.7685 100.412 72.7967L98.7561 68.0073L75.8435 67.6544Z" fill="#2F2E41"/>
<path d="M109.279 83.8506C108.598 83.6647 107.965 83.3315 107.426 82.8744C106.887 82.4174 106.455 81.8477 106.16 81.2054C105.865 80.5631 105.714 79.8638 105.718 79.1568C105.722 78.4498 105.881 77.7524 106.184 77.1135L95.772 43.1353L103.43 41.6157L112.953 74.9215C113.991 75.5013 114.781 76.4423 115.173 77.5662C115.564 78.69 115.531 79.9187 115.078 81.0193C114.625 82.1199 113.785 83.0161 112.716 83.5379C111.647 84.0597 110.424 84.1709 109.279 83.8506H109.279Z" fill="#FFB6B6"/>
<path d="M95.5011 64.3079L78.6306 63.9819C78.1484 63.9717 77.6829 63.8034 77.3053 63.5031C76.9277 63.2027 76.6589 62.7867 76.54 62.3188C75.6356 58.7344 73.6458 49.3931 74.7013 40.0892C74.9096 38.2868 75.4769 36.5446 76.3697 34.9656C77.2624 33.3865 78.4625 32.0027 79.8989 30.8961C81.3354 29.7895 82.9789 28.9825 84.7324 28.5229C86.4859 28.0633 88.3136 27.9603 90.1075 28.2202C91.9999 28.4914 93.8136 29.16 95.4296 30.1822C97.0457 31.2045 98.4275 32.5571 99.4846 34.1515C100.542 35.746 101.25 37.5461 101.563 39.4338C101.876 41.3215 101.787 43.2542 101.302 45.105C99.178 53.1775 97.9785 58.9527 97.7364 62.2706C97.7006 62.7503 97.5089 63.205 97.1906 63.5654C96.8723 63.9258 96.4448 64.172 95.9736 64.2664C95.8335 64.2942 95.6909 64.3083 95.548 64.3084C95.5324 64.3084 95.5168 64.3083 95.5011 64.3079Z" fill="#E4E4E4"/>
<path d="M44.2558 34.4619C44.3571 34.6894 44.4403 34.9246 44.5047 35.1652L65.6219 42.3481L69.7023 38.7799L75.887 44.2403L69.2766 51.2598C68.7426 51.8269 68.0392 52.2053 67.272 52.3382C66.5049 52.4711 65.7154 52.3513 65.022 51.9967L42.4254 40.4429C41.6083 40.9447 40.6579 41.1855 39.7006 41.1334C38.7434 41.0812 37.8247 40.7386 37.0668 40.1511C36.3088 39.5636 35.7475 38.759 35.4575 37.8444C35.1675 36.9297 35.1626 35.9484 35.4434 35.0309C35.7241 34.1133 36.2773 33.3031 37.0293 32.708C37.7814 32.1129 38.6966 31.761 39.6532 31.6993C40.6099 31.6375 41.5626 31.8687 42.3848 32.3622C43.207 32.8557 43.8595 33.5881 44.2558 34.4619V34.4619Z" fill="#FFB6B6"/>
<path d="M65.6646 41.2027C65.6662 40.9116 65.7306 40.6242 65.8533 40.3603C65.976 40.0964 66.1541 39.8621 66.3755 39.6733L74.1077 33.0804C75.0862 31.958 76.4694 31.2698 77.9541 31.1669C79.4387 31.064 80.9036 31.5546 82.0273 32.5313C83.151 33.508 83.8419 34.8909 83.9484 36.3768C84.0549 37.8626 83.5683 39.3301 82.5954 40.4574L77.0891 49.0402C76.932 49.2851 76.7239 49.4933 76.4792 49.6505C76.2344 49.8077 75.9587 49.9102 75.6707 49.9511C75.3828 49.992 75.0894 49.9703 74.8106 49.8875C74.5318 49.8047 74.2741 49.6627 74.0551 49.4712L66.357 42.7408C66.1378 42.5494 65.9625 42.3129 65.843 42.0474C65.7235 41.782 65.6627 41.4938 65.6646 41.2027Z" fill="#E4E4E4"/>
<path d="M95.3053 51.7421C95.0479 51.6066 94.8227 51.4171 94.6452 51.1865C94.4676 50.956 94.3419 50.6898 94.2765 50.4061L91.9904 40.4998C91.4459 39.1136 91.4728 37.5678 92.0652 36.2014C92.6576 34.835 93.7671 33.7595 95.1505 33.2108C96.5339 32.6621 98.0782 32.685 99.4448 33.2743C100.811 33.8637 101.889 34.9715 102.44 36.3548L107.516 45.1996C107.661 45.452 107.75 45.7328 107.777 46.0226C107.803 46.3125 107.767 46.6047 107.671 46.8794C107.575 47.1541 107.42 47.4048 107.218 47.6144C107.017 47.824 106.772 47.9876 106.501 48.094L96.9881 51.8351C96.7174 51.9417 96.427 51.9885 96.1366 51.9725C95.8461 51.9564 95.5626 51.8778 95.3053 51.7421Z" fill="#E4E4E4"/>
<path d="M103.49 5.70261C104.271 3.87214 102.928 1.5431 100.49 0.500551C98.0514 -0.542 95.4416 0.0967273 94.6605 1.9272C93.8793 3.75768 95.2226 6.08673 97.6608 7.12928C100.099 8.17183 102.709 7.53309 103.49 5.70261Z" fill="#2F2E41"/>
<path d="M95.9263 19.3087C98.5346 14.5324 96.781 8.54393 92.0095 5.93299C87.238 3.32205 81.2555 5.07739 78.6471 9.85365C76.0388 14.6299 77.7924 20.6184 82.5639 23.2294C87.3354 25.8403 93.3179 24.0849 95.9263 19.3087Z" fill="#FFB6B6"/>
<path d="M92.6887 3.293H81.4264C80.6007 3.2823 79.8015 3.58447 79.1891 4.1389C78.5767 4.69333 78.1963 5.45902 78.1243 6.28243C78.0951 6.72 78.1561 7.1589 78.3033 7.57192C78.4506 7.98495 78.681 8.3633 78.9803 8.68355C79.2796 9.00379 79.6415 9.25909 80.0434 9.43364C80.4453 9.60818 80.8787 9.69826 81.3168 9.69827C82.1653 9.69827 82.9791 10.0357 83.5792 10.6363C84.1792 11.2369 84.5162 12.0515 84.5162 12.9009V26.0317H102.113V12.7269C102.113 11.488 101.869 10.2613 101.396 9.1167C100.922 7.97212 100.228 6.93214 99.3528 6.05612C98.4777 5.1801 97.4387 4.48521 96.2953 4.01111C95.1519 3.53701 93.9263 3.293 92.6887 3.293Z" fill="#2F2E41"/>
<path d="M148.206 182H26.3072C26.2224 182 26.141 181.966 26.081 181.906C26.021 181.846 25.9873 181.765 25.9873 181.68C25.9873 181.595 26.021 181.513 26.081 181.453C26.141 181.393 26.2224 181.359 26.3072 181.359H148.206C148.291 181.359 148.372 181.393 148.432 181.453C148.492 181.513 148.526 181.595 148.526 181.68C148.526 181.765 148.492 181.846 148.432 181.906C148.372 181.966 148.291 182 148.206 182Z" fill="#CACACA"/>
</g>
<defs>
<clipPath id="clip0">
<rect width="231" height="182" fill="white"/>
</clipPath>
</defs>
</svg>
