<svg width="213" height="197" viewBox="0 0 213 197" fill="none" xmlns="http://www.w3.org/2000/svg">
<g clip-path="url(#clip0)">
<path d="M194.053 157.721L176.763 132.035C176.763 132.035 202.948 141.177 199.976 157.721H194.053Z" fill="#E5E5E5"/>
<path d="M14.8219 157.891L14.1655 157.879C14.4194 150.579 15.1981 143.308 16.4956 136.12C19.334 120.732 24.0538 110.626 30.5238 106.082L30.9007 106.62C15.7866 117.233 14.8296 157.486 14.8219 157.891Z" fill="#E5E5E5"/>
<path d="M23.027 157.734L22.3706 157.722C22.3847 156.995 22.795 139.861 29.5393 135.125L29.9163 135.662C23.444 140.207 23.0302 157.56 23.027 157.734Z" fill="#E5E5E5"/>
<path d="M34.635 106.679C36.4476 106.679 37.917 105.21 37.917 103.397C37.917 101.584 36.4476 100.115 34.635 100.115C32.8224 100.115 31.353 101.584 31.353 103.397C31.353 105.21 32.8224 106.679 34.635 106.679Z" fill="#400186"/>
<path d="M33.01 134.908C34.8226 134.908 36.292 133.439 36.292 131.626C36.292 129.813 34.8226 128.343 33.01 128.343C31.1974 128.343 29.728 129.813 29.728 131.626C29.728 133.439 31.1974 134.908 33.01 134.908Z" fill="#400186"/>
<path d="M21.4973 108.647C22.114 112.587 20.5065 116.111 20.5065 116.111C20.5065 116.111 17.8988 113.247 17.282 109.307C16.6652 105.367 18.2728 101.843 18.2728 101.843C18.2728 101.843 20.8805 104.707 21.4973 108.647Z" fill="#E5E5E5"/>
<path d="M32.225 118.216C28.453 119.51 24.7031 118.541 24.7031 118.541C24.7031 118.541 27.0687 115.474 30.8407 114.18C34.6126 112.886 38.3626 113.855 38.3626 113.855C38.3626 113.855 35.997 116.922 32.225 118.216Z" fill="#E5E5E5"/>
<path d="M32.346 143.216C30.6388 143.752 28.8208 143.83 27.0737 143.443C28.183 142.031 29.677 140.969 31.3757 140.387C33.0744 139.804 34.9053 139.725 36.6479 140.159C35.5063 141.537 34.0228 142.591 32.346 143.216V143.216Z" fill="#E5E5E5"/>
<path d="M212.672 158.377H0.328197C0.241154 158.377 0.15768 158.343 0.0961315 158.281C0.0345826 158.22 0 158.136 0 158.049C0 157.962 0.0345826 157.879 0.0961315 157.817C0.15768 157.756 0.241154 157.721 0.328197 157.721H212.672C212.759 157.721 212.842 157.756 212.904 157.817C212.965 157.879 213 157.962 213 158.049C213 158.136 212.965 158.22 212.904 158.281C212.842 158.343 212.759 158.377 212.672 158.377Z" fill="#CBCBCB"/>
<path d="M134.493 173.509L131.808 180.499L103.575 173.467L107.538 163.151L134.493 173.509Z" fill="#FFB7B7"/>
<path d="M141.952 174.33L133.294 196.866L133.009 196.757C130.683 195.863 128.807 194.082 127.794 191.805C126.781 189.528 126.714 186.941 127.608 184.615L127.608 184.614L132.896 170.85L141.952 174.33Z" fill="#2F2E41"/>
<path d="M91.5916 85.9968L79.2881 87.1489L78.6777 123.762C78.8408 125.556 79.7 127.215 81.0712 128.384C82.4425 129.552 84.2167 130.137 86.014 130.014L93.8147 129.476L91.5916 85.9968Z" fill="#E5E5E5"/>
<path d="M134.967 84.1946L126.549 84.0863L126.05 127.59C127.91 127.652 129.763 127.33 131.494 126.644C133.224 125.958 134.794 124.923 136.107 123.603C137.42 122.283 138.446 120.707 139.123 118.973C139.8 117.239 140.112 115.384 140.04 113.524L134.967 84.1946Z" fill="#E5E5E5"/>
<path d="M86.1191 143.045C85.9197 144.307 85.6303 145.553 85.2531 146.773C84.8283 147.968 84.1724 149.073 83.784 150.28C82.5459 154.127 84.2623 158.417 87.0036 161.387C89.3808 163.952 92.4494 165.774 95.8391 166.634C98.3121 167.256 100.883 167.346 103.432 167.432C110.489 167.672 117.728 167.886 124.415 165.617C126.528 164.883 128.568 163.956 130.511 162.848C131.124 162.555 131.665 162.13 132.093 161.602C132.603 160.876 132.668 159.934 132.664 159.046C132.649 156.054 132.042 153.078 132.186 150.089C132.266 148.433 132.576 146.779 132.423 145.129C132.212 143.255 131.427 141.491 130.175 140.08C128.924 138.67 127.267 137.68 125.431 137.247C123.534 136.84 121.567 137.062 119.635 137.248C114.622 137.729 109.588 137.954 104.552 137.922C99.406 137.889 94.2921 137.104 89.1721 137.022C87.658 136.997 87.6886 137.464 87.2065 138.93C86.7625 140.279 86.3994 141.653 86.1191 143.045V143.045Z" fill="#2F2E41"/>
<path d="M65.9979 140.613C64.6142 140.265 63.1884 140.114 61.7626 140.163C60.2644 140.246 58.8011 140.647 57.4698 141.339C56.1385 142.031 54.9699 142.999 54.0415 144.178C53.1132 145.357 52.4465 146.72 52.0856 148.176C51.7248 149.633 51.6781 151.15 51.9488 152.626C52.2943 154.225 52.859 155.768 53.627 157.212C54.7502 159.492 56.0974 161.767 58.1767 163.228C59.3931 164.082 60.8009 164.615 62.1919 165.139L73.1434 169.265C74.7545 169.872 76.3659 170.479 77.9929 171.042C86.167 173.868 94.689 175.562 103.322 176.078C105.952 176.235 108.621 176.279 111.187 175.68C111.796 175.538 112.445 175.326 112.797 174.81C113.006 174.446 113.129 174.039 113.157 173.621L113.831 168.902C113.926 168.238 114.017 167.539 113.774 166.913C113.465 166.12 112.691 165.622 111.954 165.198C104.754 161.062 96.347 158.78 90.2868 153.104C88.8601 151.768 87.6662 149.65 85.9328 148.742C83.9672 147.712 81.6522 147.125 79.6205 146.176C75.1788 144.103 70.8118 141.72 65.9979 140.613Z" fill="#2F2E41"/>
<path opacity="0.1" d="M76.9313 146.974C80.8022 148.187 97.1451 156.592 99.9464 159.526C99.5709 159.662 86.8313 152.521 86.449 152.406C82.9742 151.363 79.4801 150.313 76.1802 148.787C75.5164 148.48 71.8675 147.037 72.0328 146.199C72.2193 145.254 76.2441 146.759 76.9313 146.974Z" fill="black"/>
<path d="M100.293 73.6908L89.8704 81.6053C89.8704 81.6053 78.873 81.9494 79.2446 88.9804C79.6162 96.0114 84.0176 129.301 84.0176 129.301L84.9726 140.755L103.087 145.917C112.874 148.706 123.215 148.928 133.112 146.561V146.561L130.96 135.07C130.96 135.07 139.676 82.8817 134.425 80.584C129.174 78.2863 125.892 78.9428 125.892 78.9428L119.31 73.1985L100.293 73.6908Z" fill="#E5E5E5"/>
<path d="M131.143 60.9069C131.143 71.1812 121.644 69.6272 109.926 69.6272C98.2089 69.6272 88.71 71.1812 88.71 60.9069C88.71 50.6326 93.35 32.4205 109.926 32.4205C127.074 32.4205 131.143 50.6326 131.143 60.9069Z" fill="#2F2E41"/>
<path d="M120.955 64.389C126.531 58.8128 126.531 49.7721 120.955 44.1959C115.38 38.6198 106.34 38.6198 100.765 44.1959C95.1897 49.7721 95.1897 58.8128 100.765 64.389C106.34 69.9652 115.38 69.9652 120.955 64.389Z" fill="#FFB7B7"/>
<path d="M93.3604 53.9309H99.0071L101.498 46.9546L101.996 53.9309H104.695L106.148 49.8614L106.439 53.9309H126.493C126.493 49.9221 124.901 46.0775 122.066 43.2428C119.232 40.4082 115.388 38.8157 111.38 38.8157H108.473C104.465 38.8157 100.621 40.4082 97.7869 43.2428C94.9526 46.0775 93.3604 49.9221 93.3604 53.9309V53.9309Z" fill="#2F2E41"/>
<path d="M124.251 75.3322H95.6978V109.798H124.251V75.3322Z" fill="#400186"/>
<path d="M97.2715 173.181L99.9568 180.171L128.19 173.139L124.227 162.823L97.2715 173.181Z" fill="#FFB7B7"/>
<path d="M98.8683 170.522L104.156 184.286L104.156 184.287C105.05 186.613 104.983 189.199 103.97 191.476C102.957 193.753 101.081 195.535 98.7551 196.429L98.4701 196.538L89.8125 174.002L98.8683 170.522Z" fill="#2F2E41"/>
<path d="M153.706 137.938C155.974 137.369 158.325 137.208 160.65 137.464C162.506 137.668 164.419 138.185 165.774 139.47C167.423 141.034 167.953 143.453 167.998 145.726C168.07 150.253 166.569 154.665 163.75 158.208C163.062 159.104 162.243 159.892 161.322 160.546C160.328 161.168 159.268 161.678 158.162 162.068L133.637 171.743C127.185 174.288 120.71 176.841 113.98 178.519C113.614 178.696 113.193 178.72 112.81 178.586C112.426 178.452 112.111 178.171 111.934 177.805C111.929 177.794 111.924 177.783 111.919 177.772C109.77 174.702 107.967 171.404 106.543 167.937C106.476 167.855 106.429 167.758 106.408 167.653C106.386 167.549 106.389 167.441 106.418 167.339C106.447 167.236 106.5 167.142 106.573 167.065C106.645 166.987 106.736 166.928 106.836 166.893L124.183 156.924C125.426 156.21 126.682 155.486 127.714 154.491C128.464 153.764 129.078 152.91 129.527 151.967C129.886 151.216 129.92 149.443 130.379 148.888C130.829 148.345 132.367 148.301 133.078 148.087C134.08 147.78 135.061 147.409 136.015 146.977C139.896 145.24 143.351 142.718 147.071 140.685C149.157 139.492 151.387 138.569 153.706 137.938V137.938Z" fill="#2F2E41"/>
<path opacity="0.1" d="M143.872 145.382C140.892 147.621 137.033 149.679 134.079 151.977C133.071 152.761 116.266 162.21 116.028 163.465C118.784 163.929 136.338 151.647 138.85 150.422C141.361 149.196 143.588 147.468 145.794 145.752C146.356 145.315 148.739 144.001 147.125 143.512C146.216 143.237 144.543 144.935 143.872 145.382Z" fill="black"/>
<path d="M197.44 58.9901C203.103 58.9901 207.695 54.3979 207.695 48.7332C207.695 43.0685 203.103 38.4763 197.44 38.4763C191.776 38.4763 187.184 43.0685 187.184 48.7332C187.184 54.3979 191.776 58.9901 197.44 58.9901Z" fill="#F1F1F1"/>
<path d="M178.459 60.827C182.432 60.827 185.653 57.6057 185.653 53.6319C185.653 49.6581 182.432 46.4368 178.459 46.4368C174.486 46.4368 171.265 49.6581 171.265 53.6319C171.265 57.6057 174.486 60.827 178.459 60.827Z" fill="#F1F1F1"/>
<path d="M46.6742 56.1336C49.86 56.1336 52.4426 53.5506 52.4426 50.3644C52.4426 47.1782 49.86 44.5952 46.6742 44.5952C43.4884 44.5952 40.9058 47.1782 40.9058 50.3644C40.9058 53.5506 43.4884 56.1336 46.6742 56.1336Z" fill="#F1F1F1"/>
<path d="M56.171 60.0131C58.4058 60.0131 60.2175 58.2012 60.2175 55.9661C60.2175 53.731 58.4058 51.9191 56.171 51.9191C53.9362 51.9191 52.1245 53.731 52.1245 55.9661C52.1245 58.2012 53.9362 60.0131 56.171 60.0131Z" fill="#F1F1F1"/>
<path d="M112.13 8.82005C114.565 8.82005 116.539 6.84561 116.539 4.41002C116.539 1.97443 114.565 0 112.13 0C109.694 0 107.72 1.97443 107.72 4.41002C107.72 6.84561 109.694 8.82005 112.13 8.82005Z" fill="#F1F1F1"/>
<path opacity="0.17" d="M85.8521 97.3244L86.2462 94.2815C86.2462 94.2815 100.949 95.3549 98.6517 98.9656C96.3544 102.576 90.775 102.905 90.775 102.905L85.8521 97.3244Z" fill="#2F2E41"/>
<path d="M96.9504 84.0939C97.7926 84.1866 98.6038 84.4647 99.3259 84.9081C100.048 85.3515 100.663 85.9493 101.127 86.6585V86.6585C101.549 87.3057 101.837 88.0317 101.972 88.7927C102.106 89.5538 102.086 90.3343 101.912 91.0873C101.738 91.8404 101.413 92.5505 100.958 93.1749C100.502 93.7994 99.9253 94.3253 99.2615 94.7211C99.0181 94.8649 98.7641 94.9898 98.5016 95.0947L89.4642 122.742C89.2024 123.287 88.8353 123.776 88.3841 124.179C87.9329 124.582 87.4064 124.892 86.835 125.091C86.2636 125.29 85.6585 125.374 85.0545 125.338C84.4505 125.303 83.8595 125.148 83.3155 124.883C82.7715 124.618 82.2852 124.248 81.8846 123.795C81.4839 123.341 81.1769 122.813 80.981 122.241C80.7852 121.668 80.7044 121.063 80.7434 120.459C80.7824 119.855 80.9403 119.265 81.2082 118.722L90.8191 91.3818C90.5573 90.4772 90.5225 89.522 90.7177 88.6008C90.913 87.6795 91.3322 86.8206 91.9385 86.1C92.5447 85.3794 93.3192 84.8194 94.1933 84.4695C95.0675 84.1196 96.0145 83.9906 96.9504 84.0939Z" fill="#FFB7B7"/>
<path d="M85.987 94.541C85.987 94.541 91.1653 103.39 98.6518 98.9658L91.3964 126.735H85.2836L78.96 125.553L80.7306 114.08L85.987 94.541Z" fill="#E5E5E5"/>
<path d="M122.962 100.589L118.672 94.6984C118.672 94.6984 120.734 88.5888 128.728 90.823C128.728 90.823 133.815 102.212 122.962 100.589Z" fill="#E5E5E5"/>
<path opacity="0.17" d="M122.962 100.589L118.672 94.6984C118.672 94.6984 120.734 88.5888 128.728 90.823C128.728 90.823 133.815 102.212 122.962 100.589Z" fill="#2F2E41"/>
<path d="M124.098 80.0093C125.335 80.5847 126.325 81.5852 126.887 82.829C127.449 84.0727 127.547 85.477 127.161 86.7863L136.772 114.126C137.04 114.669 137.198 115.259 137.237 115.863C137.276 116.467 137.195 117.073 136.999 117.645C136.803 118.218 136.496 118.746 136.096 119.2C135.695 119.653 135.209 120.023 134.665 120.288C134.121 120.553 133.53 120.708 132.926 120.743C132.322 120.779 131.716 120.695 131.145 120.496C130.574 120.297 130.047 119.987 129.596 119.584C129.145 119.18 128.778 118.692 128.516 118.146L119.479 90.4993C119.216 90.3944 118.962 90.2694 118.719 90.1257C118.055 89.7298 117.478 89.2039 117.022 88.5795C116.567 87.955 116.242 87.245 116.068 86.4919C115.894 85.7388 115.874 84.9584 116.009 84.1973C116.144 83.4362 116.431 82.7103 116.853 82.0631V82.0631C117.317 81.3539 117.932 80.7561 118.654 80.3127C119.376 79.8692 120.187 79.5912 121.03 79.4985C122.08 79.3794 123.142 79.5564 124.098 80.0093Z" fill="#FFB7B7"/>
<path d="M118.672 94.6986C118.672 94.6986 125.75 98.9938 128.728 90.8232L138.702 117.087L135.738 122.271L135.31 122.307C133.542 122.454 131.764 122.17 130.13 121.479C128.496 120.788 127.054 119.711 125.928 118.339V118.339C123.632 115.543 122.069 112.217 121.38 108.665L118.672 94.6986Z" fill="#E5E5E5"/>
</g>
<defs>
<clipPath id="clip0">
<rect width="213" height="196.866" fill="white"/>
</clipPath>
</defs>
</svg>
