<svg width="199" height="203" viewBox="0 0 199 203" fill="none" xmlns="http://www.w3.org/2000/svg">
<g clip-path="url(#clip0)">
<path d="M176.722 179.455C176.722 179.455 176.874 176.115 179.993 176.504Z" fill="#3F3D56"/>
<path d="M175.841 176.277C176.702 176.277 177.401 175.545 177.401 174.641C177.401 173.738 176.702 173.006 175.841 173.006C174.979 173.006 174.28 173.738 174.28 174.641C174.28 175.545 174.979 176.277 175.841 176.277Z" fill="#404DEF"/>
<path d="M176.027 177.396H175.587V180.627H176.027V177.396Z" fill="#3F3D56"/>
<path d="M70.7661 81.2599C70.7661 82.0778 70.7408 82.8889 70.6902 83.6932C70.4066 88.3316 69.2884 92.872 67.3945 97.075C67.3798 97.1109 67.3626 97.1442 67.348 97.1775C67.2598 97.3724 67.1693 97.5673 67.0763 97.7596C66.513 98.9483 65.8882 100.104 65.2045 101.221C62.0817 106.35 57.8014 110.593 52.7419 113.577C47.6824 116.561 41.9995 118.193 36.1953 118.328L36.5453 139.415L41.1085 136.897L41.9233 138.52L36.5796 141.469L37.2328 180.632L37.2401 181.155L33.7119 181.978L33.7192 181.453L34.83 118.331C30.1582 118.261 25.5463 117.219 21.2619 115.265C16.9776 113.312 13.1063 110.486 9.87272 106.952C9.65015 106.711 9.42985 106.462 9.21455 106.216C9.20476 106.206 9.19746 106.195 9.19006 106.188C6.49591 103.109 4.31703 99.5754 2.74524 95.7365C2.77953 95.7775 2.8162 95.816 2.8505 95.857C-0.701807 87.1521 -0.942735 77.353 2.17709 68.4679C5.29691 59.5828 11.5412 52.2844 19.6305 48.0683C19.7528 48.0042 19.8777 47.9426 20 47.8785C28.0018 43.8396 37.1596 43.0985 45.6582 45.8021C54.1569 48.5058 61.376 54.4568 65.8847 62.4757C66.1001 62.8551 66.3081 63.2423 66.5087 63.6321C69.3094 69.0436 70.773 75.1037 70.7661 81.2599Z" fill="#E5E5E5"/>
<path d="M66.0028 97.1977C91.6158 97.1977 112.379 75.4393 112.379 48.5989C112.379 21.7584 91.6158 0 66.0028 0C40.3899 0 19.6265 21.7584 19.6265 48.5989C19.6265 75.4393 40.3899 97.1977 66.0028 97.1977Z" fill="#404DEF"/>
<path opacity="0.2" d="M31.7598 16.1387C21.6909 40.8204 32.6219 69.3825 56.1749 79.934C65.1108 83.9372 75.0211 84.8977 84.5062 82.68C93.9912 80.4623 102.572 75.1783 109.037 67.5743C98.9687 92.2567 71.7131 103.713 48.1594 93.1628C24.6058 82.6124 13.6733 54.0507 23.7412 29.3682C25.7135 24.5328 28.4216 20.0649 31.7598 16.1387V16.1387Z" fill="black"/>
<path d="M68.5124 183.986L63.7754 182.594L63.7852 182.06L65.2043 101.221L65.2753 97.1903L65.2777 97.0724L65.5248 82.9496L65.8845 62.4782V62.4756L66.1292 48.599H66.2589L66.5085 63.632L66.8339 83.1983L67.0663 97.0826V97.1852L67.0761 97.757V97.7595L67.5263 124.823L67.5728 127.513L68.5026 183.448L68.5124 183.986Z" fill="#3F3D56"/>
<path d="M73.5065 121.523L65.8403 125.753L66.9087 127.879L74.5749 123.65L73.5065 121.523Z" fill="#3F3D56"/>
<path d="M65.0949 193.769H43.2275V194.282H65.0949V193.769Z" fill="#CBCBCB"/>
<path d="M105.222 202.487H83.355V203H105.222V202.487Z" fill="#CBCBCB"/>
<path d="M167.615 195.821H145.748V196.333H167.615V195.821Z" fill="#CBCBCB"/>
<path d="M157.627 174.955V160.039C157.627 160.039 163.174 170.614 157.627 174.955Z" fill="#F1F1F1"/>
<path d="M157.97 174.953L147.484 164.865C147.484 164.865 158.67 167.735 157.97 174.953Z" fill="#F1F1F1"/>
<path d="M49.2339 178.545V163.629C49.2339 163.629 54.781 174.204 49.2339 178.545Z" fill="#F1F1F1"/>
<path d="M49.5773 178.542L39.0918 168.455C39.0918 168.455 50.2769 171.324 49.5773 178.542Z" fill="#F1F1F1"/>
<path d="M86.9146 189.314V170.766C86.9146 170.766 93.8124 183.916 86.9146 189.314Z" fill="#F1F1F1"/>
<path d="M87.3411 189.311L74.3022 176.767C74.3022 176.767 88.2111 180.335 87.3411 189.311Z" fill="#F1F1F1"/>
<path d="M199 187.045L198.866 187.54L157.801 175.284L126.866 182.43L87.3041 189.511L87.2502 189.496L68.5127 183.986L63.7757 182.594L49.3078 178.337L37.2402 181.155L33.7119 181.978L26.0412 183.771L25.936 183.271L33.7193 181.453L37.2329 180.632L49.3225 177.809L49.3812 177.825L63.7855 182.06L68.5029 183.447L87.3285 188.986L126.771 181.927L157.816 174.755L157.877 174.771L199 187.045Z" fill="#CBCBCB"/>
<path d="M125.533 31.137L128.664 28.5131C126.232 28.2319 125.232 29.6218 124.823 30.722C122.923 29.8952 120.855 30.9787 120.855 30.9787L127.119 33.3617C126.803 32.4772 126.253 31.7055 125.533 31.137V31.137Z" fill="#3F3D56"/>
<path d="M10.534 30.1115L13.6647 27.4876C11.2326 27.2064 10.2333 28.5963 9.82436 29.6965C7.92435 28.8697 5.85596 29.9532 5.85596 29.9532L12.1198 32.3362C11.8038 31.4517 11.2537 30.68 10.534 30.1115V30.1115Z" fill="#3F3D56"/>
<path d="M118.682 80.1104L121.813 77.4865C119.381 77.2053 118.381 78.5952 117.972 79.6954C116.072 78.8686 114.004 79.9521 114.004 79.9521L120.268 82.3351C119.952 81.4506 119.402 80.6789 118.682 80.1104V80.1104Z" fill="#3F3D56"/>
<path d="M97.4204 192.965L99.8131 193.896L104.381 184.668L100.849 183.293L97.4204 192.965Z" fill="#FFB7B7"/>
<path d="M97.1007 191.908L101.813 193.743L101.813 193.743C102.609 194.053 103.256 194.682 103.609 195.492C103.963 196.301 103.996 197.225 103.7 198.059L103.664 198.161L95.9487 195.157L97.1007 191.908Z" fill="#2F2E41"/>
<path d="M120.967 195.569L123.52 195.568L124.734 185.251L120.967 185.251L120.967 195.569Z" fill="#FFB7B7"/>
<path d="M120.524 194.695L125.551 194.695H125.551C126.401 194.695 127.216 195.049 127.817 195.678C128.417 196.308 128.755 197.162 128.755 198.052V198.161L120.525 198.161L120.524 194.695Z" fill="#2F2E41"/>
<path d="M109.281 124.014L110.114 122.268L117.193 125.977L116.985 127.505L118.338 129.359C118.338 129.359 120.628 130.668 120.212 135.032L119.796 139.177L119.275 144.523L122.919 157.723L124.792 175.177L126.146 189.25L119.587 188.922L113.549 166.014L102.931 190.668L95.644 188.704L105.638 164.268L106.887 154.014C106.887 154.014 106.054 148.559 110.01 144.85L109.385 142.886V140.467L107.303 128.923L109.281 124.014Z" fill="#2F2E41"/>
<path opacity="0.2" d="M109.087 148.961L108.851 149.03L113.432 166.048L113.667 165.979L109.087 148.961Z" fill="black"/>
<path d="M109.489 145.614H119.691V144.523H109.489V145.614Z" fill="#3F3D56"/>
<path d="M119.691 146.268C119.921 146.268 120.108 145.78 120.108 145.177C120.108 144.575 119.921 144.086 119.691 144.086C119.461 144.086 119.275 144.575 119.275 145.177C119.275 145.78 119.461 146.268 119.691 146.268Z" fill="#3F3D56"/>
<path d="M119.96 118.879C121.431 116.06 120.442 112.527 117.753 110.986C115.063 109.445 111.691 110.481 110.221 113.299C108.751 116.118 109.739 119.651 112.429 121.192C115.118 122.733 118.49 121.697 119.96 118.879Z" fill="#FFB7B7"/>
<path d="M106.598 114.013C109.31 114.013 111.508 111.709 111.508 108.868C111.508 106.026 109.31 103.723 106.598 103.723C103.887 103.723 101.688 106.026 101.688 108.868C101.688 111.709 103.887 114.013 106.598 114.013Z" fill="#2F2E41"/>
<path d="M100.368 108.317C100.174 108.999 100.117 109.715 100.201 110.421C100.285 111.127 100.508 111.806 100.855 112.418C101.202 113.029 101.667 113.558 102.219 113.971C102.771 114.385 103.399 114.674 104.063 114.82C104.728 114.966 105.414 114.967 106.078 114.821C106.742 114.676 107.371 114.388 107.923 113.975C108.476 113.562 108.941 113.033 109.289 112.423C109.637 111.812 109.86 111.133 109.945 110.427C109.593 111.665 108.81 112.718 107.751 113.379C106.693 114.04 105.435 114.259 104.229 113.993C103.023 113.728 101.957 112.996 101.241 111.945C100.526 110.893 100.214 109.598 100.368 108.317V108.317Z" fill="#2F2E41"/>
<path d="M119.764 114.474C119.908 115.804 119.63 117.147 118.972 118.294C118.314 119.441 117.313 120.329 116.125 120.82C114.937 121.311 113.627 121.377 112.399 121.009C111.171 120.641 110.093 119.858 109.333 118.783C108.572 117.708 108.171 116.399 108.192 115.061C108.213 113.723 108.655 112.429 109.448 111.381C110.242 110.332 111.343 109.587 112.582 109.261C113.821 108.935 115.128 109.046 116.3 109.577C117.27 108.758 118.472 109.012 119.449 109.876C120.554 110.854 120.882 111.526 121.739 113.134C120.896 113.258 120.607 114.35 119.764 114.474Z" fill="#2F2E41"/>
<path d="M99.3636 131.964C99.4257 133.688 99.5488 137.08 99.5488 137.253C99.5488 137.436 102.003 142.761 103.063 145.053V145.054C103.139 145.215 103.206 145.362 103.266 145.491C103.348 145.669 103.477 145.818 103.638 145.922C103.798 146.025 103.984 146.078 104.172 146.074L108.806 145.987C109.061 145.983 109.304 145.875 109.485 145.687C109.665 145.499 109.77 145.245 109.776 144.978L110.293 123.616C110.295 123.545 110.283 123.475 110.259 123.41C110.234 123.344 110.197 123.284 110.15 123.234C110.103 123.183 110.047 123.143 109.985 123.116C109.923 123.089 109.857 123.074 109.79 123.074H103.814C103.562 123.074 103.314 123.149 103.101 123.29C102.887 123.43 102.715 123.631 102.605 123.869L99.7373 130.087C99.4684 130.671 99.3401 131.316 99.3636 131.964V131.964Z" fill="#404DEF"/>
<path d="M109.857 143.512C111.046 142.757 112.115 141.811 113.023 140.708C115.135 138.22 116.419 135.081 116.683 131.763C116.918 128.924 116.381 126.814 115.085 125.491C113.438 123.809 111.196 124.053 111.101 124.064L111.001 124.076L109.482 125.423L109.912 125.955L111.271 124.75C111.687 124.729 113.385 124.724 114.626 125.996C115.768 127.166 116.237 129.086 116.02 131.703C115.769 134.862 114.549 137.851 112.543 140.225C111.678 141.274 110.664 142.176 109.536 142.902L109.857 143.512Z" fill="#404DEF"/>
<path d="M101.236 135.396L101.191 135.624L109.287 137.367L109.332 137.139L101.236 135.396Z" fill="#3F3D56"/>
<path d="M106.571 123.07L106.045 136.57L106.267 136.579L106.792 123.079L106.571 123.07Z" fill="#3F3D56"/>
<path d="M99.3643 131.964C99.4265 133.688 99.5495 137.08 99.5495 137.253C99.5495 137.436 102.004 142.761 103.064 145.053L101.088 133.027C101.011 132.565 100.819 132.132 100.53 131.773C100.242 131.413 99.8673 131.141 99.4453 130.983C99.3789 131.305 99.3517 131.635 99.3643 131.964V131.964Z" fill="#3F3D56"/>
<path d="M111.507 157.166C111.332 156.929 111.208 156.656 111.145 156.364C111.082 156.072 111.081 155.77 111.141 155.477C111.202 155.185 111.323 154.91 111.495 154.672C111.668 154.434 111.889 154.239 112.142 154.1L111.74 149.444L114.381 148.498L114.86 155.082C115.054 155.542 115.081 156.061 114.935 156.541C114.789 157.021 114.48 157.427 114.066 157.684C113.653 157.941 113.164 158.03 112.692 157.935C112.221 157.839 111.799 157.565 111.507 157.166V157.166Z" fill="#FFB7B7"/>
<path d="M109.778 129.064C109.726 128.357 109.901 127.652 110.274 127.06C110.647 126.468 111.198 126.024 111.838 125.796C112.404 125.601 113.014 125.601 113.579 125.798C114.183 126.014 114.708 126.423 115.078 126.968C115.448 127.514 115.646 128.167 115.642 128.836L115.84 152.482L111.161 152.66L109.778 129.064Z" fill="#CBCBCB"/>
</g>
<defs>
<clipPath id="clip0">
<rect width="199" height="203" fill="white"/>
</clipPath>
</defs>
</svg>
