<svg width="48" height="48" viewBox="0 0 48 48" fill="none" xmlns="http://www.w3.org/2000/svg">
<path d="M18 26C19.1046 26 20 25.1046 20 24C20 22.8954 19.1046 22 18 22C16.8954 22 16 22.8954 16 24C16 25.1046 16.8954 26 18 26Z" stroke="white" stroke-width="1.83333" stroke-linecap="round" stroke-linejoin="round"/>
<path d="M30 26C31.1046 26 32 25.1046 32 24C32 22.8954 31.1046 22 30 22C28.8954 22 28 22.8954 28 24C28 25.1046 28.8954 26 30 26Z" stroke="white" stroke-width="1.83333" stroke-linecap="round" stroke-linejoin="round"/>
<path d="M15 15C22 13 26 13 33 15" stroke="white" stroke-width="1.83333" stroke-linecap="round" stroke-linejoin="round"/>
<path d="M14 33C21 35 27 35 34 33" stroke="white" stroke-width="1.83333" stroke-linecap="round" stroke-linejoin="round"/>
<path d="M31 34C31 36 34 40 35 40C38 40 40.666 36.666 42 34C43.334 30.666 43 22.334 39 11C36.086 8.97 33 8.32 30 8L28 13" stroke="white" stroke-width="1.83333" stroke-linecap="round" stroke-linejoin="round"/>
<path d="M17.0002 34C17.0002 36 14.2882 40 13.3362 40C10.4782 40 7.94022 36.666 6.67022 34C5.40022 30.666 5.71822 22.334 9.52622 11C12.3022 8.97 15.0902 8.32 18.0002 8L20.0002 13" stroke="white" stroke-width="1.83333" stroke-linecap="round" stroke-linejoin="round"/>
</svg>
