<svg width="48" height="49" viewBox="0 0 48 49" fill="none" xmlns="http://www.w3.org/2000/svg">
<path d="M32 8.14331H16C11.5817 8.14331 8 11.725 8 16.1433V32.1433C8 36.5616 11.5817 40.1433 16 40.1433H32C36.4183 40.1433 40 36.5616 40 32.1433V16.1433C40 11.725 36.4183 8.14331 32 8.14331Z" stroke="white" stroke-width="2" stroke-linecap="round" stroke-linejoin="round"/>
<path d="M24 30.1433C27.3137 30.1433 30 27.457 30 24.1433C30 20.8296 27.3137 18.1433 24 18.1433C20.6863 18.1433 18 20.8296 18 24.1433C18 27.457 20.6863 30.1433 24 30.1433Z" stroke="white" stroke-width="2" stroke-linecap="round" stroke-linejoin="round"/>
<path d="M33 15.1433V15.1443" stroke="white" stroke-width="2" stroke-linecap="round" stroke-linejoin="round"/>
</svg>
