<svg width="48" height="49" viewBox="0 0 48 49" fill="none" xmlns="http://www.w3.org/2000/svg">
<path d="M18 24.1433C16.4178 24.1433 14.871 24.6125 13.5554 25.4915C12.2398 26.3706 11.2145 27.62 10.609 29.0818C10.0035 30.5436 9.84504 32.1522 10.1537 33.704C10.4624 35.2559 11.2243 36.6813 12.3431 37.8002C13.462 38.919 14.8874 39.6809 16.4393 39.9896C17.9911 40.2983 19.5997 40.1398 21.0615 39.5343C22.5233 38.9288 23.7727 37.9035 24.6518 36.5879C25.5308 35.2723 26 33.7256 26 32.1433V8.14331C26 10.7955 27.0536 13.339 28.9289 15.2144C30.8043 17.0897 33.3478 18.1433 36 18.1433" stroke="white" stroke-width="2" stroke-linecap="round" stroke-linejoin="round"/>
</svg>
